G75*
%MOIN*%
%OFA0B0*%
%FSLAX25Y25*%
%IPPOS*%
%LPD*%
%AMOC8*
5,1,8,0,0,1.08239X$1,22.5*
%
%ADD10R,0.05000X0.02200*%
%ADD11R,0.02200X0.05000*%
%ADD12R,0.03150X0.03543*%
%ADD13R,0.06500X0.03937*%
%ADD14R,0.03150X0.04724*%
%ADD15R,0.04724X0.03150*%
%ADD16R,0.02165X0.04724*%
%ADD17R,0.05315X0.01575*%
%ADD18R,0.07480X0.05906*%
%ADD19R,0.10000X0.04000*%
%ADD20R,0.01969X0.01969*%
%ADD21R,0.00800X0.01900*%
%ADD22R,0.01900X0.00800*%
%ADD23R,0.03937X0.03150*%
%ADD24R,0.02756X0.05906*%
%ADD25R,0.07480X0.04331*%
%ADD26C,0.01181*%
%ADD27R,0.02756X0.03543*%
%ADD28R,0.03543X0.02756*%
D10*
X0099005Y0124713D03*
X0099005Y0127862D03*
X0099005Y0131012D03*
X0099005Y0134161D03*
X0099005Y0137311D03*
X0099005Y0140461D03*
X0099005Y0143610D03*
X0099005Y0146760D03*
X0132805Y0146760D03*
X0132805Y0143610D03*
X0132805Y0140461D03*
X0132805Y0137311D03*
X0132805Y0134161D03*
X0132805Y0131012D03*
X0132805Y0127862D03*
X0132805Y0124713D03*
D11*
X0126928Y0118836D03*
X0123779Y0118836D03*
X0120629Y0118836D03*
X0117480Y0118836D03*
X0114330Y0118836D03*
X0111180Y0118836D03*
X0108031Y0118836D03*
X0104881Y0118836D03*
X0104881Y0152636D03*
X0108031Y0152636D03*
X0111180Y0152636D03*
X0114330Y0152636D03*
X0117480Y0152636D03*
X0120629Y0152636D03*
X0123779Y0152636D03*
X0126928Y0152636D03*
D12*
X0038652Y0122585D03*
X0031171Y0122585D03*
X0034912Y0114317D03*
D13*
X0074579Y0111633D03*
X0074579Y0099035D03*
X0094870Y0099035D03*
X0094870Y0111633D03*
D14*
X0118407Y0104472D03*
X0118439Y0097867D03*
X0118323Y0091268D03*
X0125410Y0091268D03*
X0125525Y0097867D03*
X0125494Y0104472D03*
X0109674Y0080168D03*
X0102587Y0080168D03*
X0102587Y0068357D03*
X0109674Y0068357D03*
X0059281Y0101853D03*
X0052194Y0101853D03*
X0055416Y0132188D03*
X0048329Y0132188D03*
G36*
X0059947Y0154088D02*
X0062857Y0155293D01*
X0064665Y0150930D01*
X0061755Y0149725D01*
X0059947Y0154088D01*
G37*
G36*
X0066494Y0156800D02*
X0069404Y0158005D01*
X0071212Y0153642D01*
X0068302Y0152437D01*
X0066494Y0156800D01*
G37*
D15*
X0033296Y0056940D03*
X0033296Y0064026D03*
X0033296Y0070719D03*
X0033296Y0077806D03*
X0024275Y0070888D03*
X0024275Y0063801D03*
X0034214Y0091456D03*
X0034214Y0098542D03*
X0044469Y0098552D03*
X0044469Y0091465D03*
D16*
X0048136Y0113630D03*
X0051876Y0113630D03*
X0055616Y0113630D03*
X0055616Y0123867D03*
X0048136Y0123867D03*
D17*
X0023194Y0100419D03*
X0023194Y0097860D03*
X0023194Y0095301D03*
X0023194Y0092742D03*
X0023194Y0090183D03*
D18*
X0012564Y0091364D03*
X0012564Y0099238D03*
D19*
X0084875Y0046193D03*
X0084875Y0020193D03*
D20*
X0084482Y0081468D03*
D21*
X0084482Y0088768D03*
X0086432Y0088768D03*
X0088432Y0088768D03*
X0082532Y0088768D03*
X0080532Y0088768D03*
X0080532Y0074168D03*
X0082532Y0074168D03*
X0084482Y0074168D03*
X0086432Y0074168D03*
X0088432Y0074168D03*
D22*
X0091782Y0077518D03*
X0091782Y0079518D03*
X0091782Y0081468D03*
X0091782Y0083418D03*
X0091782Y0085418D03*
X0077182Y0085418D03*
X0077182Y0083418D03*
X0077182Y0081468D03*
X0077182Y0079518D03*
X0077182Y0077518D03*
D23*
G36*
X0025120Y0129869D02*
X0027902Y0132651D01*
X0030130Y0130423D01*
X0027348Y0127641D01*
X0025120Y0129869D01*
G37*
G36*
X0018996Y0135994D02*
X0021778Y0138776D01*
X0024006Y0136548D01*
X0021224Y0133766D01*
X0018996Y0135994D01*
G37*
G36*
X0042102Y0159100D02*
X0044884Y0161882D01*
X0047112Y0159654D01*
X0044330Y0156872D01*
X0042102Y0159100D01*
G37*
G36*
X0048226Y0152976D02*
X0051008Y0155758D01*
X0053236Y0153530D01*
X0050454Y0150748D01*
X0048226Y0152976D01*
G37*
D24*
G36*
X0045581Y0145875D02*
X0047530Y0147824D01*
X0051705Y0143649D01*
X0049756Y0141700D01*
X0045581Y0145875D01*
G37*
G36*
X0037230Y0137523D02*
X0039179Y0139472D01*
X0043354Y0135297D01*
X0041405Y0133348D01*
X0037230Y0137523D01*
G37*
G36*
X0033054Y0133347D02*
X0035003Y0135296D01*
X0039178Y0131121D01*
X0037229Y0129172D01*
X0033054Y0133347D01*
G37*
D25*
X0045713Y0081624D03*
X0045713Y0072569D03*
X0060279Y0072569D03*
X0060279Y0081624D03*
D26*
X0062099Y0115023D02*
X0064855Y0115023D01*
X0064855Y0112267D01*
X0062099Y0112267D01*
X0062099Y0115023D01*
X0062099Y0113447D02*
X0064855Y0113447D01*
X0064855Y0114627D02*
X0062099Y0114627D01*
X0062099Y0121928D02*
X0064855Y0121928D01*
X0064855Y0119172D01*
X0062099Y0119172D01*
X0062099Y0121928D01*
X0062099Y0120352D02*
X0064855Y0120352D01*
X0064855Y0121532D02*
X0062099Y0121532D01*
D27*
X0080930Y0068951D03*
X0080737Y0064420D03*
X0075619Y0064420D03*
X0071808Y0064381D03*
X0066690Y0064381D03*
X0066686Y0059259D03*
X0071804Y0059259D03*
X0086048Y0068951D03*
X0089398Y0051822D03*
X0094517Y0051822D03*
D28*
X0084871Y0051231D03*
X0084871Y0056349D03*
X0084871Y0059892D03*
X0084871Y0065010D03*
M02*
