G75*
%MOIN*%
%OFA0B0*%
%FSLAX25Y25*%
%IPPOS*%
%LPD*%
%AMOC8*
5,1,8,0,0,1.08239X$1,22.5*
%
%ADD10C,0.20600*%
%ADD11C,0.08000*%
%ADD12C,0.06309*%
%ADD13C,0.08868*%
%ADD14OC8,0.08000*%
%ADD15C,0.04143*%
%ADD16C,0.03300*%
D10*
X0084884Y0163568D03*
D11*
X0066950Y0164742D03*
X0057559Y0161306D03*
D12*
X0023194Y0105144D03*
X0023194Y0085459D03*
D13*
X0012605Y0081524D03*
X0012559Y0109096D03*
D14*
X0143725Y0104976D03*
X0153725Y0104976D03*
X0153725Y0094976D03*
X0143725Y0094976D03*
X0143725Y0084976D03*
X0153725Y0084976D03*
D15*
X0040292Y0148938D03*
X0031940Y0140586D03*
D16*
X0024241Y0053790D03*
X0049438Y0053790D03*
X0062036Y0053790D03*
X0074635Y0053790D03*
X0106918Y0053790D03*
X0119517Y0053790D03*
X0132115Y0053790D03*
X0144713Y0053790D03*
X0144713Y0068357D03*
X0132115Y0068357D03*
X0132115Y0082530D03*
X0119517Y0082530D03*
X0112824Y0090798D03*
X0119517Y0068357D03*
X0133690Y0110680D03*
X0144713Y0126625D03*
X0125028Y0141192D03*
X0112430Y0141192D03*
X0112824Y0127018D03*
X0087233Y0126625D03*
X0074635Y0126625D03*
X0061249Y0128593D03*
X0074635Y0141192D03*
X0087233Y0141192D03*
X0055737Y0107727D03*
X0043532Y0108514D03*
X0034083Y0109302D03*
M02*
