%
M48
M72
T01C0.0130
T02C0.0335
T03C0.0354
T04C0.0400
T05C0.0551
T06C0.2000
%
T01
X2424Y5379
X4944Y5379
X6204Y5379
X7463Y5379
X10692Y5379
X11952Y5379
X13211Y5379
X14471Y5379
X14471Y6836
X13211Y6836
X13211Y8253
X11952Y8253
X11282Y9080
X11952Y6836
X13369Y11068
X14471Y12662
X12503Y14119
X11243Y14119
X11282Y12702
X8723Y12662
X7463Y12662
X6125Y12859
X7463Y14119
X8723Y14119
X5574Y10773
X4353Y10851
X3408Y10930
T02
X2319Y10514
X2319Y8546
T03
X3194Y14059
X4029Y14894
T04
X5756Y16131
X6695Y16474
X14373Y10498
X15373Y10498
X15373Y9498
X15373Y8498
X14373Y8498
X14373Y9498
T05
X1261Y8152
X1256Y10910
T06
X8488Y16357
M30
