G75*
%MOIN*%
%OFA0B0*%
%FSLAX25Y25*%
%IPPOS*%
%LPD*%
%AMOC8*
5,1,8,0,0,1.08239X$1,22.5*
%
%ADD10R,0.05000X0.02200*%
%ADD11R,0.02200X0.05000*%
%ADD12R,0.03150X0.03543*%
%ADD13R,0.06500X0.03937*%
%ADD14R,0.03150X0.04724*%
%ADD15R,0.04724X0.03150*%
%ADD16C,0.07400*%
%ADD17R,0.02165X0.04724*%
%ADD18C,0.05709*%
%ADD19R,0.05315X0.01575*%
%ADD20R,0.07480X0.05906*%
%ADD21C,0.08268*%
%ADD22R,0.10000X0.04000*%
%ADD23R,0.03937X0.03937*%
%ADD24R,0.02559X0.01181*%
%ADD25R,0.01181X0.02559*%
%ADD26OC8,0.07400*%
%ADD27R,0.03937X0.03150*%
%ADD28R,0.02756X0.05906*%
%ADD29R,0.07480X0.04331*%
%ADD30C,0.01181*%
%ADD31C,0.01000*%
%ADD32C,0.01200*%
%ADD33C,0.02700*%
%ADD34C,0.00600*%
%ADD35C,0.01600*%
D10*
X0098437Y0109809D03*
X0098437Y0112959D03*
X0098437Y0116109D03*
X0098437Y0119258D03*
X0098437Y0122408D03*
X0098437Y0125557D03*
X0098437Y0128707D03*
X0098437Y0131857D03*
X0132237Y0131857D03*
X0132237Y0128707D03*
X0132237Y0125557D03*
X0132237Y0122408D03*
X0132237Y0119258D03*
X0132237Y0116109D03*
X0132237Y0112959D03*
X0132237Y0109809D03*
D11*
X0126361Y0103933D03*
X0123211Y0103933D03*
X0120062Y0103933D03*
X0116912Y0103933D03*
X0113763Y0103933D03*
X0110613Y0103933D03*
X0107463Y0103933D03*
X0104314Y0103933D03*
X0104314Y0137733D03*
X0107463Y0137733D03*
X0110613Y0137733D03*
X0113763Y0137733D03*
X0116912Y0137733D03*
X0120062Y0137733D03*
X0123211Y0137733D03*
X0126361Y0137733D03*
D12*
X0038084Y0107682D03*
X0030604Y0107682D03*
X0034344Y0099414D03*
D13*
X0074011Y0094368D03*
X0074011Y0081770D03*
X0094303Y0081770D03*
X0094303Y0094368D03*
D14*
X0087441Y0107861D03*
X0080354Y0107861D03*
X0080470Y0116428D03*
X0087557Y0116428D03*
X0087525Y0125002D03*
X0080438Y0125002D03*
G36*
X0062545Y0139430D02*
X0065504Y0140508D01*
X0067119Y0136070D01*
X0064160Y0134992D01*
X0062545Y0139430D01*
G37*
G36*
X0069205Y0141854D02*
X0072164Y0142932D01*
X0073779Y0138494D01*
X0070820Y0137416D01*
X0069205Y0141854D01*
G37*
X0054849Y0117285D03*
X0047762Y0117285D03*
X0051627Y0086950D03*
X0058713Y0086950D03*
X0067861Y0051291D03*
X0067876Y0045271D03*
X0067876Y0039230D03*
X0060789Y0039230D03*
X0060789Y0045271D03*
X0074948Y0051291D03*
X0079412Y0049839D03*
X0086499Y0049839D03*
X0086532Y0043978D03*
X0086539Y0038036D03*
X0082009Y0038011D03*
X0074923Y0038011D03*
X0093626Y0038036D03*
X0093618Y0043978D03*
X0102020Y0053454D03*
X0109107Y0053454D03*
X0109107Y0065265D03*
X0102020Y0065265D03*
D15*
X0043902Y0076562D03*
X0043902Y0083649D03*
X0033647Y0083639D03*
X0033647Y0076552D03*
X0032729Y0062903D03*
X0032729Y0055816D03*
X0032729Y0049123D03*
X0032729Y0042036D03*
X0023708Y0048898D03*
X0023708Y0055985D03*
D16*
X0059187Y0148080D03*
X0068745Y0151020D03*
D17*
X0055049Y0108964D03*
X0047568Y0108964D03*
X0047568Y0098727D03*
X0051309Y0098727D03*
X0055049Y0098727D03*
D18*
X0022627Y0090240D03*
X0022627Y0070555D03*
D19*
X0022627Y0075280D03*
X0022627Y0077839D03*
X0022627Y0080398D03*
X0022627Y0082957D03*
X0022627Y0085516D03*
D20*
X0011997Y0084335D03*
X0011997Y0076461D03*
D21*
X0012038Y0066621D03*
X0011992Y0094192D03*
D22*
X0086494Y0031798D03*
X0086494Y0005798D03*
D23*
X0083915Y0063021D03*
D24*
X0091395Y0063021D03*
X0091395Y0061053D03*
X0091395Y0059084D03*
X0091395Y0064990D03*
X0091395Y0066958D03*
X0076434Y0066958D03*
X0076434Y0064990D03*
X0076434Y0063021D03*
X0076434Y0061053D03*
X0076434Y0059084D03*
D25*
X0079978Y0055541D03*
X0081946Y0055541D03*
X0083915Y0055541D03*
X0085883Y0055541D03*
X0087852Y0055541D03*
X0087852Y0070502D03*
X0085883Y0070502D03*
X0083915Y0070502D03*
X0081946Y0070502D03*
X0079978Y0070502D03*
D26*
X0143158Y0070073D03*
X0143158Y0080073D03*
X0143158Y0090073D03*
X0153158Y0090073D03*
X0153158Y0080073D03*
X0153158Y0070073D03*
D27*
G36*
X0047659Y0138072D02*
X0050441Y0140854D01*
X0052669Y0138626D01*
X0049887Y0135844D01*
X0047659Y0138072D01*
G37*
G36*
X0041535Y0144197D02*
X0044317Y0146979D01*
X0046545Y0144751D01*
X0043763Y0141969D01*
X0041535Y0144197D01*
G37*
G36*
X0018428Y0121091D02*
X0021210Y0123873D01*
X0023438Y0121645D01*
X0020656Y0118863D01*
X0018428Y0121091D01*
G37*
G36*
X0024553Y0114966D02*
X0027335Y0117748D01*
X0029563Y0115520D01*
X0026781Y0112738D01*
X0024553Y0114966D01*
G37*
D28*
G36*
X0032487Y0118444D02*
X0034436Y0120393D01*
X0038611Y0116218D01*
X0036662Y0114269D01*
X0032487Y0118444D01*
G37*
G36*
X0036663Y0122620D02*
X0038612Y0124569D01*
X0042787Y0120394D01*
X0040838Y0118445D01*
X0036663Y0122620D01*
G37*
G36*
X0045014Y0130972D02*
X0046963Y0132921D01*
X0051138Y0128746D01*
X0049189Y0126797D01*
X0045014Y0130972D01*
G37*
D29*
X0045145Y0066721D03*
X0045145Y0057666D03*
X0059712Y0057666D03*
X0059712Y0066721D03*
D30*
X0061532Y0100120D02*
X0064288Y0100120D01*
X0064288Y0097364D01*
X0061532Y0097364D01*
X0061532Y0100120D01*
X0061532Y0098544D02*
X0064288Y0098544D01*
X0064288Y0099724D02*
X0061532Y0099724D01*
X0061532Y0107025D02*
X0064288Y0107025D01*
X0064288Y0104269D01*
X0061532Y0104269D01*
X0061532Y0107025D01*
X0061532Y0105449D02*
X0064288Y0105449D01*
X0064288Y0106629D02*
X0061532Y0106629D01*
D31*
X0023176Y0040767D02*
X0032384Y0035055D01*
X0060789Y0035055D01*
X0060789Y0045271D01*
X0060789Y0039230D01*
X0060789Y0039230D01*
X0060789Y0035076D01*
X0071895Y0035076D01*
X0071895Y0038011D01*
X0074923Y0038011D01*
X0082009Y0038036D02*
X0082009Y0038011D01*
X0086539Y0038036D02*
X0086566Y0038036D01*
X0093618Y0043978D02*
X0093626Y0043978D01*
X0089679Y0049483D02*
X0113427Y0049483D01*
X0113427Y0060369D01*
X0143158Y0060369D01*
X0143158Y0065129D01*
X0143158Y0070073D01*
X0113427Y0060369D02*
X0097727Y0060369D01*
X0097727Y0063021D01*
X0091395Y0063021D01*
X0091395Y0061053D02*
X0091395Y0061052D01*
X0094673Y0061052D01*
X0094673Y0057391D01*
X0105563Y0057391D01*
X0105563Y0053454D01*
X0109107Y0053454D01*
X0102020Y0053454D02*
X0091395Y0053454D01*
X0091395Y0059084D01*
X0091395Y0061053D02*
X0087847Y0061053D01*
X0087847Y0059359D01*
X0085878Y0059359D01*
X0085878Y0055541D01*
X0085883Y0055541D01*
X0083915Y0055541D02*
X0083910Y0055541D01*
X0083910Y0049517D01*
X0086750Y0049517D01*
X0086499Y0049839D01*
X0086532Y0049839D01*
X0089679Y0049483D02*
X0089679Y0055541D01*
X0087852Y0055541D01*
X0087847Y0061053D02*
X0087847Y0063296D01*
X0087847Y0066958D01*
X0091395Y0066958D01*
X0091395Y0064990D02*
X0102020Y0064990D01*
X0102020Y0065265D01*
X0087847Y0063296D02*
X0083915Y0063296D01*
X0083915Y0063021D01*
X0076434Y0063021D01*
X0076434Y0061053D02*
X0076434Y0061052D01*
X0064925Y0061052D01*
X0064925Y0066721D01*
X0059712Y0066721D01*
X0055894Y0062903D01*
X0032729Y0062903D01*
X0030626Y0062903D01*
X0030459Y0062901D01*
X0030292Y0062895D01*
X0030125Y0062885D01*
X0029958Y0062871D01*
X0029792Y0062853D01*
X0029626Y0062830D01*
X0029461Y0062804D01*
X0029297Y0062774D01*
X0029133Y0062740D01*
X0028970Y0062702D01*
X0028809Y0062660D01*
X0028648Y0062614D01*
X0028488Y0062564D01*
X0028330Y0062511D01*
X0028173Y0062453D01*
X0028017Y0062392D01*
X0027863Y0062327D01*
X0027711Y0062259D01*
X0027560Y0062186D01*
X0027411Y0062111D01*
X0027264Y0062031D01*
X0027119Y0061948D01*
X0026976Y0061862D01*
X0026835Y0061772D01*
X0026696Y0061678D01*
X0026560Y0061582D01*
X0026426Y0061482D01*
X0026294Y0061379D01*
X0026165Y0061273D01*
X0026039Y0061163D01*
X0025915Y0061051D01*
X0025794Y0060936D01*
X0025675Y0060817D01*
X0025560Y0060696D01*
X0025448Y0060572D01*
X0025338Y0060446D01*
X0025232Y0060317D01*
X0025129Y0060185D01*
X0025029Y0060051D01*
X0024933Y0059915D01*
X0024839Y0059776D01*
X0024749Y0059635D01*
X0024663Y0059492D01*
X0024580Y0059347D01*
X0024500Y0059200D01*
X0024425Y0059051D01*
X0024352Y0058900D01*
X0024284Y0058748D01*
X0024219Y0058594D01*
X0024158Y0058438D01*
X0024100Y0058281D01*
X0024047Y0058123D01*
X0023997Y0057963D01*
X0023951Y0057802D01*
X0023909Y0057641D01*
X0023871Y0057478D01*
X0023837Y0057314D01*
X0023807Y0057150D01*
X0023781Y0056985D01*
X0023758Y0056819D01*
X0023740Y0056653D01*
X0023726Y0056486D01*
X0023716Y0056319D01*
X0023710Y0056152D01*
X0023708Y0055985D01*
X0016833Y0058629D02*
X0016833Y0052311D01*
X0016833Y0044701D01*
X0023176Y0040767D01*
X0030570Y0042036D02*
X0032729Y0042036D01*
X0032729Y0041886D01*
X0045153Y0041886D01*
X0045153Y0053606D01*
X0064989Y0053606D01*
X0064989Y0059084D01*
X0076434Y0059084D01*
X0079978Y0055541D02*
X0067825Y0055541D01*
X0067861Y0051291D01*
X0067861Y0045271D01*
X0067876Y0045271D01*
X0067876Y0039230D01*
X0067876Y0039230D01*
X0074948Y0049839D02*
X0079412Y0049839D01*
X0079412Y0049517D01*
X0081941Y0049517D01*
X0081941Y0055541D01*
X0081946Y0055541D01*
X0074948Y0051291D02*
X0074948Y0049839D01*
X0045153Y0053606D02*
X0045145Y0053606D01*
X0045145Y0057666D01*
X0044540Y0057666D01*
X0032729Y0055816D02*
X0032729Y0049123D01*
X0030570Y0042036D02*
X0030404Y0042038D01*
X0030238Y0042044D01*
X0030073Y0042054D01*
X0029908Y0042068D01*
X0029743Y0042086D01*
X0029579Y0042108D01*
X0029415Y0042134D01*
X0029252Y0042164D01*
X0029089Y0042198D01*
X0028928Y0042235D01*
X0028767Y0042277D01*
X0028608Y0042323D01*
X0028450Y0042372D01*
X0028292Y0042425D01*
X0028137Y0042482D01*
X0027982Y0042543D01*
X0027830Y0042607D01*
X0027678Y0042675D01*
X0027529Y0042747D01*
X0027381Y0042822D01*
X0027235Y0042901D01*
X0027091Y0042983D01*
X0026949Y0043069D01*
X0026810Y0043158D01*
X0026672Y0043251D01*
X0026537Y0043347D01*
X0026404Y0043446D01*
X0026273Y0043548D01*
X0026145Y0043653D01*
X0026020Y0043762D01*
X0025897Y0043873D01*
X0025777Y0043988D01*
X0025660Y0044105D01*
X0025545Y0044225D01*
X0025434Y0044348D01*
X0025325Y0044473D01*
X0025220Y0044601D01*
X0025118Y0044732D01*
X0025019Y0044865D01*
X0024923Y0045000D01*
X0024830Y0045138D01*
X0024741Y0045277D01*
X0024655Y0045419D01*
X0024573Y0045563D01*
X0024494Y0045709D01*
X0024419Y0045857D01*
X0024347Y0046006D01*
X0024279Y0046158D01*
X0024215Y0046310D01*
X0024154Y0046465D01*
X0024097Y0046620D01*
X0024044Y0046778D01*
X0023995Y0046936D01*
X0023949Y0047095D01*
X0023907Y0047256D01*
X0023870Y0047417D01*
X0023836Y0047580D01*
X0023806Y0047743D01*
X0023780Y0047907D01*
X0023758Y0048071D01*
X0023740Y0048236D01*
X0023726Y0048401D01*
X0023716Y0048566D01*
X0023710Y0048732D01*
X0023708Y0048898D01*
X0016833Y0052311D02*
X0032729Y0052311D01*
X0032729Y0055816D01*
X0032729Y0041886D02*
X0032729Y0041643D01*
X0016833Y0058629D02*
X0033650Y0071509D01*
X0033650Y0076550D01*
X0033647Y0076552D01*
X0043902Y0076552D01*
X0043902Y0076562D01*
X0033647Y0076552D02*
X0033647Y0075280D01*
X0022627Y0075280D01*
X0022627Y0085516D02*
X0033647Y0085516D01*
X0033647Y0083639D01*
D32*
X0043902Y0083649D02*
X0043915Y0083429D01*
X0044215Y0083129D01*
X0051115Y0083129D01*
X0060715Y0073529D01*
X0064015Y0076829D01*
X0060715Y0073529D02*
X0069115Y0065129D01*
X0076315Y0065129D01*
X0076434Y0064990D01*
X0091395Y0066958D02*
X0091615Y0067229D01*
X0093415Y0069029D01*
X0103915Y0069029D01*
X0104215Y0069329D01*
X0104215Y0072629D01*
X0106615Y0075029D01*
X0103915Y0069029D02*
X0107515Y0065429D01*
X0109015Y0065429D01*
X0109107Y0065265D01*
X0109615Y0081929D02*
X0094315Y0081929D01*
X0094303Y0081770D01*
X0109615Y0081929D02*
X0112015Y0084329D01*
X0103915Y0112829D02*
X0100915Y0115829D01*
X0098815Y0115829D01*
X0098437Y0116109D01*
X0098215Y0116129D01*
X0096115Y0116129D01*
X0094615Y0117629D01*
X0094615Y0121229D01*
X0085615Y0121229D01*
X0084715Y0122129D01*
X0084676Y0122129D01*
X0084676Y0136149D01*
X0075908Y0136149D01*
X0075908Y0156353D01*
X0070915Y0156353D01*
X0070915Y0156329D01*
X0068515Y0156329D01*
X0068215Y0156029D01*
X0067615Y0156029D01*
X0067315Y0155729D01*
X0065815Y0155729D01*
X0064015Y0153929D01*
X0059815Y0153929D01*
X0059215Y0153329D01*
X0058015Y0153329D01*
X0057415Y0152729D01*
X0056215Y0152729D01*
X0055615Y0152129D01*
X0055615Y0151829D01*
X0046315Y0142529D01*
X0046315Y0135029D01*
X0035215Y0123929D01*
X0035215Y0122129D01*
X0040015Y0117329D01*
X0040015Y0115829D01*
X0038215Y0114029D01*
X0038215Y0108929D01*
X0038084Y0107682D01*
X0038215Y0108329D01*
X0038215Y0107729D02*
X0038084Y0107682D01*
X0030715Y0107729D02*
X0030604Y0107682D01*
X0030715Y0108329D01*
X0030715Y0113129D01*
X0034615Y0117029D01*
X0035549Y0117331D01*
X0034615Y0117629D01*
X0039115Y0122129D02*
X0039725Y0121507D01*
X0040315Y0121529D01*
X0066115Y0121529D01*
X0066115Y0103529D01*
X0064915Y0102329D01*
X0061015Y0102329D01*
X0057415Y0098729D01*
X0055315Y0098729D01*
X0055049Y0098727D01*
X0051415Y0098429D02*
X0051309Y0098727D01*
X0051415Y0098429D02*
X0051415Y0093029D01*
X0055915Y0088529D01*
X0055915Y0084029D01*
X0056815Y0083129D01*
X0062815Y0083129D01*
X0073915Y0094229D01*
X0074011Y0094368D01*
X0073615Y0094829D01*
X0068515Y0099929D01*
X0068515Y0113429D01*
X0071215Y0116129D01*
X0071215Y0139829D01*
X0071492Y0140174D01*
X0071215Y0140429D01*
X0071215Y0148529D01*
X0068815Y0150929D01*
X0068745Y0151020D01*
X0059187Y0148080D02*
X0059215Y0147929D01*
X0059215Y0143129D01*
X0064315Y0138029D01*
X0064832Y0137750D01*
X0064915Y0137729D01*
X0066115Y0136529D01*
X0066115Y0121529D01*
X0054849Y0117285D02*
X0054715Y0117029D01*
X0052615Y0114929D01*
X0052615Y0108629D01*
X0049315Y0105329D01*
X0046915Y0105329D01*
X0041215Y0099629D01*
X0034615Y0099629D01*
X0034344Y0099414D01*
X0034015Y0099029D01*
X0025615Y0099029D01*
X0018415Y0091829D01*
X0018415Y0076829D01*
X0019615Y0075629D01*
X0022315Y0075629D01*
X0022627Y0075280D01*
X0022993Y0041034D02*
X0023215Y0040829D01*
X0023176Y0040767D01*
X0103915Y0112829D02*
X0131815Y0112829D01*
X0132237Y0112959D01*
X0132415Y0113129D01*
X0134815Y0113129D01*
X0136015Y0114329D01*
X0158215Y0092129D01*
X0158215Y0068129D01*
X0155215Y0065129D01*
X0143158Y0065129D01*
X0136015Y0114329D02*
X0136015Y0117629D01*
X0134515Y0119129D01*
X0132415Y0119129D01*
X0132237Y0119258D01*
X0132115Y0122129D02*
X0132237Y0122408D01*
X0132115Y0122129D02*
X0122215Y0122129D01*
X0117115Y0122129D01*
X0109615Y0114629D01*
X0106915Y0114629D01*
X0101515Y0120029D01*
X0100915Y0119429D01*
X0098515Y0119429D01*
X0098437Y0119258D01*
X0098215Y0122129D02*
X0095815Y0122129D01*
X0094915Y0121229D01*
X0094615Y0121229D01*
X0098215Y0122129D02*
X0098437Y0122408D01*
X0098515Y0125429D02*
X0098437Y0125557D01*
X0098515Y0125429D02*
X0100915Y0125429D01*
X0102415Y0123929D01*
X0102415Y0120929D01*
X0101515Y0120029D01*
D33*
X0108415Y0117329D03*
X0122215Y0122129D03*
X0130915Y0094829D03*
X0127015Y0093929D03*
X0119215Y0091529D03*
X0114415Y0093929D03*
X0114415Y0086729D03*
X0112015Y0084329D03*
X0106615Y0075029D03*
X0084115Y0089729D03*
X0064015Y0076829D03*
X0071215Y0111329D03*
X0022993Y0041034D03*
X0153115Y0101129D03*
D34*
X0152215Y0102029D01*
X0152215Y0117029D01*
X0135115Y0134129D01*
X0115615Y0134129D01*
X0113815Y0135929D01*
X0113815Y0137729D01*
X0113763Y0137733D01*
X0108415Y0126929D02*
X0108415Y0117329D01*
X0108415Y0126929D02*
X0101215Y0134129D01*
X0095815Y0134129D01*
X0087715Y0126029D01*
X0087715Y0125129D01*
X0087525Y0125002D01*
X0082615Y0119729D02*
X0078415Y0119729D01*
X0077215Y0118529D01*
X0077215Y0113429D01*
X0076615Y0112829D01*
X0076615Y0098429D01*
X0078415Y0096629D01*
X0078415Y0086129D01*
X0074215Y0081929D01*
X0074011Y0081770D01*
X0078415Y0084329D02*
X0079615Y0085529D01*
X0079615Y0103229D01*
X0077815Y0105029D01*
X0077815Y0112229D01*
X0080215Y0114629D01*
X0080215Y0116129D01*
X0080470Y0116428D01*
X0083215Y0115529D02*
X0083215Y0119129D01*
X0082615Y0119729D01*
X0083215Y0115529D02*
X0085615Y0113129D01*
X0087415Y0113129D01*
X0100015Y0100529D01*
X0109015Y0100529D01*
X0110515Y0102029D01*
X0110515Y0103829D01*
X0110613Y0103933D01*
X0116815Y0103829D02*
X0116912Y0103933D01*
X0116815Y0103829D02*
X0116815Y0085829D01*
X0111415Y0080429D01*
X0108715Y0080429D01*
X0098815Y0070529D01*
X0088015Y0070529D01*
X0087852Y0070502D01*
X0085915Y0070529D02*
X0085883Y0070502D01*
X0085915Y0070529D02*
X0085915Y0080129D01*
X0092515Y0086729D01*
X0114415Y0086729D01*
X0119215Y0091529D02*
X0119215Y0103229D01*
X0119815Y0103829D01*
X0120062Y0103933D01*
X0123115Y0104129D02*
X0123211Y0103933D01*
X0123415Y0103829D01*
X0123415Y0092429D01*
X0135715Y0080129D01*
X0142915Y0080129D01*
X0143158Y0080073D01*
X0148015Y0078629D02*
X0148015Y0081929D01*
X0144715Y0085229D01*
X0140215Y0085229D01*
X0130915Y0094529D01*
X0130915Y0094829D01*
X0129415Y0093329D01*
X0129415Y0093029D01*
X0127915Y0091529D01*
X0126115Y0091529D01*
X0124615Y0093029D01*
X0124615Y0100229D01*
X0126115Y0101729D01*
X0126115Y0103829D01*
X0126361Y0103933D01*
X0123115Y0104129D02*
X0123115Y0105929D01*
X0121615Y0107429D01*
X0095815Y0107429D01*
X0087715Y0115529D01*
X0087715Y0116129D01*
X0087557Y0116428D01*
X0087441Y0107861D02*
X0087715Y0107729D01*
X0091015Y0107729D01*
X0104815Y0093929D01*
X0114415Y0093929D01*
X0127015Y0093929D02*
X0127015Y0099629D01*
X0131965Y0104579D01*
X0132115Y0104429D01*
X0135415Y0104429D01*
X0148015Y0091829D01*
X0148015Y0088529D01*
X0153115Y0083429D01*
X0153115Y0080129D01*
X0153158Y0080073D01*
X0148015Y0078629D02*
X0153115Y0073529D01*
X0153115Y0070229D01*
X0153158Y0070073D01*
X0131965Y0104579D02*
X0132115Y0104729D01*
X0132115Y0109529D01*
X0132237Y0109809D01*
X0086515Y0101729D02*
X0086515Y0088829D01*
X0084115Y0086429D01*
X0084115Y0070529D01*
X0083915Y0070502D01*
X0081946Y0070502D02*
X0081715Y0070229D01*
X0081715Y0069029D01*
X0080815Y0068129D01*
X0079015Y0068129D01*
X0078415Y0068729D01*
X0078415Y0084329D01*
X0080215Y0084329D02*
X0084115Y0088229D01*
X0084115Y0089729D01*
X0080215Y0084329D02*
X0080215Y0070529D01*
X0079978Y0070502D01*
X0062815Y0090929D02*
X0058915Y0087029D01*
X0058713Y0086950D01*
X0062815Y0090929D02*
X0062815Y0098729D01*
X0062910Y0098742D01*
X0062910Y0105647D02*
X0062815Y0105929D01*
X0058315Y0105929D01*
X0055315Y0108929D01*
X0055049Y0108964D01*
X0055315Y0108629D01*
X0048715Y0102029D01*
X0046015Y0102029D01*
X0034015Y0090029D01*
X0034015Y0085829D01*
X0033647Y0085516D01*
X0047815Y0090629D02*
X0047815Y0098429D01*
X0047568Y0098727D01*
X0047815Y0090629D02*
X0051415Y0087029D01*
X0051627Y0086950D01*
X0047568Y0108964D02*
X0047515Y0109229D01*
X0047515Y0117029D01*
X0047762Y0117285D01*
X0071215Y0113729D02*
X0071215Y0111329D01*
X0071215Y0113729D02*
X0076015Y0118529D01*
X0076015Y0120629D01*
X0080215Y0124829D01*
X0080438Y0125002D01*
X0080354Y0107861D02*
X0080515Y0107729D01*
X0086515Y0101729D01*
D35*
X0086532Y0049839D02*
X0086532Y0043978D01*
X0086539Y0038036D02*
X0082009Y0038036D01*
X0086566Y0038036D02*
X0086494Y0031798D01*
X0093626Y0038036D02*
X0093626Y0043978D01*
M02*
