G75*
%MOIN*%
%OFA0B0*%
%FSLAX25Y25*%
%IPPOS*%
%LPD*%
%AMOC8*
5,1,8,0,0,1.08239X$1,22.5*
%
%ADD10R,0.05000X0.02200*%
%ADD11R,0.02200X0.05000*%
%ADD12R,0.03150X0.03543*%
%ADD13R,0.06500X0.03937*%
%ADD14R,0.04724X0.03150*%
%ADD15R,0.02165X0.04724*%
%ADD16R,0.05315X0.01575*%
%ADD17R,0.07480X0.05906*%
%ADD18R,0.03150X0.04724*%
%ADD19R,0.10000X0.04000*%
%ADD20R,0.01969X0.01969*%
%ADD21R,0.01900X0.00800*%
%ADD22R,0.00800X0.01900*%
%ADD23R,0.03937X0.03150*%
%ADD24R,0.02756X0.05906*%
%ADD25R,0.04331X0.07480*%
%ADD26C,0.01181*%
%ADD27R,0.03543X0.02756*%
%ADD28R,0.02756X0.03543*%
D10*
X0098741Y0124713D03*
X0098741Y0127862D03*
X0098741Y0131012D03*
X0098741Y0134161D03*
X0098741Y0137311D03*
X0098741Y0140461D03*
X0098741Y0143610D03*
X0098741Y0146760D03*
X0132541Y0146760D03*
X0132541Y0143610D03*
X0132541Y0140461D03*
X0132541Y0137311D03*
X0132541Y0134161D03*
X0132541Y0131012D03*
X0132541Y0127862D03*
X0132541Y0124713D03*
D11*
X0126664Y0118836D03*
X0123515Y0118836D03*
X0120365Y0118836D03*
X0117215Y0118836D03*
X0114066Y0118836D03*
X0110916Y0118836D03*
X0107767Y0118836D03*
X0104617Y0118836D03*
X0104617Y0152636D03*
X0107767Y0152636D03*
X0110916Y0152636D03*
X0114066Y0152636D03*
X0117215Y0152636D03*
X0120365Y0152636D03*
X0123515Y0152636D03*
X0126664Y0152636D03*
D12*
X0038388Y0122585D03*
X0030907Y0122585D03*
X0034647Y0114317D03*
D13*
X0074314Y0111633D03*
X0074314Y0099035D03*
X0094606Y0099035D03*
X0094606Y0111633D03*
D14*
X0033032Y0056940D03*
X0033032Y0064026D03*
X0033032Y0070719D03*
X0033032Y0077806D03*
X0024011Y0070888D03*
X0024011Y0063801D03*
X0033950Y0091456D03*
X0033950Y0098542D03*
X0044205Y0098552D03*
X0044205Y0091465D03*
X0139331Y0074656D03*
X0139331Y0067570D03*
X0150355Y0067570D03*
X0150355Y0074656D03*
D15*
X0055352Y0113630D03*
X0051612Y0113630D03*
X0047872Y0113630D03*
X0047872Y0123867D03*
X0055352Y0123867D03*
D16*
X0022930Y0100419D03*
X0022930Y0097860D03*
X0022930Y0095301D03*
X0022930Y0092742D03*
X0022930Y0090183D03*
D17*
X0012300Y0091364D03*
X0012300Y0099238D03*
D18*
X0048065Y0132188D03*
X0055152Y0132188D03*
G36*
X0059683Y0154088D02*
X0062593Y0155293D01*
X0064401Y0150930D01*
X0061491Y0149725D01*
X0059683Y0154088D01*
G37*
G36*
X0066230Y0156800D02*
X0069140Y0158005D01*
X0070948Y0153642D01*
X0068038Y0152437D01*
X0066230Y0156800D01*
G37*
X0059017Y0101853D03*
X0051930Y0101853D03*
X0125230Y0104079D03*
X0125261Y0097867D03*
X0125146Y0091268D03*
X0132232Y0091268D03*
X0132348Y0097867D03*
X0132316Y0104079D03*
D19*
X0084611Y0046193D03*
X0084611Y0020193D03*
D20*
X0123702Y0060872D03*
D21*
X0131002Y0060872D03*
X0131002Y0062822D03*
X0131002Y0064822D03*
X0131002Y0058922D03*
X0131002Y0056922D03*
X0116402Y0056922D03*
X0116402Y0058922D03*
X0116402Y0060872D03*
X0116402Y0062822D03*
X0116402Y0064822D03*
D22*
X0119752Y0068172D03*
X0121752Y0068172D03*
X0123702Y0068172D03*
X0125652Y0068172D03*
X0127652Y0068172D03*
X0127652Y0053572D03*
X0125652Y0053572D03*
X0123702Y0053572D03*
X0121752Y0053572D03*
X0119752Y0053572D03*
D23*
G36*
X0024856Y0129869D02*
X0027638Y0132651D01*
X0029866Y0130423D01*
X0027084Y0127641D01*
X0024856Y0129869D01*
G37*
G36*
X0018732Y0135994D02*
X0021514Y0138776D01*
X0023742Y0136548D01*
X0020960Y0133766D01*
X0018732Y0135994D01*
G37*
G36*
X0041838Y0159100D02*
X0044620Y0161882D01*
X0046848Y0159654D01*
X0044066Y0156872D01*
X0041838Y0159100D01*
G37*
G36*
X0047962Y0152976D02*
X0050744Y0155758D01*
X0052972Y0153530D01*
X0050190Y0150748D01*
X0047962Y0152976D01*
G37*
D24*
G36*
X0045317Y0145875D02*
X0047266Y0147824D01*
X0051441Y0143649D01*
X0049492Y0141700D01*
X0045317Y0145875D01*
G37*
G36*
X0036966Y0137523D02*
X0038915Y0139472D01*
X0043090Y0135297D01*
X0041141Y0133348D01*
X0036966Y0137523D01*
G37*
G36*
X0032790Y0133347D02*
X0034739Y0135296D01*
X0038914Y0131121D01*
X0036965Y0129172D01*
X0032790Y0133347D01*
G37*
D25*
X0044267Y0074144D03*
X0053322Y0074144D03*
X0053322Y0059577D03*
X0044267Y0059577D03*
D26*
X0061835Y0115023D02*
X0064591Y0115023D01*
X0064591Y0112267D01*
X0061835Y0112267D01*
X0061835Y0115023D01*
X0061835Y0113447D02*
X0064591Y0113447D01*
X0064591Y0114627D02*
X0061835Y0114627D01*
X0061835Y0121928D02*
X0064591Y0121928D01*
X0064591Y0119172D01*
X0061835Y0119172D01*
X0061835Y0121928D01*
X0061835Y0120352D02*
X0064591Y0120352D01*
X0064591Y0121532D02*
X0061835Y0121532D01*
D27*
X0101493Y0078668D03*
X0101493Y0073550D03*
X0106615Y0073546D03*
X0106654Y0069735D03*
X0106654Y0064617D03*
X0111086Y0064424D03*
X0111086Y0059306D03*
X0093662Y0064617D03*
X0089331Y0064617D03*
X0085000Y0064617D03*
X0085000Y0069735D03*
X0089331Y0069735D03*
X0093662Y0069735D03*
X0106615Y0078664D03*
D28*
X0107245Y0060483D03*
X0102126Y0060483D03*
X0098583Y0060483D03*
X0093465Y0060483D03*
X0089922Y0060483D03*
X0084804Y0060483D03*
M02*
