G75*
%MOIN*%
%OFA0B0*%
%FSLAX25Y25*%
%IPPOS*%
%LPD*%
%AMOC8*
5,1,8,0,0,1.08239X$1,22.5*
%
%ADD10C,0.00000*%
%ADD11C,0.00394*%
D10*
X0029904Y0140586D02*
X0029906Y0140670D01*
X0029912Y0140753D01*
X0029922Y0140836D01*
X0029936Y0140919D01*
X0029953Y0141001D01*
X0029975Y0141082D01*
X0030000Y0141161D01*
X0030029Y0141240D01*
X0030062Y0141317D01*
X0030098Y0141392D01*
X0030138Y0141466D01*
X0030181Y0141538D01*
X0030228Y0141607D01*
X0030278Y0141674D01*
X0030331Y0141739D01*
X0030387Y0141801D01*
X0030445Y0141861D01*
X0030507Y0141918D01*
X0030571Y0141971D01*
X0030638Y0142022D01*
X0030707Y0142069D01*
X0030778Y0142114D01*
X0030851Y0142154D01*
X0030926Y0142191D01*
X0031003Y0142225D01*
X0031081Y0142255D01*
X0031160Y0142281D01*
X0031241Y0142304D01*
X0031323Y0142322D01*
X0031405Y0142337D01*
X0031488Y0142348D01*
X0031571Y0142355D01*
X0031655Y0142358D01*
X0031739Y0142357D01*
X0031822Y0142352D01*
X0031906Y0142343D01*
X0031988Y0142330D01*
X0032070Y0142314D01*
X0032151Y0142293D01*
X0032232Y0142269D01*
X0032310Y0142241D01*
X0032388Y0142209D01*
X0032464Y0142173D01*
X0032538Y0142134D01*
X0032610Y0142092D01*
X0032680Y0142046D01*
X0032748Y0141997D01*
X0032813Y0141945D01*
X0032876Y0141890D01*
X0032936Y0141832D01*
X0032994Y0141771D01*
X0033048Y0141707D01*
X0033100Y0141641D01*
X0033148Y0141573D01*
X0033193Y0141502D01*
X0033234Y0141429D01*
X0033273Y0141355D01*
X0033307Y0141279D01*
X0033338Y0141201D01*
X0033365Y0141122D01*
X0033389Y0141041D01*
X0033408Y0140960D01*
X0033424Y0140878D01*
X0033436Y0140795D01*
X0033444Y0140711D01*
X0033448Y0140628D01*
X0033448Y0140544D01*
X0033444Y0140461D01*
X0033436Y0140377D01*
X0033424Y0140294D01*
X0033408Y0140212D01*
X0033389Y0140131D01*
X0033365Y0140050D01*
X0033338Y0139971D01*
X0033307Y0139893D01*
X0033273Y0139817D01*
X0033234Y0139743D01*
X0033193Y0139670D01*
X0033148Y0139599D01*
X0033100Y0139531D01*
X0033048Y0139465D01*
X0032994Y0139401D01*
X0032936Y0139340D01*
X0032876Y0139282D01*
X0032813Y0139227D01*
X0032748Y0139175D01*
X0032680Y0139126D01*
X0032610Y0139080D01*
X0032538Y0139038D01*
X0032464Y0138999D01*
X0032388Y0138963D01*
X0032310Y0138931D01*
X0032232Y0138903D01*
X0032151Y0138879D01*
X0032070Y0138858D01*
X0031988Y0138842D01*
X0031906Y0138829D01*
X0031822Y0138820D01*
X0031739Y0138815D01*
X0031655Y0138814D01*
X0031571Y0138817D01*
X0031488Y0138824D01*
X0031405Y0138835D01*
X0031323Y0138850D01*
X0031241Y0138868D01*
X0031160Y0138891D01*
X0031081Y0138917D01*
X0031003Y0138947D01*
X0030926Y0138981D01*
X0030851Y0139018D01*
X0030778Y0139058D01*
X0030707Y0139103D01*
X0030638Y0139150D01*
X0030571Y0139201D01*
X0030507Y0139254D01*
X0030445Y0139311D01*
X0030387Y0139371D01*
X0030331Y0139433D01*
X0030278Y0139498D01*
X0030228Y0139565D01*
X0030181Y0139634D01*
X0030138Y0139706D01*
X0030098Y0139780D01*
X0030062Y0139855D01*
X0030029Y0139932D01*
X0030000Y0140011D01*
X0029975Y0140090D01*
X0029953Y0140171D01*
X0029936Y0140253D01*
X0029922Y0140336D01*
X0029912Y0140419D01*
X0029906Y0140502D01*
X0029904Y0140586D01*
X0038256Y0148938D02*
X0038258Y0149022D01*
X0038264Y0149105D01*
X0038274Y0149188D01*
X0038288Y0149271D01*
X0038305Y0149353D01*
X0038327Y0149434D01*
X0038352Y0149513D01*
X0038381Y0149592D01*
X0038414Y0149669D01*
X0038450Y0149744D01*
X0038490Y0149818D01*
X0038533Y0149890D01*
X0038580Y0149959D01*
X0038630Y0150026D01*
X0038683Y0150091D01*
X0038739Y0150153D01*
X0038797Y0150213D01*
X0038859Y0150270D01*
X0038923Y0150323D01*
X0038990Y0150374D01*
X0039059Y0150421D01*
X0039130Y0150466D01*
X0039203Y0150506D01*
X0039278Y0150543D01*
X0039355Y0150577D01*
X0039433Y0150607D01*
X0039512Y0150633D01*
X0039593Y0150656D01*
X0039675Y0150674D01*
X0039757Y0150689D01*
X0039840Y0150700D01*
X0039923Y0150707D01*
X0040007Y0150710D01*
X0040091Y0150709D01*
X0040174Y0150704D01*
X0040258Y0150695D01*
X0040340Y0150682D01*
X0040422Y0150666D01*
X0040503Y0150645D01*
X0040584Y0150621D01*
X0040662Y0150593D01*
X0040740Y0150561D01*
X0040816Y0150525D01*
X0040890Y0150486D01*
X0040962Y0150444D01*
X0041032Y0150398D01*
X0041100Y0150349D01*
X0041165Y0150297D01*
X0041228Y0150242D01*
X0041288Y0150184D01*
X0041346Y0150123D01*
X0041400Y0150059D01*
X0041452Y0149993D01*
X0041500Y0149925D01*
X0041545Y0149854D01*
X0041586Y0149781D01*
X0041625Y0149707D01*
X0041659Y0149631D01*
X0041690Y0149553D01*
X0041717Y0149474D01*
X0041741Y0149393D01*
X0041760Y0149312D01*
X0041776Y0149230D01*
X0041788Y0149147D01*
X0041796Y0149063D01*
X0041800Y0148980D01*
X0041800Y0148896D01*
X0041796Y0148813D01*
X0041788Y0148729D01*
X0041776Y0148646D01*
X0041760Y0148564D01*
X0041741Y0148483D01*
X0041717Y0148402D01*
X0041690Y0148323D01*
X0041659Y0148245D01*
X0041625Y0148169D01*
X0041586Y0148095D01*
X0041545Y0148022D01*
X0041500Y0147951D01*
X0041452Y0147883D01*
X0041400Y0147817D01*
X0041346Y0147753D01*
X0041288Y0147692D01*
X0041228Y0147634D01*
X0041165Y0147579D01*
X0041100Y0147527D01*
X0041032Y0147478D01*
X0040962Y0147432D01*
X0040890Y0147390D01*
X0040816Y0147351D01*
X0040740Y0147315D01*
X0040662Y0147283D01*
X0040584Y0147255D01*
X0040503Y0147231D01*
X0040422Y0147210D01*
X0040340Y0147194D01*
X0040258Y0147181D01*
X0040174Y0147172D01*
X0040091Y0147167D01*
X0040007Y0147166D01*
X0039923Y0147169D01*
X0039840Y0147176D01*
X0039757Y0147187D01*
X0039675Y0147202D01*
X0039593Y0147220D01*
X0039512Y0147243D01*
X0039433Y0147269D01*
X0039355Y0147299D01*
X0039278Y0147333D01*
X0039203Y0147370D01*
X0039130Y0147410D01*
X0039059Y0147455D01*
X0038990Y0147502D01*
X0038923Y0147553D01*
X0038859Y0147606D01*
X0038797Y0147663D01*
X0038739Y0147723D01*
X0038683Y0147785D01*
X0038630Y0147850D01*
X0038580Y0147917D01*
X0038533Y0147986D01*
X0038490Y0148058D01*
X0038450Y0148132D01*
X0038414Y0148207D01*
X0038381Y0148284D01*
X0038352Y0148363D01*
X0038327Y0148442D01*
X0038305Y0148523D01*
X0038288Y0148605D01*
X0038274Y0148688D01*
X0038264Y0148771D01*
X0038258Y0148854D01*
X0038256Y0148938D01*
X0074620Y0162780D02*
X0074623Y0163025D01*
X0074632Y0163271D01*
X0074647Y0163516D01*
X0074668Y0163760D01*
X0074695Y0164004D01*
X0074728Y0164247D01*
X0074767Y0164490D01*
X0074812Y0164731D01*
X0074863Y0164971D01*
X0074920Y0165210D01*
X0074982Y0165447D01*
X0075051Y0165683D01*
X0075125Y0165917D01*
X0075205Y0166149D01*
X0075290Y0166379D01*
X0075381Y0166607D01*
X0075478Y0166832D01*
X0075580Y0167056D01*
X0075688Y0167276D01*
X0075801Y0167494D01*
X0075919Y0167709D01*
X0076043Y0167921D01*
X0076171Y0168130D01*
X0076305Y0168336D01*
X0076444Y0168538D01*
X0076588Y0168737D01*
X0076737Y0168932D01*
X0076890Y0169124D01*
X0077048Y0169312D01*
X0077210Y0169496D01*
X0077378Y0169675D01*
X0077549Y0169851D01*
X0077725Y0170022D01*
X0077904Y0170190D01*
X0078088Y0170352D01*
X0078276Y0170510D01*
X0078468Y0170663D01*
X0078663Y0170812D01*
X0078862Y0170956D01*
X0079064Y0171095D01*
X0079270Y0171229D01*
X0079479Y0171357D01*
X0079691Y0171481D01*
X0079906Y0171599D01*
X0080124Y0171712D01*
X0080344Y0171820D01*
X0080568Y0171922D01*
X0080793Y0172019D01*
X0081021Y0172110D01*
X0081251Y0172195D01*
X0081483Y0172275D01*
X0081717Y0172349D01*
X0081953Y0172418D01*
X0082190Y0172480D01*
X0082429Y0172537D01*
X0082669Y0172588D01*
X0082910Y0172633D01*
X0083153Y0172672D01*
X0083396Y0172705D01*
X0083640Y0172732D01*
X0083884Y0172753D01*
X0084129Y0172768D01*
X0084375Y0172777D01*
X0084620Y0172780D01*
X0084865Y0172777D01*
X0085111Y0172768D01*
X0085356Y0172753D01*
X0085600Y0172732D01*
X0085844Y0172705D01*
X0086087Y0172672D01*
X0086330Y0172633D01*
X0086571Y0172588D01*
X0086811Y0172537D01*
X0087050Y0172480D01*
X0087287Y0172418D01*
X0087523Y0172349D01*
X0087757Y0172275D01*
X0087989Y0172195D01*
X0088219Y0172110D01*
X0088447Y0172019D01*
X0088672Y0171922D01*
X0088896Y0171820D01*
X0089116Y0171712D01*
X0089334Y0171599D01*
X0089549Y0171481D01*
X0089761Y0171357D01*
X0089970Y0171229D01*
X0090176Y0171095D01*
X0090378Y0170956D01*
X0090577Y0170812D01*
X0090772Y0170663D01*
X0090964Y0170510D01*
X0091152Y0170352D01*
X0091336Y0170190D01*
X0091515Y0170022D01*
X0091691Y0169851D01*
X0091862Y0169675D01*
X0092030Y0169496D01*
X0092192Y0169312D01*
X0092350Y0169124D01*
X0092503Y0168932D01*
X0092652Y0168737D01*
X0092796Y0168538D01*
X0092935Y0168336D01*
X0093069Y0168130D01*
X0093197Y0167921D01*
X0093321Y0167709D01*
X0093439Y0167494D01*
X0093552Y0167276D01*
X0093660Y0167056D01*
X0093762Y0166832D01*
X0093859Y0166607D01*
X0093950Y0166379D01*
X0094035Y0166149D01*
X0094115Y0165917D01*
X0094189Y0165683D01*
X0094258Y0165447D01*
X0094320Y0165210D01*
X0094377Y0164971D01*
X0094428Y0164731D01*
X0094473Y0164490D01*
X0094512Y0164247D01*
X0094545Y0164004D01*
X0094572Y0163760D01*
X0094593Y0163516D01*
X0094608Y0163271D01*
X0094617Y0163025D01*
X0094620Y0162780D01*
X0094617Y0162535D01*
X0094608Y0162289D01*
X0094593Y0162044D01*
X0094572Y0161800D01*
X0094545Y0161556D01*
X0094512Y0161313D01*
X0094473Y0161070D01*
X0094428Y0160829D01*
X0094377Y0160589D01*
X0094320Y0160350D01*
X0094258Y0160113D01*
X0094189Y0159877D01*
X0094115Y0159643D01*
X0094035Y0159411D01*
X0093950Y0159181D01*
X0093859Y0158953D01*
X0093762Y0158728D01*
X0093660Y0158504D01*
X0093552Y0158284D01*
X0093439Y0158066D01*
X0093321Y0157851D01*
X0093197Y0157639D01*
X0093069Y0157430D01*
X0092935Y0157224D01*
X0092796Y0157022D01*
X0092652Y0156823D01*
X0092503Y0156628D01*
X0092350Y0156436D01*
X0092192Y0156248D01*
X0092030Y0156064D01*
X0091862Y0155885D01*
X0091691Y0155709D01*
X0091515Y0155538D01*
X0091336Y0155370D01*
X0091152Y0155208D01*
X0090964Y0155050D01*
X0090772Y0154897D01*
X0090577Y0154748D01*
X0090378Y0154604D01*
X0090176Y0154465D01*
X0089970Y0154331D01*
X0089761Y0154203D01*
X0089549Y0154079D01*
X0089334Y0153961D01*
X0089116Y0153848D01*
X0088896Y0153740D01*
X0088672Y0153638D01*
X0088447Y0153541D01*
X0088219Y0153450D01*
X0087989Y0153365D01*
X0087757Y0153285D01*
X0087523Y0153211D01*
X0087287Y0153142D01*
X0087050Y0153080D01*
X0086811Y0153023D01*
X0086571Y0152972D01*
X0086330Y0152927D01*
X0086087Y0152888D01*
X0085844Y0152855D01*
X0085600Y0152828D01*
X0085356Y0152807D01*
X0085111Y0152792D01*
X0084865Y0152783D01*
X0084620Y0152780D01*
X0084375Y0152783D01*
X0084129Y0152792D01*
X0083884Y0152807D01*
X0083640Y0152828D01*
X0083396Y0152855D01*
X0083153Y0152888D01*
X0082910Y0152927D01*
X0082669Y0152972D01*
X0082429Y0153023D01*
X0082190Y0153080D01*
X0081953Y0153142D01*
X0081717Y0153211D01*
X0081483Y0153285D01*
X0081251Y0153365D01*
X0081021Y0153450D01*
X0080793Y0153541D01*
X0080568Y0153638D01*
X0080344Y0153740D01*
X0080124Y0153848D01*
X0079906Y0153961D01*
X0079691Y0154079D01*
X0079479Y0154203D01*
X0079270Y0154331D01*
X0079064Y0154465D01*
X0078862Y0154604D01*
X0078663Y0154748D01*
X0078468Y0154897D01*
X0078276Y0155050D01*
X0078088Y0155208D01*
X0077904Y0155370D01*
X0077725Y0155538D01*
X0077549Y0155709D01*
X0077378Y0155885D01*
X0077210Y0156064D01*
X0077048Y0156248D01*
X0076890Y0156436D01*
X0076737Y0156628D01*
X0076588Y0156823D01*
X0076444Y0157022D01*
X0076305Y0157224D01*
X0076171Y0157430D01*
X0076043Y0157639D01*
X0075919Y0157851D01*
X0075801Y0158066D01*
X0075688Y0158284D01*
X0075580Y0158504D01*
X0075478Y0158728D01*
X0075381Y0158953D01*
X0075290Y0159181D01*
X0075205Y0159411D01*
X0075125Y0159643D01*
X0075051Y0159877D01*
X0074982Y0160113D01*
X0074920Y0160350D01*
X0074863Y0160589D01*
X0074812Y0160829D01*
X0074767Y0161070D01*
X0074728Y0161313D01*
X0074695Y0161556D01*
X0074668Y0161800D01*
X0074647Y0162044D01*
X0074632Y0162289D01*
X0074623Y0162535D01*
X0074620Y0162780D01*
D11*
X0044843Y0027018D02*
X0046430Y0026091D01*
X0048039Y0025201D01*
X0049668Y0024351D01*
X0051318Y0023540D01*
X0052986Y0022769D01*
X0054673Y0022038D01*
X0056377Y0021349D01*
X0058096Y0020700D01*
X0059831Y0020093D01*
X0061580Y0019527D01*
X0063343Y0019004D01*
X0065117Y0018524D01*
X0066902Y0018086D01*
X0068697Y0017691D01*
X0070501Y0017340D01*
X0072314Y0017032D01*
X0074133Y0016768D01*
X0075957Y0016547D01*
X0077787Y0016371D01*
X0079620Y0016238D01*
X0081456Y0016150D01*
X0083294Y0016106D01*
X0085132Y0016106D01*
X0086970Y0016150D01*
X0088806Y0016238D01*
X0090639Y0016371D01*
X0092469Y0016547D01*
X0094293Y0016768D01*
X0096112Y0017032D01*
X0097925Y0017340D01*
X0099729Y0017691D01*
X0101524Y0018086D01*
X0103309Y0018524D01*
X0105083Y0019004D01*
X0106846Y0019527D01*
X0108595Y0020093D01*
X0110330Y0020700D01*
X0112049Y0021349D01*
X0113753Y0022038D01*
X0115440Y0022769D01*
X0117108Y0023540D01*
X0118758Y0024351D01*
X0120387Y0025201D01*
X0121996Y0026091D01*
X0123583Y0027018D01*
X0044844Y0027018D02*
X0043191Y0027951D01*
X0041562Y0028924D01*
X0039956Y0029936D01*
X0038376Y0030987D01*
X0036822Y0032076D01*
X0035295Y0033202D01*
X0033795Y0034365D01*
X0032325Y0035565D01*
X0030884Y0036799D01*
X0029473Y0038069D01*
X0028094Y0039372D01*
X0026747Y0040709D01*
X0025433Y0042078D01*
X0024152Y0043478D01*
X0022906Y0044910D01*
X0021695Y0046371D01*
X0020520Y0047861D01*
X0019382Y0049379D01*
X0018281Y0050925D01*
X0017218Y0052497D01*
X0016193Y0054094D01*
X0015208Y0055716D01*
X0014262Y0057361D01*
X0013356Y0059029D01*
X0012492Y0060718D01*
X0011669Y0062428D01*
X0010887Y0064157D01*
X0010148Y0065905D01*
X0009452Y0067670D01*
X0008799Y0069452D01*
X0008189Y0071249D01*
X0007623Y0073060D01*
X0007102Y0074885D01*
X0006625Y0076722D01*
X0006192Y0078570D01*
X0005805Y0080427D01*
X0005463Y0082294D01*
X0005167Y0084168D01*
X0004917Y0086049D01*
X0004712Y0087936D01*
X0004553Y0089827D01*
X0004440Y0091721D01*
X0004374Y0093618D01*
X0004353Y0095515D01*
X0004379Y0097413D01*
X0004451Y0099309D01*
X0004569Y0101203D01*
X0004732Y0103094D01*
X0004942Y0104980D01*
X0005198Y0106860D01*
X0005500Y0108734D01*
X0005846Y0110600D01*
X0006239Y0112456D01*
X0006676Y0114303D01*
X0007158Y0116138D01*
X0007684Y0117961D01*
X0008255Y0119771D01*
X0008870Y0121567D01*
X0009528Y0123347D01*
X0010229Y0125110D01*
X0010973Y0126856D01*
X0011759Y0128583D01*
X0012587Y0130291D01*
X0013456Y0131977D01*
X0014366Y0133643D01*
X0015316Y0135285D01*
X0015315Y0135286D02*
X0044843Y0164814D01*
X0046430Y0165741D01*
X0048039Y0166631D01*
X0049668Y0167481D01*
X0051318Y0168292D01*
X0052986Y0169063D01*
X0054673Y0169794D01*
X0056377Y0170483D01*
X0058096Y0171132D01*
X0059831Y0171739D01*
X0061580Y0172305D01*
X0063343Y0172828D01*
X0065117Y0173308D01*
X0066902Y0173746D01*
X0068697Y0174141D01*
X0070501Y0174492D01*
X0072314Y0174800D01*
X0074133Y0175064D01*
X0075957Y0175285D01*
X0077787Y0175461D01*
X0079620Y0175594D01*
X0081456Y0175682D01*
X0083294Y0175726D01*
X0085132Y0175726D01*
X0086970Y0175682D01*
X0088806Y0175594D01*
X0090639Y0175461D01*
X0092469Y0175285D01*
X0094293Y0175064D01*
X0096112Y0174800D01*
X0097925Y0174492D01*
X0099729Y0174141D01*
X0101524Y0173746D01*
X0103309Y0173308D01*
X0105083Y0172828D01*
X0106846Y0172305D01*
X0108595Y0171739D01*
X0110330Y0171132D01*
X0112049Y0170483D01*
X0113753Y0169794D01*
X0115440Y0169063D01*
X0117108Y0168292D01*
X0118758Y0167481D01*
X0120387Y0166631D01*
X0121996Y0165741D01*
X0123583Y0164814D01*
X0123583Y0164813D02*
X0125258Y0163858D01*
X0126909Y0162862D01*
X0128535Y0161826D01*
X0130135Y0160751D01*
X0131708Y0159636D01*
X0133253Y0158484D01*
X0134770Y0157294D01*
X0136258Y0156067D01*
X0137714Y0154804D01*
X0139140Y0153506D01*
X0140533Y0152174D01*
X0141893Y0150807D01*
X0143220Y0149408D01*
X0144512Y0147977D01*
X0145768Y0146515D01*
X0146988Y0145022D01*
X0148171Y0143500D01*
X0149317Y0141949D01*
X0150424Y0140371D01*
X0151493Y0138766D01*
X0152522Y0137136D01*
X0153510Y0135481D01*
X0154458Y0133802D01*
X0155365Y0132100D01*
X0156229Y0130377D01*
X0157051Y0128633D01*
X0157831Y0126870D01*
X0158566Y0125088D01*
X0159258Y0123288D01*
X0159906Y0121473D01*
X0160509Y0119641D01*
X0161067Y0117796D01*
X0161580Y0115938D01*
X0162047Y0114067D01*
X0162469Y0112186D01*
X0162844Y0110295D01*
X0163172Y0108395D01*
X0163454Y0106488D01*
X0163690Y0104574D01*
X0163878Y0102656D01*
X0164020Y0100733D01*
X0164114Y0098807D01*
X0164161Y0096880D01*
X0164161Y0094952D01*
X0164114Y0093025D01*
X0164020Y0091099D01*
X0163878Y0089176D01*
X0163690Y0087258D01*
X0163454Y0085344D01*
X0163172Y0083437D01*
X0162844Y0081537D01*
X0162469Y0079646D01*
X0162047Y0077765D01*
X0161580Y0075894D01*
X0161067Y0074036D01*
X0160509Y0072191D01*
X0159906Y0070359D01*
X0159258Y0068544D01*
X0158566Y0066744D01*
X0157831Y0064962D01*
X0157051Y0063199D01*
X0156229Y0061455D01*
X0155365Y0059732D01*
X0154458Y0058030D01*
X0153510Y0056351D01*
X0152522Y0054696D01*
X0151493Y0053066D01*
X0150424Y0051461D01*
X0149317Y0049883D01*
X0148171Y0048332D01*
X0146988Y0046810D01*
X0145768Y0045317D01*
X0144512Y0043855D01*
X0143220Y0042424D01*
X0141893Y0041025D01*
X0140533Y0039658D01*
X0139140Y0038326D01*
X0137714Y0037028D01*
X0136258Y0035765D01*
X0134770Y0034538D01*
X0133253Y0033348D01*
X0131708Y0032196D01*
X0130135Y0031081D01*
X0128535Y0030006D01*
X0126909Y0028970D01*
X0125258Y0027974D01*
X0123583Y0027019D01*
M02*
