%
M48
M72
T01C0.0130
T02C0.0335
T03C0.0354
T04C0.0400
T05C0.0551
T06C0.2000
%
T01
X2398Y5300
X4917Y5300
X6177Y5300
X6177Y6560
X6177Y7820
X7437Y7820
X7437Y9080
X8697Y9080
X8697Y10340
X9957Y10340
X9957Y9080
X8697Y7820
X7437Y6560
X10980Y5103
X11374Y5103
X13461Y5379
X13972Y5694
X13972Y6166
X14484Y7111
X12772Y7813
X11217Y9080
X11217Y10340
X11728Y10970
X13343Y11068
X14996Y11599
X14996Y12859
X12476Y14119
X11217Y14119
X12043Y12741
X9957Y15379
X9957Y16639
X11217Y16639
X8697Y14119
X8697Y12859
X7437Y12859
X7437Y14119
X7437Y15379
X6098Y12859
X5547Y10773
X4327Y10773
X3382Y10773
X2398Y11599
X1138Y11599
T02
X2293Y10514
X2293Y8546
T03
X3168Y14059
X4003Y14894
T04
X5729Y16131
X6669Y16474
X14346Y10498
X15346Y10498
X15346Y9498
X15346Y8498
X14346Y8498
X14346Y9498
T05
X1234Y8152
X1230Y10910
T06
X8462Y16278
M30
