G75*
%MOIN*%
%OFA0B0*%
%FSLAX25Y25*%
%IPPOS*%
%LPD*%
%AMOC8*
5,1,8,0,0,1.08239X$1,22.5*
%
%ADD10C,0.20600*%
%ADD11R,0.05600X0.02800*%
%ADD12R,0.02800X0.05600*%
%ADD13R,0.03750X0.04143*%
%ADD14R,0.07100X0.04537*%
%ADD15R,0.05324X0.03750*%
%ADD16C,0.08000*%
%ADD17R,0.02765X0.05324*%
%ADD18C,0.06309*%
%ADD19R,0.05915X0.02175*%
%ADD20R,0.08080X0.06506*%
%ADD21C,0.08868*%
%ADD22R,0.03750X0.05324*%
%ADD23R,0.10600X0.04600*%
%ADD24R,0.04537X0.04537*%
%ADD25R,0.01781X0.03159*%
%ADD26R,0.03159X0.01781*%
%ADD27OC8,0.08000*%
%ADD28R,0.04537X0.03750*%
%ADD29R,0.03356X0.06506*%
%ADD30C,0.04143*%
%ADD31R,0.04931X0.08080*%
%ADD32C,0.01361*%
%ADD33R,0.04143X0.03356*%
%ADD34R,0.03356X0.04143*%
%ADD35C,0.03300*%
D10*
X0084620Y0162780D03*
D11*
X0098741Y0146760D03*
X0098741Y0143610D03*
X0098741Y0140461D03*
X0098741Y0137311D03*
X0098741Y0134161D03*
X0098741Y0131012D03*
X0098741Y0127862D03*
X0098741Y0124713D03*
X0132541Y0124713D03*
X0132541Y0127862D03*
X0132541Y0131012D03*
X0132541Y0134161D03*
X0132541Y0137311D03*
X0132541Y0140461D03*
X0132541Y0143610D03*
X0132541Y0146760D03*
D12*
X0126664Y0152636D03*
X0123515Y0152636D03*
X0120365Y0152636D03*
X0117215Y0152636D03*
X0114066Y0152636D03*
X0110916Y0152636D03*
X0107767Y0152636D03*
X0104617Y0152636D03*
X0104617Y0118836D03*
X0107767Y0118836D03*
X0110916Y0118836D03*
X0114066Y0118836D03*
X0117215Y0118836D03*
X0120365Y0118836D03*
X0123515Y0118836D03*
X0126664Y0118836D03*
D13*
X0038388Y0122585D03*
X0030907Y0122585D03*
X0034647Y0114317D03*
D14*
X0074314Y0111633D03*
X0074314Y0099035D03*
X0094606Y0099035D03*
X0094606Y0111633D03*
D15*
X0139331Y0074656D03*
X0139331Y0067570D03*
X0150355Y0067570D03*
X0150355Y0074656D03*
X0044205Y0091465D03*
X0044205Y0098552D03*
X0033950Y0098542D03*
X0033950Y0091456D03*
X0033032Y0077806D03*
X0033032Y0070719D03*
X0033032Y0064026D03*
X0033032Y0056940D03*
X0024011Y0063801D03*
X0024011Y0070888D03*
D16*
X0057295Y0161306D03*
X0066686Y0164742D03*
D17*
X0055352Y0123867D03*
X0047872Y0123867D03*
X0047872Y0113630D03*
X0051612Y0113630D03*
X0055352Y0113630D03*
D18*
X0022930Y0105144D03*
X0022930Y0085459D03*
D19*
X0022930Y0090183D03*
X0022930Y0092742D03*
X0022930Y0095301D03*
X0022930Y0097860D03*
X0022930Y0100419D03*
D20*
X0012300Y0099238D03*
X0012300Y0091364D03*
D21*
X0012341Y0081524D03*
X0012295Y0109096D03*
D22*
X0048065Y0132188D03*
X0055152Y0132188D03*
G36*
X0059292Y0154250D02*
X0062755Y0155685D01*
X0064792Y0150768D01*
X0061329Y0149333D01*
X0059292Y0154250D01*
G37*
G36*
X0065839Y0156962D02*
X0069302Y0158397D01*
X0071339Y0153480D01*
X0067876Y0152045D01*
X0065839Y0156962D01*
G37*
X0059017Y0101853D03*
X0051930Y0101853D03*
X0125230Y0104079D03*
X0125261Y0097867D03*
X0125146Y0091268D03*
X0132232Y0091268D03*
X0132348Y0097867D03*
X0132316Y0104079D03*
D23*
X0084611Y0046193D03*
X0084611Y0020193D03*
D24*
X0123702Y0060872D03*
D25*
X0123702Y0068352D03*
X0125670Y0068352D03*
X0127639Y0068352D03*
X0121733Y0068352D03*
X0119765Y0068352D03*
X0119765Y0053392D03*
X0121733Y0053392D03*
X0123702Y0053392D03*
X0125670Y0053392D03*
X0127639Y0053392D03*
D26*
X0131182Y0056935D03*
X0131182Y0058903D03*
X0131182Y0060872D03*
X0131182Y0062840D03*
X0131182Y0064809D03*
X0116222Y0064809D03*
X0116222Y0062840D03*
X0116222Y0060872D03*
X0116222Y0058903D03*
X0116222Y0056935D03*
D27*
X0143461Y0084976D03*
X0143461Y0094976D03*
X0143461Y0104976D03*
X0153461Y0104976D03*
X0153461Y0094976D03*
X0153461Y0084976D03*
D28*
G36*
X0047538Y0152976D02*
X0050744Y0156182D01*
X0053396Y0153530D01*
X0050190Y0150324D01*
X0047538Y0152976D01*
G37*
G36*
X0041414Y0159100D02*
X0044620Y0162306D01*
X0047272Y0159654D01*
X0044066Y0156448D01*
X0041414Y0159100D01*
G37*
G36*
X0018308Y0135994D02*
X0021514Y0139200D01*
X0024166Y0136548D01*
X0020960Y0133342D01*
X0018308Y0135994D01*
G37*
G36*
X0024432Y0129869D02*
X0027638Y0133075D01*
X0030290Y0130423D01*
X0027084Y0127217D01*
X0024432Y0129869D01*
G37*
D29*
G36*
X0032366Y0133347D02*
X0034739Y0135720D01*
X0039338Y0131121D01*
X0036965Y0128748D01*
X0032366Y0133347D01*
G37*
G36*
X0036542Y0137523D02*
X0038915Y0139896D01*
X0043514Y0135297D01*
X0041141Y0132924D01*
X0036542Y0137523D01*
G37*
G36*
X0044893Y0145875D02*
X0047266Y0148248D01*
X0051865Y0143649D01*
X0049492Y0141276D01*
X0044893Y0145875D01*
G37*
D30*
X0040028Y0148938D03*
X0031676Y0140586D03*
D31*
X0044267Y0074144D03*
X0053322Y0074144D03*
X0053322Y0059577D03*
X0044267Y0059577D03*
D32*
X0061625Y0115233D02*
X0064801Y0115233D01*
X0064801Y0112057D01*
X0061625Y0112057D01*
X0061625Y0115233D01*
X0061625Y0113417D02*
X0064801Y0113417D01*
X0064801Y0114777D02*
X0061625Y0114777D01*
X0061625Y0122138D02*
X0064801Y0122138D01*
X0064801Y0118962D01*
X0061625Y0118962D01*
X0061625Y0122138D01*
X0061625Y0120322D02*
X0064801Y0120322D01*
X0064801Y0121682D02*
X0061625Y0121682D01*
D33*
X0101493Y0078668D03*
X0101493Y0073550D03*
X0106615Y0073546D03*
X0106654Y0069735D03*
X0106654Y0064617D03*
X0111086Y0064424D03*
X0111086Y0059306D03*
X0093662Y0064617D03*
X0089331Y0064617D03*
X0085000Y0064617D03*
X0085000Y0069735D03*
X0089331Y0069735D03*
X0093662Y0069735D03*
X0106615Y0078664D03*
D34*
X0107245Y0060483D03*
X0102126Y0060483D03*
X0098583Y0060483D03*
X0093465Y0060483D03*
X0089922Y0060483D03*
X0084804Y0060483D03*
D35*
X0023977Y0053003D03*
X0049174Y0053003D03*
X0061772Y0053003D03*
X0061772Y0065601D03*
X0061772Y0078199D03*
X0074371Y0078199D03*
X0074371Y0065601D03*
X0086969Y0078199D03*
X0086969Y0090798D03*
X0086969Y0103396D03*
X0099567Y0103396D03*
X0099567Y0090798D03*
X0112166Y0090798D03*
X0112166Y0103396D03*
X0117284Y0109696D03*
X0133426Y0110680D03*
X0149961Y0115995D03*
X0149961Y0128593D03*
X0124764Y0141192D03*
X0112166Y0141192D03*
X0120434Y0127412D03*
X0099567Y0153790D03*
X0099567Y0166388D03*
X0112166Y0166388D03*
X0086969Y0141192D03*
X0074371Y0141192D03*
X0074371Y0153790D03*
X0074371Y0128593D03*
X0086969Y0128593D03*
X0060985Y0128593D03*
X0055473Y0107727D03*
X0043268Y0107727D03*
X0033819Y0107727D03*
X0023977Y0115995D03*
X0011378Y0115995D03*
X0074371Y0090798D03*
X0109804Y0051034D03*
X0113741Y0051034D03*
X0134607Y0053790D03*
X0139725Y0056940D03*
X0139725Y0061664D03*
X0144843Y0071113D03*
X0127715Y0078128D03*
M02*
