G75*
%MOIN*%
%OFA0B0*%
%FSLAX25Y25*%
%IPPOS*%
%LPD*%
%AMOC8*
5,1,8,0,0,1.08239X$1,22.5*
%
%ADD10C,0.00500*%
%ADD11C,0.00600*%
%ADD12C,0.00800*%
%ADD13C,0.01000*%
D10*
X0041260Y0035717D02*
X0041710Y0035267D01*
X0043512Y0035267D01*
X0043962Y0035717D01*
X0043962Y0036618D01*
X0043512Y0037068D01*
X0043512Y0038213D02*
X0043962Y0038664D01*
X0043962Y0039564D01*
X0043512Y0040015D01*
X0041710Y0040015D01*
X0041260Y0039564D01*
X0041260Y0038664D01*
X0041710Y0038213D01*
X0042161Y0038213D01*
X0042611Y0038664D01*
X0042611Y0040015D01*
X0041710Y0037068D02*
X0041260Y0036618D01*
X0041260Y0035717D01*
X0046413Y0034881D02*
X0046413Y0033080D01*
X0046864Y0032629D01*
X0047764Y0032629D01*
X0048215Y0033080D01*
X0049360Y0032629D02*
X0051161Y0032629D01*
X0050260Y0032629D02*
X0050260Y0035331D01*
X0049360Y0034431D01*
X0048215Y0034881D02*
X0047764Y0035331D01*
X0046864Y0035331D01*
X0046413Y0034881D01*
X0047151Y0040489D02*
X0046701Y0040939D01*
X0046701Y0042741D01*
X0047151Y0043191D01*
X0048052Y0043191D01*
X0048502Y0042741D01*
X0049647Y0042290D02*
X0050548Y0043191D01*
X0050548Y0040489D01*
X0049647Y0040489D02*
X0051449Y0040489D01*
X0052594Y0040489D02*
X0054395Y0040489D01*
X0053495Y0040489D02*
X0053495Y0043191D01*
X0052594Y0042290D01*
X0048502Y0040939D02*
X0048052Y0040489D01*
X0047151Y0040489D01*
X0052757Y0035331D02*
X0053657Y0035331D01*
X0054108Y0034881D01*
X0052306Y0033080D01*
X0052757Y0032629D01*
X0053657Y0032629D01*
X0054108Y0033080D01*
X0054108Y0034881D01*
X0052757Y0035331D02*
X0052306Y0034881D01*
X0052306Y0033080D01*
X0065705Y0021786D02*
X0065705Y0019084D01*
X0067507Y0019084D01*
X0068652Y0019084D02*
X0070454Y0019084D01*
X0069553Y0019084D02*
X0069553Y0021786D01*
X0068652Y0020886D01*
X0077597Y0022157D02*
X0077597Y0019455D01*
X0079398Y0019455D01*
X0080543Y0019455D02*
X0082345Y0021257D01*
X0082345Y0021707D01*
X0081894Y0022157D01*
X0080994Y0022157D01*
X0080543Y0021707D01*
X0080543Y0019455D02*
X0082345Y0019455D01*
X0089585Y0029897D02*
X0091387Y0029897D01*
X0092532Y0030347D02*
X0092982Y0029897D01*
X0093883Y0029897D01*
X0094333Y0030347D01*
X0094333Y0030798D01*
X0093883Y0031248D01*
X0093432Y0031248D01*
X0093883Y0031248D02*
X0094333Y0031699D01*
X0094333Y0032149D01*
X0093883Y0032599D01*
X0092982Y0032599D01*
X0092532Y0032149D01*
X0089585Y0032599D02*
X0089585Y0029897D01*
X0099467Y0030580D02*
X0099918Y0030130D01*
X0100819Y0030130D01*
X0101269Y0030580D01*
X0102414Y0030130D02*
X0104215Y0030130D01*
X0103315Y0030130D02*
X0103315Y0032832D01*
X0102414Y0031931D01*
X0101269Y0032382D02*
X0100819Y0032832D01*
X0099918Y0032832D01*
X0099467Y0032382D01*
X0099467Y0030580D01*
X0105360Y0030130D02*
X0107162Y0031931D01*
X0107162Y0032382D01*
X0106712Y0032832D01*
X0105811Y0032832D01*
X0105360Y0032382D01*
X0105360Y0030130D02*
X0107162Y0030130D01*
X0111567Y0030589D02*
X0112017Y0030138D01*
X0112918Y0030138D01*
X0113368Y0030589D01*
X0114513Y0030138D02*
X0116315Y0030138D01*
X0115414Y0030138D02*
X0115414Y0032841D01*
X0114513Y0031940D01*
X0113368Y0032390D02*
X0112918Y0032841D01*
X0112017Y0032841D01*
X0111567Y0032390D01*
X0111567Y0030589D01*
X0117460Y0030589D02*
X0117910Y0030138D01*
X0118811Y0030138D01*
X0119261Y0030589D01*
X0119261Y0031039D01*
X0118811Y0031490D01*
X0118361Y0031490D01*
X0118811Y0031490D02*
X0119261Y0031940D01*
X0119261Y0032390D01*
X0118811Y0032841D01*
X0117910Y0032841D01*
X0117460Y0032390D01*
X0104103Y0042467D02*
X0104103Y0042917D01*
X0105904Y0044719D01*
X0105904Y0045169D01*
X0104103Y0045169D01*
X0102958Y0044719D02*
X0102507Y0045169D01*
X0101606Y0045169D01*
X0101156Y0044719D01*
X0101156Y0042917D01*
X0101606Y0042467D01*
X0102507Y0042467D01*
X0102958Y0042917D01*
X0102919Y0054103D02*
X0102018Y0055004D01*
X0102468Y0055004D02*
X0101117Y0055004D01*
X0101117Y0054103D02*
X0101117Y0056806D01*
X0102468Y0056806D01*
X0102919Y0056355D01*
X0102919Y0055455D01*
X0102468Y0055004D01*
X0104064Y0054103D02*
X0105865Y0054103D01*
X0104965Y0054103D02*
X0104965Y0056806D01*
X0104064Y0055905D01*
X0094317Y0087467D02*
X0092515Y0087467D01*
X0093416Y0087467D02*
X0093416Y0090169D01*
X0092515Y0089268D01*
X0091370Y0089719D02*
X0091370Y0087917D01*
X0090920Y0087467D01*
X0089568Y0087467D01*
X0089568Y0090169D01*
X0090920Y0090169D01*
X0091370Y0089719D01*
X0070533Y0095104D02*
X0068731Y0095104D01*
X0070082Y0096455D01*
X0070082Y0093753D01*
X0067586Y0093753D02*
X0066685Y0094653D01*
X0067136Y0094653D02*
X0065785Y0094653D01*
X0065785Y0093753D02*
X0065785Y0096455D01*
X0067136Y0096455D01*
X0067586Y0096004D01*
X0067586Y0095104D01*
X0067136Y0094653D01*
X0066423Y0084500D02*
X0066423Y0083149D01*
X0067324Y0083599D01*
X0067774Y0083599D01*
X0068224Y0083149D01*
X0068224Y0082248D01*
X0067774Y0081798D01*
X0066873Y0081798D01*
X0066423Y0082248D01*
X0065278Y0081798D02*
X0064377Y0082698D01*
X0064827Y0082698D02*
X0063476Y0082698D01*
X0063476Y0081798D02*
X0063476Y0084500D01*
X0064827Y0084500D01*
X0065278Y0084049D01*
X0065278Y0083149D01*
X0064827Y0082698D01*
X0066423Y0084500D02*
X0068224Y0084500D01*
X0066919Y0072833D02*
X0067369Y0072382D01*
X0067369Y0071482D01*
X0066919Y0071031D01*
X0065567Y0071031D01*
X0065567Y0070131D02*
X0065567Y0072833D01*
X0066919Y0072833D01*
X0066468Y0071031D02*
X0067369Y0070131D01*
X0068514Y0070581D02*
X0068964Y0070131D01*
X0069865Y0070131D01*
X0070315Y0070581D01*
X0070315Y0071031D01*
X0069865Y0071482D01*
X0068514Y0071482D01*
X0068514Y0070581D01*
X0068514Y0071482D02*
X0069415Y0072382D01*
X0070315Y0072833D01*
X0054666Y0071746D02*
X0052865Y0071746D01*
X0054216Y0073097D01*
X0054216Y0070395D01*
X0051720Y0070845D02*
X0051270Y0070395D01*
X0050369Y0070395D01*
X0049918Y0070845D01*
X0049918Y0072647D01*
X0050369Y0073097D01*
X0051270Y0073097D01*
X0051720Y0072647D01*
X0051492Y0081983D02*
X0051942Y0082434D01*
X0051492Y0081983D02*
X0050591Y0081983D01*
X0050141Y0082434D01*
X0050141Y0084235D01*
X0050591Y0084685D01*
X0051492Y0084685D01*
X0051942Y0084235D01*
X0053087Y0084235D02*
X0053538Y0084685D01*
X0054439Y0084685D01*
X0054889Y0084235D01*
X0054889Y0083785D01*
X0053087Y0081983D01*
X0054889Y0081983D01*
X0038864Y0082046D02*
X0037062Y0082046D01*
X0037963Y0082046D02*
X0037963Y0084749D01*
X0037062Y0083848D01*
X0035917Y0084298D02*
X0035467Y0084749D01*
X0034566Y0084749D01*
X0034116Y0084298D01*
X0034116Y0082497D01*
X0034566Y0082046D01*
X0035467Y0082046D01*
X0035917Y0082497D01*
X0035499Y0073012D02*
X0034598Y0073012D01*
X0034148Y0072562D01*
X0034148Y0070760D01*
X0034598Y0070310D01*
X0035499Y0070310D01*
X0035949Y0070760D01*
X0037094Y0070760D02*
X0037544Y0070310D01*
X0038445Y0070310D01*
X0038896Y0070760D01*
X0038896Y0071210D01*
X0038445Y0071661D01*
X0037995Y0071661D01*
X0038445Y0071661D02*
X0038896Y0072111D01*
X0038896Y0072562D01*
X0038445Y0073012D01*
X0037544Y0073012D01*
X0037094Y0072562D01*
X0035949Y0072562D02*
X0035499Y0073012D01*
X0041657Y0052908D02*
X0042108Y0052908D01*
X0042558Y0052457D01*
X0042558Y0051557D01*
X0042108Y0051106D01*
X0041657Y0051106D01*
X0041207Y0051557D01*
X0041207Y0052457D01*
X0041657Y0052908D01*
X0042558Y0052457D02*
X0043009Y0052908D01*
X0043459Y0052908D01*
X0043909Y0052457D01*
X0043909Y0051557D01*
X0043459Y0051106D01*
X0043009Y0051106D01*
X0042558Y0051557D01*
X0041657Y0049961D02*
X0041207Y0049511D01*
X0041207Y0048610D01*
X0041657Y0048160D01*
X0043459Y0048160D01*
X0043909Y0048610D01*
X0043909Y0049511D01*
X0043459Y0049961D01*
X0057189Y0054707D02*
X0058090Y0053806D01*
X0058090Y0052455D01*
X0058090Y0053806D02*
X0058991Y0054707D01*
X0058991Y0055157D01*
X0060136Y0054256D02*
X0061037Y0055157D01*
X0061037Y0052455D01*
X0061937Y0052455D02*
X0060136Y0052455D01*
X0057189Y0054707D02*
X0057189Y0055157D01*
X0023598Y0046591D02*
X0023598Y0044789D01*
X0021797Y0046591D01*
X0021346Y0046591D01*
X0020896Y0046141D01*
X0020896Y0045240D01*
X0021346Y0044789D01*
X0021346Y0043644D02*
X0022247Y0043644D01*
X0022697Y0043194D01*
X0022697Y0041843D01*
X0022697Y0042744D02*
X0023598Y0043644D01*
X0023598Y0041843D02*
X0020896Y0041843D01*
X0020896Y0043194D01*
X0021346Y0043644D01*
X0039998Y0108768D02*
X0040899Y0108768D01*
X0040448Y0108768D02*
X0040448Y0111470D01*
X0039998Y0111470D02*
X0040899Y0111470D01*
X0041962Y0111020D02*
X0041962Y0109218D01*
X0042413Y0108768D01*
X0043314Y0108768D01*
X0043764Y0109218D01*
X0044909Y0108768D02*
X0046710Y0108768D01*
X0045810Y0108768D02*
X0045810Y0111470D01*
X0044909Y0110569D01*
X0043764Y0111020D02*
X0043314Y0111470D01*
X0042413Y0111470D01*
X0041962Y0111020D01*
X0029015Y0117550D02*
X0047667Y0136202D01*
X0040429Y0143441D01*
X0021777Y0124789D01*
X0029015Y0117550D01*
X0111997Y0104922D02*
X0111997Y0102220D01*
X0111997Y0103120D02*
X0113348Y0103120D01*
X0113798Y0103571D01*
X0113798Y0104472D01*
X0113348Y0104922D01*
X0111997Y0104922D01*
X0112897Y0103120D02*
X0113798Y0102220D01*
X0114943Y0102220D02*
X0114943Y0102670D01*
X0116745Y0104472D01*
X0116745Y0104922D01*
X0114943Y0104922D01*
X0128017Y0108555D02*
X0128917Y0108555D01*
X0128467Y0108555D02*
X0128467Y0111257D01*
X0128017Y0111257D02*
X0128917Y0111257D01*
X0129981Y0110807D02*
X0129981Y0109005D01*
X0130431Y0108555D01*
X0131332Y0108555D01*
X0131782Y0109005D01*
X0132927Y0108555D02*
X0134729Y0110356D01*
X0134729Y0110807D01*
X0134279Y0111257D01*
X0133378Y0111257D01*
X0132927Y0110807D01*
X0131782Y0110807D02*
X0131332Y0111257D01*
X0130431Y0111257D01*
X0129981Y0110807D01*
X0132927Y0108555D02*
X0134729Y0108555D01*
X0135740Y0103337D02*
X0137091Y0103337D01*
X0137541Y0102886D01*
X0137541Y0101986D01*
X0137091Y0101535D01*
X0135740Y0101535D01*
X0135740Y0100634D02*
X0135740Y0103337D01*
X0136641Y0101535D02*
X0137541Y0100634D01*
X0138686Y0101085D02*
X0139137Y0100634D01*
X0140038Y0100634D01*
X0140488Y0101085D01*
X0140488Y0101535D01*
X0140038Y0101986D01*
X0139587Y0101986D01*
X0140038Y0101986D02*
X0140488Y0102436D01*
X0140488Y0102886D01*
X0140038Y0103337D01*
X0139137Y0103337D01*
X0138686Y0102886D01*
X0101156Y0017134D02*
X0099354Y0017134D01*
X0099354Y0014431D01*
X0098209Y0014431D02*
X0098209Y0016233D01*
X0097308Y0017134D01*
X0096408Y0016233D01*
X0096408Y0014431D01*
X0096408Y0015783D02*
X0098209Y0015783D01*
X0099354Y0015783D02*
X0100255Y0015783D01*
D11*
X0034474Y0036637D02*
X0034474Y0038999D01*
X0039198Y0038999D02*
X0039198Y0036637D01*
X0030360Y0043127D02*
X0030360Y0045489D01*
X0034371Y0049508D02*
X0034371Y0051871D01*
X0039095Y0051871D02*
X0039095Y0049508D01*
X0025636Y0045489D02*
X0025636Y0043127D01*
X0035449Y0074919D02*
X0037811Y0074919D01*
X0037811Y0079644D02*
X0035449Y0079644D01*
X0035449Y0086730D02*
X0037811Y0086730D01*
X0037811Y0091455D02*
X0035449Y0091455D01*
X0051197Y0091455D02*
X0053559Y0091455D01*
X0053559Y0086730D02*
X0051197Y0086730D01*
X0051197Y0079644D02*
X0053559Y0079644D01*
X0053559Y0074919D02*
X0051197Y0074919D01*
X0066945Y0074919D02*
X0069307Y0074919D01*
X0069307Y0079644D02*
X0066945Y0079644D01*
X0066945Y0086730D02*
X0069307Y0086730D01*
X0069307Y0091455D02*
X0066945Y0091455D01*
X0066945Y0098541D02*
X0069307Y0098541D01*
X0069307Y0103266D02*
X0066945Y0103266D01*
X0068709Y0118672D02*
X0068709Y0144873D01*
X0070107Y0146271D01*
X0096307Y0146271D01*
X0096307Y0118672D01*
X0068709Y0118672D01*
X0070294Y0143271D02*
X0070296Y0143346D01*
X0070302Y0143420D01*
X0070312Y0143494D01*
X0070325Y0143567D01*
X0070343Y0143640D01*
X0070364Y0143711D01*
X0070389Y0143782D01*
X0070418Y0143851D01*
X0070451Y0143918D01*
X0070487Y0143983D01*
X0070526Y0144047D01*
X0070568Y0144108D01*
X0070614Y0144167D01*
X0070663Y0144224D01*
X0070715Y0144277D01*
X0070769Y0144328D01*
X0070826Y0144377D01*
X0070886Y0144421D01*
X0070948Y0144463D01*
X0071012Y0144502D01*
X0071078Y0144537D01*
X0071145Y0144568D01*
X0071215Y0144596D01*
X0071285Y0144620D01*
X0071357Y0144641D01*
X0071430Y0144657D01*
X0071503Y0144670D01*
X0071578Y0144679D01*
X0071652Y0144684D01*
X0071727Y0144685D01*
X0071801Y0144682D01*
X0071876Y0144675D01*
X0071949Y0144664D01*
X0072023Y0144650D01*
X0072095Y0144631D01*
X0072166Y0144609D01*
X0072236Y0144583D01*
X0072305Y0144553D01*
X0072371Y0144520D01*
X0072436Y0144483D01*
X0072499Y0144443D01*
X0072560Y0144399D01*
X0072618Y0144353D01*
X0072674Y0144303D01*
X0072727Y0144251D01*
X0072778Y0144196D01*
X0072825Y0144138D01*
X0072869Y0144078D01*
X0072910Y0144015D01*
X0072948Y0143951D01*
X0072982Y0143885D01*
X0073013Y0143816D01*
X0073040Y0143747D01*
X0073063Y0143676D01*
X0073082Y0143604D01*
X0073098Y0143531D01*
X0073110Y0143457D01*
X0073118Y0143383D01*
X0073122Y0143308D01*
X0073122Y0143234D01*
X0073118Y0143159D01*
X0073110Y0143085D01*
X0073098Y0143011D01*
X0073082Y0142938D01*
X0073063Y0142866D01*
X0073040Y0142795D01*
X0073013Y0142726D01*
X0072982Y0142657D01*
X0072948Y0142591D01*
X0072910Y0142527D01*
X0072869Y0142464D01*
X0072825Y0142404D01*
X0072778Y0142346D01*
X0072727Y0142291D01*
X0072674Y0142239D01*
X0072618Y0142189D01*
X0072560Y0142143D01*
X0072499Y0142099D01*
X0072436Y0142059D01*
X0072371Y0142022D01*
X0072305Y0141989D01*
X0072236Y0141959D01*
X0072166Y0141933D01*
X0072095Y0141911D01*
X0072023Y0141892D01*
X0071949Y0141878D01*
X0071876Y0141867D01*
X0071801Y0141860D01*
X0071727Y0141857D01*
X0071652Y0141858D01*
X0071578Y0141863D01*
X0071503Y0141872D01*
X0071430Y0141885D01*
X0071357Y0141901D01*
X0071285Y0141922D01*
X0071215Y0141946D01*
X0071145Y0141974D01*
X0071078Y0142005D01*
X0071012Y0142040D01*
X0070948Y0142079D01*
X0070886Y0142121D01*
X0070826Y0142165D01*
X0070769Y0142214D01*
X0070715Y0142265D01*
X0070663Y0142318D01*
X0070614Y0142375D01*
X0070568Y0142434D01*
X0070526Y0142495D01*
X0070487Y0142559D01*
X0070451Y0142624D01*
X0070418Y0142691D01*
X0070389Y0142760D01*
X0070364Y0142831D01*
X0070343Y0142902D01*
X0070325Y0142975D01*
X0070312Y0143048D01*
X0070302Y0143122D01*
X0070296Y0143196D01*
X0070294Y0143271D01*
X0122896Y0106561D02*
X0125258Y0106561D01*
X0125258Y0101836D02*
X0122896Y0101836D01*
X0146721Y0099692D02*
X0149084Y0099692D01*
X0149084Y0104416D02*
X0146721Y0104416D01*
X0143247Y0060087D02*
X0143247Y0059520D01*
X0143247Y0058385D02*
X0143247Y0056117D01*
X0142680Y0056117D02*
X0143814Y0056117D01*
X0145135Y0056684D02*
X0145135Y0057818D01*
X0145702Y0058385D01*
X0146837Y0058385D01*
X0147404Y0057818D01*
X0147404Y0057251D01*
X0145135Y0057251D01*
X0145135Y0056684D02*
X0145702Y0056117D01*
X0146837Y0056117D01*
X0148818Y0056117D02*
X0148818Y0058385D01*
X0150520Y0058385D01*
X0151087Y0057818D01*
X0151087Y0056117D01*
X0152502Y0056684D02*
X0152502Y0057818D01*
X0153069Y0058385D01*
X0154770Y0058385D01*
X0154770Y0059520D02*
X0154770Y0056117D01*
X0153069Y0056117D01*
X0152502Y0056684D01*
X0147404Y0053520D02*
X0145135Y0053520D01*
X0145135Y0051818D01*
X0146270Y0052385D01*
X0146837Y0052385D01*
X0147404Y0051818D01*
X0147404Y0050684D01*
X0146837Y0050117D01*
X0145702Y0050117D01*
X0145135Y0050684D01*
X0143721Y0050117D02*
X0141452Y0050117D01*
X0142586Y0050117D02*
X0142586Y0053520D01*
X0141452Y0052385D01*
X0140038Y0052953D02*
X0140038Y0050684D01*
X0139470Y0050117D01*
X0138336Y0050117D01*
X0137769Y0050684D01*
X0140038Y0052953D01*
X0139470Y0053520D01*
X0138336Y0053520D01*
X0137769Y0052953D01*
X0137769Y0050684D01*
X0136354Y0050117D02*
X0134086Y0050117D01*
X0136354Y0052385D01*
X0136354Y0052953D01*
X0135787Y0053520D01*
X0134653Y0053520D01*
X0134086Y0052953D01*
X0132671Y0053520D02*
X0130403Y0050117D01*
X0128988Y0050117D02*
X0126720Y0050117D01*
X0127854Y0050117D02*
X0127854Y0053520D01*
X0126720Y0052385D01*
X0125305Y0050117D02*
X0123036Y0050117D01*
X0124171Y0050117D02*
X0124171Y0053520D01*
X0123036Y0052385D01*
X0121622Y0053520D02*
X0119353Y0050117D01*
X0117939Y0050684D02*
X0117939Y0051818D01*
X0117372Y0052385D01*
X0116804Y0052385D01*
X0115670Y0051818D01*
X0115670Y0053520D01*
X0117939Y0053520D01*
X0119353Y0056117D02*
X0120488Y0056117D01*
X0119920Y0056117D02*
X0119920Y0059520D01*
X0119353Y0059520D01*
X0117939Y0059520D02*
X0115670Y0059520D01*
X0115670Y0056117D01*
X0115670Y0057818D02*
X0116804Y0057818D01*
X0121809Y0057818D02*
X0121809Y0056684D01*
X0122376Y0056117D01*
X0123510Y0056117D01*
X0124077Y0056684D01*
X0124077Y0057818D01*
X0123510Y0058385D01*
X0122376Y0058385D01*
X0121809Y0057818D01*
X0125492Y0058385D02*
X0125492Y0056684D01*
X0126059Y0056117D01*
X0126626Y0056684D01*
X0127193Y0056117D01*
X0127760Y0056684D01*
X0127760Y0058385D01*
X0129175Y0057818D02*
X0129175Y0056684D01*
X0129742Y0056117D01*
X0130876Y0056117D01*
X0131444Y0057251D02*
X0129175Y0057251D01*
X0129175Y0057818D02*
X0129742Y0058385D01*
X0130876Y0058385D01*
X0131444Y0057818D01*
X0131444Y0057251D01*
X0132858Y0057251D02*
X0133992Y0058385D01*
X0134560Y0058385D01*
X0135927Y0057818D02*
X0137062Y0057818D01*
X0135927Y0059520D02*
X0138196Y0059520D01*
X0139611Y0058385D02*
X0139611Y0056117D01*
X0139611Y0057251D02*
X0140745Y0058385D01*
X0141312Y0058385D01*
X0142680Y0058385D02*
X0143247Y0058385D01*
X0135927Y0059520D02*
X0135927Y0056117D01*
X0132858Y0056117D02*
X0132858Y0058385D01*
X0132811Y0047520D02*
X0132244Y0046953D01*
X0132811Y0047520D02*
X0133946Y0047520D01*
X0134513Y0046953D01*
X0134513Y0046385D01*
X0133946Y0045818D01*
X0134513Y0045251D01*
X0134513Y0044684D01*
X0133946Y0044117D01*
X0132811Y0044117D01*
X0132244Y0044684D01*
X0133379Y0045818D02*
X0133946Y0045818D01*
X0127287Y0044684D02*
X0127287Y0044117D01*
X0126720Y0044117D01*
X0126720Y0044684D01*
X0127287Y0044684D01*
X0125305Y0046385D02*
X0124171Y0044117D01*
X0123036Y0046385D01*
X0121622Y0045818D02*
X0121622Y0045251D01*
X0119353Y0045251D01*
X0119353Y0044684D02*
X0119353Y0045818D01*
X0119920Y0046385D01*
X0121055Y0046385D01*
X0121622Y0045818D01*
X0121055Y0044117D02*
X0119920Y0044117D01*
X0119353Y0044684D01*
X0117939Y0044117D02*
X0116804Y0045251D01*
X0117372Y0045251D02*
X0115670Y0045251D01*
X0115670Y0044117D02*
X0115670Y0047520D01*
X0117372Y0047520D01*
X0117939Y0046953D01*
X0117939Y0045818D01*
X0117372Y0045251D01*
X0117372Y0050117D02*
X0116237Y0050117D01*
X0115670Y0050684D01*
X0117372Y0050117D02*
X0117939Y0050684D01*
X0104740Y0052084D02*
X0102378Y0052084D01*
X0102378Y0047360D02*
X0104740Y0047360D01*
X0104740Y0040273D02*
X0102378Y0040273D01*
X0102378Y0035549D02*
X0104740Y0035549D01*
X0104740Y0028462D02*
X0102378Y0028462D01*
X0102378Y0023738D02*
X0104740Y0023738D01*
X0114189Y0023738D02*
X0116551Y0023738D01*
X0116551Y0028462D02*
X0114189Y0028462D01*
X0092929Y0028462D02*
X0090567Y0028462D01*
X0090567Y0023738D02*
X0092929Y0023738D01*
X0081118Y0023738D02*
X0078756Y0023738D01*
X0078756Y0028462D02*
X0081118Y0028462D01*
X0069307Y0028462D02*
X0066945Y0028462D01*
X0062217Y0031664D02*
X0059855Y0031664D01*
X0059855Y0036388D02*
X0062217Y0036388D01*
X0062208Y0039408D02*
X0059846Y0039408D01*
X0059846Y0044133D02*
X0062208Y0044133D01*
X0066945Y0023738D02*
X0069307Y0023738D01*
D12*
X0089339Y0020213D02*
X0108339Y0020213D01*
X0108339Y0011213D02*
X0089339Y0011213D01*
X0091839Y0014213D02*
X0090339Y0015713D01*
X0091839Y0017213D01*
X0090339Y0015713D02*
X0093839Y0015713D01*
X0061381Y0047420D02*
X0056657Y0047420D01*
X0049176Y0052538D02*
X0049176Y0054900D01*
X0056657Y0060018D02*
X0061381Y0060018D01*
X0068861Y0054900D02*
X0068861Y0052538D01*
X0091222Y0051838D02*
X0093190Y0049870D01*
X0091831Y0073352D02*
X0101831Y0083352D01*
X0101831Y0079952D01*
X0101831Y0083352D02*
X0101831Y0086752D01*
X0101721Y0092722D02*
X0101721Y0093632D01*
X0082231Y0093632D01*
X0082231Y0093652D01*
X0082031Y0093652D01*
X0082031Y0092652D01*
X0081831Y0086552D02*
X0081831Y0079852D01*
X0081951Y0074222D02*
X0081951Y0073152D01*
X0082151Y0073152D01*
X0082151Y0073142D01*
X0101711Y0073142D01*
X0101711Y0074032D01*
X0123199Y0094352D02*
X0123199Y0096163D01*
X0124419Y0097083D01*
X0123199Y0097974D02*
X0123199Y0096163D01*
X0123259Y0096063D02*
X0124419Y0095303D01*
X0136961Y0092464D02*
X0136961Y0087464D01*
X0138280Y0087464D02*
X0138280Y0092464D01*
X0140780Y0094964D01*
X0155780Y0094964D01*
X0158280Y0092464D01*
X0158280Y0087464D01*
X0155780Y0084964D01*
X0140780Y0084964D01*
X0138280Y0082464D01*
X0138280Y0077464D01*
X0140780Y0074964D01*
X0155780Y0074964D01*
X0158280Y0072464D01*
X0158280Y0067464D01*
X0155780Y0064964D01*
X0140780Y0064964D01*
X0138280Y0067464D01*
X0138280Y0072464D01*
X0140780Y0074964D01*
X0140780Y0084964D02*
X0138280Y0087464D01*
X0155780Y0084964D02*
X0158280Y0082464D01*
X0158280Y0077464D01*
X0155780Y0074964D01*
X0136118Y0118898D02*
X0136118Y0122279D01*
X0132175Y0123379D02*
X0130061Y0123379D01*
X0126118Y0122279D02*
X0126118Y0118898D01*
X0123191Y0134774D02*
X0118932Y0137394D01*
X0118113Y0140833D01*
X0114673Y0140014D01*
X0110415Y0142634D01*
X0109595Y0146073D01*
X0112215Y0150331D01*
X0115655Y0151151D01*
X0119913Y0148531D01*
X0120733Y0145092D01*
X0124172Y0145911D01*
X0128431Y0143291D01*
X0129250Y0139852D01*
X0126630Y0135593D01*
X0123191Y0134774D01*
X0050016Y0101297D02*
X0050016Y0098147D01*
X0047654Y0098147D01*
X0041354Y0098147D02*
X0038992Y0098147D01*
X0038992Y0101297D01*
D13*
X0124818Y0116588D03*
M02*
