G75*
%MOIN*%
%OFA0B0*%
%FSLAX25Y25*%
%IPPOS*%
%LPD*%
%AMOC8*
5,1,8,0,0,1.08239X$1,22.5*
%
%ADD10C,0.07400*%
%ADD11C,0.05709*%
%ADD12C,0.08268*%
%ADD13OC8,0.07400*%
%ADD14C,0.00394*%
%ADD15C,0.03369*%
%ADD16C,0.01200*%
%ADD17C,0.02700*%
%ADD18C,0.01000*%
%ADD19C,0.00600*%
D10*
X0123681Y0140342D03*
X0115164Y0145582D03*
D11*
X0022591Y0090446D03*
X0022591Y0070761D03*
D12*
X0012002Y0066827D03*
X0011956Y0094398D03*
D13*
X0143280Y0089964D03*
X0153280Y0089964D03*
X0153280Y0079964D03*
X0143280Y0079964D03*
X0143280Y0069964D03*
X0153280Y0069964D03*
D14*
X0153477Y0070152D02*
X0160567Y0070152D01*
X0160486Y0069760D02*
X0158177Y0069760D01*
X0158177Y0069767D02*
X0153477Y0069767D01*
X0153477Y0070160D01*
X0158177Y0070160D01*
X0158177Y0071992D01*
X0155308Y0074861D01*
X0153477Y0074861D01*
X0153477Y0070161D01*
X0153083Y0070161D01*
X0153083Y0074861D01*
X0151251Y0074861D01*
X0148383Y0071992D01*
X0148383Y0070160D01*
X0153083Y0070160D01*
X0153083Y0069767D01*
X0148383Y0069767D01*
X0148383Y0067935D01*
X0151251Y0065067D01*
X0153083Y0065067D01*
X0153083Y0069767D01*
X0153477Y0069767D01*
X0153477Y0065067D01*
X0155308Y0065067D01*
X0158177Y0067935D01*
X0158177Y0069767D01*
X0158177Y0069368D02*
X0160404Y0069368D01*
X0160323Y0068976D02*
X0158177Y0068976D01*
X0158177Y0068583D02*
X0160241Y0068583D01*
X0160160Y0068191D02*
X0158177Y0068191D01*
X0158040Y0067799D02*
X0160078Y0067799D01*
X0159997Y0067407D02*
X0157648Y0067407D01*
X0157256Y0067015D02*
X0159915Y0067015D01*
X0159834Y0066622D02*
X0156864Y0066622D01*
X0156471Y0066230D02*
X0159752Y0066230D01*
X0159671Y0065838D02*
X0156079Y0065838D01*
X0155687Y0065446D02*
X0159589Y0065446D01*
X0159508Y0065053D02*
X0111749Y0065053D01*
X0111357Y0064661D02*
X0159426Y0064661D01*
X0159345Y0064269D02*
X0110965Y0064269D01*
X0110573Y0063877D02*
X0159263Y0063877D01*
X0159182Y0063485D02*
X0110180Y0063485D01*
X0109788Y0063092D02*
X0159100Y0063092D01*
X0159019Y0062700D02*
X0109396Y0062700D01*
X0109004Y0062308D02*
X0158937Y0062308D01*
X0158856Y0061916D02*
X0108612Y0061916D01*
X0108229Y0061533D02*
X0119933Y0073237D01*
X0120576Y0073880D01*
X0120576Y0075395D01*
X0121626Y0076445D01*
X0121626Y0077066D01*
X0128682Y0070009D01*
X0128637Y0069901D01*
X0128637Y0068914D01*
X0129015Y0068002D01*
X0129713Y0067304D01*
X0130625Y0066926D01*
X0131612Y0066926D01*
X0132524Y0067304D01*
X0133221Y0068002D01*
X0133599Y0068914D01*
X0133599Y0069901D01*
X0133221Y0070813D01*
X0132524Y0071511D01*
X0131612Y0071888D01*
X0130625Y0071888D01*
X0130516Y0071843D01*
X0116667Y0085693D01*
X0116667Y0086944D01*
X0116776Y0086989D01*
X0117473Y0087687D01*
X0117851Y0088599D01*
X0117851Y0089586D01*
X0117473Y0090498D01*
X0116776Y0091196D01*
X0115864Y0091573D01*
X0114877Y0091573D01*
X0113965Y0091196D01*
X0113267Y0090498D01*
X0112889Y0089586D01*
X0112889Y0088599D01*
X0113267Y0087687D01*
X0113965Y0086989D01*
X0114073Y0086944D01*
X0114073Y0084618D01*
X0114833Y0083858D01*
X0119210Y0079481D01*
X0118589Y0079481D01*
X0117332Y0078223D01*
X0117332Y0076445D01*
X0118382Y0075395D01*
X0118382Y0074788D01*
X0105127Y0061533D01*
X0036031Y0061533D01*
X0034926Y0062638D01*
X0034926Y0064123D01*
X0033668Y0065381D01*
X0031889Y0065381D01*
X0030632Y0064123D01*
X0030632Y0062345D01*
X0031443Y0061533D01*
X0008972Y0061533D01*
X0008617Y0063238D01*
X0009209Y0062647D01*
X0011021Y0061896D01*
X0012983Y0061896D01*
X0014795Y0062647D01*
X0016182Y0064034D01*
X0016933Y0065846D01*
X0016933Y0067807D01*
X0016182Y0069620D01*
X0014795Y0071007D01*
X0012983Y0071757D01*
X0011021Y0071757D01*
X0009209Y0071007D01*
X0007822Y0069620D01*
X0007469Y0068766D01*
X0007075Y0070662D01*
X0006353Y0081218D01*
X0007075Y0091774D01*
X0007285Y0092789D01*
X0007776Y0091605D01*
X0009163Y0090218D01*
X0010975Y0089467D01*
X0012937Y0089467D01*
X0014749Y0090218D01*
X0016136Y0091605D01*
X0016887Y0093417D01*
X0016887Y0095379D01*
X0016136Y0097191D01*
X0014749Y0098578D01*
X0012937Y0099329D01*
X0010975Y0099329D01*
X0009163Y0098578D01*
X0008311Y0097726D01*
X0009227Y0102133D01*
X0012770Y0112103D01*
X0017638Y0121497D01*
X0023740Y0130141D01*
X0030961Y0137874D01*
X0039169Y0144551D01*
X0048209Y0150049D01*
X0057914Y0154264D01*
X0068102Y0157118D01*
X0078584Y0158559D01*
X0089164Y0158559D01*
X0099646Y0157118D01*
X0109834Y0154264D01*
X0119539Y0150049D01*
X0128579Y0144551D01*
X0136787Y0137874D01*
X0144008Y0130141D01*
X0150110Y0121497D01*
X0154978Y0112103D01*
X0158521Y0102133D01*
X0160673Y0091774D01*
X0161395Y0081218D01*
X0160673Y0070662D01*
X0158776Y0061533D01*
X0108229Y0061533D01*
X0106686Y0063092D02*
X0102333Y0063092D01*
X0102084Y0062989D02*
X0102996Y0063367D01*
X0103694Y0064065D01*
X0104072Y0064977D01*
X0104072Y0065964D01*
X0103694Y0066876D01*
X0102996Y0067574D01*
X0102887Y0067619D01*
X0102887Y0105378D01*
X0102128Y0106137D01*
X0086022Y0106137D01*
X0085977Y0106246D01*
X0085279Y0106944D01*
X0084368Y0107321D01*
X0083380Y0107321D01*
X0082469Y0106944D01*
X0081771Y0106246D01*
X0081393Y0105334D01*
X0081393Y0104347D01*
X0081771Y0103435D01*
X0082469Y0102737D01*
X0083380Y0102359D01*
X0084368Y0102359D01*
X0085279Y0102737D01*
X0085977Y0103435D01*
X0086022Y0103544D01*
X0100294Y0103544D01*
X0100294Y0067619D01*
X0100185Y0067574D01*
X0099487Y0066876D01*
X0099109Y0065964D01*
X0099109Y0064977D01*
X0099487Y0064065D01*
X0100185Y0063367D01*
X0101097Y0062989D01*
X0102084Y0062989D01*
X0103114Y0063485D02*
X0107078Y0063485D01*
X0107470Y0063877D02*
X0103506Y0063877D01*
X0103778Y0064269D02*
X0107863Y0064269D01*
X0108255Y0064661D02*
X0103941Y0064661D01*
X0104072Y0065053D02*
X0108647Y0065053D01*
X0109039Y0065446D02*
X0104072Y0065446D01*
X0104072Y0065838D02*
X0109431Y0065838D01*
X0109824Y0066230D02*
X0103961Y0066230D01*
X0103799Y0066622D02*
X0110216Y0066622D01*
X0110608Y0067015D02*
X0103555Y0067015D01*
X0103163Y0067407D02*
X0111000Y0067407D01*
X0111392Y0067799D02*
X0102887Y0067799D01*
X0102887Y0068191D02*
X0111785Y0068191D01*
X0112177Y0068583D02*
X0102887Y0068583D01*
X0102887Y0068976D02*
X0112569Y0068976D01*
X0112961Y0069368D02*
X0102887Y0069368D01*
X0102887Y0069760D02*
X0113354Y0069760D01*
X0113746Y0070152D02*
X0102887Y0070152D01*
X0102887Y0070544D02*
X0114138Y0070544D01*
X0114530Y0070937D02*
X0102887Y0070937D01*
X0102887Y0071329D02*
X0114922Y0071329D01*
X0115315Y0071721D02*
X0102887Y0071721D01*
X0102887Y0072113D02*
X0115707Y0072113D01*
X0116099Y0072505D02*
X0102887Y0072505D01*
X0102887Y0072898D02*
X0116491Y0072898D01*
X0116883Y0073290D02*
X0102887Y0073290D01*
X0102887Y0073682D02*
X0117276Y0073682D01*
X0117668Y0074074D02*
X0102887Y0074074D01*
X0102887Y0074467D02*
X0118060Y0074467D01*
X0118382Y0074859D02*
X0102887Y0074859D01*
X0102887Y0075251D02*
X0118382Y0075251D01*
X0118134Y0075643D02*
X0102887Y0075643D01*
X0102887Y0076035D02*
X0117741Y0076035D01*
X0117349Y0076428D02*
X0102887Y0076428D01*
X0102887Y0076820D02*
X0117332Y0076820D01*
X0117332Y0077212D02*
X0102887Y0077212D01*
X0102887Y0077604D02*
X0117332Y0077604D01*
X0117332Y0077996D02*
X0102887Y0077996D01*
X0102887Y0078389D02*
X0117497Y0078389D01*
X0117889Y0078781D02*
X0102887Y0078781D01*
X0102887Y0079173D02*
X0118282Y0079173D01*
X0118734Y0079958D02*
X0102887Y0079958D01*
X0102887Y0080350D02*
X0118342Y0080350D01*
X0117949Y0080742D02*
X0102887Y0080742D01*
X0102887Y0081134D02*
X0117557Y0081134D01*
X0117165Y0081526D02*
X0102887Y0081526D01*
X0102887Y0081919D02*
X0116773Y0081919D01*
X0116381Y0082311D02*
X0102887Y0082311D01*
X0102887Y0082703D02*
X0115988Y0082703D01*
X0115596Y0083095D02*
X0102887Y0083095D01*
X0102887Y0083487D02*
X0115204Y0083487D01*
X0114812Y0083880D02*
X0102887Y0083880D01*
X0102887Y0084272D02*
X0114420Y0084272D01*
X0114073Y0084664D02*
X0102887Y0084664D01*
X0102887Y0085056D02*
X0114073Y0085056D01*
X0114073Y0085448D02*
X0102887Y0085448D01*
X0102887Y0085841D02*
X0114073Y0085841D01*
X0114073Y0086233D02*
X0102887Y0086233D01*
X0102887Y0086625D02*
X0114073Y0086625D01*
X0113936Y0087017D02*
X0102887Y0087017D01*
X0102887Y0087410D02*
X0113544Y0087410D01*
X0113219Y0087802D02*
X0102887Y0087802D01*
X0102887Y0088194D02*
X0113057Y0088194D01*
X0112894Y0088586D02*
X0102887Y0088586D01*
X0102887Y0088978D02*
X0112889Y0088978D01*
X0112889Y0089371D02*
X0102887Y0089371D01*
X0102887Y0089763D02*
X0112962Y0089763D01*
X0113125Y0090155D02*
X0102887Y0090155D01*
X0102887Y0090547D02*
X0113316Y0090547D01*
X0113708Y0090939D02*
X0102887Y0090939D01*
X0102887Y0091332D02*
X0114293Y0091332D01*
X0116447Y0091332D02*
X0119171Y0091332D01*
X0118779Y0091724D02*
X0102887Y0091724D01*
X0102887Y0092116D02*
X0118386Y0092116D01*
X0117994Y0092508D02*
X0102887Y0092508D01*
X0102887Y0092901D02*
X0117602Y0092901D01*
X0117210Y0093293D02*
X0102887Y0093293D01*
X0102887Y0093685D02*
X0116817Y0093685D01*
X0116425Y0094077D02*
X0102887Y0094077D01*
X0102887Y0094469D02*
X0116033Y0094469D01*
X0115641Y0094862D02*
X0102887Y0094862D01*
X0102887Y0095254D02*
X0115249Y0095254D01*
X0114856Y0095646D02*
X0102887Y0095646D01*
X0102887Y0096038D02*
X0114464Y0096038D01*
X0114072Y0096430D02*
X0102887Y0096430D01*
X0102887Y0096823D02*
X0113680Y0096823D01*
X0113288Y0097215D02*
X0102887Y0097215D01*
X0102887Y0097607D02*
X0112895Y0097607D01*
X0112503Y0097999D02*
X0102887Y0097999D01*
X0102887Y0098391D02*
X0112111Y0098391D01*
X0111719Y0098784D02*
X0102887Y0098784D01*
X0102887Y0099176D02*
X0111326Y0099176D01*
X0110934Y0099568D02*
X0102887Y0099568D01*
X0102887Y0099960D02*
X0110542Y0099960D01*
X0110150Y0100353D02*
X0102887Y0100353D01*
X0102887Y0100745D02*
X0109758Y0100745D01*
X0109365Y0101137D02*
X0102887Y0101137D01*
X0102887Y0101529D02*
X0108973Y0101529D01*
X0108581Y0101921D02*
X0102887Y0101921D01*
X0102887Y0102314D02*
X0108189Y0102314D01*
X0107797Y0102706D02*
X0102887Y0102706D01*
X0102887Y0103098D02*
X0107404Y0103098D01*
X0107012Y0103490D02*
X0102887Y0103490D01*
X0102887Y0103882D02*
X0106620Y0103882D01*
X0106959Y0103544D02*
X0132549Y0077953D01*
X0138931Y0077953D01*
X0141417Y0075467D01*
X0145142Y0075467D01*
X0147777Y0078101D01*
X0147777Y0081826D01*
X0145142Y0084461D01*
X0141417Y0084461D01*
X0138783Y0081826D01*
X0138783Y0080547D01*
X0133624Y0080547D01*
X0108793Y0105378D01*
X0108793Y0118440D01*
X0108901Y0118485D01*
X0109599Y0119183D01*
X0109977Y0120095D01*
X0109977Y0121082D01*
X0109599Y0121994D01*
X0108901Y0122692D01*
X0107990Y0123070D01*
X0107003Y0123070D01*
X0106091Y0122692D01*
X0105393Y0121994D01*
X0105015Y0121082D01*
X0105015Y0120095D01*
X0105393Y0119183D01*
X0106091Y0118485D01*
X0106199Y0118440D01*
X0106199Y0110074D01*
X0074211Y0110074D01*
X0074166Y0110183D01*
X0073468Y0110881D01*
X0072557Y0111258D01*
X0071569Y0111258D01*
X0070658Y0110881D01*
X0069960Y0110183D01*
X0069582Y0109271D01*
X0069582Y0108284D01*
X0069960Y0107372D01*
X0070658Y0106674D01*
X0071569Y0106296D01*
X0072557Y0106296D01*
X0073468Y0106674D01*
X0074166Y0107372D01*
X0074211Y0107481D01*
X0106199Y0107481D01*
X0106199Y0104303D01*
X0106959Y0103544D01*
X0106228Y0104275D02*
X0102887Y0104275D01*
X0102887Y0104667D02*
X0106199Y0104667D01*
X0106199Y0105059D02*
X0102887Y0105059D01*
X0102814Y0105451D02*
X0106199Y0105451D01*
X0106199Y0105844D02*
X0102421Y0105844D01*
X0100294Y0103490D02*
X0086000Y0103490D01*
X0085640Y0103098D02*
X0089504Y0103098D01*
X0089857Y0103244D02*
X0088945Y0102866D01*
X0088247Y0102168D01*
X0088202Y0102060D01*
X0059715Y0102060D01*
X0058955Y0101300D01*
X0058955Y0097146D01*
X0058847Y0097101D01*
X0058149Y0096403D01*
X0057771Y0095491D01*
X0057771Y0094504D01*
X0058149Y0093592D01*
X0058847Y0092894D01*
X0058955Y0092850D01*
X0058955Y0076744D01*
X0059715Y0075984D01*
X0091568Y0075984D01*
X0091613Y0075876D01*
X0092311Y0075178D01*
X0093223Y0074800D01*
X0094210Y0074800D01*
X0095122Y0075178D01*
X0095820Y0075876D01*
X0096198Y0076788D01*
X0096198Y0077775D01*
X0095820Y0078687D01*
X0095122Y0079385D01*
X0094210Y0079762D01*
X0093223Y0079762D01*
X0092311Y0079385D01*
X0091613Y0078687D01*
X0091568Y0078578D01*
X0061549Y0078578D01*
X0061549Y0092850D01*
X0061657Y0092894D01*
X0062355Y0093592D01*
X0062733Y0094504D01*
X0062733Y0095491D01*
X0062355Y0096403D01*
X0061657Y0097101D01*
X0061549Y0097146D01*
X0061549Y0099466D01*
X0088202Y0099466D01*
X0088247Y0099358D01*
X0088945Y0098660D01*
X0089857Y0098282D01*
X0090844Y0098282D01*
X0091755Y0098660D01*
X0092453Y0099358D01*
X0092831Y0100270D01*
X0092831Y0101257D01*
X0092453Y0102168D01*
X0091755Y0102866D01*
X0090844Y0103244D01*
X0089857Y0103244D01*
X0088784Y0102706D02*
X0085204Y0102706D01*
X0082544Y0102706D02*
X0009431Y0102706D01*
X0009570Y0103098D02*
X0082108Y0103098D01*
X0081748Y0103490D02*
X0009709Y0103490D01*
X0009849Y0103882D02*
X0081585Y0103882D01*
X0081423Y0104275D02*
X0009988Y0104275D01*
X0010128Y0104667D02*
X0081393Y0104667D01*
X0081393Y0105059D02*
X0010267Y0105059D01*
X0010406Y0105451D02*
X0081442Y0105451D01*
X0081604Y0105844D02*
X0010546Y0105844D01*
X0010685Y0106236D02*
X0081766Y0106236D01*
X0082153Y0106628D02*
X0073357Y0106628D01*
X0073815Y0107020D02*
X0082653Y0107020D01*
X0085095Y0107020D02*
X0106199Y0107020D01*
X0106199Y0106628D02*
X0085595Y0106628D01*
X0085982Y0106236D02*
X0106199Y0106236D01*
X0106199Y0107412D02*
X0074183Y0107412D01*
X0074177Y0110158D02*
X0106199Y0110158D01*
X0106199Y0110550D02*
X0073799Y0110550D01*
X0073320Y0110942D02*
X0106199Y0110942D01*
X0106199Y0111334D02*
X0012497Y0111334D01*
X0012358Y0110942D02*
X0070806Y0110942D01*
X0070327Y0110550D02*
X0012219Y0110550D01*
X0012079Y0110158D02*
X0069949Y0110158D01*
X0069787Y0109766D02*
X0011940Y0109766D01*
X0011800Y0109373D02*
X0069624Y0109373D01*
X0069582Y0108981D02*
X0011661Y0108981D01*
X0011522Y0108589D02*
X0069582Y0108589D01*
X0069618Y0108197D02*
X0011382Y0108197D01*
X0011243Y0107805D02*
X0069780Y0107805D01*
X0069943Y0107412D02*
X0011103Y0107412D01*
X0010964Y0107020D02*
X0070311Y0107020D01*
X0070769Y0106628D02*
X0010825Y0106628D01*
X0009291Y0102314D02*
X0088392Y0102314D01*
X0088428Y0099176D02*
X0061549Y0099176D01*
X0061549Y0098784D02*
X0088821Y0098784D01*
X0089592Y0098391D02*
X0061549Y0098391D01*
X0061549Y0097999D02*
X0100294Y0097999D01*
X0100294Y0097607D02*
X0061549Y0097607D01*
X0061549Y0097215D02*
X0100294Y0097215D01*
X0100294Y0096823D02*
X0061936Y0096823D01*
X0062328Y0096430D02*
X0100294Y0096430D01*
X0100294Y0096038D02*
X0062507Y0096038D01*
X0062669Y0095646D02*
X0100294Y0095646D01*
X0100294Y0095254D02*
X0062733Y0095254D01*
X0062733Y0094862D02*
X0100294Y0094862D01*
X0100294Y0094469D02*
X0062719Y0094469D01*
X0062556Y0094077D02*
X0100294Y0094077D01*
X0100294Y0093685D02*
X0062394Y0093685D01*
X0062056Y0093293D02*
X0100294Y0093293D01*
X0100294Y0092901D02*
X0061663Y0092901D01*
X0061549Y0092508D02*
X0100294Y0092508D01*
X0100294Y0092116D02*
X0061549Y0092116D01*
X0061549Y0091724D02*
X0100294Y0091724D01*
X0100294Y0091332D02*
X0061549Y0091332D01*
X0061549Y0090939D02*
X0100294Y0090939D01*
X0100294Y0090547D02*
X0061549Y0090547D01*
X0061549Y0090155D02*
X0100294Y0090155D01*
X0100294Y0089763D02*
X0061549Y0089763D01*
X0061549Y0089371D02*
X0100294Y0089371D01*
X0100294Y0088978D02*
X0061549Y0088978D01*
X0061549Y0088586D02*
X0100294Y0088586D01*
X0100294Y0088194D02*
X0061549Y0088194D01*
X0061549Y0087802D02*
X0100294Y0087802D01*
X0100294Y0087410D02*
X0061549Y0087410D01*
X0061549Y0087017D02*
X0100294Y0087017D01*
X0100294Y0086625D02*
X0061549Y0086625D01*
X0061549Y0086233D02*
X0100294Y0086233D01*
X0100294Y0085841D02*
X0061549Y0085841D01*
X0061549Y0085448D02*
X0070871Y0085448D01*
X0071149Y0085563D02*
X0070237Y0085186D01*
X0069539Y0084488D01*
X0069161Y0083576D01*
X0069161Y0082589D01*
X0069539Y0081677D01*
X0070237Y0080979D01*
X0071149Y0080601D01*
X0072136Y0080601D01*
X0073048Y0080979D01*
X0073746Y0081677D01*
X0073791Y0081786D01*
X0091611Y0081786D01*
X0091613Y0081781D01*
X0092311Y0081083D01*
X0093223Y0080706D01*
X0094210Y0080706D01*
X0095122Y0081083D01*
X0095820Y0081781D01*
X0096198Y0082693D01*
X0096198Y0083680D01*
X0095820Y0084592D01*
X0095122Y0085290D01*
X0094210Y0085668D01*
X0093223Y0085668D01*
X0092311Y0085290D01*
X0091613Y0084592D01*
X0091525Y0084379D01*
X0073791Y0084379D01*
X0073746Y0084488D01*
X0073048Y0085186D01*
X0072136Y0085563D01*
X0071149Y0085563D01*
X0070107Y0085056D02*
X0061549Y0085056D01*
X0061549Y0084664D02*
X0069715Y0084664D01*
X0069449Y0084272D02*
X0061549Y0084272D01*
X0061549Y0083880D02*
X0069287Y0083880D01*
X0069161Y0083487D02*
X0061549Y0083487D01*
X0061549Y0083095D02*
X0069161Y0083095D01*
X0069161Y0082703D02*
X0061549Y0082703D01*
X0061549Y0082311D02*
X0069276Y0082311D01*
X0069439Y0081919D02*
X0061549Y0081919D01*
X0061549Y0081526D02*
X0069689Y0081526D01*
X0070082Y0081134D02*
X0061549Y0081134D01*
X0061549Y0080742D02*
X0070809Y0080742D01*
X0072475Y0080742D02*
X0093136Y0080742D01*
X0092260Y0081134D02*
X0073203Y0081134D01*
X0073595Y0081526D02*
X0091868Y0081526D01*
X0092747Y0079565D02*
X0061549Y0079565D01*
X0061549Y0079173D02*
X0092100Y0079173D01*
X0091707Y0078781D02*
X0061549Y0078781D01*
X0061549Y0079958D02*
X0100294Y0079958D01*
X0100294Y0080350D02*
X0061549Y0080350D01*
X0058955Y0080350D02*
X0006412Y0080350D01*
X0006385Y0080742D02*
X0058955Y0080742D01*
X0058955Y0081134D02*
X0006358Y0081134D01*
X0006374Y0081526D02*
X0058955Y0081526D01*
X0058955Y0081919D02*
X0006400Y0081919D01*
X0006427Y0082311D02*
X0058955Y0082311D01*
X0058955Y0082703D02*
X0006454Y0082703D01*
X0006481Y0083095D02*
X0058955Y0083095D01*
X0058955Y0083487D02*
X0006508Y0083487D01*
X0006535Y0083880D02*
X0058955Y0083880D01*
X0058955Y0084272D02*
X0006561Y0084272D01*
X0006588Y0084664D02*
X0058955Y0084664D01*
X0058955Y0085056D02*
X0006615Y0085056D01*
X0006642Y0085448D02*
X0058955Y0085448D01*
X0058955Y0085841D02*
X0006669Y0085841D01*
X0006696Y0086233D02*
X0058955Y0086233D01*
X0058955Y0086625D02*
X0006722Y0086625D01*
X0006749Y0087017D02*
X0021327Y0087017D01*
X0021865Y0086795D02*
X0020523Y0087351D01*
X0019496Y0088378D01*
X0018940Y0089720D01*
X0018940Y0091172D01*
X0019496Y0092514D01*
X0020523Y0093541D01*
X0021865Y0094097D01*
X0023317Y0094097D01*
X0024659Y0093541D01*
X0025686Y0092514D01*
X0026242Y0091172D01*
X0026242Y0089720D01*
X0025686Y0088378D01*
X0024659Y0087351D01*
X0023317Y0086795D01*
X0021865Y0086795D01*
X0020464Y0087410D02*
X0006776Y0087410D01*
X0006803Y0087802D02*
X0020072Y0087802D01*
X0019679Y0088194D02*
X0006830Y0088194D01*
X0006856Y0088586D02*
X0019409Y0088586D01*
X0019247Y0088978D02*
X0006883Y0088978D01*
X0006910Y0089371D02*
X0019084Y0089371D01*
X0018940Y0089763D02*
X0013651Y0089763D01*
X0014598Y0090155D02*
X0018940Y0090155D01*
X0018940Y0090547D02*
X0015078Y0090547D01*
X0015471Y0090939D02*
X0018940Y0090939D01*
X0019006Y0091332D02*
X0015863Y0091332D01*
X0016185Y0091724D02*
X0019168Y0091724D01*
X0019331Y0092116D02*
X0016348Y0092116D01*
X0016510Y0092508D02*
X0019493Y0092508D01*
X0019882Y0092901D02*
X0016673Y0092901D01*
X0016835Y0093293D02*
X0020274Y0093293D01*
X0020870Y0093685D02*
X0016887Y0093685D01*
X0016887Y0094077D02*
X0021817Y0094077D01*
X0023365Y0094077D02*
X0057948Y0094077D01*
X0058110Y0093685D02*
X0024312Y0093685D01*
X0024908Y0093293D02*
X0058448Y0093293D01*
X0058840Y0092901D02*
X0025300Y0092901D01*
X0025689Y0092508D02*
X0058955Y0092508D01*
X0058955Y0092116D02*
X0025851Y0092116D01*
X0026014Y0091724D02*
X0058955Y0091724D01*
X0058955Y0091332D02*
X0026176Y0091332D01*
X0026242Y0090939D02*
X0058955Y0090939D01*
X0058955Y0090547D02*
X0026242Y0090547D01*
X0026242Y0090155D02*
X0058955Y0090155D01*
X0058955Y0089763D02*
X0026242Y0089763D01*
X0026098Y0089371D02*
X0058955Y0089371D01*
X0058955Y0088978D02*
X0025935Y0088978D01*
X0025773Y0088586D02*
X0058955Y0088586D01*
X0058955Y0088194D02*
X0025503Y0088194D01*
X0025110Y0087802D02*
X0058955Y0087802D01*
X0058955Y0087410D02*
X0024718Y0087410D01*
X0023855Y0087017D02*
X0058955Y0087017D01*
X0058955Y0079958D02*
X0006439Y0079958D01*
X0006466Y0079565D02*
X0058955Y0079565D01*
X0058955Y0079173D02*
X0006492Y0079173D01*
X0006519Y0078781D02*
X0058955Y0078781D01*
X0058955Y0078389D02*
X0006546Y0078389D01*
X0006573Y0077996D02*
X0058955Y0077996D01*
X0058955Y0077604D02*
X0006600Y0077604D01*
X0006627Y0077212D02*
X0058955Y0077212D01*
X0058955Y0076820D02*
X0006653Y0076820D01*
X0006680Y0076428D02*
X0059272Y0076428D01*
X0059664Y0076035D02*
X0006707Y0076035D01*
X0006734Y0075643D02*
X0091846Y0075643D01*
X0092238Y0075251D02*
X0006761Y0075251D01*
X0006788Y0074859D02*
X0093082Y0074859D01*
X0094351Y0074859D02*
X0100294Y0074859D01*
X0100294Y0075251D02*
X0095195Y0075251D01*
X0095587Y0075643D02*
X0100294Y0075643D01*
X0100294Y0076035D02*
X0095886Y0076035D01*
X0096048Y0076428D02*
X0100294Y0076428D01*
X0100294Y0076820D02*
X0096198Y0076820D01*
X0096198Y0077212D02*
X0100294Y0077212D01*
X0100294Y0077604D02*
X0096198Y0077604D01*
X0096106Y0077996D02*
X0100294Y0077996D01*
X0100294Y0078389D02*
X0095943Y0078389D01*
X0095726Y0078781D02*
X0100294Y0078781D01*
X0100294Y0079173D02*
X0095334Y0079173D01*
X0094686Y0079565D02*
X0100294Y0079565D01*
X0100294Y0080742D02*
X0094297Y0080742D01*
X0095173Y0081134D02*
X0100294Y0081134D01*
X0100294Y0081526D02*
X0095565Y0081526D01*
X0095877Y0081919D02*
X0100294Y0081919D01*
X0100294Y0082311D02*
X0096039Y0082311D01*
X0096198Y0082703D02*
X0100294Y0082703D01*
X0100294Y0083095D02*
X0096198Y0083095D01*
X0096198Y0083487D02*
X0100294Y0083487D01*
X0100294Y0083880D02*
X0096115Y0083880D01*
X0095953Y0084272D02*
X0100294Y0084272D01*
X0100294Y0084664D02*
X0095748Y0084664D01*
X0095356Y0085056D02*
X0100294Y0085056D01*
X0100294Y0085448D02*
X0094740Y0085448D01*
X0092693Y0085448D02*
X0072413Y0085448D01*
X0073177Y0085056D02*
X0092077Y0085056D01*
X0091685Y0084664D02*
X0073569Y0084664D01*
X0058955Y0097215D02*
X0016112Y0097215D01*
X0016289Y0096823D02*
X0058568Y0096823D01*
X0058176Y0096430D02*
X0016451Y0096430D01*
X0016613Y0096038D02*
X0057997Y0096038D01*
X0057835Y0095646D02*
X0016776Y0095646D01*
X0016887Y0095254D02*
X0057771Y0095254D01*
X0057771Y0094862D02*
X0016887Y0094862D01*
X0016887Y0094469D02*
X0057785Y0094469D01*
X0058955Y0097607D02*
X0015720Y0097607D01*
X0015328Y0097999D02*
X0058955Y0097999D01*
X0058955Y0098391D02*
X0014935Y0098391D01*
X0014252Y0098784D02*
X0058955Y0098784D01*
X0058955Y0099176D02*
X0013305Y0099176D01*
X0010607Y0099176D02*
X0008613Y0099176D01*
X0008694Y0099568D02*
X0058955Y0099568D01*
X0058955Y0099960D02*
X0008776Y0099960D01*
X0008857Y0100353D02*
X0058955Y0100353D01*
X0058955Y0100745D02*
X0008939Y0100745D01*
X0009020Y0101137D02*
X0058955Y0101137D01*
X0059184Y0101529D02*
X0009102Y0101529D01*
X0009183Y0101921D02*
X0059576Y0101921D01*
X0046607Y0115246D02*
X0046985Y0116158D01*
X0046985Y0117145D01*
X0046940Y0117254D01*
X0054884Y0125197D01*
X0110370Y0125197D01*
X0110732Y0125559D01*
X0110732Y0123845D01*
X0111989Y0122587D01*
X0113768Y0122587D01*
X0114518Y0123337D01*
X0117700Y0123337D01*
X0148997Y0092040D01*
X0148783Y0091826D01*
X0148783Y0088101D01*
X0151417Y0085467D01*
X0155142Y0085467D01*
X0157777Y0088101D01*
X0157777Y0091826D01*
X0155142Y0094461D01*
X0151417Y0094461D01*
X0150972Y0094016D01*
X0118857Y0126131D01*
X0114518Y0126131D01*
X0113768Y0126881D01*
X0112054Y0126881D01*
X0121536Y0136363D01*
X0122787Y0135845D01*
X0124576Y0135845D01*
X0126229Y0136530D01*
X0127493Y0137795D01*
X0128178Y0139448D01*
X0128178Y0141237D01*
X0127493Y0142890D01*
X0126229Y0144155D01*
X0124576Y0144839D01*
X0122787Y0144839D01*
X0121134Y0144155D01*
X0119869Y0142890D01*
X0119184Y0141237D01*
X0119184Y0139448D01*
X0119702Y0138197D01*
X0109296Y0127791D01*
X0053809Y0127791D01*
X0045106Y0119088D01*
X0044997Y0119132D01*
X0044010Y0119132D01*
X0043098Y0118755D01*
X0042401Y0118057D01*
X0042023Y0117145D01*
X0042023Y0116158D01*
X0042401Y0115246D01*
X0043098Y0114548D01*
X0044010Y0114170D01*
X0044997Y0114170D01*
X0045909Y0114548D01*
X0046607Y0115246D01*
X0046612Y0115257D02*
X0106199Y0115257D01*
X0106199Y0115649D02*
X0046774Y0115649D01*
X0046937Y0116041D02*
X0106199Y0116041D01*
X0106199Y0116433D02*
X0046985Y0116433D01*
X0046985Y0116825D02*
X0106199Y0116825D01*
X0106199Y0117218D02*
X0046955Y0117218D01*
X0047296Y0117610D02*
X0106199Y0117610D01*
X0106199Y0118002D02*
X0047689Y0118002D01*
X0048081Y0118394D02*
X0106199Y0118394D01*
X0105789Y0118787D02*
X0048473Y0118787D01*
X0048865Y0119179D02*
X0105397Y0119179D01*
X0105232Y0119571D02*
X0049257Y0119571D01*
X0049650Y0119963D02*
X0105070Y0119963D01*
X0105015Y0120355D02*
X0050042Y0120355D01*
X0050434Y0120748D02*
X0105015Y0120748D01*
X0105039Y0121140D02*
X0050826Y0121140D01*
X0051219Y0121532D02*
X0105201Y0121532D01*
X0105364Y0121924D02*
X0051611Y0121924D01*
X0052003Y0122316D02*
X0105715Y0122316D01*
X0106131Y0122709D02*
X0052395Y0122709D01*
X0052787Y0123101D02*
X0111476Y0123101D01*
X0111868Y0122709D02*
X0108861Y0122709D01*
X0109277Y0122316D02*
X0118721Y0122316D01*
X0119113Y0121924D02*
X0109628Y0121924D01*
X0109791Y0121532D02*
X0119505Y0121532D01*
X0119898Y0121140D02*
X0109953Y0121140D01*
X0109977Y0120748D02*
X0120290Y0120748D01*
X0120682Y0120355D02*
X0109977Y0120355D01*
X0109923Y0119963D02*
X0121074Y0119963D01*
X0121466Y0119571D02*
X0109760Y0119571D01*
X0109595Y0119179D02*
X0121859Y0119179D01*
X0122251Y0118787D02*
X0109203Y0118787D01*
X0108793Y0118394D02*
X0122643Y0118394D01*
X0123035Y0118002D02*
X0108793Y0118002D01*
X0108793Y0117610D02*
X0123427Y0117610D01*
X0123820Y0117218D02*
X0108793Y0117218D01*
X0108793Y0116825D02*
X0124212Y0116825D01*
X0124604Y0116433D02*
X0108793Y0116433D01*
X0108793Y0116041D02*
X0124996Y0116041D01*
X0125389Y0115649D02*
X0108793Y0115649D01*
X0108793Y0115257D02*
X0125781Y0115257D01*
X0126173Y0114864D02*
X0108793Y0114864D01*
X0108793Y0114472D02*
X0126565Y0114472D01*
X0126957Y0114080D02*
X0108793Y0114080D01*
X0108793Y0113688D02*
X0127350Y0113688D01*
X0127742Y0113296D02*
X0108793Y0113296D01*
X0108793Y0112903D02*
X0128134Y0112903D01*
X0128526Y0112511D02*
X0108793Y0112511D01*
X0108793Y0112119D02*
X0128918Y0112119D01*
X0129311Y0111727D02*
X0108793Y0111727D01*
X0108793Y0111334D02*
X0129703Y0111334D01*
X0130095Y0110942D02*
X0108793Y0110942D01*
X0108793Y0110550D02*
X0130487Y0110550D01*
X0130880Y0110158D02*
X0108793Y0110158D01*
X0108793Y0109766D02*
X0131272Y0109766D01*
X0131664Y0109373D02*
X0108793Y0109373D01*
X0108793Y0108981D02*
X0132056Y0108981D01*
X0132448Y0108589D02*
X0108793Y0108589D01*
X0108793Y0108197D02*
X0132841Y0108197D01*
X0133233Y0107805D02*
X0108793Y0107805D01*
X0108793Y0107412D02*
X0133625Y0107412D01*
X0134017Y0107020D02*
X0108793Y0107020D01*
X0108793Y0106628D02*
X0134409Y0106628D01*
X0134802Y0106236D02*
X0108793Y0106236D01*
X0108793Y0105844D02*
X0135194Y0105844D01*
X0135586Y0105451D02*
X0108793Y0105451D01*
X0109111Y0105059D02*
X0135978Y0105059D01*
X0136370Y0104667D02*
X0109504Y0104667D01*
X0109896Y0104275D02*
X0136763Y0104275D01*
X0137155Y0103882D02*
X0110288Y0103882D01*
X0110680Y0103490D02*
X0137547Y0103490D01*
X0137939Y0103098D02*
X0111072Y0103098D01*
X0111465Y0102706D02*
X0138332Y0102706D01*
X0138724Y0102314D02*
X0111857Y0102314D01*
X0112249Y0101921D02*
X0139116Y0101921D01*
X0139508Y0101529D02*
X0112641Y0101529D01*
X0113033Y0101137D02*
X0139900Y0101137D01*
X0140293Y0100745D02*
X0113426Y0100745D01*
X0113818Y0100353D02*
X0140685Y0100353D01*
X0141077Y0099960D02*
X0114210Y0099960D01*
X0114602Y0099568D02*
X0141469Y0099568D01*
X0141861Y0099176D02*
X0114995Y0099176D01*
X0115387Y0098784D02*
X0142254Y0098784D01*
X0142646Y0098391D02*
X0115779Y0098391D01*
X0116171Y0097999D02*
X0143038Y0097999D01*
X0143430Y0097607D02*
X0116563Y0097607D01*
X0116956Y0097215D02*
X0143823Y0097215D01*
X0144215Y0096823D02*
X0117348Y0096823D01*
X0117740Y0096430D02*
X0144607Y0096430D01*
X0144999Y0096038D02*
X0118132Y0096038D01*
X0118524Y0095646D02*
X0145391Y0095646D01*
X0145784Y0095254D02*
X0118917Y0095254D01*
X0119309Y0094862D02*
X0146176Y0094862D01*
X0146568Y0094469D02*
X0119701Y0094469D01*
X0120093Y0094077D02*
X0141034Y0094077D01*
X0141417Y0094461D02*
X0139314Y0092358D01*
X0133266Y0092358D01*
X0133221Y0092466D01*
X0132524Y0093164D01*
X0131612Y0093542D01*
X0130625Y0093542D01*
X0129713Y0093164D01*
X0129015Y0092466D01*
X0128637Y0091554D01*
X0128637Y0090567D01*
X0129015Y0089655D01*
X0129713Y0088957D01*
X0130625Y0088580D01*
X0131612Y0088580D01*
X0132524Y0088957D01*
X0133221Y0089655D01*
X0133266Y0089764D01*
X0138783Y0089764D01*
X0138783Y0088101D01*
X0141417Y0085467D01*
X0145142Y0085467D01*
X0147777Y0088101D01*
X0147777Y0091826D01*
X0145142Y0094461D01*
X0141417Y0094461D01*
X0140642Y0093685D02*
X0120485Y0093685D01*
X0120878Y0093293D02*
X0130023Y0093293D01*
X0129449Y0092901D02*
X0121270Y0092901D01*
X0121662Y0092508D02*
X0129057Y0092508D01*
X0128870Y0092116D02*
X0122054Y0092116D01*
X0122447Y0091724D02*
X0128707Y0091724D01*
X0128637Y0091332D02*
X0122839Y0091332D01*
X0123231Y0090939D02*
X0128637Y0090939D01*
X0128645Y0090547D02*
X0123623Y0090547D01*
X0124015Y0090155D02*
X0128808Y0090155D01*
X0128970Y0089763D02*
X0124408Y0089763D01*
X0124800Y0089371D02*
X0129300Y0089371D01*
X0129692Y0088978D02*
X0125192Y0088978D01*
X0125584Y0088586D02*
X0130609Y0088586D01*
X0131627Y0088586D02*
X0138783Y0088586D01*
X0138783Y0088194D02*
X0125976Y0088194D01*
X0126369Y0087802D02*
X0139082Y0087802D01*
X0139474Y0087410D02*
X0126761Y0087410D01*
X0127153Y0087017D02*
X0139867Y0087017D01*
X0140259Y0086625D02*
X0127545Y0086625D01*
X0127938Y0086233D02*
X0140651Y0086233D01*
X0141043Y0085841D02*
X0128330Y0085841D01*
X0128722Y0085448D02*
X0161106Y0085448D01*
X0161133Y0085056D02*
X0129114Y0085056D01*
X0129506Y0084664D02*
X0161160Y0084664D01*
X0161187Y0084272D02*
X0155331Y0084272D01*
X0155142Y0084461D02*
X0151417Y0084461D01*
X0148783Y0081826D01*
X0148783Y0078101D01*
X0151417Y0075467D01*
X0155142Y0075467D01*
X0157777Y0078101D01*
X0157777Y0081826D01*
X0155142Y0084461D01*
X0155723Y0083880D02*
X0161213Y0083880D01*
X0161240Y0083487D02*
X0156116Y0083487D01*
X0156508Y0083095D02*
X0161267Y0083095D01*
X0161294Y0082703D02*
X0156900Y0082703D01*
X0157292Y0082311D02*
X0161321Y0082311D01*
X0161348Y0081919D02*
X0157684Y0081919D01*
X0157777Y0081526D02*
X0161374Y0081526D01*
X0161390Y0081134D02*
X0157777Y0081134D01*
X0157777Y0080742D02*
X0161363Y0080742D01*
X0161336Y0080350D02*
X0157777Y0080350D01*
X0157777Y0079958D02*
X0161309Y0079958D01*
X0161282Y0079565D02*
X0157777Y0079565D01*
X0157777Y0079173D02*
X0161256Y0079173D01*
X0161229Y0078781D02*
X0157777Y0078781D01*
X0157777Y0078389D02*
X0161202Y0078389D01*
X0161175Y0077996D02*
X0157672Y0077996D01*
X0157280Y0077604D02*
X0161148Y0077604D01*
X0161121Y0077212D02*
X0156888Y0077212D01*
X0156495Y0076820D02*
X0161095Y0076820D01*
X0161068Y0076428D02*
X0156103Y0076428D01*
X0155711Y0076035D02*
X0161041Y0076035D01*
X0161014Y0075643D02*
X0155319Y0075643D01*
X0155310Y0074859D02*
X0160961Y0074859D01*
X0160987Y0075251D02*
X0127108Y0075251D01*
X0126716Y0075643D02*
X0141241Y0075643D01*
X0140849Y0076035D02*
X0126324Y0076035D01*
X0125932Y0076428D02*
X0140456Y0076428D01*
X0140064Y0076820D02*
X0125540Y0076820D01*
X0125147Y0077212D02*
X0139672Y0077212D01*
X0139280Y0077604D02*
X0124755Y0077604D01*
X0124363Y0077996D02*
X0132506Y0077996D01*
X0132114Y0078389D02*
X0123971Y0078389D01*
X0123579Y0078781D02*
X0131722Y0078781D01*
X0131329Y0079173D02*
X0123186Y0079173D01*
X0122794Y0079565D02*
X0130937Y0079565D01*
X0130545Y0079958D02*
X0122402Y0079958D01*
X0122010Y0080350D02*
X0130153Y0080350D01*
X0129760Y0080742D02*
X0121617Y0080742D01*
X0121225Y0081134D02*
X0129368Y0081134D01*
X0128976Y0081526D02*
X0120833Y0081526D01*
X0120441Y0081919D02*
X0128584Y0081919D01*
X0128192Y0082311D02*
X0120049Y0082311D01*
X0119656Y0082703D02*
X0127799Y0082703D01*
X0127407Y0083095D02*
X0119264Y0083095D01*
X0118872Y0083487D02*
X0127015Y0083487D01*
X0126623Y0083880D02*
X0118480Y0083880D01*
X0118088Y0084272D02*
X0126231Y0084272D01*
X0125838Y0084664D02*
X0117695Y0084664D01*
X0117303Y0085056D02*
X0125446Y0085056D01*
X0125054Y0085448D02*
X0116911Y0085448D01*
X0116667Y0085841D02*
X0124662Y0085841D01*
X0124269Y0086233D02*
X0116667Y0086233D01*
X0116667Y0086625D02*
X0123877Y0086625D01*
X0123485Y0087017D02*
X0116804Y0087017D01*
X0117196Y0087410D02*
X0123093Y0087410D01*
X0122701Y0087802D02*
X0117521Y0087802D01*
X0117683Y0088194D02*
X0122308Y0088194D01*
X0121916Y0088586D02*
X0117846Y0088586D01*
X0117851Y0088978D02*
X0121524Y0088978D01*
X0121132Y0089371D02*
X0117851Y0089371D01*
X0117778Y0089763D02*
X0120740Y0089763D01*
X0120347Y0090155D02*
X0117615Y0090155D01*
X0117424Y0090547D02*
X0119955Y0090547D01*
X0119563Y0090939D02*
X0117032Y0090939D01*
X0119126Y0079565D02*
X0102887Y0079565D01*
X0100294Y0074467D02*
X0006814Y0074467D01*
X0006841Y0074074D02*
X0021049Y0074074D01*
X0020523Y0073856D02*
X0019496Y0072829D01*
X0018940Y0071487D01*
X0018940Y0070035D01*
X0019496Y0068693D01*
X0020523Y0067666D01*
X0021865Y0067110D01*
X0023317Y0067110D01*
X0024659Y0067666D01*
X0025686Y0068693D01*
X0026242Y0070035D01*
X0026242Y0071487D01*
X0025686Y0072829D01*
X0024659Y0073856D01*
X0023317Y0074412D01*
X0021865Y0074412D01*
X0020523Y0073856D01*
X0020349Y0073682D02*
X0006868Y0073682D01*
X0006895Y0073290D02*
X0019956Y0073290D01*
X0019564Y0072898D02*
X0006922Y0072898D01*
X0006948Y0072505D02*
X0019362Y0072505D01*
X0019199Y0072113D02*
X0006975Y0072113D01*
X0007002Y0071721D02*
X0010934Y0071721D01*
X0009987Y0071329D02*
X0007029Y0071329D01*
X0007056Y0070937D02*
X0009139Y0070937D01*
X0008747Y0070544D02*
X0007099Y0070544D01*
X0007181Y0070152D02*
X0008355Y0070152D01*
X0007962Y0069760D02*
X0007262Y0069760D01*
X0007344Y0069368D02*
X0007718Y0069368D01*
X0007555Y0068976D02*
X0007425Y0068976D01*
X0008648Y0063092D02*
X0008763Y0063092D01*
X0008729Y0062700D02*
X0009155Y0062700D01*
X0008811Y0062308D02*
X0010026Y0062308D01*
X0010973Y0061916D02*
X0008892Y0061916D01*
X0013031Y0061916D02*
X0031061Y0061916D01*
X0030669Y0062308D02*
X0013978Y0062308D01*
X0014849Y0062700D02*
X0030632Y0062700D01*
X0030632Y0063092D02*
X0015241Y0063092D01*
X0015633Y0063485D02*
X0030632Y0063485D01*
X0030632Y0063877D02*
X0016025Y0063877D01*
X0016280Y0064269D02*
X0030778Y0064269D01*
X0031170Y0064661D02*
X0016442Y0064661D01*
X0016605Y0065053D02*
X0031562Y0065053D01*
X0033995Y0065053D02*
X0099109Y0065053D01*
X0099109Y0065446D02*
X0016767Y0065446D01*
X0016929Y0065838D02*
X0099109Y0065838D01*
X0099220Y0066230D02*
X0016933Y0066230D01*
X0016933Y0066622D02*
X0099382Y0066622D01*
X0099626Y0067015D02*
X0016933Y0067015D01*
X0016933Y0067407D02*
X0021148Y0067407D01*
X0020389Y0067799D02*
X0016933Y0067799D01*
X0016774Y0068191D02*
X0019997Y0068191D01*
X0019605Y0068583D02*
X0016611Y0068583D01*
X0016449Y0068976D02*
X0019379Y0068976D01*
X0019216Y0069368D02*
X0016286Y0069368D01*
X0016042Y0069760D02*
X0019054Y0069760D01*
X0018940Y0070152D02*
X0015649Y0070152D01*
X0015257Y0070544D02*
X0018940Y0070544D01*
X0018940Y0070937D02*
X0014865Y0070937D01*
X0014017Y0071329D02*
X0018940Y0071329D01*
X0019037Y0071721D02*
X0013070Y0071721D01*
X0024133Y0074074D02*
X0100294Y0074074D01*
X0100294Y0073682D02*
X0024833Y0073682D01*
X0025226Y0073290D02*
X0100294Y0073290D01*
X0100294Y0072898D02*
X0025618Y0072898D01*
X0025820Y0072505D02*
X0100294Y0072505D01*
X0100294Y0072113D02*
X0025983Y0072113D01*
X0026145Y0071721D02*
X0100294Y0071721D01*
X0100294Y0071329D02*
X0026242Y0071329D01*
X0026242Y0070937D02*
X0100294Y0070937D01*
X0100294Y0070544D02*
X0026242Y0070544D01*
X0026242Y0070152D02*
X0100294Y0070152D01*
X0100294Y0069760D02*
X0026128Y0069760D01*
X0025966Y0069368D02*
X0100294Y0069368D01*
X0100294Y0068976D02*
X0025804Y0068976D01*
X0025577Y0068583D02*
X0100294Y0068583D01*
X0100294Y0068191D02*
X0025185Y0068191D01*
X0024793Y0067799D02*
X0100294Y0067799D01*
X0100018Y0067407D02*
X0024034Y0067407D01*
X0034388Y0064661D02*
X0099240Y0064661D01*
X0099403Y0064269D02*
X0034780Y0064269D01*
X0034926Y0063877D02*
X0099675Y0063877D01*
X0100067Y0063485D02*
X0034926Y0063485D01*
X0034926Y0063092D02*
X0100848Y0063092D01*
X0105509Y0061916D02*
X0035648Y0061916D01*
X0035256Y0062308D02*
X0105901Y0062308D01*
X0106294Y0062700D02*
X0034926Y0062700D01*
X0010261Y0089763D02*
X0006937Y0089763D01*
X0006964Y0090155D02*
X0009314Y0090155D01*
X0008833Y0090547D02*
X0006991Y0090547D01*
X0007017Y0090939D02*
X0008441Y0090939D01*
X0008049Y0091332D02*
X0007044Y0091332D01*
X0007071Y0091724D02*
X0007727Y0091724D01*
X0007564Y0092116D02*
X0007146Y0092116D01*
X0007227Y0092508D02*
X0007402Y0092508D01*
X0008368Y0097999D02*
X0008584Y0097999D01*
X0008450Y0098391D02*
X0008977Y0098391D01*
X0008531Y0098784D02*
X0009660Y0098784D01*
X0012637Y0111727D02*
X0106199Y0111727D01*
X0106199Y0112119D02*
X0012779Y0112119D01*
X0012982Y0112511D02*
X0106199Y0112511D01*
X0106199Y0112903D02*
X0013185Y0112903D01*
X0013388Y0113296D02*
X0106199Y0113296D01*
X0106199Y0113688D02*
X0013592Y0113688D01*
X0013795Y0114080D02*
X0106199Y0114080D01*
X0106199Y0114472D02*
X0045726Y0114472D01*
X0046226Y0114864D02*
X0106199Y0114864D01*
X0111084Y0123493D02*
X0053180Y0123493D01*
X0053572Y0123885D02*
X0110732Y0123885D01*
X0110732Y0124277D02*
X0053964Y0124277D01*
X0054356Y0124670D02*
X0110732Y0124670D01*
X0110732Y0125062D02*
X0054748Y0125062D01*
X0053042Y0127023D02*
X0034009Y0127023D01*
X0034015Y0127010D02*
X0033487Y0128284D01*
X0032511Y0129260D01*
X0031236Y0129788D01*
X0029856Y0129788D01*
X0028582Y0129260D01*
X0027606Y0128284D01*
X0027078Y0127010D01*
X0027078Y0125630D01*
X0027606Y0124355D01*
X0028582Y0123379D01*
X0029856Y0122851D01*
X0031236Y0122851D01*
X0032511Y0123379D01*
X0033487Y0124355D01*
X0034015Y0125630D01*
X0034015Y0127010D01*
X0034015Y0126631D02*
X0052649Y0126631D01*
X0052257Y0126239D02*
X0034015Y0126239D01*
X0034015Y0125846D02*
X0051865Y0125846D01*
X0051473Y0125454D02*
X0033942Y0125454D01*
X0033780Y0125062D02*
X0051080Y0125062D01*
X0050688Y0124670D02*
X0033617Y0124670D01*
X0033409Y0124277D02*
X0050296Y0124277D01*
X0049904Y0123885D02*
X0033017Y0123885D01*
X0032625Y0123493D02*
X0049512Y0123493D01*
X0049119Y0123101D02*
X0031839Y0123101D01*
X0029254Y0123101D02*
X0018770Y0123101D01*
X0019047Y0123493D02*
X0028468Y0123493D01*
X0028076Y0123885D02*
X0019324Y0123885D01*
X0019601Y0124277D02*
X0027683Y0124277D01*
X0027475Y0124670D02*
X0019878Y0124670D01*
X0020154Y0125062D02*
X0027313Y0125062D01*
X0027151Y0125454D02*
X0020431Y0125454D01*
X0020708Y0125846D02*
X0027078Y0125846D01*
X0027078Y0126239D02*
X0020985Y0126239D01*
X0021262Y0126631D02*
X0027078Y0126631D01*
X0027083Y0127023D02*
X0021539Y0127023D01*
X0021815Y0127415D02*
X0027246Y0127415D01*
X0027408Y0127807D02*
X0022092Y0127807D01*
X0022369Y0128200D02*
X0027571Y0128200D01*
X0027913Y0128592D02*
X0022646Y0128592D01*
X0022923Y0128984D02*
X0028306Y0128984D01*
X0028862Y0129376D02*
X0023200Y0129376D01*
X0023477Y0129768D02*
X0029809Y0129768D01*
X0031284Y0129768D02*
X0111273Y0129768D01*
X0110881Y0129376D02*
X0032231Y0129376D01*
X0032787Y0128984D02*
X0110489Y0128984D01*
X0110097Y0128592D02*
X0033179Y0128592D01*
X0033522Y0128200D02*
X0109705Y0128200D01*
X0109312Y0127807D02*
X0033684Y0127807D01*
X0033847Y0127415D02*
X0053434Y0127415D01*
X0048727Y0122709D02*
X0018493Y0122709D01*
X0018216Y0122316D02*
X0048335Y0122316D01*
X0047943Y0121924D02*
X0017940Y0121924D01*
X0017663Y0121532D02*
X0047551Y0121532D01*
X0047158Y0121140D02*
X0017453Y0121140D01*
X0017250Y0120748D02*
X0046766Y0120748D01*
X0046374Y0120355D02*
X0017046Y0120355D01*
X0016843Y0119963D02*
X0045982Y0119963D01*
X0045589Y0119571D02*
X0016640Y0119571D01*
X0016437Y0119179D02*
X0045197Y0119179D01*
X0043175Y0118787D02*
X0016234Y0118787D01*
X0016030Y0118394D02*
X0042738Y0118394D01*
X0042378Y0118002D02*
X0015827Y0118002D01*
X0015624Y0117610D02*
X0042215Y0117610D01*
X0042053Y0117218D02*
X0015421Y0117218D01*
X0015217Y0116825D02*
X0042023Y0116825D01*
X0042023Y0116433D02*
X0015014Y0116433D01*
X0014811Y0116041D02*
X0042071Y0116041D01*
X0042234Y0115649D02*
X0014608Y0115649D01*
X0014405Y0115257D02*
X0042396Y0115257D01*
X0042782Y0114864D02*
X0014201Y0114864D01*
X0013998Y0114472D02*
X0043282Y0114472D01*
X0039588Y0131203D02*
X0038208Y0131203D01*
X0036933Y0131731D01*
X0035958Y0132707D01*
X0035430Y0133981D01*
X0035430Y0135361D01*
X0035958Y0136636D01*
X0036933Y0137612D01*
X0038208Y0138140D01*
X0039588Y0138140D01*
X0040863Y0137612D01*
X0041838Y0136636D01*
X0042366Y0135361D01*
X0042366Y0133981D01*
X0041838Y0132707D01*
X0040863Y0131731D01*
X0039588Y0131203D01*
X0039913Y0131337D02*
X0112842Y0131337D01*
X0112450Y0130945D02*
X0024491Y0130945D01*
X0024857Y0131337D02*
X0037883Y0131337D01*
X0036936Y0131730D02*
X0025223Y0131730D01*
X0025589Y0132122D02*
X0036542Y0132122D01*
X0036150Y0132514D02*
X0025956Y0132514D01*
X0026322Y0132906D02*
X0035875Y0132906D01*
X0035712Y0133298D02*
X0026688Y0133298D01*
X0027055Y0133691D02*
X0035550Y0133691D01*
X0035430Y0134083D02*
X0027421Y0134083D01*
X0027787Y0134475D02*
X0035430Y0134475D01*
X0035430Y0134867D02*
X0028154Y0134867D01*
X0028520Y0135259D02*
X0035430Y0135259D01*
X0035550Y0135652D02*
X0028886Y0135652D01*
X0029252Y0136044D02*
X0035712Y0136044D01*
X0035875Y0136436D02*
X0029619Y0136436D01*
X0029985Y0136828D02*
X0036150Y0136828D01*
X0036542Y0137220D02*
X0030351Y0137220D01*
X0030718Y0137613D02*
X0036936Y0137613D01*
X0037882Y0138005D02*
X0031123Y0138005D01*
X0031605Y0138397D02*
X0119620Y0138397D01*
X0119510Y0138005D02*
X0039914Y0138005D01*
X0040860Y0137613D02*
X0119118Y0137613D01*
X0118725Y0137220D02*
X0041254Y0137220D01*
X0041646Y0136828D02*
X0118333Y0136828D01*
X0117941Y0136436D02*
X0041921Y0136436D01*
X0042084Y0136044D02*
X0117549Y0136044D01*
X0117157Y0135652D02*
X0042246Y0135652D01*
X0042366Y0135259D02*
X0116764Y0135259D01*
X0116372Y0134867D02*
X0042366Y0134867D01*
X0042366Y0134475D02*
X0115980Y0134475D01*
X0115588Y0134083D02*
X0042366Y0134083D01*
X0042246Y0133691D02*
X0115195Y0133691D01*
X0114803Y0133298D02*
X0042084Y0133298D01*
X0041921Y0132906D02*
X0114411Y0132906D01*
X0114019Y0132514D02*
X0041646Y0132514D01*
X0041254Y0132122D02*
X0113627Y0132122D01*
X0113234Y0131730D02*
X0040859Y0131730D01*
X0033533Y0139966D02*
X0119184Y0139966D01*
X0119184Y0140358D02*
X0034015Y0140358D01*
X0034497Y0140750D02*
X0114368Y0140750D01*
X0114017Y0140806D02*
X0114779Y0140685D01*
X0115549Y0140685D01*
X0116311Y0140806D01*
X0117044Y0141044D01*
X0117730Y0141394D01*
X0118354Y0141847D01*
X0118899Y0142392D01*
X0119231Y0142849D01*
X0115229Y0145311D01*
X0115435Y0145647D01*
X0115100Y0145853D01*
X0117562Y0149856D01*
X0117044Y0150120D01*
X0116311Y0150358D01*
X0115549Y0150479D01*
X0114779Y0150479D01*
X0114017Y0150358D01*
X0113284Y0150120D01*
X0112597Y0149770D01*
X0111974Y0149317D01*
X0111429Y0148772D01*
X0111097Y0148315D01*
X0115099Y0145853D01*
X0114893Y0145518D01*
X0110890Y0147980D01*
X0110626Y0147462D01*
X0110388Y0146729D01*
X0110267Y0145968D01*
X0110267Y0145197D01*
X0110388Y0144436D01*
X0110626Y0143702D01*
X0110976Y0143016D01*
X0111429Y0142392D01*
X0111974Y0141847D01*
X0112431Y0141515D01*
X0114893Y0145518D01*
X0115228Y0145311D01*
X0112766Y0141308D01*
X0113284Y0141044D01*
X0114017Y0140806D01*
X0113091Y0141143D02*
X0034979Y0141143D01*
X0035461Y0141535D02*
X0112404Y0141535D01*
X0112443Y0141535D02*
X0112905Y0141535D01*
X0112684Y0141927D02*
X0113146Y0141927D01*
X0112926Y0142319D02*
X0113388Y0142319D01*
X0113167Y0142711D02*
X0113629Y0142711D01*
X0113408Y0143104D02*
X0113870Y0143104D01*
X0113649Y0143496D02*
X0114112Y0143496D01*
X0113891Y0143888D02*
X0114353Y0143888D01*
X0114132Y0144280D02*
X0114594Y0144280D01*
X0114373Y0144673D02*
X0114835Y0144673D01*
X0114615Y0145065D02*
X0115077Y0145065D01*
X0114992Y0145457D02*
X0114856Y0145457D01*
X0115097Y0145849D02*
X0114354Y0145849D01*
X0114468Y0146241D02*
X0113717Y0146241D01*
X0113831Y0146634D02*
X0113079Y0146634D01*
X0113193Y0147026D02*
X0112442Y0147026D01*
X0112556Y0147418D02*
X0111804Y0147418D01*
X0111918Y0147810D02*
X0111167Y0147810D01*
X0110803Y0147810D02*
X0044528Y0147810D01*
X0043883Y0147418D02*
X0110612Y0147418D01*
X0110484Y0147026D02*
X0043238Y0147026D01*
X0042593Y0146634D02*
X0110373Y0146634D01*
X0110311Y0146241D02*
X0041949Y0146241D01*
X0041304Y0145849D02*
X0110267Y0145849D01*
X0110267Y0145457D02*
X0040659Y0145457D01*
X0040014Y0145065D02*
X0110288Y0145065D01*
X0110350Y0144673D02*
X0039369Y0144673D01*
X0038836Y0144280D02*
X0110438Y0144280D01*
X0110566Y0143888D02*
X0038354Y0143888D01*
X0037872Y0143496D02*
X0110731Y0143496D01*
X0110931Y0143104D02*
X0037390Y0143104D01*
X0036908Y0142711D02*
X0111197Y0142711D01*
X0111502Y0142319D02*
X0036426Y0142319D01*
X0035944Y0141927D02*
X0111894Y0141927D01*
X0115629Y0145065D02*
X0116381Y0145065D01*
X0116267Y0144673D02*
X0117018Y0144673D01*
X0116905Y0144280D02*
X0117656Y0144280D01*
X0117542Y0143888D02*
X0118293Y0143888D01*
X0118180Y0143496D02*
X0118931Y0143496D01*
X0118817Y0143104D02*
X0120083Y0143104D01*
X0119795Y0142711D02*
X0119131Y0142711D01*
X0118826Y0142319D02*
X0119633Y0142319D01*
X0119470Y0141927D02*
X0118434Y0141927D01*
X0117924Y0141535D02*
X0119308Y0141535D01*
X0119184Y0141143D02*
X0117237Y0141143D01*
X0115960Y0140750D02*
X0119184Y0140750D01*
X0119184Y0139574D02*
X0033051Y0139574D01*
X0032569Y0139182D02*
X0119295Y0139182D01*
X0119457Y0138789D02*
X0032087Y0138789D01*
X0024124Y0130553D02*
X0112058Y0130553D01*
X0111666Y0130161D02*
X0023758Y0130161D01*
X0045173Y0148202D02*
X0111280Y0148202D01*
X0111300Y0148595D02*
X0045818Y0148595D01*
X0046463Y0148987D02*
X0111643Y0148987D01*
X0112059Y0149379D02*
X0047108Y0149379D01*
X0047753Y0149771D02*
X0112599Y0149771D01*
X0113417Y0150163D02*
X0048474Y0150163D01*
X0049377Y0150556D02*
X0118371Y0150556D01*
X0117468Y0150948D02*
X0050280Y0150948D01*
X0051183Y0151340D02*
X0116565Y0151340D01*
X0115662Y0151732D02*
X0052086Y0151732D01*
X0052989Y0152125D02*
X0114759Y0152125D01*
X0113856Y0152517D02*
X0053892Y0152517D01*
X0054795Y0152909D02*
X0112953Y0152909D01*
X0112051Y0153301D02*
X0055698Y0153301D01*
X0056600Y0153693D02*
X0111148Y0153693D01*
X0110245Y0154086D02*
X0057503Y0154086D01*
X0058678Y0154478D02*
X0109070Y0154478D01*
X0107671Y0154870D02*
X0060077Y0154870D01*
X0061477Y0155262D02*
X0106271Y0155262D01*
X0104871Y0155654D02*
X0062877Y0155654D01*
X0064277Y0156047D02*
X0103471Y0156047D01*
X0102071Y0156439D02*
X0065677Y0156439D01*
X0067076Y0156831D02*
X0100672Y0156831D01*
X0098883Y0157223D02*
X0068865Y0157223D01*
X0071719Y0157616D02*
X0096029Y0157616D01*
X0093176Y0158008D02*
X0074572Y0158008D01*
X0077426Y0158400D02*
X0090322Y0158400D01*
X0115106Y0145849D02*
X0115559Y0145849D01*
X0115435Y0145647D02*
X0117897Y0149649D01*
X0118354Y0149317D01*
X0118899Y0148772D01*
X0119352Y0148149D01*
X0119702Y0147462D01*
X0119940Y0146729D01*
X0120061Y0145968D01*
X0120061Y0145197D01*
X0119940Y0144436D01*
X0119702Y0143702D01*
X0119438Y0143184D01*
X0115435Y0145647D01*
X0115318Y0145457D02*
X0115743Y0145457D01*
X0115801Y0146241D02*
X0115338Y0146241D01*
X0115580Y0146634D02*
X0116042Y0146634D01*
X0115821Y0147026D02*
X0116283Y0147026D01*
X0116062Y0147418D02*
X0116524Y0147418D01*
X0116304Y0147810D02*
X0116766Y0147810D01*
X0116545Y0148202D02*
X0117007Y0148202D01*
X0116786Y0148595D02*
X0117248Y0148595D01*
X0117027Y0148987D02*
X0117490Y0148987D01*
X0117269Y0149379D02*
X0117731Y0149379D01*
X0117510Y0149771D02*
X0119995Y0149771D01*
X0120640Y0149379D02*
X0118269Y0149379D01*
X0118685Y0148987D02*
X0121285Y0148987D01*
X0121930Y0148595D02*
X0119028Y0148595D01*
X0119313Y0148202D02*
X0122575Y0148202D01*
X0123220Y0147810D02*
X0119525Y0147810D01*
X0119716Y0147418D02*
X0123865Y0147418D01*
X0124510Y0147026D02*
X0119844Y0147026D01*
X0119955Y0146634D02*
X0125155Y0146634D01*
X0125799Y0146241D02*
X0120017Y0146241D01*
X0120061Y0145849D02*
X0126444Y0145849D01*
X0127089Y0145457D02*
X0120061Y0145457D01*
X0120040Y0145065D02*
X0127734Y0145065D01*
X0128379Y0144673D02*
X0124978Y0144673D01*
X0125925Y0144280D02*
X0128912Y0144280D01*
X0129394Y0143888D02*
X0126495Y0143888D01*
X0126887Y0143496D02*
X0129876Y0143496D01*
X0130358Y0143104D02*
X0127279Y0143104D01*
X0127567Y0142711D02*
X0130840Y0142711D01*
X0131322Y0142319D02*
X0127730Y0142319D01*
X0127892Y0141927D02*
X0131804Y0141927D01*
X0132287Y0141535D02*
X0128055Y0141535D01*
X0128178Y0141143D02*
X0132769Y0141143D01*
X0133251Y0140750D02*
X0128178Y0140750D01*
X0128178Y0140358D02*
X0133733Y0140358D01*
X0134215Y0139966D02*
X0128178Y0139966D01*
X0128178Y0139574D02*
X0134697Y0139574D01*
X0135179Y0139182D02*
X0128068Y0139182D01*
X0127905Y0138789D02*
X0135661Y0138789D01*
X0136143Y0138397D02*
X0127743Y0138397D01*
X0127580Y0138005D02*
X0136625Y0138005D01*
X0137030Y0137613D02*
X0127311Y0137613D01*
X0126919Y0137220D02*
X0137397Y0137220D01*
X0137763Y0136828D02*
X0126527Y0136828D01*
X0126002Y0136436D02*
X0138129Y0136436D01*
X0138496Y0136044D02*
X0125055Y0136044D01*
X0122308Y0136044D02*
X0121217Y0136044D01*
X0120825Y0135652D02*
X0138862Y0135652D01*
X0139228Y0135259D02*
X0120432Y0135259D01*
X0120040Y0134867D02*
X0139595Y0134867D01*
X0139961Y0134475D02*
X0119648Y0134475D01*
X0119256Y0134083D02*
X0140327Y0134083D01*
X0140693Y0133691D02*
X0118864Y0133691D01*
X0118471Y0133298D02*
X0141060Y0133298D01*
X0141426Y0132906D02*
X0118079Y0132906D01*
X0117687Y0132514D02*
X0141792Y0132514D01*
X0142159Y0132122D02*
X0117295Y0132122D01*
X0116902Y0131730D02*
X0142525Y0131730D01*
X0142891Y0131337D02*
X0116510Y0131337D01*
X0116118Y0130945D02*
X0143258Y0130945D01*
X0143624Y0130553D02*
X0115726Y0130553D01*
X0115334Y0130161D02*
X0143990Y0130161D01*
X0144271Y0129768D02*
X0114941Y0129768D01*
X0114549Y0129376D02*
X0144548Y0129376D01*
X0144825Y0128984D02*
X0114157Y0128984D01*
X0113765Y0128592D02*
X0145102Y0128592D01*
X0145379Y0128200D02*
X0113373Y0128200D01*
X0112980Y0127807D02*
X0145656Y0127807D01*
X0145933Y0127415D02*
X0112588Y0127415D01*
X0112196Y0127023D02*
X0146209Y0127023D01*
X0146486Y0126631D02*
X0114018Y0126631D01*
X0114410Y0126239D02*
X0146763Y0126239D01*
X0147040Y0125846D02*
X0119142Y0125846D01*
X0119534Y0125454D02*
X0147317Y0125454D01*
X0147594Y0125062D02*
X0119926Y0125062D01*
X0120319Y0124670D02*
X0147870Y0124670D01*
X0148147Y0124277D02*
X0120711Y0124277D01*
X0121103Y0123885D02*
X0148424Y0123885D01*
X0148701Y0123493D02*
X0121495Y0123493D01*
X0121887Y0123101D02*
X0148978Y0123101D01*
X0149255Y0122709D02*
X0122280Y0122709D01*
X0122672Y0122316D02*
X0149532Y0122316D01*
X0149808Y0121924D02*
X0123064Y0121924D01*
X0123456Y0121532D02*
X0150085Y0121532D01*
X0150295Y0121140D02*
X0123848Y0121140D01*
X0124241Y0120748D02*
X0150498Y0120748D01*
X0150702Y0120355D02*
X0124633Y0120355D01*
X0125025Y0119963D02*
X0150905Y0119963D01*
X0151108Y0119571D02*
X0125417Y0119571D01*
X0125810Y0119179D02*
X0151311Y0119179D01*
X0151514Y0118787D02*
X0126202Y0118787D01*
X0126594Y0118394D02*
X0151718Y0118394D01*
X0151921Y0118002D02*
X0126986Y0118002D01*
X0127378Y0117610D02*
X0152124Y0117610D01*
X0152327Y0117218D02*
X0127771Y0117218D01*
X0128163Y0116825D02*
X0152531Y0116825D01*
X0152734Y0116433D02*
X0128555Y0116433D01*
X0128947Y0116041D02*
X0152937Y0116041D01*
X0153140Y0115649D02*
X0129339Y0115649D01*
X0129732Y0115257D02*
X0153344Y0115257D01*
X0153547Y0114864D02*
X0130124Y0114864D01*
X0130516Y0114472D02*
X0153750Y0114472D01*
X0153953Y0114080D02*
X0130908Y0114080D01*
X0131300Y0113688D02*
X0154156Y0113688D01*
X0154360Y0113296D02*
X0131693Y0113296D01*
X0132085Y0112903D02*
X0154563Y0112903D01*
X0154766Y0112511D02*
X0132477Y0112511D01*
X0132869Y0112119D02*
X0154969Y0112119D01*
X0155111Y0111727D02*
X0133262Y0111727D01*
X0133654Y0111334D02*
X0155251Y0111334D01*
X0155390Y0110942D02*
X0134046Y0110942D01*
X0134438Y0110550D02*
X0155529Y0110550D01*
X0155669Y0110158D02*
X0134830Y0110158D01*
X0135223Y0109766D02*
X0155808Y0109766D01*
X0155948Y0109373D02*
X0135615Y0109373D01*
X0136007Y0108981D02*
X0156087Y0108981D01*
X0156226Y0108589D02*
X0136399Y0108589D01*
X0136791Y0108197D02*
X0156366Y0108197D01*
X0156505Y0107805D02*
X0137184Y0107805D01*
X0137576Y0107412D02*
X0156645Y0107412D01*
X0156784Y0107020D02*
X0137968Y0107020D01*
X0138360Y0106628D02*
X0156923Y0106628D01*
X0157063Y0106236D02*
X0138753Y0106236D01*
X0139145Y0105844D02*
X0157202Y0105844D01*
X0157342Y0105451D02*
X0139537Y0105451D01*
X0139929Y0105059D02*
X0157481Y0105059D01*
X0157620Y0104667D02*
X0140321Y0104667D01*
X0140714Y0104275D02*
X0157760Y0104275D01*
X0157899Y0103882D02*
X0141106Y0103882D01*
X0141498Y0103490D02*
X0158039Y0103490D01*
X0158178Y0103098D02*
X0141890Y0103098D01*
X0142282Y0102706D02*
X0158317Y0102706D01*
X0158457Y0102314D02*
X0142675Y0102314D01*
X0143067Y0101921D02*
X0158565Y0101921D01*
X0158646Y0101529D02*
X0143459Y0101529D01*
X0143851Y0101137D02*
X0158728Y0101137D01*
X0158809Y0100745D02*
X0144243Y0100745D01*
X0144636Y0100353D02*
X0158891Y0100353D01*
X0158972Y0099960D02*
X0145028Y0099960D01*
X0145420Y0099568D02*
X0159054Y0099568D01*
X0159135Y0099176D02*
X0145812Y0099176D01*
X0146205Y0098784D02*
X0159217Y0098784D01*
X0159298Y0098391D02*
X0146597Y0098391D01*
X0146989Y0097999D02*
X0159380Y0097999D01*
X0159461Y0097607D02*
X0147381Y0097607D01*
X0147773Y0097215D02*
X0159543Y0097215D01*
X0159624Y0096823D02*
X0148166Y0096823D01*
X0148558Y0096430D02*
X0159706Y0096430D01*
X0159787Y0096038D02*
X0148950Y0096038D01*
X0149342Y0095646D02*
X0159869Y0095646D01*
X0159950Y0095254D02*
X0149734Y0095254D01*
X0150127Y0094862D02*
X0160032Y0094862D01*
X0160113Y0094469D02*
X0150519Y0094469D01*
X0150911Y0094077D02*
X0151034Y0094077D01*
X0148921Y0092116D02*
X0147487Y0092116D01*
X0147777Y0091724D02*
X0148783Y0091724D01*
X0148783Y0091332D02*
X0147777Y0091332D01*
X0147777Y0090939D02*
X0148783Y0090939D01*
X0148783Y0090547D02*
X0147777Y0090547D01*
X0147777Y0090155D02*
X0148783Y0090155D01*
X0148783Y0089763D02*
X0147777Y0089763D01*
X0147777Y0089371D02*
X0148783Y0089371D01*
X0148783Y0088978D02*
X0147777Y0088978D01*
X0147777Y0088586D02*
X0148783Y0088586D01*
X0148783Y0088194D02*
X0147777Y0088194D01*
X0147477Y0087802D02*
X0149082Y0087802D01*
X0149474Y0087410D02*
X0147085Y0087410D01*
X0146693Y0087017D02*
X0149867Y0087017D01*
X0150259Y0086625D02*
X0146301Y0086625D01*
X0145909Y0086233D02*
X0150651Y0086233D01*
X0151043Y0085841D02*
X0145516Y0085841D01*
X0145331Y0084272D02*
X0151228Y0084272D01*
X0150836Y0083880D02*
X0145723Y0083880D01*
X0146116Y0083487D02*
X0150444Y0083487D01*
X0150052Y0083095D02*
X0146508Y0083095D01*
X0146900Y0082703D02*
X0149660Y0082703D01*
X0149267Y0082311D02*
X0147292Y0082311D01*
X0147684Y0081919D02*
X0148875Y0081919D01*
X0148783Y0081526D02*
X0147777Y0081526D01*
X0147777Y0081134D02*
X0148783Y0081134D01*
X0148783Y0080742D02*
X0147777Y0080742D01*
X0147777Y0080350D02*
X0148783Y0080350D01*
X0148783Y0079958D02*
X0147777Y0079958D01*
X0147777Y0079565D02*
X0148783Y0079565D01*
X0148783Y0079173D02*
X0147777Y0079173D01*
X0147777Y0078781D02*
X0148783Y0078781D01*
X0148783Y0078389D02*
X0147777Y0078389D01*
X0147672Y0077996D02*
X0148887Y0077996D01*
X0149280Y0077604D02*
X0147280Y0077604D01*
X0146888Y0077212D02*
X0149672Y0077212D01*
X0150064Y0076820D02*
X0146495Y0076820D01*
X0146103Y0076428D02*
X0150456Y0076428D01*
X0150849Y0076035D02*
X0145711Y0076035D01*
X0145319Y0075643D02*
X0151241Y0075643D01*
X0151250Y0074859D02*
X0127501Y0074859D01*
X0127893Y0074467D02*
X0150857Y0074467D01*
X0150465Y0074074D02*
X0145529Y0074074D01*
X0145142Y0074461D02*
X0141417Y0074461D01*
X0138783Y0071826D01*
X0138783Y0068101D01*
X0141417Y0065467D01*
X0145142Y0065467D01*
X0147777Y0068101D01*
X0147777Y0071826D01*
X0145142Y0074461D01*
X0145921Y0073682D02*
X0150073Y0073682D01*
X0149681Y0073290D02*
X0146313Y0073290D01*
X0146705Y0072898D02*
X0149289Y0072898D01*
X0148896Y0072505D02*
X0147097Y0072505D01*
X0147490Y0072113D02*
X0148504Y0072113D01*
X0148383Y0071721D02*
X0147777Y0071721D01*
X0147777Y0071329D02*
X0148383Y0071329D01*
X0148383Y0070937D02*
X0147777Y0070937D01*
X0147777Y0070544D02*
X0148383Y0070544D01*
X0147777Y0070152D02*
X0153083Y0070152D01*
X0153083Y0069760D02*
X0153477Y0069760D01*
X0153477Y0069368D02*
X0153083Y0069368D01*
X0153083Y0068976D02*
X0153477Y0068976D01*
X0153477Y0068583D02*
X0153083Y0068583D01*
X0153083Y0068191D02*
X0153477Y0068191D01*
X0153477Y0067799D02*
X0153083Y0067799D01*
X0153083Y0067407D02*
X0153477Y0067407D01*
X0153477Y0067015D02*
X0153083Y0067015D01*
X0153083Y0066622D02*
X0153477Y0066622D01*
X0153477Y0066230D02*
X0153083Y0066230D01*
X0153083Y0065838D02*
X0153477Y0065838D01*
X0153477Y0065446D02*
X0153083Y0065446D01*
X0150873Y0065446D02*
X0112142Y0065446D01*
X0112534Y0065838D02*
X0141046Y0065838D01*
X0140654Y0066230D02*
X0112926Y0066230D01*
X0113318Y0066622D02*
X0140262Y0066622D01*
X0139869Y0067015D02*
X0131825Y0067015D01*
X0132626Y0067407D02*
X0139477Y0067407D01*
X0139085Y0067799D02*
X0133019Y0067799D01*
X0133300Y0068191D02*
X0138783Y0068191D01*
X0138783Y0068583D02*
X0133462Y0068583D01*
X0133599Y0068976D02*
X0138783Y0068976D01*
X0138783Y0069368D02*
X0133599Y0069368D01*
X0133599Y0069760D02*
X0138783Y0069760D01*
X0138783Y0070152D02*
X0133495Y0070152D01*
X0133333Y0070544D02*
X0138783Y0070544D01*
X0138783Y0070937D02*
X0133098Y0070937D01*
X0132705Y0071329D02*
X0138783Y0071329D01*
X0138783Y0071721D02*
X0132016Y0071721D01*
X0130246Y0072113D02*
X0139070Y0072113D01*
X0139462Y0072505D02*
X0129854Y0072505D01*
X0129462Y0072898D02*
X0139854Y0072898D01*
X0140247Y0073290D02*
X0129070Y0073290D01*
X0128677Y0073682D02*
X0140639Y0073682D01*
X0141031Y0074074D02*
X0128285Y0074074D01*
X0126578Y0072113D02*
X0118809Y0072113D01*
X0118417Y0071721D02*
X0126970Y0071721D01*
X0127363Y0071329D02*
X0118025Y0071329D01*
X0117632Y0070937D02*
X0127755Y0070937D01*
X0128147Y0070544D02*
X0117240Y0070544D01*
X0116848Y0070152D02*
X0128539Y0070152D01*
X0128637Y0069760D02*
X0116456Y0069760D01*
X0116064Y0069368D02*
X0128637Y0069368D01*
X0128637Y0068976D02*
X0115671Y0068976D01*
X0115279Y0068583D02*
X0128774Y0068583D01*
X0128936Y0068191D02*
X0114887Y0068191D01*
X0114495Y0067799D02*
X0129218Y0067799D01*
X0129610Y0067407D02*
X0114103Y0067407D01*
X0113710Y0067015D02*
X0130411Y0067015D01*
X0126186Y0072505D02*
X0119201Y0072505D01*
X0119594Y0072898D02*
X0125794Y0072898D01*
X0125401Y0073290D02*
X0119986Y0073290D01*
X0119933Y0073237D02*
X0119933Y0073237D01*
X0120378Y0073682D02*
X0125009Y0073682D01*
X0124617Y0074074D02*
X0120576Y0074074D01*
X0120576Y0074467D02*
X0124225Y0074467D01*
X0123833Y0074859D02*
X0120576Y0074859D01*
X0120576Y0075251D02*
X0123440Y0075251D01*
X0123048Y0075643D02*
X0120824Y0075643D01*
X0121216Y0076035D02*
X0122656Y0076035D01*
X0122264Y0076428D02*
X0121608Y0076428D01*
X0121626Y0076820D02*
X0121872Y0076820D01*
X0129899Y0084272D02*
X0141228Y0084272D01*
X0140836Y0083880D02*
X0130291Y0083880D01*
X0130683Y0083487D02*
X0140444Y0083487D01*
X0140052Y0083095D02*
X0131075Y0083095D01*
X0131467Y0082703D02*
X0139660Y0082703D01*
X0139267Y0082311D02*
X0131860Y0082311D01*
X0132252Y0081919D02*
X0138875Y0081919D01*
X0138783Y0081526D02*
X0132644Y0081526D01*
X0133036Y0081134D02*
X0138783Y0081134D01*
X0138783Y0080742D02*
X0133428Y0080742D01*
X0132544Y0088978D02*
X0138783Y0088978D01*
X0138783Y0089371D02*
X0132937Y0089371D01*
X0133266Y0089763D02*
X0138783Y0089763D01*
X0139465Y0092508D02*
X0133179Y0092508D01*
X0132787Y0092901D02*
X0139857Y0092901D01*
X0140249Y0093293D02*
X0132213Y0093293D01*
X0145526Y0094077D02*
X0146960Y0094077D01*
X0147352Y0093685D02*
X0145918Y0093685D01*
X0146310Y0093293D02*
X0147745Y0093293D01*
X0148137Y0092901D02*
X0146702Y0092901D01*
X0147095Y0092508D02*
X0148529Y0092508D01*
X0155526Y0094077D02*
X0160195Y0094077D01*
X0160276Y0093685D02*
X0155918Y0093685D01*
X0156310Y0093293D02*
X0160358Y0093293D01*
X0160439Y0092901D02*
X0156702Y0092901D01*
X0157095Y0092508D02*
X0160521Y0092508D01*
X0160602Y0092116D02*
X0157487Y0092116D01*
X0157777Y0091724D02*
X0160677Y0091724D01*
X0160704Y0091332D02*
X0157777Y0091332D01*
X0157777Y0090939D02*
X0160731Y0090939D01*
X0160757Y0090547D02*
X0157777Y0090547D01*
X0157777Y0090155D02*
X0160784Y0090155D01*
X0160811Y0089763D02*
X0157777Y0089763D01*
X0157777Y0089371D02*
X0160838Y0089371D01*
X0160865Y0088978D02*
X0157777Y0088978D01*
X0157777Y0088586D02*
X0160892Y0088586D01*
X0160918Y0088194D02*
X0157777Y0088194D01*
X0157477Y0087802D02*
X0160945Y0087802D01*
X0160972Y0087410D02*
X0157085Y0087410D01*
X0156693Y0087017D02*
X0160999Y0087017D01*
X0161026Y0086625D02*
X0156301Y0086625D01*
X0155909Y0086233D02*
X0161052Y0086233D01*
X0161079Y0085841D02*
X0155516Y0085841D01*
X0153477Y0074859D02*
X0153083Y0074859D01*
X0153083Y0074467D02*
X0153477Y0074467D01*
X0153477Y0074074D02*
X0153083Y0074074D01*
X0153083Y0073682D02*
X0153477Y0073682D01*
X0153477Y0073290D02*
X0153083Y0073290D01*
X0153083Y0072898D02*
X0153477Y0072898D01*
X0153477Y0072505D02*
X0153083Y0072505D01*
X0153083Y0072113D02*
X0153477Y0072113D01*
X0153477Y0071721D02*
X0153083Y0071721D01*
X0153083Y0071329D02*
X0153477Y0071329D01*
X0153477Y0070937D02*
X0153083Y0070937D01*
X0153083Y0070544D02*
X0153477Y0070544D01*
X0156486Y0073682D02*
X0160880Y0073682D01*
X0160853Y0073290D02*
X0156879Y0073290D01*
X0157271Y0072898D02*
X0160826Y0072898D01*
X0160800Y0072505D02*
X0157663Y0072505D01*
X0158055Y0072113D02*
X0160773Y0072113D01*
X0160746Y0071721D02*
X0158177Y0071721D01*
X0158177Y0071329D02*
X0160719Y0071329D01*
X0160692Y0070937D02*
X0158177Y0070937D01*
X0158177Y0070544D02*
X0160649Y0070544D01*
X0160673Y0070662D02*
X0160673Y0070662D01*
X0160907Y0074074D02*
X0156094Y0074074D01*
X0155702Y0074467D02*
X0160934Y0074467D01*
X0150480Y0065838D02*
X0145514Y0065838D01*
X0145906Y0066230D02*
X0150088Y0066230D01*
X0149696Y0066622D02*
X0146298Y0066622D01*
X0146690Y0067015D02*
X0149304Y0067015D01*
X0148912Y0067407D02*
X0147082Y0067407D01*
X0147475Y0067799D02*
X0148519Y0067799D01*
X0148383Y0068191D02*
X0147777Y0068191D01*
X0147777Y0068583D02*
X0148383Y0068583D01*
X0148383Y0068976D02*
X0147777Y0068976D01*
X0147777Y0069368D02*
X0148383Y0069368D01*
X0148383Y0069760D02*
X0147777Y0069760D01*
X0100294Y0098391D02*
X0091108Y0098391D01*
X0091880Y0098784D02*
X0100294Y0098784D01*
X0100294Y0099176D02*
X0092272Y0099176D01*
X0092541Y0099568D02*
X0100294Y0099568D01*
X0100294Y0099960D02*
X0092703Y0099960D01*
X0092831Y0100353D02*
X0100294Y0100353D01*
X0100294Y0100745D02*
X0092831Y0100745D01*
X0092831Y0101137D02*
X0100294Y0101137D01*
X0100294Y0101529D02*
X0092718Y0101529D01*
X0092556Y0101921D02*
X0100294Y0101921D01*
X0100294Y0102314D02*
X0092308Y0102314D01*
X0091916Y0102706D02*
X0100294Y0102706D01*
X0100294Y0103098D02*
X0091196Y0103098D01*
X0110627Y0125454D02*
X0110732Y0125454D01*
X0113889Y0122709D02*
X0118329Y0122709D01*
X0117937Y0123101D02*
X0114282Y0123101D01*
X0119597Y0143496D02*
X0120475Y0143496D01*
X0120868Y0143888D02*
X0119762Y0143888D01*
X0119890Y0144280D02*
X0121438Y0144280D01*
X0122384Y0144673D02*
X0119978Y0144673D01*
X0119274Y0150163D02*
X0116911Y0150163D01*
D15*
X0107496Y0120588D03*
X0090350Y0100763D03*
X0083874Y0104840D03*
X0072063Y0108777D03*
X0060252Y0094998D03*
X0071642Y0083082D03*
X0093717Y0083187D03*
X0093717Y0077281D03*
X0101591Y0065470D03*
X0107068Y0065774D03*
X0115370Y0089092D03*
X0131118Y0091061D03*
X0131118Y0069407D03*
X0082576Y0132296D03*
X0044504Y0116651D03*
X0044504Y0083187D03*
D16*
X0112879Y0124734D02*
X0118279Y0124734D01*
X0153079Y0089934D01*
X0153280Y0089964D01*
D17*
X0119479Y0077334D03*
X0112879Y0124734D03*
X0032779Y0063234D03*
D18*
X0060252Y0077281D02*
X0060252Y0094998D01*
X0060252Y0100763D01*
X0090350Y0100763D01*
X0083874Y0104840D02*
X0101591Y0104840D01*
X0101591Y0065470D01*
X0093717Y0077281D02*
X0060252Y0077281D01*
X0071642Y0083082D02*
X0093717Y0083082D01*
X0093717Y0083187D01*
X0093717Y0083291D01*
X0115370Y0085155D02*
X0115370Y0089092D01*
X0115370Y0085155D02*
X0131118Y0069407D01*
X0133087Y0079250D02*
X0107496Y0104840D01*
X0107496Y0108777D01*
X0107496Y0120588D01*
X0109833Y0126494D02*
X0054346Y0126494D01*
X0044504Y0116651D01*
X0072063Y0108777D02*
X0107496Y0108777D01*
X0109833Y0126494D02*
X0123681Y0140342D01*
X0131118Y0091061D02*
X0142183Y0091061D01*
X0143280Y0089964D01*
X0143280Y0079964D02*
X0142566Y0079250D01*
X0133087Y0079250D01*
D19*
X0105379Y0060234D02*
X0035779Y0060234D01*
X0032779Y0063234D01*
X0105379Y0060234D02*
X0119479Y0074334D01*
X0119479Y0077334D01*
M02*
