%
M48
M72
T01C0.0130
T02C0.0197
T03C0.0335
T04C0.0354
T05C0.0400
T06C0.0551
T07C0.1260
%
T01
X3278Y6323
X11288Y12473
X11948Y7733
T02
X11537Y8909
X13112Y9106
X13112Y6941
X10707Y6577
X10159Y6547
X9372Y7728
X9372Y8319
X9035Y10076
X8387Y10484
X7206Y10878
X6025Y9500
X7164Y8308
X4450Y8319
X4450Y11665
X8258Y13230
X10750Y12059
T03
X2259Y9045
X2259Y7076
T04
X3055Y12632
X3890Y13467
T05
X11516Y14558
X12368Y14034
X14328Y8996
X14328Y7996
X14328Y6996
X15328Y6996
X15328Y7996
X15328Y8996
T06
X1196Y9440
X1200Y6683
T07
X13349Y3470
M30
