G75*
%MOIN*%
%OFA0B0*%
%FSLAX25Y25*%
%IPPOS*%
%LPD*%
%AMOC8*
5,1,8,0,0,1.08239X$1,22.5*
%
%ADD10R,0.05000X0.02200*%
%ADD11R,0.02200X0.05000*%
%ADD12R,0.03150X0.03543*%
%ADD13R,0.06500X0.03937*%
%ADD14R,0.03150X0.04724*%
%ADD15R,0.04724X0.03150*%
%ADD16R,0.02165X0.04724*%
%ADD17R,0.05315X0.01575*%
%ADD18R,0.07480X0.05906*%
%ADD19R,0.04000X0.10000*%
%ADD20R,0.01969X0.01969*%
%ADD21R,0.00800X0.01900*%
%ADD22R,0.01900X0.00800*%
%ADD23R,0.03937X0.03150*%
%ADD24R,0.02756X0.05906*%
%ADD25R,0.07480X0.04331*%
%ADD26C,0.01181*%
D10*
X0065608Y0121448D03*
X0065608Y0124597D03*
X0065608Y0127747D03*
X0065608Y0130897D03*
X0065608Y0134046D03*
X0065608Y0137196D03*
X0065608Y0140345D03*
X0065608Y0143495D03*
X0099408Y0143495D03*
X0099408Y0140345D03*
X0099408Y0137196D03*
X0099408Y0134046D03*
X0099408Y0130897D03*
X0099408Y0127747D03*
X0099408Y0124597D03*
X0099408Y0121448D03*
D11*
X0093532Y0115571D03*
X0090382Y0115571D03*
X0087233Y0115571D03*
X0084083Y0115571D03*
X0080933Y0115571D03*
X0077784Y0115571D03*
X0074634Y0115571D03*
X0071485Y0115571D03*
X0071485Y0149371D03*
X0074634Y0149371D03*
X0077784Y0149371D03*
X0080933Y0149371D03*
X0084083Y0149371D03*
X0087233Y0149371D03*
X0090382Y0149371D03*
X0093532Y0149371D03*
D12*
X0048244Y0104840D03*
X0040764Y0104840D03*
X0044504Y0096573D03*
D13*
X0081685Y0089651D03*
X0081685Y0077053D03*
X0101976Y0077053D03*
X0101976Y0089651D03*
D14*
X0120534Y0104199D03*
X0127621Y0104199D03*
X0144359Y0102054D03*
X0151446Y0102054D03*
X0107102Y0049722D03*
X0100016Y0049722D03*
X0100016Y0037911D03*
X0107102Y0037911D03*
X0107102Y0026100D03*
X0111827Y0026100D03*
X0118913Y0026100D03*
X0100016Y0026100D03*
X0095291Y0026100D03*
X0088205Y0026100D03*
X0083480Y0026100D03*
X0076394Y0026100D03*
X0071669Y0026100D03*
X0064583Y0026100D03*
X0064579Y0034026D03*
X0057493Y0034026D03*
X0057484Y0041770D03*
X0064570Y0041770D03*
X0064583Y0077281D03*
X0071669Y0077281D03*
X0071669Y0089092D03*
X0064583Y0089092D03*
X0055921Y0089092D03*
X0048835Y0089092D03*
X0040173Y0089092D03*
X0033087Y0089092D03*
X0033087Y0077281D03*
X0040173Y0077281D03*
X0048835Y0077281D03*
X0055921Y0077281D03*
X0064583Y0100903D03*
X0071669Y0100903D03*
D15*
X0036836Y0034275D03*
X0036836Y0041361D03*
X0036733Y0047146D03*
X0036733Y0054233D03*
X0027998Y0047852D03*
X0027998Y0040765D03*
D16*
X0127378Y0115470D03*
X0131118Y0115470D03*
X0134858Y0115470D03*
X0134858Y0125707D03*
X0127378Y0125707D03*
D17*
X0022591Y0085722D03*
X0022591Y0083162D03*
X0022591Y0080603D03*
X0022591Y0078044D03*
X0022591Y0075485D03*
D18*
X0011961Y0076666D03*
X0011961Y0084540D03*
D19*
X0085839Y0015713D03*
X0111839Y0015713D03*
D20*
X0085316Y0043964D03*
D21*
X0085316Y0036664D03*
X0083366Y0036664D03*
X0081366Y0036664D03*
X0087266Y0036664D03*
X0089266Y0036664D03*
X0089266Y0051264D03*
X0087266Y0051264D03*
X0085316Y0051264D03*
X0083366Y0051264D03*
X0081366Y0051264D03*
D22*
X0078016Y0047914D03*
X0078016Y0045914D03*
X0078016Y0043964D03*
X0078016Y0042014D03*
X0078016Y0040014D03*
X0092616Y0040014D03*
X0092616Y0042014D03*
X0092616Y0043964D03*
X0092616Y0045914D03*
X0092616Y0047914D03*
D23*
G36*
X0023726Y0115603D02*
X0026508Y0118385D01*
X0028736Y0116157D01*
X0025954Y0113375D01*
X0023726Y0115603D01*
G37*
G36*
X0017602Y0121728D02*
X0020384Y0124510D01*
X0022612Y0122282D01*
X0019830Y0119500D01*
X0017602Y0121728D01*
G37*
G36*
X0040708Y0144834D02*
X0043490Y0147616D01*
X0045718Y0145388D01*
X0042936Y0142606D01*
X0040708Y0144834D01*
G37*
G36*
X0046833Y0138709D02*
X0049615Y0141491D01*
X0051843Y0139263D01*
X0049061Y0136481D01*
X0046833Y0138709D01*
G37*
D24*
G36*
X0044188Y0131608D02*
X0046137Y0133557D01*
X0050312Y0129382D01*
X0048363Y0127433D01*
X0044188Y0131608D01*
G37*
G36*
X0035836Y0123257D02*
X0037785Y0125206D01*
X0041960Y0121031D01*
X0040011Y0119082D01*
X0035836Y0123257D01*
G37*
G36*
X0031660Y0119081D02*
X0033609Y0121030D01*
X0037784Y0116855D01*
X0035835Y0114906D01*
X0031660Y0119081D01*
G37*
D25*
X0051735Y0058247D03*
X0051735Y0049192D03*
X0066302Y0049192D03*
X0066302Y0058247D03*
D26*
X0121793Y0094785D02*
X0121793Y0097541D01*
X0121793Y0094785D02*
X0119037Y0094785D01*
X0119037Y0097541D01*
X0121793Y0097541D01*
X0121793Y0095965D02*
X0119037Y0095965D01*
X0119037Y0097145D02*
X0121793Y0097145D01*
X0128699Y0097541D02*
X0128699Y0094785D01*
X0125943Y0094785D01*
X0125943Y0097541D01*
X0128699Y0097541D01*
X0128699Y0095965D02*
X0125943Y0095965D01*
X0125943Y0097145D02*
X0128699Y0097145D01*
M02*
