%
M48
M72
T01C0.0130
T02C0.0335
T03C0.0354
T04C0.0400
T05C0.0551
T06C0.1260
%
T01
X7552Y5969
X5197Y8904
X4227Y10509
X3116Y10896
X5584Y10782
X6134Y12765
X8241Y11738
X9098Y11873
X10658Y10583
X10928Y9683
X10621Y8844
X12206Y8184
X13305Y10115
X11532Y11085
X10898Y12893
X8503Y10065
X14174Y5428
T02
X2319Y8546
X2319Y10514
T03
X3194Y14059
X4029Y14894
T04
X5975Y16298
X6931Y16592
X14373Y10498
X15373Y10498
X15373Y9498
X15373Y8498
X14373Y8498
X14373Y9498
T05
X1261Y8152
X1256Y10910
T06
X8646Y16514
M30
