G75*
%MOIN*%
%OFA0B0*%
%FSLAX25Y25*%
%IPPOS*%
%LPD*%
%AMOC8*
5,1,8,0,0,1.08239X$1,22.5*
%
%ADD10C,0.00600*%
%ADD11R,0.05000X0.02200*%
%ADD12R,0.02200X0.05000*%
%ADD13R,0.03150X0.03543*%
%ADD14R,0.06500X0.03937*%
%ADD15R,0.03150X0.04724*%
%ADD16R,0.04724X0.03150*%
%ADD17C,0.07400*%
%ADD18R,0.02165X0.04724*%
%ADD19C,0.05709*%
%ADD20R,0.05315X0.01575*%
%ADD21R,0.07480X0.05906*%
%ADD22C,0.08268*%
%ADD23R,0.10000X0.04000*%
%ADD24R,0.03937X0.03937*%
%ADD25R,0.02559X0.01181*%
%ADD26R,0.01181X0.02559*%
%ADD27OC8,0.07400*%
%ADD28R,0.03937X0.03150*%
%ADD29R,0.02756X0.05906*%
%ADD30R,0.07480X0.04331*%
%ADD31C,0.01181*%
%ADD32C,0.00394*%
%ADD33C,0.01000*%
%ADD34C,0.01200*%
%ADD35C,0.02700*%
%ADD36C,0.01600*%
D10*
X0024132Y0008633D02*
X0024132Y0010902D01*
X0025266Y0012036D01*
X0026401Y0010902D01*
X0026401Y0008633D01*
X0027815Y0008633D02*
X0027815Y0012036D01*
X0030084Y0008633D01*
X0030084Y0012036D01*
X0031498Y0012036D02*
X0033767Y0012036D01*
X0032633Y0012036D02*
X0032633Y0008633D01*
X0035182Y0008633D02*
X0037450Y0008633D01*
X0038865Y0008633D02*
X0038865Y0012036D01*
X0041133Y0008633D01*
X0041133Y0012036D01*
X0042548Y0012036D02*
X0044816Y0008633D01*
X0044816Y0012036D01*
X0046231Y0010902D02*
X0047365Y0012036D01*
X0048500Y0010902D01*
X0048500Y0008633D01*
X0048500Y0010335D02*
X0046231Y0010335D01*
X0046231Y0010902D02*
X0046231Y0008633D01*
X0046658Y0006036D02*
X0044389Y0006036D01*
X0045524Y0006036D02*
X0045524Y0002633D01*
X0042975Y0003200D02*
X0042975Y0005469D01*
X0042408Y0006036D01*
X0041273Y0006036D01*
X0040706Y0005469D01*
X0040706Y0003200D01*
X0041273Y0002633D01*
X0042408Y0002633D01*
X0042975Y0003200D01*
X0039292Y0002633D02*
X0039292Y0006036D01*
X0037023Y0006036D02*
X0037023Y0002633D01*
X0039292Y0002633D02*
X0037023Y0006036D01*
X0035182Y0008633D02*
X0035182Y0012036D01*
X0037450Y0012036D01*
X0036316Y0010335D02*
X0035182Y0010335D01*
X0031358Y0006036D02*
X0031925Y0005469D01*
X0031925Y0003200D01*
X0031358Y0002633D01*
X0030224Y0002633D01*
X0029657Y0003200D01*
X0029657Y0005469D01*
X0030224Y0006036D01*
X0031358Y0006036D01*
X0028242Y0005469D02*
X0028242Y0003200D01*
X0027675Y0002633D01*
X0025974Y0002633D01*
X0025974Y0006036D01*
X0027675Y0006036D01*
X0028242Y0005469D01*
X0026401Y0010335D02*
X0024132Y0010335D01*
X0042548Y0008633D02*
X0042548Y0012036D01*
X0051756Y0006036D02*
X0051756Y0002633D01*
X0051756Y0003768D02*
X0053457Y0003768D01*
X0054024Y0004335D01*
X0054024Y0005469D01*
X0053457Y0006036D01*
X0051756Y0006036D01*
X0053597Y0008633D02*
X0053597Y0012036D01*
X0054164Y0010335D02*
X0055866Y0008633D01*
X0057280Y0008633D02*
X0059549Y0008633D01*
X0060964Y0008633D02*
X0063232Y0008633D01*
X0064647Y0008633D02*
X0064647Y0012036D01*
X0066348Y0012036D01*
X0066915Y0011469D01*
X0066915Y0010335D01*
X0066348Y0009768D01*
X0064647Y0009768D01*
X0063232Y0012036D02*
X0060964Y0012036D01*
X0060964Y0008633D01*
X0060964Y0010335D02*
X0062098Y0010335D01*
X0059549Y0012036D02*
X0057280Y0012036D01*
X0057280Y0008633D01*
X0057280Y0010335D02*
X0058415Y0010335D01*
X0055866Y0012036D02*
X0053597Y0009768D01*
X0055439Y0006036D02*
X0055439Y0002633D01*
X0057707Y0002633D01*
X0059122Y0002633D02*
X0059122Y0004902D01*
X0060256Y0006036D01*
X0061391Y0004902D01*
X0061391Y0002633D01*
X0062805Y0003200D02*
X0063372Y0002633D01*
X0064507Y0002633D01*
X0065074Y0003200D01*
X0066488Y0002633D02*
X0068757Y0002633D01*
X0067623Y0004335D02*
X0066488Y0004335D01*
X0066488Y0006036D02*
X0066488Y0002633D01*
X0065074Y0005469D02*
X0064507Y0006036D01*
X0063372Y0006036D01*
X0062805Y0005469D01*
X0062805Y0003200D01*
X0061391Y0004335D02*
X0059122Y0004335D01*
X0066488Y0006036D02*
X0068757Y0006036D01*
X0068897Y0008633D02*
X0070031Y0008633D01*
X0070598Y0009200D01*
X0070598Y0011469D01*
X0070031Y0012036D01*
X0068897Y0012036D01*
X0068330Y0011469D01*
X0068330Y0009200D01*
X0068897Y0008633D01*
X0072013Y0009200D02*
X0072013Y0012036D01*
X0074282Y0012036D02*
X0074282Y0009200D01*
X0073714Y0008633D01*
X0072580Y0008633D01*
X0072013Y0009200D01*
X0074422Y0006036D02*
X0073855Y0005469D01*
X0073855Y0003200D01*
X0074422Y0002633D01*
X0075556Y0002633D01*
X0076123Y0003200D01*
X0077538Y0003200D02*
X0078105Y0002633D01*
X0079239Y0002633D01*
X0079806Y0003200D01*
X0079806Y0005469D01*
X0079239Y0006036D01*
X0078105Y0006036D01*
X0077538Y0005469D01*
X0077538Y0003200D01*
X0076123Y0005469D02*
X0075556Y0006036D01*
X0074422Y0006036D01*
X0076830Y0008633D02*
X0076830Y0012036D01*
X0075696Y0012036D02*
X0077965Y0012036D01*
X0083062Y0010902D02*
X0083062Y0008633D01*
X0083062Y0010335D02*
X0085331Y0010335D01*
X0085331Y0010902D02*
X0084197Y0012036D01*
X0083062Y0010902D01*
X0085331Y0010902D02*
X0085331Y0008633D01*
X0084904Y0006036D02*
X0086605Y0006036D01*
X0087173Y0005469D01*
X0087173Y0004335D01*
X0086605Y0003768D01*
X0084904Y0003768D01*
X0084904Y0002633D02*
X0084904Y0006036D01*
X0083490Y0005469D02*
X0083490Y0004335D01*
X0082922Y0003768D01*
X0081221Y0003768D01*
X0081221Y0002633D02*
X0081221Y0006036D01*
X0082922Y0006036D01*
X0083490Y0005469D01*
X0088587Y0006036D02*
X0088587Y0002633D01*
X0090856Y0002633D01*
X0092270Y0002633D02*
X0092270Y0006036D01*
X0093972Y0006036D01*
X0094539Y0005469D01*
X0094539Y0004335D01*
X0093972Y0003768D01*
X0092270Y0003768D01*
X0093405Y0003768D02*
X0094539Y0002633D01*
X0090856Y0006036D02*
X0088587Y0006036D01*
X0088587Y0004335D02*
X0089721Y0004335D01*
X0087880Y0008633D02*
X0087880Y0012036D01*
X0086746Y0012036D02*
X0089014Y0012036D01*
X0094112Y0012036D02*
X0094112Y0008633D01*
X0095813Y0008633D01*
X0096381Y0009200D01*
X0096381Y0009768D01*
X0095813Y0010335D01*
X0094112Y0010335D01*
X0094112Y0012036D02*
X0095813Y0012036D01*
X0096381Y0011469D01*
X0096381Y0010902D01*
X0095813Y0010335D01*
X0097795Y0011469D02*
X0097795Y0009200D01*
X0098362Y0008633D01*
X0099497Y0008633D01*
X0100064Y0009200D01*
X0100064Y0011469D01*
X0099497Y0012036D01*
X0098362Y0012036D01*
X0097795Y0011469D01*
X0101478Y0012036D02*
X0103747Y0012036D01*
X0102612Y0012036D02*
X0102612Y0008633D01*
X0101905Y0006036D02*
X0099637Y0006036D01*
X0100771Y0006036D02*
X0100771Y0002633D01*
X0103320Y0003200D02*
X0103320Y0005469D01*
X0103887Y0006036D01*
X0105021Y0006036D01*
X0105588Y0005469D01*
X0105588Y0003200D01*
X0105021Y0002633D01*
X0103887Y0002633D01*
X0103320Y0003200D01*
X0107003Y0002633D02*
X0107003Y0006036D01*
X0108704Y0006036D01*
X0109272Y0005469D01*
X0109272Y0004335D01*
X0108704Y0003768D01*
X0107003Y0003768D01*
X0106296Y0008633D02*
X0106296Y0012036D01*
X0107430Y0012036D02*
X0105161Y0012036D01*
X0108844Y0011469D02*
X0108844Y0009200D01*
X0109412Y0008633D01*
X0110546Y0008633D01*
X0111113Y0009200D01*
X0111113Y0011469D01*
X0110546Y0012036D01*
X0109412Y0012036D01*
X0108844Y0011469D01*
X0112528Y0012036D02*
X0112528Y0008633D01*
X0114796Y0008633D02*
X0114796Y0012036D01*
X0113662Y0010902D01*
X0112528Y0012036D01*
X0114936Y0006036D02*
X0114369Y0005469D01*
X0114369Y0003200D01*
X0114936Y0002633D01*
X0116071Y0002633D01*
X0116638Y0003200D01*
X0116638Y0005469D01*
X0116071Y0006036D01*
X0114936Y0006036D01*
X0118052Y0006036D02*
X0119754Y0006036D01*
X0120321Y0005469D01*
X0120321Y0004335D01*
X0119754Y0003768D01*
X0118052Y0003768D01*
X0119187Y0003768D02*
X0120321Y0002633D01*
X0118052Y0002633D02*
X0118052Y0006036D01*
X0120461Y0008633D02*
X0119894Y0009200D01*
X0119894Y0011469D01*
X0120461Y0012036D01*
X0121595Y0012036D01*
X0122163Y0011469D01*
X0122163Y0009200D01*
X0121595Y0008633D01*
X0120461Y0008633D01*
X0123577Y0008633D02*
X0123577Y0012036D01*
X0125846Y0012036D01*
X0124711Y0010335D02*
X0123577Y0010335D01*
X0125419Y0006036D02*
X0127120Y0006036D01*
X0127687Y0005469D01*
X0127687Y0004902D01*
X0127120Y0004335D01*
X0125419Y0004335D01*
X0127120Y0004335D02*
X0127687Y0003768D01*
X0127687Y0003200D01*
X0127120Y0002633D01*
X0125419Y0002633D01*
X0125419Y0006036D01*
X0129102Y0005469D02*
X0129102Y0003200D01*
X0129669Y0002633D01*
X0130803Y0002633D01*
X0131370Y0003200D01*
X0131370Y0005469D01*
X0130803Y0006036D01*
X0129669Y0006036D01*
X0129102Y0005469D01*
X0130943Y0008633D02*
X0132645Y0008633D01*
X0133212Y0009200D01*
X0133212Y0009768D01*
X0132645Y0010335D01*
X0130943Y0010335D01*
X0130943Y0012036D02*
X0130943Y0008633D01*
X0132645Y0010335D02*
X0133212Y0010902D01*
X0133212Y0011469D01*
X0132645Y0012036D01*
X0130943Y0012036D01*
X0134627Y0011469D02*
X0134627Y0009200D01*
X0135194Y0008633D01*
X0136328Y0008633D01*
X0136895Y0009200D01*
X0136895Y0011469D01*
X0136328Y0012036D01*
X0135194Y0012036D01*
X0134627Y0011469D01*
X0138310Y0010902D02*
X0138310Y0008633D01*
X0138310Y0010335D02*
X0140578Y0010335D01*
X0140578Y0010902D02*
X0139444Y0012036D01*
X0138310Y0010902D01*
X0140578Y0010902D02*
X0140578Y0008633D01*
X0141993Y0008633D02*
X0141993Y0012036D01*
X0143694Y0012036D01*
X0144261Y0011469D01*
X0144261Y0010335D01*
X0143694Y0009768D01*
X0141993Y0009768D01*
X0143127Y0009768D02*
X0144261Y0008633D01*
X0145676Y0008633D02*
X0147377Y0008633D01*
X0147945Y0009200D01*
X0147945Y0011469D01*
X0147377Y0012036D01*
X0145676Y0012036D01*
X0145676Y0008633D01*
X0146103Y0006036D02*
X0146103Y0002633D01*
X0143834Y0002633D02*
X0143834Y0006036D01*
X0144969Y0004902D01*
X0146103Y0006036D01*
X0142420Y0005469D02*
X0142420Y0003200D01*
X0141853Y0002633D01*
X0140718Y0002633D01*
X0140151Y0003200D01*
X0140151Y0005469D01*
X0140718Y0006036D01*
X0141853Y0006036D01*
X0142420Y0005469D01*
X0138737Y0006036D02*
X0136468Y0006036D01*
X0137602Y0006036D02*
X0137602Y0002633D01*
X0133919Y0002633D02*
X0133919Y0006036D01*
X0132785Y0006036D02*
X0135054Y0006036D01*
X0151582Y0080332D02*
X0155782Y0080332D01*
X0158482Y0083032D01*
X0158482Y0090232D01*
X0153982Y0094732D01*
X0153725Y0094976D01*
X0153682Y0095032D01*
X0148882Y0099832D01*
X0148882Y0106432D01*
X0132982Y0122332D01*
X0132982Y0124432D01*
X0132805Y0124713D01*
X0126928Y0118836D02*
X0126682Y0118732D01*
X0125782Y0117832D01*
X0125782Y0104632D01*
X0125494Y0104472D01*
X0126082Y0104632D01*
X0137482Y0104632D01*
X0142282Y0099832D01*
X0145582Y0099832D01*
X0148882Y0096532D01*
X0148882Y0093232D01*
X0153682Y0088432D01*
X0153725Y0084976D01*
X0153682Y0085132D01*
X0153682Y0088432D01*
X0148882Y0086332D02*
X0148882Y0083032D01*
X0151582Y0080332D01*
X0148882Y0086332D02*
X0145582Y0089632D01*
X0142282Y0089632D01*
X0140782Y0091132D01*
X0125482Y0091132D01*
X0125410Y0091268D01*
X0120982Y0085432D02*
X0088882Y0085432D01*
X0088419Y0085405D01*
X0088582Y0085432D01*
X0086482Y0085432D02*
X0086450Y0085405D01*
X0086182Y0085132D01*
X0086182Y0083932D01*
X0085282Y0083032D01*
X0079582Y0083032D01*
X0070282Y0092332D01*
X0070282Y0098932D01*
X0077482Y0106132D01*
X0078382Y0106132D01*
X0090982Y0118732D01*
X0081382Y0103432D02*
X0074782Y0096832D01*
X0074579Y0096673D01*
X0081382Y0103432D02*
X0107482Y0103432D01*
X0111082Y0107032D01*
X0111082Y0118732D01*
X0111180Y0118836D01*
X0117480Y0118836D02*
X0117682Y0118732D01*
X0117682Y0116632D01*
X0120982Y0113332D01*
X0120982Y0085432D01*
X0118282Y0091132D02*
X0118323Y0091268D01*
X0118282Y0091132D02*
X0088882Y0091132D01*
X0084682Y0086932D01*
X0084682Y0085732D01*
X0084482Y0085405D01*
X0084682Y0085432D01*
X0082582Y0085432D02*
X0082513Y0085405D01*
X0082582Y0085432D02*
X0082582Y0086932D01*
X0089182Y0093532D01*
X0114082Y0093532D01*
X0118282Y0097732D01*
X0118439Y0097867D01*
X0116182Y0102232D02*
X0118282Y0104332D01*
X0118407Y0104472D01*
X0116182Y0102232D02*
X0093682Y0102232D01*
X0080782Y0089332D01*
X0080782Y0085732D01*
X0080545Y0085405D01*
X0080782Y0085432D01*
X0063382Y0105832D02*
X0059482Y0101932D01*
X0059281Y0101853D01*
X0063382Y0105832D02*
X0063382Y0113632D01*
X0063477Y0113645D01*
X0063477Y0120550D02*
X0063382Y0120832D01*
X0058882Y0120832D01*
X0055882Y0123832D01*
X0055616Y0123867D01*
X0055582Y0123832D01*
X0053482Y0123832D01*
X0033982Y0104332D01*
X0033982Y0098932D01*
X0034214Y0098542D01*
X0033982Y0098632D01*
X0027382Y0098632D01*
X0025882Y0100132D01*
X0023482Y0100132D01*
X0023194Y0100419D01*
X0048382Y0105532D02*
X0051982Y0101932D01*
X0052194Y0101853D01*
X0048382Y0105532D02*
X0048382Y0113332D01*
X0048136Y0113630D01*
X0048136Y0123867D02*
X0048082Y0124132D01*
X0048082Y0131932D01*
X0048329Y0132188D01*
X0108982Y0128932D02*
X0112282Y0128932D01*
X0120382Y0120832D01*
X0120382Y0119032D01*
X0120629Y0118836D01*
X0123682Y0118732D02*
X0123779Y0118836D01*
X0123682Y0118732D02*
X0123682Y0107932D01*
X0122782Y0107032D01*
X0122782Y0100732D01*
X0125482Y0098032D01*
X0125525Y0097867D01*
X0125782Y0097732D01*
X0140782Y0097732D01*
X0143482Y0095032D01*
X0143725Y0094976D01*
X0153725Y0104976D02*
X0153682Y0105232D01*
X0153682Y0131032D01*
X0135682Y0149032D01*
X0116182Y0149032D01*
X0114382Y0150832D01*
X0114382Y0152632D01*
X0114330Y0152636D01*
D11*
X0099005Y0146760D03*
X0099005Y0143610D03*
X0099005Y0140461D03*
X0099005Y0137311D03*
X0099005Y0134161D03*
X0099005Y0131012D03*
X0099005Y0127862D03*
X0099005Y0124713D03*
X0132805Y0124713D03*
X0132805Y0127862D03*
X0132805Y0131012D03*
X0132805Y0134161D03*
X0132805Y0137311D03*
X0132805Y0140461D03*
X0132805Y0143610D03*
X0132805Y0146760D03*
D12*
X0126928Y0152636D03*
X0123779Y0152636D03*
X0120629Y0152636D03*
X0117480Y0152636D03*
X0114330Y0152636D03*
X0111180Y0152636D03*
X0108031Y0152636D03*
X0104881Y0152636D03*
X0104881Y0118836D03*
X0108031Y0118836D03*
X0111180Y0118836D03*
X0114330Y0118836D03*
X0117480Y0118836D03*
X0120629Y0118836D03*
X0123779Y0118836D03*
X0126928Y0118836D03*
D13*
X0038652Y0122585D03*
X0031171Y0122585D03*
X0034912Y0114317D03*
D14*
X0074579Y0109271D03*
X0074579Y0096673D03*
X0094870Y0096673D03*
X0094870Y0109271D03*
D15*
X0118407Y0104472D03*
X0118439Y0097867D03*
X0118323Y0091268D03*
X0125410Y0091268D03*
X0125525Y0097867D03*
X0125494Y0104472D03*
X0109674Y0080168D03*
X0102587Y0080168D03*
X0102587Y0068357D03*
X0109674Y0068357D03*
X0094185Y0058881D03*
X0094193Y0052939D03*
X0087107Y0052939D03*
X0082576Y0052914D03*
X0087099Y0058881D03*
X0087066Y0064742D03*
X0079979Y0064742D03*
X0075515Y0066194D03*
X0068429Y0066194D03*
X0068443Y0060175D03*
X0068443Y0054133D03*
X0061357Y0054133D03*
X0061357Y0060175D03*
X0075490Y0052914D03*
X0059281Y0101853D03*
X0052194Y0101853D03*
X0055416Y0132188D03*
X0048329Y0132188D03*
G36*
X0063113Y0154334D02*
X0066072Y0155412D01*
X0067687Y0150974D01*
X0064728Y0149896D01*
X0063113Y0154334D01*
G37*
G36*
X0069772Y0156757D02*
X0072731Y0157835D01*
X0074346Y0153397D01*
X0071387Y0152319D01*
X0069772Y0156757D01*
G37*
D16*
X0044469Y0098552D03*
X0044469Y0091465D03*
X0034214Y0091456D03*
X0034214Y0098542D03*
X0033296Y0077806D03*
X0033296Y0070719D03*
X0033296Y0064026D03*
X0033296Y0056940D03*
X0024275Y0063801D03*
X0024275Y0070888D03*
D17*
X0059754Y0162983D03*
X0069312Y0165923D03*
D18*
X0055616Y0123867D03*
X0048136Y0123867D03*
X0048136Y0113630D03*
X0051876Y0113630D03*
X0055616Y0113630D03*
D19*
X0023194Y0105144D03*
X0023194Y0085459D03*
D20*
X0023194Y0090183D03*
X0023194Y0092742D03*
X0023194Y0095301D03*
X0023194Y0097860D03*
X0023194Y0100419D03*
D21*
X0012564Y0099238D03*
X0012564Y0091364D03*
D22*
X0012605Y0081524D03*
X0012559Y0109096D03*
D23*
X0087062Y0046701D03*
X0087062Y0020701D03*
D24*
X0084482Y0077925D03*
D25*
X0091962Y0077925D03*
X0091962Y0079893D03*
X0091962Y0081862D03*
X0091962Y0075956D03*
X0091962Y0073988D03*
X0077002Y0073988D03*
X0077002Y0075956D03*
X0077002Y0077925D03*
X0077002Y0079893D03*
X0077002Y0081862D03*
D26*
X0080545Y0085405D03*
X0082513Y0085405D03*
X0084482Y0085405D03*
X0086450Y0085405D03*
X0088419Y0085405D03*
X0088419Y0070444D03*
X0086450Y0070444D03*
X0084482Y0070444D03*
X0082513Y0070444D03*
X0080545Y0070444D03*
D27*
X0143725Y0084976D03*
X0143725Y0094976D03*
X0153725Y0094976D03*
X0153725Y0084976D03*
X0153725Y0104976D03*
X0143725Y0104976D03*
D28*
G36*
X0048226Y0152976D02*
X0051008Y0155758D01*
X0053236Y0153530D01*
X0050454Y0150748D01*
X0048226Y0152976D01*
G37*
G36*
X0042102Y0159100D02*
X0044884Y0161882D01*
X0047112Y0159654D01*
X0044330Y0156872D01*
X0042102Y0159100D01*
G37*
G36*
X0018996Y0135994D02*
X0021778Y0138776D01*
X0024006Y0136548D01*
X0021224Y0133766D01*
X0018996Y0135994D01*
G37*
G36*
X0025120Y0129869D02*
X0027902Y0132651D01*
X0030130Y0130423D01*
X0027348Y0127641D01*
X0025120Y0129869D01*
G37*
D29*
G36*
X0033054Y0133347D02*
X0035003Y0135296D01*
X0039178Y0131121D01*
X0037229Y0129172D01*
X0033054Y0133347D01*
G37*
G36*
X0037230Y0137523D02*
X0039179Y0139472D01*
X0043354Y0135297D01*
X0041405Y0133348D01*
X0037230Y0137523D01*
G37*
G36*
X0045581Y0145875D02*
X0047530Y0147824D01*
X0051705Y0143649D01*
X0049756Y0141700D01*
X0045581Y0145875D01*
G37*
D30*
X0045713Y0081624D03*
X0045713Y0072569D03*
X0060279Y0072569D03*
X0060279Y0081624D03*
D31*
X0062099Y0115023D02*
X0064855Y0115023D01*
X0064855Y0112267D01*
X0062099Y0112267D01*
X0062099Y0115023D01*
X0062099Y0113447D02*
X0064855Y0113447D01*
X0064855Y0114627D02*
X0062099Y0114627D01*
X0062099Y0121928D02*
X0064855Y0121928D01*
X0064855Y0119172D01*
X0062099Y0119172D01*
X0062099Y0121928D01*
X0062099Y0120352D02*
X0064855Y0120352D01*
X0064855Y0121532D02*
X0062099Y0121532D01*
D32*
X0060712Y0121929D02*
X0060712Y0122503D01*
X0061525Y0123316D01*
X0065285Y0123316D01*
X0065285Y0135035D01*
X0058093Y0135035D01*
X0058106Y0135012D01*
X0058187Y0134708D01*
X0058187Y0132385D01*
X0055613Y0132385D01*
X0055613Y0131991D01*
X0058187Y0131991D01*
X0058187Y0129668D01*
X0058106Y0129364D01*
X0057948Y0129091D01*
X0057725Y0128868D01*
X0057453Y0128710D01*
X0057148Y0128629D01*
X0055613Y0128629D01*
X0055613Y0131991D01*
X0055219Y0131991D01*
X0055219Y0128629D01*
X0053683Y0128629D01*
X0053379Y0128710D01*
X0053106Y0128868D01*
X0052883Y0129091D01*
X0052726Y0129364D01*
X0052644Y0129668D01*
X0052644Y0131991D01*
X0055219Y0131991D01*
X0055219Y0132385D01*
X0052644Y0132385D01*
X0052644Y0134708D01*
X0052726Y0135012D01*
X0052739Y0135035D01*
X0050546Y0135035D01*
X0050701Y0134880D01*
X0050701Y0129496D01*
X0050234Y0129029D01*
X0049179Y0129029D01*
X0049179Y0127026D01*
X0049548Y0127026D01*
X0050015Y0126559D01*
X0050015Y0121916D01*
X0053028Y0124929D01*
X0053736Y0124929D01*
X0053736Y0126559D01*
X0054203Y0127026D01*
X0057029Y0127026D01*
X0057496Y0126559D01*
X0057496Y0123769D01*
X0059336Y0121929D01*
X0060712Y0121929D01*
X0060712Y0122110D02*
X0059155Y0122110D01*
X0058763Y0122502D02*
X0060712Y0122502D01*
X0061103Y0122894D02*
X0058370Y0122894D01*
X0057978Y0123287D02*
X0061496Y0123287D01*
X0060712Y0119735D02*
X0058428Y0119735D01*
X0057242Y0120921D01*
X0057029Y0120708D01*
X0054203Y0120708D01*
X0053736Y0121175D01*
X0053736Y0122535D01*
X0047991Y0116789D01*
X0049548Y0116789D01*
X0049753Y0116585D01*
X0049835Y0116727D01*
X0050058Y0116950D01*
X0050331Y0117108D01*
X0050636Y0117189D01*
X0051679Y0117189D01*
X0051679Y0113827D01*
X0052073Y0113827D01*
X0052073Y0117189D01*
X0053116Y0117189D01*
X0053420Y0117108D01*
X0053693Y0116950D01*
X0053916Y0116727D01*
X0053999Y0116585D01*
X0054203Y0116789D01*
X0057029Y0116789D01*
X0057496Y0116322D01*
X0057496Y0115121D01*
X0060185Y0117810D01*
X0060842Y0118468D01*
X0060712Y0118598D01*
X0060712Y0119735D01*
X0060712Y0119365D02*
X0050566Y0119365D01*
X0050958Y0119757D02*
X0058406Y0119757D01*
X0058013Y0120149D02*
X0051350Y0120149D01*
X0051743Y0120541D02*
X0057621Y0120541D01*
X0057586Y0123679D02*
X0065285Y0123679D01*
X0065285Y0124071D02*
X0057496Y0124071D01*
X0057496Y0124463D02*
X0065285Y0124463D01*
X0065285Y0124856D02*
X0057496Y0124856D01*
X0057496Y0125248D02*
X0065285Y0125248D01*
X0065285Y0125640D02*
X0057496Y0125640D01*
X0057496Y0126032D02*
X0065285Y0126032D01*
X0065285Y0126424D02*
X0057496Y0126424D01*
X0057238Y0126817D02*
X0065285Y0126817D01*
X0065285Y0127209D02*
X0049179Y0127209D01*
X0049179Y0127601D02*
X0065285Y0127601D01*
X0065285Y0127993D02*
X0049179Y0127993D01*
X0049179Y0128385D02*
X0065285Y0128385D01*
X0065285Y0128778D02*
X0057569Y0128778D01*
X0057994Y0129170D02*
X0065285Y0129170D01*
X0065285Y0129562D02*
X0058159Y0129562D01*
X0058187Y0129954D02*
X0065285Y0129954D01*
X0065285Y0130347D02*
X0058187Y0130347D01*
X0058187Y0130739D02*
X0065285Y0130739D01*
X0065285Y0131131D02*
X0058187Y0131131D01*
X0058187Y0131523D02*
X0065285Y0131523D01*
X0065285Y0131915D02*
X0058187Y0131915D01*
X0058187Y0132700D02*
X0065285Y0132700D01*
X0065285Y0133092D02*
X0058187Y0133092D01*
X0058187Y0133484D02*
X0065285Y0133484D01*
X0065285Y0133876D02*
X0058187Y0133876D01*
X0058187Y0134269D02*
X0065285Y0134269D01*
X0065285Y0134661D02*
X0058187Y0134661D01*
X0055613Y0132308D02*
X0065285Y0132308D01*
X0068079Y0132308D02*
X0088482Y0132308D01*
X0088874Y0132700D02*
X0068079Y0132700D01*
X0068079Y0133092D02*
X0089267Y0133092D01*
X0089659Y0133484D02*
X0068079Y0133484D01*
X0068079Y0133876D02*
X0093785Y0133876D01*
X0093785Y0133629D02*
X0089803Y0133629D01*
X0064479Y0108304D01*
X0064479Y0110880D01*
X0065430Y0110880D01*
X0066243Y0111692D01*
X0066243Y0115598D01*
X0066005Y0115835D01*
X0066060Y0115835D01*
X0067260Y0117035D01*
X0068079Y0117853D01*
X0068079Y0150267D01*
X0068270Y0150337D01*
X0068549Y0150935D01*
X0066707Y0155995D01*
X0066109Y0156274D01*
X0064208Y0155581D01*
X0061179Y0158610D01*
X0061179Y0158706D01*
X0062301Y0159171D01*
X0063566Y0160436D01*
X0064251Y0162088D01*
X0064251Y0163877D01*
X0063566Y0165530D01*
X0062301Y0166795D01*
X0060648Y0167480D01*
X0058859Y0167480D01*
X0057207Y0166795D01*
X0055942Y0165530D01*
X0055257Y0163877D01*
X0055257Y0162088D01*
X0055942Y0160436D01*
X0057207Y0159171D01*
X0058385Y0158683D01*
X0058385Y0157453D01*
X0062699Y0153139D01*
X0064092Y0149313D01*
X0064690Y0149034D01*
X0065285Y0149250D01*
X0065285Y0137829D01*
X0041949Y0137829D01*
X0039508Y0140269D01*
X0038848Y0140269D01*
X0036433Y0137854D01*
X0036433Y0137194D01*
X0041075Y0132551D01*
X0041735Y0132551D01*
X0044151Y0134967D01*
X0044151Y0135035D01*
X0046112Y0135035D01*
X0045957Y0134880D01*
X0045957Y0129496D01*
X0046424Y0129029D01*
X0046985Y0129029D01*
X0046985Y0127026D01*
X0046723Y0127026D01*
X0046256Y0126559D01*
X0046256Y0121175D01*
X0046723Y0120708D01*
X0048807Y0120708D01*
X0033528Y0105429D01*
X0032885Y0104786D01*
X0032885Y0100914D01*
X0031522Y0100914D01*
X0031055Y0100447D01*
X0031055Y0099729D01*
X0027836Y0099729D01*
X0026979Y0100586D01*
X0026648Y0100916D01*
X0026648Y0101537D01*
X0026182Y0102003D01*
X0025154Y0102003D01*
X0025262Y0102048D01*
X0026289Y0103075D01*
X0026845Y0104417D01*
X0026845Y0105870D01*
X0026289Y0107212D01*
X0025262Y0108239D01*
X0024345Y0108619D01*
X0024579Y0108853D01*
X0032201Y0116476D01*
X0032140Y0116247D01*
X0032140Y0114514D01*
X0034715Y0114514D01*
X0034715Y0117286D01*
X0033179Y0117286D01*
X0032950Y0117224D01*
X0036280Y0120555D01*
X0036280Y0120483D01*
X0036747Y0120017D01*
X0040557Y0120017D01*
X0041023Y0120483D01*
X0041023Y0124687D01*
X0040557Y0125154D01*
X0036747Y0125154D01*
X0036280Y0124687D01*
X0036280Y0123729D01*
X0035503Y0123729D01*
X0033543Y0121768D01*
X0033543Y0124687D01*
X0033076Y0125154D01*
X0032679Y0125154D01*
X0032679Y0126853D01*
X0035550Y0129725D01*
X0036899Y0128375D01*
X0037560Y0128375D01*
X0039975Y0130791D01*
X0039975Y0131451D01*
X0035333Y0136093D01*
X0034672Y0136093D01*
X0032257Y0133678D01*
X0032257Y0133018D01*
X0033575Y0131700D01*
X0029885Y0128010D01*
X0029885Y0125154D01*
X0029267Y0125154D01*
X0028800Y0124687D01*
X0028800Y0120483D01*
X0029267Y0120017D01*
X0031791Y0120017D01*
X0022603Y0110829D01*
X0021103Y0110829D01*
X0018403Y0108129D01*
X0017585Y0107310D01*
X0017585Y0083353D01*
X0020285Y0080653D01*
X0021103Y0079835D01*
X0030261Y0079835D01*
X0030137Y0079711D01*
X0030137Y0079103D01*
X0029559Y0079103D01*
X0026540Y0077852D01*
X0026540Y0077852D01*
X0024229Y0075541D01*
X0023284Y0073259D01*
X0021583Y0073259D01*
X0021116Y0072793D01*
X0021116Y0068983D01*
X0021583Y0068516D01*
X0026968Y0068516D01*
X0027434Y0068983D01*
X0027434Y0072793D01*
X0026968Y0073259D01*
X0026208Y0073259D01*
X0026519Y0074011D01*
X0028070Y0075562D01*
X0030097Y0076401D01*
X0030137Y0076405D01*
X0030137Y0075901D01*
X0030604Y0075434D01*
X0035988Y0075434D01*
X0036455Y0075901D01*
X0036455Y0076509D01*
X0056998Y0076509D01*
X0057758Y0077269D01*
X0059151Y0078662D01*
X0064196Y0078662D01*
X0064196Y0075532D01*
X0056209Y0075532D01*
X0055742Y0075065D01*
X0055742Y0070074D01*
X0056011Y0069806D01*
X0049981Y0069806D01*
X0050250Y0070074D01*
X0050250Y0075065D01*
X0049783Y0075532D01*
X0041642Y0075532D01*
X0041176Y0075065D01*
X0041176Y0070074D01*
X0041642Y0069607D01*
X0044416Y0069607D01*
X0044416Y0067972D01*
X0044423Y0067964D01*
X0044423Y0058086D01*
X0036455Y0058086D01*
X0036455Y0058844D01*
X0035988Y0059311D01*
X0030604Y0059311D01*
X0030137Y0058844D01*
X0030137Y0058335D01*
X0030051Y0058343D01*
X0028045Y0059174D01*
X0026510Y0060710D01*
X0026212Y0061430D01*
X0026968Y0061430D01*
X0027434Y0061896D01*
X0027434Y0065706D01*
X0026968Y0066173D01*
X0021583Y0066173D01*
X0021116Y0065706D01*
X0021116Y0061896D01*
X0021583Y0061430D01*
X0023289Y0061430D01*
X0024220Y0059180D01*
X0026515Y0056885D01*
X0026515Y0056885D01*
X0026515Y0056885D01*
X0029514Y0055643D01*
X0030137Y0055643D01*
X0030137Y0055035D01*
X0030604Y0054568D01*
X0035988Y0054568D01*
X0036455Y0055035D01*
X0036455Y0055492D01*
X0046257Y0055492D01*
X0047017Y0056252D01*
X0047017Y0067212D01*
X0066057Y0067212D01*
X0066057Y0063502D01*
X0066382Y0063177D01*
X0066072Y0062867D01*
X0066072Y0057482D01*
X0066400Y0057154D01*
X0066072Y0056825D01*
X0066072Y0051441D01*
X0066538Y0050974D01*
X0070348Y0050974D01*
X0070815Y0051441D01*
X0070815Y0056825D01*
X0070486Y0057154D01*
X0070815Y0057482D01*
X0070815Y0062867D01*
X0070490Y0063192D01*
X0070800Y0063502D01*
X0070800Y0068887D01*
X0070539Y0069147D01*
X0073404Y0069147D01*
X0073143Y0068887D01*
X0073143Y0063502D01*
X0073610Y0063035D01*
X0077420Y0063035D01*
X0077608Y0063223D01*
X0077608Y0062050D01*
X0078075Y0061583D01*
X0081884Y0061583D01*
X0082351Y0062050D01*
X0082351Y0063123D01*
X0083046Y0063123D01*
X0083493Y0063570D01*
X0083940Y0063123D01*
X0084694Y0063123D01*
X0084694Y0062050D01*
X0084949Y0061795D01*
X0084727Y0061573D01*
X0084727Y0056189D01*
X0085010Y0055906D01*
X0084829Y0055725D01*
X0084481Y0056073D01*
X0080671Y0056073D01*
X0080205Y0055606D01*
X0080205Y0050222D01*
X0080671Y0049755D01*
X0084481Y0049755D01*
X0084854Y0050128D01*
X0085202Y0049780D01*
X0085500Y0049780D01*
X0085497Y0049498D01*
X0081732Y0049498D01*
X0081265Y0049031D01*
X0081265Y0048958D01*
X0022560Y0048932D01*
X0019837Y0052386D01*
X0014658Y0061146D01*
X0010695Y0070519D01*
X0008467Y0078690D01*
X0009812Y0077344D01*
X0011624Y0076594D01*
X0013586Y0076594D01*
X0015398Y0077344D01*
X0016785Y0078731D01*
X0017536Y0080543D01*
X0017536Y0082505D01*
X0016785Y0084317D01*
X0015398Y0085704D01*
X0013586Y0086455D01*
X0011624Y0086455D01*
X0009812Y0085704D01*
X0008425Y0084317D01*
X0007715Y0082604D01*
X0006673Y0090425D01*
X0006687Y0100601D01*
X0007689Y0107968D01*
X0008379Y0106302D01*
X0009766Y0104915D01*
X0011578Y0104165D01*
X0013540Y0104165D01*
X0015352Y0104915D01*
X0016739Y0106302D01*
X0017490Y0108115D01*
X0017490Y0110076D01*
X0016739Y0111889D01*
X0015352Y0113276D01*
X0013540Y0114026D01*
X0011578Y0114026D01*
X0009766Y0113276D01*
X0008395Y0111904D01*
X0010763Y0120496D01*
X0014752Y0129858D01*
X0017106Y0134135D01*
X0018416Y0135445D01*
X0020892Y0132969D01*
X0021552Y0132969D01*
X0024803Y0136219D01*
X0024803Y0136879D01*
X0022327Y0139355D01*
X0041522Y0158551D01*
X0043998Y0156075D01*
X0044659Y0156075D01*
X0047909Y0159326D01*
X0047909Y0159986D01*
X0045433Y0162462D01*
X0046261Y0163290D01*
X0050489Y0165639D01*
X0059746Y0169616D01*
X0069455Y0172309D01*
X0079439Y0173668D01*
X0089515Y0173668D01*
X0099499Y0172309D01*
X0109208Y0169616D01*
X0118466Y0165639D01*
X0122242Y0163540D01*
X0122243Y0163538D01*
X0122900Y0163173D01*
X0123544Y0162786D01*
X0123547Y0162787D01*
X0127318Y0160530D01*
X0135523Y0154431D01*
X0142846Y0147297D01*
X0149158Y0139254D01*
X0152236Y0134028D01*
X0136136Y0150129D01*
X0128825Y0150129D01*
X0128825Y0155466D01*
X0128358Y0155933D01*
X0125498Y0155933D01*
X0125354Y0155788D01*
X0125209Y0155933D01*
X0122349Y0155933D01*
X0122204Y0155788D01*
X0122059Y0155933D01*
X0119199Y0155933D01*
X0119054Y0155788D01*
X0118910Y0155933D01*
X0116049Y0155933D01*
X0115905Y0155788D01*
X0115760Y0155933D01*
X0112900Y0155933D01*
X0112755Y0155788D01*
X0112610Y0155933D01*
X0109750Y0155933D01*
X0109605Y0155788D01*
X0109461Y0155933D01*
X0106601Y0155933D01*
X0106456Y0155788D01*
X0106311Y0155933D01*
X0103451Y0155933D01*
X0102984Y0155466D01*
X0102984Y0149806D01*
X0103451Y0149339D01*
X0106311Y0149339D01*
X0106456Y0149484D01*
X0106601Y0149339D01*
X0109461Y0149339D01*
X0109605Y0149484D01*
X0109750Y0149339D01*
X0112610Y0149339D01*
X0112755Y0149484D01*
X0112900Y0149339D01*
X0114323Y0149339D01*
X0115085Y0148577D01*
X0115728Y0147935D01*
X0129508Y0147935D01*
X0129508Y0145330D01*
X0129653Y0145185D01*
X0129508Y0145040D01*
X0129508Y0142180D01*
X0129653Y0142035D01*
X0129508Y0141891D01*
X0129508Y0139307D01*
X0129347Y0139146D01*
X0129189Y0138873D01*
X0129108Y0138569D01*
X0129108Y0137508D01*
X0132608Y0137508D01*
X0132608Y0137114D01*
X0129108Y0137114D01*
X0129108Y0136053D01*
X0129189Y0135749D01*
X0129347Y0135476D01*
X0129508Y0135315D01*
X0129508Y0135129D01*
X0103303Y0135129D01*
X0102702Y0134527D01*
X0102702Y0135419D01*
X0102620Y0135723D01*
X0102462Y0135996D01*
X0102302Y0136157D01*
X0102302Y0138465D01*
X0102462Y0138626D01*
X0102620Y0138899D01*
X0102702Y0139203D01*
X0102702Y0140264D01*
X0099202Y0140264D01*
X0099202Y0140657D01*
X0102702Y0140657D01*
X0102702Y0141718D01*
X0102620Y0142023D01*
X0102462Y0142295D01*
X0102302Y0142456D01*
X0102302Y0145040D01*
X0102157Y0145185D01*
X0102302Y0145330D01*
X0102302Y0148190D01*
X0101835Y0148657D01*
X0096175Y0148657D01*
X0095708Y0148190D01*
X0095708Y0145330D01*
X0095853Y0145185D01*
X0095708Y0145040D01*
X0095708Y0142456D01*
X0095547Y0142295D01*
X0095389Y0142023D01*
X0095308Y0141718D01*
X0095308Y0140657D01*
X0098808Y0140657D01*
X0098808Y0140264D01*
X0095308Y0140264D01*
X0095308Y0139203D01*
X0095389Y0138899D01*
X0095547Y0138626D01*
X0095708Y0138465D01*
X0095708Y0138333D01*
X0094985Y0137610D01*
X0093785Y0136410D01*
X0093785Y0133629D01*
X0093785Y0134269D02*
X0068079Y0134269D01*
X0068079Y0134661D02*
X0093785Y0134661D01*
X0093785Y0135053D02*
X0068079Y0135053D01*
X0068079Y0135445D02*
X0093785Y0135445D01*
X0093785Y0135837D02*
X0068079Y0135837D01*
X0068079Y0136230D02*
X0093785Y0136230D01*
X0093997Y0136622D02*
X0068079Y0136622D01*
X0068079Y0137014D02*
X0094389Y0137014D01*
X0094781Y0137406D02*
X0068079Y0137406D01*
X0068079Y0137799D02*
X0095173Y0137799D01*
X0095565Y0138191D02*
X0068079Y0138191D01*
X0068079Y0138583D02*
X0095590Y0138583D01*
X0095369Y0138975D02*
X0068079Y0138975D01*
X0068079Y0139367D02*
X0095308Y0139367D01*
X0095308Y0139760D02*
X0068079Y0139760D01*
X0068079Y0140152D02*
X0095308Y0140152D01*
X0095308Y0140936D02*
X0068079Y0140936D01*
X0068079Y0140544D02*
X0098808Y0140544D01*
X0099202Y0140544D02*
X0129508Y0140544D01*
X0129508Y0140152D02*
X0102702Y0140152D01*
X0102702Y0139760D02*
X0129508Y0139760D01*
X0129508Y0139367D02*
X0102702Y0139367D01*
X0102640Y0138975D02*
X0129248Y0138975D01*
X0129112Y0138583D02*
X0102420Y0138583D01*
X0102302Y0138191D02*
X0129108Y0138191D01*
X0129108Y0137799D02*
X0102302Y0137799D01*
X0102302Y0137406D02*
X0132608Y0137406D01*
X0133002Y0137406D02*
X0145756Y0137406D01*
X0146148Y0137014D02*
X0136502Y0137014D01*
X0136502Y0137114D02*
X0133002Y0137114D01*
X0133002Y0137508D01*
X0136502Y0137508D01*
X0136502Y0138569D01*
X0136420Y0138873D01*
X0136262Y0139146D01*
X0136102Y0139307D01*
X0136102Y0141891D01*
X0135957Y0142035D01*
X0136102Y0142180D01*
X0136102Y0145040D01*
X0135957Y0145185D01*
X0136102Y0145330D01*
X0136102Y0147061D01*
X0152585Y0130577D01*
X0152585Y0109473D01*
X0151863Y0109473D01*
X0149627Y0107238D01*
X0149336Y0107529D01*
X0134079Y0122786D01*
X0134079Y0122816D01*
X0135635Y0122816D01*
X0136102Y0123282D01*
X0136102Y0126143D01*
X0135957Y0126287D01*
X0136102Y0126432D01*
X0136102Y0126776D01*
X0137160Y0127835D01*
X0137979Y0128653D01*
X0137979Y0133110D01*
X0136479Y0134610D01*
X0136102Y0134988D01*
X0136102Y0135315D01*
X0136262Y0135476D01*
X0136420Y0135749D01*
X0136502Y0136053D01*
X0136502Y0137114D01*
X0136502Y0136622D02*
X0146541Y0136622D01*
X0146933Y0136230D02*
X0136502Y0136230D01*
X0136444Y0135837D02*
X0147325Y0135837D01*
X0147717Y0135445D02*
X0136232Y0135445D01*
X0136102Y0135053D02*
X0148109Y0135053D01*
X0148502Y0134661D02*
X0136428Y0134661D01*
X0136820Y0134269D02*
X0148894Y0134269D01*
X0149286Y0133876D02*
X0137213Y0133876D01*
X0137605Y0133484D02*
X0149678Y0133484D01*
X0150070Y0133092D02*
X0137979Y0133092D01*
X0137979Y0132700D02*
X0150463Y0132700D01*
X0150855Y0132308D02*
X0137979Y0132308D01*
X0137979Y0131915D02*
X0151247Y0131915D01*
X0151639Y0131523D02*
X0137979Y0131523D01*
X0137979Y0131131D02*
X0152032Y0131131D01*
X0152424Y0130739D02*
X0137979Y0130739D01*
X0137979Y0130347D02*
X0152585Y0130347D01*
X0152585Y0129954D02*
X0137979Y0129954D01*
X0137979Y0129562D02*
X0152585Y0129562D01*
X0152585Y0129170D02*
X0137979Y0129170D01*
X0137979Y0128778D02*
X0152585Y0128778D01*
X0152585Y0128385D02*
X0137711Y0128385D01*
X0137319Y0127993D02*
X0152585Y0127993D01*
X0152585Y0127601D02*
X0136927Y0127601D01*
X0136534Y0127209D02*
X0152585Y0127209D01*
X0152585Y0126817D02*
X0136142Y0126817D01*
X0136094Y0126424D02*
X0152585Y0126424D01*
X0152585Y0126032D02*
X0136102Y0126032D01*
X0136102Y0125640D02*
X0152585Y0125640D01*
X0152585Y0125248D02*
X0136102Y0125248D01*
X0136102Y0124856D02*
X0152585Y0124856D01*
X0152585Y0124463D02*
X0136102Y0124463D01*
X0136102Y0124071D02*
X0152585Y0124071D01*
X0152585Y0123679D02*
X0136102Y0123679D01*
X0136102Y0123287D02*
X0152585Y0123287D01*
X0152585Y0122894D02*
X0135714Y0122894D01*
X0134755Y0122110D02*
X0152585Y0122110D01*
X0152585Y0121718D02*
X0135147Y0121718D01*
X0135539Y0121326D02*
X0152585Y0121326D01*
X0152585Y0120933D02*
X0135931Y0120933D01*
X0136324Y0120541D02*
X0152585Y0120541D01*
X0152585Y0120149D02*
X0136716Y0120149D01*
X0137108Y0119757D02*
X0152585Y0119757D01*
X0152585Y0119365D02*
X0137500Y0119365D01*
X0137892Y0118972D02*
X0152585Y0118972D01*
X0152585Y0118580D02*
X0138285Y0118580D01*
X0138677Y0118188D02*
X0152585Y0118188D01*
X0152585Y0117796D02*
X0139069Y0117796D01*
X0139461Y0117404D02*
X0152585Y0117404D01*
X0152585Y0117011D02*
X0139854Y0117011D01*
X0140246Y0116619D02*
X0152585Y0116619D01*
X0152585Y0116227D02*
X0140638Y0116227D01*
X0141030Y0115835D02*
X0152585Y0115835D01*
X0152585Y0115442D02*
X0141422Y0115442D01*
X0141815Y0115050D02*
X0152585Y0115050D01*
X0152585Y0114658D02*
X0142207Y0114658D01*
X0142599Y0114266D02*
X0152585Y0114266D01*
X0152585Y0113874D02*
X0142991Y0113874D01*
X0143383Y0113481D02*
X0152585Y0113481D01*
X0152585Y0113089D02*
X0143776Y0113089D01*
X0144168Y0112697D02*
X0152585Y0112697D01*
X0152585Y0112305D02*
X0144560Y0112305D01*
X0144952Y0111913D02*
X0152585Y0111913D01*
X0152585Y0111520D02*
X0145344Y0111520D01*
X0145737Y0111128D02*
X0152585Y0111128D01*
X0152585Y0110736D02*
X0146129Y0110736D01*
X0146521Y0110344D02*
X0152585Y0110344D01*
X0152585Y0109951D02*
X0146913Y0109951D01*
X0147306Y0109559D02*
X0152585Y0109559D01*
X0151557Y0109167D02*
X0147698Y0109167D01*
X0148090Y0108775D02*
X0151165Y0108775D01*
X0150772Y0108383D02*
X0148482Y0108383D01*
X0148874Y0107990D02*
X0150380Y0107990D01*
X0149988Y0107598D02*
X0149267Y0107598D01*
X0149979Y0102364D02*
X0151863Y0100479D01*
X0155588Y0100479D01*
X0158222Y0103114D01*
X0158222Y0106839D01*
X0155588Y0109473D01*
X0154779Y0109473D01*
X0154779Y0129422D01*
X0158321Y0121025D01*
X0161011Y0111161D01*
X0162367Y0101028D01*
X0162367Y0090804D01*
X0161011Y0080671D01*
X0158321Y0070807D01*
X0154347Y0061387D01*
X0149158Y0052578D01*
X0146339Y0048986D01*
X0092858Y0048963D01*
X0092858Y0049031D01*
X0092392Y0049498D01*
X0088691Y0049498D01*
X0088694Y0049780D01*
X0089012Y0049780D01*
X0089478Y0050247D01*
X0089478Y0055631D01*
X0089196Y0055914D01*
X0089470Y0056189D01*
X0089470Y0061573D01*
X0089216Y0061828D01*
X0089438Y0062050D01*
X0089438Y0063361D01*
X0089709Y0063090D01*
X0114531Y0063090D01*
X0115291Y0063849D01*
X0115291Y0073976D01*
X0144263Y0073976D01*
X0145022Y0074735D01*
X0145022Y0080479D01*
X0145588Y0080479D01*
X0147785Y0082676D01*
X0147785Y0082577D01*
X0150485Y0079877D01*
X0151128Y0079235D01*
X0156236Y0079235D01*
X0158936Y0081935D01*
X0159579Y0082577D01*
X0159579Y0090686D01*
X0157687Y0092578D01*
X0158222Y0093114D01*
X0158222Y0096839D01*
X0155588Y0099473D01*
X0151863Y0099473D01*
X0151327Y0098938D01*
X0149979Y0100286D01*
X0149979Y0102364D01*
X0149979Y0102107D02*
X0150235Y0102107D01*
X0149979Y0101715D02*
X0150627Y0101715D01*
X0151019Y0101323D02*
X0149979Y0101323D01*
X0149979Y0100931D02*
X0151412Y0100931D01*
X0151804Y0100538D02*
X0149979Y0100538D01*
X0150119Y0100146D02*
X0162367Y0100146D01*
X0162367Y0099754D02*
X0150511Y0099754D01*
X0150903Y0099362D02*
X0151751Y0099362D01*
X0151359Y0098970D02*
X0151295Y0098970D01*
X0155699Y0099362D02*
X0162367Y0099362D01*
X0162367Y0098970D02*
X0156092Y0098970D01*
X0156484Y0098577D02*
X0162367Y0098577D01*
X0162367Y0098185D02*
X0156876Y0098185D01*
X0157268Y0097793D02*
X0162367Y0097793D01*
X0162367Y0097401D02*
X0157661Y0097401D01*
X0158053Y0097008D02*
X0162367Y0097008D01*
X0162367Y0096616D02*
X0158222Y0096616D01*
X0158222Y0096224D02*
X0162367Y0096224D01*
X0162367Y0095832D02*
X0158222Y0095832D01*
X0158222Y0095440D02*
X0162367Y0095440D01*
X0162367Y0095047D02*
X0158222Y0095047D01*
X0158222Y0094655D02*
X0162367Y0094655D01*
X0162367Y0094263D02*
X0158222Y0094263D01*
X0158222Y0093871D02*
X0162367Y0093871D01*
X0162367Y0093479D02*
X0158222Y0093479D01*
X0158195Y0093086D02*
X0162367Y0093086D01*
X0162367Y0092694D02*
X0157803Y0092694D01*
X0157963Y0092302D02*
X0162367Y0092302D01*
X0162367Y0091910D02*
X0158355Y0091910D01*
X0158747Y0091518D02*
X0162367Y0091518D01*
X0162367Y0091125D02*
X0159140Y0091125D01*
X0159532Y0090733D02*
X0162358Y0090733D01*
X0162305Y0090341D02*
X0159579Y0090341D01*
X0159579Y0089949D02*
X0162253Y0089949D01*
X0162200Y0089556D02*
X0159579Y0089556D01*
X0159579Y0089164D02*
X0162148Y0089164D01*
X0162095Y0088772D02*
X0159579Y0088772D01*
X0159579Y0088380D02*
X0162043Y0088380D01*
X0161990Y0087988D02*
X0159579Y0087988D01*
X0159579Y0087595D02*
X0161938Y0087595D01*
X0161885Y0087203D02*
X0159579Y0087203D01*
X0159579Y0086811D02*
X0161833Y0086811D01*
X0161780Y0086419D02*
X0159579Y0086419D01*
X0159579Y0086027D02*
X0161728Y0086027D01*
X0161675Y0085634D02*
X0159579Y0085634D01*
X0159579Y0085242D02*
X0161623Y0085242D01*
X0161570Y0084850D02*
X0159579Y0084850D01*
X0159579Y0084458D02*
X0161518Y0084458D01*
X0161465Y0084065D02*
X0159579Y0084065D01*
X0159579Y0083673D02*
X0161413Y0083673D01*
X0161360Y0083281D02*
X0159579Y0083281D01*
X0159579Y0082889D02*
X0161308Y0082889D01*
X0161255Y0082497D02*
X0159498Y0082497D01*
X0159106Y0082104D02*
X0161203Y0082104D01*
X0161150Y0081712D02*
X0158714Y0081712D01*
X0158321Y0081320D02*
X0161098Y0081320D01*
X0161045Y0080928D02*
X0157929Y0080928D01*
X0157537Y0080536D02*
X0160974Y0080536D01*
X0160867Y0080143D02*
X0157145Y0080143D01*
X0156752Y0079751D02*
X0160760Y0079751D01*
X0160653Y0079359D02*
X0156360Y0079359D01*
X0160332Y0078182D02*
X0145022Y0078182D01*
X0145022Y0077790D02*
X0160225Y0077790D01*
X0160118Y0077398D02*
X0145022Y0077398D01*
X0145022Y0077006D02*
X0160011Y0077006D01*
X0159905Y0076613D02*
X0145022Y0076613D01*
X0145022Y0076221D02*
X0159798Y0076221D01*
X0159691Y0075829D02*
X0145022Y0075829D01*
X0145022Y0075437D02*
X0159584Y0075437D01*
X0159477Y0075045D02*
X0145022Y0075045D01*
X0144939Y0074652D02*
X0159370Y0074652D01*
X0159263Y0074260D02*
X0144547Y0074260D01*
X0142429Y0076569D02*
X0099591Y0076569D01*
X0099591Y0078462D01*
X0099456Y0078596D01*
X0100216Y0078596D01*
X0100216Y0077476D01*
X0100683Y0077009D01*
X0104492Y0077009D01*
X0104959Y0077476D01*
X0104959Y0082860D01*
X0104492Y0083327D01*
X0100683Y0083327D01*
X0100216Y0082860D01*
X0100216Y0081190D01*
X0094439Y0081190D01*
X0094439Y0081763D01*
X0092061Y0081763D01*
X0092061Y0081960D01*
X0094439Y0081960D01*
X0094439Y0082610D01*
X0094357Y0082914D01*
X0094199Y0083187D01*
X0093977Y0083410D01*
X0093704Y0083567D01*
X0093399Y0083649D01*
X0092061Y0083649D01*
X0092061Y0081960D01*
X0091864Y0081960D01*
X0091864Y0083649D01*
X0090525Y0083649D01*
X0090221Y0083567D01*
X0089948Y0083410D01*
X0089725Y0083187D01*
X0089567Y0082914D01*
X0089486Y0082610D01*
X0089486Y0081960D01*
X0091864Y0081960D01*
X0091864Y0081763D01*
X0089486Y0081763D01*
X0089486Y0081113D01*
X0089567Y0080809D01*
X0089725Y0080536D01*
X0089886Y0080375D01*
X0089886Y0078972D01*
X0089949Y0078909D01*
X0089886Y0078845D01*
X0089886Y0077442D01*
X0089725Y0077281D01*
X0089567Y0077009D01*
X0089486Y0076704D01*
X0089486Y0076054D01*
X0091864Y0076054D01*
X0091864Y0075858D01*
X0089486Y0075858D01*
X0089486Y0075208D01*
X0089567Y0074904D01*
X0089725Y0074631D01*
X0089886Y0074470D01*
X0089886Y0073067D01*
X0090353Y0072600D01*
X0090665Y0072600D01*
X0090665Y0071741D01*
X0089806Y0071741D01*
X0089806Y0072054D01*
X0089339Y0072521D01*
X0087937Y0072521D01*
X0087776Y0072681D01*
X0087503Y0072839D01*
X0087198Y0072921D01*
X0086549Y0072921D01*
X0086549Y0070543D01*
X0086352Y0070543D01*
X0086352Y0072921D01*
X0085702Y0072921D01*
X0085398Y0072839D01*
X0085125Y0072681D01*
X0084964Y0072521D01*
X0083561Y0072521D01*
X0083498Y0072457D01*
X0083434Y0072521D01*
X0081593Y0072521D01*
X0081529Y0072457D01*
X0081465Y0072521D01*
X0079624Y0072521D01*
X0079157Y0072054D01*
X0079157Y0071741D01*
X0068923Y0071741D01*
X0068919Y0071746D01*
X0068387Y0071741D01*
X0067855Y0071741D01*
X0067851Y0071737D01*
X0067844Y0071736D01*
X0067472Y0071358D01*
X0067096Y0070981D01*
X0067096Y0070975D01*
X0067091Y0070970D01*
X0067096Y0070439D01*
X0067096Y0069907D01*
X0067100Y0069903D01*
X0067105Y0069353D01*
X0066853Y0069353D01*
X0066853Y0072691D01*
X0075301Y0072691D01*
X0075392Y0072600D01*
X0078611Y0072600D01*
X0079078Y0073067D01*
X0079078Y0074908D01*
X0079014Y0074972D01*
X0079078Y0075035D01*
X0079078Y0076438D01*
X0079239Y0076599D01*
X0079396Y0076872D01*
X0079478Y0077176D01*
X0079478Y0077826D01*
X0077100Y0077826D01*
X0077100Y0078023D01*
X0079478Y0078023D01*
X0079478Y0078673D01*
X0079396Y0078977D01*
X0079239Y0079250D01*
X0079078Y0079411D01*
X0079078Y0080814D01*
X0079014Y0080877D01*
X0079078Y0080941D01*
X0079078Y0081985D01*
X0079128Y0081935D01*
X0085736Y0081935D01*
X0086379Y0082577D01*
X0087130Y0083328D01*
X0087371Y0083328D01*
X0087435Y0083392D01*
X0087498Y0083328D01*
X0089339Y0083328D01*
X0089806Y0083795D01*
X0089806Y0084335D01*
X0121436Y0084335D01*
X0122079Y0084977D01*
X0122079Y0085886D01*
X0122079Y0099884D01*
X0122328Y0099635D01*
X0123154Y0098809D01*
X0123154Y0095175D01*
X0123621Y0094708D01*
X0127430Y0094708D01*
X0127897Y0095175D01*
X0127897Y0096635D01*
X0139229Y0096635D01*
X0139229Y0093114D01*
X0140114Y0092229D01*
X0127781Y0092229D01*
X0127781Y0093960D01*
X0127315Y0094427D01*
X0123505Y0094427D01*
X0123038Y0093960D01*
X0123038Y0088576D01*
X0123505Y0088109D01*
X0127315Y0088109D01*
X0127781Y0088576D01*
X0127781Y0090035D01*
X0140328Y0090035D01*
X0141185Y0089177D01*
X0141376Y0088986D01*
X0139229Y0086839D01*
X0139229Y0083114D01*
X0141863Y0080479D01*
X0142429Y0080479D01*
X0142429Y0076569D01*
X0142429Y0076613D02*
X0111423Y0076613D01*
X0111406Y0076609D02*
X0111711Y0076690D01*
X0111984Y0076848D01*
X0112207Y0077071D01*
X0112364Y0077344D01*
X0112446Y0077648D01*
X0112446Y0079971D01*
X0109871Y0079971D01*
X0109871Y0080365D01*
X0109477Y0080365D01*
X0109477Y0083727D01*
X0107942Y0083727D01*
X0107637Y0083645D01*
X0107364Y0083488D01*
X0107141Y0083265D01*
X0106984Y0082992D01*
X0106902Y0082688D01*
X0106902Y0080365D01*
X0109477Y0080365D01*
X0109477Y0079971D01*
X0106902Y0079971D01*
X0106902Y0077648D01*
X0106984Y0077344D01*
X0107141Y0077071D01*
X0107364Y0076848D01*
X0107637Y0076690D01*
X0107942Y0076609D01*
X0109477Y0076609D01*
X0109477Y0079971D01*
X0109871Y0079971D01*
X0109871Y0076609D01*
X0111406Y0076609D01*
X0112141Y0077006D02*
X0142429Y0077006D01*
X0142429Y0077398D02*
X0112379Y0077398D01*
X0112446Y0077790D02*
X0142429Y0077790D01*
X0142429Y0078182D02*
X0112446Y0078182D01*
X0112446Y0078575D02*
X0142429Y0078575D01*
X0142429Y0078967D02*
X0112446Y0078967D01*
X0112446Y0079359D02*
X0142429Y0079359D01*
X0142429Y0079751D02*
X0112446Y0079751D01*
X0112446Y0080365D02*
X0112446Y0082688D01*
X0112364Y0082992D01*
X0112207Y0083265D01*
X0111984Y0083488D01*
X0111711Y0083645D01*
X0111406Y0083727D01*
X0109871Y0083727D01*
X0109871Y0080365D01*
X0112446Y0080365D01*
X0112446Y0080536D02*
X0141807Y0080536D01*
X0141414Y0080928D02*
X0112446Y0080928D01*
X0112446Y0081320D02*
X0141022Y0081320D01*
X0140630Y0081712D02*
X0112446Y0081712D01*
X0112446Y0082104D02*
X0140238Y0082104D01*
X0139846Y0082497D02*
X0112446Y0082497D01*
X0112392Y0082889D02*
X0139453Y0082889D01*
X0139229Y0083281D02*
X0112191Y0083281D01*
X0111607Y0083673D02*
X0139229Y0083673D01*
X0139229Y0084065D02*
X0089806Y0084065D01*
X0089684Y0083673D02*
X0107741Y0083673D01*
X0107157Y0083281D02*
X0104538Y0083281D01*
X0104930Y0082889D02*
X0106956Y0082889D01*
X0106902Y0082497D02*
X0104959Y0082497D01*
X0104959Y0082104D02*
X0106902Y0082104D01*
X0106902Y0081712D02*
X0104959Y0081712D01*
X0104959Y0081320D02*
X0106902Y0081320D01*
X0106902Y0080928D02*
X0104959Y0080928D01*
X0104959Y0080536D02*
X0106902Y0080536D01*
X0106902Y0079751D02*
X0104959Y0079751D01*
X0104959Y0079359D02*
X0106902Y0079359D01*
X0106902Y0078967D02*
X0104959Y0078967D01*
X0104959Y0078575D02*
X0106902Y0078575D01*
X0106902Y0078182D02*
X0104959Y0078182D01*
X0104959Y0077790D02*
X0106902Y0077790D01*
X0106969Y0077398D02*
X0104881Y0077398D01*
X0107207Y0077006D02*
X0099591Y0077006D01*
X0099591Y0077398D02*
X0100294Y0077398D01*
X0100216Y0077790D02*
X0099591Y0077790D01*
X0099591Y0078182D02*
X0100216Y0078182D01*
X0100216Y0078575D02*
X0099478Y0078575D01*
X0099591Y0076613D02*
X0107925Y0076613D01*
X0109477Y0076613D02*
X0109871Y0076613D01*
X0109871Y0077006D02*
X0109477Y0077006D01*
X0109477Y0077398D02*
X0109871Y0077398D01*
X0109871Y0077790D02*
X0109477Y0077790D01*
X0109477Y0078182D02*
X0109871Y0078182D01*
X0109871Y0078575D02*
X0109477Y0078575D01*
X0109477Y0078967D02*
X0109871Y0078967D01*
X0109871Y0079359D02*
X0109477Y0079359D01*
X0109477Y0079751D02*
X0109871Y0079751D01*
X0109871Y0080143D02*
X0142429Y0080143D01*
X0145022Y0080143D02*
X0150219Y0080143D01*
X0150611Y0079751D02*
X0145022Y0079751D01*
X0145022Y0079359D02*
X0151004Y0079359D01*
X0149827Y0080536D02*
X0145644Y0080536D01*
X0146036Y0080928D02*
X0149435Y0080928D01*
X0149042Y0081320D02*
X0146429Y0081320D01*
X0146821Y0081712D02*
X0148650Y0081712D01*
X0148258Y0082104D02*
X0147213Y0082104D01*
X0147605Y0082497D02*
X0147866Y0082497D01*
X0145022Y0078967D02*
X0160546Y0078967D01*
X0160439Y0078575D02*
X0145022Y0078575D01*
X0139229Y0084458D02*
X0121559Y0084458D01*
X0121951Y0084850D02*
X0139229Y0084850D01*
X0139229Y0085242D02*
X0122079Y0085242D01*
X0122079Y0085634D02*
X0139229Y0085634D01*
X0139229Y0086027D02*
X0122079Y0086027D01*
X0122079Y0086419D02*
X0139229Y0086419D01*
X0139229Y0086811D02*
X0122079Y0086811D01*
X0122079Y0087203D02*
X0139593Y0087203D01*
X0139985Y0087595D02*
X0122079Y0087595D01*
X0122079Y0087988D02*
X0140377Y0087988D01*
X0140769Y0088380D02*
X0127585Y0088380D01*
X0127781Y0088772D02*
X0141162Y0088772D01*
X0141198Y0089164D02*
X0127781Y0089164D01*
X0127781Y0089556D02*
X0140806Y0089556D01*
X0140414Y0089949D02*
X0127781Y0089949D01*
X0127781Y0092302D02*
X0140040Y0092302D01*
X0139648Y0092694D02*
X0127781Y0092694D01*
X0127781Y0093086D02*
X0139256Y0093086D01*
X0139229Y0093479D02*
X0127781Y0093479D01*
X0127781Y0093871D02*
X0139229Y0093871D01*
X0139229Y0094263D02*
X0127479Y0094263D01*
X0127770Y0095047D02*
X0139229Y0095047D01*
X0139229Y0094655D02*
X0122079Y0094655D01*
X0122079Y0094263D02*
X0123341Y0094263D01*
X0123038Y0093871D02*
X0122079Y0093871D01*
X0122079Y0093479D02*
X0123038Y0093479D01*
X0123038Y0093086D02*
X0122079Y0093086D01*
X0122079Y0092694D02*
X0123038Y0092694D01*
X0123038Y0092302D02*
X0122079Y0092302D01*
X0122079Y0091910D02*
X0123038Y0091910D01*
X0123038Y0091518D02*
X0122079Y0091518D01*
X0122079Y0091125D02*
X0123038Y0091125D01*
X0123038Y0090733D02*
X0122079Y0090733D01*
X0122079Y0090341D02*
X0123038Y0090341D01*
X0123038Y0089949D02*
X0122079Y0089949D01*
X0122079Y0089556D02*
X0123038Y0089556D01*
X0123038Y0089164D02*
X0122079Y0089164D01*
X0122079Y0088772D02*
X0123038Y0088772D01*
X0123234Y0088380D02*
X0122079Y0088380D01*
X0119885Y0088109D02*
X0119885Y0086529D01*
X0089806Y0086529D01*
X0089806Y0087014D01*
X0089339Y0087481D01*
X0087498Y0087481D01*
X0087435Y0087418D01*
X0087371Y0087481D01*
X0086783Y0087481D01*
X0089336Y0090035D01*
X0115951Y0090035D01*
X0115951Y0088576D01*
X0116418Y0088109D01*
X0119885Y0088109D01*
X0119885Y0087988D02*
X0087289Y0087988D01*
X0087681Y0088380D02*
X0116147Y0088380D01*
X0115951Y0088772D02*
X0088073Y0088772D01*
X0088466Y0089164D02*
X0115951Y0089164D01*
X0115951Y0089556D02*
X0088858Y0089556D01*
X0089250Y0089949D02*
X0115951Y0089949D01*
X0119885Y0087595D02*
X0086897Y0087595D01*
X0089618Y0087203D02*
X0119885Y0087203D01*
X0119885Y0086811D02*
X0089806Y0086811D01*
X0089819Y0083281D02*
X0087082Y0083281D01*
X0086690Y0082889D02*
X0089561Y0082889D01*
X0089486Y0082497D02*
X0086298Y0082497D01*
X0085906Y0082104D02*
X0089486Y0082104D01*
X0089486Y0081712D02*
X0079078Y0081712D01*
X0079078Y0081320D02*
X0089486Y0081320D01*
X0089536Y0080928D02*
X0087052Y0080928D01*
X0087185Y0080851D02*
X0086912Y0081008D01*
X0086608Y0081090D01*
X0084679Y0081090D01*
X0084679Y0078121D01*
X0087647Y0078121D01*
X0087647Y0080051D01*
X0087566Y0080355D01*
X0087408Y0080628D01*
X0087185Y0080851D01*
X0087461Y0080536D02*
X0089725Y0080536D01*
X0089886Y0080143D02*
X0087622Y0080143D01*
X0087647Y0079751D02*
X0089886Y0079751D01*
X0089886Y0079359D02*
X0087647Y0079359D01*
X0087647Y0078967D02*
X0089891Y0078967D01*
X0089886Y0078575D02*
X0087647Y0078575D01*
X0087647Y0078182D02*
X0089886Y0078182D01*
X0089886Y0077790D02*
X0084679Y0077790D01*
X0084679Y0077728D02*
X0084679Y0078121D01*
X0084285Y0078121D01*
X0084285Y0077728D01*
X0081317Y0077728D01*
X0081317Y0075798D01*
X0081398Y0075494D01*
X0081556Y0075221D01*
X0081778Y0074998D01*
X0082051Y0074841D01*
X0082356Y0074759D01*
X0084285Y0074759D01*
X0084285Y0077728D01*
X0084679Y0077728D01*
X0087647Y0077728D01*
X0087647Y0075798D01*
X0087566Y0075494D01*
X0087408Y0075221D01*
X0087185Y0074998D01*
X0086912Y0074841D01*
X0086608Y0074759D01*
X0084679Y0074759D01*
X0084679Y0077728D01*
X0084679Y0077398D02*
X0084285Y0077398D01*
X0084285Y0077790D02*
X0079478Y0077790D01*
X0079478Y0077398D02*
X0081317Y0077398D01*
X0081317Y0077006D02*
X0079432Y0077006D01*
X0079247Y0076613D02*
X0081317Y0076613D01*
X0081317Y0076221D02*
X0079078Y0076221D01*
X0079078Y0075829D02*
X0081317Y0075829D01*
X0081431Y0075437D02*
X0079078Y0075437D01*
X0079078Y0075045D02*
X0081732Y0075045D01*
X0084285Y0075045D02*
X0084679Y0075045D01*
X0084679Y0075437D02*
X0084285Y0075437D01*
X0084285Y0075829D02*
X0084679Y0075829D01*
X0084679Y0076221D02*
X0084285Y0076221D01*
X0084285Y0076613D02*
X0084679Y0076613D01*
X0084679Y0077006D02*
X0084285Y0077006D01*
X0084285Y0078121D02*
X0081317Y0078121D01*
X0081317Y0080051D01*
X0081398Y0080355D01*
X0081556Y0080628D01*
X0081778Y0080851D01*
X0082051Y0081008D01*
X0082356Y0081090D01*
X0084285Y0081090D01*
X0084285Y0078121D01*
X0084285Y0078182D02*
X0084679Y0078182D01*
X0084679Y0078575D02*
X0084285Y0078575D01*
X0084285Y0078967D02*
X0084679Y0078967D01*
X0084679Y0079359D02*
X0084285Y0079359D01*
X0084285Y0079751D02*
X0084679Y0079751D01*
X0084679Y0080143D02*
X0084285Y0080143D01*
X0084285Y0080536D02*
X0084679Y0080536D01*
X0084679Y0080928D02*
X0084285Y0080928D01*
X0081912Y0080928D02*
X0079065Y0080928D01*
X0079078Y0080536D02*
X0081502Y0080536D01*
X0081341Y0080143D02*
X0079078Y0080143D01*
X0079078Y0079751D02*
X0081317Y0079751D01*
X0081317Y0079359D02*
X0079130Y0079359D01*
X0079399Y0078967D02*
X0081317Y0078967D01*
X0081317Y0078575D02*
X0079478Y0078575D01*
X0079478Y0078182D02*
X0081317Y0078182D01*
X0079078Y0074652D02*
X0089712Y0074652D01*
X0089886Y0074260D02*
X0079078Y0074260D01*
X0079078Y0073868D02*
X0089886Y0073868D01*
X0089886Y0073476D02*
X0079078Y0073476D01*
X0079078Y0073084D02*
X0089886Y0073084D01*
X0090261Y0072691D02*
X0087759Y0072691D01*
X0086549Y0072691D02*
X0086352Y0072691D01*
X0086352Y0072299D02*
X0086549Y0072299D01*
X0086549Y0071907D02*
X0086352Y0071907D01*
X0086352Y0071515D02*
X0086549Y0071515D01*
X0086549Y0071122D02*
X0086352Y0071122D01*
X0086352Y0070730D02*
X0086549Y0070730D01*
X0086549Y0070346D02*
X0086549Y0067968D01*
X0087198Y0067968D01*
X0087503Y0068049D01*
X0087776Y0068207D01*
X0087937Y0068368D01*
X0088950Y0068368D01*
X0088950Y0067901D01*
X0085774Y0067901D01*
X0085774Y0067968D01*
X0086352Y0067968D01*
X0086352Y0070346D01*
X0086549Y0070346D01*
X0086549Y0070338D02*
X0086352Y0070338D01*
X0086352Y0069946D02*
X0086549Y0069946D01*
X0086549Y0069554D02*
X0086352Y0069554D01*
X0086352Y0069161D02*
X0086549Y0069161D01*
X0086549Y0068769D02*
X0086352Y0068769D01*
X0086352Y0068377D02*
X0086549Y0068377D01*
X0086549Y0067985D02*
X0086352Y0067985D01*
X0087262Y0067985D02*
X0088950Y0067985D01*
X0089806Y0071907D02*
X0090665Y0071907D01*
X0090665Y0072299D02*
X0089561Y0072299D01*
X0089530Y0075045D02*
X0087232Y0075045D01*
X0087533Y0075437D02*
X0089486Y0075437D01*
X0089486Y0075829D02*
X0087647Y0075829D01*
X0087647Y0076221D02*
X0089486Y0076221D01*
X0089486Y0076613D02*
X0087647Y0076613D01*
X0087647Y0077006D02*
X0089567Y0077006D01*
X0089841Y0077398D02*
X0087647Y0077398D01*
X0092061Y0076054D02*
X0094439Y0076054D01*
X0094439Y0076628D01*
X0096997Y0076628D01*
X0096997Y0074735D01*
X0097757Y0073976D01*
X0112697Y0073976D01*
X0112697Y0065683D01*
X0112404Y0065683D01*
X0112446Y0065837D01*
X0112446Y0068160D01*
X0109871Y0068160D01*
X0109871Y0068554D01*
X0109477Y0068554D01*
X0109477Y0071916D01*
X0107942Y0071916D01*
X0107637Y0071834D01*
X0107364Y0071677D01*
X0107141Y0071454D01*
X0106984Y0071181D01*
X0106902Y0070877D01*
X0106902Y0068554D01*
X0109477Y0068554D01*
X0109477Y0068160D01*
X0106902Y0068160D01*
X0106902Y0065837D01*
X0106944Y0065683D01*
X0104959Y0065683D01*
X0104959Y0071049D01*
X0104492Y0071516D01*
X0100683Y0071516D01*
X0100216Y0071049D01*
X0100216Y0069654D01*
X0093259Y0069654D01*
X0093259Y0072600D01*
X0093572Y0072600D01*
X0094039Y0073067D01*
X0094039Y0074470D01*
X0094199Y0074631D01*
X0094357Y0074904D01*
X0094439Y0075208D01*
X0094439Y0075858D01*
X0092061Y0075858D01*
X0092061Y0076054D01*
X0094439Y0076221D02*
X0096997Y0076221D01*
X0096997Y0075829D02*
X0094439Y0075829D01*
X0094439Y0075437D02*
X0096997Y0075437D01*
X0096997Y0075045D02*
X0094395Y0075045D01*
X0094212Y0074652D02*
X0097080Y0074652D01*
X0097472Y0074260D02*
X0094039Y0074260D01*
X0094039Y0073868D02*
X0112697Y0073868D01*
X0112697Y0073476D02*
X0094039Y0073476D01*
X0094039Y0073084D02*
X0112697Y0073084D01*
X0112697Y0072691D02*
X0093663Y0072691D01*
X0093259Y0072299D02*
X0112697Y0072299D01*
X0112697Y0071907D02*
X0111440Y0071907D01*
X0111406Y0071916D02*
X0109871Y0071916D01*
X0109871Y0068554D01*
X0112446Y0068554D01*
X0112446Y0070877D01*
X0112364Y0071181D01*
X0112207Y0071454D01*
X0111984Y0071677D01*
X0111711Y0071834D01*
X0111406Y0071916D01*
X0112146Y0071515D02*
X0112697Y0071515D01*
X0112697Y0071122D02*
X0112380Y0071122D01*
X0112446Y0070730D02*
X0112697Y0070730D01*
X0112697Y0070338D02*
X0112446Y0070338D01*
X0112446Y0069946D02*
X0112697Y0069946D01*
X0112697Y0069554D02*
X0112446Y0069554D01*
X0112446Y0069161D02*
X0112697Y0069161D01*
X0112697Y0068769D02*
X0112446Y0068769D01*
X0112697Y0068377D02*
X0109871Y0068377D01*
X0109871Y0068769D02*
X0109477Y0068769D01*
X0109477Y0068377D02*
X0104959Y0068377D01*
X0104959Y0068769D02*
X0106902Y0068769D01*
X0106902Y0069161D02*
X0104959Y0069161D01*
X0104959Y0069554D02*
X0106902Y0069554D01*
X0106902Y0069946D02*
X0104959Y0069946D01*
X0104959Y0070338D02*
X0106902Y0070338D01*
X0106902Y0070730D02*
X0104959Y0070730D01*
X0104886Y0071122D02*
X0106968Y0071122D01*
X0107202Y0071515D02*
X0104494Y0071515D01*
X0107908Y0071907D02*
X0093259Y0071907D01*
X0093259Y0071515D02*
X0100681Y0071515D01*
X0100289Y0071122D02*
X0093259Y0071122D01*
X0093259Y0070730D02*
X0100216Y0070730D01*
X0100216Y0070338D02*
X0093259Y0070338D01*
X0093259Y0069946D02*
X0100216Y0069946D01*
X0104959Y0067985D02*
X0106902Y0067985D01*
X0106902Y0067593D02*
X0104959Y0067593D01*
X0104959Y0067200D02*
X0106902Y0067200D01*
X0106902Y0066808D02*
X0104959Y0066808D01*
X0104959Y0066416D02*
X0106902Y0066416D01*
X0106902Y0066024D02*
X0104959Y0066024D01*
X0109477Y0069161D02*
X0109871Y0069161D01*
X0109871Y0069554D02*
X0109477Y0069554D01*
X0109477Y0069946D02*
X0109871Y0069946D01*
X0109871Y0070338D02*
X0109477Y0070338D01*
X0109477Y0070730D02*
X0109871Y0070730D01*
X0109871Y0071122D02*
X0109477Y0071122D01*
X0109477Y0071515D02*
X0109871Y0071515D01*
X0109871Y0071907D02*
X0109477Y0071907D01*
X0112446Y0067985D02*
X0112697Y0067985D01*
X0112697Y0067593D02*
X0112446Y0067593D01*
X0112446Y0067200D02*
X0112697Y0067200D01*
X0112697Y0066808D02*
X0112446Y0066808D01*
X0112446Y0066416D02*
X0112697Y0066416D01*
X0112697Y0066024D02*
X0112446Y0066024D01*
X0114720Y0063278D02*
X0155145Y0063278D01*
X0154980Y0062886D02*
X0089438Y0062886D01*
X0089438Y0062494D02*
X0154814Y0062494D01*
X0154649Y0062102D02*
X0089438Y0062102D01*
X0089334Y0061709D02*
X0091950Y0061709D01*
X0091814Y0061573D02*
X0091814Y0056189D01*
X0092097Y0055906D01*
X0091822Y0055631D01*
X0091822Y0050247D01*
X0092288Y0049780D01*
X0096098Y0049780D01*
X0096565Y0050247D01*
X0096565Y0055631D01*
X0096282Y0055914D01*
X0096557Y0056189D01*
X0096557Y0061573D01*
X0096090Y0062040D01*
X0092281Y0062040D01*
X0091814Y0061573D01*
X0091814Y0061317D02*
X0089470Y0061317D01*
X0089470Y0060925D02*
X0091814Y0060925D01*
X0091814Y0060533D02*
X0089470Y0060533D01*
X0089470Y0060141D02*
X0091814Y0060141D01*
X0091814Y0059748D02*
X0089470Y0059748D01*
X0089470Y0059356D02*
X0091814Y0059356D01*
X0091814Y0058964D02*
X0089470Y0058964D01*
X0089470Y0058572D02*
X0091814Y0058572D01*
X0091814Y0058179D02*
X0089470Y0058179D01*
X0089470Y0057787D02*
X0091814Y0057787D01*
X0091814Y0057395D02*
X0089470Y0057395D01*
X0089470Y0057003D02*
X0091814Y0057003D01*
X0091814Y0056611D02*
X0089470Y0056611D01*
X0089470Y0056218D02*
X0091814Y0056218D01*
X0092017Y0055826D02*
X0089283Y0055826D01*
X0089478Y0055434D02*
X0091822Y0055434D01*
X0091822Y0055042D02*
X0089478Y0055042D01*
X0089478Y0054650D02*
X0091822Y0054650D01*
X0091822Y0054257D02*
X0089478Y0054257D01*
X0089478Y0053865D02*
X0091822Y0053865D01*
X0091822Y0053473D02*
X0089478Y0053473D01*
X0089478Y0053081D02*
X0091822Y0053081D01*
X0091822Y0052689D02*
X0089478Y0052689D01*
X0089478Y0052296D02*
X0091822Y0052296D01*
X0091822Y0051904D02*
X0089478Y0051904D01*
X0089478Y0051512D02*
X0091822Y0051512D01*
X0091822Y0051120D02*
X0089478Y0051120D01*
X0089478Y0050727D02*
X0091822Y0050727D01*
X0091822Y0050335D02*
X0089478Y0050335D01*
X0089175Y0049943D02*
X0092125Y0049943D01*
X0092731Y0049159D02*
X0146475Y0049159D01*
X0146783Y0049551D02*
X0088691Y0049551D01*
X0085497Y0049551D02*
X0077724Y0049551D01*
X0077799Y0049594D02*
X0078022Y0049817D01*
X0078180Y0050090D01*
X0078261Y0050394D01*
X0078261Y0052717D01*
X0075687Y0052717D01*
X0075687Y0053111D01*
X0078261Y0053111D01*
X0078261Y0055434D01*
X0080205Y0055434D01*
X0080205Y0055042D02*
X0078261Y0055042D01*
X0078261Y0055434D02*
X0078180Y0055738D01*
X0078022Y0056011D01*
X0077799Y0056234D01*
X0077527Y0056391D01*
X0077222Y0056473D01*
X0075687Y0056473D01*
X0075687Y0053111D01*
X0075293Y0053111D01*
X0075293Y0056473D01*
X0073757Y0056473D01*
X0073453Y0056391D01*
X0073180Y0056234D01*
X0072957Y0056011D01*
X0072800Y0055738D01*
X0072718Y0055434D01*
X0070815Y0055434D01*
X0070815Y0055826D02*
X0072850Y0055826D01*
X0072718Y0055434D02*
X0072718Y0053111D01*
X0075293Y0053111D01*
X0075293Y0052717D01*
X0075687Y0052717D01*
X0075687Y0049355D01*
X0077222Y0049355D01*
X0077527Y0049437D01*
X0077799Y0049594D01*
X0078095Y0049943D02*
X0080483Y0049943D01*
X0080205Y0050335D02*
X0078246Y0050335D01*
X0078261Y0050727D02*
X0080205Y0050727D01*
X0080205Y0051120D02*
X0078261Y0051120D01*
X0078261Y0051512D02*
X0080205Y0051512D01*
X0080205Y0051904D02*
X0078261Y0051904D01*
X0078261Y0052296D02*
X0080205Y0052296D01*
X0080205Y0052689D02*
X0078261Y0052689D01*
X0078261Y0053473D02*
X0080205Y0053473D01*
X0080205Y0053865D02*
X0078261Y0053865D01*
X0078261Y0054257D02*
X0080205Y0054257D01*
X0080205Y0054650D02*
X0078261Y0054650D01*
X0078129Y0055826D02*
X0080425Y0055826D01*
X0077815Y0056218D02*
X0084727Y0056218D01*
X0084728Y0055826D02*
X0084930Y0055826D01*
X0084727Y0056611D02*
X0070815Y0056611D01*
X0070815Y0056218D02*
X0073165Y0056218D01*
X0072718Y0055042D02*
X0070815Y0055042D01*
X0070815Y0054650D02*
X0072718Y0054650D01*
X0072718Y0054257D02*
X0070815Y0054257D01*
X0070815Y0053865D02*
X0072718Y0053865D01*
X0072718Y0053473D02*
X0070815Y0053473D01*
X0070815Y0053081D02*
X0075293Y0053081D01*
X0075293Y0052717D02*
X0072718Y0052717D01*
X0072718Y0050394D01*
X0072800Y0050090D01*
X0072957Y0049817D01*
X0073180Y0049594D01*
X0073453Y0049437D01*
X0073757Y0049355D01*
X0075293Y0049355D01*
X0075293Y0052717D01*
X0075293Y0052689D02*
X0075687Y0052689D01*
X0075687Y0053081D02*
X0080205Y0053081D01*
X0081392Y0049159D02*
X0022382Y0049159D01*
X0022072Y0049551D02*
X0073255Y0049551D01*
X0072884Y0049943D02*
X0021763Y0049943D01*
X0021454Y0050335D02*
X0072734Y0050335D01*
X0072718Y0050727D02*
X0063518Y0050727D01*
X0063393Y0050655D02*
X0063666Y0050813D01*
X0063889Y0051036D01*
X0064047Y0051309D01*
X0064128Y0051613D01*
X0064128Y0053936D01*
X0061553Y0053936D01*
X0061553Y0050574D01*
X0063089Y0050574D01*
X0063393Y0050655D01*
X0063937Y0051120D02*
X0066393Y0051120D01*
X0066072Y0051512D02*
X0064101Y0051512D01*
X0064128Y0051904D02*
X0066072Y0051904D01*
X0066072Y0052296D02*
X0064128Y0052296D01*
X0064128Y0052689D02*
X0066072Y0052689D01*
X0066072Y0053081D02*
X0064128Y0053081D01*
X0064128Y0053473D02*
X0066072Y0053473D01*
X0066072Y0053865D02*
X0064128Y0053865D01*
X0064128Y0054330D02*
X0061553Y0054330D01*
X0061160Y0054330D01*
X0061160Y0056616D01*
X0061160Y0059978D01*
X0061553Y0059978D01*
X0061553Y0057692D01*
X0061553Y0054330D01*
X0061553Y0053936D01*
X0061160Y0053936D01*
X0061160Y0050574D01*
X0059624Y0050574D01*
X0059320Y0050655D01*
X0059047Y0050813D01*
X0058824Y0051036D01*
X0058666Y0051309D01*
X0058585Y0051613D01*
X0058585Y0053936D01*
X0061160Y0053936D01*
X0061160Y0054330D01*
X0058585Y0054330D01*
X0058585Y0056653D01*
X0058666Y0056957D01*
X0058780Y0057154D01*
X0058667Y0057350D01*
X0058585Y0057655D01*
X0058585Y0059978D01*
X0061160Y0059978D01*
X0061160Y0060371D01*
X0058585Y0060371D01*
X0058585Y0062694D01*
X0058667Y0062999D01*
X0058824Y0063272D01*
X0059047Y0063495D01*
X0059320Y0063652D01*
X0059624Y0063734D01*
X0061160Y0063734D01*
X0061160Y0060372D01*
X0061553Y0060372D01*
X0061553Y0063734D01*
X0063089Y0063734D01*
X0063393Y0063652D01*
X0063666Y0063495D01*
X0063889Y0063272D01*
X0064047Y0062999D01*
X0064128Y0062694D01*
X0064128Y0060371D01*
X0061553Y0060371D01*
X0061553Y0059978D01*
X0064128Y0059978D01*
X0064128Y0057655D01*
X0064047Y0057350D01*
X0063933Y0057154D01*
X0064047Y0056957D01*
X0064128Y0056653D01*
X0064128Y0054330D01*
X0064128Y0054650D02*
X0066072Y0054650D01*
X0066072Y0055042D02*
X0064128Y0055042D01*
X0064128Y0055434D02*
X0066072Y0055434D01*
X0066072Y0055826D02*
X0064128Y0055826D01*
X0064128Y0056218D02*
X0066072Y0056218D01*
X0066072Y0056611D02*
X0064128Y0056611D01*
X0064020Y0057003D02*
X0066249Y0057003D01*
X0066159Y0057395D02*
X0064059Y0057395D01*
X0064128Y0057787D02*
X0066072Y0057787D01*
X0066072Y0058179D02*
X0064128Y0058179D01*
X0064128Y0058572D02*
X0066072Y0058572D01*
X0066072Y0058964D02*
X0064128Y0058964D01*
X0064128Y0059356D02*
X0066072Y0059356D01*
X0066072Y0059748D02*
X0064128Y0059748D01*
X0064128Y0060533D02*
X0066072Y0060533D01*
X0066072Y0060925D02*
X0064128Y0060925D01*
X0064128Y0061317D02*
X0066072Y0061317D01*
X0066072Y0061709D02*
X0064128Y0061709D01*
X0064128Y0062102D02*
X0066072Y0062102D01*
X0066072Y0062494D02*
X0064128Y0062494D01*
X0064077Y0062886D02*
X0066091Y0062886D01*
X0066281Y0063278D02*
X0063883Y0063278D01*
X0063325Y0063670D02*
X0066057Y0063670D01*
X0066057Y0064063D02*
X0047017Y0064063D01*
X0047017Y0064455D02*
X0066057Y0064455D01*
X0066057Y0064847D02*
X0047017Y0064847D01*
X0047017Y0065239D02*
X0066057Y0065239D01*
X0066057Y0065632D02*
X0047017Y0065632D01*
X0047017Y0066024D02*
X0066057Y0066024D01*
X0066057Y0066416D02*
X0047017Y0066416D01*
X0047017Y0066808D02*
X0066057Y0066808D01*
X0066057Y0067200D02*
X0047017Y0067200D01*
X0044423Y0067200D02*
X0012098Y0067200D01*
X0012264Y0066808D02*
X0044423Y0066808D01*
X0044423Y0066416D02*
X0036536Y0066416D01*
X0036616Y0066336D02*
X0036393Y0066559D01*
X0036120Y0066716D01*
X0035816Y0066798D01*
X0033493Y0066798D01*
X0033493Y0064223D01*
X0036855Y0064223D01*
X0036855Y0065759D01*
X0036774Y0066063D01*
X0036616Y0066336D01*
X0036784Y0066024D02*
X0044423Y0066024D01*
X0044423Y0065632D02*
X0036855Y0065632D01*
X0036855Y0065239D02*
X0044423Y0065239D01*
X0044423Y0064847D02*
X0036855Y0064847D01*
X0036855Y0064455D02*
X0044423Y0064455D01*
X0044423Y0064063D02*
X0033493Y0064063D01*
X0033493Y0064223D02*
X0033493Y0063829D01*
X0033493Y0061255D01*
X0035816Y0061255D01*
X0036120Y0061336D01*
X0036393Y0061494D01*
X0036616Y0061717D01*
X0036774Y0061989D01*
X0036855Y0062294D01*
X0036855Y0063829D01*
X0033493Y0063829D01*
X0033099Y0063829D01*
X0033099Y0061255D01*
X0030776Y0061255D01*
X0030472Y0061336D01*
X0030199Y0061494D01*
X0029976Y0061717D01*
X0029819Y0061989D01*
X0029737Y0062294D01*
X0029737Y0063829D01*
X0033099Y0063829D01*
X0033099Y0064223D01*
X0029737Y0064223D01*
X0029737Y0065759D01*
X0029819Y0066063D01*
X0029976Y0066336D01*
X0030199Y0066559D01*
X0030472Y0066716D01*
X0030776Y0066798D01*
X0033099Y0066798D01*
X0033099Y0064223D01*
X0033493Y0064223D01*
X0033493Y0064455D02*
X0033099Y0064455D01*
X0033099Y0064847D02*
X0033493Y0064847D01*
X0033493Y0065239D02*
X0033099Y0065239D01*
X0033099Y0065632D02*
X0033493Y0065632D01*
X0033493Y0066024D02*
X0033099Y0066024D01*
X0033099Y0066416D02*
X0033493Y0066416D01*
X0033493Y0067948D02*
X0035816Y0067948D01*
X0036120Y0068029D01*
X0036393Y0068187D01*
X0036616Y0068409D01*
X0036774Y0068682D01*
X0036855Y0068987D01*
X0036855Y0070522D01*
X0033493Y0070522D01*
X0033493Y0067948D01*
X0033493Y0067985D02*
X0033099Y0067985D01*
X0033099Y0067948D02*
X0033099Y0070522D01*
X0033493Y0070522D01*
X0033493Y0070916D01*
X0036855Y0070916D01*
X0036855Y0072452D01*
X0036774Y0072756D01*
X0036616Y0073029D01*
X0036393Y0073252D01*
X0036120Y0073409D01*
X0035816Y0073491D01*
X0033493Y0073491D01*
X0033493Y0070916D01*
X0033099Y0070916D01*
X0033099Y0070522D01*
X0029737Y0070522D01*
X0029737Y0068987D01*
X0029819Y0068682D01*
X0029976Y0068409D01*
X0030199Y0068187D01*
X0030472Y0068029D01*
X0030776Y0067948D01*
X0033099Y0067948D01*
X0033099Y0068377D02*
X0033493Y0068377D01*
X0033493Y0068769D02*
X0033099Y0068769D01*
X0033099Y0069161D02*
X0033493Y0069161D01*
X0033493Y0069554D02*
X0033099Y0069554D01*
X0033099Y0069946D02*
X0033493Y0069946D01*
X0033493Y0070338D02*
X0033099Y0070338D01*
X0033099Y0070730D02*
X0027434Y0070730D01*
X0027434Y0070338D02*
X0029737Y0070338D01*
X0029737Y0069946D02*
X0027434Y0069946D01*
X0027434Y0069554D02*
X0029737Y0069554D01*
X0029737Y0069161D02*
X0027434Y0069161D01*
X0027221Y0068769D02*
X0029795Y0068769D01*
X0030009Y0068377D02*
X0011601Y0068377D01*
X0011767Y0067985D02*
X0030637Y0067985D01*
X0030056Y0066416D02*
X0012430Y0066416D01*
X0012596Y0066024D02*
X0021434Y0066024D01*
X0021116Y0065632D02*
X0012762Y0065632D01*
X0012928Y0065239D02*
X0021116Y0065239D01*
X0021116Y0064847D02*
X0013094Y0064847D01*
X0013259Y0064455D02*
X0021116Y0064455D01*
X0021116Y0064063D02*
X0013425Y0064063D01*
X0013591Y0063670D02*
X0021116Y0063670D01*
X0021116Y0063278D02*
X0013757Y0063278D01*
X0013923Y0062886D02*
X0021116Y0062886D01*
X0021116Y0062494D02*
X0014089Y0062494D01*
X0014255Y0062102D02*
X0021116Y0062102D01*
X0021303Y0061709D02*
X0014420Y0061709D01*
X0014586Y0061317D02*
X0023335Y0061317D01*
X0023498Y0060925D02*
X0014789Y0060925D01*
X0015021Y0060533D02*
X0023660Y0060533D01*
X0023823Y0060141D02*
X0015253Y0060141D01*
X0015485Y0059748D02*
X0023985Y0059748D01*
X0024147Y0059356D02*
X0015717Y0059356D01*
X0015949Y0058964D02*
X0024436Y0058964D01*
X0024220Y0059180D02*
X0024220Y0059180D01*
X0024829Y0058572D02*
X0016180Y0058572D01*
X0016412Y0058179D02*
X0025221Y0058179D01*
X0025613Y0057787D02*
X0016644Y0057787D01*
X0016876Y0057395D02*
X0026005Y0057395D01*
X0026397Y0057003D02*
X0017108Y0057003D01*
X0017340Y0056611D02*
X0027177Y0056611D01*
X0028124Y0056218D02*
X0017572Y0056218D01*
X0017803Y0055826D02*
X0029071Y0055826D01*
X0030137Y0055434D02*
X0018035Y0055434D01*
X0018267Y0055042D02*
X0030137Y0055042D01*
X0030522Y0054650D02*
X0018499Y0054650D01*
X0018731Y0054257D02*
X0061160Y0054257D01*
X0061160Y0053865D02*
X0061553Y0053865D01*
X0061553Y0053473D02*
X0061160Y0053473D01*
X0061160Y0053081D02*
X0061553Y0053081D01*
X0061553Y0052689D02*
X0061160Y0052689D01*
X0061160Y0052296D02*
X0061553Y0052296D01*
X0061553Y0051904D02*
X0061160Y0051904D01*
X0061160Y0051512D02*
X0061553Y0051512D01*
X0061553Y0051120D02*
X0061160Y0051120D01*
X0061160Y0050727D02*
X0061553Y0050727D01*
X0059195Y0050727D02*
X0021145Y0050727D01*
X0020835Y0051120D02*
X0058776Y0051120D01*
X0058612Y0051512D02*
X0020526Y0051512D01*
X0020217Y0051904D02*
X0058585Y0051904D01*
X0058585Y0052296D02*
X0019908Y0052296D01*
X0019658Y0052689D02*
X0058585Y0052689D01*
X0058585Y0053081D02*
X0019426Y0053081D01*
X0019194Y0053473D02*
X0058585Y0053473D01*
X0058585Y0053865D02*
X0018963Y0053865D01*
X0026687Y0060533D02*
X0044423Y0060533D01*
X0044423Y0060925D02*
X0026421Y0060925D01*
X0026258Y0061317D02*
X0030543Y0061317D01*
X0029983Y0061709D02*
X0027247Y0061709D01*
X0027434Y0062102D02*
X0029789Y0062102D01*
X0029737Y0062494D02*
X0027434Y0062494D01*
X0027434Y0062886D02*
X0029737Y0062886D01*
X0029737Y0063278D02*
X0027434Y0063278D01*
X0027434Y0063670D02*
X0029737Y0063670D01*
X0029737Y0064455D02*
X0027434Y0064455D01*
X0027434Y0064847D02*
X0029737Y0064847D01*
X0029737Y0065239D02*
X0027434Y0065239D01*
X0027434Y0065632D02*
X0029737Y0065632D01*
X0029808Y0066024D02*
X0027117Y0066024D01*
X0027434Y0064063D02*
X0033099Y0064063D01*
X0033099Y0063670D02*
X0033493Y0063670D01*
X0033493Y0063278D02*
X0033099Y0063278D01*
X0033099Y0062886D02*
X0033493Y0062886D01*
X0033493Y0062494D02*
X0033099Y0062494D01*
X0033099Y0062102D02*
X0033493Y0062102D01*
X0033493Y0061709D02*
X0033099Y0061709D01*
X0033099Y0061317D02*
X0033493Y0061317D01*
X0036049Y0061317D02*
X0044423Y0061317D01*
X0044423Y0061709D02*
X0036609Y0061709D01*
X0036804Y0062102D02*
X0044423Y0062102D01*
X0044423Y0062494D02*
X0036855Y0062494D01*
X0036855Y0062886D02*
X0044423Y0062886D01*
X0044423Y0063278D02*
X0036855Y0063278D01*
X0036855Y0063670D02*
X0044423Y0063670D01*
X0047017Y0063670D02*
X0059388Y0063670D01*
X0058831Y0063278D02*
X0047017Y0063278D01*
X0047017Y0062886D02*
X0058636Y0062886D01*
X0058585Y0062494D02*
X0047017Y0062494D01*
X0047017Y0062102D02*
X0058585Y0062102D01*
X0058585Y0061709D02*
X0047017Y0061709D01*
X0047017Y0061317D02*
X0058585Y0061317D01*
X0058585Y0060925D02*
X0047017Y0060925D01*
X0047017Y0060533D02*
X0058585Y0060533D01*
X0058585Y0059748D02*
X0047017Y0059748D01*
X0047017Y0059356D02*
X0058585Y0059356D01*
X0058585Y0058964D02*
X0047017Y0058964D01*
X0047017Y0058572D02*
X0058585Y0058572D01*
X0058585Y0058179D02*
X0047017Y0058179D01*
X0047017Y0057787D02*
X0058585Y0057787D01*
X0058655Y0057395D02*
X0047017Y0057395D01*
X0047017Y0057003D02*
X0058693Y0057003D01*
X0058585Y0056611D02*
X0047017Y0056611D01*
X0046984Y0056218D02*
X0058585Y0056218D01*
X0058585Y0055826D02*
X0046591Y0055826D01*
X0044423Y0058179D02*
X0036455Y0058179D01*
X0036455Y0058572D02*
X0044423Y0058572D01*
X0044423Y0058964D02*
X0036336Y0058964D01*
X0036455Y0055434D02*
X0058585Y0055434D01*
X0058585Y0055042D02*
X0036455Y0055042D01*
X0036070Y0054650D02*
X0058585Y0054650D01*
X0061160Y0054650D02*
X0061553Y0054650D01*
X0061553Y0055042D02*
X0061160Y0055042D01*
X0061160Y0055434D02*
X0061553Y0055434D01*
X0061553Y0055826D02*
X0061160Y0055826D01*
X0061160Y0056218D02*
X0061553Y0056218D01*
X0061553Y0056611D02*
X0061160Y0056611D01*
X0061160Y0056616D02*
X0061160Y0056616D01*
X0061160Y0057003D02*
X0061553Y0057003D01*
X0061553Y0057395D02*
X0061160Y0057395D01*
X0061160Y0057787D02*
X0061553Y0057787D01*
X0061553Y0057692D02*
X0061553Y0057692D01*
X0061553Y0058179D02*
X0061160Y0058179D01*
X0061160Y0058572D02*
X0061553Y0058572D01*
X0061553Y0058964D02*
X0061160Y0058964D01*
X0061160Y0059356D02*
X0061553Y0059356D01*
X0061553Y0059748D02*
X0061160Y0059748D01*
X0061160Y0060141D02*
X0047017Y0060141D01*
X0044423Y0060141D02*
X0027079Y0060141D01*
X0027471Y0059748D02*
X0044423Y0059748D01*
X0044423Y0059356D02*
X0027863Y0059356D01*
X0028553Y0058964D02*
X0030256Y0058964D01*
X0030137Y0058572D02*
X0029500Y0058572D01*
X0035955Y0067985D02*
X0044416Y0067985D01*
X0044416Y0068377D02*
X0036584Y0068377D01*
X0036797Y0068769D02*
X0044416Y0068769D01*
X0044416Y0069161D02*
X0036855Y0069161D01*
X0036855Y0069554D02*
X0044416Y0069554D01*
X0044423Y0067593D02*
X0011933Y0067593D01*
X0011435Y0068769D02*
X0021330Y0068769D01*
X0021116Y0069161D02*
X0011269Y0069161D01*
X0011103Y0069554D02*
X0021116Y0069554D01*
X0021116Y0069946D02*
X0010937Y0069946D01*
X0010772Y0070338D02*
X0021116Y0070338D01*
X0021116Y0070730D02*
X0010637Y0070730D01*
X0010530Y0071122D02*
X0021116Y0071122D01*
X0021116Y0071515D02*
X0010423Y0071515D01*
X0010317Y0071907D02*
X0021116Y0071907D01*
X0021116Y0072299D02*
X0010210Y0072299D01*
X0010103Y0072691D02*
X0021116Y0072691D01*
X0021407Y0073084D02*
X0009996Y0073084D01*
X0009889Y0073476D02*
X0023374Y0073476D01*
X0023536Y0073868D02*
X0009782Y0073868D01*
X0009675Y0074260D02*
X0023699Y0074260D01*
X0023861Y0074652D02*
X0009568Y0074652D01*
X0009461Y0075045D02*
X0024023Y0075045D01*
X0024186Y0075437D02*
X0009354Y0075437D01*
X0009247Y0075829D02*
X0024517Y0075829D01*
X0024229Y0075541D02*
X0024229Y0075541D01*
X0024909Y0076221D02*
X0009140Y0076221D01*
X0009033Y0076613D02*
X0011576Y0076613D01*
X0010629Y0077006D02*
X0008926Y0077006D01*
X0008819Y0077398D02*
X0009758Y0077398D01*
X0009366Y0077790D02*
X0008712Y0077790D01*
X0008605Y0078182D02*
X0008974Y0078182D01*
X0008582Y0078575D02*
X0008498Y0078575D01*
X0007833Y0082889D02*
X0007677Y0082889D01*
X0007625Y0083281D02*
X0007996Y0083281D01*
X0008158Y0083673D02*
X0007573Y0083673D01*
X0007521Y0084065D02*
X0008321Y0084065D01*
X0008566Y0084458D02*
X0007468Y0084458D01*
X0007416Y0084850D02*
X0008958Y0084850D01*
X0009350Y0085242D02*
X0007364Y0085242D01*
X0007312Y0085634D02*
X0009742Y0085634D01*
X0010590Y0086027D02*
X0007259Y0086027D01*
X0007207Y0086419D02*
X0011537Y0086419D01*
X0008494Y0087614D02*
X0016634Y0087614D01*
X0017101Y0088081D01*
X0017101Y0094647D01*
X0016634Y0095114D01*
X0008494Y0095114D01*
X0008027Y0094647D01*
X0008027Y0088081D01*
X0008494Y0087614D01*
X0008121Y0087988D02*
X0006998Y0087988D01*
X0006946Y0088380D02*
X0008027Y0088380D01*
X0008027Y0088772D02*
X0006894Y0088772D01*
X0006841Y0089164D02*
X0008027Y0089164D01*
X0008027Y0089556D02*
X0006789Y0089556D01*
X0006737Y0089949D02*
X0008027Y0089949D01*
X0008027Y0090341D02*
X0006685Y0090341D01*
X0006674Y0090733D02*
X0008027Y0090733D01*
X0008027Y0091125D02*
X0006674Y0091125D01*
X0006675Y0091518D02*
X0008027Y0091518D01*
X0008027Y0091910D02*
X0006675Y0091910D01*
X0006676Y0092302D02*
X0008027Y0092302D01*
X0008027Y0092694D02*
X0006676Y0092694D01*
X0006677Y0093086D02*
X0008027Y0093086D01*
X0008027Y0093479D02*
X0006678Y0093479D01*
X0006678Y0093871D02*
X0008027Y0093871D01*
X0008027Y0094263D02*
X0006679Y0094263D01*
X0006679Y0094655D02*
X0008036Y0094655D01*
X0008428Y0095047D02*
X0006680Y0095047D01*
X0006680Y0095440D02*
X0017585Y0095440D01*
X0017585Y0095832D02*
X0016978Y0095832D01*
X0017101Y0095955D02*
X0016634Y0095489D01*
X0008494Y0095489D01*
X0008027Y0095955D01*
X0008027Y0102521D01*
X0008494Y0102988D01*
X0016634Y0102988D01*
X0017101Y0102521D01*
X0017101Y0095955D01*
X0017101Y0096224D02*
X0017585Y0096224D01*
X0017585Y0096616D02*
X0017101Y0096616D01*
X0017101Y0097008D02*
X0017585Y0097008D01*
X0017585Y0097401D02*
X0017101Y0097401D01*
X0017101Y0097793D02*
X0017585Y0097793D01*
X0017585Y0098185D02*
X0017101Y0098185D01*
X0017101Y0098577D02*
X0017585Y0098577D01*
X0017585Y0098970D02*
X0017101Y0098970D01*
X0017101Y0099362D02*
X0017585Y0099362D01*
X0017585Y0099754D02*
X0017101Y0099754D01*
X0017101Y0100146D02*
X0017585Y0100146D01*
X0017585Y0100538D02*
X0017101Y0100538D01*
X0017101Y0100931D02*
X0017585Y0100931D01*
X0017585Y0101323D02*
X0017101Y0101323D01*
X0017101Y0101715D02*
X0017585Y0101715D01*
X0017585Y0102107D02*
X0017101Y0102107D01*
X0017101Y0102499D02*
X0017585Y0102499D01*
X0017585Y0102892D02*
X0016731Y0102892D01*
X0017585Y0103284D02*
X0007052Y0103284D01*
X0007105Y0103676D02*
X0017585Y0103676D01*
X0017585Y0104068D02*
X0007159Y0104068D01*
X0007212Y0104461D02*
X0010864Y0104461D01*
X0009918Y0104853D02*
X0007265Y0104853D01*
X0007319Y0105245D02*
X0009437Y0105245D01*
X0009044Y0105637D02*
X0007372Y0105637D01*
X0007426Y0106029D02*
X0008652Y0106029D01*
X0008330Y0106422D02*
X0007479Y0106422D01*
X0007532Y0106814D02*
X0008167Y0106814D01*
X0008005Y0107206D02*
X0007586Y0107206D01*
X0007639Y0107598D02*
X0007842Y0107598D01*
X0008398Y0102892D02*
X0006999Y0102892D01*
X0006945Y0102499D02*
X0008027Y0102499D01*
X0008027Y0102107D02*
X0006892Y0102107D01*
X0006839Y0101715D02*
X0008027Y0101715D01*
X0008027Y0101323D02*
X0006785Y0101323D01*
X0006732Y0100931D02*
X0008027Y0100931D01*
X0008027Y0100538D02*
X0006687Y0100538D01*
X0006687Y0100146D02*
X0008027Y0100146D01*
X0008027Y0099754D02*
X0006686Y0099754D01*
X0006686Y0099362D02*
X0008027Y0099362D01*
X0008027Y0098970D02*
X0006685Y0098970D01*
X0006685Y0098577D02*
X0008027Y0098577D01*
X0008027Y0098185D02*
X0006684Y0098185D01*
X0006683Y0097793D02*
X0008027Y0097793D01*
X0008027Y0097401D02*
X0006683Y0097401D01*
X0006682Y0097008D02*
X0008027Y0097008D01*
X0008027Y0096616D02*
X0006682Y0096616D01*
X0006681Y0096224D02*
X0008027Y0096224D01*
X0008151Y0095832D02*
X0006681Y0095832D01*
X0007050Y0087595D02*
X0017585Y0087595D01*
X0017585Y0087203D02*
X0007103Y0087203D01*
X0007155Y0086811D02*
X0017585Y0086811D01*
X0017585Y0086419D02*
X0013673Y0086419D01*
X0014620Y0086027D02*
X0017585Y0086027D01*
X0017585Y0085634D02*
X0015468Y0085634D01*
X0015860Y0085242D02*
X0017585Y0085242D01*
X0017585Y0084850D02*
X0016253Y0084850D01*
X0016645Y0084458D02*
X0017585Y0084458D01*
X0017585Y0084065D02*
X0016890Y0084065D01*
X0017052Y0083673D02*
X0017585Y0083673D01*
X0017657Y0083281D02*
X0017214Y0083281D01*
X0017377Y0082889D02*
X0018049Y0082889D01*
X0018442Y0082497D02*
X0017536Y0082497D01*
X0017536Y0082104D02*
X0018834Y0082104D01*
X0019226Y0081712D02*
X0017536Y0081712D01*
X0017536Y0081320D02*
X0019618Y0081320D01*
X0020010Y0080928D02*
X0017536Y0080928D01*
X0017533Y0080536D02*
X0020403Y0080536D01*
X0020795Y0080143D02*
X0017370Y0080143D01*
X0017208Y0079751D02*
X0030178Y0079751D01*
X0030137Y0079359D02*
X0017045Y0079359D01*
X0016883Y0078967D02*
X0029231Y0078967D01*
X0028284Y0078575D02*
X0016628Y0078575D01*
X0016236Y0078182D02*
X0027337Y0078182D01*
X0026478Y0077790D02*
X0015844Y0077790D01*
X0015452Y0077398D02*
X0026086Y0077398D01*
X0025694Y0077006D02*
X0014581Y0077006D01*
X0013634Y0076613D02*
X0025301Y0076613D01*
X0026769Y0074260D02*
X0041176Y0074260D01*
X0041176Y0073868D02*
X0026460Y0073868D01*
X0026298Y0073476D02*
X0030720Y0073476D01*
X0030776Y0073491D02*
X0030472Y0073409D01*
X0030199Y0073252D01*
X0029976Y0073029D01*
X0029819Y0072756D01*
X0029737Y0072452D01*
X0029737Y0070916D01*
X0033099Y0070916D01*
X0033099Y0073491D01*
X0030776Y0073491D01*
X0030031Y0073084D02*
X0027143Y0073084D01*
X0027434Y0072691D02*
X0029801Y0072691D01*
X0029737Y0072299D02*
X0027434Y0072299D01*
X0027434Y0071907D02*
X0029737Y0071907D01*
X0029737Y0071515D02*
X0027434Y0071515D01*
X0027434Y0071122D02*
X0029737Y0071122D01*
X0033099Y0071122D02*
X0033493Y0071122D01*
X0033493Y0070730D02*
X0041176Y0070730D01*
X0041176Y0070338D02*
X0036855Y0070338D01*
X0036855Y0069946D02*
X0041304Y0069946D01*
X0041176Y0071122D02*
X0036855Y0071122D01*
X0036855Y0071515D02*
X0041176Y0071515D01*
X0041176Y0071907D02*
X0036855Y0071907D01*
X0036855Y0072299D02*
X0041176Y0072299D01*
X0041176Y0072691D02*
X0036791Y0072691D01*
X0036561Y0073084D02*
X0041176Y0073084D01*
X0041176Y0073476D02*
X0035872Y0073476D01*
X0035991Y0075437D02*
X0041548Y0075437D01*
X0041176Y0075045D02*
X0027553Y0075045D01*
X0027946Y0075437D02*
X0030601Y0075437D01*
X0030209Y0075829D02*
X0028716Y0075829D01*
X0029663Y0076221D02*
X0030137Y0076221D01*
X0027161Y0074652D02*
X0041176Y0074652D01*
X0041202Y0079103D02*
X0036455Y0079103D01*
X0036455Y0079711D01*
X0035988Y0080177D01*
X0030703Y0080177D01*
X0040910Y0090384D01*
X0040910Y0089733D01*
X0040992Y0089428D01*
X0041149Y0089155D01*
X0041372Y0088933D01*
X0041645Y0088775D01*
X0041949Y0088693D01*
X0044272Y0088693D01*
X0044272Y0091268D01*
X0044666Y0091268D01*
X0044666Y0088693D01*
X0046989Y0088693D01*
X0047293Y0088775D01*
X0047566Y0088933D01*
X0047789Y0089155D01*
X0047947Y0089428D01*
X0048028Y0089733D01*
X0048028Y0091268D01*
X0044666Y0091268D01*
X0044666Y0091662D01*
X0048028Y0091662D01*
X0048028Y0093198D01*
X0047947Y0093502D01*
X0047789Y0093775D01*
X0047566Y0093998D01*
X0047293Y0094155D01*
X0046989Y0094237D01*
X0044666Y0094237D01*
X0044666Y0091662D01*
X0044272Y0091662D01*
X0044272Y0094237D01*
X0042962Y0094237D01*
X0044906Y0096180D01*
X0047161Y0096180D01*
X0047616Y0096635D01*
X0051103Y0096635D01*
X0055085Y0092653D01*
X0055903Y0091835D01*
X0055903Y0091835D01*
X0063152Y0084587D01*
X0056209Y0084587D01*
X0055742Y0084120D01*
X0055742Y0079129D01*
X0055769Y0079103D01*
X0050223Y0079103D01*
X0050250Y0079129D01*
X0050250Y0084120D01*
X0049783Y0084587D01*
X0041642Y0084587D01*
X0041176Y0084120D01*
X0041176Y0079129D01*
X0041202Y0079103D01*
X0041176Y0079359D02*
X0036455Y0079359D01*
X0036415Y0079751D02*
X0041176Y0079751D01*
X0041176Y0080143D02*
X0036022Y0080143D01*
X0033414Y0082889D02*
X0041176Y0082889D01*
X0041176Y0083281D02*
X0033807Y0083281D01*
X0034199Y0083673D02*
X0041176Y0083673D01*
X0041176Y0084065D02*
X0034591Y0084065D01*
X0034983Y0084458D02*
X0041513Y0084458D01*
X0041176Y0082497D02*
X0033022Y0082497D01*
X0032630Y0082104D02*
X0041176Y0082104D01*
X0041176Y0081712D02*
X0032238Y0081712D01*
X0031846Y0081320D02*
X0041176Y0081320D01*
X0041176Y0080928D02*
X0031453Y0080928D01*
X0031061Y0080536D02*
X0041176Y0080536D01*
X0036455Y0076221D02*
X0064196Y0076221D01*
X0064196Y0075829D02*
X0036383Y0075829D01*
X0033493Y0073476D02*
X0033099Y0073476D01*
X0033099Y0073084D02*
X0033493Y0073084D01*
X0033493Y0072691D02*
X0033099Y0072691D01*
X0033099Y0072299D02*
X0033493Y0072299D01*
X0033493Y0071907D02*
X0033099Y0071907D01*
X0033099Y0071515D02*
X0033493Y0071515D01*
X0029203Y0082629D02*
X0025528Y0082629D01*
X0026289Y0083390D01*
X0026845Y0084732D01*
X0026845Y0086185D01*
X0026289Y0087527D01*
X0025618Y0088199D01*
X0026009Y0088199D01*
X0026314Y0088280D01*
X0026587Y0088438D01*
X0026809Y0088661D01*
X0026967Y0088934D01*
X0027048Y0089238D01*
X0027048Y0089986D01*
X0023391Y0089986D01*
X0023391Y0090380D01*
X0027048Y0090380D01*
X0027048Y0091128D01*
X0026967Y0091432D01*
X0026809Y0091705D01*
X0026648Y0091866D01*
X0026648Y0093860D01*
X0026486Y0094022D01*
X0026648Y0094184D01*
X0026648Y0096419D01*
X0026486Y0096581D01*
X0026648Y0096743D01*
X0026648Y0097814D01*
X0026928Y0097535D01*
X0031055Y0097535D01*
X0031055Y0096637D01*
X0031522Y0096171D01*
X0036907Y0096171D01*
X0037374Y0096637D01*
X0037374Y0100447D01*
X0036907Y0100914D01*
X0035079Y0100914D01*
X0035079Y0103877D01*
X0046256Y0115055D01*
X0046256Y0110938D01*
X0046723Y0110471D01*
X0047285Y0110471D01*
X0047285Y0105077D01*
X0049822Y0102540D01*
X0049822Y0099429D01*
X0047628Y0099429D01*
X0047628Y0100457D01*
X0047161Y0100923D01*
X0041777Y0100923D01*
X0041310Y0100457D01*
X0041310Y0096647D01*
X0041366Y0096591D01*
X0039485Y0094710D01*
X0039485Y0092910D01*
X0037774Y0091199D01*
X0037774Y0091259D01*
X0034411Y0091259D01*
X0034411Y0088684D01*
X0035259Y0088684D01*
X0029203Y0082629D01*
X0029464Y0082889D02*
X0025788Y0082889D01*
X0026180Y0083281D02*
X0029856Y0083281D01*
X0030248Y0083673D02*
X0026407Y0083673D01*
X0026569Y0084065D02*
X0030640Y0084065D01*
X0031032Y0084458D02*
X0026732Y0084458D01*
X0026845Y0084850D02*
X0031425Y0084850D01*
X0031817Y0085242D02*
X0026845Y0085242D01*
X0026845Y0085634D02*
X0032209Y0085634D01*
X0032601Y0086027D02*
X0026845Y0086027D01*
X0026748Y0086419D02*
X0032993Y0086419D01*
X0033386Y0086811D02*
X0026586Y0086811D01*
X0026424Y0087203D02*
X0033778Y0087203D01*
X0034170Y0087595D02*
X0026221Y0087595D01*
X0025829Y0087988D02*
X0034562Y0087988D01*
X0034955Y0088380D02*
X0026486Y0088380D01*
X0026874Y0088772D02*
X0031379Y0088772D01*
X0031390Y0088765D02*
X0031695Y0088684D01*
X0034018Y0088684D01*
X0034018Y0091259D01*
X0034411Y0091259D01*
X0034411Y0091652D01*
X0037774Y0091652D01*
X0037774Y0093188D01*
X0037692Y0093492D01*
X0037534Y0093765D01*
X0037312Y0093988D01*
X0037039Y0094146D01*
X0036734Y0094227D01*
X0034411Y0094227D01*
X0034411Y0091652D01*
X0034018Y0091652D01*
X0034018Y0091259D01*
X0030655Y0091259D01*
X0030655Y0089723D01*
X0030737Y0089419D01*
X0030895Y0089146D01*
X0031117Y0088923D01*
X0031390Y0088765D01*
X0030884Y0089164D02*
X0027029Y0089164D01*
X0027048Y0089556D02*
X0030700Y0089556D01*
X0030655Y0089949D02*
X0027048Y0089949D01*
X0027048Y0090733D02*
X0030655Y0090733D01*
X0030655Y0090341D02*
X0023391Y0090341D01*
X0026648Y0091910D02*
X0030655Y0091910D01*
X0030655Y0091652D02*
X0030655Y0093188D01*
X0030737Y0093492D01*
X0030895Y0093765D01*
X0031117Y0093988D01*
X0031390Y0094146D01*
X0031695Y0094227D01*
X0034018Y0094227D01*
X0034018Y0091652D01*
X0030655Y0091652D01*
X0030655Y0091125D02*
X0027048Y0091125D01*
X0026918Y0091518D02*
X0034018Y0091518D01*
X0034018Y0091910D02*
X0034411Y0091910D01*
X0034411Y0092302D02*
X0034018Y0092302D01*
X0034018Y0092694D02*
X0034411Y0092694D01*
X0034411Y0093086D02*
X0034018Y0093086D01*
X0034018Y0093479D02*
X0034411Y0093479D01*
X0034411Y0093871D02*
X0034018Y0093871D01*
X0036960Y0096224D02*
X0040999Y0096224D01*
X0041341Y0096616D02*
X0037352Y0096616D01*
X0037374Y0097008D02*
X0041310Y0097008D01*
X0041310Y0097401D02*
X0037374Y0097401D01*
X0037374Y0097793D02*
X0041310Y0097793D01*
X0041310Y0098185D02*
X0037374Y0098185D01*
X0037374Y0098577D02*
X0041310Y0098577D01*
X0041310Y0098970D02*
X0037374Y0098970D01*
X0037374Y0099362D02*
X0041310Y0099362D01*
X0041310Y0099754D02*
X0037374Y0099754D01*
X0037374Y0100146D02*
X0041310Y0100146D01*
X0041392Y0100538D02*
X0037282Y0100538D01*
X0035079Y0100931D02*
X0049822Y0100931D01*
X0049822Y0101323D02*
X0035079Y0101323D01*
X0035079Y0101715D02*
X0049822Y0101715D01*
X0049822Y0102107D02*
X0035079Y0102107D01*
X0035079Y0102499D02*
X0049822Y0102499D01*
X0049471Y0102892D02*
X0035079Y0102892D01*
X0035079Y0103284D02*
X0049079Y0103284D01*
X0048686Y0103676D02*
X0035079Y0103676D01*
X0035270Y0104068D02*
X0048294Y0104068D01*
X0047902Y0104461D02*
X0035662Y0104461D01*
X0036054Y0104853D02*
X0047510Y0104853D01*
X0047285Y0105245D02*
X0036446Y0105245D01*
X0036838Y0105637D02*
X0047285Y0105637D01*
X0047285Y0106029D02*
X0037231Y0106029D01*
X0037623Y0106422D02*
X0047285Y0106422D01*
X0047285Y0106814D02*
X0038015Y0106814D01*
X0038407Y0107206D02*
X0047285Y0107206D01*
X0047285Y0107598D02*
X0038800Y0107598D01*
X0039192Y0107990D02*
X0047285Y0107990D01*
X0047285Y0108383D02*
X0039584Y0108383D01*
X0039976Y0108775D02*
X0047285Y0108775D01*
X0047285Y0109167D02*
X0040368Y0109167D01*
X0040761Y0109559D02*
X0047285Y0109559D01*
X0047285Y0109951D02*
X0041153Y0109951D01*
X0041545Y0110344D02*
X0047285Y0110344D01*
X0046458Y0110736D02*
X0041937Y0110736D01*
X0042329Y0111128D02*
X0046256Y0111128D01*
X0046256Y0111520D02*
X0042722Y0111520D01*
X0043114Y0111913D02*
X0046256Y0111913D01*
X0046256Y0112305D02*
X0043506Y0112305D01*
X0043898Y0112697D02*
X0046256Y0112697D01*
X0046256Y0113089D02*
X0044290Y0113089D01*
X0044683Y0113481D02*
X0046256Y0113481D01*
X0046256Y0113874D02*
X0045075Y0113874D01*
X0045467Y0114266D02*
X0046256Y0114266D01*
X0046256Y0114658D02*
X0045859Y0114658D01*
X0046252Y0115050D02*
X0046256Y0115050D01*
X0044718Y0116619D02*
X0037562Y0116619D01*
X0037602Y0116551D02*
X0037444Y0116824D01*
X0037221Y0117047D01*
X0036948Y0117204D01*
X0036644Y0117286D01*
X0035108Y0117286D01*
X0035108Y0114514D01*
X0034715Y0114514D01*
X0034715Y0114121D01*
X0032140Y0114121D01*
X0032140Y0112388D01*
X0032221Y0112084D01*
X0032379Y0111811D01*
X0032602Y0111588D01*
X0032875Y0111430D01*
X0033179Y0111349D01*
X0034715Y0111349D01*
X0034715Y0114120D01*
X0035108Y0114120D01*
X0035108Y0111349D01*
X0036644Y0111349D01*
X0036948Y0111430D01*
X0037221Y0111588D01*
X0037444Y0111811D01*
X0037602Y0112084D01*
X0037683Y0112388D01*
X0037683Y0114121D01*
X0035108Y0114121D01*
X0035108Y0114514D01*
X0037683Y0114514D01*
X0037683Y0116247D01*
X0037602Y0116551D01*
X0037683Y0116227D02*
X0044326Y0116227D01*
X0043934Y0115835D02*
X0037683Y0115835D01*
X0037683Y0115442D02*
X0043541Y0115442D01*
X0043149Y0115050D02*
X0037683Y0115050D01*
X0037683Y0114658D02*
X0042757Y0114658D01*
X0042365Y0114266D02*
X0035108Y0114266D01*
X0035108Y0114658D02*
X0034715Y0114658D01*
X0034715Y0114266D02*
X0029991Y0114266D01*
X0029599Y0113874D02*
X0032140Y0113874D01*
X0032140Y0113481D02*
X0029207Y0113481D01*
X0028815Y0113089D02*
X0032140Y0113089D01*
X0032140Y0112697D02*
X0028423Y0112697D01*
X0028030Y0112305D02*
X0032162Y0112305D01*
X0032320Y0111913D02*
X0027638Y0111913D01*
X0027246Y0111520D02*
X0032719Y0111520D01*
X0034715Y0111520D02*
X0035108Y0111520D01*
X0035108Y0111913D02*
X0034715Y0111913D01*
X0034715Y0112305D02*
X0035108Y0112305D01*
X0035108Y0112697D02*
X0034715Y0112697D01*
X0034715Y0113089D02*
X0035108Y0113089D01*
X0035108Y0113481D02*
X0034715Y0113481D01*
X0034715Y0113874D02*
X0035108Y0113874D01*
X0035108Y0115050D02*
X0034715Y0115050D01*
X0034715Y0115442D02*
X0035108Y0115442D01*
X0035108Y0115835D02*
X0034715Y0115835D01*
X0034715Y0116227D02*
X0035108Y0116227D01*
X0035108Y0116619D02*
X0034715Y0116619D01*
X0034715Y0117011D02*
X0035108Y0117011D01*
X0033913Y0118188D02*
X0046287Y0118188D01*
X0046679Y0118580D02*
X0034306Y0118580D01*
X0034698Y0118972D02*
X0047071Y0118972D01*
X0047464Y0119365D02*
X0035090Y0119365D01*
X0035482Y0119757D02*
X0047856Y0119757D01*
X0048248Y0120149D02*
X0040689Y0120149D01*
X0041023Y0120541D02*
X0048640Y0120541D01*
X0050015Y0122110D02*
X0050209Y0122110D01*
X0050015Y0122502D02*
X0050601Y0122502D01*
X0050993Y0122894D02*
X0050015Y0122894D01*
X0050015Y0123287D02*
X0051386Y0123287D01*
X0051778Y0123679D02*
X0050015Y0123679D01*
X0050015Y0124071D02*
X0052170Y0124071D01*
X0052562Y0124463D02*
X0050015Y0124463D01*
X0050015Y0124856D02*
X0052955Y0124856D01*
X0053736Y0125248D02*
X0050015Y0125248D01*
X0050015Y0125640D02*
X0053736Y0125640D01*
X0053736Y0126032D02*
X0050015Y0126032D01*
X0050015Y0126424D02*
X0053736Y0126424D01*
X0053994Y0126817D02*
X0049758Y0126817D01*
X0049179Y0128778D02*
X0053262Y0128778D01*
X0052838Y0129170D02*
X0050375Y0129170D01*
X0050701Y0129562D02*
X0052673Y0129562D01*
X0052644Y0129954D02*
X0050701Y0129954D01*
X0050701Y0130347D02*
X0052644Y0130347D01*
X0052644Y0130739D02*
X0050701Y0130739D01*
X0050701Y0131131D02*
X0052644Y0131131D01*
X0052644Y0131523D02*
X0050701Y0131523D01*
X0050701Y0131915D02*
X0052644Y0131915D01*
X0052644Y0132700D02*
X0050701Y0132700D01*
X0050701Y0133092D02*
X0052644Y0133092D01*
X0052644Y0133484D02*
X0050701Y0133484D01*
X0050701Y0133876D02*
X0052644Y0133876D01*
X0052644Y0134269D02*
X0050701Y0134269D01*
X0050701Y0134661D02*
X0052644Y0134661D01*
X0050701Y0132308D02*
X0055219Y0132308D01*
X0055219Y0131915D02*
X0055613Y0131915D01*
X0055613Y0131523D02*
X0055219Y0131523D01*
X0055219Y0131131D02*
X0055613Y0131131D01*
X0055613Y0130739D02*
X0055219Y0130739D01*
X0055219Y0130347D02*
X0055613Y0130347D01*
X0055613Y0129954D02*
X0055219Y0129954D01*
X0055219Y0129562D02*
X0055613Y0129562D01*
X0055613Y0129170D02*
X0055219Y0129170D01*
X0055219Y0128778D02*
X0055613Y0128778D01*
X0053736Y0122502D02*
X0053704Y0122502D01*
X0053736Y0122110D02*
X0053311Y0122110D01*
X0052919Y0121718D02*
X0053736Y0121718D01*
X0053736Y0121326D02*
X0052527Y0121326D01*
X0052135Y0120933D02*
X0053978Y0120933D01*
X0053587Y0117011D02*
X0059386Y0117011D01*
X0058994Y0116619D02*
X0057199Y0116619D01*
X0057496Y0116227D02*
X0058602Y0116227D01*
X0058209Y0115835D02*
X0057496Y0115835D01*
X0057496Y0115442D02*
X0057817Y0115442D01*
X0059778Y0117404D02*
X0048605Y0117404D01*
X0048997Y0117796D02*
X0060170Y0117796D01*
X0060563Y0118188D02*
X0049389Y0118188D01*
X0049781Y0118580D02*
X0060730Y0118580D01*
X0060712Y0118972D02*
X0050174Y0118972D01*
X0050164Y0117011D02*
X0048213Y0117011D01*
X0049719Y0116619D02*
X0049773Y0116619D01*
X0051679Y0116619D02*
X0052073Y0116619D01*
X0052073Y0116227D02*
X0051679Y0116227D01*
X0051679Y0115835D02*
X0052073Y0115835D01*
X0052073Y0115442D02*
X0051679Y0115442D01*
X0051679Y0115050D02*
X0052073Y0115050D01*
X0052073Y0114658D02*
X0051679Y0114658D01*
X0051679Y0114266D02*
X0052073Y0114266D01*
X0052073Y0113874D02*
X0051679Y0113874D01*
X0051679Y0113433D02*
X0052073Y0113433D01*
X0052073Y0110071D01*
X0053116Y0110071D01*
X0053420Y0110153D01*
X0053693Y0110310D01*
X0053916Y0110533D01*
X0053999Y0110676D01*
X0054203Y0110471D01*
X0057029Y0110471D01*
X0057496Y0110938D01*
X0057496Y0112235D01*
X0058560Y0112235D01*
X0060712Y0114386D01*
X0060712Y0111692D01*
X0061525Y0110880D01*
X0062285Y0110880D01*
X0062285Y0106286D01*
X0061011Y0105012D01*
X0057376Y0105012D01*
X0056909Y0104546D01*
X0056909Y0099161D01*
X0057376Y0098694D01*
X0059969Y0098694D01*
X0056482Y0095207D01*
X0053079Y0098610D01*
X0052995Y0098694D01*
X0054099Y0098694D01*
X0054566Y0099161D01*
X0054566Y0104546D01*
X0054099Y0105012D01*
X0050452Y0105012D01*
X0049479Y0105986D01*
X0049479Y0110471D01*
X0049548Y0110471D01*
X0049753Y0110676D01*
X0049835Y0110533D01*
X0050058Y0110310D01*
X0050331Y0110153D01*
X0050636Y0110071D01*
X0051679Y0110071D01*
X0051679Y0113433D01*
X0051679Y0113089D02*
X0052073Y0113089D01*
X0052073Y0112697D02*
X0051679Y0112697D01*
X0051679Y0112305D02*
X0052073Y0112305D01*
X0052073Y0111913D02*
X0051679Y0111913D01*
X0051679Y0111520D02*
X0052073Y0111520D01*
X0052073Y0111128D02*
X0051679Y0111128D01*
X0051679Y0110736D02*
X0052073Y0110736D01*
X0052073Y0110344D02*
X0051679Y0110344D01*
X0050025Y0110344D02*
X0049479Y0110344D01*
X0049479Y0109951D02*
X0062285Y0109951D01*
X0062285Y0109559D02*
X0049479Y0109559D01*
X0049479Y0109167D02*
X0062285Y0109167D01*
X0062285Y0108775D02*
X0049479Y0108775D01*
X0049479Y0108383D02*
X0062285Y0108383D01*
X0062285Y0107990D02*
X0049479Y0107990D01*
X0049479Y0107598D02*
X0062285Y0107598D01*
X0062285Y0107206D02*
X0049479Y0107206D01*
X0049479Y0106814D02*
X0062285Y0106814D01*
X0062285Y0106422D02*
X0049479Y0106422D01*
X0049479Y0106029D02*
X0062028Y0106029D01*
X0061636Y0105637D02*
X0049828Y0105637D01*
X0050220Y0105245D02*
X0061244Y0105245D01*
X0064479Y0108383D02*
X0064557Y0108383D01*
X0064479Y0108775D02*
X0064950Y0108775D01*
X0065342Y0109167D02*
X0064479Y0109167D01*
X0064479Y0109559D02*
X0065734Y0109559D01*
X0066126Y0109951D02*
X0064479Y0109951D01*
X0064479Y0110344D02*
X0066518Y0110344D01*
X0066911Y0110736D02*
X0064479Y0110736D01*
X0065679Y0111128D02*
X0067303Y0111128D01*
X0067695Y0111520D02*
X0066071Y0111520D01*
X0066243Y0111913D02*
X0068087Y0111913D01*
X0068479Y0112305D02*
X0066243Y0112305D01*
X0066243Y0112697D02*
X0068872Y0112697D01*
X0069264Y0113089D02*
X0066243Y0113089D01*
X0066243Y0113481D02*
X0069656Y0113481D01*
X0070048Y0113874D02*
X0066243Y0113874D01*
X0066243Y0114266D02*
X0070441Y0114266D01*
X0070833Y0114658D02*
X0066243Y0114658D01*
X0066243Y0115050D02*
X0071225Y0115050D01*
X0071617Y0115442D02*
X0066243Y0115442D01*
X0066006Y0115835D02*
X0072009Y0115835D01*
X0072402Y0116227D02*
X0066452Y0116227D01*
X0066845Y0116619D02*
X0072794Y0116619D01*
X0073186Y0117011D02*
X0067237Y0117011D01*
X0067629Y0117404D02*
X0073578Y0117404D01*
X0073970Y0117796D02*
X0068021Y0117796D01*
X0068079Y0118188D02*
X0074363Y0118188D01*
X0074755Y0118580D02*
X0068079Y0118580D01*
X0068079Y0118972D02*
X0075147Y0118972D01*
X0075539Y0119365D02*
X0068079Y0119365D01*
X0068079Y0119757D02*
X0075931Y0119757D01*
X0076324Y0120149D02*
X0068079Y0120149D01*
X0068079Y0120541D02*
X0076716Y0120541D01*
X0077108Y0120933D02*
X0068079Y0120933D01*
X0068079Y0121326D02*
X0077500Y0121326D01*
X0077893Y0121718D02*
X0068079Y0121718D01*
X0068079Y0122110D02*
X0078285Y0122110D01*
X0078677Y0122502D02*
X0068079Y0122502D01*
X0068079Y0122894D02*
X0079069Y0122894D01*
X0079461Y0123287D02*
X0068079Y0123287D01*
X0068079Y0123679D02*
X0079854Y0123679D01*
X0080246Y0124071D02*
X0068079Y0124071D01*
X0068079Y0124463D02*
X0080638Y0124463D01*
X0081030Y0124856D02*
X0068079Y0124856D01*
X0068079Y0125248D02*
X0081422Y0125248D01*
X0081815Y0125640D02*
X0068079Y0125640D01*
X0068079Y0126032D02*
X0082207Y0126032D01*
X0082599Y0126424D02*
X0068079Y0126424D01*
X0068079Y0126817D02*
X0082991Y0126817D01*
X0083384Y0127209D02*
X0068079Y0127209D01*
X0068079Y0127601D02*
X0083776Y0127601D01*
X0084168Y0127993D02*
X0068079Y0127993D01*
X0068079Y0128385D02*
X0084560Y0128385D01*
X0084952Y0128778D02*
X0068079Y0128778D01*
X0068079Y0129170D02*
X0085345Y0129170D01*
X0085737Y0129562D02*
X0068079Y0129562D01*
X0068079Y0129954D02*
X0086129Y0129954D01*
X0086521Y0130347D02*
X0068079Y0130347D01*
X0068079Y0130739D02*
X0086913Y0130739D01*
X0087306Y0131131D02*
X0068079Y0131131D01*
X0068079Y0131523D02*
X0087698Y0131523D01*
X0088090Y0131915D02*
X0068079Y0131915D01*
X0065285Y0138191D02*
X0041587Y0138191D01*
X0041195Y0138583D02*
X0065285Y0138583D01*
X0065285Y0138975D02*
X0040802Y0138975D01*
X0040410Y0139367D02*
X0065285Y0139367D01*
X0065285Y0139760D02*
X0040018Y0139760D01*
X0039626Y0140152D02*
X0065285Y0140152D01*
X0065285Y0140544D02*
X0035409Y0140544D01*
X0035409Y0140152D02*
X0038731Y0140152D01*
X0038339Y0139760D02*
X0035352Y0139760D01*
X0035409Y0139896D02*
X0034881Y0138621D01*
X0033905Y0137646D01*
X0032630Y0137117D01*
X0031250Y0137117D01*
X0029975Y0137646D01*
X0029000Y0138621D01*
X0028472Y0139896D01*
X0028472Y0141276D01*
X0029000Y0142551D01*
X0029975Y0143526D01*
X0031250Y0144054D01*
X0032630Y0144054D01*
X0033905Y0143526D01*
X0034881Y0142551D01*
X0035409Y0141276D01*
X0035409Y0139896D01*
X0035190Y0139367D02*
X0037946Y0139367D01*
X0037554Y0138975D02*
X0035027Y0138975D01*
X0034842Y0138583D02*
X0037162Y0138583D01*
X0036770Y0138191D02*
X0034450Y0138191D01*
X0034058Y0137799D02*
X0036433Y0137799D01*
X0036433Y0137406D02*
X0033327Y0137406D01*
X0034416Y0135837D02*
X0024421Y0135837D01*
X0024803Y0136230D02*
X0037397Y0136230D01*
X0037789Y0135837D02*
X0035588Y0135837D01*
X0035981Y0135445D02*
X0038181Y0135445D01*
X0038573Y0135053D02*
X0036373Y0135053D01*
X0036765Y0134661D02*
X0038966Y0134661D01*
X0039358Y0134269D02*
X0037157Y0134269D01*
X0037550Y0133876D02*
X0039750Y0133876D01*
X0040142Y0133484D02*
X0037942Y0133484D01*
X0038334Y0133092D02*
X0040534Y0133092D01*
X0040927Y0132700D02*
X0038726Y0132700D01*
X0039118Y0132308D02*
X0045957Y0132308D01*
X0045957Y0132700D02*
X0041884Y0132700D01*
X0042276Y0133092D02*
X0045957Y0133092D01*
X0045957Y0133484D02*
X0042669Y0133484D01*
X0043061Y0133876D02*
X0045957Y0133876D01*
X0045957Y0134269D02*
X0043453Y0134269D01*
X0043845Y0134661D02*
X0045957Y0134661D01*
X0045957Y0131915D02*
X0039511Y0131915D01*
X0039903Y0131523D02*
X0045957Y0131523D01*
X0045957Y0131131D02*
X0039975Y0131131D01*
X0039923Y0130739D02*
X0045957Y0130739D01*
X0045957Y0130347D02*
X0039531Y0130347D01*
X0039139Y0129954D02*
X0045957Y0129954D01*
X0045957Y0129562D02*
X0038746Y0129562D01*
X0038354Y0129170D02*
X0046283Y0129170D01*
X0046985Y0128778D02*
X0037962Y0128778D01*
X0037570Y0128385D02*
X0046985Y0128385D01*
X0046985Y0127993D02*
X0033819Y0127993D01*
X0033427Y0127601D02*
X0046985Y0127601D01*
X0046985Y0127209D02*
X0033034Y0127209D01*
X0032679Y0126817D02*
X0046513Y0126817D01*
X0046256Y0126424D02*
X0032679Y0126424D01*
X0032679Y0126032D02*
X0046256Y0126032D01*
X0046256Y0125640D02*
X0032679Y0125640D01*
X0032679Y0125248D02*
X0046256Y0125248D01*
X0046256Y0124856D02*
X0040855Y0124856D01*
X0041023Y0124463D02*
X0046256Y0124463D01*
X0046256Y0124071D02*
X0041023Y0124071D01*
X0041023Y0123679D02*
X0046256Y0123679D01*
X0046256Y0123287D02*
X0041023Y0123287D01*
X0041023Y0122894D02*
X0046256Y0122894D01*
X0046256Y0122502D02*
X0041023Y0122502D01*
X0041023Y0122110D02*
X0046256Y0122110D01*
X0046256Y0121718D02*
X0041023Y0121718D01*
X0041023Y0121326D02*
X0046256Y0121326D01*
X0046498Y0120933D02*
X0041023Y0120933D01*
X0037257Y0117011D02*
X0045110Y0117011D01*
X0045502Y0117404D02*
X0033129Y0117404D01*
X0033521Y0117796D02*
X0045895Y0117796D01*
X0041973Y0113874D02*
X0037683Y0113874D01*
X0037683Y0113481D02*
X0041580Y0113481D01*
X0041188Y0113089D02*
X0037683Y0113089D01*
X0037683Y0112697D02*
X0040796Y0112697D01*
X0040404Y0112305D02*
X0037661Y0112305D01*
X0037503Y0111913D02*
X0040012Y0111913D01*
X0039619Y0111520D02*
X0037104Y0111520D01*
X0038443Y0110344D02*
X0026069Y0110344D01*
X0026461Y0110736D02*
X0038835Y0110736D01*
X0039227Y0111128D02*
X0026854Y0111128D01*
X0025677Y0109951D02*
X0038050Y0109951D01*
X0037658Y0109559D02*
X0025285Y0109559D01*
X0024893Y0109167D02*
X0037266Y0109167D01*
X0036874Y0108775D02*
X0024500Y0108775D01*
X0024916Y0108383D02*
X0036482Y0108383D01*
X0036089Y0107990D02*
X0025511Y0107990D01*
X0025903Y0107598D02*
X0035697Y0107598D01*
X0035305Y0107206D02*
X0026292Y0107206D01*
X0026454Y0106814D02*
X0034913Y0106814D01*
X0034521Y0106422D02*
X0026617Y0106422D01*
X0026779Y0106029D02*
X0034128Y0106029D01*
X0033736Y0105637D02*
X0026845Y0105637D01*
X0026845Y0105245D02*
X0033344Y0105245D01*
X0032952Y0104853D02*
X0026845Y0104853D01*
X0026845Y0104461D02*
X0032885Y0104461D01*
X0032885Y0104068D02*
X0026701Y0104068D01*
X0026538Y0103676D02*
X0032885Y0103676D01*
X0032885Y0103284D02*
X0026376Y0103284D01*
X0026106Y0102892D02*
X0032885Y0102892D01*
X0032885Y0102499D02*
X0025714Y0102499D01*
X0025321Y0102107D02*
X0032885Y0102107D01*
X0032885Y0101715D02*
X0026470Y0101715D01*
X0026648Y0101323D02*
X0032885Y0101323D01*
X0032885Y0100931D02*
X0026648Y0100931D01*
X0027026Y0100538D02*
X0031147Y0100538D01*
X0031055Y0100146D02*
X0027419Y0100146D01*
X0027811Y0099754D02*
X0031055Y0099754D01*
X0031055Y0097401D02*
X0026648Y0097401D01*
X0026648Y0097793D02*
X0026670Y0097793D01*
X0026648Y0097008D02*
X0031055Y0097008D01*
X0031076Y0096616D02*
X0026522Y0096616D01*
X0026648Y0096224D02*
X0031469Y0096224D01*
X0031000Y0093871D02*
X0026637Y0093871D01*
X0026648Y0094263D02*
X0039485Y0094263D01*
X0039485Y0094655D02*
X0026648Y0094655D01*
X0026648Y0095047D02*
X0039822Y0095047D01*
X0040214Y0095440D02*
X0026648Y0095440D01*
X0026648Y0095832D02*
X0040607Y0095832D01*
X0039485Y0093871D02*
X0037429Y0093871D01*
X0037696Y0093479D02*
X0039485Y0093479D01*
X0039485Y0093086D02*
X0037774Y0093086D01*
X0037774Y0092694D02*
X0039269Y0092694D01*
X0038877Y0092302D02*
X0037774Y0092302D01*
X0037774Y0091910D02*
X0038484Y0091910D01*
X0038092Y0091518D02*
X0034411Y0091518D01*
X0034411Y0091125D02*
X0034018Y0091125D01*
X0034018Y0090733D02*
X0034411Y0090733D01*
X0034411Y0090341D02*
X0034018Y0090341D01*
X0034018Y0089949D02*
X0034411Y0089949D01*
X0034411Y0089556D02*
X0034018Y0089556D01*
X0034018Y0089164D02*
X0034411Y0089164D01*
X0034411Y0088772D02*
X0034018Y0088772D01*
X0036944Y0086419D02*
X0061319Y0086419D01*
X0060927Y0086811D02*
X0037337Y0086811D01*
X0037729Y0087203D02*
X0060535Y0087203D01*
X0060143Y0087595D02*
X0038121Y0087595D01*
X0038513Y0087988D02*
X0059751Y0087988D01*
X0059358Y0088380D02*
X0038905Y0088380D01*
X0039298Y0088772D02*
X0041656Y0088772D01*
X0041144Y0089164D02*
X0039690Y0089164D01*
X0040082Y0089556D02*
X0040957Y0089556D01*
X0040910Y0089949D02*
X0040474Y0089949D01*
X0040866Y0090341D02*
X0040910Y0090341D01*
X0044272Y0090341D02*
X0044666Y0090341D01*
X0044666Y0090733D02*
X0044272Y0090733D01*
X0044272Y0091125D02*
X0044666Y0091125D01*
X0044666Y0091518D02*
X0056221Y0091518D01*
X0055828Y0091910D02*
X0048028Y0091910D01*
X0048028Y0092302D02*
X0055436Y0092302D01*
X0055085Y0092653D02*
X0055085Y0092653D01*
X0055044Y0092694D02*
X0048028Y0092694D01*
X0048028Y0093086D02*
X0054652Y0093086D01*
X0054260Y0093479D02*
X0047953Y0093479D01*
X0047693Y0093871D02*
X0053867Y0093871D01*
X0053475Y0094263D02*
X0042989Y0094263D01*
X0043381Y0094655D02*
X0053083Y0094655D01*
X0052691Y0095047D02*
X0043773Y0095047D01*
X0044165Y0095440D02*
X0052299Y0095440D01*
X0051906Y0095832D02*
X0044557Y0095832D01*
X0044666Y0093871D02*
X0044272Y0093871D01*
X0044272Y0093479D02*
X0044666Y0093479D01*
X0044666Y0093086D02*
X0044272Y0093086D01*
X0044272Y0092694D02*
X0044666Y0092694D01*
X0044666Y0092302D02*
X0044272Y0092302D01*
X0044272Y0091910D02*
X0044666Y0091910D01*
X0044666Y0089949D02*
X0044272Y0089949D01*
X0044272Y0089556D02*
X0044666Y0089556D01*
X0044666Y0089164D02*
X0044272Y0089164D01*
X0044272Y0088772D02*
X0044666Y0088772D01*
X0047282Y0088772D02*
X0058966Y0088772D01*
X0058574Y0089164D02*
X0047794Y0089164D01*
X0047981Y0089556D02*
X0058182Y0089556D01*
X0057790Y0089949D02*
X0048028Y0089949D01*
X0048028Y0090341D02*
X0057397Y0090341D01*
X0057005Y0090733D02*
X0048028Y0090733D01*
X0048028Y0091125D02*
X0056613Y0091125D01*
X0058603Y0093086D02*
X0069185Y0093086D01*
X0069185Y0092694D02*
X0058995Y0092694D01*
X0059387Y0092302D02*
X0069185Y0092302D01*
X0069185Y0091910D02*
X0059779Y0091910D01*
X0060172Y0091518D02*
X0069545Y0091518D01*
X0069828Y0091235D02*
X0077814Y0083249D01*
X0075392Y0083249D01*
X0074925Y0082782D01*
X0074925Y0081429D01*
X0070260Y0081429D01*
X0058457Y0093232D01*
X0066279Y0101053D01*
X0066279Y0106153D01*
X0070132Y0110006D01*
X0070132Y0109468D01*
X0074382Y0109468D01*
X0074382Y0112437D01*
X0072562Y0112437D01*
X0090960Y0130835D01*
X0094903Y0130835D01*
X0095708Y0130030D01*
X0095708Y0129582D01*
X0095853Y0129437D01*
X0095708Y0129292D01*
X0095708Y0126432D01*
X0095853Y0126287D01*
X0095708Y0126143D01*
X0095708Y0123282D01*
X0096175Y0122816D01*
X0100985Y0122816D01*
X0100985Y0115453D01*
X0101803Y0114635D01*
X0105185Y0111253D01*
X0105185Y0107471D01*
X0104435Y0106721D01*
X0104435Y0104942D01*
X0104849Y0104529D01*
X0080928Y0104529D01*
X0075837Y0099438D01*
X0072339Y0099438D01*
X0077936Y0105035D01*
X0078836Y0105035D01*
X0090386Y0116585D01*
X0091871Y0116585D01*
X0093129Y0117842D01*
X0093129Y0119621D01*
X0091871Y0120879D01*
X0090093Y0120879D01*
X0088835Y0119621D01*
X0088835Y0118136D01*
X0079025Y0108326D01*
X0079025Y0109074D01*
X0074775Y0109074D01*
X0074775Y0106106D01*
X0075905Y0106106D01*
X0069185Y0099386D01*
X0069185Y0091877D01*
X0069828Y0091235D01*
X0069937Y0091125D02*
X0060564Y0091125D01*
X0060956Y0090733D02*
X0070329Y0090733D01*
X0070722Y0090341D02*
X0061348Y0090341D01*
X0061740Y0089949D02*
X0071114Y0089949D01*
X0071506Y0089556D02*
X0062133Y0089556D01*
X0062525Y0089164D02*
X0071898Y0089164D01*
X0072290Y0088772D02*
X0062917Y0088772D01*
X0063309Y0088380D02*
X0072683Y0088380D01*
X0073075Y0087988D02*
X0063701Y0087988D01*
X0064094Y0087595D02*
X0073467Y0087595D01*
X0073859Y0087203D02*
X0064486Y0087203D01*
X0064878Y0086811D02*
X0074251Y0086811D01*
X0074644Y0086419D02*
X0065270Y0086419D01*
X0065663Y0086027D02*
X0075036Y0086027D01*
X0075428Y0085634D02*
X0066055Y0085634D01*
X0066447Y0085242D02*
X0075820Y0085242D01*
X0076213Y0084850D02*
X0066839Y0084850D01*
X0067231Y0084458D02*
X0076605Y0084458D01*
X0076997Y0084065D02*
X0067624Y0084065D01*
X0068016Y0083673D02*
X0077389Y0083673D01*
X0077781Y0083281D02*
X0068408Y0083281D01*
X0068800Y0082889D02*
X0075032Y0082889D01*
X0074925Y0082497D02*
X0069192Y0082497D01*
X0069585Y0082104D02*
X0074925Y0082104D01*
X0074925Y0081712D02*
X0069977Y0081712D01*
X0067987Y0079751D02*
X0066789Y0079751D01*
X0066789Y0079359D02*
X0068379Y0079359D01*
X0068771Y0078967D02*
X0066789Y0078967D01*
X0066789Y0078575D02*
X0074525Y0078575D01*
X0074525Y0078635D02*
X0074525Y0078023D01*
X0076903Y0078023D01*
X0076903Y0077826D01*
X0074525Y0077826D01*
X0074525Y0077252D01*
X0066789Y0077252D01*
X0066789Y0080949D01*
X0069103Y0078635D01*
X0074525Y0078635D01*
X0074525Y0078182D02*
X0066789Y0078182D01*
X0066789Y0077790D02*
X0074525Y0077790D01*
X0074525Y0077398D02*
X0066789Y0077398D01*
X0066789Y0080143D02*
X0067595Y0080143D01*
X0067203Y0080536D02*
X0066789Y0080536D01*
X0066789Y0080928D02*
X0066810Y0080928D01*
X0064196Y0078575D02*
X0059064Y0078575D01*
X0058671Y0078182D02*
X0064196Y0078182D01*
X0064196Y0077790D02*
X0058279Y0077790D01*
X0057887Y0077398D02*
X0064196Y0077398D01*
X0064196Y0077006D02*
X0057495Y0077006D01*
X0057102Y0076613D02*
X0064196Y0076613D01*
X0066853Y0072299D02*
X0079403Y0072299D01*
X0079157Y0071907D02*
X0066853Y0071907D01*
X0066853Y0071515D02*
X0067626Y0071515D01*
X0067237Y0071122D02*
X0066853Y0071122D01*
X0066853Y0070730D02*
X0067093Y0070730D01*
X0067096Y0070338D02*
X0066853Y0070338D01*
X0066853Y0069946D02*
X0067096Y0069946D01*
X0067103Y0069554D02*
X0066853Y0069554D01*
X0070800Y0068769D02*
X0073143Y0068769D01*
X0073143Y0068377D02*
X0070800Y0068377D01*
X0070800Y0067985D02*
X0073143Y0067985D01*
X0073143Y0067593D02*
X0070800Y0067593D01*
X0070800Y0067200D02*
X0073143Y0067200D01*
X0073143Y0066808D02*
X0070800Y0066808D01*
X0070800Y0066416D02*
X0073143Y0066416D01*
X0073143Y0066024D02*
X0070800Y0066024D01*
X0070800Y0065632D02*
X0073143Y0065632D01*
X0073143Y0065239D02*
X0070800Y0065239D01*
X0070800Y0064847D02*
X0073143Y0064847D01*
X0073143Y0064455D02*
X0070800Y0064455D01*
X0070800Y0064063D02*
X0073143Y0064063D01*
X0073143Y0063670D02*
X0070800Y0063670D01*
X0070576Y0063278D02*
X0073367Y0063278D01*
X0070796Y0062886D02*
X0077608Y0062886D01*
X0077608Y0062494D02*
X0070815Y0062494D01*
X0070815Y0062102D02*
X0077608Y0062102D01*
X0077948Y0061709D02*
X0070815Y0061709D01*
X0070815Y0061317D02*
X0084727Y0061317D01*
X0084727Y0060925D02*
X0070815Y0060925D01*
X0070815Y0060533D02*
X0084727Y0060533D01*
X0084727Y0060141D02*
X0070815Y0060141D01*
X0070815Y0059748D02*
X0084727Y0059748D01*
X0084727Y0059356D02*
X0070815Y0059356D01*
X0070815Y0058964D02*
X0084727Y0058964D01*
X0084727Y0058572D02*
X0070815Y0058572D01*
X0070815Y0058179D02*
X0084727Y0058179D01*
X0084727Y0057787D02*
X0070815Y0057787D01*
X0070728Y0057395D02*
X0084727Y0057395D01*
X0084727Y0057003D02*
X0070637Y0057003D01*
X0070815Y0052689D02*
X0072718Y0052689D01*
X0072718Y0052296D02*
X0070815Y0052296D01*
X0070815Y0051904D02*
X0072718Y0051904D01*
X0072718Y0051512D02*
X0070815Y0051512D01*
X0070494Y0051120D02*
X0072718Y0051120D01*
X0075293Y0051120D02*
X0075687Y0051120D01*
X0075687Y0051512D02*
X0075293Y0051512D01*
X0075293Y0051904D02*
X0075687Y0051904D01*
X0075687Y0052296D02*
X0075293Y0052296D01*
X0075293Y0053473D02*
X0075687Y0053473D01*
X0075687Y0053865D02*
X0075293Y0053865D01*
X0075293Y0054257D02*
X0075687Y0054257D01*
X0075687Y0054650D02*
X0075293Y0054650D01*
X0075293Y0055042D02*
X0075687Y0055042D01*
X0075687Y0055434D02*
X0075293Y0055434D01*
X0075293Y0055826D02*
X0075687Y0055826D01*
X0075687Y0056218D02*
X0075293Y0056218D01*
X0075293Y0050727D02*
X0075687Y0050727D01*
X0075687Y0050335D02*
X0075293Y0050335D01*
X0075293Y0049943D02*
X0075687Y0049943D01*
X0075687Y0049551D02*
X0075293Y0049551D01*
X0066072Y0054257D02*
X0061553Y0054257D01*
X0061553Y0060141D02*
X0066072Y0060141D01*
X0061553Y0060533D02*
X0061160Y0060533D01*
X0061160Y0060925D02*
X0061553Y0060925D01*
X0061553Y0061317D02*
X0061160Y0061317D01*
X0061160Y0061709D02*
X0061553Y0061709D01*
X0061553Y0062102D02*
X0061160Y0062102D01*
X0061160Y0062494D02*
X0061553Y0062494D01*
X0061553Y0062886D02*
X0061160Y0062886D01*
X0061160Y0063278D02*
X0061553Y0063278D01*
X0061553Y0063670D02*
X0061160Y0063670D01*
X0055871Y0069946D02*
X0050121Y0069946D01*
X0050250Y0070338D02*
X0055742Y0070338D01*
X0055742Y0070730D02*
X0050250Y0070730D01*
X0050250Y0071122D02*
X0055742Y0071122D01*
X0055742Y0071515D02*
X0050250Y0071515D01*
X0050250Y0071907D02*
X0055742Y0071907D01*
X0055742Y0072299D02*
X0050250Y0072299D01*
X0050250Y0072691D02*
X0055742Y0072691D01*
X0055742Y0073084D02*
X0050250Y0073084D01*
X0050250Y0073476D02*
X0055742Y0073476D01*
X0055742Y0073868D02*
X0050250Y0073868D01*
X0050250Y0074260D02*
X0055742Y0074260D01*
X0055742Y0074652D02*
X0050250Y0074652D01*
X0050250Y0075045D02*
X0055742Y0075045D01*
X0056115Y0075437D02*
X0049877Y0075437D01*
X0050250Y0079359D02*
X0055742Y0079359D01*
X0055742Y0079751D02*
X0050250Y0079751D01*
X0050250Y0080143D02*
X0055742Y0080143D01*
X0055742Y0080536D02*
X0050250Y0080536D01*
X0050250Y0080928D02*
X0055742Y0080928D01*
X0055742Y0081320D02*
X0050250Y0081320D01*
X0050250Y0081712D02*
X0055742Y0081712D01*
X0055742Y0082104D02*
X0050250Y0082104D01*
X0050250Y0082497D02*
X0055742Y0082497D01*
X0055742Y0082889D02*
X0050250Y0082889D01*
X0050250Y0083281D02*
X0055742Y0083281D01*
X0055742Y0083673D02*
X0050250Y0083673D01*
X0050250Y0084065D02*
X0055742Y0084065D01*
X0056080Y0084458D02*
X0049912Y0084458D01*
X0058704Y0093479D02*
X0069185Y0093479D01*
X0069185Y0093871D02*
X0059096Y0093871D01*
X0059489Y0094263D02*
X0069185Y0094263D01*
X0069185Y0094655D02*
X0059881Y0094655D01*
X0060273Y0095047D02*
X0069185Y0095047D01*
X0069185Y0095440D02*
X0060665Y0095440D01*
X0061057Y0095832D02*
X0069185Y0095832D01*
X0069185Y0096224D02*
X0061450Y0096224D01*
X0061842Y0096616D02*
X0069185Y0096616D01*
X0069185Y0097008D02*
X0062234Y0097008D01*
X0062626Y0097401D02*
X0069185Y0097401D01*
X0069185Y0097793D02*
X0063018Y0097793D01*
X0063411Y0098185D02*
X0069185Y0098185D01*
X0069185Y0098577D02*
X0063803Y0098577D01*
X0064195Y0098970D02*
X0069185Y0098970D01*
X0069185Y0099362D02*
X0064587Y0099362D01*
X0064980Y0099754D02*
X0069553Y0099754D01*
X0069945Y0100146D02*
X0065372Y0100146D01*
X0065764Y0100538D02*
X0070337Y0100538D01*
X0070730Y0100931D02*
X0066156Y0100931D01*
X0066279Y0101323D02*
X0071122Y0101323D01*
X0071514Y0101715D02*
X0066279Y0101715D01*
X0066279Y0102107D02*
X0071906Y0102107D01*
X0072298Y0102499D02*
X0066279Y0102499D01*
X0066279Y0102892D02*
X0072691Y0102892D01*
X0073083Y0103284D02*
X0066279Y0103284D01*
X0066279Y0103676D02*
X0073475Y0103676D01*
X0073867Y0104068D02*
X0066279Y0104068D01*
X0066279Y0104461D02*
X0074259Y0104461D01*
X0074652Y0104853D02*
X0066279Y0104853D01*
X0066279Y0105245D02*
X0075044Y0105245D01*
X0075436Y0105637D02*
X0066279Y0105637D01*
X0066279Y0106029D02*
X0075828Y0106029D01*
X0074775Y0106422D02*
X0074382Y0106422D01*
X0074382Y0106106D02*
X0074382Y0109074D01*
X0074775Y0109074D01*
X0074775Y0109468D01*
X0074382Y0109468D01*
X0074382Y0109074D01*
X0070132Y0109074D01*
X0070132Y0107145D01*
X0070213Y0106841D01*
X0070371Y0106568D01*
X0070594Y0106345D01*
X0070867Y0106187D01*
X0071171Y0106106D01*
X0074382Y0106106D01*
X0074382Y0106814D02*
X0074775Y0106814D01*
X0074775Y0107206D02*
X0074382Y0107206D01*
X0074382Y0107598D02*
X0074775Y0107598D01*
X0074775Y0107990D02*
X0074382Y0107990D01*
X0074382Y0108383D02*
X0074775Y0108383D01*
X0074775Y0108775D02*
X0074382Y0108775D01*
X0074382Y0109167D02*
X0069293Y0109167D01*
X0069685Y0109559D02*
X0070132Y0109559D01*
X0070132Y0109951D02*
X0070077Y0109951D01*
X0070132Y0108775D02*
X0068900Y0108775D01*
X0068508Y0108383D02*
X0070132Y0108383D01*
X0070132Y0107990D02*
X0068116Y0107990D01*
X0067724Y0107598D02*
X0070132Y0107598D01*
X0070132Y0107206D02*
X0067332Y0107206D01*
X0066939Y0106814D02*
X0070229Y0106814D01*
X0070517Y0106422D02*
X0066547Y0106422D01*
X0062285Y0110344D02*
X0053727Y0110344D01*
X0057294Y0110736D02*
X0062285Y0110736D01*
X0061276Y0111128D02*
X0057496Y0111128D01*
X0057496Y0111520D02*
X0060884Y0111520D01*
X0060712Y0111913D02*
X0057496Y0111913D01*
X0058630Y0112305D02*
X0060712Y0112305D01*
X0060712Y0112697D02*
X0059023Y0112697D01*
X0059415Y0113089D02*
X0060712Y0113089D01*
X0060712Y0113481D02*
X0059807Y0113481D01*
X0060199Y0113874D02*
X0060712Y0113874D01*
X0060712Y0114266D02*
X0060591Y0114266D01*
X0054033Y0116619D02*
X0053979Y0116619D01*
X0052073Y0117011D02*
X0051679Y0117011D01*
X0054259Y0104853D02*
X0057216Y0104853D01*
X0056909Y0104461D02*
X0054566Y0104461D01*
X0054566Y0104068D02*
X0056909Y0104068D01*
X0056909Y0103676D02*
X0054566Y0103676D01*
X0054566Y0103284D02*
X0056909Y0103284D01*
X0056909Y0102892D02*
X0054566Y0102892D01*
X0054566Y0102499D02*
X0056909Y0102499D01*
X0056909Y0102107D02*
X0054566Y0102107D01*
X0054566Y0101715D02*
X0056909Y0101715D01*
X0056909Y0101323D02*
X0054566Y0101323D01*
X0054566Y0100931D02*
X0056909Y0100931D01*
X0056909Y0100538D02*
X0054566Y0100538D01*
X0054566Y0100146D02*
X0056909Y0100146D01*
X0056909Y0099754D02*
X0054566Y0099754D01*
X0054566Y0099362D02*
X0056909Y0099362D01*
X0057100Y0098970D02*
X0054374Y0098970D01*
X0053504Y0098185D02*
X0059460Y0098185D01*
X0059852Y0098577D02*
X0053112Y0098577D01*
X0053896Y0097793D02*
X0059068Y0097793D01*
X0058675Y0097401D02*
X0054288Y0097401D01*
X0054681Y0097008D02*
X0058283Y0097008D01*
X0057891Y0096616D02*
X0055073Y0096616D01*
X0055465Y0096224D02*
X0057499Y0096224D01*
X0057107Y0095832D02*
X0055857Y0095832D01*
X0056249Y0095440D02*
X0056714Y0095440D01*
X0051514Y0096224D02*
X0047205Y0096224D01*
X0047597Y0096616D02*
X0051122Y0096616D01*
X0049822Y0099754D02*
X0047628Y0099754D01*
X0047628Y0100146D02*
X0049822Y0100146D01*
X0049822Y0100538D02*
X0047546Y0100538D01*
X0036552Y0086027D02*
X0061712Y0086027D01*
X0062104Y0085634D02*
X0036160Y0085634D01*
X0035768Y0085242D02*
X0062496Y0085242D01*
X0062888Y0084850D02*
X0035375Y0084850D01*
X0030655Y0092302D02*
X0026648Y0092302D01*
X0026648Y0092694D02*
X0030655Y0092694D01*
X0030655Y0093086D02*
X0026648Y0093086D01*
X0026648Y0093479D02*
X0030733Y0093479D01*
X0017585Y0093479D02*
X0017101Y0093479D01*
X0017101Y0093871D02*
X0017585Y0093871D01*
X0017585Y0094263D02*
X0017101Y0094263D01*
X0017093Y0094655D02*
X0017585Y0094655D01*
X0017585Y0095047D02*
X0016701Y0095047D01*
X0017101Y0093086D02*
X0017585Y0093086D01*
X0017585Y0092694D02*
X0017101Y0092694D01*
X0017101Y0092302D02*
X0017585Y0092302D01*
X0017585Y0091910D02*
X0017101Y0091910D01*
X0017101Y0091518D02*
X0017585Y0091518D01*
X0017585Y0091125D02*
X0017101Y0091125D01*
X0017101Y0090733D02*
X0017585Y0090733D01*
X0017585Y0090341D02*
X0017101Y0090341D01*
X0017101Y0089949D02*
X0017585Y0089949D01*
X0017585Y0089556D02*
X0017101Y0089556D01*
X0017101Y0089164D02*
X0017585Y0089164D01*
X0017585Y0088772D02*
X0017101Y0088772D01*
X0017101Y0088380D02*
X0017585Y0088380D01*
X0017585Y0087988D02*
X0017008Y0087988D01*
X0017585Y0104461D02*
X0014254Y0104461D01*
X0015201Y0104853D02*
X0017585Y0104853D01*
X0017585Y0105245D02*
X0015682Y0105245D01*
X0016074Y0105637D02*
X0017585Y0105637D01*
X0017585Y0106029D02*
X0016466Y0106029D01*
X0016788Y0106422D02*
X0017585Y0106422D01*
X0017585Y0106814D02*
X0016951Y0106814D01*
X0017113Y0107206D02*
X0017585Y0107206D01*
X0017873Y0107598D02*
X0017276Y0107598D01*
X0017438Y0107990D02*
X0018265Y0107990D01*
X0018657Y0108383D02*
X0017490Y0108383D01*
X0017490Y0108775D02*
X0019050Y0108775D01*
X0019442Y0109167D02*
X0017490Y0109167D01*
X0017490Y0109559D02*
X0019834Y0109559D01*
X0020226Y0109951D02*
X0017490Y0109951D01*
X0017379Y0110344D02*
X0020618Y0110344D01*
X0021011Y0110736D02*
X0017217Y0110736D01*
X0017054Y0111128D02*
X0022903Y0111128D01*
X0023295Y0111520D02*
X0016892Y0111520D01*
X0016715Y0111913D02*
X0023687Y0111913D01*
X0024079Y0112305D02*
X0016323Y0112305D01*
X0015931Y0112697D02*
X0024472Y0112697D01*
X0024864Y0113089D02*
X0015539Y0113089D01*
X0014855Y0113481D02*
X0025256Y0113481D01*
X0025648Y0113874D02*
X0013908Y0113874D01*
X0011210Y0113874D02*
X0008938Y0113874D01*
X0009046Y0114266D02*
X0026041Y0114266D01*
X0026433Y0114658D02*
X0009154Y0114658D01*
X0009262Y0115050D02*
X0026825Y0115050D01*
X0027217Y0115442D02*
X0009370Y0115442D01*
X0009478Y0115835D02*
X0027609Y0115835D01*
X0028002Y0116227D02*
X0009586Y0116227D01*
X0009694Y0116619D02*
X0028394Y0116619D01*
X0028786Y0117011D02*
X0009803Y0117011D01*
X0009911Y0117404D02*
X0029178Y0117404D01*
X0029570Y0117796D02*
X0010019Y0117796D01*
X0010127Y0118188D02*
X0029963Y0118188D01*
X0030355Y0118580D02*
X0010235Y0118580D01*
X0010343Y0118972D02*
X0030747Y0118972D01*
X0031139Y0119365D02*
X0010451Y0119365D01*
X0010559Y0119757D02*
X0031531Y0119757D01*
X0029134Y0120149D02*
X0010668Y0120149D01*
X0010783Y0120541D02*
X0028800Y0120541D01*
X0028800Y0120933D02*
X0010950Y0120933D01*
X0011117Y0121326D02*
X0028800Y0121326D01*
X0028800Y0121718D02*
X0011284Y0121718D01*
X0011451Y0122110D02*
X0028800Y0122110D01*
X0028800Y0122502D02*
X0011618Y0122502D01*
X0011785Y0122894D02*
X0028800Y0122894D01*
X0028800Y0123287D02*
X0011952Y0123287D01*
X0012119Y0123679D02*
X0028800Y0123679D01*
X0028800Y0124071D02*
X0012287Y0124071D01*
X0012454Y0124463D02*
X0028800Y0124463D01*
X0028969Y0124856D02*
X0012621Y0124856D01*
X0012788Y0125248D02*
X0029885Y0125248D01*
X0029885Y0125640D02*
X0012955Y0125640D01*
X0013122Y0126032D02*
X0029885Y0126032D01*
X0029885Y0126424D02*
X0013289Y0126424D01*
X0013456Y0126817D02*
X0029885Y0126817D01*
X0029885Y0127209D02*
X0028042Y0127209D01*
X0027677Y0126844D02*
X0030927Y0130095D01*
X0030927Y0130755D01*
X0028234Y0133449D01*
X0027573Y0133449D01*
X0024323Y0130198D01*
X0024323Y0129538D01*
X0027017Y0126844D01*
X0027677Y0126844D01*
X0028434Y0127601D02*
X0029885Y0127601D01*
X0029885Y0127993D02*
X0028826Y0127993D01*
X0029218Y0128385D02*
X0030260Y0128385D01*
X0030652Y0128778D02*
X0029610Y0128778D01*
X0030003Y0129170D02*
X0031045Y0129170D01*
X0031437Y0129562D02*
X0030395Y0129562D01*
X0030787Y0129954D02*
X0031829Y0129954D01*
X0032221Y0130347D02*
X0030927Y0130347D01*
X0030927Y0130739D02*
X0032613Y0130739D01*
X0033006Y0131131D02*
X0030551Y0131131D01*
X0030159Y0131523D02*
X0033398Y0131523D01*
X0033359Y0131915D02*
X0029767Y0131915D01*
X0029375Y0132308D02*
X0032967Y0132308D01*
X0032575Y0132700D02*
X0028983Y0132700D01*
X0028590Y0133092D02*
X0032257Y0133092D01*
X0032257Y0133484D02*
X0022068Y0133484D01*
X0021676Y0133092D02*
X0027217Y0133092D01*
X0026824Y0132700D02*
X0016316Y0132700D01*
X0016101Y0132308D02*
X0026432Y0132308D01*
X0026040Y0131915D02*
X0015885Y0131915D01*
X0015669Y0131523D02*
X0025648Y0131523D01*
X0025256Y0131131D02*
X0015453Y0131131D01*
X0015237Y0130739D02*
X0024863Y0130739D01*
X0024471Y0130347D02*
X0015021Y0130347D01*
X0014805Y0129954D02*
X0024323Y0129954D01*
X0024323Y0129562D02*
X0014626Y0129562D01*
X0014459Y0129170D02*
X0024691Y0129170D01*
X0025083Y0128778D02*
X0014292Y0128778D01*
X0014125Y0128385D02*
X0025475Y0128385D01*
X0025868Y0127993D02*
X0013958Y0127993D01*
X0013791Y0127601D02*
X0026260Y0127601D01*
X0026652Y0127209D02*
X0013623Y0127209D01*
X0016532Y0133092D02*
X0020769Y0133092D01*
X0020377Y0133484D02*
X0016748Y0133484D01*
X0016964Y0133876D02*
X0019984Y0133876D01*
X0019592Y0134269D02*
X0017240Y0134269D01*
X0017632Y0134661D02*
X0019200Y0134661D01*
X0018808Y0135053D02*
X0018025Y0135053D01*
X0022460Y0133876D02*
X0032455Y0133876D01*
X0032848Y0134269D02*
X0022852Y0134269D01*
X0023244Y0134661D02*
X0033240Y0134661D01*
X0033632Y0135053D02*
X0023637Y0135053D01*
X0024029Y0135445D02*
X0034024Y0135445D01*
X0036612Y0137014D02*
X0024668Y0137014D01*
X0024803Y0136622D02*
X0037004Y0136622D01*
X0035409Y0140936D02*
X0049393Y0140936D01*
X0049427Y0140903D02*
X0050087Y0140903D01*
X0052503Y0143318D01*
X0052503Y0143978D01*
X0047860Y0148621D01*
X0047200Y0148621D01*
X0044784Y0146205D01*
X0044784Y0145545D01*
X0049427Y0140903D01*
X0049001Y0141328D02*
X0035387Y0141328D01*
X0035224Y0141721D02*
X0048609Y0141721D01*
X0048217Y0142113D02*
X0035062Y0142113D01*
X0034900Y0142505D02*
X0047825Y0142505D01*
X0047432Y0142897D02*
X0034534Y0142897D01*
X0034142Y0143290D02*
X0047040Y0143290D01*
X0046648Y0143682D02*
X0033530Y0143682D01*
X0030350Y0143682D02*
X0026653Y0143682D01*
X0027045Y0144074D02*
X0046256Y0144074D01*
X0045864Y0144466D02*
X0027438Y0144466D01*
X0027830Y0144858D02*
X0045471Y0144858D01*
X0045079Y0145251D02*
X0028222Y0145251D01*
X0028614Y0145643D02*
X0039183Y0145643D01*
X0039602Y0145469D02*
X0040982Y0145469D01*
X0042257Y0145997D01*
X0043232Y0146973D01*
X0043760Y0148248D01*
X0043760Y0149628D01*
X0043232Y0150902D01*
X0042257Y0151878D01*
X0040982Y0152406D01*
X0039602Y0152406D01*
X0038327Y0151878D01*
X0037351Y0150902D01*
X0036823Y0149628D01*
X0036823Y0148248D01*
X0037351Y0146973D01*
X0038327Y0145997D01*
X0039602Y0145469D01*
X0038289Y0146035D02*
X0029007Y0146035D01*
X0029399Y0146427D02*
X0037897Y0146427D01*
X0037505Y0146819D02*
X0029791Y0146819D01*
X0030183Y0147212D02*
X0037252Y0147212D01*
X0037090Y0147604D02*
X0030575Y0147604D01*
X0030968Y0147996D02*
X0036928Y0147996D01*
X0036823Y0148388D02*
X0031360Y0148388D01*
X0031752Y0148780D02*
X0036823Y0148780D01*
X0036823Y0149173D02*
X0032144Y0149173D01*
X0032536Y0149565D02*
X0036823Y0149565D01*
X0036960Y0149957D02*
X0032929Y0149957D01*
X0033321Y0150349D02*
X0037122Y0150349D01*
X0037285Y0150742D02*
X0033713Y0150742D01*
X0034105Y0151134D02*
X0037583Y0151134D01*
X0037975Y0151526D02*
X0034497Y0151526D01*
X0034890Y0151918D02*
X0038424Y0151918D01*
X0039371Y0152310D02*
X0035282Y0152310D01*
X0035674Y0152703D02*
X0047429Y0152703D01*
X0047429Y0152644D02*
X0047429Y0153304D01*
X0050680Y0156555D01*
X0051340Y0156555D01*
X0054034Y0153861D01*
X0054034Y0153201D01*
X0050783Y0149950D01*
X0050123Y0149950D01*
X0047429Y0152644D01*
X0047429Y0153095D02*
X0036066Y0153095D01*
X0036459Y0153487D02*
X0047612Y0153487D01*
X0048004Y0153879D02*
X0036851Y0153879D01*
X0037243Y0154271D02*
X0048396Y0154271D01*
X0048788Y0154664D02*
X0037635Y0154664D01*
X0038027Y0155056D02*
X0049181Y0155056D01*
X0049573Y0155448D02*
X0038420Y0155448D01*
X0038812Y0155840D02*
X0049965Y0155840D01*
X0050357Y0156233D02*
X0044816Y0156233D01*
X0045208Y0156625D02*
X0059213Y0156625D01*
X0058821Y0157017D02*
X0045601Y0157017D01*
X0045993Y0157409D02*
X0058429Y0157409D01*
X0058385Y0157801D02*
X0046385Y0157801D01*
X0046777Y0158194D02*
X0058385Y0158194D01*
X0058385Y0158586D02*
X0047169Y0158586D01*
X0047562Y0158978D02*
X0057672Y0158978D01*
X0057007Y0159370D02*
X0047909Y0159370D01*
X0047909Y0159762D02*
X0056615Y0159762D01*
X0056223Y0160155D02*
X0047740Y0160155D01*
X0047348Y0160547D02*
X0055896Y0160547D01*
X0055733Y0160939D02*
X0046956Y0160939D01*
X0046564Y0161331D02*
X0055571Y0161331D01*
X0055408Y0161723D02*
X0046171Y0161723D01*
X0045779Y0162116D02*
X0055257Y0162116D01*
X0055257Y0162508D02*
X0045479Y0162508D01*
X0045872Y0162900D02*
X0055257Y0162900D01*
X0055257Y0163292D02*
X0046266Y0163292D01*
X0046971Y0163685D02*
X0055257Y0163685D01*
X0055340Y0164077D02*
X0047677Y0164077D01*
X0048383Y0164469D02*
X0055502Y0164469D01*
X0055665Y0164861D02*
X0049089Y0164861D01*
X0049795Y0165253D02*
X0055827Y0165253D01*
X0056057Y0165646D02*
X0050504Y0165646D01*
X0051417Y0166038D02*
X0056449Y0166038D01*
X0056841Y0166430D02*
X0052330Y0166430D01*
X0053242Y0166822D02*
X0057272Y0166822D01*
X0058219Y0167214D02*
X0054155Y0167214D01*
X0055068Y0167607D02*
X0064710Y0167607D01*
X0064774Y0167803D02*
X0064536Y0167070D01*
X0064415Y0166309D01*
X0064415Y0165538D01*
X0064536Y0164777D01*
X0064570Y0164671D01*
X0069066Y0166054D01*
X0067685Y0170543D01*
X0067432Y0170461D01*
X0066745Y0170112D01*
X0066122Y0169658D01*
X0065577Y0169113D01*
X0065124Y0168490D01*
X0064774Y0167803D01*
X0064873Y0167999D02*
X0055981Y0167999D01*
X0056894Y0168391D02*
X0065073Y0168391D01*
X0065337Y0168783D02*
X0057807Y0168783D01*
X0058720Y0169176D02*
X0065639Y0169176D01*
X0066031Y0169568D02*
X0059633Y0169568D01*
X0060985Y0169960D02*
X0066537Y0169960D01*
X0067218Y0170352D02*
X0062399Y0170352D01*
X0063813Y0170744D02*
X0068447Y0170744D01*
X0068165Y0170700D02*
X0068059Y0170665D01*
X0069442Y0166169D01*
X0073932Y0167551D01*
X0073850Y0167803D01*
X0073500Y0168490D01*
X0073047Y0169113D01*
X0072502Y0169658D01*
X0071878Y0170112D01*
X0071192Y0170461D01*
X0070459Y0170700D01*
X0069697Y0170820D01*
X0068926Y0170820D01*
X0068165Y0170700D01*
X0068155Y0170352D02*
X0067743Y0170352D01*
X0067864Y0169960D02*
X0068276Y0169960D01*
X0068397Y0169568D02*
X0067985Y0169568D01*
X0068105Y0169176D02*
X0068517Y0169176D01*
X0068638Y0168783D02*
X0068226Y0168783D01*
X0068347Y0168391D02*
X0068759Y0168391D01*
X0068879Y0167999D02*
X0068467Y0167999D01*
X0068588Y0167607D02*
X0069000Y0167607D01*
X0069121Y0167214D02*
X0068709Y0167214D01*
X0068829Y0166822D02*
X0069241Y0166822D01*
X0069362Y0166430D02*
X0068950Y0166430D01*
X0069066Y0166054D02*
X0069442Y0166169D01*
X0069558Y0165793D01*
X0074054Y0167176D01*
X0074088Y0167070D01*
X0074209Y0166309D01*
X0074209Y0165538D01*
X0074088Y0164777D01*
X0073850Y0164044D01*
X0073500Y0163357D01*
X0073047Y0162733D01*
X0072502Y0162188D01*
X0071878Y0161735D01*
X0071192Y0161385D01*
X0070939Y0161303D01*
X0069558Y0165793D01*
X0069182Y0165677D01*
X0070565Y0161182D01*
X0070459Y0161147D01*
X0069697Y0161027D01*
X0068926Y0161027D01*
X0068165Y0161147D01*
X0067432Y0161385D01*
X0066745Y0161735D01*
X0066122Y0162188D01*
X0065577Y0162733D01*
X0065124Y0163357D01*
X0064774Y0164044D01*
X0064692Y0164296D01*
X0069182Y0165677D01*
X0069066Y0166054D01*
X0069071Y0166038D02*
X0069014Y0166038D01*
X0069078Y0165646D02*
X0067740Y0165646D01*
X0067803Y0165253D02*
X0066465Y0165253D01*
X0066529Y0164861D02*
X0065190Y0164861D01*
X0065254Y0164469D02*
X0064006Y0164469D01*
X0064168Y0164077D02*
X0064763Y0164077D01*
X0064957Y0163685D02*
X0064251Y0163685D01*
X0064251Y0163292D02*
X0065171Y0163292D01*
X0065456Y0162900D02*
X0064251Y0162900D01*
X0064251Y0162508D02*
X0065802Y0162508D01*
X0066222Y0162116D02*
X0064251Y0162116D01*
X0064100Y0161723D02*
X0066768Y0161723D01*
X0067598Y0161331D02*
X0063937Y0161331D01*
X0063775Y0160939D02*
X0079545Y0160939D01*
X0079680Y0160613D02*
X0081929Y0158364D01*
X0084868Y0157146D01*
X0088049Y0157146D01*
X0090988Y0158364D01*
X0093237Y0160613D01*
X0094454Y0163552D01*
X0094454Y0166733D01*
X0093237Y0169672D01*
X0090988Y0171921D01*
X0100898Y0171921D01*
X0102312Y0171529D02*
X0091380Y0171529D01*
X0090988Y0171921D02*
X0088049Y0173139D01*
X0084868Y0173139D01*
X0081929Y0171921D01*
X0068056Y0171921D01*
X0066642Y0171529D02*
X0081537Y0171529D01*
X0081929Y0171921D02*
X0079680Y0169672D01*
X0078462Y0166733D01*
X0078462Y0163552D01*
X0079680Y0160613D01*
X0079746Y0160547D02*
X0063612Y0160547D01*
X0063285Y0160155D02*
X0080138Y0160155D01*
X0080530Y0159762D02*
X0062893Y0159762D01*
X0062501Y0159370D02*
X0080923Y0159370D01*
X0081315Y0158978D02*
X0073113Y0158978D01*
X0073094Y0158987D02*
X0072783Y0159042D01*
X0072469Y0159014D01*
X0071026Y0158489D01*
X0072176Y0155330D01*
X0071806Y0155195D01*
X0071941Y0154825D01*
X0069522Y0153944D01*
X0070316Y0151762D01*
X0070497Y0151503D01*
X0070738Y0151301D01*
X0071024Y0151168D01*
X0071334Y0151113D01*
X0071648Y0151140D01*
X0073091Y0151666D01*
X0071941Y0154825D01*
X0072311Y0154960D01*
X0072176Y0155330D01*
X0074596Y0156210D01*
X0073801Y0158393D01*
X0073621Y0158651D01*
X0073379Y0158854D01*
X0073094Y0158987D01*
X0073666Y0158586D02*
X0081707Y0158586D01*
X0082340Y0158194D02*
X0073874Y0158194D01*
X0074017Y0157801D02*
X0083287Y0157801D01*
X0084234Y0157409D02*
X0074160Y0157409D01*
X0074302Y0157017D02*
X0132044Y0157017D01*
X0131516Y0157409D02*
X0088683Y0157409D01*
X0089630Y0157801D02*
X0130989Y0157801D01*
X0130461Y0158194D02*
X0090577Y0158194D01*
X0091210Y0158586D02*
X0129934Y0158586D01*
X0129406Y0158978D02*
X0091602Y0158978D01*
X0091994Y0159370D02*
X0128878Y0159370D01*
X0128351Y0159762D02*
X0092387Y0159762D01*
X0092779Y0160155D02*
X0127823Y0160155D01*
X0127290Y0160547D02*
X0093171Y0160547D01*
X0093372Y0160939D02*
X0126635Y0160939D01*
X0125980Y0161331D02*
X0093535Y0161331D01*
X0093697Y0161723D02*
X0125324Y0161723D01*
X0124669Y0162116D02*
X0093860Y0162116D01*
X0094022Y0162508D02*
X0124014Y0162508D01*
X0123355Y0162900D02*
X0094184Y0162900D01*
X0094347Y0163292D02*
X0122686Y0163292D01*
X0121983Y0163685D02*
X0094454Y0163685D01*
X0094454Y0164077D02*
X0121277Y0164077D01*
X0120571Y0164469D02*
X0094454Y0164469D01*
X0094454Y0164861D02*
X0119866Y0164861D01*
X0119160Y0165253D02*
X0094454Y0165253D01*
X0094454Y0165646D02*
X0118451Y0165646D01*
X0117538Y0166038D02*
X0094454Y0166038D01*
X0094454Y0166430D02*
X0116625Y0166430D01*
X0115712Y0166822D02*
X0094418Y0166822D01*
X0094255Y0167214D02*
X0114799Y0167214D01*
X0113886Y0167607D02*
X0094093Y0167607D01*
X0093930Y0167999D02*
X0112973Y0167999D01*
X0112060Y0168391D02*
X0093768Y0168391D01*
X0093605Y0168783D02*
X0111147Y0168783D01*
X0110234Y0169176D02*
X0093443Y0169176D01*
X0093280Y0169568D02*
X0109322Y0169568D01*
X0107970Y0169960D02*
X0092949Y0169960D01*
X0092557Y0170352D02*
X0106555Y0170352D01*
X0105141Y0170744D02*
X0092165Y0170744D01*
X0091772Y0171137D02*
X0103727Y0171137D01*
X0099468Y0172313D02*
X0090041Y0172313D01*
X0089095Y0172705D02*
X0096587Y0172705D01*
X0093705Y0173098D02*
X0088148Y0173098D01*
X0090823Y0173490D02*
X0078132Y0173490D01*
X0075250Y0173098D02*
X0084769Y0173098D01*
X0083822Y0172705D02*
X0072368Y0172705D01*
X0069486Y0172313D02*
X0082875Y0172313D01*
X0081144Y0171137D02*
X0065228Y0171137D01*
X0064582Y0167214D02*
X0061289Y0167214D01*
X0062236Y0166822D02*
X0064496Y0166822D01*
X0064434Y0166430D02*
X0062666Y0166430D01*
X0063059Y0166038D02*
X0064415Y0166038D01*
X0064415Y0165646D02*
X0063451Y0165646D01*
X0063681Y0165253D02*
X0064460Y0165253D01*
X0064522Y0164861D02*
X0063843Y0164861D01*
X0069191Y0165646D02*
X0069603Y0165646D01*
X0069483Y0166038D02*
X0070353Y0166038D01*
X0070289Y0166430D02*
X0071628Y0166430D01*
X0071564Y0166822D02*
X0072903Y0166822D01*
X0072839Y0167214D02*
X0078662Y0167214D01*
X0078499Y0166822D02*
X0074127Y0166822D01*
X0074189Y0166430D02*
X0078462Y0166430D01*
X0078462Y0166038D02*
X0074209Y0166038D01*
X0074209Y0165646D02*
X0078462Y0165646D01*
X0078462Y0165253D02*
X0074164Y0165253D01*
X0074101Y0164861D02*
X0078462Y0164861D01*
X0078462Y0164469D02*
X0073988Y0164469D01*
X0073861Y0164077D02*
X0078462Y0164077D01*
X0078462Y0163685D02*
X0073667Y0163685D01*
X0073453Y0163292D02*
X0078570Y0163292D01*
X0078732Y0162900D02*
X0073168Y0162900D01*
X0072822Y0162508D02*
X0078895Y0162508D01*
X0079057Y0162116D02*
X0072402Y0162116D01*
X0071855Y0161723D02*
X0079220Y0161723D01*
X0079382Y0161331D02*
X0071025Y0161331D01*
X0070930Y0161331D02*
X0070519Y0161331D01*
X0070398Y0161723D02*
X0070810Y0161723D01*
X0070689Y0162116D02*
X0070277Y0162116D01*
X0070157Y0162508D02*
X0070568Y0162508D01*
X0070448Y0162900D02*
X0070036Y0162900D01*
X0069915Y0163292D02*
X0070327Y0163292D01*
X0070207Y0163685D02*
X0069795Y0163685D01*
X0069674Y0164077D02*
X0070086Y0164077D01*
X0069965Y0164469D02*
X0069553Y0164469D01*
X0069433Y0164861D02*
X0069845Y0164861D01*
X0069724Y0165253D02*
X0069312Y0165253D01*
X0073914Y0167607D02*
X0078824Y0167607D01*
X0078987Y0167999D02*
X0073750Y0167999D01*
X0073550Y0168391D02*
X0079149Y0168391D01*
X0079312Y0168783D02*
X0073287Y0168783D01*
X0072985Y0169176D02*
X0079474Y0169176D01*
X0079637Y0169568D02*
X0072593Y0169568D01*
X0072087Y0169960D02*
X0079968Y0169960D01*
X0080360Y0170352D02*
X0071406Y0170352D01*
X0070176Y0170744D02*
X0080752Y0170744D01*
X0072370Y0158978D02*
X0061836Y0158978D01*
X0061203Y0158586D02*
X0071292Y0158586D01*
X0071134Y0158194D02*
X0070715Y0158194D01*
X0070657Y0158354D02*
X0069214Y0157829D01*
X0068955Y0157648D01*
X0068753Y0157407D01*
X0068620Y0157121D01*
X0068565Y0156811D01*
X0068592Y0156497D01*
X0069387Y0154314D01*
X0071806Y0155195D01*
X0070657Y0158354D01*
X0070215Y0158194D02*
X0061596Y0158194D01*
X0061988Y0157801D02*
X0069174Y0157801D01*
X0068755Y0157409D02*
X0062380Y0157409D01*
X0062772Y0157017D02*
X0068601Y0157017D01*
X0068581Y0156625D02*
X0063164Y0156625D01*
X0063557Y0156233D02*
X0065996Y0156233D01*
X0066197Y0156233D02*
X0068689Y0156233D01*
X0068831Y0155840D02*
X0066763Y0155840D01*
X0066906Y0155448D02*
X0068974Y0155448D01*
X0069117Y0155056D02*
X0067049Y0155056D01*
X0067192Y0154664D02*
X0069260Y0154664D01*
X0069545Y0153879D02*
X0067477Y0153879D01*
X0067620Y0153487D02*
X0069688Y0153487D01*
X0069831Y0153095D02*
X0067763Y0153095D01*
X0067906Y0152703D02*
X0069974Y0152703D01*
X0070116Y0152310D02*
X0068048Y0152310D01*
X0068191Y0151918D02*
X0070259Y0151918D01*
X0070481Y0151526D02*
X0068334Y0151526D01*
X0068477Y0151134D02*
X0071216Y0151134D01*
X0071572Y0151134D02*
X0102984Y0151134D01*
X0102984Y0151526D02*
X0072707Y0151526D01*
X0072999Y0151918D02*
X0073418Y0151918D01*
X0073461Y0151800D02*
X0074904Y0152325D01*
X0075162Y0152506D01*
X0075365Y0152748D01*
X0075498Y0153033D01*
X0075553Y0153344D01*
X0075525Y0153657D01*
X0074731Y0155840D01*
X0103358Y0155840D01*
X0102984Y0155448D02*
X0074873Y0155448D01*
X0074731Y0155840D02*
X0073580Y0155840D01*
X0073653Y0155448D02*
X0072502Y0155448D01*
X0072133Y0155448D02*
X0071714Y0155448D01*
X0071572Y0155840D02*
X0071990Y0155840D01*
X0071848Y0156233D02*
X0071429Y0156233D01*
X0071286Y0156625D02*
X0071705Y0156625D01*
X0071562Y0157017D02*
X0071143Y0157017D01*
X0071001Y0157409D02*
X0071419Y0157409D01*
X0071277Y0157801D02*
X0070858Y0157801D01*
X0071424Y0155056D02*
X0071857Y0155056D01*
X0072000Y0154664D02*
X0072419Y0154664D01*
X0072311Y0154960D02*
X0073461Y0151800D01*
X0073785Y0151918D02*
X0102984Y0151918D01*
X0102984Y0152310D02*
X0074863Y0152310D01*
X0075327Y0152703D02*
X0102984Y0152703D01*
X0102984Y0153095D02*
X0075509Y0153095D01*
X0075540Y0153487D02*
X0102984Y0153487D01*
X0102984Y0153879D02*
X0075444Y0153879D01*
X0075302Y0154271D02*
X0102984Y0154271D01*
X0102984Y0154664D02*
X0075159Y0154664D01*
X0075016Y0155056D02*
X0102984Y0155056D01*
X0106404Y0155840D02*
X0106508Y0155840D01*
X0109553Y0155840D02*
X0109658Y0155840D01*
X0112703Y0155840D02*
X0112807Y0155840D01*
X0115853Y0155840D02*
X0115957Y0155840D01*
X0119002Y0155840D02*
X0119106Y0155840D01*
X0122152Y0155840D02*
X0122256Y0155840D01*
X0125301Y0155840D02*
X0125406Y0155840D01*
X0128451Y0155840D02*
X0133627Y0155840D01*
X0134155Y0155448D02*
X0128825Y0155448D01*
X0128825Y0155056D02*
X0134682Y0155056D01*
X0135210Y0154664D02*
X0128825Y0154664D01*
X0128825Y0154271D02*
X0135687Y0154271D01*
X0136089Y0153879D02*
X0128825Y0153879D01*
X0128825Y0153487D02*
X0136492Y0153487D01*
X0136894Y0153095D02*
X0128825Y0153095D01*
X0128825Y0152703D02*
X0137297Y0152703D01*
X0137700Y0152310D02*
X0128825Y0152310D01*
X0128825Y0151918D02*
X0138102Y0151918D01*
X0138505Y0151526D02*
X0128825Y0151526D01*
X0128825Y0151134D02*
X0138908Y0151134D01*
X0139310Y0150742D02*
X0128825Y0150742D01*
X0128825Y0150349D02*
X0139713Y0150349D01*
X0140115Y0149957D02*
X0136308Y0149957D01*
X0136700Y0149565D02*
X0140518Y0149565D01*
X0140921Y0149173D02*
X0137092Y0149173D01*
X0137484Y0148780D02*
X0141323Y0148780D01*
X0141726Y0148388D02*
X0137877Y0148388D01*
X0138269Y0147996D02*
X0142128Y0147996D01*
X0142531Y0147604D02*
X0138661Y0147604D01*
X0139053Y0147212D02*
X0142913Y0147212D01*
X0143221Y0146819D02*
X0139445Y0146819D01*
X0139838Y0146427D02*
X0143529Y0146427D01*
X0143837Y0146035D02*
X0140230Y0146035D01*
X0140622Y0145643D02*
X0144144Y0145643D01*
X0144452Y0145251D02*
X0141014Y0145251D01*
X0141406Y0144858D02*
X0144760Y0144858D01*
X0145068Y0144466D02*
X0141799Y0144466D01*
X0142191Y0144074D02*
X0145376Y0144074D01*
X0145683Y0143682D02*
X0142583Y0143682D01*
X0142975Y0143290D02*
X0145991Y0143290D01*
X0146299Y0142897D02*
X0143368Y0142897D01*
X0143760Y0142505D02*
X0146607Y0142505D01*
X0146915Y0142113D02*
X0144152Y0142113D01*
X0144544Y0141721D02*
X0147222Y0141721D01*
X0147530Y0141328D02*
X0144936Y0141328D01*
X0145329Y0140936D02*
X0147838Y0140936D01*
X0148146Y0140544D02*
X0145721Y0140544D01*
X0146113Y0140152D02*
X0148454Y0140152D01*
X0148762Y0139760D02*
X0146505Y0139760D01*
X0146897Y0139367D02*
X0149069Y0139367D01*
X0149323Y0138975D02*
X0147290Y0138975D01*
X0147682Y0138583D02*
X0149554Y0138583D01*
X0149785Y0138191D02*
X0148074Y0138191D01*
X0148466Y0137799D02*
X0150016Y0137799D01*
X0150247Y0137406D02*
X0148858Y0137406D01*
X0149251Y0137014D02*
X0150478Y0137014D01*
X0150709Y0136622D02*
X0149643Y0136622D01*
X0150035Y0136230D02*
X0150940Y0136230D01*
X0151171Y0135837D02*
X0150427Y0135837D01*
X0150820Y0135445D02*
X0151402Y0135445D01*
X0151212Y0135053D02*
X0151633Y0135053D01*
X0151604Y0134661D02*
X0151864Y0134661D01*
X0151996Y0134269D02*
X0152095Y0134269D01*
X0154779Y0129170D02*
X0154885Y0129170D01*
X0154779Y0128778D02*
X0155051Y0128778D01*
X0155216Y0128385D02*
X0154779Y0128385D01*
X0154779Y0127993D02*
X0155382Y0127993D01*
X0155547Y0127601D02*
X0154779Y0127601D01*
X0154779Y0127209D02*
X0155713Y0127209D01*
X0155878Y0126817D02*
X0154779Y0126817D01*
X0154779Y0126424D02*
X0156044Y0126424D01*
X0156209Y0126032D02*
X0154779Y0126032D01*
X0154779Y0125640D02*
X0156374Y0125640D01*
X0156540Y0125248D02*
X0154779Y0125248D01*
X0154779Y0124856D02*
X0156705Y0124856D01*
X0156871Y0124463D02*
X0154779Y0124463D01*
X0154779Y0124071D02*
X0157036Y0124071D01*
X0157202Y0123679D02*
X0154779Y0123679D01*
X0154779Y0123287D02*
X0157367Y0123287D01*
X0157533Y0122894D02*
X0154779Y0122894D01*
X0154779Y0122502D02*
X0157698Y0122502D01*
X0157864Y0122110D02*
X0154779Y0122110D01*
X0154779Y0121718D02*
X0158029Y0121718D01*
X0158195Y0121326D02*
X0154779Y0121326D01*
X0154779Y0120933D02*
X0158346Y0120933D01*
X0158453Y0120541D02*
X0154779Y0120541D01*
X0154779Y0120149D02*
X0158560Y0120149D01*
X0158667Y0119757D02*
X0154779Y0119757D01*
X0154779Y0119365D02*
X0158774Y0119365D01*
X0158881Y0118972D02*
X0154779Y0118972D01*
X0154779Y0118580D02*
X0158988Y0118580D01*
X0159095Y0118188D02*
X0154779Y0118188D01*
X0154779Y0117796D02*
X0159202Y0117796D01*
X0159309Y0117404D02*
X0154779Y0117404D01*
X0154779Y0117011D02*
X0159416Y0117011D01*
X0159523Y0116619D02*
X0154779Y0116619D01*
X0154779Y0116227D02*
X0159630Y0116227D01*
X0159737Y0115835D02*
X0154779Y0115835D01*
X0154779Y0115442D02*
X0159843Y0115442D01*
X0159950Y0115050D02*
X0154779Y0115050D01*
X0154779Y0114658D02*
X0160057Y0114658D01*
X0160164Y0114266D02*
X0154779Y0114266D01*
X0154779Y0113874D02*
X0160271Y0113874D01*
X0160378Y0113481D02*
X0154779Y0113481D01*
X0154779Y0113089D02*
X0160485Y0113089D01*
X0160592Y0112697D02*
X0154779Y0112697D01*
X0154779Y0112305D02*
X0160699Y0112305D01*
X0160806Y0111913D02*
X0154779Y0111913D01*
X0154779Y0111520D02*
X0160913Y0111520D01*
X0161015Y0111128D02*
X0154779Y0111128D01*
X0154779Y0110736D02*
X0161068Y0110736D01*
X0161120Y0110344D02*
X0154779Y0110344D01*
X0154779Y0109951D02*
X0161173Y0109951D01*
X0161225Y0109559D02*
X0154779Y0109559D01*
X0155894Y0109167D02*
X0161278Y0109167D01*
X0161330Y0108775D02*
X0156286Y0108775D01*
X0156679Y0108383D02*
X0161383Y0108383D01*
X0161435Y0107990D02*
X0157071Y0107990D01*
X0157463Y0107598D02*
X0161488Y0107598D01*
X0161540Y0107206D02*
X0157855Y0107206D01*
X0158222Y0106814D02*
X0161593Y0106814D01*
X0161645Y0106422D02*
X0158222Y0106422D01*
X0158222Y0106029D02*
X0161698Y0106029D01*
X0161750Y0105637D02*
X0158222Y0105637D01*
X0158222Y0105245D02*
X0161803Y0105245D01*
X0161855Y0104853D02*
X0158222Y0104853D01*
X0158222Y0104461D02*
X0161908Y0104461D01*
X0161960Y0104068D02*
X0158222Y0104068D01*
X0158222Y0103676D02*
X0162013Y0103676D01*
X0162065Y0103284D02*
X0158222Y0103284D01*
X0158000Y0102892D02*
X0162118Y0102892D01*
X0162170Y0102499D02*
X0157608Y0102499D01*
X0157216Y0102107D02*
X0162223Y0102107D01*
X0162275Y0101715D02*
X0156824Y0101715D01*
X0156431Y0101323D02*
X0162328Y0101323D01*
X0162367Y0100931D02*
X0156039Y0100931D01*
X0155647Y0100538D02*
X0162367Y0100538D01*
X0143922Y0105173D02*
X0143529Y0105173D01*
X0143529Y0109873D01*
X0141697Y0109873D01*
X0138829Y0107005D01*
X0138829Y0105173D01*
X0143529Y0105173D01*
X0143529Y0104779D01*
X0138885Y0104779D01*
X0137936Y0105729D01*
X0127866Y0105729D01*
X0127866Y0107165D01*
X0127399Y0107631D01*
X0126879Y0107631D01*
X0126879Y0115539D01*
X0128358Y0115539D01*
X0128825Y0116006D01*
X0128825Y0121666D01*
X0128358Y0122133D01*
X0125498Y0122133D01*
X0125354Y0121988D01*
X0125209Y0122133D01*
X0122349Y0122133D01*
X0122204Y0121988D01*
X0122059Y0122133D01*
X0120632Y0122133D01*
X0112736Y0130029D01*
X0110921Y0130029D01*
X0109871Y0131079D01*
X0108093Y0131079D01*
X0106835Y0129821D01*
X0106835Y0128042D01*
X0108093Y0126785D01*
X0109871Y0126785D01*
X0110921Y0127835D01*
X0111828Y0127835D01*
X0117529Y0122133D01*
X0116049Y0122133D01*
X0115905Y0121988D01*
X0115760Y0122133D01*
X0112900Y0122133D01*
X0112755Y0121988D01*
X0112610Y0122133D01*
X0109750Y0122133D01*
X0109605Y0121988D01*
X0109461Y0122133D01*
X0106601Y0122133D01*
X0106456Y0121988D01*
X0106311Y0122133D01*
X0103859Y0122133D01*
X0104379Y0122653D01*
X0104379Y0130410D01*
X0103457Y0131332D01*
X0104460Y0132335D01*
X0129508Y0132335D01*
X0129508Y0129582D01*
X0129653Y0129437D01*
X0129508Y0129292D01*
X0129508Y0126432D01*
X0129653Y0126287D01*
X0129508Y0126143D01*
X0129508Y0123282D01*
X0129975Y0122816D01*
X0131885Y0122816D01*
X0131885Y0121877D01*
X0143922Y0109840D01*
X0143922Y0105173D01*
X0143922Y0105245D02*
X0143529Y0105245D01*
X0143529Y0105637D02*
X0143922Y0105637D01*
X0143922Y0106029D02*
X0143529Y0106029D01*
X0143529Y0106422D02*
X0143922Y0106422D01*
X0143922Y0106814D02*
X0143529Y0106814D01*
X0143529Y0107206D02*
X0143922Y0107206D01*
X0143922Y0107598D02*
X0143529Y0107598D01*
X0143529Y0107990D02*
X0143922Y0107990D01*
X0143922Y0108383D02*
X0143529Y0108383D01*
X0143529Y0108775D02*
X0143922Y0108775D01*
X0143922Y0109167D02*
X0143529Y0109167D01*
X0143529Y0109559D02*
X0143922Y0109559D01*
X0143811Y0109951D02*
X0126879Y0109951D01*
X0126879Y0109559D02*
X0141383Y0109559D01*
X0140991Y0109167D02*
X0126879Y0109167D01*
X0126879Y0108775D02*
X0140599Y0108775D01*
X0140207Y0108383D02*
X0126879Y0108383D01*
X0126879Y0107990D02*
X0139814Y0107990D01*
X0139422Y0107598D02*
X0127432Y0107598D01*
X0127824Y0107206D02*
X0139030Y0107206D01*
X0138829Y0106814D02*
X0127866Y0106814D01*
X0127866Y0106422D02*
X0138829Y0106422D01*
X0138829Y0106029D02*
X0127866Y0106029D01*
X0127866Y0103535D02*
X0137028Y0103535D01*
X0141185Y0099377D01*
X0141476Y0099086D01*
X0141218Y0098829D01*
X0127897Y0098829D01*
X0127897Y0100559D01*
X0127430Y0101026D01*
X0124039Y0101026D01*
X0123879Y0101186D01*
X0123879Y0101313D01*
X0127399Y0101313D01*
X0127866Y0101780D01*
X0127866Y0103535D01*
X0127866Y0103284D02*
X0137279Y0103284D01*
X0137671Y0102892D02*
X0127866Y0102892D01*
X0127866Y0102499D02*
X0138063Y0102499D01*
X0138455Y0102107D02*
X0127866Y0102107D01*
X0127801Y0101715D02*
X0138847Y0101715D01*
X0139240Y0101323D02*
X0127408Y0101323D01*
X0127526Y0100931D02*
X0139632Y0100931D01*
X0140024Y0100538D02*
X0127897Y0100538D01*
X0127897Y0100146D02*
X0140416Y0100146D01*
X0140808Y0099754D02*
X0127897Y0099754D01*
X0127897Y0099362D02*
X0141201Y0099362D01*
X0141359Y0098970D02*
X0127897Y0098970D01*
X0127897Y0096616D02*
X0139229Y0096616D01*
X0139229Y0096224D02*
X0127897Y0096224D01*
X0127897Y0095832D02*
X0139229Y0095832D01*
X0139229Y0095440D02*
X0127897Y0095440D01*
X0123281Y0095047D02*
X0122079Y0095047D01*
X0122079Y0095440D02*
X0123154Y0095440D01*
X0123154Y0095832D02*
X0122079Y0095832D01*
X0122079Y0096224D02*
X0123154Y0096224D01*
X0123154Y0096616D02*
X0122079Y0096616D01*
X0122079Y0097008D02*
X0123154Y0097008D01*
X0123154Y0097401D02*
X0122079Y0097401D01*
X0122079Y0097793D02*
X0123154Y0097793D01*
X0123154Y0098185D02*
X0122079Y0098185D01*
X0122079Y0098577D02*
X0123154Y0098577D01*
X0122993Y0098970D02*
X0122079Y0098970D01*
X0122079Y0099362D02*
X0122601Y0099362D01*
X0122328Y0099635D02*
X0122328Y0099635D01*
X0122208Y0099754D02*
X0122079Y0099754D01*
X0116036Y0103637D02*
X0116036Y0107165D01*
X0116502Y0107631D01*
X0119885Y0107631D01*
X0119885Y0112877D01*
X0117228Y0115535D01*
X0117223Y0115539D01*
X0116049Y0115539D01*
X0115905Y0115684D01*
X0115760Y0115539D01*
X0112900Y0115539D01*
X0112755Y0115684D01*
X0112610Y0115539D01*
X0112179Y0115539D01*
X0112179Y0106577D01*
X0108930Y0103329D01*
X0115728Y0103329D01*
X0116036Y0103637D01*
X0116036Y0103676D02*
X0109277Y0103676D01*
X0109670Y0104068D02*
X0116036Y0104068D01*
X0116036Y0104461D02*
X0110062Y0104461D01*
X0110454Y0104853D02*
X0116036Y0104853D01*
X0116036Y0105245D02*
X0110846Y0105245D01*
X0111238Y0105637D02*
X0116036Y0105637D01*
X0116036Y0106029D02*
X0111631Y0106029D01*
X0112023Y0106422D02*
X0116036Y0106422D01*
X0116036Y0106814D02*
X0112179Y0106814D01*
X0112179Y0107206D02*
X0116077Y0107206D01*
X0116469Y0107598D02*
X0112179Y0107598D01*
X0112179Y0107990D02*
X0119885Y0107990D01*
X0119885Y0108383D02*
X0112179Y0108383D01*
X0112179Y0108775D02*
X0119885Y0108775D01*
X0119885Y0109167D02*
X0112179Y0109167D01*
X0112179Y0109559D02*
X0119885Y0109559D01*
X0119885Y0109951D02*
X0112179Y0109951D01*
X0112179Y0110344D02*
X0119885Y0110344D01*
X0119885Y0110736D02*
X0112179Y0110736D01*
X0112179Y0111128D02*
X0119885Y0111128D01*
X0119885Y0111520D02*
X0112179Y0111520D01*
X0112179Y0111913D02*
X0119885Y0111913D01*
X0119885Y0112305D02*
X0112179Y0112305D01*
X0112179Y0112697D02*
X0119885Y0112697D01*
X0119673Y0113089D02*
X0112179Y0113089D01*
X0112179Y0113481D02*
X0119281Y0113481D01*
X0118889Y0113874D02*
X0112179Y0113874D01*
X0112179Y0114266D02*
X0118497Y0114266D01*
X0118104Y0114658D02*
X0112179Y0114658D01*
X0112179Y0115050D02*
X0117712Y0115050D01*
X0117320Y0115442D02*
X0112179Y0115442D01*
X0112633Y0122110D02*
X0112877Y0122110D01*
X0115783Y0122110D02*
X0116026Y0122110D01*
X0116768Y0122894D02*
X0104379Y0122894D01*
X0104379Y0123287D02*
X0116376Y0123287D01*
X0115984Y0123679D02*
X0104379Y0123679D01*
X0104379Y0124071D02*
X0115591Y0124071D01*
X0115199Y0124463D02*
X0104379Y0124463D01*
X0104379Y0124856D02*
X0114807Y0124856D01*
X0114415Y0125248D02*
X0104379Y0125248D01*
X0104379Y0125640D02*
X0114022Y0125640D01*
X0113630Y0126032D02*
X0104379Y0126032D01*
X0104379Y0126424D02*
X0113238Y0126424D01*
X0112846Y0126817D02*
X0109903Y0126817D01*
X0110295Y0127209D02*
X0112454Y0127209D01*
X0112061Y0127601D02*
X0110687Y0127601D01*
X0108061Y0126817D02*
X0104379Y0126817D01*
X0104379Y0127209D02*
X0107669Y0127209D01*
X0107277Y0127601D02*
X0104379Y0127601D01*
X0104379Y0127993D02*
X0106884Y0127993D01*
X0106835Y0128385D02*
X0104379Y0128385D01*
X0104379Y0128778D02*
X0106835Y0128778D01*
X0106835Y0129170D02*
X0104379Y0129170D01*
X0104379Y0129562D02*
X0106835Y0129562D01*
X0106968Y0129954D02*
X0104379Y0129954D01*
X0104379Y0130347D02*
X0107361Y0130347D01*
X0107753Y0130739D02*
X0104050Y0130739D01*
X0103658Y0131131D02*
X0129508Y0131131D01*
X0129508Y0131523D02*
X0103649Y0131523D01*
X0104041Y0131915D02*
X0129508Y0131915D01*
X0129508Y0132308D02*
X0104433Y0132308D01*
X0102836Y0134661D02*
X0102702Y0134661D01*
X0102702Y0135053D02*
X0103228Y0135053D01*
X0102694Y0135445D02*
X0129378Y0135445D01*
X0129166Y0135837D02*
X0102554Y0135837D01*
X0102302Y0136230D02*
X0129108Y0136230D01*
X0129108Y0136622D02*
X0102302Y0136622D01*
X0102302Y0137014D02*
X0129108Y0137014D01*
X0129508Y0140936D02*
X0102702Y0140936D01*
X0102702Y0141328D02*
X0129508Y0141328D01*
X0129508Y0141721D02*
X0102701Y0141721D01*
X0102568Y0142113D02*
X0129575Y0142113D01*
X0129508Y0142505D02*
X0102302Y0142505D01*
X0102302Y0142897D02*
X0129508Y0142897D01*
X0129508Y0143290D02*
X0102302Y0143290D01*
X0102302Y0143682D02*
X0129508Y0143682D01*
X0129508Y0144074D02*
X0102302Y0144074D01*
X0102302Y0144466D02*
X0129508Y0144466D01*
X0129508Y0144858D02*
X0102302Y0144858D01*
X0102222Y0145251D02*
X0129587Y0145251D01*
X0129508Y0145643D02*
X0102302Y0145643D01*
X0102302Y0146035D02*
X0129508Y0146035D01*
X0129508Y0146427D02*
X0102302Y0146427D01*
X0102302Y0146819D02*
X0129508Y0146819D01*
X0129508Y0147212D02*
X0102302Y0147212D01*
X0102302Y0147604D02*
X0129508Y0147604D01*
X0136102Y0146819D02*
X0136343Y0146819D01*
X0136102Y0146427D02*
X0136735Y0146427D01*
X0137127Y0146035D02*
X0136102Y0146035D01*
X0136102Y0145643D02*
X0137520Y0145643D01*
X0137912Y0145251D02*
X0136022Y0145251D01*
X0136102Y0144858D02*
X0138304Y0144858D01*
X0138696Y0144466D02*
X0136102Y0144466D01*
X0136102Y0144074D02*
X0139089Y0144074D01*
X0139481Y0143682D02*
X0136102Y0143682D01*
X0136102Y0143290D02*
X0139873Y0143290D01*
X0140265Y0142897D02*
X0136102Y0142897D01*
X0136102Y0142505D02*
X0140657Y0142505D01*
X0141050Y0142113D02*
X0136034Y0142113D01*
X0136102Y0141721D02*
X0141442Y0141721D01*
X0141834Y0141328D02*
X0136102Y0141328D01*
X0136102Y0140936D02*
X0142226Y0140936D01*
X0142618Y0140544D02*
X0136102Y0140544D01*
X0136102Y0140152D02*
X0143011Y0140152D01*
X0143403Y0139760D02*
X0136102Y0139760D01*
X0136102Y0139367D02*
X0143795Y0139367D01*
X0144187Y0138975D02*
X0136361Y0138975D01*
X0136498Y0138583D02*
X0144579Y0138583D01*
X0144972Y0138191D02*
X0136502Y0138191D01*
X0136502Y0137799D02*
X0145364Y0137799D01*
X0152585Y0122502D02*
X0134363Y0122502D01*
X0132829Y0120933D02*
X0128825Y0120933D01*
X0128825Y0120541D02*
X0133221Y0120541D01*
X0133613Y0120149D02*
X0128825Y0120149D01*
X0128825Y0119757D02*
X0134006Y0119757D01*
X0134398Y0119365D02*
X0128825Y0119365D01*
X0128825Y0118972D02*
X0134790Y0118972D01*
X0135182Y0118580D02*
X0128825Y0118580D01*
X0128825Y0118188D02*
X0135575Y0118188D01*
X0135967Y0117796D02*
X0128825Y0117796D01*
X0128825Y0117404D02*
X0136359Y0117404D01*
X0136751Y0117011D02*
X0128825Y0117011D01*
X0128825Y0116619D02*
X0137143Y0116619D01*
X0137536Y0116227D02*
X0128825Y0116227D01*
X0128654Y0115835D02*
X0137928Y0115835D01*
X0138320Y0115442D02*
X0126879Y0115442D01*
X0126879Y0115050D02*
X0138712Y0115050D01*
X0139104Y0114658D02*
X0126879Y0114658D01*
X0126879Y0114266D02*
X0139497Y0114266D01*
X0139889Y0113874D02*
X0126879Y0113874D01*
X0126879Y0113481D02*
X0140281Y0113481D01*
X0140673Y0113089D02*
X0126879Y0113089D01*
X0126879Y0112697D02*
X0141065Y0112697D01*
X0141458Y0112305D02*
X0126879Y0112305D01*
X0126879Y0111913D02*
X0141850Y0111913D01*
X0142242Y0111520D02*
X0126879Y0111520D01*
X0126879Y0111128D02*
X0142634Y0111128D01*
X0143027Y0110736D02*
X0126879Y0110736D01*
X0126879Y0110344D02*
X0143419Y0110344D01*
X0143529Y0104853D02*
X0138812Y0104853D01*
X0138829Y0105245D02*
X0138420Y0105245D01*
X0138028Y0105637D02*
X0138829Y0105637D01*
X0132437Y0121326D02*
X0128825Y0121326D01*
X0128774Y0121718D02*
X0132045Y0121718D01*
X0131885Y0122110D02*
X0128381Y0122110D01*
X0129508Y0123287D02*
X0119478Y0123287D01*
X0119086Y0123679D02*
X0129508Y0123679D01*
X0129508Y0124071D02*
X0118694Y0124071D01*
X0118301Y0124463D02*
X0129508Y0124463D01*
X0129508Y0124856D02*
X0117909Y0124856D01*
X0117517Y0125248D02*
X0129508Y0125248D01*
X0129508Y0125640D02*
X0117125Y0125640D01*
X0116733Y0126032D02*
X0129508Y0126032D01*
X0129516Y0126424D02*
X0116340Y0126424D01*
X0115948Y0126817D02*
X0129508Y0126817D01*
X0129508Y0127209D02*
X0115556Y0127209D01*
X0115164Y0127601D02*
X0129508Y0127601D01*
X0129508Y0127993D02*
X0114772Y0127993D01*
X0114379Y0128385D02*
X0129508Y0128385D01*
X0129508Y0128778D02*
X0113987Y0128778D01*
X0113595Y0129170D02*
X0129508Y0129170D01*
X0129527Y0129562D02*
X0113203Y0129562D01*
X0112811Y0129954D02*
X0129508Y0129954D01*
X0129508Y0130347D02*
X0110603Y0130347D01*
X0110211Y0130739D02*
X0129508Y0130739D01*
X0129896Y0122894D02*
X0119870Y0122894D01*
X0120263Y0122502D02*
X0131885Y0122502D01*
X0125475Y0122110D02*
X0125232Y0122110D01*
X0122326Y0122110D02*
X0122082Y0122110D01*
X0117160Y0122502D02*
X0104228Y0122502D01*
X0106334Y0122110D02*
X0106578Y0122110D01*
X0109484Y0122110D02*
X0109727Y0122110D01*
X0102172Y0114266D02*
X0088067Y0114266D01*
X0088459Y0114658D02*
X0101780Y0114658D01*
X0101388Y0115050D02*
X0088852Y0115050D01*
X0089244Y0115442D02*
X0100996Y0115442D01*
X0100985Y0115835D02*
X0089636Y0115835D01*
X0090028Y0116227D02*
X0100985Y0116227D01*
X0100985Y0116619D02*
X0091905Y0116619D01*
X0092298Y0117011D02*
X0100985Y0117011D01*
X0100985Y0117404D02*
X0092690Y0117404D01*
X0093082Y0117796D02*
X0100985Y0117796D01*
X0100985Y0118188D02*
X0093129Y0118188D01*
X0093129Y0118580D02*
X0100985Y0118580D01*
X0100985Y0118972D02*
X0093129Y0118972D01*
X0093129Y0119365D02*
X0100985Y0119365D01*
X0100985Y0119757D02*
X0092993Y0119757D01*
X0092601Y0120149D02*
X0100985Y0120149D01*
X0100985Y0120541D02*
X0092209Y0120541D01*
X0089755Y0120541D02*
X0080667Y0120541D01*
X0081059Y0120933D02*
X0100985Y0120933D01*
X0100985Y0121326D02*
X0081451Y0121326D01*
X0081843Y0121718D02*
X0100985Y0121718D01*
X0100985Y0122110D02*
X0082236Y0122110D01*
X0082628Y0122502D02*
X0100985Y0122502D01*
X0096096Y0122894D02*
X0083020Y0122894D01*
X0083412Y0123287D02*
X0095708Y0123287D01*
X0095708Y0123679D02*
X0083804Y0123679D01*
X0084197Y0124071D02*
X0095708Y0124071D01*
X0095708Y0124463D02*
X0084589Y0124463D01*
X0084981Y0124856D02*
X0095708Y0124856D01*
X0095708Y0125248D02*
X0085373Y0125248D01*
X0085766Y0125640D02*
X0095708Y0125640D01*
X0095708Y0126032D02*
X0086158Y0126032D01*
X0086550Y0126424D02*
X0095716Y0126424D01*
X0095708Y0126817D02*
X0086942Y0126817D01*
X0087334Y0127209D02*
X0095708Y0127209D01*
X0095708Y0127601D02*
X0087727Y0127601D01*
X0088119Y0127993D02*
X0095708Y0127993D01*
X0095708Y0128385D02*
X0088511Y0128385D01*
X0088903Y0128778D02*
X0095708Y0128778D01*
X0095708Y0129170D02*
X0089295Y0129170D01*
X0089688Y0129562D02*
X0095727Y0129562D01*
X0095708Y0129954D02*
X0090080Y0129954D01*
X0090472Y0130347D02*
X0095392Y0130347D01*
X0094999Y0130739D02*
X0090864Y0130739D01*
X0089363Y0120149D02*
X0080275Y0120149D01*
X0079882Y0119757D02*
X0088971Y0119757D01*
X0088835Y0119365D02*
X0079490Y0119365D01*
X0079098Y0118972D02*
X0088835Y0118972D01*
X0088835Y0118580D02*
X0078706Y0118580D01*
X0078313Y0118188D02*
X0088835Y0118188D01*
X0088495Y0117796D02*
X0077921Y0117796D01*
X0077529Y0117404D02*
X0088102Y0117404D01*
X0087710Y0117011D02*
X0077137Y0117011D01*
X0076745Y0116619D02*
X0087318Y0116619D01*
X0086926Y0116227D02*
X0076352Y0116227D01*
X0075960Y0115835D02*
X0086534Y0115835D01*
X0086141Y0115442D02*
X0075568Y0115442D01*
X0075176Y0115050D02*
X0085749Y0115050D01*
X0085357Y0114658D02*
X0074784Y0114658D01*
X0074391Y0114266D02*
X0084965Y0114266D01*
X0084573Y0113874D02*
X0073999Y0113874D01*
X0073607Y0113481D02*
X0084180Y0113481D01*
X0083788Y0113089D02*
X0073215Y0113089D01*
X0072823Y0112697D02*
X0083396Y0112697D01*
X0083004Y0112305D02*
X0078377Y0112305D01*
X0078291Y0112355D02*
X0077986Y0112437D01*
X0074775Y0112436D01*
X0074775Y0109468D01*
X0079025Y0109468D01*
X0079025Y0111397D01*
X0078944Y0111702D01*
X0078786Y0111975D01*
X0078563Y0112197D01*
X0078291Y0112355D01*
X0078822Y0111913D02*
X0082612Y0111913D01*
X0082219Y0111520D02*
X0078992Y0111520D01*
X0079025Y0111128D02*
X0081827Y0111128D01*
X0081435Y0110736D02*
X0079025Y0110736D01*
X0079025Y0110344D02*
X0081043Y0110344D01*
X0080650Y0109951D02*
X0079025Y0109951D01*
X0079025Y0109559D02*
X0080258Y0109559D01*
X0079866Y0109167D02*
X0074775Y0109167D01*
X0074775Y0109559D02*
X0074382Y0109559D01*
X0074382Y0109951D02*
X0074775Y0109951D01*
X0074775Y0110344D02*
X0074382Y0110344D01*
X0074382Y0110736D02*
X0074775Y0110736D01*
X0074775Y0111128D02*
X0074382Y0111128D01*
X0074382Y0111520D02*
X0074775Y0111520D01*
X0074775Y0111913D02*
X0074382Y0111913D01*
X0074382Y0112305D02*
X0074775Y0112305D01*
X0079025Y0108775D02*
X0079474Y0108775D01*
X0079082Y0108383D02*
X0079025Y0108383D01*
X0080615Y0106814D02*
X0090982Y0106814D01*
X0090823Y0106973D02*
X0091290Y0106506D01*
X0098450Y0106506D01*
X0098917Y0106973D01*
X0098917Y0111570D01*
X0098450Y0112037D01*
X0091290Y0112037D01*
X0090823Y0111570D01*
X0090823Y0106973D01*
X0090823Y0107206D02*
X0081007Y0107206D01*
X0081400Y0107598D02*
X0090823Y0107598D01*
X0090823Y0107990D02*
X0081792Y0107990D01*
X0082184Y0108383D02*
X0090823Y0108383D01*
X0090823Y0108775D02*
X0082576Y0108775D01*
X0082968Y0109167D02*
X0090823Y0109167D01*
X0090823Y0109559D02*
X0083361Y0109559D01*
X0083753Y0109951D02*
X0090823Y0109951D01*
X0090823Y0110344D02*
X0084145Y0110344D01*
X0084537Y0110736D02*
X0090823Y0110736D01*
X0090823Y0111128D02*
X0084929Y0111128D01*
X0085322Y0111520D02*
X0090823Y0111520D01*
X0091166Y0111913D02*
X0085714Y0111913D01*
X0086106Y0112305D02*
X0104133Y0112305D01*
X0103741Y0112697D02*
X0086498Y0112697D01*
X0086890Y0113089D02*
X0103349Y0113089D01*
X0102957Y0113481D02*
X0087283Y0113481D01*
X0087675Y0113874D02*
X0102565Y0113874D01*
X0104526Y0111913D02*
X0098574Y0111913D01*
X0098917Y0111520D02*
X0104918Y0111520D01*
X0105185Y0111128D02*
X0098917Y0111128D01*
X0098917Y0110736D02*
X0105185Y0110736D01*
X0105185Y0110344D02*
X0098917Y0110344D01*
X0098917Y0109951D02*
X0105185Y0109951D01*
X0105185Y0109559D02*
X0098917Y0109559D01*
X0098917Y0109167D02*
X0105185Y0109167D01*
X0105185Y0108775D02*
X0098917Y0108775D01*
X0098917Y0108383D02*
X0105185Y0108383D01*
X0105185Y0107990D02*
X0098917Y0107990D01*
X0098917Y0107598D02*
X0105185Y0107598D01*
X0104920Y0107206D02*
X0098917Y0107206D01*
X0098758Y0106814D02*
X0104528Y0106814D01*
X0104435Y0106422D02*
X0080223Y0106422D01*
X0079831Y0106029D02*
X0104435Y0106029D01*
X0104435Y0105637D02*
X0079438Y0105637D01*
X0079046Y0105245D02*
X0104435Y0105245D01*
X0104525Y0104853D02*
X0077754Y0104853D01*
X0077362Y0104461D02*
X0080859Y0104461D01*
X0080467Y0104068D02*
X0076970Y0104068D01*
X0076577Y0103676D02*
X0080075Y0103676D01*
X0079683Y0103284D02*
X0076185Y0103284D01*
X0075793Y0102892D02*
X0079291Y0102892D01*
X0078898Y0102499D02*
X0075401Y0102499D01*
X0075009Y0102107D02*
X0078506Y0102107D01*
X0078114Y0101715D02*
X0074616Y0101715D01*
X0074224Y0101323D02*
X0077722Y0101323D01*
X0077330Y0100931D02*
X0073832Y0100931D01*
X0073440Y0100538D02*
X0076937Y0100538D01*
X0076545Y0100146D02*
X0073047Y0100146D01*
X0072655Y0099754D02*
X0076153Y0099754D01*
X0078549Y0099048D02*
X0081836Y0102335D01*
X0092234Y0102335D01*
X0079685Y0089786D01*
X0079685Y0088877D01*
X0079685Y0087481D01*
X0079624Y0087481D01*
X0079157Y0087014D01*
X0079157Y0085007D01*
X0071379Y0092786D01*
X0071379Y0093907D01*
X0078159Y0093907D01*
X0078625Y0094374D01*
X0078625Y0098971D01*
X0078549Y0099048D01*
X0078625Y0098970D02*
X0088869Y0098970D01*
X0089261Y0099362D02*
X0078863Y0099362D01*
X0079255Y0099754D02*
X0089653Y0099754D01*
X0090045Y0100146D02*
X0079647Y0100146D01*
X0080040Y0100538D02*
X0090437Y0100538D01*
X0090830Y0100931D02*
X0080432Y0100931D01*
X0080824Y0101323D02*
X0091222Y0101323D01*
X0091614Y0101715D02*
X0081216Y0101715D01*
X0081609Y0102107D02*
X0092006Y0102107D01*
X0088476Y0098577D02*
X0078625Y0098577D01*
X0078625Y0098185D02*
X0088084Y0098185D01*
X0087692Y0097793D02*
X0078625Y0097793D01*
X0078625Y0097401D02*
X0087300Y0097401D01*
X0086907Y0097008D02*
X0078625Y0097008D01*
X0078625Y0096616D02*
X0086515Y0096616D01*
X0086123Y0096224D02*
X0078625Y0096224D01*
X0078625Y0095832D02*
X0085731Y0095832D01*
X0085339Y0095440D02*
X0078625Y0095440D01*
X0078625Y0095047D02*
X0084946Y0095047D01*
X0084554Y0094655D02*
X0078625Y0094655D01*
X0078514Y0094263D02*
X0084162Y0094263D01*
X0083770Y0093871D02*
X0071379Y0093871D01*
X0071379Y0093479D02*
X0083378Y0093479D01*
X0082985Y0093086D02*
X0071379Y0093086D01*
X0071471Y0092694D02*
X0082593Y0092694D01*
X0082201Y0092302D02*
X0071863Y0092302D01*
X0072255Y0091910D02*
X0081809Y0091910D01*
X0081416Y0091518D02*
X0072647Y0091518D01*
X0073040Y0091125D02*
X0081024Y0091125D01*
X0080632Y0090733D02*
X0073432Y0090733D01*
X0073824Y0090341D02*
X0080240Y0090341D01*
X0079848Y0089949D02*
X0074216Y0089949D01*
X0074608Y0089556D02*
X0079685Y0089556D01*
X0079685Y0089164D02*
X0075001Y0089164D01*
X0075393Y0088772D02*
X0079685Y0088772D01*
X0079685Y0088380D02*
X0075785Y0088380D01*
X0076177Y0087988D02*
X0079685Y0087988D01*
X0079685Y0087595D02*
X0076569Y0087595D01*
X0076962Y0087203D02*
X0079346Y0087203D01*
X0079157Y0086811D02*
X0077354Y0086811D01*
X0077746Y0086419D02*
X0079157Y0086419D01*
X0079157Y0086027D02*
X0078138Y0086027D01*
X0078530Y0085634D02*
X0079157Y0085634D01*
X0079157Y0085242D02*
X0078923Y0085242D01*
X0078702Y0072691D02*
X0085142Y0072691D01*
X0083785Y0063278D02*
X0083201Y0063278D01*
X0082351Y0062886D02*
X0084694Y0062886D01*
X0084694Y0062494D02*
X0082351Y0062494D01*
X0082351Y0062102D02*
X0084694Y0062102D01*
X0084863Y0061709D02*
X0082011Y0061709D01*
X0089438Y0063278D02*
X0089521Y0063278D01*
X0096421Y0061709D02*
X0154483Y0061709D01*
X0154306Y0061317D02*
X0096557Y0061317D01*
X0096557Y0060925D02*
X0154075Y0060925D01*
X0153844Y0060533D02*
X0096557Y0060533D01*
X0096557Y0060141D02*
X0153613Y0060141D01*
X0153382Y0059748D02*
X0096557Y0059748D01*
X0096557Y0059356D02*
X0153151Y0059356D01*
X0152920Y0058964D02*
X0096557Y0058964D01*
X0096557Y0058572D02*
X0152689Y0058572D01*
X0152458Y0058179D02*
X0096557Y0058179D01*
X0096557Y0057787D02*
X0152227Y0057787D01*
X0151996Y0057395D02*
X0096557Y0057395D01*
X0096557Y0057003D02*
X0151765Y0057003D01*
X0151534Y0056611D02*
X0096557Y0056611D01*
X0096557Y0056218D02*
X0151303Y0056218D01*
X0151072Y0055826D02*
X0096370Y0055826D01*
X0096565Y0055434D02*
X0150841Y0055434D01*
X0150610Y0055042D02*
X0096565Y0055042D01*
X0096565Y0054650D02*
X0150379Y0054650D01*
X0150148Y0054257D02*
X0096565Y0054257D01*
X0096565Y0053865D02*
X0149916Y0053865D01*
X0149685Y0053473D02*
X0096565Y0053473D01*
X0096565Y0053081D02*
X0149454Y0053081D01*
X0149223Y0052689D02*
X0096565Y0052689D01*
X0096565Y0052296D02*
X0148937Y0052296D01*
X0148629Y0051904D02*
X0096565Y0051904D01*
X0096565Y0051512D02*
X0148322Y0051512D01*
X0148014Y0051120D02*
X0096565Y0051120D01*
X0096565Y0050727D02*
X0147706Y0050727D01*
X0147398Y0050335D02*
X0096565Y0050335D01*
X0096261Y0049943D02*
X0147090Y0049943D01*
X0155311Y0063670D02*
X0115112Y0063670D01*
X0115291Y0064063D02*
X0155476Y0064063D01*
X0155642Y0064455D02*
X0115291Y0064455D01*
X0115291Y0064847D02*
X0155807Y0064847D01*
X0155972Y0065239D02*
X0115291Y0065239D01*
X0115291Y0065632D02*
X0156138Y0065632D01*
X0156303Y0066024D02*
X0115291Y0066024D01*
X0115291Y0066416D02*
X0156469Y0066416D01*
X0156634Y0066808D02*
X0115291Y0066808D01*
X0115291Y0067200D02*
X0156800Y0067200D01*
X0156965Y0067593D02*
X0115291Y0067593D01*
X0115291Y0067985D02*
X0157131Y0067985D01*
X0157296Y0068377D02*
X0115291Y0068377D01*
X0115291Y0068769D02*
X0157462Y0068769D01*
X0157627Y0069161D02*
X0115291Y0069161D01*
X0115291Y0069554D02*
X0157793Y0069554D01*
X0157958Y0069946D02*
X0115291Y0069946D01*
X0115291Y0070338D02*
X0158124Y0070338D01*
X0158289Y0070730D02*
X0115291Y0070730D01*
X0115291Y0071122D02*
X0158408Y0071122D01*
X0158514Y0071515D02*
X0115291Y0071515D01*
X0115291Y0071907D02*
X0158621Y0071907D01*
X0158728Y0072299D02*
X0115291Y0072299D01*
X0115291Y0072691D02*
X0158835Y0072691D01*
X0158942Y0073084D02*
X0115291Y0073084D01*
X0115291Y0073476D02*
X0159049Y0073476D01*
X0159156Y0073868D02*
X0115291Y0073868D01*
X0109871Y0080536D02*
X0109477Y0080536D01*
X0109477Y0080928D02*
X0109871Y0080928D01*
X0109871Y0081320D02*
X0109477Y0081320D01*
X0109477Y0081712D02*
X0109871Y0081712D01*
X0109871Y0082104D02*
X0109477Y0082104D01*
X0109477Y0082497D02*
X0109871Y0082497D01*
X0109871Y0082889D02*
X0109477Y0082889D01*
X0109477Y0083281D02*
X0109871Y0083281D01*
X0109871Y0083673D02*
X0109477Y0083673D01*
X0109477Y0080143D02*
X0104959Y0080143D01*
X0100216Y0081320D02*
X0094439Y0081320D01*
X0094439Y0081712D02*
X0100216Y0081712D01*
X0100216Y0082104D02*
X0094439Y0082104D01*
X0094439Y0082497D02*
X0100216Y0082497D01*
X0100244Y0082889D02*
X0094364Y0082889D01*
X0094105Y0083281D02*
X0100637Y0083281D01*
X0096997Y0076613D02*
X0094439Y0076613D01*
X0092061Y0082104D02*
X0091864Y0082104D01*
X0091864Y0082497D02*
X0092061Y0082497D01*
X0092061Y0082889D02*
X0091864Y0082889D01*
X0091864Y0083281D02*
X0092061Y0083281D01*
X0085039Y0049943D02*
X0084669Y0049943D01*
X0032140Y0114658D02*
X0030384Y0114658D01*
X0030776Y0115050D02*
X0032140Y0115050D01*
X0032140Y0115442D02*
X0031168Y0115442D01*
X0031560Y0115835D02*
X0032140Y0115835D01*
X0032140Y0116227D02*
X0031952Y0116227D01*
X0035875Y0120149D02*
X0036614Y0120149D01*
X0036280Y0120541D02*
X0036267Y0120541D01*
X0034277Y0122502D02*
X0033543Y0122502D01*
X0033543Y0122110D02*
X0033885Y0122110D01*
X0033543Y0122894D02*
X0034669Y0122894D01*
X0035061Y0123287D02*
X0033543Y0123287D01*
X0033543Y0123679D02*
X0035454Y0123679D01*
X0036280Y0124071D02*
X0033543Y0124071D01*
X0033543Y0124463D02*
X0036280Y0124463D01*
X0036449Y0124856D02*
X0033374Y0124856D01*
X0034211Y0128385D02*
X0036889Y0128385D01*
X0036497Y0128778D02*
X0034603Y0128778D01*
X0034995Y0129170D02*
X0036105Y0129170D01*
X0035713Y0129562D02*
X0035388Y0129562D01*
X0030553Y0137406D02*
X0024276Y0137406D01*
X0023884Y0137799D02*
X0029822Y0137799D01*
X0029430Y0138191D02*
X0023492Y0138191D01*
X0023099Y0138583D02*
X0029038Y0138583D01*
X0028853Y0138975D02*
X0022707Y0138975D01*
X0022339Y0139367D02*
X0028691Y0139367D01*
X0028528Y0139760D02*
X0022731Y0139760D01*
X0023123Y0140152D02*
X0028472Y0140152D01*
X0028472Y0140544D02*
X0023516Y0140544D01*
X0023908Y0140936D02*
X0028472Y0140936D01*
X0028493Y0141328D02*
X0024300Y0141328D01*
X0024692Y0141721D02*
X0028656Y0141721D01*
X0028818Y0142113D02*
X0025084Y0142113D01*
X0025477Y0142505D02*
X0028981Y0142505D01*
X0029346Y0142897D02*
X0025869Y0142897D01*
X0026261Y0143290D02*
X0029738Y0143290D01*
X0041401Y0145643D02*
X0044784Y0145643D01*
X0044784Y0146035D02*
X0042294Y0146035D01*
X0042687Y0146427D02*
X0045006Y0146427D01*
X0045398Y0146819D02*
X0043079Y0146819D01*
X0043331Y0147212D02*
X0045791Y0147212D01*
X0046183Y0147604D02*
X0043494Y0147604D01*
X0043656Y0147996D02*
X0046575Y0147996D01*
X0046967Y0148388D02*
X0043760Y0148388D01*
X0043760Y0148780D02*
X0065285Y0148780D01*
X0065285Y0148388D02*
X0048093Y0148388D01*
X0048485Y0147996D02*
X0065285Y0147996D01*
X0065285Y0147604D02*
X0048877Y0147604D01*
X0049269Y0147212D02*
X0065285Y0147212D01*
X0065285Y0146819D02*
X0049661Y0146819D01*
X0050054Y0146427D02*
X0065285Y0146427D01*
X0065285Y0146035D02*
X0050446Y0146035D01*
X0050838Y0145643D02*
X0065285Y0145643D01*
X0065285Y0145251D02*
X0051230Y0145251D01*
X0051623Y0144858D02*
X0065285Y0144858D01*
X0065285Y0144466D02*
X0052015Y0144466D01*
X0052407Y0144074D02*
X0065285Y0144074D01*
X0065285Y0143682D02*
X0052503Y0143682D01*
X0052474Y0143290D02*
X0065285Y0143290D01*
X0065285Y0142897D02*
X0052082Y0142897D01*
X0051689Y0142505D02*
X0065285Y0142505D01*
X0065285Y0142113D02*
X0051297Y0142113D01*
X0050905Y0141721D02*
X0065285Y0141721D01*
X0065285Y0141328D02*
X0050513Y0141328D01*
X0050121Y0140936D02*
X0065285Y0140936D01*
X0068079Y0141328D02*
X0095308Y0141328D01*
X0095309Y0141721D02*
X0068079Y0141721D01*
X0068079Y0142113D02*
X0095442Y0142113D01*
X0095708Y0142505D02*
X0068079Y0142505D01*
X0068079Y0142897D02*
X0095708Y0142897D01*
X0095708Y0143290D02*
X0068079Y0143290D01*
X0068079Y0143682D02*
X0095708Y0143682D01*
X0095708Y0144074D02*
X0068079Y0144074D01*
X0068079Y0144466D02*
X0095708Y0144466D01*
X0095708Y0144858D02*
X0068079Y0144858D01*
X0068079Y0145251D02*
X0095787Y0145251D01*
X0095708Y0145643D02*
X0068079Y0145643D01*
X0068079Y0146035D02*
X0095708Y0146035D01*
X0095708Y0146427D02*
X0068079Y0146427D01*
X0068079Y0146819D02*
X0095708Y0146819D01*
X0095708Y0147212D02*
X0068079Y0147212D01*
X0068079Y0147604D02*
X0095708Y0147604D01*
X0095708Y0147996D02*
X0068079Y0147996D01*
X0068079Y0148388D02*
X0095906Y0148388D01*
X0102103Y0148388D02*
X0115274Y0148388D01*
X0115666Y0147996D02*
X0102302Y0147996D01*
X0103225Y0149565D02*
X0068079Y0149565D01*
X0068079Y0149957D02*
X0102984Y0149957D01*
X0102984Y0150349D02*
X0068276Y0150349D01*
X0068459Y0150742D02*
X0102984Y0150742D01*
X0114490Y0149173D02*
X0068079Y0149173D01*
X0068079Y0148780D02*
X0114882Y0148780D01*
X0132572Y0156625D02*
X0074445Y0156625D01*
X0074588Y0156233D02*
X0133099Y0156233D01*
X0074731Y0155840D02*
X0072311Y0154960D01*
X0072276Y0155056D02*
X0072575Y0155056D01*
X0072561Y0154271D02*
X0072143Y0154271D01*
X0072285Y0153879D02*
X0072704Y0153879D01*
X0072847Y0153487D02*
X0072428Y0153487D01*
X0072571Y0153095D02*
X0072990Y0153095D01*
X0073133Y0152703D02*
X0072714Y0152703D01*
X0072856Y0152310D02*
X0073275Y0152310D01*
X0071498Y0154664D02*
X0070347Y0154664D01*
X0070420Y0154271D02*
X0067334Y0154271D01*
X0064919Y0155840D02*
X0063949Y0155840D01*
X0061959Y0153879D02*
X0054016Y0153879D01*
X0054034Y0153487D02*
X0062351Y0153487D01*
X0062715Y0153095D02*
X0053928Y0153095D01*
X0053535Y0152703D02*
X0062858Y0152703D01*
X0063001Y0152310D02*
X0053143Y0152310D01*
X0052751Y0151918D02*
X0063143Y0151918D01*
X0063286Y0151526D02*
X0052359Y0151526D01*
X0051966Y0151134D02*
X0063429Y0151134D01*
X0063572Y0150742D02*
X0051574Y0150742D01*
X0051182Y0150349D02*
X0063714Y0150349D01*
X0063857Y0149957D02*
X0050790Y0149957D01*
X0050116Y0149957D02*
X0043624Y0149957D01*
X0043760Y0149565D02*
X0064000Y0149565D01*
X0064392Y0149173D02*
X0043760Y0149173D01*
X0043461Y0150349D02*
X0049724Y0150349D01*
X0049332Y0150742D02*
X0043299Y0150742D01*
X0043001Y0151134D02*
X0048940Y0151134D01*
X0048547Y0151526D02*
X0042609Y0151526D01*
X0042160Y0151918D02*
X0048155Y0151918D01*
X0047763Y0152310D02*
X0041213Y0152310D01*
X0039204Y0156233D02*
X0043841Y0156233D01*
X0043449Y0156625D02*
X0039596Y0156625D01*
X0039988Y0157017D02*
X0043056Y0157017D01*
X0042664Y0157409D02*
X0040381Y0157409D01*
X0040773Y0157801D02*
X0042272Y0157801D01*
X0041880Y0158194D02*
X0041165Y0158194D01*
X0051662Y0156233D02*
X0059606Y0156233D01*
X0059998Y0155840D02*
X0052055Y0155840D01*
X0052447Y0155448D02*
X0060390Y0155448D01*
X0060782Y0155056D02*
X0052839Y0155056D01*
X0053231Y0154664D02*
X0061175Y0154664D01*
X0061567Y0154271D02*
X0053623Y0154271D01*
X0065072Y0149173D02*
X0065285Y0149173D01*
X0010263Y0113481D02*
X0008830Y0113481D01*
X0008721Y0113089D02*
X0009580Y0113089D01*
X0009188Y0112697D02*
X0008613Y0112697D01*
X0008505Y0112305D02*
X0008795Y0112305D01*
X0008403Y0111913D02*
X0008397Y0111913D01*
D33*
X0031193Y0077806D02*
X0033296Y0077806D01*
X0056461Y0077806D01*
X0060279Y0081624D01*
X0065493Y0081624D01*
X0065493Y0075955D01*
X0077002Y0075955D01*
X0077002Y0075956D01*
X0077002Y0073988D02*
X0065557Y0073988D01*
X0065557Y0068509D01*
X0045720Y0068509D01*
X0045720Y0056789D01*
X0033296Y0056789D01*
X0033296Y0056546D01*
X0033296Y0056789D02*
X0033296Y0056940D01*
X0031137Y0056940D01*
X0031137Y0056939D02*
X0030971Y0056941D01*
X0030805Y0056947D01*
X0030640Y0056957D01*
X0030475Y0056971D01*
X0030310Y0056989D01*
X0030146Y0057011D01*
X0029982Y0057037D01*
X0029819Y0057067D01*
X0029656Y0057101D01*
X0029495Y0057138D01*
X0029334Y0057180D01*
X0029175Y0057226D01*
X0029017Y0057275D01*
X0028859Y0057328D01*
X0028704Y0057385D01*
X0028549Y0057446D01*
X0028397Y0057510D01*
X0028245Y0057578D01*
X0028096Y0057650D01*
X0027948Y0057725D01*
X0027802Y0057804D01*
X0027658Y0057886D01*
X0027516Y0057972D01*
X0027377Y0058061D01*
X0027239Y0058154D01*
X0027104Y0058250D01*
X0026971Y0058349D01*
X0026840Y0058451D01*
X0026712Y0058556D01*
X0026587Y0058665D01*
X0026464Y0058776D01*
X0026344Y0058891D01*
X0026227Y0059008D01*
X0026112Y0059128D01*
X0026001Y0059251D01*
X0025892Y0059376D01*
X0025787Y0059504D01*
X0025685Y0059635D01*
X0025586Y0059768D01*
X0025490Y0059903D01*
X0025397Y0060041D01*
X0025308Y0060180D01*
X0025222Y0060322D01*
X0025140Y0060466D01*
X0025061Y0060612D01*
X0024986Y0060760D01*
X0024914Y0060909D01*
X0024846Y0061061D01*
X0024782Y0061213D01*
X0024721Y0061368D01*
X0024664Y0061523D01*
X0024611Y0061681D01*
X0024562Y0061839D01*
X0024516Y0061998D01*
X0024474Y0062159D01*
X0024437Y0062320D01*
X0024403Y0062483D01*
X0024373Y0062646D01*
X0024347Y0062810D01*
X0024325Y0062974D01*
X0024307Y0063139D01*
X0024293Y0063304D01*
X0024283Y0063469D01*
X0024277Y0063635D01*
X0024275Y0063801D01*
X0024275Y0070888D02*
X0024277Y0071055D01*
X0024283Y0071222D01*
X0024293Y0071389D01*
X0024307Y0071556D01*
X0024325Y0071722D01*
X0024348Y0071888D01*
X0024374Y0072053D01*
X0024404Y0072217D01*
X0024438Y0072381D01*
X0024476Y0072544D01*
X0024518Y0072705D01*
X0024564Y0072866D01*
X0024614Y0073026D01*
X0024667Y0073184D01*
X0024725Y0073341D01*
X0024786Y0073497D01*
X0024851Y0073651D01*
X0024919Y0073803D01*
X0024992Y0073954D01*
X0025067Y0074103D01*
X0025147Y0074250D01*
X0025230Y0074395D01*
X0025316Y0074538D01*
X0025406Y0074679D01*
X0025500Y0074818D01*
X0025596Y0074954D01*
X0025696Y0075088D01*
X0025799Y0075220D01*
X0025905Y0075349D01*
X0026015Y0075475D01*
X0026127Y0075599D01*
X0026242Y0075720D01*
X0026361Y0075839D01*
X0026482Y0075954D01*
X0026606Y0076066D01*
X0026732Y0076176D01*
X0026861Y0076282D01*
X0026993Y0076385D01*
X0027127Y0076485D01*
X0027263Y0076581D01*
X0027402Y0076675D01*
X0027543Y0076765D01*
X0027686Y0076851D01*
X0027831Y0076934D01*
X0027978Y0077014D01*
X0028127Y0077089D01*
X0028278Y0077162D01*
X0028430Y0077230D01*
X0028584Y0077295D01*
X0028740Y0077356D01*
X0028897Y0077414D01*
X0029055Y0077467D01*
X0029215Y0077517D01*
X0029376Y0077563D01*
X0029537Y0077605D01*
X0029700Y0077643D01*
X0029864Y0077677D01*
X0030028Y0077707D01*
X0030193Y0077733D01*
X0030359Y0077756D01*
X0030525Y0077774D01*
X0030692Y0077788D01*
X0030859Y0077798D01*
X0031026Y0077804D01*
X0031193Y0077806D01*
X0033296Y0070719D02*
X0033296Y0064026D01*
X0045107Y0072569D02*
X0045713Y0072569D01*
X0045713Y0068509D01*
X0045720Y0068509D01*
X0061357Y0060175D02*
X0061357Y0054133D01*
X0061357Y0049979D01*
X0072462Y0049979D01*
X0072462Y0052914D01*
X0075490Y0052914D01*
X0082576Y0052939D02*
X0082576Y0052914D01*
X0087107Y0052939D02*
X0087133Y0052939D01*
X0094185Y0058881D02*
X0094193Y0058881D01*
X0090246Y0064386D02*
X0113994Y0064386D01*
X0113994Y0075273D01*
X0143725Y0075273D01*
X0143725Y0084976D01*
X0113994Y0075273D02*
X0098294Y0075273D01*
X0098294Y0077925D01*
X0091962Y0077925D01*
X0091962Y0079893D02*
X0102587Y0079893D01*
X0102587Y0080168D01*
X0095240Y0075955D02*
X0095240Y0072294D01*
X0106131Y0072294D01*
X0106131Y0068357D01*
X0109674Y0068357D01*
X0102587Y0068357D02*
X0091962Y0068357D01*
X0091962Y0073988D01*
X0091962Y0075955D02*
X0091962Y0075956D01*
X0088414Y0075956D01*
X0088414Y0074262D01*
X0086446Y0074262D01*
X0086446Y0070444D01*
X0086450Y0070444D01*
X0084482Y0070444D02*
X0084477Y0070444D01*
X0084477Y0064420D01*
X0087318Y0064420D01*
X0087066Y0064742D01*
X0087099Y0064742D01*
X0090246Y0064386D02*
X0090246Y0070444D01*
X0088419Y0070444D01*
X0088414Y0075956D02*
X0088414Y0078199D01*
X0088414Y0081862D01*
X0091962Y0081862D01*
X0088414Y0078199D02*
X0084482Y0078199D01*
X0084482Y0077925D01*
X0077002Y0077925D01*
X0080545Y0070444D02*
X0068393Y0070444D01*
X0068429Y0066194D01*
X0068429Y0060175D01*
X0068443Y0060175D01*
X0068443Y0054133D01*
X0068443Y0054133D01*
X0061357Y0054133D02*
X0061357Y0054133D01*
X0075515Y0064742D02*
X0079979Y0064742D01*
X0079979Y0064420D01*
X0082509Y0064420D01*
X0082509Y0070444D01*
X0082513Y0070444D01*
X0075515Y0066194D02*
X0075515Y0064742D01*
X0091962Y0075955D02*
X0095240Y0075955D01*
X0099005Y0134161D02*
X0103048Y0135442D01*
X0103173Y0140482D01*
X0099005Y0140461D01*
D34*
X0099005Y0137311D02*
X0098782Y0137032D01*
X0096382Y0137032D01*
X0095182Y0135832D01*
X0095182Y0132532D01*
X0094882Y0132232D01*
X0090382Y0132232D01*
X0064882Y0106732D01*
X0064882Y0101632D01*
X0056482Y0093232D01*
X0069682Y0080032D01*
X0076282Y0080032D01*
X0077002Y0079893D01*
X0076882Y0080032D01*
X0091962Y0081862D02*
X0092182Y0082132D01*
X0093982Y0083932D01*
X0104482Y0083932D01*
X0104782Y0084232D01*
X0104482Y0083932D02*
X0108082Y0080332D01*
X0109582Y0080332D01*
X0109674Y0080168D01*
X0109282Y0096832D02*
X0094882Y0096832D01*
X0094870Y0096673D01*
X0106582Y0105832D02*
X0106582Y0111832D01*
X0102382Y0116032D01*
X0102382Y0122632D01*
X0102982Y0123232D01*
X0102982Y0129832D01*
X0101482Y0131332D01*
X0099382Y0131332D01*
X0099005Y0131012D01*
X0098782Y0131032D01*
X0096682Y0131032D01*
X0095182Y0132532D01*
X0101482Y0131332D02*
X0103882Y0133732D01*
X0132382Y0133732D01*
X0132805Y0134161D01*
X0132982Y0134032D01*
X0135082Y0134032D01*
X0136582Y0132532D01*
X0136582Y0129232D01*
X0135382Y0128032D01*
X0132982Y0128032D01*
X0132805Y0127862D01*
X0066682Y0136432D02*
X0066682Y0118432D01*
X0065482Y0117232D01*
X0061582Y0117232D01*
X0057982Y0113632D01*
X0055882Y0113632D01*
X0055616Y0113630D01*
X0051682Y0098032D02*
X0044782Y0098032D01*
X0044482Y0098332D01*
X0044469Y0098552D01*
X0044482Y0097732D01*
X0040882Y0094132D01*
X0040882Y0092332D01*
X0029782Y0081232D01*
X0021682Y0081232D01*
X0018982Y0083932D01*
X0018982Y0106732D01*
X0021682Y0109432D01*
X0023182Y0109432D01*
X0036082Y0122332D01*
X0038482Y0122332D01*
X0038652Y0122585D01*
X0031282Y0122632D02*
X0031171Y0122585D01*
X0031282Y0122632D02*
X0031282Y0127432D01*
X0036082Y0132232D01*
X0036116Y0132234D01*
X0040292Y0136410D02*
X0040582Y0136432D01*
X0066682Y0136432D01*
X0066682Y0151432D01*
X0065482Y0152632D01*
X0065400Y0152654D01*
X0064882Y0152932D01*
X0059782Y0158032D01*
X0059782Y0162832D01*
X0059754Y0162983D01*
X0051682Y0098032D02*
X0056482Y0093232D01*
D35*
X0051972Y0089044D03*
X0042269Y0105090D03*
X0031164Y0108958D03*
X0055835Y0107819D03*
X0061335Y0127649D03*
X0082407Y0117380D03*
X0090982Y0118732D03*
X0106582Y0105832D03*
X0109282Y0096832D03*
X0106205Y0088443D03*
X0122056Y0081843D03*
X0133050Y0101153D03*
X0115321Y0110848D03*
X0108982Y0128932D03*
X0085031Y0100651D03*
X0075518Y0059693D03*
X0141741Y0054283D03*
D36*
X0094193Y0052939D02*
X0094193Y0058881D01*
X0087099Y0058881D02*
X0087099Y0064742D01*
X0087107Y0052939D02*
X0082576Y0052939D01*
X0087133Y0052939D02*
X0087062Y0046701D01*
M02*
