G75*
%MOIN*%
%OFA0B0*%
%FSLAX25Y25*%
%IPPOS*%
%LPD*%
%AMOC8*
5,1,8,0,0,1.08239X$1,22.5*
%
%ADD10C,0.13198*%
%ADD11R,0.05600X0.02800*%
%ADD12R,0.02800X0.05600*%
%ADD13R,0.03750X0.04143*%
%ADD14R,0.07100X0.04537*%
%ADD15R,0.03750X0.05324*%
%ADD16R,0.05324X0.03750*%
%ADD17C,0.08000*%
%ADD18R,0.02765X0.05324*%
%ADD19C,0.06309*%
%ADD20R,0.05915X0.02175*%
%ADD21R,0.08080X0.06506*%
%ADD22C,0.08868*%
%ADD23R,0.10600X0.04600*%
%ADD24R,0.04537X0.04537*%
%ADD25R,0.03159X0.01781*%
%ADD26R,0.01781X0.03159*%
%ADD27OC8,0.08000*%
%ADD28R,0.04537X0.03750*%
%ADD29R,0.03356X0.06506*%
%ADD30C,0.04143*%
%ADD31R,0.08080X0.04931*%
%ADD32C,0.01361*%
%ADD33C,0.03300*%
D10*
X0086458Y0165142D03*
D11*
X0099005Y0146760D03*
X0099005Y0143610D03*
X0099005Y0140461D03*
X0099005Y0137311D03*
X0099005Y0134161D03*
X0099005Y0131012D03*
X0099005Y0127862D03*
X0099005Y0124713D03*
X0132805Y0124713D03*
X0132805Y0127862D03*
X0132805Y0131012D03*
X0132805Y0134161D03*
X0132805Y0137311D03*
X0132805Y0140461D03*
X0132805Y0143610D03*
X0132805Y0146760D03*
D12*
X0126928Y0152636D03*
X0123779Y0152636D03*
X0120629Y0152636D03*
X0117480Y0152636D03*
X0114330Y0152636D03*
X0111180Y0152636D03*
X0108031Y0152636D03*
X0104881Y0152636D03*
X0104881Y0118836D03*
X0108031Y0118836D03*
X0111180Y0118836D03*
X0114330Y0118836D03*
X0117480Y0118836D03*
X0120629Y0118836D03*
X0123779Y0118836D03*
X0126928Y0118836D03*
D13*
X0038652Y0122585D03*
X0031171Y0122585D03*
X0034912Y0114317D03*
D14*
X0074579Y0109271D03*
X0074579Y0096673D03*
X0094870Y0096673D03*
X0094870Y0109271D03*
D15*
X0118407Y0104472D03*
X0118439Y0097867D03*
X0118323Y0091268D03*
X0125410Y0091268D03*
X0125525Y0097867D03*
X0125494Y0104472D03*
X0109674Y0080168D03*
X0102587Y0080168D03*
X0102587Y0068357D03*
X0109674Y0068357D03*
X0094185Y0058881D03*
X0094193Y0052939D03*
X0087107Y0052939D03*
X0082576Y0052914D03*
X0087099Y0058881D03*
X0087066Y0064742D03*
X0079979Y0064742D03*
X0075515Y0066194D03*
X0068429Y0066194D03*
X0068443Y0060175D03*
X0068443Y0054133D03*
X0061357Y0054133D03*
X0061357Y0060175D03*
X0075490Y0052914D03*
X0059281Y0101853D03*
X0052194Y0101853D03*
X0055416Y0132188D03*
X0048329Y0132188D03*
G36*
X0062728Y0154514D02*
X0066251Y0155796D01*
X0068072Y0150794D01*
X0064549Y0149512D01*
X0062728Y0154514D01*
G37*
G36*
X0069387Y0156937D02*
X0072910Y0158219D01*
X0074731Y0153217D01*
X0071208Y0151935D01*
X0069387Y0156937D01*
G37*
D16*
X0033296Y0056940D03*
X0033296Y0064026D03*
X0033296Y0070719D03*
X0033296Y0077806D03*
X0024275Y0070888D03*
X0024275Y0063801D03*
X0034214Y0091456D03*
X0034214Y0098542D03*
X0044469Y0098552D03*
X0044469Y0091465D03*
D17*
X0059754Y0162983D03*
X0069312Y0165923D03*
D18*
X0055616Y0123867D03*
X0048136Y0123867D03*
X0048136Y0113630D03*
X0051876Y0113630D03*
X0055616Y0113630D03*
D19*
X0023194Y0105144D03*
X0023194Y0085459D03*
D20*
X0023194Y0090183D03*
X0023194Y0092742D03*
X0023194Y0095301D03*
X0023194Y0097860D03*
X0023194Y0100419D03*
D21*
X0012564Y0099238D03*
X0012564Y0091364D03*
D22*
X0012605Y0081524D03*
X0012559Y0109096D03*
D23*
X0087062Y0046701D03*
X0087062Y0020701D03*
D24*
X0084482Y0077925D03*
D25*
X0091962Y0077925D03*
X0091962Y0079893D03*
X0091962Y0081862D03*
X0091962Y0075956D03*
X0091962Y0073988D03*
X0077002Y0073988D03*
X0077002Y0075956D03*
X0077002Y0077925D03*
X0077002Y0079893D03*
X0077002Y0081862D03*
D26*
X0080545Y0085405D03*
X0082513Y0085405D03*
X0084482Y0085405D03*
X0086450Y0085405D03*
X0088419Y0085405D03*
X0088419Y0070444D03*
X0086450Y0070444D03*
X0084482Y0070444D03*
X0082513Y0070444D03*
X0080545Y0070444D03*
D27*
X0143725Y0084976D03*
X0143725Y0094976D03*
X0153725Y0094976D03*
X0153725Y0084976D03*
X0153725Y0104976D03*
X0143725Y0104976D03*
D28*
G36*
X0047802Y0152976D02*
X0051008Y0156182D01*
X0053660Y0153530D01*
X0050454Y0150324D01*
X0047802Y0152976D01*
G37*
G36*
X0041678Y0159100D02*
X0044884Y0162306D01*
X0047536Y0159654D01*
X0044330Y0156448D01*
X0041678Y0159100D01*
G37*
G36*
X0018572Y0135994D02*
X0021778Y0139200D01*
X0024430Y0136548D01*
X0021224Y0133342D01*
X0018572Y0135994D01*
G37*
G36*
X0024696Y0129869D02*
X0027902Y0133075D01*
X0030554Y0130423D01*
X0027348Y0127217D01*
X0024696Y0129869D01*
G37*
D29*
G36*
X0032630Y0133347D02*
X0035003Y0135720D01*
X0039602Y0131121D01*
X0037229Y0128748D01*
X0032630Y0133347D01*
G37*
G36*
X0036806Y0137523D02*
X0039179Y0139896D01*
X0043778Y0135297D01*
X0041405Y0132924D01*
X0036806Y0137523D01*
G37*
G36*
X0045157Y0145875D02*
X0047530Y0148248D01*
X0052129Y0143649D01*
X0049756Y0141276D01*
X0045157Y0145875D01*
G37*
D30*
X0040292Y0148938D03*
X0031940Y0140586D03*
D31*
X0045713Y0081624D03*
X0045713Y0072569D03*
X0060279Y0072569D03*
X0060279Y0081624D03*
D32*
X0061889Y0115233D02*
X0065065Y0115233D01*
X0065065Y0112057D01*
X0061889Y0112057D01*
X0061889Y0115233D01*
X0061889Y0113417D02*
X0065065Y0113417D01*
X0065065Y0114777D02*
X0061889Y0114777D01*
X0061889Y0122138D02*
X0065065Y0122138D01*
X0065065Y0118962D01*
X0061889Y0118962D01*
X0061889Y0122138D01*
X0061889Y0120322D02*
X0065065Y0120322D01*
X0065065Y0121682D02*
X0061889Y0121682D01*
D33*
X0061335Y0127649D03*
X0055835Y0107819D03*
X0042269Y0105090D03*
X0031164Y0108958D03*
X0051972Y0089044D03*
X0075518Y0059693D03*
X0106205Y0088443D03*
X0109282Y0096832D03*
X0106582Y0105832D03*
X0115321Y0110848D03*
X0108982Y0128932D03*
X0090982Y0118732D03*
X0082407Y0117380D03*
X0085031Y0100651D03*
X0122056Y0081843D03*
X0133050Y0101153D03*
X0141741Y0054283D03*
M02*
