G75*
%MOIN*%
%OFA0B0*%
%FSLAX25Y25*%
%IPPOS*%
%LPD*%
%AMOC8*
5,1,8,0,0,1.08239X$1,22.5*
%
%ADD10C,0.00000*%
%ADD11C,0.00394*%
D10*
X0030168Y0140586D02*
X0030170Y0140670D01*
X0030176Y0140753D01*
X0030186Y0140836D01*
X0030200Y0140919D01*
X0030217Y0141001D01*
X0030239Y0141082D01*
X0030264Y0141161D01*
X0030293Y0141240D01*
X0030326Y0141317D01*
X0030362Y0141392D01*
X0030402Y0141466D01*
X0030445Y0141538D01*
X0030492Y0141607D01*
X0030542Y0141674D01*
X0030595Y0141739D01*
X0030651Y0141801D01*
X0030709Y0141861D01*
X0030771Y0141918D01*
X0030835Y0141971D01*
X0030902Y0142022D01*
X0030971Y0142069D01*
X0031042Y0142114D01*
X0031115Y0142154D01*
X0031190Y0142191D01*
X0031267Y0142225D01*
X0031345Y0142255D01*
X0031424Y0142281D01*
X0031505Y0142304D01*
X0031587Y0142322D01*
X0031669Y0142337D01*
X0031752Y0142348D01*
X0031835Y0142355D01*
X0031919Y0142358D01*
X0032003Y0142357D01*
X0032086Y0142352D01*
X0032170Y0142343D01*
X0032252Y0142330D01*
X0032334Y0142314D01*
X0032415Y0142293D01*
X0032496Y0142269D01*
X0032574Y0142241D01*
X0032652Y0142209D01*
X0032728Y0142173D01*
X0032802Y0142134D01*
X0032874Y0142092D01*
X0032944Y0142046D01*
X0033012Y0141997D01*
X0033077Y0141945D01*
X0033140Y0141890D01*
X0033200Y0141832D01*
X0033258Y0141771D01*
X0033312Y0141707D01*
X0033364Y0141641D01*
X0033412Y0141573D01*
X0033457Y0141502D01*
X0033498Y0141429D01*
X0033537Y0141355D01*
X0033571Y0141279D01*
X0033602Y0141201D01*
X0033629Y0141122D01*
X0033653Y0141041D01*
X0033672Y0140960D01*
X0033688Y0140878D01*
X0033700Y0140795D01*
X0033708Y0140711D01*
X0033712Y0140628D01*
X0033712Y0140544D01*
X0033708Y0140461D01*
X0033700Y0140377D01*
X0033688Y0140294D01*
X0033672Y0140212D01*
X0033653Y0140131D01*
X0033629Y0140050D01*
X0033602Y0139971D01*
X0033571Y0139893D01*
X0033537Y0139817D01*
X0033498Y0139743D01*
X0033457Y0139670D01*
X0033412Y0139599D01*
X0033364Y0139531D01*
X0033312Y0139465D01*
X0033258Y0139401D01*
X0033200Y0139340D01*
X0033140Y0139282D01*
X0033077Y0139227D01*
X0033012Y0139175D01*
X0032944Y0139126D01*
X0032874Y0139080D01*
X0032802Y0139038D01*
X0032728Y0138999D01*
X0032652Y0138963D01*
X0032574Y0138931D01*
X0032496Y0138903D01*
X0032415Y0138879D01*
X0032334Y0138858D01*
X0032252Y0138842D01*
X0032170Y0138829D01*
X0032086Y0138820D01*
X0032003Y0138815D01*
X0031919Y0138814D01*
X0031835Y0138817D01*
X0031752Y0138824D01*
X0031669Y0138835D01*
X0031587Y0138850D01*
X0031505Y0138868D01*
X0031424Y0138891D01*
X0031345Y0138917D01*
X0031267Y0138947D01*
X0031190Y0138981D01*
X0031115Y0139018D01*
X0031042Y0139058D01*
X0030971Y0139103D01*
X0030902Y0139150D01*
X0030835Y0139201D01*
X0030771Y0139254D01*
X0030709Y0139311D01*
X0030651Y0139371D01*
X0030595Y0139433D01*
X0030542Y0139498D01*
X0030492Y0139565D01*
X0030445Y0139634D01*
X0030402Y0139706D01*
X0030362Y0139780D01*
X0030326Y0139855D01*
X0030293Y0139932D01*
X0030264Y0140011D01*
X0030239Y0140090D01*
X0030217Y0140171D01*
X0030200Y0140253D01*
X0030186Y0140336D01*
X0030176Y0140419D01*
X0030170Y0140502D01*
X0030168Y0140586D01*
X0038520Y0148938D02*
X0038522Y0149022D01*
X0038528Y0149105D01*
X0038538Y0149188D01*
X0038552Y0149271D01*
X0038569Y0149353D01*
X0038591Y0149434D01*
X0038616Y0149513D01*
X0038645Y0149592D01*
X0038678Y0149669D01*
X0038714Y0149744D01*
X0038754Y0149818D01*
X0038797Y0149890D01*
X0038844Y0149959D01*
X0038894Y0150026D01*
X0038947Y0150091D01*
X0039003Y0150153D01*
X0039061Y0150213D01*
X0039123Y0150270D01*
X0039187Y0150323D01*
X0039254Y0150374D01*
X0039323Y0150421D01*
X0039394Y0150466D01*
X0039467Y0150506D01*
X0039542Y0150543D01*
X0039619Y0150577D01*
X0039697Y0150607D01*
X0039776Y0150633D01*
X0039857Y0150656D01*
X0039939Y0150674D01*
X0040021Y0150689D01*
X0040104Y0150700D01*
X0040187Y0150707D01*
X0040271Y0150710D01*
X0040355Y0150709D01*
X0040438Y0150704D01*
X0040522Y0150695D01*
X0040604Y0150682D01*
X0040686Y0150666D01*
X0040767Y0150645D01*
X0040848Y0150621D01*
X0040926Y0150593D01*
X0041004Y0150561D01*
X0041080Y0150525D01*
X0041154Y0150486D01*
X0041226Y0150444D01*
X0041296Y0150398D01*
X0041364Y0150349D01*
X0041429Y0150297D01*
X0041492Y0150242D01*
X0041552Y0150184D01*
X0041610Y0150123D01*
X0041664Y0150059D01*
X0041716Y0149993D01*
X0041764Y0149925D01*
X0041809Y0149854D01*
X0041850Y0149781D01*
X0041889Y0149707D01*
X0041923Y0149631D01*
X0041954Y0149553D01*
X0041981Y0149474D01*
X0042005Y0149393D01*
X0042024Y0149312D01*
X0042040Y0149230D01*
X0042052Y0149147D01*
X0042060Y0149063D01*
X0042064Y0148980D01*
X0042064Y0148896D01*
X0042060Y0148813D01*
X0042052Y0148729D01*
X0042040Y0148646D01*
X0042024Y0148564D01*
X0042005Y0148483D01*
X0041981Y0148402D01*
X0041954Y0148323D01*
X0041923Y0148245D01*
X0041889Y0148169D01*
X0041850Y0148095D01*
X0041809Y0148022D01*
X0041764Y0147951D01*
X0041716Y0147883D01*
X0041664Y0147817D01*
X0041610Y0147753D01*
X0041552Y0147692D01*
X0041492Y0147634D01*
X0041429Y0147579D01*
X0041364Y0147527D01*
X0041296Y0147478D01*
X0041226Y0147432D01*
X0041154Y0147390D01*
X0041080Y0147351D01*
X0041004Y0147315D01*
X0040926Y0147283D01*
X0040848Y0147255D01*
X0040767Y0147231D01*
X0040686Y0147210D01*
X0040604Y0147194D01*
X0040522Y0147181D01*
X0040438Y0147172D01*
X0040355Y0147167D01*
X0040271Y0147166D01*
X0040187Y0147169D01*
X0040104Y0147176D01*
X0040021Y0147187D01*
X0039939Y0147202D01*
X0039857Y0147220D01*
X0039776Y0147243D01*
X0039697Y0147269D01*
X0039619Y0147299D01*
X0039542Y0147333D01*
X0039467Y0147370D01*
X0039394Y0147410D01*
X0039323Y0147455D01*
X0039254Y0147502D01*
X0039187Y0147553D01*
X0039123Y0147606D01*
X0039061Y0147663D01*
X0039003Y0147723D01*
X0038947Y0147785D01*
X0038894Y0147850D01*
X0038844Y0147917D01*
X0038797Y0147986D01*
X0038754Y0148058D01*
X0038714Y0148132D01*
X0038678Y0148207D01*
X0038645Y0148284D01*
X0038616Y0148363D01*
X0038591Y0148442D01*
X0038569Y0148523D01*
X0038552Y0148605D01*
X0038538Y0148688D01*
X0038528Y0148771D01*
X0038522Y0148854D01*
X0038520Y0148938D01*
X0080159Y0165142D02*
X0080161Y0165300D01*
X0080167Y0165458D01*
X0080177Y0165616D01*
X0080191Y0165774D01*
X0080209Y0165931D01*
X0080230Y0166088D01*
X0080256Y0166244D01*
X0080286Y0166400D01*
X0080319Y0166555D01*
X0080357Y0166708D01*
X0080398Y0166861D01*
X0080443Y0167013D01*
X0080492Y0167164D01*
X0080545Y0167313D01*
X0080601Y0167461D01*
X0080661Y0167607D01*
X0080725Y0167752D01*
X0080793Y0167895D01*
X0080864Y0168037D01*
X0080938Y0168177D01*
X0081016Y0168314D01*
X0081098Y0168450D01*
X0081182Y0168584D01*
X0081271Y0168715D01*
X0081362Y0168844D01*
X0081457Y0168971D01*
X0081554Y0169096D01*
X0081655Y0169218D01*
X0081759Y0169337D01*
X0081866Y0169454D01*
X0081976Y0169568D01*
X0082089Y0169679D01*
X0082204Y0169788D01*
X0082322Y0169893D01*
X0082443Y0169995D01*
X0082566Y0170095D01*
X0082692Y0170191D01*
X0082820Y0170284D01*
X0082950Y0170374D01*
X0083083Y0170460D01*
X0083218Y0170544D01*
X0083354Y0170623D01*
X0083493Y0170700D01*
X0083634Y0170772D01*
X0083776Y0170842D01*
X0083920Y0170907D01*
X0084066Y0170969D01*
X0084213Y0171027D01*
X0084362Y0171082D01*
X0084512Y0171133D01*
X0084663Y0171180D01*
X0084815Y0171223D01*
X0084968Y0171262D01*
X0085123Y0171298D01*
X0085278Y0171329D01*
X0085434Y0171357D01*
X0085590Y0171381D01*
X0085747Y0171401D01*
X0085905Y0171417D01*
X0086062Y0171429D01*
X0086221Y0171437D01*
X0086379Y0171441D01*
X0086537Y0171441D01*
X0086695Y0171437D01*
X0086854Y0171429D01*
X0087011Y0171417D01*
X0087169Y0171401D01*
X0087326Y0171381D01*
X0087482Y0171357D01*
X0087638Y0171329D01*
X0087793Y0171298D01*
X0087948Y0171262D01*
X0088101Y0171223D01*
X0088253Y0171180D01*
X0088404Y0171133D01*
X0088554Y0171082D01*
X0088703Y0171027D01*
X0088850Y0170969D01*
X0088996Y0170907D01*
X0089140Y0170842D01*
X0089282Y0170772D01*
X0089423Y0170700D01*
X0089562Y0170623D01*
X0089698Y0170544D01*
X0089833Y0170460D01*
X0089966Y0170374D01*
X0090096Y0170284D01*
X0090224Y0170191D01*
X0090350Y0170095D01*
X0090473Y0169995D01*
X0090594Y0169893D01*
X0090712Y0169788D01*
X0090827Y0169679D01*
X0090940Y0169568D01*
X0091050Y0169454D01*
X0091157Y0169337D01*
X0091261Y0169218D01*
X0091362Y0169096D01*
X0091459Y0168971D01*
X0091554Y0168844D01*
X0091645Y0168715D01*
X0091734Y0168584D01*
X0091818Y0168450D01*
X0091900Y0168314D01*
X0091978Y0168177D01*
X0092052Y0168037D01*
X0092123Y0167895D01*
X0092191Y0167752D01*
X0092255Y0167607D01*
X0092315Y0167461D01*
X0092371Y0167313D01*
X0092424Y0167164D01*
X0092473Y0167013D01*
X0092518Y0166861D01*
X0092559Y0166708D01*
X0092597Y0166555D01*
X0092630Y0166400D01*
X0092660Y0166244D01*
X0092686Y0166088D01*
X0092707Y0165931D01*
X0092725Y0165774D01*
X0092739Y0165616D01*
X0092749Y0165458D01*
X0092755Y0165300D01*
X0092757Y0165142D01*
X0092755Y0164984D01*
X0092749Y0164826D01*
X0092739Y0164668D01*
X0092725Y0164510D01*
X0092707Y0164353D01*
X0092686Y0164196D01*
X0092660Y0164040D01*
X0092630Y0163884D01*
X0092597Y0163729D01*
X0092559Y0163576D01*
X0092518Y0163423D01*
X0092473Y0163271D01*
X0092424Y0163120D01*
X0092371Y0162971D01*
X0092315Y0162823D01*
X0092255Y0162677D01*
X0092191Y0162532D01*
X0092123Y0162389D01*
X0092052Y0162247D01*
X0091978Y0162107D01*
X0091900Y0161970D01*
X0091818Y0161834D01*
X0091734Y0161700D01*
X0091645Y0161569D01*
X0091554Y0161440D01*
X0091459Y0161313D01*
X0091362Y0161188D01*
X0091261Y0161066D01*
X0091157Y0160947D01*
X0091050Y0160830D01*
X0090940Y0160716D01*
X0090827Y0160605D01*
X0090712Y0160496D01*
X0090594Y0160391D01*
X0090473Y0160289D01*
X0090350Y0160189D01*
X0090224Y0160093D01*
X0090096Y0160000D01*
X0089966Y0159910D01*
X0089833Y0159824D01*
X0089698Y0159740D01*
X0089562Y0159661D01*
X0089423Y0159584D01*
X0089282Y0159512D01*
X0089140Y0159442D01*
X0088996Y0159377D01*
X0088850Y0159315D01*
X0088703Y0159257D01*
X0088554Y0159202D01*
X0088404Y0159151D01*
X0088253Y0159104D01*
X0088101Y0159061D01*
X0087948Y0159022D01*
X0087793Y0158986D01*
X0087638Y0158955D01*
X0087482Y0158927D01*
X0087326Y0158903D01*
X0087169Y0158883D01*
X0087011Y0158867D01*
X0086854Y0158855D01*
X0086695Y0158847D01*
X0086537Y0158843D01*
X0086379Y0158843D01*
X0086221Y0158847D01*
X0086062Y0158855D01*
X0085905Y0158867D01*
X0085747Y0158883D01*
X0085590Y0158903D01*
X0085434Y0158927D01*
X0085278Y0158955D01*
X0085123Y0158986D01*
X0084968Y0159022D01*
X0084815Y0159061D01*
X0084663Y0159104D01*
X0084512Y0159151D01*
X0084362Y0159202D01*
X0084213Y0159257D01*
X0084066Y0159315D01*
X0083920Y0159377D01*
X0083776Y0159442D01*
X0083634Y0159512D01*
X0083493Y0159584D01*
X0083354Y0159661D01*
X0083218Y0159740D01*
X0083083Y0159824D01*
X0082950Y0159910D01*
X0082820Y0160000D01*
X0082692Y0160093D01*
X0082566Y0160189D01*
X0082443Y0160289D01*
X0082322Y0160391D01*
X0082204Y0160496D01*
X0082089Y0160605D01*
X0081976Y0160716D01*
X0081866Y0160830D01*
X0081759Y0160947D01*
X0081655Y0161066D01*
X0081554Y0161188D01*
X0081457Y0161313D01*
X0081362Y0161440D01*
X0081271Y0161569D01*
X0081182Y0161700D01*
X0081098Y0161834D01*
X0081016Y0161970D01*
X0080938Y0162107D01*
X0080864Y0162247D01*
X0080793Y0162389D01*
X0080725Y0162532D01*
X0080661Y0162677D01*
X0080601Y0162823D01*
X0080545Y0162971D01*
X0080492Y0163120D01*
X0080443Y0163271D01*
X0080398Y0163423D01*
X0080357Y0163576D01*
X0080319Y0163729D01*
X0080286Y0163884D01*
X0080256Y0164040D01*
X0080230Y0164196D01*
X0080209Y0164353D01*
X0080191Y0164510D01*
X0080177Y0164668D01*
X0080167Y0164826D01*
X0080161Y0164984D01*
X0080159Y0165142D01*
D11*
X0045107Y0027018D02*
X0046694Y0026091D01*
X0048303Y0025201D01*
X0049932Y0024351D01*
X0051582Y0023540D01*
X0053250Y0022769D01*
X0054937Y0022038D01*
X0056641Y0021349D01*
X0058360Y0020700D01*
X0060095Y0020093D01*
X0061844Y0019527D01*
X0063607Y0019004D01*
X0065381Y0018524D01*
X0067166Y0018086D01*
X0068961Y0017691D01*
X0070765Y0017340D01*
X0072578Y0017032D01*
X0074397Y0016768D01*
X0076221Y0016547D01*
X0078051Y0016371D01*
X0079884Y0016238D01*
X0081720Y0016150D01*
X0083558Y0016106D01*
X0085396Y0016106D01*
X0087234Y0016150D01*
X0089070Y0016238D01*
X0090903Y0016371D01*
X0092733Y0016547D01*
X0094557Y0016768D01*
X0096376Y0017032D01*
X0098189Y0017340D01*
X0099993Y0017691D01*
X0101788Y0018086D01*
X0103573Y0018524D01*
X0105347Y0019004D01*
X0107110Y0019527D01*
X0108859Y0020093D01*
X0110594Y0020700D01*
X0112313Y0021349D01*
X0114017Y0022038D01*
X0115704Y0022769D01*
X0117372Y0023540D01*
X0119022Y0024351D01*
X0120651Y0025201D01*
X0122260Y0026091D01*
X0123847Y0027018D01*
X0123847Y0027019D02*
X0125522Y0027974D01*
X0127173Y0028970D01*
X0128799Y0030006D01*
X0130399Y0031081D01*
X0131972Y0032196D01*
X0133517Y0033348D01*
X0135034Y0034538D01*
X0136522Y0035765D01*
X0137978Y0037028D01*
X0139404Y0038326D01*
X0140797Y0039658D01*
X0142157Y0041025D01*
X0143484Y0042424D01*
X0144776Y0043855D01*
X0146032Y0045317D01*
X0147252Y0046810D01*
X0148435Y0048332D01*
X0149581Y0049883D01*
X0150688Y0051461D01*
X0151757Y0053066D01*
X0152786Y0054696D01*
X0153774Y0056351D01*
X0154722Y0058030D01*
X0155629Y0059732D01*
X0156493Y0061455D01*
X0157315Y0063199D01*
X0158095Y0064962D01*
X0158830Y0066744D01*
X0159522Y0068544D01*
X0160170Y0070359D01*
X0160773Y0072191D01*
X0161331Y0074036D01*
X0161844Y0075894D01*
X0162311Y0077765D01*
X0162733Y0079646D01*
X0163108Y0081537D01*
X0163436Y0083437D01*
X0163718Y0085344D01*
X0163954Y0087258D01*
X0164142Y0089176D01*
X0164284Y0091099D01*
X0164378Y0093025D01*
X0164425Y0094952D01*
X0164425Y0096880D01*
X0164378Y0098807D01*
X0164284Y0100733D01*
X0164142Y0102656D01*
X0163954Y0104574D01*
X0163718Y0106488D01*
X0163436Y0108395D01*
X0163108Y0110295D01*
X0162733Y0112186D01*
X0162311Y0114067D01*
X0161844Y0115938D01*
X0161331Y0117796D01*
X0160773Y0119641D01*
X0160170Y0121473D01*
X0159522Y0123288D01*
X0158830Y0125088D01*
X0158095Y0126870D01*
X0157315Y0128633D01*
X0156493Y0130377D01*
X0155629Y0132100D01*
X0154722Y0133802D01*
X0153774Y0135481D01*
X0152786Y0137136D01*
X0151757Y0138766D01*
X0150688Y0140371D01*
X0149581Y0141949D01*
X0148435Y0143500D01*
X0147252Y0145022D01*
X0146032Y0146515D01*
X0144776Y0147977D01*
X0143484Y0149408D01*
X0142157Y0150807D01*
X0140797Y0152174D01*
X0139404Y0153506D01*
X0137978Y0154804D01*
X0136522Y0156067D01*
X0135034Y0157294D01*
X0133517Y0158484D01*
X0131972Y0159636D01*
X0130399Y0160751D01*
X0128799Y0161826D01*
X0127173Y0162862D01*
X0125522Y0163858D01*
X0123847Y0164813D01*
X0123847Y0164814D02*
X0122260Y0165741D01*
X0120651Y0166631D01*
X0119022Y0167481D01*
X0117372Y0168292D01*
X0115704Y0169063D01*
X0114017Y0169794D01*
X0112313Y0170483D01*
X0110594Y0171132D01*
X0108859Y0171739D01*
X0107110Y0172305D01*
X0105347Y0172828D01*
X0103573Y0173308D01*
X0101788Y0173746D01*
X0099993Y0174141D01*
X0098189Y0174492D01*
X0096376Y0174800D01*
X0094557Y0175064D01*
X0092733Y0175285D01*
X0090903Y0175461D01*
X0089070Y0175594D01*
X0087234Y0175682D01*
X0085396Y0175726D01*
X0083558Y0175726D01*
X0081720Y0175682D01*
X0079884Y0175594D01*
X0078051Y0175461D01*
X0076221Y0175285D01*
X0074397Y0175064D01*
X0072578Y0174800D01*
X0070765Y0174492D01*
X0068961Y0174141D01*
X0067166Y0173746D01*
X0065381Y0173308D01*
X0063607Y0172828D01*
X0061844Y0172305D01*
X0060095Y0171739D01*
X0058360Y0171132D01*
X0056641Y0170483D01*
X0054937Y0169794D01*
X0053250Y0169063D01*
X0051582Y0168292D01*
X0049932Y0167481D01*
X0048303Y0166631D01*
X0046694Y0165741D01*
X0045107Y0164814D01*
X0015580Y0135286D01*
X0015580Y0135285D02*
X0014630Y0133643D01*
X0013720Y0131977D01*
X0012851Y0130291D01*
X0012023Y0128583D01*
X0011237Y0126856D01*
X0010493Y0125110D01*
X0009792Y0123347D01*
X0009134Y0121567D01*
X0008519Y0119771D01*
X0007948Y0117961D01*
X0007422Y0116138D01*
X0006940Y0114303D01*
X0006503Y0112456D01*
X0006110Y0110600D01*
X0005764Y0108734D01*
X0005462Y0106860D01*
X0005206Y0104980D01*
X0004996Y0103094D01*
X0004833Y0101203D01*
X0004715Y0099309D01*
X0004643Y0097413D01*
X0004617Y0095515D01*
X0004638Y0093618D01*
X0004704Y0091721D01*
X0004817Y0089827D01*
X0004976Y0087936D01*
X0005181Y0086049D01*
X0005431Y0084168D01*
X0005727Y0082294D01*
X0006069Y0080427D01*
X0006456Y0078570D01*
X0006889Y0076722D01*
X0007366Y0074885D01*
X0007887Y0073060D01*
X0008453Y0071249D01*
X0009063Y0069452D01*
X0009716Y0067670D01*
X0010412Y0065905D01*
X0011151Y0064157D01*
X0011933Y0062428D01*
X0012756Y0060718D01*
X0013620Y0059029D01*
X0014526Y0057361D01*
X0015472Y0055716D01*
X0016457Y0054094D01*
X0017482Y0052497D01*
X0018545Y0050925D01*
X0019646Y0049379D01*
X0020784Y0047861D01*
X0021959Y0046371D01*
X0023170Y0044910D01*
X0024416Y0043478D01*
X0025697Y0042078D01*
X0027011Y0040709D01*
X0028358Y0039372D01*
X0029737Y0038069D01*
X0031148Y0036799D01*
X0032589Y0035565D01*
X0034059Y0034365D01*
X0035559Y0033202D01*
X0037086Y0032076D01*
X0038640Y0030987D01*
X0040220Y0029936D01*
X0041826Y0028924D01*
X0043455Y0027951D01*
X0045108Y0027018D01*
M02*
