G75*
%MOIN*%
%OFA0B0*%
%FSLAX25Y25*%
%IPPOS*%
%LPD*%
%AMOC8*
5,1,8,0,0,1.08239X$1,22.5*
%
%ADD10C,0.20600*%
%ADD11C,0.08000*%
%ADD12C,0.06309*%
%ADD13C,0.08868*%
%ADD14OC8,0.08000*%
%ADD15C,0.04143*%
%ADD16C,0.03300*%
D10*
X0084420Y0162780D03*
D11*
X0066486Y0164742D03*
X0057095Y0161306D03*
D12*
X0022730Y0105144D03*
X0022730Y0085459D03*
D13*
X0012141Y0081524D03*
X0012095Y0109096D03*
D14*
X0143261Y0104976D03*
X0143261Y0094976D03*
X0143261Y0084976D03*
X0153261Y0084976D03*
X0153261Y0094976D03*
X0153261Y0104976D03*
D15*
X0039828Y0148938D03*
X0031476Y0140586D03*
D16*
X0023777Y0053003D03*
X0023777Y0065601D03*
X0048974Y0053003D03*
X0061572Y0053003D03*
X0061572Y0065601D03*
X0061572Y0078199D03*
X0074171Y0078199D03*
X0074171Y0065601D03*
X0086769Y0078199D03*
X0086769Y0090798D03*
X0086769Y0103396D03*
X0074171Y0090798D03*
X0055273Y0107727D03*
X0060785Y0128593D03*
X0074171Y0128593D03*
X0086769Y0128593D03*
X0086769Y0141192D03*
X0074171Y0141192D03*
X0074171Y0153790D03*
X0099367Y0153790D03*
X0099367Y0166388D03*
X0111966Y0166388D03*
X0111966Y0141192D03*
X0124564Y0141192D03*
X0120234Y0127412D03*
X0133226Y0110680D03*
X0149761Y0115995D03*
X0149761Y0128593D03*
X0117084Y0109696D03*
X0111966Y0103396D03*
X0111966Y0090798D03*
X0099367Y0090798D03*
X0099367Y0103396D03*
X0127515Y0078128D03*
X0139525Y0061664D03*
X0139525Y0056940D03*
X0134407Y0053790D03*
X0144643Y0071113D03*
X0113541Y0051034D03*
X0109604Y0051034D03*
X0033619Y0107727D03*
X0023777Y0115995D03*
M02*
