%
M48
M72
T01C0.0130
T02C0.0335
T03C0.0354
T04C0.0400
T05C0.0551
T06C0.2000
%
T01
X2378Y5300
X2378Y6560
X4897Y5300
X6157Y5300
X6157Y6560
X6157Y7820
X7417Y7820
X7417Y9080
X8677Y9080
X8677Y10340
X9937Y10340
X11197Y10340
X11708Y10970
X13323Y11068
X14976Y11599
X14976Y12859
X12456Y14119
X11197Y14119
X9937Y15379
X9937Y16639
X11197Y16639
X8677Y14119
X8677Y12859
X7417Y12859
X7417Y14119
X7417Y15379
X6078Y12859
X5527Y10773
X3362Y10773
X2378Y11599
X7417Y6560
X8677Y7820
X9937Y9080
X11197Y9080
X12752Y7813
X13952Y6166
X13952Y5694
X13441Y5379
X14464Y7111
X11354Y5103
X10960Y5103
X12023Y12741
T02
X2273Y10514
X2273Y8546
T03
X3148Y14059
X3983Y14894
T04
X5709Y16131
X6649Y16474
X14326Y10498
X15326Y10498
X15326Y9498
X14326Y9498
X14326Y8498
X15326Y8498
T05
X1214Y8152
X1210Y10910
T06
X8442Y16278
M30
