G75*
%MOIN*%
%OFA0B0*%
%FSLAX25Y25*%
%IPPOS*%
%LPD*%
%AMOC8*
5,1,8,0,0,1.08239X$1,22.5*
%
%ADD10C,0.00500*%
%ADD11C,0.00600*%
%ADD12C,0.00800*%
%ADD13C,0.01000*%
D10*
X0037706Y0057932D02*
X0039508Y0057932D01*
X0039958Y0058382D01*
X0039958Y0059283D01*
X0039508Y0059733D01*
X0039958Y0060878D02*
X0038157Y0062680D01*
X0037706Y0062680D01*
X0037256Y0062229D01*
X0037256Y0061328D01*
X0037706Y0060878D01*
X0037706Y0059733D02*
X0037256Y0059283D01*
X0037256Y0058382D01*
X0037706Y0057932D01*
X0039958Y0060878D02*
X0039958Y0062680D01*
X0046616Y0068226D02*
X0046616Y0068676D01*
X0046616Y0068226D02*
X0047516Y0067325D01*
X0047516Y0065974D01*
X0047516Y0067325D02*
X0048417Y0068226D01*
X0048417Y0068676D01*
X0049562Y0067776D02*
X0050463Y0068676D01*
X0050463Y0065974D01*
X0049562Y0065974D02*
X0051364Y0065974D01*
X0039629Y0072018D02*
X0039178Y0071567D01*
X0037377Y0071567D01*
X0036927Y0072018D01*
X0036927Y0072918D01*
X0037377Y0073369D01*
X0037827Y0074514D02*
X0036927Y0075414D01*
X0039629Y0075414D01*
X0039629Y0074514D02*
X0039629Y0076315D01*
X0039178Y0073369D02*
X0039629Y0072918D01*
X0039629Y0072018D01*
X0039695Y0092923D02*
X0037894Y0092923D01*
X0037443Y0093374D01*
X0037443Y0094274D01*
X0037894Y0094725D01*
X0037443Y0095870D02*
X0037443Y0097671D01*
X0037894Y0097671D01*
X0039695Y0095870D01*
X0040146Y0095870D01*
X0039695Y0094725D02*
X0040146Y0094274D01*
X0040146Y0093374D01*
X0039695Y0092923D01*
X0029694Y0093258D02*
X0029694Y0094158D01*
X0029244Y0094609D01*
X0029244Y0095754D02*
X0028794Y0095754D01*
X0028343Y0096204D01*
X0028343Y0097105D01*
X0028794Y0097555D01*
X0029244Y0097555D01*
X0029694Y0097105D01*
X0029694Y0096204D01*
X0029244Y0095754D01*
X0028343Y0096204D02*
X0027893Y0095754D01*
X0027442Y0095754D01*
X0026992Y0096204D01*
X0026992Y0097105D01*
X0027442Y0097555D01*
X0027893Y0097555D01*
X0028343Y0097105D01*
X0027442Y0094609D02*
X0026992Y0094158D01*
X0026992Y0093258D01*
X0027442Y0092807D01*
X0029244Y0092807D01*
X0029694Y0093258D01*
X0053090Y0094991D02*
X0053090Y0097693D01*
X0054441Y0097693D01*
X0054891Y0097243D01*
X0054891Y0096342D01*
X0054441Y0095892D01*
X0053090Y0095892D01*
X0053990Y0095892D02*
X0054891Y0094991D01*
X0056036Y0095442D02*
X0056487Y0094991D01*
X0057387Y0094991D01*
X0057838Y0095442D01*
X0057838Y0095892D01*
X0057387Y0096342D01*
X0056036Y0096342D01*
X0056036Y0095442D01*
X0056036Y0096342D02*
X0056937Y0097243D01*
X0057838Y0097693D01*
X0054879Y0117367D02*
X0053077Y0117367D01*
X0054879Y0119169D01*
X0054879Y0119619D01*
X0054428Y0120070D01*
X0053528Y0120070D01*
X0053077Y0119619D01*
X0051932Y0119619D02*
X0051482Y0120070D01*
X0050581Y0120070D01*
X0050131Y0119619D01*
X0050131Y0117818D01*
X0050581Y0117367D01*
X0051482Y0117367D01*
X0051932Y0117818D01*
X0049067Y0117367D02*
X0048166Y0117367D01*
X0048617Y0117367D02*
X0048617Y0120070D01*
X0049067Y0120070D02*
X0048166Y0120070D01*
X0037804Y0117156D02*
X0036002Y0117156D01*
X0036903Y0117156D02*
X0036903Y0119858D01*
X0036002Y0118957D01*
X0034857Y0119408D02*
X0034407Y0119858D01*
X0033506Y0119858D01*
X0033056Y0119408D01*
X0033056Y0117606D01*
X0033506Y0117156D01*
X0034407Y0117156D01*
X0034857Y0117606D01*
X0031992Y0117156D02*
X0031092Y0117156D01*
X0031542Y0117156D02*
X0031542Y0119858D01*
X0031092Y0119858D02*
X0031992Y0119858D01*
X0029945Y0131817D02*
X0048597Y0150469D01*
X0041359Y0157707D01*
X0022707Y0139055D01*
X0029945Y0131817D01*
X0049047Y0135812D02*
X0049047Y0138515D01*
X0050398Y0138515D01*
X0050848Y0138064D01*
X0050848Y0137164D01*
X0050398Y0136713D01*
X0049047Y0136713D01*
X0049947Y0136713D02*
X0050848Y0135812D01*
X0051993Y0135812D02*
X0053795Y0137614D01*
X0053795Y0138064D01*
X0053344Y0138515D01*
X0052443Y0138515D01*
X0051993Y0138064D01*
X0051993Y0135812D02*
X0053795Y0135812D01*
X0054593Y0148006D02*
X0055426Y0148351D01*
X0055669Y0148939D01*
X0056727Y0149378D02*
X0057316Y0149134D01*
X0058148Y0149479D01*
X0058392Y0150067D01*
X0057702Y0151731D01*
X0057114Y0151975D01*
X0056282Y0151630D01*
X0056038Y0151042D01*
X0056210Y0150626D01*
X0056799Y0150382D01*
X0058047Y0150899D01*
X0054980Y0150604D02*
X0054392Y0150848D01*
X0053559Y0150503D01*
X0053316Y0149914D01*
X0054005Y0148250D01*
X0054593Y0148006D01*
X0081990Y0109781D02*
X0083341Y0109781D01*
X0083791Y0109330D01*
X0083791Y0107529D01*
X0083341Y0107079D01*
X0081990Y0107079D01*
X0081990Y0109781D01*
X0084936Y0108880D02*
X0085837Y0109781D01*
X0085837Y0107079D01*
X0084936Y0107079D02*
X0086738Y0107079D01*
X0099527Y0085818D02*
X0100879Y0084467D01*
X0100879Y0086268D01*
X0102230Y0085818D02*
X0099527Y0085818D01*
X0099978Y0083322D02*
X0099527Y0082871D01*
X0099527Y0081971D01*
X0099978Y0081520D01*
X0101779Y0081520D01*
X0102230Y0081971D01*
X0102230Y0082871D01*
X0101779Y0083322D01*
X0104650Y0082867D02*
X0104650Y0081966D01*
X0105100Y0081516D01*
X0106901Y0081516D01*
X0107352Y0081966D01*
X0107352Y0082867D01*
X0106901Y0083318D01*
X0106901Y0084463D02*
X0107352Y0084913D01*
X0107352Y0085814D01*
X0106901Y0086264D01*
X0106451Y0086264D01*
X0106001Y0085814D01*
X0106001Y0085363D01*
X0106001Y0085814D02*
X0105550Y0086264D01*
X0105100Y0086264D01*
X0104650Y0085814D01*
X0104650Y0084913D01*
X0105100Y0084463D01*
X0105100Y0083318D02*
X0104650Y0082867D01*
X0112208Y0072658D02*
X0112208Y0070856D01*
X0112208Y0071757D02*
X0109506Y0071757D01*
X0110407Y0070856D01*
X0112208Y0069711D02*
X0112208Y0067910D01*
X0109506Y0067910D01*
X0103642Y0067711D02*
X0101840Y0069513D01*
X0101390Y0069513D01*
X0100940Y0069062D01*
X0100940Y0068162D01*
X0101390Y0067711D01*
X0103642Y0067711D02*
X0103642Y0069513D01*
X0103642Y0066566D02*
X0103642Y0064765D01*
X0100940Y0064765D01*
X0099123Y0065164D02*
X0098673Y0064713D01*
X0096871Y0064713D01*
X0096421Y0065164D01*
X0096421Y0066064D01*
X0096871Y0066515D01*
X0097772Y0067660D02*
X0097772Y0069011D01*
X0098223Y0069461D01*
X0098673Y0069461D01*
X0099123Y0069011D01*
X0099123Y0068110D01*
X0098673Y0067660D01*
X0097772Y0067660D01*
X0096871Y0068561D01*
X0096421Y0069461D01*
X0098673Y0066515D02*
X0099123Y0066064D01*
X0099123Y0065164D01*
X0091643Y0072644D02*
X0091643Y0073545D01*
X0091193Y0073995D01*
X0091643Y0075140D02*
X0091643Y0076942D01*
X0091643Y0076041D02*
X0088941Y0076041D01*
X0089841Y0075140D01*
X0089391Y0073995D02*
X0088941Y0073545D01*
X0088941Y0072644D01*
X0089391Y0072194D01*
X0091193Y0072194D01*
X0091643Y0072644D01*
X0091643Y0078087D02*
X0091643Y0079888D01*
X0091643Y0078987D02*
X0088941Y0078987D01*
X0089841Y0078087D01*
X0081407Y0070833D02*
X0081407Y0069031D01*
X0079605Y0070833D01*
X0079155Y0070833D01*
X0078704Y0070383D01*
X0078704Y0069482D01*
X0079155Y0069031D01*
X0078704Y0066986D02*
X0081407Y0066986D01*
X0081407Y0066085D02*
X0081407Y0067887D01*
X0079605Y0066085D02*
X0078704Y0066986D01*
X0079155Y0064940D02*
X0078704Y0064490D01*
X0078704Y0063589D01*
X0079155Y0063138D01*
X0080956Y0063138D01*
X0081407Y0063589D01*
X0081407Y0064490D01*
X0080956Y0064940D01*
X0084626Y0057092D02*
X0084626Y0054389D01*
X0086427Y0054389D01*
X0087572Y0055740D02*
X0089374Y0055740D01*
X0088924Y0054389D02*
X0088924Y0057092D01*
X0087572Y0055740D01*
X0092894Y0054840D02*
X0093344Y0054389D01*
X0094245Y0054389D01*
X0094695Y0054840D01*
X0095840Y0054840D02*
X0096291Y0054389D01*
X0097191Y0054389D01*
X0097642Y0054840D01*
X0097642Y0055740D01*
X0097191Y0056191D01*
X0096741Y0056191D01*
X0095840Y0055740D01*
X0095840Y0057092D01*
X0097642Y0057092D01*
X0094695Y0056641D02*
X0094245Y0057092D01*
X0093344Y0057092D01*
X0092894Y0056641D01*
X0092894Y0054840D01*
X0102016Y0054268D02*
X0103817Y0054268D01*
X0104962Y0054719D02*
X0105413Y0054268D01*
X0106313Y0054268D01*
X0106764Y0054719D01*
X0106764Y0055169D01*
X0106313Y0055619D01*
X0105863Y0055619D01*
X0106313Y0055619D02*
X0106764Y0056070D01*
X0106764Y0056520D01*
X0106313Y0056971D01*
X0105413Y0056971D01*
X0104962Y0056520D01*
X0102016Y0056971D02*
X0102016Y0054268D01*
X0084342Y0034609D02*
X0084342Y0033708D01*
X0084342Y0032563D02*
X0084342Y0030762D01*
X0083892Y0030762D02*
X0085693Y0030762D01*
X0083892Y0030762D02*
X0082991Y0031662D01*
X0083892Y0032563D01*
X0085693Y0032563D01*
X0085693Y0033708D02*
X0082991Y0033708D01*
X0082991Y0035510D01*
X0132767Y0067323D02*
X0133217Y0066873D01*
X0135019Y0066873D01*
X0135469Y0067323D01*
X0135469Y0068224D01*
X0135019Y0068674D01*
X0135469Y0069819D02*
X0135469Y0071621D01*
X0135469Y0070720D02*
X0132767Y0070720D01*
X0133668Y0069819D01*
X0133217Y0068674D02*
X0132767Y0068224D01*
X0132767Y0067323D01*
X0133217Y0072766D02*
X0132767Y0073216D01*
X0132767Y0074117D01*
X0133217Y0074567D01*
X0135019Y0072766D01*
X0135469Y0073216D01*
X0135469Y0074117D01*
X0135019Y0074567D01*
X0133217Y0074567D01*
X0133217Y0072766D02*
X0135019Y0072766D01*
X0121283Y0089975D02*
X0120382Y0089975D01*
X0119932Y0090426D01*
X0118787Y0089975D02*
X0117886Y0090876D01*
X0118337Y0090876D02*
X0116986Y0090876D01*
X0116986Y0089975D02*
X0116986Y0092678D01*
X0118337Y0092678D01*
X0118787Y0092227D01*
X0118787Y0091326D01*
X0118337Y0090876D01*
X0119932Y0092227D02*
X0120382Y0092678D01*
X0121283Y0092678D01*
X0121734Y0092227D01*
X0121734Y0091777D01*
X0121283Y0091326D01*
X0121734Y0090876D01*
X0121734Y0090426D01*
X0121283Y0089975D01*
X0121283Y0091326D02*
X0120833Y0091326D01*
X0121219Y0096727D02*
X0121219Y0099429D01*
X0119868Y0098078D01*
X0121669Y0098078D01*
X0118723Y0098078D02*
X0118272Y0097627D01*
X0116921Y0097627D01*
X0116921Y0096727D02*
X0116921Y0099429D01*
X0118272Y0099429D01*
X0118723Y0098978D01*
X0118723Y0098078D01*
X0117822Y0097627D02*
X0118723Y0096727D01*
X0118723Y0102968D02*
X0117822Y0103868D01*
X0118272Y0103868D02*
X0116921Y0103868D01*
X0116921Y0102968D02*
X0116921Y0105670D01*
X0118272Y0105670D01*
X0118723Y0105219D01*
X0118723Y0104319D01*
X0118272Y0103868D01*
X0119868Y0103418D02*
X0120318Y0102968D01*
X0121219Y0102968D01*
X0121669Y0103418D01*
X0121669Y0104319D01*
X0121219Y0104769D01*
X0120769Y0104769D01*
X0119868Y0104319D01*
X0119868Y0105670D01*
X0121669Y0105670D01*
X0154124Y0073162D02*
X0156827Y0073162D01*
X0156827Y0072261D02*
X0156827Y0074063D01*
X0155025Y0072261D02*
X0154124Y0073162D01*
X0154575Y0071116D02*
X0155475Y0071116D01*
X0155926Y0070666D01*
X0155926Y0069315D01*
X0155926Y0070215D02*
X0156827Y0071116D01*
X0156827Y0069315D02*
X0154124Y0069315D01*
X0154124Y0070666D01*
X0154575Y0071116D01*
D11*
X0037106Y0045477D02*
X0037106Y0042074D01*
X0037106Y0043776D02*
X0038240Y0043776D01*
X0037106Y0045477D02*
X0039374Y0045477D01*
X0040789Y0045477D02*
X0041356Y0045477D01*
X0041356Y0042074D01*
X0040789Y0042074D02*
X0041923Y0042074D01*
X0043244Y0042641D02*
X0043244Y0043776D01*
X0043811Y0044343D01*
X0044946Y0044343D01*
X0045513Y0043776D01*
X0045513Y0042641D01*
X0044946Y0042074D01*
X0043811Y0042074D01*
X0043244Y0042641D01*
X0046927Y0042641D02*
X0047494Y0042074D01*
X0048062Y0042641D01*
X0048629Y0042074D01*
X0049196Y0042641D01*
X0049196Y0044343D01*
X0050610Y0043776D02*
X0050610Y0042641D01*
X0051178Y0042074D01*
X0052312Y0042074D01*
X0052879Y0043209D02*
X0050610Y0043209D01*
X0050610Y0043776D02*
X0051178Y0044343D01*
X0052312Y0044343D01*
X0052879Y0043776D01*
X0052879Y0043209D01*
X0054294Y0043209D02*
X0055428Y0044343D01*
X0055995Y0044343D01*
X0057363Y0043776D02*
X0058497Y0043776D01*
X0057363Y0045477D02*
X0057363Y0042074D01*
X0057363Y0039477D02*
X0059064Y0039477D01*
X0059631Y0038910D01*
X0059631Y0037776D01*
X0059064Y0037209D01*
X0057363Y0037209D01*
X0058497Y0037209D02*
X0059631Y0036074D01*
X0061046Y0036641D02*
X0061046Y0037776D01*
X0061613Y0038343D01*
X0062747Y0038343D01*
X0063315Y0037776D01*
X0063315Y0037209D01*
X0061046Y0037209D01*
X0061046Y0036641D02*
X0061613Y0036074D01*
X0062747Y0036074D01*
X0064729Y0038343D02*
X0065863Y0036074D01*
X0066998Y0038343D01*
X0068412Y0036641D02*
X0068979Y0036641D01*
X0068979Y0036074D01*
X0068412Y0036074D01*
X0068412Y0036641D01*
X0068272Y0033477D02*
X0067138Y0033477D01*
X0066571Y0032910D01*
X0066571Y0030641D01*
X0068839Y0032910D01*
X0068839Y0030641D01*
X0068272Y0030074D01*
X0067138Y0030074D01*
X0066571Y0030641D01*
X0065156Y0030074D02*
X0062888Y0030074D01*
X0065156Y0032343D01*
X0065156Y0032910D01*
X0064589Y0033477D01*
X0063455Y0033477D01*
X0062888Y0032910D01*
X0061473Y0033477D02*
X0059204Y0030074D01*
X0057790Y0030641D02*
X0057790Y0032910D01*
X0057223Y0033477D01*
X0056088Y0033477D01*
X0055521Y0032910D01*
X0055521Y0032343D01*
X0056088Y0031776D01*
X0057790Y0031776D01*
X0057790Y0030641D02*
X0057223Y0030074D01*
X0056088Y0030074D01*
X0055521Y0030641D01*
X0054107Y0030074D02*
X0051838Y0030074D01*
X0052972Y0030074D02*
X0052972Y0033477D01*
X0051838Y0032343D01*
X0050424Y0033477D02*
X0048155Y0030074D01*
X0046740Y0030641D02*
X0046740Y0031209D01*
X0046173Y0031776D01*
X0044472Y0031776D01*
X0044472Y0030641D01*
X0045039Y0030074D01*
X0046173Y0030074D01*
X0046740Y0030641D01*
X0045606Y0032910D02*
X0044472Y0031776D01*
X0045606Y0032910D02*
X0046740Y0033477D01*
X0046927Y0042641D02*
X0046927Y0044343D01*
X0054294Y0044343D02*
X0054294Y0042074D01*
X0057363Y0039477D02*
X0057363Y0036074D01*
X0061046Y0042074D02*
X0061046Y0044343D01*
X0062180Y0044343D02*
X0062747Y0044343D01*
X0062180Y0044343D02*
X0061046Y0043209D01*
X0059631Y0045477D02*
X0057363Y0045477D01*
X0064115Y0044343D02*
X0064682Y0044343D01*
X0064682Y0042074D01*
X0064115Y0042074D02*
X0065250Y0042074D01*
X0066571Y0042641D02*
X0066571Y0043776D01*
X0067138Y0044343D01*
X0068272Y0044343D01*
X0068839Y0043776D01*
X0068839Y0043209D01*
X0066571Y0043209D01*
X0066571Y0042641D02*
X0067138Y0042074D01*
X0068272Y0042074D01*
X0070254Y0042074D02*
X0070254Y0044343D01*
X0071955Y0044343D01*
X0072522Y0043776D01*
X0072522Y0042074D01*
X0073937Y0042641D02*
X0073937Y0043776D01*
X0074504Y0044343D01*
X0076206Y0044343D01*
X0076206Y0045477D02*
X0076206Y0042074D01*
X0074504Y0042074D01*
X0073937Y0042641D01*
X0074504Y0039477D02*
X0073937Y0038910D01*
X0073937Y0038343D01*
X0074504Y0037776D01*
X0075638Y0037776D01*
X0076206Y0037209D01*
X0076206Y0036641D01*
X0075638Y0036074D01*
X0074504Y0036074D01*
X0073937Y0036641D01*
X0073937Y0037209D01*
X0074504Y0037776D01*
X0075638Y0037776D02*
X0076206Y0038343D01*
X0076206Y0038910D01*
X0075638Y0039477D01*
X0074504Y0039477D01*
X0073937Y0033477D02*
X0073937Y0031776D01*
X0075071Y0032343D01*
X0075638Y0032343D01*
X0076206Y0031776D01*
X0076206Y0030641D01*
X0075638Y0030074D01*
X0074504Y0030074D01*
X0073937Y0030641D01*
X0072522Y0030074D02*
X0070254Y0030074D01*
X0071388Y0030074D02*
X0071388Y0033477D01*
X0070254Y0032343D01*
X0068839Y0032910D02*
X0068272Y0033477D01*
X0073937Y0033477D02*
X0076206Y0033477D01*
X0064682Y0045477D02*
X0064682Y0046044D01*
X0035194Y0059302D02*
X0035194Y0061664D01*
X0030470Y0061664D02*
X0030470Y0059302D01*
X0030470Y0073081D02*
X0030470Y0075444D01*
X0035194Y0075444D02*
X0035194Y0073081D01*
X0036113Y0093818D02*
X0036113Y0096180D01*
X0031388Y0096180D02*
X0031388Y0093818D01*
X0041643Y0093827D02*
X0041643Y0096190D01*
X0046367Y0096190D02*
X0046367Y0093827D01*
X0054092Y0099491D02*
X0056454Y0099491D01*
X0056454Y0104216D02*
X0054092Y0104216D01*
X0052589Y0129826D02*
X0050227Y0129826D01*
X0050227Y0134550D02*
X0052589Y0134550D01*
X0064928Y0151231D02*
X0067111Y0152135D01*
X0065303Y0156500D02*
X0063120Y0155596D01*
X0101641Y0148138D02*
X0101641Y0121937D01*
X0129240Y0121937D01*
X0129240Y0149535D01*
X0103039Y0149535D01*
X0101641Y0148138D01*
X0103227Y0146536D02*
X0103229Y0146611D01*
X0103235Y0146685D01*
X0103245Y0146759D01*
X0103258Y0146832D01*
X0103276Y0146905D01*
X0103297Y0146976D01*
X0103322Y0147047D01*
X0103351Y0147116D01*
X0103384Y0147183D01*
X0103420Y0147248D01*
X0103459Y0147312D01*
X0103501Y0147373D01*
X0103547Y0147432D01*
X0103596Y0147489D01*
X0103648Y0147542D01*
X0103702Y0147593D01*
X0103759Y0147642D01*
X0103819Y0147686D01*
X0103881Y0147728D01*
X0103945Y0147767D01*
X0104011Y0147802D01*
X0104078Y0147833D01*
X0104148Y0147861D01*
X0104218Y0147885D01*
X0104290Y0147906D01*
X0104363Y0147922D01*
X0104436Y0147935D01*
X0104511Y0147944D01*
X0104585Y0147949D01*
X0104660Y0147950D01*
X0104734Y0147947D01*
X0104809Y0147940D01*
X0104882Y0147929D01*
X0104956Y0147915D01*
X0105028Y0147896D01*
X0105099Y0147874D01*
X0105169Y0147848D01*
X0105238Y0147818D01*
X0105304Y0147785D01*
X0105369Y0147748D01*
X0105432Y0147708D01*
X0105493Y0147664D01*
X0105551Y0147618D01*
X0105607Y0147568D01*
X0105660Y0147516D01*
X0105711Y0147461D01*
X0105758Y0147403D01*
X0105802Y0147343D01*
X0105843Y0147280D01*
X0105881Y0147216D01*
X0105915Y0147150D01*
X0105946Y0147081D01*
X0105973Y0147012D01*
X0105996Y0146941D01*
X0106015Y0146869D01*
X0106031Y0146796D01*
X0106043Y0146722D01*
X0106051Y0146648D01*
X0106055Y0146573D01*
X0106055Y0146499D01*
X0106051Y0146424D01*
X0106043Y0146350D01*
X0106031Y0146276D01*
X0106015Y0146203D01*
X0105996Y0146131D01*
X0105973Y0146060D01*
X0105946Y0145991D01*
X0105915Y0145922D01*
X0105881Y0145856D01*
X0105843Y0145792D01*
X0105802Y0145729D01*
X0105758Y0145669D01*
X0105711Y0145611D01*
X0105660Y0145556D01*
X0105607Y0145504D01*
X0105551Y0145454D01*
X0105493Y0145408D01*
X0105432Y0145364D01*
X0105369Y0145324D01*
X0105304Y0145287D01*
X0105238Y0145254D01*
X0105169Y0145224D01*
X0105099Y0145198D01*
X0105028Y0145176D01*
X0104956Y0145157D01*
X0104882Y0145143D01*
X0104809Y0145132D01*
X0104734Y0145125D01*
X0104660Y0145122D01*
X0104585Y0145123D01*
X0104511Y0145128D01*
X0104436Y0145137D01*
X0104363Y0145150D01*
X0104290Y0145166D01*
X0104218Y0145187D01*
X0104148Y0145211D01*
X0104078Y0145239D01*
X0104011Y0145270D01*
X0103945Y0145305D01*
X0103881Y0145344D01*
X0103819Y0145386D01*
X0103759Y0145430D01*
X0103702Y0145479D01*
X0103648Y0145530D01*
X0103596Y0145583D01*
X0103547Y0145640D01*
X0103501Y0145699D01*
X0103459Y0145760D01*
X0103420Y0145824D01*
X0103384Y0145889D01*
X0103351Y0145956D01*
X0103322Y0146025D01*
X0103297Y0146096D01*
X0103276Y0146167D01*
X0103258Y0146240D01*
X0103245Y0146313D01*
X0103235Y0146387D01*
X0103229Y0146461D01*
X0103227Y0146536D01*
X0127392Y0106441D02*
X0129754Y0106441D01*
X0129754Y0101716D02*
X0127392Y0101716D01*
X0127424Y0100229D02*
X0129786Y0100229D01*
X0129786Y0095505D02*
X0127424Y0095505D01*
X0127308Y0093630D02*
X0129670Y0093630D01*
X0129670Y0088906D02*
X0127308Y0088906D01*
X0136769Y0072294D02*
X0136769Y0069932D01*
X0141493Y0069932D02*
X0141493Y0072294D01*
X0147793Y0072294D02*
X0147793Y0069932D01*
X0152517Y0069932D02*
X0152517Y0072294D01*
D12*
X0155761Y0079976D02*
X0140761Y0079976D01*
X0138261Y0082476D01*
X0138261Y0087476D01*
X0140761Y0089976D01*
X0155761Y0089976D01*
X0158261Y0092476D01*
X0158261Y0097476D01*
X0155761Y0099976D01*
X0140761Y0099976D01*
X0138261Y0102476D01*
X0138261Y0107476D01*
X0140761Y0109976D01*
X0155761Y0109976D01*
X0158261Y0107476D01*
X0158261Y0102476D01*
X0155761Y0099976D01*
X0155761Y0089976D02*
X0158261Y0087476D01*
X0158261Y0082476D01*
X0155761Y0079976D01*
X0159580Y0082476D02*
X0159580Y0087476D01*
X0140761Y0089976D02*
X0138261Y0092476D01*
X0138261Y0097476D01*
X0140761Y0099976D01*
X0131376Y0054966D02*
X0129407Y0052998D01*
X0094060Y0095034D02*
X0093860Y0095034D01*
X0093860Y0095054D01*
X0074370Y0095054D01*
X0074370Y0095964D01*
X0074260Y0101934D02*
X0074260Y0105334D01*
X0084260Y0115334D01*
X0093940Y0115534D02*
X0093940Y0115544D01*
X0074380Y0115544D01*
X0074380Y0114654D01*
X0074260Y0108734D02*
X0074260Y0105334D01*
X0064824Y0116428D02*
X0063013Y0116428D01*
X0062093Y0117649D01*
X0061202Y0116428D02*
X0063013Y0116428D01*
X0063113Y0116489D02*
X0063873Y0117649D01*
X0056412Y0117058D02*
X0056412Y0120439D01*
X0052468Y0121539D02*
X0050355Y0121539D01*
X0046412Y0120439D02*
X0046412Y0117058D01*
X0039959Y0115892D02*
X0039959Y0119042D01*
X0039959Y0115892D02*
X0037597Y0115892D01*
X0031298Y0115892D02*
X0028936Y0115892D01*
X0028936Y0119042D01*
X0053258Y0157240D02*
X0056465Y0155751D01*
X0061161Y0157469D01*
X0062649Y0160676D01*
X0065856Y0159188D01*
X0070552Y0160906D01*
X0072040Y0164113D01*
X0070322Y0168808D01*
X0067115Y0170297D01*
X0062420Y0168579D01*
X0060931Y0165372D01*
X0057724Y0166860D01*
X0053029Y0165142D01*
X0051540Y0161935D01*
X0053258Y0157240D01*
X0093940Y0115534D02*
X0094140Y0115534D01*
X0094140Y0114464D01*
X0094260Y0108834D02*
X0094260Y0102134D01*
X0094060Y0096034D02*
X0094060Y0095034D01*
X0054894Y0069223D02*
X0054894Y0064498D01*
X0049776Y0057018D02*
X0047414Y0057018D01*
X0042296Y0064498D02*
X0042296Y0069223D01*
X0047414Y0076703D02*
X0049776Y0076703D01*
X0079911Y0042693D02*
X0079911Y0023693D01*
X0082911Y0026193D02*
X0084411Y0024693D01*
X0085911Y0026193D01*
X0084411Y0024693D02*
X0084411Y0028193D01*
X0088911Y0023693D02*
X0088911Y0042693D01*
D13*
X0045112Y0114749D03*
M02*
