G75*
%MOIN*%
%OFA0B0*%
%FSLAX25Y25*%
%IPPOS*%
%LPD*%
%AMOC8*
5,1,8,0,0,1.08239X$1,22.5*
%
%ADD10C,0.07400*%
%ADD11C,0.05709*%
%ADD12C,0.08268*%
%ADD13OC8,0.07400*%
%ADD14C,0.00600*%
%ADD15C,0.02700*%
%ADD16C,0.01200*%
%ADD17C,0.00800*%
D10*
X0057095Y0161306D03*
X0066486Y0164742D03*
D11*
X0022730Y0105144D03*
X0022730Y0085459D03*
D12*
X0012141Y0081524D03*
X0012095Y0109096D03*
D13*
X0143261Y0104976D03*
X0143261Y0094976D03*
X0143261Y0084976D03*
X0153261Y0084976D03*
X0153261Y0094976D03*
X0153261Y0104976D03*
D14*
X0022227Y0048932D02*
X0019458Y0052444D01*
X0014286Y0061193D01*
X0010328Y0070553D01*
X0008522Y0077176D01*
X0008950Y0076748D01*
X0011020Y0075890D01*
X0013262Y0075890D01*
X0015332Y0076748D01*
X0016917Y0078333D01*
X0017775Y0080404D01*
X0017775Y0082645D01*
X0016917Y0084716D01*
X0015332Y0086300D01*
X0013262Y0087158D01*
X0011020Y0087158D01*
X0008950Y0086300D01*
X0007365Y0084716D01*
X0007145Y0084184D01*
X0006312Y0090432D01*
X0006326Y0100594D01*
X0007115Y0106396D01*
X0007319Y0105904D01*
X0008904Y0104319D01*
X0010974Y0103462D01*
X0013216Y0103462D01*
X0015286Y0104319D01*
X0016871Y0105904D01*
X0017729Y0107975D01*
X0017729Y0110216D01*
X0016871Y0112287D01*
X0015286Y0113872D01*
X0013216Y0114729D01*
X0010974Y0114729D01*
X0008904Y0113872D01*
X0008457Y0113424D01*
X0010396Y0120462D01*
X0014380Y0129811D01*
X0016725Y0134072D01*
X0045860Y0163207D01*
X0050071Y0165547D01*
X0059316Y0169519D01*
X0069012Y0172208D01*
X0078982Y0173565D01*
X0079499Y0173565D01*
X0077174Y0172223D01*
X0074977Y0170026D01*
X0073424Y0167335D01*
X0072620Y0164334D01*
X0072620Y0161227D01*
X0073424Y0158226D01*
X0074977Y0155535D01*
X0077174Y0153338D01*
X0079865Y0151784D01*
X0082866Y0150980D01*
X0085973Y0150980D01*
X0088974Y0151784D01*
X0091665Y0153338D01*
X0093862Y0155535D01*
X0095415Y0158226D01*
X0096220Y0161227D01*
X0096220Y0164334D01*
X0095415Y0167335D01*
X0093862Y0170026D01*
X0091665Y0172223D01*
X0089431Y0173512D01*
X0099014Y0172208D01*
X0108710Y0169519D01*
X0117955Y0165547D01*
X0121691Y0163471D01*
X0121692Y0163468D01*
X0122385Y0163084D01*
X0123064Y0162676D01*
X0123067Y0162677D01*
X0126798Y0160444D01*
X0134992Y0154352D01*
X0142305Y0147228D01*
X0148609Y0139196D01*
X0153791Y0130399D01*
X0157760Y0120991D01*
X0160445Y0111141D01*
X0161800Y0101021D01*
X0161800Y0090811D01*
X0160445Y0080691D01*
X0157760Y0070840D01*
X0153791Y0061433D01*
X0148609Y0052636D01*
X0145744Y0048986D01*
X0022227Y0048932D01*
X0022225Y0048935D02*
X0028674Y0048935D01*
X0021753Y0049534D02*
X0146174Y0049534D01*
X0146644Y0050132D02*
X0021281Y0050132D01*
X0020809Y0050731D02*
X0147114Y0050731D01*
X0147583Y0051329D02*
X0020337Y0051329D01*
X0019865Y0051928D02*
X0148053Y0051928D01*
X0148523Y0052526D02*
X0019409Y0052526D01*
X0019056Y0053125D02*
X0148897Y0053125D01*
X0149249Y0053723D02*
X0018702Y0053723D01*
X0018348Y0054322D02*
X0138397Y0054322D01*
X0137910Y0054524D02*
X0138958Y0054090D01*
X0140092Y0054090D01*
X0141139Y0054524D01*
X0141941Y0055325D01*
X0142375Y0056373D01*
X0142375Y0057507D01*
X0141941Y0058554D01*
X0141193Y0059302D01*
X0141941Y0060050D01*
X0142375Y0061097D01*
X0142375Y0062231D01*
X0141941Y0063278D01*
X0141425Y0063795D01*
X0141425Y0076231D01*
X0140312Y0077344D01*
X0138316Y0077344D01*
X0140928Y0079956D01*
X0141107Y0079776D01*
X0145415Y0079776D01*
X0148261Y0082622D01*
X0151107Y0079776D01*
X0155415Y0079776D01*
X0158461Y0082822D01*
X0158461Y0087130D01*
X0155615Y0089976D01*
X0158461Y0092822D01*
X0158461Y0097130D01*
X0155615Y0099976D01*
X0158461Y0102822D01*
X0158461Y0107130D01*
X0155415Y0110176D01*
X0151107Y0110176D01*
X0148120Y0107189D01*
X0145332Y0109976D01*
X0143561Y0109976D01*
X0143561Y0105276D01*
X0142961Y0105276D01*
X0142961Y0109976D01*
X0141190Y0109976D01*
X0138771Y0107557D01*
X0138771Y0108105D01*
X0137540Y0109335D01*
X0136076Y0110800D01*
X0136076Y0111247D01*
X0135642Y0112294D01*
X0134840Y0113096D01*
X0133793Y0113530D01*
X0132659Y0113530D01*
X0131611Y0113096D01*
X0130810Y0112294D01*
X0130376Y0111247D01*
X0130376Y0110113D01*
X0130810Y0109065D01*
X0131611Y0108264D01*
X0132659Y0107830D01*
X0133106Y0107830D01*
X0134571Y0106365D01*
X0134571Y0090617D01*
X0138061Y0087126D01*
X0138061Y0082822D01*
X0138241Y0082643D01*
X0135626Y0080028D01*
X0129646Y0080028D01*
X0129130Y0080544D01*
X0128082Y0080978D01*
X0126948Y0080978D01*
X0125901Y0080544D01*
X0125099Y0079742D01*
X0124665Y0078694D01*
X0124665Y0077561D01*
X0124755Y0077344D01*
X0121754Y0077344D01*
X0122117Y0125265D01*
X0122650Y0125798D01*
X0123084Y0126845D01*
X0123084Y0127979D01*
X0122650Y0129026D01*
X0121848Y0129828D01*
X0120800Y0130262D01*
X0119667Y0130262D01*
X0118619Y0129828D01*
X0117817Y0129026D01*
X0117384Y0127979D01*
X0117384Y0126845D01*
X0117817Y0125798D01*
X0118317Y0125298D01*
X0118219Y0112310D01*
X0117651Y0112546D01*
X0116517Y0112546D01*
X0115470Y0112112D01*
X0114668Y0111310D01*
X0114234Y0110262D01*
X0114234Y0109129D01*
X0114668Y0108081D01*
X0115184Y0107565D01*
X0115184Y0072688D01*
X0116297Y0071575D01*
X0133294Y0071575D01*
X0133294Y0056153D01*
X0134407Y0055040D01*
X0137394Y0055040D01*
X0137910Y0054524D01*
X0137514Y0054920D02*
X0017994Y0054920D01*
X0017641Y0055519D02*
X0133928Y0055519D01*
X0133329Y0056117D02*
X0017287Y0056117D01*
X0016933Y0056716D02*
X0133294Y0056716D01*
X0133294Y0057314D02*
X0016579Y0057314D01*
X0016225Y0057913D02*
X0133294Y0057913D01*
X0133294Y0058511D02*
X0015872Y0058511D01*
X0015518Y0059110D02*
X0133294Y0059110D01*
X0133294Y0059708D02*
X0015164Y0059708D01*
X0014810Y0060307D02*
X0133294Y0060307D01*
X0133294Y0060905D02*
X0014456Y0060905D01*
X0014155Y0061504D02*
X0133294Y0061504D01*
X0133294Y0062102D02*
X0013902Y0062102D01*
X0013649Y0062701D02*
X0133294Y0062701D01*
X0133294Y0063300D02*
X0013396Y0063300D01*
X0013143Y0063898D02*
X0133294Y0063898D01*
X0133294Y0064497D02*
X0012889Y0064497D01*
X0012636Y0065095D02*
X0133294Y0065095D01*
X0133294Y0065694D02*
X0012383Y0065694D01*
X0012130Y0066292D02*
X0133294Y0066292D01*
X0133294Y0066891D02*
X0011877Y0066891D01*
X0011624Y0067489D02*
X0133294Y0067489D01*
X0133294Y0068088D02*
X0011371Y0068088D01*
X0011118Y0068686D02*
X0133294Y0068686D01*
X0133294Y0069285D02*
X0010865Y0069285D01*
X0010612Y0069883D02*
X0133294Y0069883D01*
X0133294Y0070482D02*
X0010359Y0070482D01*
X0010185Y0071080D02*
X0133294Y0071080D01*
X0141425Y0071080D02*
X0157825Y0071080D01*
X0157988Y0071679D02*
X0141425Y0071679D01*
X0141425Y0072277D02*
X0158152Y0072277D01*
X0158315Y0072876D02*
X0141425Y0072876D01*
X0141425Y0073474D02*
X0158478Y0073474D01*
X0158641Y0074073D02*
X0141425Y0074073D01*
X0141425Y0074671D02*
X0158804Y0074671D01*
X0158967Y0075270D02*
X0141425Y0075270D01*
X0141425Y0075868D02*
X0159131Y0075868D01*
X0159294Y0076467D02*
X0141189Y0076467D01*
X0140590Y0077065D02*
X0159457Y0077065D01*
X0159620Y0077664D02*
X0138636Y0077664D01*
X0139234Y0078262D02*
X0159783Y0078262D01*
X0159946Y0078861D02*
X0139833Y0078861D01*
X0140431Y0079459D02*
X0160110Y0079459D01*
X0160273Y0080058D02*
X0155697Y0080058D01*
X0156295Y0080656D02*
X0160436Y0080656D01*
X0160521Y0081255D02*
X0156894Y0081255D01*
X0157492Y0081853D02*
X0160601Y0081853D01*
X0160681Y0082452D02*
X0158091Y0082452D01*
X0158461Y0083050D02*
X0160761Y0083050D01*
X0160841Y0083649D02*
X0158461Y0083649D01*
X0158461Y0084247D02*
X0160922Y0084247D01*
X0161002Y0084846D02*
X0158461Y0084846D01*
X0158461Y0085444D02*
X0161082Y0085444D01*
X0161162Y0086043D02*
X0158461Y0086043D01*
X0158461Y0086641D02*
X0161242Y0086641D01*
X0161322Y0087240D02*
X0158352Y0087240D01*
X0157753Y0087838D02*
X0161402Y0087838D01*
X0161482Y0088437D02*
X0157155Y0088437D01*
X0156556Y0089036D02*
X0161563Y0089036D01*
X0161643Y0089634D02*
X0155958Y0089634D01*
X0155871Y0090233D02*
X0161723Y0090233D01*
X0161800Y0090831D02*
X0156470Y0090831D01*
X0157069Y0091430D02*
X0161800Y0091430D01*
X0161800Y0092028D02*
X0157667Y0092028D01*
X0158266Y0092627D02*
X0161800Y0092627D01*
X0161800Y0093225D02*
X0158461Y0093225D01*
X0158461Y0093824D02*
X0161800Y0093824D01*
X0161800Y0094422D02*
X0158461Y0094422D01*
X0158461Y0095021D02*
X0161800Y0095021D01*
X0161800Y0095619D02*
X0158461Y0095619D01*
X0158461Y0096218D02*
X0161800Y0096218D01*
X0161800Y0096816D02*
X0158461Y0096816D01*
X0158177Y0097415D02*
X0161800Y0097415D01*
X0161800Y0098013D02*
X0157578Y0098013D01*
X0156980Y0098612D02*
X0161800Y0098612D01*
X0161800Y0099210D02*
X0156381Y0099210D01*
X0155783Y0099809D02*
X0161800Y0099809D01*
X0161800Y0100407D02*
X0156046Y0100407D01*
X0156645Y0101006D02*
X0161800Y0101006D01*
X0161722Y0101604D02*
X0157243Y0101604D01*
X0157842Y0102203D02*
X0161642Y0102203D01*
X0161562Y0102801D02*
X0158440Y0102801D01*
X0158461Y0103400D02*
X0161482Y0103400D01*
X0161402Y0103998D02*
X0158461Y0103998D01*
X0158461Y0104597D02*
X0161322Y0104597D01*
X0161241Y0105195D02*
X0158461Y0105195D01*
X0158461Y0105794D02*
X0161161Y0105794D01*
X0161081Y0106392D02*
X0158461Y0106392D01*
X0158461Y0106991D02*
X0161001Y0106991D01*
X0160921Y0107589D02*
X0158002Y0107589D01*
X0157404Y0108188D02*
X0160841Y0108188D01*
X0160761Y0108786D02*
X0156805Y0108786D01*
X0156207Y0109385D02*
X0160681Y0109385D01*
X0160600Y0109983D02*
X0155608Y0109983D01*
X0159945Y0112976D02*
X0134960Y0112976D01*
X0135559Y0112377D02*
X0160108Y0112377D01*
X0160271Y0111779D02*
X0135855Y0111779D01*
X0136076Y0111180D02*
X0160435Y0111180D01*
X0160520Y0110582D02*
X0136293Y0110582D01*
X0136892Y0109983D02*
X0150915Y0109983D01*
X0150316Y0109385D02*
X0145924Y0109385D01*
X0146522Y0108786D02*
X0149718Y0108786D01*
X0149119Y0108188D02*
X0147121Y0108188D01*
X0147719Y0107589D02*
X0148521Y0107589D01*
X0143561Y0107589D02*
X0142961Y0107589D01*
X0142961Y0106991D02*
X0143561Y0106991D01*
X0143561Y0106392D02*
X0142961Y0106392D01*
X0142961Y0105794D02*
X0143561Y0105794D01*
X0143561Y0108188D02*
X0142961Y0108188D01*
X0142961Y0108786D02*
X0143561Y0108786D01*
X0143561Y0109385D02*
X0142961Y0109385D01*
X0140599Y0109385D02*
X0137490Y0109385D01*
X0138089Y0108786D02*
X0140000Y0108786D01*
X0139402Y0108188D02*
X0138687Y0108188D01*
X0138771Y0107589D02*
X0138803Y0107589D01*
X0134543Y0106392D02*
X0121974Y0106392D01*
X0121970Y0105794D02*
X0134571Y0105794D01*
X0134571Y0105195D02*
X0121965Y0105195D01*
X0121961Y0104597D02*
X0134571Y0104597D01*
X0134571Y0103998D02*
X0121956Y0103998D01*
X0121952Y0103400D02*
X0134571Y0103400D01*
X0134571Y0102801D02*
X0121947Y0102801D01*
X0121943Y0102203D02*
X0134571Y0102203D01*
X0134571Y0101604D02*
X0121938Y0101604D01*
X0121934Y0101006D02*
X0134571Y0101006D01*
X0134571Y0100407D02*
X0121929Y0100407D01*
X0121924Y0099809D02*
X0134571Y0099809D01*
X0134571Y0099210D02*
X0121920Y0099210D01*
X0121915Y0098612D02*
X0134571Y0098612D01*
X0134571Y0098013D02*
X0121911Y0098013D01*
X0121906Y0097415D02*
X0134571Y0097415D01*
X0134571Y0096816D02*
X0121902Y0096816D01*
X0121897Y0096218D02*
X0134571Y0096218D01*
X0134571Y0095619D02*
X0121893Y0095619D01*
X0121888Y0095021D02*
X0134571Y0095021D01*
X0134571Y0094422D02*
X0121884Y0094422D01*
X0121879Y0093824D02*
X0134571Y0093824D01*
X0134571Y0093225D02*
X0121875Y0093225D01*
X0121870Y0092627D02*
X0134571Y0092627D01*
X0134571Y0092028D02*
X0121866Y0092028D01*
X0121861Y0091430D02*
X0134571Y0091430D01*
X0134571Y0090831D02*
X0121856Y0090831D01*
X0121852Y0090233D02*
X0134955Y0090233D01*
X0135554Y0089634D02*
X0121847Y0089634D01*
X0121843Y0089036D02*
X0136152Y0089036D01*
X0136751Y0088437D02*
X0121838Y0088437D01*
X0121834Y0087838D02*
X0137349Y0087838D01*
X0137948Y0087240D02*
X0121829Y0087240D01*
X0121825Y0086641D02*
X0138061Y0086641D01*
X0138061Y0086043D02*
X0121820Y0086043D01*
X0121816Y0085444D02*
X0138061Y0085444D01*
X0138061Y0084846D02*
X0121811Y0084846D01*
X0121807Y0084247D02*
X0138061Y0084247D01*
X0138061Y0083649D02*
X0121802Y0083649D01*
X0121798Y0083050D02*
X0138061Y0083050D01*
X0138050Y0082452D02*
X0121793Y0082452D01*
X0121788Y0081853D02*
X0137451Y0081853D01*
X0136853Y0081255D02*
X0121784Y0081255D01*
X0121779Y0080656D02*
X0126173Y0080656D01*
X0125415Y0080058D02*
X0121775Y0080058D01*
X0121770Y0079459D02*
X0124982Y0079459D01*
X0124734Y0078861D02*
X0121766Y0078861D01*
X0121761Y0078262D02*
X0124665Y0078262D01*
X0124665Y0077664D02*
X0121757Y0077664D01*
X0115184Y0077664D02*
X0016248Y0077664D01*
X0016847Y0078262D02*
X0115184Y0078262D01*
X0115184Y0078861D02*
X0017136Y0078861D01*
X0017384Y0079459D02*
X0115184Y0079459D01*
X0115184Y0080058D02*
X0017632Y0080058D01*
X0017775Y0080656D02*
X0115184Y0080656D01*
X0115184Y0081255D02*
X0023960Y0081255D01*
X0023596Y0081104D02*
X0025197Y0081767D01*
X0026422Y0082992D01*
X0027084Y0084592D01*
X0027084Y0086325D01*
X0026422Y0087925D01*
X0025197Y0089150D01*
X0023596Y0089813D01*
X0021864Y0089813D01*
X0020264Y0089150D01*
X0019039Y0087925D01*
X0018376Y0086325D01*
X0018376Y0084592D01*
X0019039Y0082992D01*
X0020264Y0081767D01*
X0021864Y0081104D01*
X0023596Y0081104D01*
X0025283Y0081853D02*
X0115184Y0081853D01*
X0115184Y0082452D02*
X0025881Y0082452D01*
X0026446Y0083050D02*
X0115184Y0083050D01*
X0115184Y0083649D02*
X0026694Y0083649D01*
X0026941Y0084247D02*
X0115184Y0084247D01*
X0115184Y0084846D02*
X0027084Y0084846D01*
X0027084Y0085444D02*
X0115184Y0085444D01*
X0115184Y0086043D02*
X0027084Y0086043D01*
X0026953Y0086641D02*
X0115184Y0086641D01*
X0115184Y0087240D02*
X0026705Y0087240D01*
X0026457Y0087838D02*
X0115184Y0087838D01*
X0115184Y0088437D02*
X0025910Y0088437D01*
X0025311Y0089036D02*
X0115184Y0089036D01*
X0115184Y0089634D02*
X0024028Y0089634D01*
X0021432Y0089634D02*
X0006418Y0089634D01*
X0006339Y0090233D02*
X0115184Y0090233D01*
X0115184Y0090831D02*
X0006313Y0090831D01*
X0006314Y0091430D02*
X0115184Y0091430D01*
X0115184Y0092028D02*
X0006314Y0092028D01*
X0006315Y0092627D02*
X0115184Y0092627D01*
X0115184Y0093225D02*
X0006316Y0093225D01*
X0006317Y0093824D02*
X0115184Y0093824D01*
X0115184Y0094422D02*
X0006318Y0094422D01*
X0006318Y0095021D02*
X0115184Y0095021D01*
X0115184Y0095619D02*
X0006319Y0095619D01*
X0006320Y0096218D02*
X0115184Y0096218D01*
X0115184Y0096816D02*
X0006321Y0096816D01*
X0006322Y0097415D02*
X0115184Y0097415D01*
X0115184Y0098013D02*
X0006323Y0098013D01*
X0006323Y0098612D02*
X0115184Y0098612D01*
X0115184Y0099210D02*
X0006324Y0099210D01*
X0006325Y0099809D02*
X0115184Y0099809D01*
X0115184Y0100407D02*
X0006326Y0100407D01*
X0006382Y0101006D02*
X0021341Y0101006D01*
X0021864Y0100789D02*
X0023596Y0100789D01*
X0025197Y0101452D01*
X0026422Y0102677D01*
X0027084Y0104277D01*
X0027084Y0106010D01*
X0026422Y0107610D01*
X0025197Y0108835D01*
X0023596Y0109498D01*
X0021864Y0109498D01*
X0020264Y0108835D01*
X0019039Y0107610D01*
X0018376Y0106010D01*
X0018376Y0104277D01*
X0019039Y0102677D01*
X0020264Y0101452D01*
X0021864Y0100789D01*
X0020112Y0101604D02*
X0006463Y0101604D01*
X0006545Y0102203D02*
X0019513Y0102203D01*
X0018987Y0102801D02*
X0006626Y0102801D01*
X0006708Y0103400D02*
X0018739Y0103400D01*
X0018491Y0103998D02*
X0014511Y0103998D01*
X0015564Y0104597D02*
X0018376Y0104597D01*
X0018376Y0105195D02*
X0016162Y0105195D01*
X0016761Y0105794D02*
X0018376Y0105794D01*
X0018534Y0106392D02*
X0017073Y0106392D01*
X0017321Y0106991D02*
X0018782Y0106991D01*
X0019030Y0107589D02*
X0017569Y0107589D01*
X0017729Y0108188D02*
X0019616Y0108188D01*
X0020215Y0108786D02*
X0017729Y0108786D01*
X0017729Y0109385D02*
X0021591Y0109385D01*
X0023869Y0109385D02*
X0114234Y0109385D01*
X0114234Y0109983D02*
X0017729Y0109983D01*
X0017577Y0110582D02*
X0114366Y0110582D01*
X0114614Y0111180D02*
X0017329Y0111180D01*
X0017082Y0111779D02*
X0115137Y0111779D01*
X0116111Y0112377D02*
X0016781Y0112377D01*
X0016182Y0112976D02*
X0118224Y0112976D01*
X0118229Y0113574D02*
X0015584Y0113574D01*
X0014559Y0114173D02*
X0118233Y0114173D01*
X0118238Y0114771D02*
X0008828Y0114771D01*
X0008663Y0114173D02*
X0009631Y0114173D01*
X0008607Y0113574D02*
X0008498Y0113574D01*
X0008993Y0115370D02*
X0118242Y0115370D01*
X0118247Y0115969D02*
X0009158Y0115969D01*
X0009323Y0116567D02*
X0118251Y0116567D01*
X0118256Y0117166D02*
X0009488Y0117166D01*
X0009653Y0117764D02*
X0118260Y0117764D01*
X0118265Y0118363D02*
X0009818Y0118363D01*
X0009983Y0118961D02*
X0118269Y0118961D01*
X0118274Y0119560D02*
X0010148Y0119560D01*
X0010313Y0120158D02*
X0118279Y0120158D01*
X0118283Y0120757D02*
X0010522Y0120757D01*
X0010777Y0121355D02*
X0118288Y0121355D01*
X0118292Y0121954D02*
X0011032Y0121954D01*
X0011287Y0122552D02*
X0118297Y0122552D01*
X0118301Y0123151D02*
X0011542Y0123151D01*
X0011797Y0123749D02*
X0118306Y0123749D01*
X0118310Y0124348D02*
X0012052Y0124348D01*
X0012307Y0124946D02*
X0118315Y0124946D01*
X0118070Y0125545D02*
X0012562Y0125545D01*
X0012817Y0126143D02*
X0117674Y0126143D01*
X0117426Y0126742D02*
X0013072Y0126742D01*
X0013327Y0127340D02*
X0117384Y0127340D01*
X0117384Y0127939D02*
X0013582Y0127939D01*
X0013837Y0128537D02*
X0117615Y0128537D01*
X0117927Y0129136D02*
X0014092Y0129136D01*
X0014347Y0129734D02*
X0118525Y0129734D01*
X0121942Y0129734D02*
X0154071Y0129734D01*
X0154324Y0129136D02*
X0122540Y0129136D01*
X0122852Y0128537D02*
X0154576Y0128537D01*
X0154829Y0127939D02*
X0123084Y0127939D01*
X0123084Y0127340D02*
X0155081Y0127340D01*
X0155334Y0126742D02*
X0123041Y0126742D01*
X0122793Y0126143D02*
X0155586Y0126143D01*
X0155839Y0125545D02*
X0122397Y0125545D01*
X0122115Y0124946D02*
X0156091Y0124946D01*
X0156344Y0124348D02*
X0122110Y0124348D01*
X0122106Y0123749D02*
X0156596Y0123749D01*
X0156849Y0123151D02*
X0122101Y0123151D01*
X0122097Y0122552D02*
X0157101Y0122552D01*
X0157354Y0121954D02*
X0122092Y0121954D01*
X0122088Y0121355D02*
X0157606Y0121355D01*
X0157824Y0120757D02*
X0122083Y0120757D01*
X0122079Y0120158D02*
X0157987Y0120158D01*
X0158150Y0119560D02*
X0122074Y0119560D01*
X0122070Y0118961D02*
X0158313Y0118961D01*
X0158477Y0118363D02*
X0122065Y0118363D01*
X0122060Y0117764D02*
X0158640Y0117764D01*
X0158803Y0117166D02*
X0122056Y0117166D01*
X0122051Y0116567D02*
X0158966Y0116567D01*
X0159129Y0115969D02*
X0122047Y0115969D01*
X0122042Y0115370D02*
X0159292Y0115370D01*
X0159456Y0114771D02*
X0122038Y0114771D01*
X0122033Y0114173D02*
X0159619Y0114173D01*
X0159782Y0113574D02*
X0122029Y0113574D01*
X0122024Y0112976D02*
X0131491Y0112976D01*
X0130893Y0112377D02*
X0122020Y0112377D01*
X0122015Y0111779D02*
X0130596Y0111779D01*
X0130376Y0111180D02*
X0122011Y0111180D01*
X0122006Y0110582D02*
X0130376Y0110582D01*
X0130429Y0109983D02*
X0122002Y0109983D01*
X0121997Y0109385D02*
X0130677Y0109385D01*
X0131089Y0108786D02*
X0121992Y0108786D01*
X0121988Y0108188D02*
X0131794Y0108188D01*
X0133346Y0107589D02*
X0121983Y0107589D01*
X0121979Y0106991D02*
X0133945Y0106991D01*
X0118220Y0112377D02*
X0118057Y0112377D01*
X0114624Y0108188D02*
X0025844Y0108188D01*
X0026430Y0107589D02*
X0115160Y0107589D01*
X0115184Y0106991D02*
X0026678Y0106991D01*
X0026926Y0106392D02*
X0115184Y0106392D01*
X0115184Y0105794D02*
X0027084Y0105794D01*
X0027084Y0105195D02*
X0115184Y0105195D01*
X0115184Y0104597D02*
X0027084Y0104597D01*
X0026969Y0103998D02*
X0115184Y0103998D01*
X0115184Y0103400D02*
X0026721Y0103400D01*
X0026473Y0102801D02*
X0115184Y0102801D01*
X0115184Y0102203D02*
X0025947Y0102203D01*
X0025349Y0101604D02*
X0115184Y0101604D01*
X0115184Y0101006D02*
X0024119Y0101006D01*
X0025245Y0108786D02*
X0114376Y0108786D01*
X0128857Y0080656D02*
X0136254Y0080656D01*
X0135656Y0080058D02*
X0129615Y0080058D01*
X0141425Y0070482D02*
X0157608Y0070482D01*
X0157356Y0069883D02*
X0141425Y0069883D01*
X0141425Y0069285D02*
X0157103Y0069285D01*
X0156851Y0068686D02*
X0141425Y0068686D01*
X0141425Y0068088D02*
X0156598Y0068088D01*
X0156346Y0067489D02*
X0141425Y0067489D01*
X0141425Y0066891D02*
X0156093Y0066891D01*
X0155841Y0066292D02*
X0141425Y0066292D01*
X0141425Y0065694D02*
X0155588Y0065694D01*
X0155336Y0065095D02*
X0141425Y0065095D01*
X0141425Y0064497D02*
X0155083Y0064497D01*
X0154831Y0063898D02*
X0141425Y0063898D01*
X0141920Y0063300D02*
X0154578Y0063300D01*
X0154326Y0062701D02*
X0142180Y0062701D01*
X0142375Y0062102D02*
X0154073Y0062102D01*
X0153821Y0061504D02*
X0142375Y0061504D01*
X0142295Y0060905D02*
X0153480Y0060905D01*
X0153127Y0060307D02*
X0142048Y0060307D01*
X0141600Y0059708D02*
X0152775Y0059708D01*
X0152422Y0059110D02*
X0141385Y0059110D01*
X0141959Y0058511D02*
X0152070Y0058511D01*
X0151717Y0057913D02*
X0142207Y0057913D01*
X0142375Y0057314D02*
X0151365Y0057314D01*
X0151012Y0056716D02*
X0142375Y0056716D01*
X0142269Y0056117D02*
X0150660Y0056117D01*
X0150307Y0055519D02*
X0142021Y0055519D01*
X0141536Y0054920D02*
X0149955Y0054920D01*
X0149602Y0054322D02*
X0140652Y0054322D01*
X0145697Y0080058D02*
X0150826Y0080058D01*
X0150227Y0080656D02*
X0146295Y0080656D01*
X0146894Y0081255D02*
X0149629Y0081255D01*
X0149030Y0081853D02*
X0147492Y0081853D01*
X0148091Y0082452D02*
X0148432Y0082452D01*
X0115184Y0077065D02*
X0015650Y0077065D01*
X0014653Y0076467D02*
X0115184Y0076467D01*
X0115184Y0075868D02*
X0008879Y0075868D01*
X0009042Y0075270D02*
X0115184Y0075270D01*
X0115184Y0074671D02*
X0009205Y0074671D01*
X0009368Y0074073D02*
X0115184Y0074073D01*
X0115184Y0073474D02*
X0009532Y0073474D01*
X0009695Y0072876D02*
X0115184Y0072876D01*
X0115595Y0072277D02*
X0009858Y0072277D01*
X0010021Y0071679D02*
X0116193Y0071679D01*
X0153819Y0130333D02*
X0014667Y0130333D01*
X0014997Y0130931D02*
X0153477Y0130931D01*
X0153125Y0131530D02*
X0015326Y0131530D01*
X0015655Y0132128D02*
X0152772Y0132128D01*
X0152420Y0132727D02*
X0015985Y0132727D01*
X0016314Y0133325D02*
X0152067Y0133325D01*
X0151714Y0133924D02*
X0016644Y0133924D01*
X0017176Y0134522D02*
X0151362Y0134522D01*
X0151009Y0135121D02*
X0017774Y0135121D01*
X0018373Y0135719D02*
X0150657Y0135719D01*
X0150304Y0136318D02*
X0018971Y0136318D01*
X0019570Y0136916D02*
X0149952Y0136916D01*
X0149599Y0137515D02*
X0033395Y0137515D01*
X0033499Y0137558D02*
X0034504Y0138563D01*
X0035048Y0139876D01*
X0035048Y0141296D01*
X0034504Y0142609D01*
X0033499Y0143614D01*
X0032187Y0144158D01*
X0030766Y0144158D01*
X0029453Y0143614D01*
X0028448Y0142609D01*
X0027904Y0141296D01*
X0027904Y0139876D01*
X0028448Y0138563D01*
X0029453Y0137558D01*
X0030766Y0137014D01*
X0032187Y0137014D01*
X0033499Y0137558D01*
X0034055Y0138113D02*
X0149247Y0138113D01*
X0148894Y0138712D02*
X0034566Y0138712D01*
X0034814Y0139310D02*
X0148519Y0139310D01*
X0148049Y0139909D02*
X0035048Y0139909D01*
X0035048Y0140507D02*
X0147580Y0140507D01*
X0147110Y0141106D02*
X0035048Y0141106D01*
X0034879Y0141705D02*
X0146640Y0141705D01*
X0146171Y0142303D02*
X0034631Y0142303D01*
X0034212Y0142902D02*
X0145701Y0142902D01*
X0145231Y0143500D02*
X0033613Y0143500D01*
X0032329Y0144099D02*
X0144761Y0144099D01*
X0144292Y0144697D02*
X0027350Y0144697D01*
X0026752Y0144099D02*
X0030623Y0144099D01*
X0029339Y0143500D02*
X0026153Y0143500D01*
X0025555Y0142902D02*
X0028741Y0142902D01*
X0028321Y0142303D02*
X0024956Y0142303D01*
X0024358Y0141705D02*
X0028073Y0141705D01*
X0027904Y0141106D02*
X0023759Y0141106D01*
X0023161Y0140507D02*
X0027904Y0140507D01*
X0027904Y0139909D02*
X0022562Y0139909D01*
X0021964Y0139310D02*
X0028138Y0139310D01*
X0028386Y0138712D02*
X0021365Y0138712D01*
X0020767Y0138113D02*
X0028898Y0138113D01*
X0029557Y0137515D02*
X0020168Y0137515D01*
X0027949Y0145296D02*
X0143822Y0145296D01*
X0143352Y0145894D02*
X0041813Y0145894D01*
X0041851Y0145910D02*
X0042856Y0146914D01*
X0043399Y0148227D01*
X0043399Y0149648D01*
X0042856Y0150961D01*
X0041851Y0151966D01*
X0040538Y0152509D01*
X0039117Y0152509D01*
X0037805Y0151966D01*
X0036800Y0150961D01*
X0036256Y0149648D01*
X0036256Y0148227D01*
X0036800Y0146914D01*
X0037805Y0145910D01*
X0039117Y0145366D01*
X0040538Y0145366D01*
X0041851Y0145910D01*
X0042434Y0146493D02*
X0142883Y0146493D01*
X0142413Y0147091D02*
X0042929Y0147091D01*
X0043177Y0147690D02*
X0141831Y0147690D01*
X0141217Y0148288D02*
X0043399Y0148288D01*
X0043399Y0148887D02*
X0140603Y0148887D01*
X0139988Y0149485D02*
X0043399Y0149485D01*
X0043219Y0150084D02*
X0139374Y0150084D01*
X0138760Y0150682D02*
X0042971Y0150682D01*
X0042536Y0151281D02*
X0081745Y0151281D01*
X0079701Y0151879D02*
X0041937Y0151879D01*
X0040614Y0152478D02*
X0078664Y0152478D01*
X0077627Y0153076D02*
X0035730Y0153076D01*
X0036328Y0153675D02*
X0076837Y0153675D01*
X0076239Y0154273D02*
X0036927Y0154273D01*
X0037525Y0154872D02*
X0075640Y0154872D01*
X0075042Y0155470D02*
X0038124Y0155470D01*
X0038722Y0156069D02*
X0074669Y0156069D01*
X0074323Y0156667D02*
X0059485Y0156667D01*
X0060040Y0156897D02*
X0061503Y0158360D01*
X0062295Y0160271D01*
X0062295Y0162004D01*
X0062672Y0161485D01*
X0063228Y0160928D01*
X0063865Y0160466D01*
X0064566Y0160109D01*
X0065315Y0159865D01*
X0066092Y0159742D01*
X0066879Y0159742D01*
X0067656Y0159865D01*
X0067919Y0159951D01*
X0066307Y0164357D01*
X0066870Y0164564D01*
X0066664Y0165127D01*
X0066101Y0164921D01*
X0064485Y0169335D01*
X0063865Y0169019D01*
X0063228Y0168556D01*
X0062672Y0168000D01*
X0062209Y0167363D01*
X0061852Y0166662D01*
X0061609Y0165913D01*
X0061486Y0165136D01*
X0061486Y0164349D01*
X0061501Y0164254D01*
X0060040Y0165714D01*
X0058129Y0166506D01*
X0056060Y0166506D01*
X0054149Y0165714D01*
X0052686Y0164251D01*
X0051895Y0162340D01*
X0051895Y0160271D01*
X0052686Y0158360D01*
X0054149Y0156897D01*
X0056060Y0156106D01*
X0058129Y0156106D01*
X0060040Y0156897D01*
X0060409Y0157266D02*
X0073978Y0157266D01*
X0073632Y0157864D02*
X0061007Y0157864D01*
X0061545Y0158463D02*
X0073360Y0158463D01*
X0073200Y0159061D02*
X0061793Y0159061D01*
X0062041Y0159660D02*
X0073039Y0159660D01*
X0072879Y0160258D02*
X0068699Y0160258D01*
X0068486Y0160150D02*
X0069106Y0160466D01*
X0069743Y0160928D01*
X0070299Y0161485D01*
X0070762Y0162122D01*
X0071119Y0162823D01*
X0071362Y0163571D01*
X0071486Y0164349D01*
X0071486Y0165136D01*
X0071362Y0165913D01*
X0071277Y0166176D01*
X0066870Y0164564D01*
X0068486Y0160150D01*
X0068446Y0160258D02*
X0067807Y0160258D01*
X0067588Y0160857D02*
X0068227Y0160857D01*
X0068008Y0161455D02*
X0067369Y0161455D01*
X0067150Y0162054D02*
X0067789Y0162054D01*
X0067570Y0162652D02*
X0066931Y0162652D01*
X0066712Y0163251D02*
X0067351Y0163251D01*
X0067132Y0163849D02*
X0066493Y0163849D01*
X0066554Y0164448D02*
X0066913Y0164448D01*
X0066694Y0165046D02*
X0068190Y0165046D01*
X0068079Y0165645D02*
X0069825Y0165645D01*
X0069715Y0166243D02*
X0073131Y0166243D01*
X0072971Y0165645D02*
X0071405Y0165645D01*
X0071486Y0165046D02*
X0072811Y0165046D01*
X0072650Y0164448D02*
X0071486Y0164448D01*
X0071406Y0163849D02*
X0072620Y0163849D01*
X0072620Y0163251D02*
X0071258Y0163251D01*
X0071032Y0162652D02*
X0072620Y0162652D01*
X0072620Y0162054D02*
X0070713Y0162054D01*
X0070270Y0161455D02*
X0072620Y0161455D01*
X0072719Y0160857D02*
X0069644Y0160857D01*
X0066664Y0165127D02*
X0071078Y0166742D01*
X0070762Y0167363D01*
X0070299Y0168000D01*
X0069743Y0168556D01*
X0069106Y0169019D01*
X0068405Y0169376D01*
X0067656Y0169619D01*
X0066879Y0169742D01*
X0066092Y0169742D01*
X0065315Y0169619D01*
X0065052Y0169534D01*
X0066664Y0165127D01*
X0066444Y0165046D02*
X0066055Y0165046D01*
X0065836Y0165645D02*
X0066475Y0165645D01*
X0066256Y0166243D02*
X0065617Y0166243D01*
X0065398Y0166842D02*
X0066037Y0166842D01*
X0065818Y0167440D02*
X0065179Y0167440D01*
X0064960Y0168039D02*
X0065599Y0168039D01*
X0065380Y0168638D02*
X0064741Y0168638D01*
X0064522Y0169236D02*
X0065160Y0169236D01*
X0064292Y0169236D02*
X0058657Y0169236D01*
X0057264Y0168638D02*
X0063340Y0168638D01*
X0062711Y0168039D02*
X0055871Y0168039D01*
X0054478Y0167440D02*
X0062266Y0167440D01*
X0061944Y0166842D02*
X0053085Y0166842D01*
X0051692Y0166243D02*
X0055427Y0166243D01*
X0054080Y0165645D02*
X0050299Y0165645D01*
X0049170Y0165046D02*
X0053481Y0165046D01*
X0052883Y0164448D02*
X0048093Y0164448D01*
X0047016Y0163849D02*
X0052520Y0163849D01*
X0052272Y0163251D02*
X0045939Y0163251D01*
X0045306Y0162652D02*
X0052024Y0162652D01*
X0051895Y0162054D02*
X0044707Y0162054D01*
X0044109Y0161455D02*
X0051895Y0161455D01*
X0051895Y0160857D02*
X0043510Y0160857D01*
X0042912Y0160258D02*
X0051900Y0160258D01*
X0052148Y0159660D02*
X0042313Y0159660D01*
X0041715Y0159061D02*
X0052396Y0159061D01*
X0052644Y0158463D02*
X0041116Y0158463D01*
X0040518Y0157864D02*
X0053182Y0157864D01*
X0053781Y0157266D02*
X0039919Y0157266D01*
X0039321Y0156667D02*
X0054704Y0156667D01*
X0062289Y0160258D02*
X0064272Y0160258D01*
X0063327Y0160857D02*
X0062295Y0160857D01*
X0062295Y0161455D02*
X0062701Y0161455D01*
X0061486Y0164448D02*
X0061306Y0164448D01*
X0061486Y0165046D02*
X0060708Y0165046D01*
X0060109Y0165645D02*
X0061566Y0165645D01*
X0061716Y0166243D02*
X0058762Y0166243D01*
X0060454Y0169835D02*
X0074867Y0169835D01*
X0074521Y0169236D02*
X0068680Y0169236D01*
X0069631Y0168638D02*
X0074176Y0168638D01*
X0073830Y0168039D02*
X0070260Y0168039D01*
X0070706Y0167440D02*
X0073485Y0167440D01*
X0073292Y0166842D02*
X0071027Y0166842D01*
X0075385Y0170433D02*
X0062612Y0170433D01*
X0064770Y0171032D02*
X0075983Y0171032D01*
X0076582Y0171630D02*
X0066928Y0171630D01*
X0069163Y0172229D02*
X0077185Y0172229D01*
X0078221Y0172827D02*
X0073561Y0172827D01*
X0077959Y0173426D02*
X0079258Y0173426D01*
X0089581Y0173426D02*
X0090068Y0173426D01*
X0090618Y0172827D02*
X0094465Y0172827D01*
X0092856Y0171032D02*
X0103256Y0171032D01*
X0101098Y0171630D02*
X0092257Y0171630D01*
X0091655Y0172229D02*
X0098863Y0172229D01*
X0094318Y0169236D02*
X0109369Y0169236D01*
X0110762Y0168638D02*
X0094663Y0168638D01*
X0095009Y0168039D02*
X0112155Y0168039D01*
X0113548Y0167440D02*
X0095354Y0167440D01*
X0095547Y0166842D02*
X0114941Y0166842D01*
X0116334Y0166243D02*
X0095708Y0166243D01*
X0095868Y0165645D02*
X0117727Y0165645D01*
X0118856Y0165046D02*
X0096029Y0165046D01*
X0096189Y0164448D02*
X0119933Y0164448D01*
X0121010Y0163849D02*
X0096220Y0163849D01*
X0096220Y0163251D02*
X0122084Y0163251D01*
X0123108Y0162652D02*
X0096220Y0162652D01*
X0096220Y0162054D02*
X0124108Y0162054D01*
X0125107Y0161455D02*
X0096220Y0161455D01*
X0096120Y0160857D02*
X0126107Y0160857D01*
X0127047Y0160258D02*
X0095960Y0160258D01*
X0095800Y0159660D02*
X0127852Y0159660D01*
X0128657Y0159061D02*
X0095639Y0159061D01*
X0095479Y0158463D02*
X0129462Y0158463D01*
X0130267Y0157864D02*
X0095207Y0157864D01*
X0094861Y0157266D02*
X0131073Y0157266D01*
X0131878Y0156667D02*
X0094516Y0156667D01*
X0094170Y0156069D02*
X0132683Y0156069D01*
X0133488Y0155470D02*
X0093797Y0155470D01*
X0093199Y0154872D02*
X0134293Y0154872D01*
X0135073Y0154273D02*
X0092600Y0154273D01*
X0092002Y0153675D02*
X0135688Y0153675D01*
X0136302Y0153076D02*
X0091212Y0153076D01*
X0090175Y0152478D02*
X0136916Y0152478D01*
X0137531Y0151879D02*
X0089138Y0151879D01*
X0087094Y0151281D02*
X0138145Y0151281D01*
X0107573Y0169835D02*
X0093972Y0169835D01*
X0093454Y0170433D02*
X0105414Y0170433D01*
X0039041Y0152478D02*
X0035131Y0152478D01*
X0034533Y0151879D02*
X0037718Y0151879D01*
X0037120Y0151281D02*
X0033934Y0151281D01*
X0033335Y0150682D02*
X0036684Y0150682D01*
X0036437Y0150084D02*
X0032737Y0150084D01*
X0032138Y0149485D02*
X0036256Y0149485D01*
X0036256Y0148887D02*
X0031540Y0148887D01*
X0030941Y0148288D02*
X0036256Y0148288D01*
X0036479Y0147690D02*
X0030343Y0147690D01*
X0029744Y0147091D02*
X0036727Y0147091D01*
X0037222Y0146493D02*
X0029146Y0146493D01*
X0028547Y0145894D02*
X0037842Y0145894D01*
X0007117Y0106392D02*
X0007115Y0106392D01*
X0007033Y0105794D02*
X0007429Y0105794D01*
X0006952Y0105195D02*
X0008028Y0105195D01*
X0008626Y0104597D02*
X0006870Y0104597D01*
X0006789Y0103998D02*
X0009679Y0103998D01*
X0006498Y0089036D02*
X0020149Y0089036D01*
X0019551Y0088437D02*
X0006578Y0088437D01*
X0006658Y0087838D02*
X0019003Y0087838D01*
X0018755Y0087240D02*
X0006737Y0087240D01*
X0006817Y0086641D02*
X0009773Y0086641D01*
X0008692Y0086043D02*
X0006897Y0086043D01*
X0006977Y0085444D02*
X0008094Y0085444D01*
X0007495Y0084846D02*
X0007056Y0084846D01*
X0007136Y0084247D02*
X0007171Y0084247D01*
X0008552Y0077065D02*
X0008633Y0077065D01*
X0008715Y0076467D02*
X0009629Y0076467D01*
X0017775Y0081255D02*
X0021500Y0081255D01*
X0020177Y0081853D02*
X0017775Y0081853D01*
X0017775Y0082452D02*
X0019579Y0082452D01*
X0019014Y0083050D02*
X0017607Y0083050D01*
X0017359Y0083649D02*
X0018767Y0083649D01*
X0018519Y0084247D02*
X0017111Y0084247D01*
X0016787Y0084846D02*
X0018376Y0084846D01*
X0018376Y0085444D02*
X0016188Y0085444D01*
X0015590Y0086043D02*
X0018376Y0086043D01*
X0018507Y0086641D02*
X0014509Y0086641D01*
D15*
X0033619Y0107727D03*
X0023777Y0115995D03*
X0055273Y0107727D03*
X0060785Y0128593D03*
X0074171Y0128593D03*
X0086769Y0128593D03*
X0086769Y0141192D03*
X0074171Y0141192D03*
X0074171Y0153790D03*
X0099367Y0153790D03*
X0099367Y0166388D03*
X0111966Y0166388D03*
X0111966Y0141192D03*
X0124564Y0141192D03*
X0120234Y0127412D03*
X0133226Y0110680D03*
X0149761Y0115995D03*
X0149761Y0128593D03*
X0117084Y0109696D03*
X0111966Y0103396D03*
X0111966Y0090798D03*
X0099367Y0090798D03*
X0086769Y0090798D03*
X0086769Y0103396D03*
X0074171Y0090798D03*
X0074171Y0078199D03*
X0074171Y0065601D03*
X0086769Y0078199D03*
X0099367Y0103396D03*
X0127515Y0078128D03*
X0139525Y0061664D03*
X0139525Y0056940D03*
X0134407Y0053790D03*
X0144643Y0071113D03*
X0113541Y0051034D03*
X0109604Y0051034D03*
X0061572Y0053003D03*
X0061572Y0065601D03*
X0061572Y0078199D03*
X0048974Y0053003D03*
X0023777Y0053003D03*
X0023777Y0065601D03*
D16*
X0133226Y0110680D02*
X0136671Y0107235D01*
X0136671Y0091487D01*
X0143068Y0085089D01*
X0143261Y0084976D01*
D17*
X0136413Y0078128D01*
X0127515Y0078128D01*
X0119840Y0075444D02*
X0139525Y0075444D01*
X0139525Y0061664D01*
X0139525Y0056940D02*
X0135194Y0056940D01*
X0135194Y0073475D01*
X0117084Y0073475D01*
X0117084Y0109696D01*
X0117015Y0109696D01*
X0120234Y0127412D02*
X0119840Y0075444D01*
M02*
