G75*
%MOIN*%
%OFA0B0*%
%FSLAX25Y25*%
%IPPOS*%
%LPD*%
%AMOC8*
5,1,8,0,0,1.08239X$1,22.5*
%
%ADD10C,0.00000*%
%ADD11C,0.00394*%
D10*
X0029704Y0140586D02*
X0029706Y0140670D01*
X0029712Y0140753D01*
X0029722Y0140836D01*
X0029736Y0140919D01*
X0029753Y0141001D01*
X0029775Y0141082D01*
X0029800Y0141161D01*
X0029829Y0141240D01*
X0029862Y0141317D01*
X0029898Y0141392D01*
X0029938Y0141466D01*
X0029981Y0141538D01*
X0030028Y0141607D01*
X0030078Y0141674D01*
X0030131Y0141739D01*
X0030187Y0141801D01*
X0030245Y0141861D01*
X0030307Y0141918D01*
X0030371Y0141971D01*
X0030438Y0142022D01*
X0030507Y0142069D01*
X0030578Y0142114D01*
X0030651Y0142154D01*
X0030726Y0142191D01*
X0030803Y0142225D01*
X0030881Y0142255D01*
X0030960Y0142281D01*
X0031041Y0142304D01*
X0031123Y0142322D01*
X0031205Y0142337D01*
X0031288Y0142348D01*
X0031371Y0142355D01*
X0031455Y0142358D01*
X0031539Y0142357D01*
X0031622Y0142352D01*
X0031706Y0142343D01*
X0031788Y0142330D01*
X0031870Y0142314D01*
X0031951Y0142293D01*
X0032032Y0142269D01*
X0032110Y0142241D01*
X0032188Y0142209D01*
X0032264Y0142173D01*
X0032338Y0142134D01*
X0032410Y0142092D01*
X0032480Y0142046D01*
X0032548Y0141997D01*
X0032613Y0141945D01*
X0032676Y0141890D01*
X0032736Y0141832D01*
X0032794Y0141771D01*
X0032848Y0141707D01*
X0032900Y0141641D01*
X0032948Y0141573D01*
X0032993Y0141502D01*
X0033034Y0141429D01*
X0033073Y0141355D01*
X0033107Y0141279D01*
X0033138Y0141201D01*
X0033165Y0141122D01*
X0033189Y0141041D01*
X0033208Y0140960D01*
X0033224Y0140878D01*
X0033236Y0140795D01*
X0033244Y0140711D01*
X0033248Y0140628D01*
X0033248Y0140544D01*
X0033244Y0140461D01*
X0033236Y0140377D01*
X0033224Y0140294D01*
X0033208Y0140212D01*
X0033189Y0140131D01*
X0033165Y0140050D01*
X0033138Y0139971D01*
X0033107Y0139893D01*
X0033073Y0139817D01*
X0033034Y0139743D01*
X0032993Y0139670D01*
X0032948Y0139599D01*
X0032900Y0139531D01*
X0032848Y0139465D01*
X0032794Y0139401D01*
X0032736Y0139340D01*
X0032676Y0139282D01*
X0032613Y0139227D01*
X0032548Y0139175D01*
X0032480Y0139126D01*
X0032410Y0139080D01*
X0032338Y0139038D01*
X0032264Y0138999D01*
X0032188Y0138963D01*
X0032110Y0138931D01*
X0032032Y0138903D01*
X0031951Y0138879D01*
X0031870Y0138858D01*
X0031788Y0138842D01*
X0031706Y0138829D01*
X0031622Y0138820D01*
X0031539Y0138815D01*
X0031455Y0138814D01*
X0031371Y0138817D01*
X0031288Y0138824D01*
X0031205Y0138835D01*
X0031123Y0138850D01*
X0031041Y0138868D01*
X0030960Y0138891D01*
X0030881Y0138917D01*
X0030803Y0138947D01*
X0030726Y0138981D01*
X0030651Y0139018D01*
X0030578Y0139058D01*
X0030507Y0139103D01*
X0030438Y0139150D01*
X0030371Y0139201D01*
X0030307Y0139254D01*
X0030245Y0139311D01*
X0030187Y0139371D01*
X0030131Y0139433D01*
X0030078Y0139498D01*
X0030028Y0139565D01*
X0029981Y0139634D01*
X0029938Y0139706D01*
X0029898Y0139780D01*
X0029862Y0139855D01*
X0029829Y0139932D01*
X0029800Y0140011D01*
X0029775Y0140090D01*
X0029753Y0140171D01*
X0029736Y0140253D01*
X0029722Y0140336D01*
X0029712Y0140419D01*
X0029706Y0140502D01*
X0029704Y0140586D01*
X0038056Y0148938D02*
X0038058Y0149022D01*
X0038064Y0149105D01*
X0038074Y0149188D01*
X0038088Y0149271D01*
X0038105Y0149353D01*
X0038127Y0149434D01*
X0038152Y0149513D01*
X0038181Y0149592D01*
X0038214Y0149669D01*
X0038250Y0149744D01*
X0038290Y0149818D01*
X0038333Y0149890D01*
X0038380Y0149959D01*
X0038430Y0150026D01*
X0038483Y0150091D01*
X0038539Y0150153D01*
X0038597Y0150213D01*
X0038659Y0150270D01*
X0038723Y0150323D01*
X0038790Y0150374D01*
X0038859Y0150421D01*
X0038930Y0150466D01*
X0039003Y0150506D01*
X0039078Y0150543D01*
X0039155Y0150577D01*
X0039233Y0150607D01*
X0039312Y0150633D01*
X0039393Y0150656D01*
X0039475Y0150674D01*
X0039557Y0150689D01*
X0039640Y0150700D01*
X0039723Y0150707D01*
X0039807Y0150710D01*
X0039891Y0150709D01*
X0039974Y0150704D01*
X0040058Y0150695D01*
X0040140Y0150682D01*
X0040222Y0150666D01*
X0040303Y0150645D01*
X0040384Y0150621D01*
X0040462Y0150593D01*
X0040540Y0150561D01*
X0040616Y0150525D01*
X0040690Y0150486D01*
X0040762Y0150444D01*
X0040832Y0150398D01*
X0040900Y0150349D01*
X0040965Y0150297D01*
X0041028Y0150242D01*
X0041088Y0150184D01*
X0041146Y0150123D01*
X0041200Y0150059D01*
X0041252Y0149993D01*
X0041300Y0149925D01*
X0041345Y0149854D01*
X0041386Y0149781D01*
X0041425Y0149707D01*
X0041459Y0149631D01*
X0041490Y0149553D01*
X0041517Y0149474D01*
X0041541Y0149393D01*
X0041560Y0149312D01*
X0041576Y0149230D01*
X0041588Y0149147D01*
X0041596Y0149063D01*
X0041600Y0148980D01*
X0041600Y0148896D01*
X0041596Y0148813D01*
X0041588Y0148729D01*
X0041576Y0148646D01*
X0041560Y0148564D01*
X0041541Y0148483D01*
X0041517Y0148402D01*
X0041490Y0148323D01*
X0041459Y0148245D01*
X0041425Y0148169D01*
X0041386Y0148095D01*
X0041345Y0148022D01*
X0041300Y0147951D01*
X0041252Y0147883D01*
X0041200Y0147817D01*
X0041146Y0147753D01*
X0041088Y0147692D01*
X0041028Y0147634D01*
X0040965Y0147579D01*
X0040900Y0147527D01*
X0040832Y0147478D01*
X0040762Y0147432D01*
X0040690Y0147390D01*
X0040616Y0147351D01*
X0040540Y0147315D01*
X0040462Y0147283D01*
X0040384Y0147255D01*
X0040303Y0147231D01*
X0040222Y0147210D01*
X0040140Y0147194D01*
X0040058Y0147181D01*
X0039974Y0147172D01*
X0039891Y0147167D01*
X0039807Y0147166D01*
X0039723Y0147169D01*
X0039640Y0147176D01*
X0039557Y0147187D01*
X0039475Y0147202D01*
X0039393Y0147220D01*
X0039312Y0147243D01*
X0039233Y0147269D01*
X0039155Y0147299D01*
X0039078Y0147333D01*
X0039003Y0147370D01*
X0038930Y0147410D01*
X0038859Y0147455D01*
X0038790Y0147502D01*
X0038723Y0147553D01*
X0038659Y0147606D01*
X0038597Y0147663D01*
X0038539Y0147723D01*
X0038483Y0147785D01*
X0038430Y0147850D01*
X0038380Y0147917D01*
X0038333Y0147986D01*
X0038290Y0148058D01*
X0038250Y0148132D01*
X0038214Y0148207D01*
X0038181Y0148284D01*
X0038152Y0148363D01*
X0038127Y0148442D01*
X0038105Y0148523D01*
X0038088Y0148605D01*
X0038074Y0148688D01*
X0038064Y0148771D01*
X0038058Y0148854D01*
X0038056Y0148938D01*
X0074420Y0162780D02*
X0074423Y0163025D01*
X0074432Y0163271D01*
X0074447Y0163516D01*
X0074468Y0163760D01*
X0074495Y0164004D01*
X0074528Y0164247D01*
X0074567Y0164490D01*
X0074612Y0164731D01*
X0074663Y0164971D01*
X0074720Y0165210D01*
X0074782Y0165447D01*
X0074851Y0165683D01*
X0074925Y0165917D01*
X0075005Y0166149D01*
X0075090Y0166379D01*
X0075181Y0166607D01*
X0075278Y0166832D01*
X0075380Y0167056D01*
X0075488Y0167276D01*
X0075601Y0167494D01*
X0075719Y0167709D01*
X0075843Y0167921D01*
X0075971Y0168130D01*
X0076105Y0168336D01*
X0076244Y0168538D01*
X0076388Y0168737D01*
X0076537Y0168932D01*
X0076690Y0169124D01*
X0076848Y0169312D01*
X0077010Y0169496D01*
X0077178Y0169675D01*
X0077349Y0169851D01*
X0077525Y0170022D01*
X0077704Y0170190D01*
X0077888Y0170352D01*
X0078076Y0170510D01*
X0078268Y0170663D01*
X0078463Y0170812D01*
X0078662Y0170956D01*
X0078864Y0171095D01*
X0079070Y0171229D01*
X0079279Y0171357D01*
X0079491Y0171481D01*
X0079706Y0171599D01*
X0079924Y0171712D01*
X0080144Y0171820D01*
X0080368Y0171922D01*
X0080593Y0172019D01*
X0080821Y0172110D01*
X0081051Y0172195D01*
X0081283Y0172275D01*
X0081517Y0172349D01*
X0081753Y0172418D01*
X0081990Y0172480D01*
X0082229Y0172537D01*
X0082469Y0172588D01*
X0082710Y0172633D01*
X0082953Y0172672D01*
X0083196Y0172705D01*
X0083440Y0172732D01*
X0083684Y0172753D01*
X0083929Y0172768D01*
X0084175Y0172777D01*
X0084420Y0172780D01*
X0084665Y0172777D01*
X0084911Y0172768D01*
X0085156Y0172753D01*
X0085400Y0172732D01*
X0085644Y0172705D01*
X0085887Y0172672D01*
X0086130Y0172633D01*
X0086371Y0172588D01*
X0086611Y0172537D01*
X0086850Y0172480D01*
X0087087Y0172418D01*
X0087323Y0172349D01*
X0087557Y0172275D01*
X0087789Y0172195D01*
X0088019Y0172110D01*
X0088247Y0172019D01*
X0088472Y0171922D01*
X0088696Y0171820D01*
X0088916Y0171712D01*
X0089134Y0171599D01*
X0089349Y0171481D01*
X0089561Y0171357D01*
X0089770Y0171229D01*
X0089976Y0171095D01*
X0090178Y0170956D01*
X0090377Y0170812D01*
X0090572Y0170663D01*
X0090764Y0170510D01*
X0090952Y0170352D01*
X0091136Y0170190D01*
X0091315Y0170022D01*
X0091491Y0169851D01*
X0091662Y0169675D01*
X0091830Y0169496D01*
X0091992Y0169312D01*
X0092150Y0169124D01*
X0092303Y0168932D01*
X0092452Y0168737D01*
X0092596Y0168538D01*
X0092735Y0168336D01*
X0092869Y0168130D01*
X0092997Y0167921D01*
X0093121Y0167709D01*
X0093239Y0167494D01*
X0093352Y0167276D01*
X0093460Y0167056D01*
X0093562Y0166832D01*
X0093659Y0166607D01*
X0093750Y0166379D01*
X0093835Y0166149D01*
X0093915Y0165917D01*
X0093989Y0165683D01*
X0094058Y0165447D01*
X0094120Y0165210D01*
X0094177Y0164971D01*
X0094228Y0164731D01*
X0094273Y0164490D01*
X0094312Y0164247D01*
X0094345Y0164004D01*
X0094372Y0163760D01*
X0094393Y0163516D01*
X0094408Y0163271D01*
X0094417Y0163025D01*
X0094420Y0162780D01*
X0094417Y0162535D01*
X0094408Y0162289D01*
X0094393Y0162044D01*
X0094372Y0161800D01*
X0094345Y0161556D01*
X0094312Y0161313D01*
X0094273Y0161070D01*
X0094228Y0160829D01*
X0094177Y0160589D01*
X0094120Y0160350D01*
X0094058Y0160113D01*
X0093989Y0159877D01*
X0093915Y0159643D01*
X0093835Y0159411D01*
X0093750Y0159181D01*
X0093659Y0158953D01*
X0093562Y0158728D01*
X0093460Y0158504D01*
X0093352Y0158284D01*
X0093239Y0158066D01*
X0093121Y0157851D01*
X0092997Y0157639D01*
X0092869Y0157430D01*
X0092735Y0157224D01*
X0092596Y0157022D01*
X0092452Y0156823D01*
X0092303Y0156628D01*
X0092150Y0156436D01*
X0091992Y0156248D01*
X0091830Y0156064D01*
X0091662Y0155885D01*
X0091491Y0155709D01*
X0091315Y0155538D01*
X0091136Y0155370D01*
X0090952Y0155208D01*
X0090764Y0155050D01*
X0090572Y0154897D01*
X0090377Y0154748D01*
X0090178Y0154604D01*
X0089976Y0154465D01*
X0089770Y0154331D01*
X0089561Y0154203D01*
X0089349Y0154079D01*
X0089134Y0153961D01*
X0088916Y0153848D01*
X0088696Y0153740D01*
X0088472Y0153638D01*
X0088247Y0153541D01*
X0088019Y0153450D01*
X0087789Y0153365D01*
X0087557Y0153285D01*
X0087323Y0153211D01*
X0087087Y0153142D01*
X0086850Y0153080D01*
X0086611Y0153023D01*
X0086371Y0152972D01*
X0086130Y0152927D01*
X0085887Y0152888D01*
X0085644Y0152855D01*
X0085400Y0152828D01*
X0085156Y0152807D01*
X0084911Y0152792D01*
X0084665Y0152783D01*
X0084420Y0152780D01*
X0084175Y0152783D01*
X0083929Y0152792D01*
X0083684Y0152807D01*
X0083440Y0152828D01*
X0083196Y0152855D01*
X0082953Y0152888D01*
X0082710Y0152927D01*
X0082469Y0152972D01*
X0082229Y0153023D01*
X0081990Y0153080D01*
X0081753Y0153142D01*
X0081517Y0153211D01*
X0081283Y0153285D01*
X0081051Y0153365D01*
X0080821Y0153450D01*
X0080593Y0153541D01*
X0080368Y0153638D01*
X0080144Y0153740D01*
X0079924Y0153848D01*
X0079706Y0153961D01*
X0079491Y0154079D01*
X0079279Y0154203D01*
X0079070Y0154331D01*
X0078864Y0154465D01*
X0078662Y0154604D01*
X0078463Y0154748D01*
X0078268Y0154897D01*
X0078076Y0155050D01*
X0077888Y0155208D01*
X0077704Y0155370D01*
X0077525Y0155538D01*
X0077349Y0155709D01*
X0077178Y0155885D01*
X0077010Y0156064D01*
X0076848Y0156248D01*
X0076690Y0156436D01*
X0076537Y0156628D01*
X0076388Y0156823D01*
X0076244Y0157022D01*
X0076105Y0157224D01*
X0075971Y0157430D01*
X0075843Y0157639D01*
X0075719Y0157851D01*
X0075601Y0158066D01*
X0075488Y0158284D01*
X0075380Y0158504D01*
X0075278Y0158728D01*
X0075181Y0158953D01*
X0075090Y0159181D01*
X0075005Y0159411D01*
X0074925Y0159643D01*
X0074851Y0159877D01*
X0074782Y0160113D01*
X0074720Y0160350D01*
X0074663Y0160589D01*
X0074612Y0160829D01*
X0074567Y0161070D01*
X0074528Y0161313D01*
X0074495Y0161556D01*
X0074468Y0161800D01*
X0074447Y0162044D01*
X0074432Y0162289D01*
X0074423Y0162535D01*
X0074420Y0162780D01*
D11*
X0044643Y0027018D02*
X0046230Y0026091D01*
X0047839Y0025201D01*
X0049468Y0024351D01*
X0051118Y0023540D01*
X0052786Y0022769D01*
X0054473Y0022038D01*
X0056177Y0021349D01*
X0057896Y0020700D01*
X0059631Y0020093D01*
X0061380Y0019527D01*
X0063143Y0019004D01*
X0064917Y0018524D01*
X0066702Y0018086D01*
X0068497Y0017691D01*
X0070301Y0017340D01*
X0072114Y0017032D01*
X0073933Y0016768D01*
X0075757Y0016547D01*
X0077587Y0016371D01*
X0079420Y0016238D01*
X0081256Y0016150D01*
X0083094Y0016106D01*
X0084932Y0016106D01*
X0086770Y0016150D01*
X0088606Y0016238D01*
X0090439Y0016371D01*
X0092269Y0016547D01*
X0094093Y0016768D01*
X0095912Y0017032D01*
X0097725Y0017340D01*
X0099529Y0017691D01*
X0101324Y0018086D01*
X0103109Y0018524D01*
X0104883Y0019004D01*
X0106646Y0019527D01*
X0108395Y0020093D01*
X0110130Y0020700D01*
X0111849Y0021349D01*
X0113553Y0022038D01*
X0115240Y0022769D01*
X0116908Y0023540D01*
X0118558Y0024351D01*
X0120187Y0025201D01*
X0121796Y0026091D01*
X0123383Y0027018D01*
X0123383Y0027019D02*
X0125058Y0027974D01*
X0126709Y0028970D01*
X0128335Y0030006D01*
X0129935Y0031081D01*
X0131508Y0032196D01*
X0133053Y0033348D01*
X0134570Y0034538D01*
X0136058Y0035765D01*
X0137514Y0037028D01*
X0138940Y0038326D01*
X0140333Y0039658D01*
X0141693Y0041025D01*
X0143020Y0042424D01*
X0144312Y0043855D01*
X0145568Y0045317D01*
X0146788Y0046810D01*
X0147971Y0048332D01*
X0149117Y0049883D01*
X0150224Y0051461D01*
X0151293Y0053066D01*
X0152322Y0054696D01*
X0153310Y0056351D01*
X0154258Y0058030D01*
X0155165Y0059732D01*
X0156029Y0061455D01*
X0156851Y0063199D01*
X0157631Y0064962D01*
X0158366Y0066744D01*
X0159058Y0068544D01*
X0159706Y0070359D01*
X0160309Y0072191D01*
X0160867Y0074036D01*
X0161380Y0075894D01*
X0161847Y0077765D01*
X0162269Y0079646D01*
X0162644Y0081537D01*
X0162972Y0083437D01*
X0163254Y0085344D01*
X0163490Y0087258D01*
X0163678Y0089176D01*
X0163820Y0091099D01*
X0163914Y0093025D01*
X0163961Y0094952D01*
X0163961Y0096880D01*
X0163914Y0098807D01*
X0163820Y0100733D01*
X0163678Y0102656D01*
X0163490Y0104574D01*
X0163254Y0106488D01*
X0162972Y0108395D01*
X0162644Y0110295D01*
X0162269Y0112186D01*
X0161847Y0114067D01*
X0161380Y0115938D01*
X0160867Y0117796D01*
X0160309Y0119641D01*
X0159706Y0121473D01*
X0159058Y0123288D01*
X0158366Y0125088D01*
X0157631Y0126870D01*
X0156851Y0128633D01*
X0156029Y0130377D01*
X0155165Y0132100D01*
X0154258Y0133802D01*
X0153310Y0135481D01*
X0152322Y0137136D01*
X0151293Y0138766D01*
X0150224Y0140371D01*
X0149117Y0141949D01*
X0147971Y0143500D01*
X0146788Y0145022D01*
X0145568Y0146515D01*
X0144312Y0147977D01*
X0143020Y0149408D01*
X0141693Y0150807D01*
X0140333Y0152174D01*
X0138940Y0153506D01*
X0137514Y0154804D01*
X0136058Y0156067D01*
X0134570Y0157294D01*
X0133053Y0158484D01*
X0131508Y0159636D01*
X0129935Y0160751D01*
X0128335Y0161826D01*
X0126709Y0162862D01*
X0125058Y0163858D01*
X0123383Y0164813D01*
X0123383Y0164814D02*
X0121796Y0165741D01*
X0120187Y0166631D01*
X0118558Y0167481D01*
X0116908Y0168292D01*
X0115240Y0169063D01*
X0113553Y0169794D01*
X0111849Y0170483D01*
X0110130Y0171132D01*
X0108395Y0171739D01*
X0106646Y0172305D01*
X0104883Y0172828D01*
X0103109Y0173308D01*
X0101324Y0173746D01*
X0099529Y0174141D01*
X0097725Y0174492D01*
X0095912Y0174800D01*
X0094093Y0175064D01*
X0092269Y0175285D01*
X0090439Y0175461D01*
X0088606Y0175594D01*
X0086770Y0175682D01*
X0084932Y0175726D01*
X0083094Y0175726D01*
X0081256Y0175682D01*
X0079420Y0175594D01*
X0077587Y0175461D01*
X0075757Y0175285D01*
X0073933Y0175064D01*
X0072114Y0174800D01*
X0070301Y0174492D01*
X0068497Y0174141D01*
X0066702Y0173746D01*
X0064917Y0173308D01*
X0063143Y0172828D01*
X0061380Y0172305D01*
X0059631Y0171739D01*
X0057896Y0171132D01*
X0056177Y0170483D01*
X0054473Y0169794D01*
X0052786Y0169063D01*
X0051118Y0168292D01*
X0049468Y0167481D01*
X0047839Y0166631D01*
X0046230Y0165741D01*
X0044643Y0164814D01*
X0015115Y0135286D01*
X0015116Y0135285D02*
X0014166Y0133643D01*
X0013256Y0131977D01*
X0012387Y0130291D01*
X0011559Y0128583D01*
X0010773Y0126856D01*
X0010029Y0125110D01*
X0009328Y0123347D01*
X0008670Y0121567D01*
X0008055Y0119771D01*
X0007484Y0117961D01*
X0006958Y0116138D01*
X0006476Y0114303D01*
X0006039Y0112456D01*
X0005646Y0110600D01*
X0005300Y0108734D01*
X0004998Y0106860D01*
X0004742Y0104980D01*
X0004532Y0103094D01*
X0004369Y0101203D01*
X0004251Y0099309D01*
X0004179Y0097413D01*
X0004153Y0095515D01*
X0004174Y0093618D01*
X0004240Y0091721D01*
X0004353Y0089827D01*
X0004512Y0087936D01*
X0004717Y0086049D01*
X0004967Y0084168D01*
X0005263Y0082294D01*
X0005605Y0080427D01*
X0005992Y0078570D01*
X0006425Y0076722D01*
X0006902Y0074885D01*
X0007423Y0073060D01*
X0007989Y0071249D01*
X0008599Y0069452D01*
X0009252Y0067670D01*
X0009948Y0065905D01*
X0010687Y0064157D01*
X0011469Y0062428D01*
X0012292Y0060718D01*
X0013156Y0059029D01*
X0014062Y0057361D01*
X0015008Y0055716D01*
X0015993Y0054094D01*
X0017018Y0052497D01*
X0018081Y0050925D01*
X0019182Y0049379D01*
X0020320Y0047861D01*
X0021495Y0046371D01*
X0022706Y0044910D01*
X0023952Y0043478D01*
X0025233Y0042078D01*
X0026547Y0040709D01*
X0027894Y0039372D01*
X0029273Y0038069D01*
X0030684Y0036799D01*
X0032125Y0035565D01*
X0033595Y0034365D01*
X0035095Y0033202D01*
X0036622Y0032076D01*
X0038176Y0030987D01*
X0039756Y0029936D01*
X0041362Y0028924D01*
X0042991Y0027951D01*
X0044644Y0027018D01*
M02*
