%
M48
M72
T01C0.0130
T02C0.0335
T03C0.0354
T04C0.0400
T05C0.0551
T06C0.1260
%
T01
X2299Y4103
X6401Y7683
X8411Y8973
X7121Y11133
X10841Y11733
X12221Y12213
X13091Y9483
X12701Y9393
X11921Y9153
X11441Y9393
X11441Y8673
X11201Y8433
X10661Y7503
X15311Y10113
T02
X2263Y9024
X2263Y7056
T03
X3137Y12568
X3972Y13403
T04
X5919Y14808
X6874Y15102
X14316Y9007
X14316Y8007
X14316Y7007
X15316Y7007
X15316Y8007
X15316Y9007
T05
X1199Y9419
X1204Y6662
T06
X8589Y15024
M30
