G75*
%MOIN*%
%OFA0B0*%
%FSLAX25Y25*%
%IPPOS*%
%LPD*%
%AMOC8*
5,1,8,0,0,1.08239X$1,22.5*
%
%ADD10C,0.00500*%
%ADD11C,0.00600*%
%ADD12C,0.00800*%
%ADD13C,0.01000*%
D10*
X0037603Y0043028D02*
X0039405Y0043028D01*
X0039855Y0043479D01*
X0039855Y0044380D01*
X0039405Y0044830D01*
X0039405Y0045975D02*
X0039855Y0046425D01*
X0039855Y0047326D01*
X0039405Y0047776D01*
X0037603Y0047776D01*
X0037153Y0047326D01*
X0037153Y0046425D01*
X0037603Y0045975D01*
X0038054Y0045975D01*
X0038504Y0046425D01*
X0038504Y0047776D01*
X0037603Y0044830D02*
X0037153Y0044380D01*
X0037153Y0043479D01*
X0037603Y0043028D01*
X0050087Y0044404D02*
X0050537Y0043954D01*
X0051438Y0043954D01*
X0051888Y0044404D01*
X0053033Y0043954D02*
X0054835Y0043954D01*
X0053934Y0043954D02*
X0053934Y0046656D01*
X0053033Y0045755D01*
X0051888Y0046206D02*
X0051438Y0046656D01*
X0050537Y0046656D01*
X0050087Y0046206D01*
X0050087Y0044404D01*
X0050448Y0040464D02*
X0049997Y0040013D01*
X0049997Y0038212D01*
X0050448Y0037761D01*
X0051348Y0037761D01*
X0051799Y0038212D01*
X0052944Y0037761D02*
X0054745Y0037761D01*
X0053845Y0037761D02*
X0053845Y0040464D01*
X0052944Y0039563D01*
X0051799Y0040013D02*
X0051348Y0040464D01*
X0050448Y0040464D01*
X0055890Y0040013D02*
X0055890Y0038212D01*
X0057692Y0040013D01*
X0057692Y0038212D01*
X0057241Y0037761D01*
X0056341Y0037761D01*
X0055890Y0038212D01*
X0055890Y0040013D02*
X0056341Y0040464D01*
X0057241Y0040464D01*
X0057692Y0040013D01*
X0057781Y0043954D02*
X0055980Y0043954D01*
X0056881Y0043954D02*
X0056881Y0046656D01*
X0055980Y0045755D01*
X0059569Y0049883D02*
X0061371Y0049883D01*
X0062516Y0049883D02*
X0064317Y0049883D01*
X0063417Y0049883D02*
X0063417Y0052586D01*
X0062516Y0051685D01*
X0059569Y0052586D02*
X0059569Y0049883D01*
X0055198Y0060913D02*
X0053396Y0060913D01*
X0054297Y0060913D02*
X0054297Y0063616D01*
X0053396Y0062715D01*
X0052251Y0063165D02*
X0052251Y0063616D01*
X0052251Y0063165D02*
X0051350Y0062264D01*
X0051350Y0060913D01*
X0051350Y0062264D02*
X0050449Y0063165D01*
X0050449Y0063616D01*
X0039526Y0060962D02*
X0039526Y0060061D01*
X0039075Y0059610D01*
X0038625Y0059610D01*
X0038175Y0060061D01*
X0038175Y0060962D01*
X0038625Y0061412D01*
X0039075Y0061412D01*
X0039526Y0060962D01*
X0038175Y0060962D02*
X0037724Y0061412D01*
X0037274Y0061412D01*
X0036823Y0060962D01*
X0036823Y0060061D01*
X0037274Y0059610D01*
X0037724Y0059610D01*
X0038175Y0060061D01*
X0039075Y0058465D02*
X0039526Y0058015D01*
X0039526Y0057114D01*
X0039075Y0056664D01*
X0037274Y0056664D01*
X0036823Y0057114D01*
X0036823Y0058015D01*
X0037274Y0058465D01*
X0019266Y0054896D02*
X0019266Y0053095D01*
X0017465Y0054896D01*
X0017014Y0054896D01*
X0016564Y0054446D01*
X0016564Y0053545D01*
X0017014Y0053095D01*
X0017014Y0051950D02*
X0016564Y0051499D01*
X0016564Y0050148D01*
X0019266Y0050148D01*
X0018366Y0050148D02*
X0018366Y0051499D01*
X0017915Y0051950D01*
X0017014Y0051950D01*
X0018366Y0051049D02*
X0019266Y0051950D01*
X0027339Y0077904D02*
X0029141Y0077904D01*
X0029591Y0078354D01*
X0029591Y0079255D01*
X0029141Y0079706D01*
X0029591Y0080851D02*
X0027790Y0082652D01*
X0027339Y0082652D01*
X0026889Y0082202D01*
X0026889Y0081301D01*
X0027339Y0080851D01*
X0027339Y0079706D02*
X0026889Y0079255D01*
X0026889Y0078354D01*
X0027339Y0077904D01*
X0029591Y0080851D02*
X0029591Y0082652D01*
X0037340Y0081867D02*
X0040042Y0081867D01*
X0040042Y0080966D02*
X0040042Y0082768D01*
X0038241Y0080966D02*
X0037340Y0081867D01*
X0037791Y0079821D02*
X0037340Y0079371D01*
X0037340Y0078470D01*
X0037791Y0078020D01*
X0039592Y0078020D01*
X0040042Y0078470D01*
X0040042Y0079371D01*
X0039592Y0079821D01*
X0037701Y0102253D02*
X0035899Y0102253D01*
X0036800Y0102253D02*
X0036800Y0104955D01*
X0035899Y0104054D01*
X0034754Y0104505D02*
X0034304Y0104955D01*
X0033403Y0104955D01*
X0032953Y0104505D01*
X0032953Y0102703D01*
X0033403Y0102253D01*
X0034304Y0102253D01*
X0034754Y0102703D01*
X0031889Y0102253D02*
X0030988Y0102253D01*
X0031439Y0102253D02*
X0031439Y0104955D01*
X0031889Y0104955D02*
X0030988Y0104955D01*
X0029842Y0116914D02*
X0048494Y0135566D01*
X0041256Y0142804D01*
X0022604Y0124152D01*
X0029842Y0116914D01*
X0048063Y0105166D02*
X0048964Y0105166D01*
X0048514Y0105166D02*
X0048514Y0102464D01*
X0048964Y0102464D02*
X0048063Y0102464D01*
X0050028Y0102914D02*
X0050028Y0104716D01*
X0050478Y0105166D01*
X0051379Y0105166D01*
X0051829Y0104716D01*
X0052974Y0104716D02*
X0053425Y0105166D01*
X0054325Y0105166D01*
X0054776Y0104716D01*
X0054776Y0104266D01*
X0052974Y0102464D01*
X0054776Y0102464D01*
X0051829Y0102914D02*
X0051379Y0102464D01*
X0050478Y0102464D01*
X0050028Y0102914D01*
X0058786Y0115791D02*
X0058786Y0118493D01*
X0060137Y0118493D01*
X0060587Y0118043D01*
X0060587Y0117142D01*
X0060137Y0116692D01*
X0058786Y0116692D01*
X0059687Y0116692D02*
X0060587Y0115791D01*
X0061732Y0116241D02*
X0062183Y0115791D01*
X0063084Y0115791D01*
X0063534Y0116241D01*
X0063534Y0116692D01*
X0063084Y0117142D01*
X0062633Y0117142D01*
X0063084Y0117142D02*
X0063534Y0117593D01*
X0063534Y0118043D01*
X0063084Y0118493D01*
X0062183Y0118493D01*
X0061732Y0118043D01*
X0071969Y0117804D02*
X0071969Y0115102D01*
X0071969Y0116003D02*
X0073320Y0116003D01*
X0073770Y0116453D01*
X0073770Y0117354D01*
X0073320Y0117804D01*
X0071969Y0117804D01*
X0072870Y0116003D02*
X0073770Y0115102D01*
X0074915Y0115552D02*
X0075366Y0115102D01*
X0076266Y0115102D01*
X0076717Y0115552D01*
X0076717Y0116453D01*
X0076266Y0116904D01*
X0075816Y0116904D01*
X0074915Y0116453D01*
X0074915Y0117804D01*
X0076717Y0117804D01*
X0076234Y0123891D02*
X0075333Y0123891D01*
X0074883Y0124341D01*
X0074883Y0125242D01*
X0076234Y0125242D01*
X0076684Y0124792D01*
X0076684Y0124341D01*
X0076234Y0123891D01*
X0074883Y0125242D02*
X0075783Y0126143D01*
X0076684Y0126593D01*
X0073738Y0126143D02*
X0073738Y0125242D01*
X0073287Y0124792D01*
X0071936Y0124792D01*
X0071936Y0123891D02*
X0071936Y0126593D01*
X0073287Y0126593D01*
X0073738Y0126143D01*
X0072837Y0124792D02*
X0073738Y0123891D01*
X0061010Y0134883D02*
X0061279Y0135461D01*
X0061125Y0135884D01*
X0060548Y0136153D01*
X0060124Y0135999D01*
X0060548Y0136153D02*
X0060817Y0136730D01*
X0060663Y0137154D01*
X0060085Y0137423D01*
X0059239Y0137115D01*
X0058970Y0136537D01*
X0057894Y0136146D02*
X0057317Y0136415D01*
X0056470Y0136107D01*
X0056201Y0135530D01*
X0056817Y0133837D01*
X0057394Y0133568D01*
X0058241Y0133876D01*
X0058510Y0134453D01*
X0059586Y0134845D02*
X0060163Y0134575D01*
X0061010Y0134883D01*
X0072788Y0108877D02*
X0074139Y0108877D01*
X0074589Y0108426D01*
X0074589Y0107526D01*
X0074139Y0107075D01*
X0072788Y0107075D01*
X0072788Y0106174D02*
X0072788Y0108877D01*
X0073689Y0107075D02*
X0074589Y0106174D01*
X0075734Y0107526D02*
X0077536Y0107526D01*
X0077086Y0108877D02*
X0077086Y0106174D01*
X0075734Y0107526D02*
X0077086Y0108877D01*
X0067577Y0088302D02*
X0065776Y0088302D01*
X0064631Y0087852D02*
X0064631Y0086951D01*
X0064180Y0086501D01*
X0062829Y0086501D01*
X0063730Y0086501D02*
X0064631Y0085600D01*
X0065776Y0085600D02*
X0065776Y0086050D01*
X0067577Y0087852D01*
X0067577Y0088302D01*
X0064631Y0087852D02*
X0064180Y0088302D01*
X0062829Y0088302D01*
X0062829Y0085600D01*
X0082245Y0084688D02*
X0082245Y0081986D01*
X0083597Y0081986D01*
X0084047Y0082436D01*
X0084047Y0084238D01*
X0083597Y0084688D01*
X0082245Y0084688D01*
X0085192Y0083787D02*
X0086093Y0084688D01*
X0086093Y0081986D01*
X0086993Y0081986D02*
X0085192Y0081986D01*
X0103539Y0060999D02*
X0103089Y0060549D01*
X0103089Y0058747D01*
X0103539Y0058297D01*
X0104440Y0058297D01*
X0104890Y0058747D01*
X0106035Y0058747D02*
X0106035Y0058297D01*
X0106035Y0058747D02*
X0107837Y0060549D01*
X0107837Y0060999D01*
X0106035Y0060999D01*
X0104890Y0060549D02*
X0104440Y0060999D01*
X0103539Y0060999D01*
X0102978Y0048697D02*
X0104329Y0048697D01*
X0104779Y0048247D01*
X0104779Y0047346D01*
X0104329Y0046895D01*
X0102978Y0046895D01*
X0102978Y0045995D02*
X0102978Y0048697D01*
X0103879Y0046895D02*
X0104779Y0045995D01*
X0105924Y0045995D02*
X0107726Y0045995D01*
X0106825Y0045995D02*
X0106825Y0048697D01*
X0105924Y0047796D01*
X0101715Y0044922D02*
X0101715Y0044471D01*
X0101265Y0044021D01*
X0101715Y0043570D01*
X0101715Y0043120D01*
X0101265Y0042670D01*
X0100364Y0042670D01*
X0099914Y0043120D01*
X0098769Y0042670D02*
X0096967Y0042670D01*
X0096967Y0045372D01*
X0099914Y0044922D02*
X0100364Y0045372D01*
X0101265Y0045372D01*
X0101715Y0044922D01*
X0101265Y0044021D02*
X0100815Y0044021D01*
X0100822Y0039257D02*
X0099921Y0038356D01*
X0098776Y0038807D02*
X0098326Y0039257D01*
X0097425Y0039257D01*
X0096974Y0038807D01*
X0096974Y0037005D01*
X0097425Y0036555D01*
X0098326Y0036555D01*
X0098776Y0037005D01*
X0099921Y0036555D02*
X0101722Y0036555D01*
X0100822Y0036555D02*
X0100822Y0039257D01*
X0102867Y0038807D02*
X0103318Y0039257D01*
X0104219Y0039257D01*
X0104669Y0038807D01*
X0104669Y0038356D01*
X0102867Y0036555D01*
X0104669Y0036555D01*
X0087776Y0019313D02*
X0085074Y0019313D01*
X0085074Y0021115D01*
X0086425Y0020214D02*
X0086425Y0019313D01*
X0086425Y0018168D02*
X0086425Y0016367D01*
X0085975Y0016367D02*
X0085074Y0017268D01*
X0085975Y0018168D01*
X0087776Y0018168D01*
X0087776Y0016367D02*
X0085975Y0016367D01*
X0079018Y0031273D02*
X0078117Y0031273D01*
X0077667Y0031723D01*
X0076522Y0031273D02*
X0074720Y0031273D01*
X0075621Y0031273D02*
X0075621Y0033975D01*
X0074720Y0033074D01*
X0073575Y0033524D02*
X0073125Y0033975D01*
X0072224Y0033975D01*
X0071774Y0033524D01*
X0071774Y0031723D01*
X0072224Y0031273D01*
X0073125Y0031273D01*
X0073575Y0031723D01*
X0077667Y0033524D02*
X0078117Y0033975D01*
X0079018Y0033975D01*
X0079468Y0033524D01*
X0079468Y0033074D01*
X0079018Y0032624D01*
X0079468Y0032173D01*
X0079468Y0031723D01*
X0079018Y0031273D01*
X0079018Y0032624D02*
X0078567Y0032624D01*
X0077884Y0043265D02*
X0079686Y0043265D01*
X0080831Y0043265D02*
X0082632Y0045067D01*
X0082632Y0045517D01*
X0082182Y0045968D01*
X0081281Y0045968D01*
X0080831Y0045517D01*
X0080831Y0043265D02*
X0082632Y0043265D01*
X0077884Y0043265D02*
X0077884Y0045968D01*
D11*
X0030367Y0046761D02*
X0030367Y0044399D01*
X0035091Y0044399D02*
X0035091Y0046761D01*
X0026070Y0051260D02*
X0026070Y0053622D01*
X0021346Y0053622D02*
X0021346Y0051260D01*
X0030367Y0058178D02*
X0030367Y0060540D01*
X0035091Y0060540D02*
X0035091Y0058178D01*
X0036009Y0078915D02*
X0036009Y0081277D01*
X0031285Y0081277D02*
X0031285Y0078915D01*
X0041540Y0078924D02*
X0041540Y0081286D01*
X0046264Y0081286D02*
X0046264Y0078924D01*
X0053989Y0084588D02*
X0056351Y0084588D01*
X0056351Y0089312D02*
X0053989Y0089312D01*
X0052486Y0114922D02*
X0050124Y0114922D01*
X0050124Y0119647D02*
X0052486Y0119647D01*
X0067860Y0136339D02*
X0070080Y0137146D01*
X0068464Y0141586D02*
X0066244Y0140778D01*
X0082801Y0127364D02*
X0085163Y0127364D01*
X0085163Y0122640D02*
X0082801Y0122640D01*
X0082832Y0118790D02*
X0085194Y0118790D01*
X0085194Y0114066D02*
X0082832Y0114066D01*
X0082716Y0110223D02*
X0085079Y0110223D01*
X0085079Y0105499D02*
X0082716Y0105499D01*
X0101538Y0107034D02*
X0101538Y0133235D01*
X0102936Y0134632D01*
X0129137Y0134632D01*
X0129137Y0107034D01*
X0101538Y0107034D01*
X0103123Y0131633D02*
X0103125Y0131708D01*
X0103131Y0131782D01*
X0103141Y0131856D01*
X0103154Y0131929D01*
X0103172Y0132002D01*
X0103193Y0132073D01*
X0103218Y0132144D01*
X0103247Y0132213D01*
X0103280Y0132280D01*
X0103316Y0132345D01*
X0103355Y0132409D01*
X0103397Y0132470D01*
X0103443Y0132529D01*
X0103492Y0132586D01*
X0103544Y0132639D01*
X0103598Y0132690D01*
X0103655Y0132739D01*
X0103715Y0132783D01*
X0103777Y0132825D01*
X0103841Y0132864D01*
X0103907Y0132899D01*
X0103974Y0132930D01*
X0104044Y0132958D01*
X0104114Y0132982D01*
X0104186Y0133003D01*
X0104259Y0133019D01*
X0104332Y0133032D01*
X0104407Y0133041D01*
X0104481Y0133046D01*
X0104556Y0133047D01*
X0104630Y0133044D01*
X0104705Y0133037D01*
X0104778Y0133026D01*
X0104852Y0133012D01*
X0104924Y0132993D01*
X0104995Y0132971D01*
X0105065Y0132945D01*
X0105134Y0132915D01*
X0105200Y0132882D01*
X0105265Y0132845D01*
X0105328Y0132805D01*
X0105389Y0132761D01*
X0105447Y0132715D01*
X0105503Y0132665D01*
X0105556Y0132613D01*
X0105607Y0132558D01*
X0105654Y0132500D01*
X0105698Y0132440D01*
X0105739Y0132377D01*
X0105777Y0132313D01*
X0105811Y0132247D01*
X0105842Y0132178D01*
X0105869Y0132109D01*
X0105892Y0132038D01*
X0105911Y0131966D01*
X0105927Y0131893D01*
X0105939Y0131819D01*
X0105947Y0131745D01*
X0105951Y0131670D01*
X0105951Y0131596D01*
X0105947Y0131521D01*
X0105939Y0131447D01*
X0105927Y0131373D01*
X0105911Y0131300D01*
X0105892Y0131228D01*
X0105869Y0131157D01*
X0105842Y0131088D01*
X0105811Y0131019D01*
X0105777Y0130953D01*
X0105739Y0130889D01*
X0105698Y0130826D01*
X0105654Y0130766D01*
X0105607Y0130708D01*
X0105556Y0130653D01*
X0105503Y0130601D01*
X0105447Y0130551D01*
X0105389Y0130505D01*
X0105328Y0130461D01*
X0105265Y0130421D01*
X0105200Y0130384D01*
X0105134Y0130351D01*
X0105065Y0130321D01*
X0104995Y0130295D01*
X0104924Y0130273D01*
X0104852Y0130254D01*
X0104778Y0130240D01*
X0104705Y0130229D01*
X0104630Y0130222D01*
X0104556Y0130219D01*
X0104481Y0130220D01*
X0104407Y0130225D01*
X0104332Y0130234D01*
X0104259Y0130247D01*
X0104186Y0130263D01*
X0104114Y0130284D01*
X0104044Y0130308D01*
X0103974Y0130336D01*
X0103907Y0130367D01*
X0103841Y0130402D01*
X0103777Y0130441D01*
X0103715Y0130483D01*
X0103655Y0130527D01*
X0103598Y0130576D01*
X0103544Y0130627D01*
X0103492Y0130680D01*
X0103443Y0130737D01*
X0103397Y0130796D01*
X0103355Y0130857D01*
X0103316Y0130921D01*
X0103280Y0130986D01*
X0103247Y0131053D01*
X0103218Y0131122D01*
X0103193Y0131193D01*
X0103172Y0131264D01*
X0103154Y0131337D01*
X0103141Y0131410D01*
X0103131Y0131484D01*
X0103125Y0131558D01*
X0103123Y0131633D01*
X0104382Y0067627D02*
X0106745Y0067627D01*
X0106745Y0062903D02*
X0104382Y0062903D01*
X0104382Y0055816D02*
X0106745Y0055816D01*
X0106745Y0051092D02*
X0104382Y0051092D01*
X0115706Y0051346D02*
X0115706Y0049644D01*
X0116840Y0050211D01*
X0117407Y0050211D01*
X0117975Y0049644D01*
X0117975Y0048510D01*
X0117407Y0047943D01*
X0116273Y0047943D01*
X0115706Y0048510D01*
X0115706Y0051346D02*
X0117975Y0051346D01*
X0119389Y0053943D02*
X0120523Y0053943D01*
X0119956Y0053943D02*
X0119956Y0057346D01*
X0119389Y0057346D01*
X0117975Y0057346D02*
X0115706Y0057346D01*
X0115706Y0053943D01*
X0115706Y0055644D02*
X0116840Y0055644D01*
X0121845Y0055644D02*
X0121845Y0054510D01*
X0122412Y0053943D01*
X0123546Y0053943D01*
X0124113Y0054510D01*
X0124113Y0055644D01*
X0123546Y0056211D01*
X0122412Y0056211D01*
X0121845Y0055644D01*
X0125528Y0056211D02*
X0125528Y0054510D01*
X0126095Y0053943D01*
X0126662Y0054510D01*
X0127229Y0053943D01*
X0127796Y0054510D01*
X0127796Y0056211D01*
X0129211Y0055644D02*
X0129778Y0056211D01*
X0130912Y0056211D01*
X0131479Y0055644D01*
X0131479Y0055077D01*
X0129211Y0055077D01*
X0129211Y0054510D02*
X0129211Y0055644D01*
X0129211Y0054510D02*
X0129778Y0053943D01*
X0130912Y0053943D01*
X0132894Y0053943D02*
X0132894Y0056211D01*
X0132894Y0055077D02*
X0134028Y0056211D01*
X0134595Y0056211D01*
X0135963Y0055644D02*
X0137098Y0055644D01*
X0135963Y0057346D02*
X0138232Y0057346D01*
X0139646Y0056211D02*
X0139646Y0053943D01*
X0139646Y0055077D02*
X0140781Y0056211D01*
X0141348Y0056211D01*
X0142716Y0056211D02*
X0143283Y0056211D01*
X0143283Y0053943D01*
X0142716Y0053943D02*
X0143850Y0053943D01*
X0145171Y0054510D02*
X0145171Y0055644D01*
X0145738Y0056211D01*
X0146873Y0056211D01*
X0147440Y0055644D01*
X0147440Y0055077D01*
X0145171Y0055077D01*
X0145171Y0054510D02*
X0145738Y0053943D01*
X0146873Y0053943D01*
X0148854Y0053943D02*
X0148854Y0056211D01*
X0150556Y0056211D01*
X0151123Y0055644D01*
X0151123Y0053943D01*
X0152537Y0054510D02*
X0152537Y0055644D01*
X0153105Y0056211D01*
X0154806Y0056211D01*
X0154806Y0057346D02*
X0154806Y0053943D01*
X0153105Y0053943D01*
X0152537Y0054510D01*
X0147440Y0051346D02*
X0145171Y0051346D01*
X0145171Y0049644D01*
X0146305Y0050211D01*
X0146873Y0050211D01*
X0147440Y0049644D01*
X0147440Y0048510D01*
X0146873Y0047943D01*
X0145738Y0047943D01*
X0145171Y0048510D01*
X0143757Y0047943D02*
X0141488Y0047943D01*
X0142622Y0047943D02*
X0142622Y0051346D01*
X0141488Y0050211D01*
X0140073Y0050778D02*
X0140073Y0048510D01*
X0139506Y0047943D01*
X0138372Y0047943D01*
X0137805Y0048510D01*
X0140073Y0050778D01*
X0139506Y0051346D01*
X0138372Y0051346D01*
X0137805Y0050778D01*
X0137805Y0048510D01*
X0136390Y0047943D02*
X0134122Y0047943D01*
X0136390Y0050211D01*
X0136390Y0050778D01*
X0135823Y0051346D01*
X0134689Y0051346D01*
X0134122Y0050778D01*
X0132707Y0051346D02*
X0130439Y0047943D01*
X0129024Y0047943D02*
X0126755Y0047943D01*
X0129024Y0050211D01*
X0129024Y0050778D01*
X0128457Y0051346D01*
X0127323Y0051346D01*
X0126755Y0050778D01*
X0124207Y0051346D02*
X0124207Y0047943D01*
X0125341Y0047943D02*
X0123072Y0047943D01*
X0123072Y0050211D02*
X0124207Y0051346D01*
X0121658Y0051346D02*
X0119389Y0047943D01*
X0117407Y0045346D02*
X0117975Y0044778D01*
X0117975Y0043644D01*
X0117407Y0043077D01*
X0115706Y0043077D01*
X0116840Y0043077D02*
X0117975Y0041943D01*
X0119389Y0042510D02*
X0119389Y0043644D01*
X0119956Y0044211D01*
X0121091Y0044211D01*
X0121658Y0043644D01*
X0121658Y0043077D01*
X0119389Y0043077D01*
X0119389Y0042510D02*
X0119956Y0041943D01*
X0121091Y0041943D01*
X0123072Y0044211D02*
X0124207Y0041943D01*
X0125341Y0044211D01*
X0126755Y0042510D02*
X0127323Y0042510D01*
X0127323Y0041943D01*
X0126755Y0041943D01*
X0126755Y0042510D01*
X0132280Y0042510D02*
X0132847Y0041943D01*
X0133982Y0041943D01*
X0134549Y0042510D01*
X0134549Y0043077D01*
X0133982Y0043644D01*
X0133414Y0043644D01*
X0133982Y0043644D02*
X0134549Y0044211D01*
X0134549Y0044778D01*
X0133982Y0045346D01*
X0132847Y0045346D01*
X0132280Y0044778D01*
X0135963Y0053943D02*
X0135963Y0057346D01*
X0143283Y0057346D02*
X0143283Y0057913D01*
X0117407Y0045346D02*
X0115706Y0045346D01*
X0115706Y0041943D01*
X0091256Y0041616D02*
X0088894Y0041616D01*
X0088902Y0040398D02*
X0091264Y0040398D01*
X0091264Y0035673D02*
X0088902Y0035673D01*
X0079647Y0035649D02*
X0077285Y0035649D01*
X0077285Y0040373D02*
X0079647Y0040373D01*
X0081774Y0047476D02*
X0084137Y0047476D01*
X0088894Y0046340D02*
X0091256Y0046340D01*
X0084137Y0052201D02*
X0081774Y0052201D01*
X0072586Y0053653D02*
X0070223Y0053653D01*
X0070223Y0048929D02*
X0072586Y0048929D01*
X0065514Y0047634D02*
X0063152Y0047634D01*
X0063152Y0042909D02*
X0065514Y0042909D01*
X0065514Y0041592D02*
X0063152Y0041592D01*
X0063152Y0036868D02*
X0065514Y0036868D01*
D12*
X0081994Y0028298D02*
X0081994Y0009298D01*
X0084994Y0011798D02*
X0086494Y0010298D01*
X0087994Y0011798D01*
X0086494Y0010298D02*
X0086494Y0013798D01*
X0090994Y0009298D02*
X0090994Y0028298D01*
X0062271Y0061013D02*
X0062271Y0063375D01*
X0054791Y0068493D02*
X0050067Y0068493D01*
X0042586Y0063375D02*
X0042586Y0061013D01*
X0050067Y0055894D02*
X0054791Y0055894D01*
X0074267Y0077789D02*
X0074267Y0078699D01*
X0074267Y0077789D02*
X0093757Y0077789D01*
X0093757Y0077769D01*
X0093957Y0077769D01*
X0093957Y0078769D01*
X0094157Y0084869D02*
X0094157Y0091569D01*
X0094037Y0097199D02*
X0094037Y0098269D01*
X0093837Y0098269D01*
X0093837Y0098279D01*
X0074277Y0098279D01*
X0074277Y0097389D01*
X0074157Y0091469D02*
X0074157Y0088069D01*
X0084157Y0098069D01*
X0074157Y0088069D02*
X0074157Y0084669D01*
X0089820Y0070895D02*
X0091789Y0068927D01*
X0064721Y0101525D02*
X0062910Y0101525D01*
X0061990Y0102746D01*
X0061099Y0101525D02*
X0062910Y0101525D01*
X0063010Y0101586D02*
X0063770Y0102746D01*
X0056309Y0102155D02*
X0056309Y0105536D01*
X0052365Y0106636D02*
X0050252Y0106636D01*
X0046309Y0105536D02*
X0046309Y0102155D01*
X0039856Y0100989D02*
X0039856Y0104139D01*
X0039856Y0100989D02*
X0037494Y0100989D01*
X0031195Y0100989D02*
X0028833Y0100989D01*
X0028833Y0104139D01*
X0055143Y0144220D02*
X0058267Y0142566D01*
X0063046Y0144036D01*
X0064701Y0147160D01*
X0067825Y0145506D01*
X0072604Y0146976D01*
X0074259Y0150101D01*
X0072788Y0154880D01*
X0069664Y0156534D01*
X0064885Y0155064D01*
X0063231Y0151939D01*
X0060106Y0153594D01*
X0055327Y0152124D01*
X0053673Y0148999D01*
X0055143Y0144220D01*
X0138158Y0092573D02*
X0138158Y0087573D01*
X0140658Y0085073D01*
X0155658Y0085073D01*
X0158158Y0087573D01*
X0158158Y0092573D01*
X0155658Y0095073D01*
X0140658Y0095073D01*
X0138158Y0092573D01*
X0140658Y0085073D02*
X0138158Y0082573D01*
X0138158Y0077573D01*
X0140658Y0075073D01*
X0155658Y0075073D01*
X0158158Y0077573D01*
X0158158Y0082573D01*
X0155658Y0085073D01*
X0155658Y0075073D02*
X0158158Y0072573D01*
X0158158Y0067573D01*
X0155658Y0065073D01*
X0140658Y0065073D01*
X0138158Y0067573D01*
X0138158Y0072573D01*
X0140658Y0075073D01*
X0159477Y0072573D02*
X0159477Y0067573D01*
D13*
X0045009Y0099845D03*
M02*
