G75*
%MOIN*%
%OFA0B0*%
%FSLAX25Y25*%
%IPPOS*%
%LPD*%
%AMOC8*
5,1,8,0,0,1.08239X$1,22.5*
%
%ADD10R,0.05000X0.02200*%
%ADD11R,0.02200X0.05000*%
%ADD12R,0.03150X0.03543*%
%ADD13R,0.06500X0.03937*%
%ADD14R,0.03150X0.04724*%
%ADD15R,0.04724X0.03150*%
%ADD16R,0.02165X0.04724*%
%ADD17R,0.05315X0.01575*%
%ADD18R,0.07480X0.05906*%
%ADD19R,0.10000X0.04000*%
%ADD20R,0.01969X0.01969*%
%ADD21R,0.00800X0.01900*%
%ADD22R,0.01900X0.00800*%
%ADD23R,0.03937X0.03150*%
%ADD24R,0.02756X0.05906*%
%ADD25R,0.07480X0.04331*%
%ADD26C,0.01181*%
D10*
X0098437Y0109809D03*
X0098437Y0112959D03*
X0098437Y0116109D03*
X0098437Y0119258D03*
X0098437Y0122408D03*
X0098437Y0125557D03*
X0098437Y0128707D03*
X0098437Y0131857D03*
X0132237Y0131857D03*
X0132237Y0128707D03*
X0132237Y0125557D03*
X0132237Y0122408D03*
X0132237Y0119258D03*
X0132237Y0116109D03*
X0132237Y0112959D03*
X0132237Y0109809D03*
D11*
X0126361Y0103933D03*
X0123211Y0103933D03*
X0120062Y0103933D03*
X0116912Y0103933D03*
X0113763Y0103933D03*
X0110613Y0103933D03*
X0107463Y0103933D03*
X0104314Y0103933D03*
X0104314Y0137733D03*
X0107463Y0137733D03*
X0110613Y0137733D03*
X0113763Y0137733D03*
X0116912Y0137733D03*
X0120062Y0137733D03*
X0123211Y0137733D03*
X0126361Y0137733D03*
D12*
X0038084Y0107682D03*
X0030604Y0107682D03*
X0034344Y0099414D03*
D13*
X0074011Y0094368D03*
X0074011Y0081770D03*
X0094303Y0081770D03*
X0094303Y0094368D03*
D14*
X0087441Y0107861D03*
X0080354Y0107861D03*
X0080470Y0116428D03*
X0087557Y0116428D03*
X0087525Y0125002D03*
X0080438Y0125002D03*
G36*
X0062545Y0139430D02*
X0065504Y0140508D01*
X0067119Y0136070D01*
X0064160Y0134992D01*
X0062545Y0139430D01*
G37*
G36*
X0069205Y0141854D02*
X0072164Y0142932D01*
X0073779Y0138494D01*
X0070820Y0137416D01*
X0069205Y0141854D01*
G37*
X0054849Y0117285D03*
X0047762Y0117285D03*
X0051627Y0086950D03*
X0058713Y0086950D03*
X0067861Y0051291D03*
X0067876Y0045271D03*
X0067876Y0039230D03*
X0060789Y0039230D03*
X0060789Y0045271D03*
X0074948Y0051291D03*
X0079412Y0049839D03*
X0086499Y0049839D03*
X0086532Y0043978D03*
X0086539Y0038036D03*
X0082009Y0038011D03*
X0074923Y0038011D03*
X0093626Y0038036D03*
X0093618Y0043978D03*
X0102020Y0053454D03*
X0109107Y0053454D03*
X0109107Y0065265D03*
X0102020Y0065265D03*
D15*
X0032729Y0042036D03*
X0032729Y0049123D03*
X0032729Y0055816D03*
X0032729Y0062903D03*
X0023708Y0055985D03*
X0023708Y0048898D03*
X0033647Y0076552D03*
X0033647Y0083639D03*
X0043902Y0083649D03*
X0043902Y0076562D03*
D16*
X0047568Y0098727D03*
X0051309Y0098727D03*
X0055049Y0098727D03*
X0055049Y0108964D03*
X0047568Y0108964D03*
D17*
X0022627Y0085516D03*
X0022627Y0082957D03*
X0022627Y0080398D03*
X0022627Y0077839D03*
X0022627Y0075280D03*
D18*
X0011997Y0076461D03*
X0011997Y0084335D03*
D19*
X0086494Y0031798D03*
X0086494Y0005798D03*
D20*
X0083915Y0063021D03*
D21*
X0083915Y0070321D03*
X0085865Y0070321D03*
X0087865Y0070321D03*
X0081965Y0070321D03*
X0079965Y0070321D03*
X0079965Y0055721D03*
X0081965Y0055721D03*
X0083915Y0055721D03*
X0085865Y0055721D03*
X0087865Y0055721D03*
D22*
X0091215Y0059071D03*
X0091215Y0061071D03*
X0091215Y0063021D03*
X0091215Y0064971D03*
X0091215Y0066971D03*
X0076615Y0066971D03*
X0076615Y0064971D03*
X0076615Y0063021D03*
X0076615Y0061071D03*
X0076615Y0059071D03*
D23*
G36*
X0024553Y0114966D02*
X0027335Y0117748D01*
X0029563Y0115520D01*
X0026781Y0112738D01*
X0024553Y0114966D01*
G37*
G36*
X0018428Y0121091D02*
X0021210Y0123873D01*
X0023438Y0121645D01*
X0020656Y0118863D01*
X0018428Y0121091D01*
G37*
G36*
X0041535Y0144197D02*
X0044317Y0146979D01*
X0046545Y0144751D01*
X0043763Y0141969D01*
X0041535Y0144197D01*
G37*
G36*
X0047659Y0138072D02*
X0050441Y0140854D01*
X0052669Y0138626D01*
X0049887Y0135844D01*
X0047659Y0138072D01*
G37*
D24*
G36*
X0045014Y0130972D02*
X0046963Y0132921D01*
X0051138Y0128746D01*
X0049189Y0126797D01*
X0045014Y0130972D01*
G37*
G36*
X0036663Y0122620D02*
X0038612Y0124569D01*
X0042787Y0120394D01*
X0040838Y0118445D01*
X0036663Y0122620D01*
G37*
G36*
X0032487Y0118444D02*
X0034436Y0120393D01*
X0038611Y0116218D01*
X0036662Y0114269D01*
X0032487Y0118444D01*
G37*
D25*
X0045145Y0066721D03*
X0045145Y0057666D03*
X0059712Y0057666D03*
X0059712Y0066721D03*
D26*
X0061532Y0100120D02*
X0064288Y0100120D01*
X0064288Y0097364D01*
X0061532Y0097364D01*
X0061532Y0100120D01*
X0061532Y0098544D02*
X0064288Y0098544D01*
X0064288Y0099724D02*
X0061532Y0099724D01*
X0061532Y0107025D02*
X0064288Y0107025D01*
X0064288Y0104269D01*
X0061532Y0104269D01*
X0061532Y0107025D01*
X0061532Y0105449D02*
X0064288Y0105449D01*
X0064288Y0106629D02*
X0061532Y0106629D01*
M02*
