G75*
%MOIN*%
%OFA0B0*%
%FSLAX25Y25*%
%IPPOS*%
%LPD*%
%AMOC8*
5,1,8,0,0,1.08239X$1,22.5*
%
%ADD10C,0.00500*%
%ADD11C,0.00600*%
%ADD12C,0.00800*%
%ADD13C,0.01000*%
%ADD14C,0.01600*%
D10*
X0038170Y0057932D02*
X0039972Y0057932D01*
X0040422Y0058382D01*
X0040422Y0059283D01*
X0039972Y0059733D01*
X0040422Y0060878D02*
X0038621Y0062680D01*
X0038170Y0062680D01*
X0037720Y0062229D01*
X0037720Y0061328D01*
X0038170Y0060878D01*
X0038170Y0059733D02*
X0037720Y0059283D01*
X0037720Y0058382D01*
X0038170Y0057932D01*
X0040422Y0060878D02*
X0040422Y0062680D01*
X0039643Y0071567D02*
X0037841Y0071567D01*
X0037391Y0072018D01*
X0037391Y0072918D01*
X0037841Y0073369D01*
X0038291Y0074514D02*
X0037391Y0075414D01*
X0040093Y0075414D01*
X0040093Y0074514D02*
X0040093Y0076315D01*
X0039643Y0073369D02*
X0040093Y0072918D01*
X0040093Y0072018D01*
X0039643Y0071567D01*
X0051917Y0075816D02*
X0051917Y0077168D01*
X0052818Y0078068D01*
X0052818Y0078519D01*
X0053963Y0077618D02*
X0054864Y0078519D01*
X0054864Y0075816D01*
X0053963Y0075816D02*
X0055765Y0075816D01*
X0051917Y0077168D02*
X0051017Y0078068D01*
X0051017Y0078519D01*
X0058264Y0065345D02*
X0057814Y0064895D01*
X0057814Y0063093D01*
X0058264Y0062643D01*
X0059165Y0062643D01*
X0059615Y0063093D01*
X0060760Y0063994D02*
X0062562Y0063994D01*
X0062111Y0062643D02*
X0062111Y0065345D01*
X0060760Y0063994D01*
X0059615Y0064895D02*
X0059165Y0065345D01*
X0058264Y0065345D01*
X0058277Y0060262D02*
X0057827Y0059812D01*
X0057827Y0058011D01*
X0058277Y0057560D01*
X0059178Y0057560D01*
X0059628Y0058011D01*
X0060773Y0058011D02*
X0061223Y0057560D01*
X0062124Y0057560D01*
X0062575Y0058011D01*
X0062575Y0058461D01*
X0062124Y0058911D01*
X0061674Y0058911D01*
X0062124Y0058911D02*
X0062575Y0059362D01*
X0062575Y0059812D01*
X0062124Y0060262D01*
X0061223Y0060262D01*
X0060773Y0059812D01*
X0059628Y0059812D02*
X0059178Y0060262D01*
X0058277Y0060262D01*
X0075983Y0061216D02*
X0075983Y0058514D01*
X0077785Y0058514D01*
X0078930Y0058514D02*
X0080732Y0060316D01*
X0080732Y0060766D01*
X0080281Y0061216D01*
X0079380Y0061216D01*
X0078930Y0060766D01*
X0078930Y0058514D02*
X0080732Y0058514D01*
X0080600Y0055962D02*
X0081050Y0055511D01*
X0081050Y0054611D01*
X0080600Y0054160D01*
X0079699Y0054160D02*
X0079249Y0055061D01*
X0079249Y0055511D01*
X0079699Y0055962D01*
X0080600Y0055962D01*
X0079699Y0054160D02*
X0078348Y0054160D01*
X0078348Y0055962D01*
X0078798Y0053015D02*
X0078348Y0052565D01*
X0078348Y0051664D01*
X0078798Y0051214D01*
X0080600Y0051214D01*
X0081050Y0051664D01*
X0081050Y0052565D01*
X0080600Y0053015D01*
X0088383Y0059588D02*
X0091085Y0059588D01*
X0091085Y0061389D01*
X0090635Y0062534D02*
X0091085Y0062985D01*
X0091085Y0063886D01*
X0090635Y0064336D01*
X0090185Y0064336D01*
X0089734Y0063886D01*
X0089734Y0063435D01*
X0089734Y0063886D02*
X0089284Y0064336D01*
X0088834Y0064336D01*
X0088383Y0063886D01*
X0088383Y0062985D01*
X0088834Y0062534D01*
X0089374Y0067574D02*
X0091175Y0067574D01*
X0092320Y0067574D02*
X0094122Y0067574D01*
X0093221Y0067574D02*
X0093221Y0070277D01*
X0092320Y0069376D01*
X0089374Y0070277D02*
X0089374Y0067574D01*
X0100709Y0073651D02*
X0101160Y0073200D01*
X0102060Y0073200D01*
X0102511Y0073651D01*
X0103656Y0073200D02*
X0105457Y0073200D01*
X0104557Y0073200D02*
X0104557Y0075902D01*
X0103656Y0075002D01*
X0102511Y0075452D02*
X0102060Y0075902D01*
X0101160Y0075902D01*
X0100709Y0075452D01*
X0100709Y0073651D01*
X0106602Y0073651D02*
X0108404Y0075452D01*
X0108404Y0073651D01*
X0107953Y0073200D01*
X0107053Y0073200D01*
X0106602Y0073651D01*
X0106602Y0075452D01*
X0107053Y0075902D01*
X0107953Y0075902D01*
X0108404Y0075452D01*
X0107392Y0063600D02*
X0107392Y0060898D01*
X0106492Y0060898D02*
X0108293Y0060898D01*
X0106492Y0062699D02*
X0107392Y0063600D01*
X0105347Y0063150D02*
X0105347Y0062249D01*
X0104896Y0061799D01*
X0103545Y0061799D01*
X0104446Y0061799D02*
X0105347Y0060898D01*
X0103545Y0060898D02*
X0103545Y0063600D01*
X0104896Y0063600D01*
X0105347Y0063150D01*
X0102775Y0053574D02*
X0101874Y0053124D01*
X0100973Y0052223D01*
X0102324Y0052223D01*
X0102775Y0051773D01*
X0102775Y0051322D01*
X0102324Y0050872D01*
X0101423Y0050872D01*
X0100973Y0051322D01*
X0100973Y0052223D01*
X0099828Y0051322D02*
X0099378Y0050872D01*
X0098477Y0050872D01*
X0098027Y0051322D01*
X0098027Y0053124D01*
X0098477Y0053574D01*
X0099378Y0053574D01*
X0099828Y0053124D01*
X0084806Y0034609D02*
X0084806Y0033708D01*
X0084806Y0032563D02*
X0084806Y0030762D01*
X0084356Y0030762D02*
X0086157Y0030762D01*
X0084356Y0030762D02*
X0083455Y0031662D01*
X0084356Y0032563D01*
X0086157Y0032563D01*
X0086157Y0033708D02*
X0083455Y0033708D01*
X0083455Y0035510D01*
X0110757Y0089582D02*
X0110757Y0092284D01*
X0112108Y0092284D01*
X0112558Y0091833D01*
X0112558Y0090933D01*
X0112108Y0090482D01*
X0110757Y0090482D01*
X0111658Y0090482D02*
X0112558Y0089582D01*
X0113703Y0090933D02*
X0115505Y0090933D01*
X0115054Y0089582D02*
X0115054Y0092284D01*
X0113703Y0090933D01*
X0114089Y0096333D02*
X0113639Y0096783D01*
X0114089Y0096333D02*
X0114990Y0096333D01*
X0115440Y0096783D01*
X0115440Y0097684D01*
X0114990Y0098134D01*
X0114540Y0098134D01*
X0113639Y0097684D01*
X0113639Y0099035D01*
X0115440Y0099035D01*
X0112494Y0098585D02*
X0112494Y0097684D01*
X0112043Y0097234D01*
X0110692Y0097234D01*
X0111593Y0097234D02*
X0112494Y0096333D01*
X0110692Y0096333D02*
X0110692Y0099035D01*
X0112043Y0099035D01*
X0112494Y0098585D01*
X0112494Y0102968D02*
X0111593Y0103868D01*
X0112044Y0103868D02*
X0110692Y0103868D01*
X0110692Y0102968D02*
X0110692Y0105670D01*
X0112044Y0105670D01*
X0112494Y0105219D01*
X0112494Y0104319D01*
X0112044Y0103868D01*
X0113639Y0104319D02*
X0113639Y0103418D01*
X0114089Y0102968D01*
X0114990Y0102968D01*
X0115440Y0103418D01*
X0115440Y0103868D01*
X0114990Y0104319D01*
X0113639Y0104319D01*
X0114540Y0105219D01*
X0115440Y0105670D01*
X0087202Y0107079D02*
X0085400Y0107079D01*
X0086301Y0107079D02*
X0086301Y0109781D01*
X0085400Y0108880D01*
X0084255Y0109330D02*
X0084255Y0107529D01*
X0083805Y0107079D01*
X0082454Y0107079D01*
X0082454Y0109781D01*
X0083805Y0109781D01*
X0084255Y0109330D01*
X0058302Y0097693D02*
X0058302Y0097243D01*
X0056500Y0095442D01*
X0056500Y0094991D01*
X0055355Y0094991D02*
X0054455Y0095892D01*
X0054905Y0095892D02*
X0053554Y0095892D01*
X0053554Y0094991D02*
X0053554Y0097693D01*
X0054905Y0097693D01*
X0055355Y0097243D01*
X0055355Y0096342D01*
X0054905Y0095892D01*
X0056500Y0097693D02*
X0058302Y0097693D01*
X0040610Y0095870D02*
X0040159Y0095870D01*
X0038358Y0097671D01*
X0037907Y0097671D01*
X0037907Y0095870D01*
X0038358Y0094725D02*
X0037907Y0094274D01*
X0037907Y0093374D01*
X0038358Y0092923D01*
X0040159Y0092923D01*
X0040610Y0093374D01*
X0040610Y0094274D01*
X0040159Y0094725D01*
X0030158Y0094158D02*
X0030158Y0093258D01*
X0029708Y0092807D01*
X0027906Y0092807D01*
X0027456Y0093258D01*
X0027456Y0094158D01*
X0027906Y0094609D01*
X0027906Y0095754D02*
X0028357Y0095754D01*
X0028807Y0096204D01*
X0028807Y0097105D01*
X0029258Y0097555D01*
X0029708Y0097555D01*
X0030158Y0097105D01*
X0030158Y0096204D01*
X0029708Y0095754D01*
X0029258Y0095754D01*
X0028807Y0096204D01*
X0028807Y0097105D02*
X0028357Y0097555D01*
X0027906Y0097555D01*
X0027456Y0097105D01*
X0027456Y0096204D01*
X0027906Y0095754D01*
X0029708Y0094609D02*
X0030158Y0094158D01*
X0031556Y0117156D02*
X0032456Y0117156D01*
X0032006Y0117156D02*
X0032006Y0119858D01*
X0031556Y0119858D02*
X0032456Y0119858D01*
X0033520Y0119408D02*
X0033520Y0117606D01*
X0033970Y0117156D01*
X0034871Y0117156D01*
X0035321Y0117606D01*
X0036466Y0117156D02*
X0038268Y0117156D01*
X0037367Y0117156D02*
X0037367Y0119858D01*
X0036466Y0118957D01*
X0035321Y0119408D02*
X0034871Y0119858D01*
X0033970Y0119858D01*
X0033520Y0119408D01*
X0030409Y0131817D02*
X0049061Y0150469D01*
X0041823Y0157707D01*
X0023171Y0139055D01*
X0030409Y0131817D01*
X0048631Y0120070D02*
X0049531Y0120070D01*
X0049081Y0120070D02*
X0049081Y0117367D01*
X0048631Y0117367D02*
X0049531Y0117367D01*
X0050595Y0117818D02*
X0051045Y0117367D01*
X0051946Y0117367D01*
X0052396Y0117818D01*
X0053541Y0117367D02*
X0055343Y0119169D01*
X0055343Y0119619D01*
X0054893Y0120070D01*
X0053992Y0120070D01*
X0053541Y0119619D01*
X0052396Y0119619D02*
X0051946Y0120070D01*
X0051045Y0120070D01*
X0050595Y0119619D01*
X0050595Y0117818D01*
X0053541Y0117367D02*
X0055343Y0117367D01*
X0053808Y0135812D02*
X0052908Y0135812D01*
X0052457Y0136263D01*
X0051312Y0135812D02*
X0050411Y0136713D01*
X0050862Y0136713D02*
X0049511Y0136713D01*
X0049511Y0135812D02*
X0049511Y0138515D01*
X0050862Y0138515D01*
X0051312Y0138064D01*
X0051312Y0137164D01*
X0050862Y0136713D01*
X0052457Y0138064D02*
X0052908Y0138515D01*
X0053808Y0138515D01*
X0054259Y0138064D01*
X0054259Y0137614D01*
X0053808Y0137164D01*
X0054259Y0136713D01*
X0054259Y0136263D01*
X0053808Y0135812D01*
X0053808Y0137164D02*
X0053358Y0137164D01*
X0057962Y0148471D02*
X0057384Y0148740D01*
X0056768Y0150433D01*
X0057037Y0151010D01*
X0057884Y0151318D01*
X0058461Y0151049D01*
X0059537Y0151441D02*
X0059691Y0151017D01*
X0060268Y0150748D01*
X0061538Y0151210D01*
X0061846Y0150364D02*
X0061230Y0152057D01*
X0060653Y0152326D01*
X0059806Y0152018D01*
X0059537Y0151441D01*
X0060153Y0149748D02*
X0060730Y0149479D01*
X0061577Y0149787D01*
X0061846Y0150364D01*
X0059077Y0149356D02*
X0058808Y0148779D01*
X0057962Y0148471D01*
X0019834Y0069799D02*
X0019834Y0067998D01*
X0018032Y0069799D01*
X0017582Y0069799D01*
X0017131Y0069349D01*
X0017131Y0068448D01*
X0017582Y0067998D01*
X0017582Y0066853D02*
X0018482Y0066853D01*
X0018933Y0066403D01*
X0018933Y0065051D01*
X0019834Y0065051D02*
X0017131Y0065051D01*
X0017131Y0066403D01*
X0017582Y0066853D01*
X0018933Y0065952D02*
X0019834Y0066853D01*
D11*
X0030934Y0061664D02*
X0030934Y0059302D01*
X0035658Y0059302D02*
X0035658Y0061664D01*
X0026637Y0066163D02*
X0026637Y0068526D01*
X0021913Y0068526D02*
X0021913Y0066163D01*
X0030934Y0073081D02*
X0030934Y0075444D01*
X0035658Y0075444D02*
X0035658Y0073081D01*
X0036577Y0093818D02*
X0036577Y0096180D01*
X0031852Y0096180D02*
X0031852Y0093818D01*
X0042107Y0093827D02*
X0042107Y0096190D01*
X0046831Y0096190D02*
X0046831Y0093827D01*
X0054556Y0099491D02*
X0056918Y0099491D01*
X0056918Y0104216D02*
X0054556Y0104216D01*
X0053054Y0129826D02*
X0050691Y0129826D01*
X0050691Y0134550D02*
X0053054Y0134550D01*
X0068427Y0151242D02*
X0070647Y0152050D01*
X0069031Y0156489D02*
X0066811Y0155681D01*
X0102105Y0148138D02*
X0102105Y0121937D01*
X0129704Y0121937D01*
X0129704Y0149535D01*
X0103503Y0149535D01*
X0102105Y0148138D01*
X0103691Y0146536D02*
X0103693Y0146611D01*
X0103699Y0146685D01*
X0103709Y0146759D01*
X0103722Y0146832D01*
X0103740Y0146905D01*
X0103761Y0146976D01*
X0103786Y0147047D01*
X0103815Y0147116D01*
X0103848Y0147183D01*
X0103884Y0147248D01*
X0103923Y0147312D01*
X0103965Y0147373D01*
X0104011Y0147432D01*
X0104060Y0147489D01*
X0104112Y0147542D01*
X0104166Y0147593D01*
X0104223Y0147642D01*
X0104283Y0147686D01*
X0104345Y0147728D01*
X0104409Y0147767D01*
X0104475Y0147802D01*
X0104542Y0147833D01*
X0104612Y0147861D01*
X0104682Y0147885D01*
X0104754Y0147906D01*
X0104827Y0147922D01*
X0104900Y0147935D01*
X0104975Y0147944D01*
X0105049Y0147949D01*
X0105124Y0147950D01*
X0105198Y0147947D01*
X0105273Y0147940D01*
X0105346Y0147929D01*
X0105420Y0147915D01*
X0105492Y0147896D01*
X0105563Y0147874D01*
X0105633Y0147848D01*
X0105702Y0147818D01*
X0105768Y0147785D01*
X0105833Y0147748D01*
X0105896Y0147708D01*
X0105957Y0147664D01*
X0106015Y0147618D01*
X0106071Y0147568D01*
X0106124Y0147516D01*
X0106175Y0147461D01*
X0106222Y0147403D01*
X0106266Y0147343D01*
X0106307Y0147280D01*
X0106345Y0147216D01*
X0106379Y0147150D01*
X0106410Y0147081D01*
X0106437Y0147012D01*
X0106460Y0146941D01*
X0106479Y0146869D01*
X0106495Y0146796D01*
X0106507Y0146722D01*
X0106515Y0146648D01*
X0106519Y0146573D01*
X0106519Y0146499D01*
X0106515Y0146424D01*
X0106507Y0146350D01*
X0106495Y0146276D01*
X0106479Y0146203D01*
X0106460Y0146131D01*
X0106437Y0146060D01*
X0106410Y0145991D01*
X0106379Y0145922D01*
X0106345Y0145856D01*
X0106307Y0145792D01*
X0106266Y0145729D01*
X0106222Y0145669D01*
X0106175Y0145611D01*
X0106124Y0145556D01*
X0106071Y0145504D01*
X0106015Y0145454D01*
X0105957Y0145408D01*
X0105896Y0145364D01*
X0105833Y0145324D01*
X0105768Y0145287D01*
X0105702Y0145254D01*
X0105633Y0145224D01*
X0105563Y0145198D01*
X0105492Y0145176D01*
X0105420Y0145157D01*
X0105346Y0145143D01*
X0105273Y0145132D01*
X0105198Y0145125D01*
X0105124Y0145122D01*
X0105049Y0145123D01*
X0104975Y0145128D01*
X0104900Y0145137D01*
X0104827Y0145150D01*
X0104754Y0145166D01*
X0104682Y0145187D01*
X0104612Y0145211D01*
X0104542Y0145239D01*
X0104475Y0145270D01*
X0104409Y0145305D01*
X0104345Y0145344D01*
X0104283Y0145386D01*
X0104223Y0145430D01*
X0104166Y0145479D01*
X0104112Y0145530D01*
X0104060Y0145583D01*
X0104011Y0145640D01*
X0103965Y0145699D01*
X0103923Y0145760D01*
X0103884Y0145824D01*
X0103848Y0145889D01*
X0103815Y0145956D01*
X0103786Y0146025D01*
X0103761Y0146096D01*
X0103740Y0146167D01*
X0103722Y0146240D01*
X0103709Y0146313D01*
X0103699Y0146387D01*
X0103693Y0146461D01*
X0103691Y0146536D01*
X0120770Y0106835D02*
X0123132Y0106835D01*
X0123132Y0102110D02*
X0120770Y0102110D01*
X0120801Y0100229D02*
X0123163Y0100229D01*
X0123163Y0095505D02*
X0120801Y0095505D01*
X0120685Y0093630D02*
X0123048Y0093630D01*
X0123048Y0088906D02*
X0120685Y0088906D01*
X0120510Y0077367D02*
X0118242Y0077367D01*
X0118242Y0073964D01*
X0118242Y0075665D02*
X0119376Y0075665D01*
X0121925Y0073964D02*
X0123059Y0073964D01*
X0122492Y0073964D02*
X0122492Y0077367D01*
X0121925Y0077367D01*
X0124380Y0075665D02*
X0124380Y0074531D01*
X0124947Y0073964D01*
X0126082Y0073964D01*
X0126649Y0074531D01*
X0126649Y0075665D01*
X0126082Y0076233D01*
X0124947Y0076233D01*
X0124380Y0075665D01*
X0128063Y0076233D02*
X0128063Y0074531D01*
X0128631Y0073964D01*
X0129198Y0074531D01*
X0129765Y0073964D01*
X0130332Y0074531D01*
X0130332Y0076233D01*
X0131747Y0075665D02*
X0132314Y0076233D01*
X0133448Y0076233D01*
X0134015Y0075665D01*
X0134015Y0075098D01*
X0131747Y0075098D01*
X0131747Y0074531D02*
X0131747Y0075665D01*
X0131747Y0074531D02*
X0132314Y0073964D01*
X0133448Y0073964D01*
X0135430Y0073964D02*
X0135430Y0076233D01*
X0136564Y0076233D02*
X0137131Y0076233D01*
X0136564Y0076233D02*
X0135430Y0075098D01*
X0138499Y0075665D02*
X0139633Y0075665D01*
X0138499Y0073964D02*
X0138499Y0077367D01*
X0140768Y0077367D01*
X0142182Y0076233D02*
X0142182Y0073964D01*
X0142182Y0075098D02*
X0143316Y0076233D01*
X0143884Y0076233D01*
X0145251Y0076233D02*
X0145819Y0076233D01*
X0145819Y0073964D01*
X0146386Y0073964D02*
X0145251Y0073964D01*
X0147707Y0074531D02*
X0147707Y0075665D01*
X0148274Y0076233D01*
X0149408Y0076233D01*
X0149975Y0075665D01*
X0149975Y0075098D01*
X0147707Y0075098D01*
X0147707Y0074531D02*
X0148274Y0073964D01*
X0149408Y0073964D01*
X0151390Y0073964D02*
X0151390Y0076233D01*
X0153091Y0076233D01*
X0153659Y0075665D01*
X0153659Y0073964D01*
X0155073Y0074531D02*
X0155073Y0075665D01*
X0155640Y0076233D01*
X0157342Y0076233D01*
X0157342Y0077367D02*
X0157342Y0073964D01*
X0155640Y0073964D01*
X0155073Y0074531D01*
X0145819Y0077367D02*
X0145819Y0077934D01*
X0137084Y0071367D02*
X0134816Y0071367D01*
X0134816Y0069665D01*
X0135950Y0070233D01*
X0136517Y0070233D01*
X0137084Y0069665D01*
X0137084Y0068531D01*
X0136517Y0067964D01*
X0135383Y0067964D01*
X0134816Y0068531D01*
X0134676Y0065367D02*
X0133541Y0065367D01*
X0132974Y0064800D01*
X0131560Y0065367D02*
X0129291Y0061964D01*
X0127877Y0061964D02*
X0125608Y0061964D01*
X0126742Y0061964D02*
X0126742Y0065367D01*
X0125608Y0064233D01*
X0124193Y0065367D02*
X0121925Y0061964D01*
X0120510Y0062531D02*
X0120510Y0063098D01*
X0119943Y0063665D01*
X0118242Y0063665D01*
X0118242Y0062531D01*
X0118809Y0061964D01*
X0119943Y0061964D01*
X0120510Y0062531D01*
X0118242Y0063665D02*
X0119376Y0064800D01*
X0120510Y0065367D01*
X0120510Y0067964D02*
X0119376Y0069098D01*
X0119943Y0069098D02*
X0118242Y0069098D01*
X0118242Y0067964D02*
X0118242Y0071367D01*
X0119943Y0071367D01*
X0120510Y0070800D01*
X0120510Y0069665D01*
X0119943Y0069098D01*
X0121925Y0069098D02*
X0124193Y0069098D01*
X0124193Y0069665D01*
X0123626Y0070233D01*
X0122492Y0070233D01*
X0121925Y0069665D01*
X0121925Y0068531D01*
X0122492Y0067964D01*
X0123626Y0067964D01*
X0125608Y0070233D02*
X0126742Y0067964D01*
X0127877Y0070233D01*
X0129291Y0068531D02*
X0129858Y0068531D01*
X0129858Y0067964D01*
X0129291Y0067964D01*
X0129291Y0068531D01*
X0134676Y0065367D02*
X0135243Y0064800D01*
X0135243Y0064233D01*
X0132974Y0061964D01*
X0135243Y0061964D01*
X0136657Y0062531D02*
X0138926Y0064800D01*
X0138926Y0062531D01*
X0138359Y0061964D01*
X0137225Y0061964D01*
X0136657Y0062531D01*
X0136657Y0064800D01*
X0137225Y0065367D01*
X0138359Y0065367D01*
X0138926Y0064800D01*
X0140341Y0064233D02*
X0141475Y0065367D01*
X0141475Y0061964D01*
X0140341Y0061964D02*
X0142609Y0061964D01*
X0144024Y0062531D02*
X0144591Y0061964D01*
X0145725Y0061964D01*
X0146292Y0062531D01*
X0146292Y0063665D01*
X0145725Y0064233D01*
X0145158Y0064233D01*
X0144024Y0063665D01*
X0144024Y0065367D01*
X0146292Y0065367D01*
X0107312Y0065995D02*
X0104950Y0065995D01*
X0104950Y0070719D02*
X0107312Y0070719D01*
X0107312Y0077806D02*
X0104950Y0077806D01*
X0104950Y0082530D02*
X0107312Y0082530D01*
D12*
X0094524Y0095034D02*
X0094524Y0096034D01*
X0094524Y0095034D02*
X0094324Y0095034D01*
X0094324Y0095054D01*
X0074834Y0095054D01*
X0074834Y0095964D01*
X0074724Y0101934D02*
X0074724Y0105334D01*
X0084724Y0115334D01*
X0094404Y0115534D02*
X0094404Y0115544D01*
X0074844Y0115544D01*
X0074844Y0114654D01*
X0074724Y0108734D02*
X0074724Y0105334D01*
X0065288Y0116428D02*
X0063477Y0116428D01*
X0062557Y0117649D01*
X0061666Y0116428D02*
X0063477Y0116428D01*
X0063577Y0116489D02*
X0064337Y0117649D01*
X0056876Y0117058D02*
X0056876Y0120439D01*
X0052933Y0121539D02*
X0050819Y0121539D01*
X0046876Y0120439D02*
X0046876Y0117058D01*
X0040423Y0115892D02*
X0040423Y0119042D01*
X0040423Y0115892D02*
X0038061Y0115892D01*
X0031762Y0115892D02*
X0029400Y0115892D01*
X0029400Y0119042D01*
X0050634Y0083396D02*
X0055358Y0083396D01*
X0062839Y0078278D02*
X0062839Y0075916D01*
X0055358Y0070798D02*
X0050634Y0070798D01*
X0043153Y0075916D02*
X0043153Y0078278D01*
X0080375Y0042693D02*
X0080375Y0023693D01*
X0083375Y0026193D02*
X0084875Y0024693D01*
X0086375Y0026193D01*
X0084875Y0024693D02*
X0084875Y0028193D01*
X0089375Y0023693D02*
X0089375Y0042693D01*
X0092356Y0087373D02*
X0090387Y0089342D01*
X0094724Y0102134D02*
X0094724Y0108834D01*
X0094604Y0114464D02*
X0094604Y0115534D01*
X0094404Y0115534D01*
X0063614Y0158939D02*
X0058835Y0157469D01*
X0055710Y0159123D01*
X0054240Y0163902D01*
X0055894Y0167027D01*
X0060673Y0168497D01*
X0063798Y0166843D01*
X0065452Y0169967D01*
X0070231Y0171437D01*
X0073356Y0169783D01*
X0074826Y0165004D01*
X0073172Y0161880D01*
X0068393Y0160409D01*
X0065268Y0162064D01*
X0063614Y0158939D01*
X0138725Y0107476D02*
X0138725Y0102476D01*
X0141225Y0099976D01*
X0156225Y0099976D01*
X0158725Y0102476D01*
X0158725Y0107476D01*
X0156225Y0109976D01*
X0141225Y0109976D01*
X0138725Y0107476D01*
X0141225Y0099976D02*
X0138725Y0097476D01*
X0138725Y0092476D01*
X0141225Y0089976D01*
X0156225Y0089976D01*
X0158725Y0092476D01*
X0158725Y0097476D01*
X0156225Y0099976D01*
X0156225Y0089976D02*
X0158725Y0087476D01*
X0158725Y0082476D01*
X0156225Y0079976D01*
X0141225Y0079976D01*
X0138725Y0082476D01*
X0138725Y0087476D01*
X0141225Y0089976D01*
X0160044Y0087476D02*
X0160044Y0082476D01*
D13*
X0045576Y0114749D03*
D14*
X0069268Y0064526D02*
X0069268Y0064286D01*
X0069281Y0059443D02*
X0069281Y0059203D01*
X0084751Y0053790D02*
X0084991Y0053790D01*
X0091965Y0051929D02*
X0091965Y0051689D01*
M02*
