%
M48
M72
T01C0.0130
T02C0.0335
T03C0.0354
T04C0.0400
T05C0.0551
T06C0.1260
%
T01
X5613Y5576
X9668Y5930
X11519Y7111
X12424Y8253
X10180Y9080
X13369Y11068
X11834Y13174
X6125Y12859
X4353Y10851
X3408Y10930
X5574Y10773
T02
X2319Y10514
X2319Y8546
T03
X3194Y14059
X4029Y14894
T04
X5975Y16298
X6931Y16592
X14373Y10498
X15373Y10498
X15373Y9498
X15373Y8498
X14373Y8498
X14373Y9498
T05
X1261Y8152
X1256Y10910
T06
X8646Y16514
M30
