G75*
%MOIN*%
%OFA0B0*%
%FSLAX25Y25*%
%IPPOS*%
%LPD*%
%AMOC8*
5,1,8,0,0,1.08239X$1,22.5*
%
%ADD10C,0.00600*%
%ADD11R,0.05000X0.02200*%
%ADD12R,0.02200X0.05000*%
%ADD13R,0.03150X0.03543*%
%ADD14R,0.06500X0.03937*%
%ADD15R,0.03150X0.04724*%
%ADD16R,0.04724X0.03150*%
%ADD17C,0.07400*%
%ADD18R,0.02165X0.04724*%
%ADD19C,0.05709*%
%ADD20R,0.05315X0.01575*%
%ADD21R,0.07480X0.05906*%
%ADD22C,0.08268*%
%ADD23R,0.10000X0.04000*%
%ADD24R,0.03937X0.03937*%
%ADD25R,0.02559X0.01181*%
%ADD26R,0.01181X0.02559*%
%ADD27OC8,0.07400*%
%ADD28R,0.03937X0.03150*%
%ADD29R,0.02756X0.05906*%
%ADD30R,0.07480X0.04331*%
%ADD31C,0.01181*%
%ADD32R,0.03346X0.03543*%
%ADD33R,0.03543X0.03346*%
%ADD34R,0.02756X0.03543*%
%ADD35R,0.03543X0.02756*%
%ADD36C,0.00394*%
%ADD37C,0.01000*%
%ADD38C,0.01200*%
%ADD39C,0.02700*%
%ADD40C,0.01600*%
D10*
X0024132Y0008633D02*
X0024132Y0010902D01*
X0025266Y0012036D01*
X0026401Y0010902D01*
X0026401Y0008633D01*
X0027815Y0008633D02*
X0027815Y0012036D01*
X0030084Y0008633D01*
X0030084Y0012036D01*
X0031498Y0012036D02*
X0033767Y0012036D01*
X0032633Y0012036D02*
X0032633Y0008633D01*
X0035182Y0008633D02*
X0037450Y0008633D01*
X0038865Y0008633D02*
X0038865Y0012036D01*
X0041133Y0008633D01*
X0041133Y0012036D01*
X0042548Y0012036D02*
X0044816Y0008633D01*
X0044816Y0012036D01*
X0046231Y0010902D02*
X0047365Y0012036D01*
X0048500Y0010902D01*
X0048500Y0008633D01*
X0048500Y0010335D02*
X0046231Y0010335D01*
X0046231Y0010902D02*
X0046231Y0008633D01*
X0046658Y0006036D02*
X0044389Y0006036D01*
X0045524Y0006036D02*
X0045524Y0002633D01*
X0042975Y0003200D02*
X0042975Y0005469D01*
X0042408Y0006036D01*
X0041273Y0006036D01*
X0040706Y0005469D01*
X0040706Y0003200D01*
X0041273Y0002633D01*
X0042408Y0002633D01*
X0042975Y0003200D01*
X0039292Y0002633D02*
X0039292Y0006036D01*
X0037023Y0006036D02*
X0037023Y0002633D01*
X0039292Y0002633D02*
X0037023Y0006036D01*
X0035182Y0008633D02*
X0035182Y0012036D01*
X0037450Y0012036D01*
X0036316Y0010335D02*
X0035182Y0010335D01*
X0031358Y0006036D02*
X0031925Y0005469D01*
X0031925Y0003200D01*
X0031358Y0002633D01*
X0030224Y0002633D01*
X0029657Y0003200D01*
X0029657Y0005469D01*
X0030224Y0006036D01*
X0031358Y0006036D01*
X0028242Y0005469D02*
X0028242Y0003200D01*
X0027675Y0002633D01*
X0025974Y0002633D01*
X0025974Y0006036D01*
X0027675Y0006036D01*
X0028242Y0005469D01*
X0026401Y0010335D02*
X0024132Y0010335D01*
X0042548Y0008633D02*
X0042548Y0012036D01*
X0051756Y0006036D02*
X0051756Y0002633D01*
X0051756Y0003768D02*
X0053457Y0003768D01*
X0054024Y0004335D01*
X0054024Y0005469D01*
X0053457Y0006036D01*
X0051756Y0006036D01*
X0053597Y0008633D02*
X0053597Y0012036D01*
X0054164Y0010335D02*
X0055866Y0008633D01*
X0057280Y0008633D02*
X0059549Y0008633D01*
X0060964Y0008633D02*
X0063232Y0008633D01*
X0064647Y0008633D02*
X0064647Y0012036D01*
X0066348Y0012036D01*
X0066915Y0011469D01*
X0066915Y0010335D01*
X0066348Y0009768D01*
X0064647Y0009768D01*
X0063232Y0012036D02*
X0060964Y0012036D01*
X0060964Y0008633D01*
X0060964Y0010335D02*
X0062098Y0010335D01*
X0059549Y0012036D02*
X0057280Y0012036D01*
X0057280Y0008633D01*
X0057280Y0010335D02*
X0058415Y0010335D01*
X0055866Y0012036D02*
X0053597Y0009768D01*
X0055439Y0006036D02*
X0055439Y0002633D01*
X0057707Y0002633D01*
X0059122Y0002633D02*
X0059122Y0004902D01*
X0060256Y0006036D01*
X0061391Y0004902D01*
X0061391Y0002633D01*
X0062805Y0003200D02*
X0063372Y0002633D01*
X0064507Y0002633D01*
X0065074Y0003200D01*
X0066488Y0002633D02*
X0068757Y0002633D01*
X0067623Y0004335D02*
X0066488Y0004335D01*
X0066488Y0006036D02*
X0066488Y0002633D01*
X0065074Y0005469D02*
X0064507Y0006036D01*
X0063372Y0006036D01*
X0062805Y0005469D01*
X0062805Y0003200D01*
X0061391Y0004335D02*
X0059122Y0004335D01*
X0066488Y0006036D02*
X0068757Y0006036D01*
X0068897Y0008633D02*
X0070031Y0008633D01*
X0070598Y0009200D01*
X0070598Y0011469D01*
X0070031Y0012036D01*
X0068897Y0012036D01*
X0068330Y0011469D01*
X0068330Y0009200D01*
X0068897Y0008633D01*
X0072013Y0009200D02*
X0072013Y0012036D01*
X0074282Y0012036D02*
X0074282Y0009200D01*
X0073714Y0008633D01*
X0072580Y0008633D01*
X0072013Y0009200D01*
X0074422Y0006036D02*
X0073855Y0005469D01*
X0073855Y0003200D01*
X0074422Y0002633D01*
X0075556Y0002633D01*
X0076123Y0003200D01*
X0077538Y0003200D02*
X0078105Y0002633D01*
X0079239Y0002633D01*
X0079806Y0003200D01*
X0079806Y0005469D01*
X0079239Y0006036D01*
X0078105Y0006036D01*
X0077538Y0005469D01*
X0077538Y0003200D01*
X0076123Y0005469D02*
X0075556Y0006036D01*
X0074422Y0006036D01*
X0076830Y0008633D02*
X0076830Y0012036D01*
X0075696Y0012036D02*
X0077965Y0012036D01*
X0083062Y0010902D02*
X0083062Y0008633D01*
X0083062Y0010335D02*
X0085331Y0010335D01*
X0085331Y0010902D02*
X0084197Y0012036D01*
X0083062Y0010902D01*
X0085331Y0010902D02*
X0085331Y0008633D01*
X0084904Y0006036D02*
X0086605Y0006036D01*
X0087173Y0005469D01*
X0087173Y0004335D01*
X0086605Y0003768D01*
X0084904Y0003768D01*
X0084904Y0002633D02*
X0084904Y0006036D01*
X0083490Y0005469D02*
X0083490Y0004335D01*
X0082922Y0003768D01*
X0081221Y0003768D01*
X0081221Y0002633D02*
X0081221Y0006036D01*
X0082922Y0006036D01*
X0083490Y0005469D01*
X0088587Y0006036D02*
X0088587Y0002633D01*
X0090856Y0002633D01*
X0092270Y0002633D02*
X0092270Y0006036D01*
X0093972Y0006036D01*
X0094539Y0005469D01*
X0094539Y0004335D01*
X0093972Y0003768D01*
X0092270Y0003768D01*
X0093405Y0003768D02*
X0094539Y0002633D01*
X0090856Y0006036D02*
X0088587Y0006036D01*
X0088587Y0004335D02*
X0089721Y0004335D01*
X0087880Y0008633D02*
X0087880Y0012036D01*
X0086746Y0012036D02*
X0089014Y0012036D01*
X0094112Y0012036D02*
X0094112Y0008633D01*
X0095813Y0008633D01*
X0096381Y0009200D01*
X0096381Y0009768D01*
X0095813Y0010335D01*
X0094112Y0010335D01*
X0094112Y0012036D02*
X0095813Y0012036D01*
X0096381Y0011469D01*
X0096381Y0010902D01*
X0095813Y0010335D01*
X0097795Y0011469D02*
X0097795Y0009200D01*
X0098362Y0008633D01*
X0099497Y0008633D01*
X0100064Y0009200D01*
X0100064Y0011469D01*
X0099497Y0012036D01*
X0098362Y0012036D01*
X0097795Y0011469D01*
X0101478Y0012036D02*
X0103747Y0012036D01*
X0102612Y0012036D02*
X0102612Y0008633D01*
X0101905Y0006036D02*
X0099637Y0006036D01*
X0100771Y0006036D02*
X0100771Y0002633D01*
X0103320Y0003200D02*
X0103320Y0005469D01*
X0103887Y0006036D01*
X0105021Y0006036D01*
X0105588Y0005469D01*
X0105588Y0003200D01*
X0105021Y0002633D01*
X0103887Y0002633D01*
X0103320Y0003200D01*
X0107003Y0002633D02*
X0107003Y0006036D01*
X0108704Y0006036D01*
X0109272Y0005469D01*
X0109272Y0004335D01*
X0108704Y0003768D01*
X0107003Y0003768D01*
X0106296Y0008633D02*
X0106296Y0012036D01*
X0107430Y0012036D02*
X0105161Y0012036D01*
X0108844Y0011469D02*
X0108844Y0009200D01*
X0109412Y0008633D01*
X0110546Y0008633D01*
X0111113Y0009200D01*
X0111113Y0011469D01*
X0110546Y0012036D01*
X0109412Y0012036D01*
X0108844Y0011469D01*
X0112528Y0012036D02*
X0112528Y0008633D01*
X0114796Y0008633D02*
X0114796Y0012036D01*
X0113662Y0010902D01*
X0112528Y0012036D01*
X0114936Y0006036D02*
X0114369Y0005469D01*
X0114369Y0003200D01*
X0114936Y0002633D01*
X0116071Y0002633D01*
X0116638Y0003200D01*
X0116638Y0005469D01*
X0116071Y0006036D01*
X0114936Y0006036D01*
X0118052Y0006036D02*
X0119754Y0006036D01*
X0120321Y0005469D01*
X0120321Y0004335D01*
X0119754Y0003768D01*
X0118052Y0003768D01*
X0119187Y0003768D02*
X0120321Y0002633D01*
X0118052Y0002633D02*
X0118052Y0006036D01*
X0120461Y0008633D02*
X0119894Y0009200D01*
X0119894Y0011469D01*
X0120461Y0012036D01*
X0121595Y0012036D01*
X0122163Y0011469D01*
X0122163Y0009200D01*
X0121595Y0008633D01*
X0120461Y0008633D01*
X0123577Y0008633D02*
X0123577Y0012036D01*
X0125846Y0012036D01*
X0124711Y0010335D02*
X0123577Y0010335D01*
X0125419Y0006036D02*
X0127120Y0006036D01*
X0127687Y0005469D01*
X0127687Y0004902D01*
X0127120Y0004335D01*
X0125419Y0004335D01*
X0127120Y0004335D02*
X0127687Y0003768D01*
X0127687Y0003200D01*
X0127120Y0002633D01*
X0125419Y0002633D01*
X0125419Y0006036D01*
X0129102Y0005469D02*
X0129102Y0003200D01*
X0129669Y0002633D01*
X0130803Y0002633D01*
X0131370Y0003200D01*
X0131370Y0005469D01*
X0130803Y0006036D01*
X0129669Y0006036D01*
X0129102Y0005469D01*
X0130943Y0008633D02*
X0132645Y0008633D01*
X0133212Y0009200D01*
X0133212Y0009768D01*
X0132645Y0010335D01*
X0130943Y0010335D01*
X0130943Y0012036D02*
X0130943Y0008633D01*
X0132645Y0010335D02*
X0133212Y0010902D01*
X0133212Y0011469D01*
X0132645Y0012036D01*
X0130943Y0012036D01*
X0134627Y0011469D02*
X0134627Y0009200D01*
X0135194Y0008633D01*
X0136328Y0008633D01*
X0136895Y0009200D01*
X0136895Y0011469D01*
X0136328Y0012036D01*
X0135194Y0012036D01*
X0134627Y0011469D01*
X0138310Y0010902D02*
X0138310Y0008633D01*
X0138310Y0010335D02*
X0140578Y0010335D01*
X0140578Y0010902D02*
X0139444Y0012036D01*
X0138310Y0010902D01*
X0140578Y0010902D02*
X0140578Y0008633D01*
X0141993Y0008633D02*
X0141993Y0012036D01*
X0143694Y0012036D01*
X0144261Y0011469D01*
X0144261Y0010335D01*
X0143694Y0009768D01*
X0141993Y0009768D01*
X0143127Y0009768D02*
X0144261Y0008633D01*
X0145676Y0008633D02*
X0147377Y0008633D01*
X0147945Y0009200D01*
X0147945Y0011469D01*
X0147377Y0012036D01*
X0145676Y0012036D01*
X0145676Y0008633D01*
X0146103Y0006036D02*
X0146103Y0002633D01*
X0143834Y0002633D02*
X0143834Y0006036D01*
X0144969Y0004902D01*
X0146103Y0006036D01*
X0142420Y0005469D02*
X0142420Y0003200D01*
X0141853Y0002633D01*
X0140718Y0002633D01*
X0140151Y0003200D01*
X0140151Y0005469D01*
X0140718Y0006036D01*
X0141853Y0006036D01*
X0142420Y0005469D01*
X0138737Y0006036D02*
X0136468Y0006036D01*
X0137602Y0006036D02*
X0137602Y0002633D01*
X0133919Y0002633D02*
X0133919Y0006036D01*
X0132785Y0006036D02*
X0135054Y0006036D01*
X0102587Y0068357D02*
X0102194Y0068357D01*
X0093335Y0077215D01*
X0092351Y0077215D01*
X0091962Y0077531D01*
X0091962Y0083436D02*
X0092351Y0083613D01*
X0098749Y0083613D01*
X0102194Y0080168D01*
X0102587Y0080168D01*
X0101800Y0090798D02*
X0101782Y0090832D01*
X0101482Y0091132D01*
X0087082Y0091132D01*
X0086482Y0090532D01*
X0086450Y0090409D01*
X0086450Y0088948D01*
X0084682Y0089032D02*
X0084682Y0090532D01*
X0087382Y0093232D01*
X0116482Y0093232D01*
X0118282Y0091432D01*
X0118323Y0091268D01*
X0115481Y0088534D02*
X0116465Y0087550D01*
X0119910Y0087550D01*
X0122863Y0090503D01*
X0122863Y0098869D01*
X0121387Y0100345D01*
X0121387Y0113140D01*
X0118434Y0116093D01*
X0118434Y0118062D01*
X0117942Y0118554D01*
X0117480Y0118836D01*
X0120629Y0118836D02*
X0120629Y0129449D01*
X0118335Y0131743D01*
X0123779Y0118836D02*
X0123682Y0118732D01*
X0123682Y0107932D01*
X0122782Y0107032D01*
X0122782Y0100732D01*
X0125482Y0098032D01*
X0125525Y0097867D01*
X0125782Y0097732D01*
X0140782Y0097732D01*
X0143482Y0095032D01*
X0143725Y0094976D01*
X0140782Y0091132D02*
X0142282Y0089632D01*
X0145582Y0089632D01*
X0148882Y0086332D01*
X0148882Y0083032D01*
X0151582Y0080332D01*
X0155782Y0080332D01*
X0158482Y0083032D01*
X0158482Y0090232D01*
X0153982Y0094732D01*
X0153725Y0094976D01*
X0153682Y0095032D01*
X0148882Y0099832D01*
X0148882Y0106432D01*
X0132982Y0122332D01*
X0132982Y0124432D01*
X0132805Y0124713D01*
X0126928Y0118836D02*
X0126682Y0118732D01*
X0125782Y0117832D01*
X0125782Y0104632D01*
X0125494Y0104472D01*
X0126082Y0104632D01*
X0137482Y0104632D01*
X0142282Y0099832D01*
X0145582Y0099832D01*
X0148882Y0096532D01*
X0148882Y0093232D01*
X0153682Y0088432D01*
X0153725Y0084976D01*
X0153682Y0085132D01*
X0153682Y0088432D01*
X0140782Y0091132D02*
X0125482Y0091132D01*
X0125410Y0091268D01*
X0118439Y0097867D02*
X0118282Y0097732D01*
X0115282Y0094732D01*
X0087082Y0094732D01*
X0082582Y0090232D01*
X0082582Y0089032D01*
X0082513Y0088948D01*
X0080545Y0088948D02*
X0080540Y0089026D01*
X0080540Y0090503D01*
X0080782Y0090532D01*
X0086182Y0095932D01*
X0101782Y0095932D01*
X0107482Y0101632D01*
X0107607Y0101822D01*
X0108099Y0102314D01*
X0108099Y0102232D01*
X0116182Y0102232D01*
X0118282Y0104332D01*
X0118407Y0104472D01*
X0111082Y0116932D02*
X0096082Y0101932D01*
X0077482Y0101932D01*
X0074782Y0099232D01*
X0074579Y0099035D01*
X0084482Y0088948D02*
X0084682Y0089032D01*
X0088419Y0088948D02*
X0088906Y0088534D01*
X0115481Y0088534D01*
X0111082Y0116932D02*
X0111082Y0118732D01*
X0111180Y0118836D01*
X0116182Y0149032D02*
X0135682Y0149032D01*
X0153682Y0131032D01*
X0153682Y0105232D01*
X0153725Y0104976D01*
X0116182Y0149032D02*
X0114382Y0150832D01*
X0114382Y0152632D01*
X0114330Y0152636D01*
X0063382Y0120832D02*
X0063477Y0120550D01*
X0063382Y0120832D02*
X0058882Y0120832D01*
X0055882Y0123832D01*
X0055616Y0123867D01*
X0055582Y0123832D01*
X0053482Y0123832D01*
X0053473Y0123967D01*
X0048060Y0118554D01*
X0041170Y0125444D01*
X0036741Y0125444D01*
X0033788Y0122491D01*
X0033788Y0118062D01*
X0026898Y0111172D01*
X0033788Y0104282D01*
X0033982Y0104282D01*
X0033982Y0104332D01*
X0033982Y0104282D02*
X0033982Y0098932D01*
X0034214Y0098542D01*
X0033982Y0098632D01*
X0027382Y0098632D01*
X0025882Y0100132D01*
X0023482Y0100132D01*
X0023194Y0100419D01*
X0048382Y0105532D02*
X0051982Y0101932D01*
X0052194Y0101853D01*
X0048382Y0105532D02*
X0048382Y0113332D01*
X0048136Y0113630D01*
X0048136Y0123867D02*
X0048082Y0124132D01*
X0048082Y0131932D01*
X0048329Y0132188D01*
X0063382Y0113632D02*
X0063477Y0113645D01*
X0063382Y0113632D02*
X0063382Y0105832D01*
X0059482Y0101932D01*
X0059281Y0101853D01*
X0060279Y0081624D02*
X0060363Y0081152D01*
X0061839Y0079676D01*
X0076603Y0079676D01*
X0077002Y0079499D01*
D11*
X0099005Y0124713D03*
X0099005Y0127862D03*
X0099005Y0131012D03*
X0099005Y0134161D03*
X0099005Y0137311D03*
X0099005Y0140461D03*
X0099005Y0143610D03*
X0099005Y0146760D03*
X0132805Y0146760D03*
X0132805Y0143610D03*
X0132805Y0140461D03*
X0132805Y0137311D03*
X0132805Y0134161D03*
X0132805Y0131012D03*
X0132805Y0127862D03*
X0132805Y0124713D03*
D12*
X0126928Y0118836D03*
X0123779Y0118836D03*
X0120629Y0118836D03*
X0117480Y0118836D03*
X0114330Y0118836D03*
X0111180Y0118836D03*
X0108031Y0118836D03*
X0104881Y0118836D03*
X0104881Y0152636D03*
X0108031Y0152636D03*
X0111180Y0152636D03*
X0114330Y0152636D03*
X0117480Y0152636D03*
X0120629Y0152636D03*
X0123779Y0152636D03*
X0126928Y0152636D03*
D13*
X0038652Y0122585D03*
X0031171Y0122585D03*
X0034912Y0114317D03*
D14*
X0074579Y0111633D03*
X0074579Y0099035D03*
X0094870Y0099035D03*
X0094870Y0111633D03*
D15*
X0118407Y0104472D03*
X0118439Y0097867D03*
X0118323Y0091268D03*
X0125410Y0091268D03*
X0125525Y0097867D03*
X0125494Y0104472D03*
X0109674Y0080168D03*
X0102587Y0080168D03*
X0102587Y0068357D03*
X0109674Y0068357D03*
X0059281Y0101853D03*
X0052194Y0101853D03*
X0055416Y0132188D03*
X0048329Y0132188D03*
G36*
X0063113Y0154334D02*
X0066072Y0155412D01*
X0067687Y0150974D01*
X0064728Y0149896D01*
X0063113Y0154334D01*
G37*
G36*
X0069772Y0156757D02*
X0072731Y0157835D01*
X0074346Y0153397D01*
X0071387Y0152319D01*
X0069772Y0156757D01*
G37*
D16*
X0044469Y0098552D03*
X0044469Y0091465D03*
X0034214Y0091456D03*
X0034214Y0098542D03*
X0033296Y0077806D03*
X0033296Y0070719D03*
X0033296Y0064026D03*
X0033296Y0056940D03*
X0024275Y0063801D03*
X0024275Y0070888D03*
D17*
X0059754Y0162983D03*
X0069312Y0165923D03*
D18*
X0055616Y0123867D03*
X0048136Y0123867D03*
X0048136Y0113630D03*
X0051876Y0113630D03*
X0055616Y0113630D03*
D19*
X0023194Y0105144D03*
X0023194Y0085459D03*
D20*
X0023194Y0090183D03*
X0023194Y0092742D03*
X0023194Y0095301D03*
X0023194Y0097860D03*
X0023194Y0100419D03*
D21*
X0012564Y0099238D03*
X0012564Y0091364D03*
D22*
X0012605Y0081524D03*
X0012559Y0109096D03*
D23*
X0084875Y0046193D03*
X0084875Y0020193D03*
D24*
X0084482Y0081468D03*
D25*
X0091962Y0081468D03*
X0091962Y0083436D03*
X0091962Y0085405D03*
X0091962Y0079499D03*
X0091962Y0077531D03*
X0077002Y0077531D03*
X0077002Y0079499D03*
X0077002Y0081468D03*
X0077002Y0083436D03*
X0077002Y0085405D03*
D26*
X0080545Y0088948D03*
X0082513Y0088948D03*
X0084482Y0088948D03*
X0086450Y0088948D03*
X0088419Y0088948D03*
X0088419Y0073988D03*
X0086450Y0073988D03*
X0084482Y0073988D03*
X0082513Y0073988D03*
X0080545Y0073988D03*
D27*
X0143725Y0084976D03*
X0143725Y0094976D03*
X0153725Y0094976D03*
X0153725Y0084976D03*
X0153725Y0104976D03*
X0143725Y0104976D03*
D28*
G36*
X0048226Y0152976D02*
X0051008Y0155758D01*
X0053236Y0153530D01*
X0050454Y0150748D01*
X0048226Y0152976D01*
G37*
G36*
X0042102Y0159100D02*
X0044884Y0161882D01*
X0047112Y0159654D01*
X0044330Y0156872D01*
X0042102Y0159100D01*
G37*
G36*
X0018996Y0135994D02*
X0021778Y0138776D01*
X0024006Y0136548D01*
X0021224Y0133766D01*
X0018996Y0135994D01*
G37*
G36*
X0025120Y0129869D02*
X0027902Y0132651D01*
X0030130Y0130423D01*
X0027348Y0127641D01*
X0025120Y0129869D01*
G37*
D29*
G36*
X0033054Y0133347D02*
X0035003Y0135296D01*
X0039178Y0131121D01*
X0037229Y0129172D01*
X0033054Y0133347D01*
G37*
G36*
X0037230Y0137523D02*
X0039179Y0139472D01*
X0043354Y0135297D01*
X0041405Y0133348D01*
X0037230Y0137523D01*
G37*
G36*
X0045581Y0145875D02*
X0047530Y0147824D01*
X0051705Y0143649D01*
X0049756Y0141700D01*
X0045581Y0145875D01*
G37*
D30*
X0045713Y0081624D03*
X0045713Y0072569D03*
X0060279Y0072569D03*
X0060279Y0081624D03*
D31*
X0062099Y0115023D02*
X0064855Y0115023D01*
X0064855Y0112267D01*
X0062099Y0112267D01*
X0062099Y0115023D01*
X0062099Y0113447D02*
X0064855Y0113447D01*
X0064855Y0114627D02*
X0062099Y0114627D01*
X0062099Y0121928D02*
X0064855Y0121928D01*
X0064855Y0119172D01*
X0062099Y0119172D01*
X0062099Y0121928D01*
X0062099Y0120352D02*
X0064855Y0120352D01*
X0064855Y0121532D02*
X0062099Y0121532D01*
D32*
X0066984Y0064406D03*
X0071551Y0064406D03*
X0071564Y0059323D03*
X0066997Y0059323D03*
X0089682Y0051809D03*
X0094249Y0051809D03*
D33*
X0084871Y0051507D03*
X0084871Y0056073D03*
D34*
X0080737Y0064420D03*
X0080930Y0068951D03*
X0086048Y0068951D03*
X0075619Y0064420D03*
D35*
X0084871Y0065010D03*
X0084871Y0059892D03*
D36*
X0087437Y0062451D02*
X0088039Y0063054D01*
X0088039Y0065818D01*
X0088823Y0066601D01*
X0088823Y0071302D01*
X0088813Y0071311D01*
X0089588Y0071311D01*
X0090050Y0071773D01*
X0090441Y0071773D01*
X0102165Y0060050D01*
X0103335Y0058880D01*
X0114438Y0058880D01*
X0122706Y0067148D01*
X0123876Y0068317D01*
X0123876Y0074234D01*
X0135993Y0074234D01*
X0141639Y0079879D01*
X0145837Y0079879D01*
X0147736Y0081778D01*
X0149885Y0079629D01*
X0150879Y0078635D01*
X0156485Y0078635D01*
X0159185Y0081335D01*
X0160179Y0082329D01*
X0160179Y0090935D01*
X0158535Y0092578D01*
X0158822Y0092865D01*
X0158822Y0097087D01*
X0155933Y0099976D01*
X0158822Y0102865D01*
X0158822Y0107087D01*
X0155837Y0110073D01*
X0155379Y0110073D01*
X0155379Y0128000D01*
X0158321Y0121025D01*
X0161011Y0111161D01*
X0162367Y0101028D01*
X0162367Y0090804D01*
X0161011Y0080671D01*
X0158321Y0070807D01*
X0154347Y0061387D01*
X0149158Y0052578D01*
X0146957Y0049774D01*
X0097085Y0049752D01*
X0097119Y0049880D01*
X0097119Y0051612D01*
X0094446Y0051612D01*
X0094446Y0052006D01*
X0097119Y0052006D01*
X0097119Y0053738D01*
X0097037Y0054043D01*
X0096880Y0054316D01*
X0096657Y0054538D01*
X0096384Y0054696D01*
X0096080Y0054778D01*
X0094446Y0054778D01*
X0094446Y0052006D01*
X0094052Y0052006D01*
X0094052Y0054778D01*
X0092418Y0054778D01*
X0092194Y0054718D01*
X0091934Y0054978D01*
X0088039Y0054978D01*
X0088039Y0061849D01*
X0087437Y0062451D01*
X0087479Y0062494D02*
X0099721Y0062494D01*
X0099329Y0062886D02*
X0087871Y0062886D01*
X0088039Y0063278D02*
X0098937Y0063278D01*
X0098544Y0063670D02*
X0088039Y0063670D01*
X0088039Y0064063D02*
X0098152Y0064063D01*
X0097760Y0064455D02*
X0088039Y0064455D01*
X0088039Y0064847D02*
X0097368Y0064847D01*
X0096976Y0065239D02*
X0088039Y0065239D01*
X0088039Y0065632D02*
X0096583Y0065632D01*
X0096191Y0066024D02*
X0088245Y0066024D01*
X0088637Y0066416D02*
X0095799Y0066416D01*
X0095407Y0066808D02*
X0088823Y0066808D01*
X0088823Y0067200D02*
X0095015Y0067200D01*
X0094622Y0067593D02*
X0088823Y0067593D01*
X0088823Y0067985D02*
X0094230Y0067985D01*
X0093838Y0068377D02*
X0088823Y0068377D01*
X0088823Y0068769D02*
X0093446Y0068769D01*
X0093053Y0069161D02*
X0088823Y0069161D01*
X0088823Y0069554D02*
X0092661Y0069554D01*
X0092269Y0069946D02*
X0088823Y0069946D01*
X0088823Y0070338D02*
X0091877Y0070338D01*
X0091485Y0070730D02*
X0088823Y0070730D01*
X0088823Y0071122D02*
X0091092Y0071122D01*
X0090700Y0071515D02*
X0089792Y0071515D01*
X0089286Y0076664D02*
X0087250Y0076664D01*
X0087050Y0076464D01*
X0086549Y0076464D01*
X0086549Y0075963D01*
X0086450Y0075865D01*
X0086352Y0075963D01*
X0086352Y0076464D01*
X0085851Y0076464D01*
X0085651Y0076664D01*
X0079678Y0076664D01*
X0079678Y0080668D01*
X0079478Y0080868D01*
X0079478Y0081369D01*
X0078977Y0081369D01*
X0078879Y0081468D01*
X0078977Y0081566D01*
X0079478Y0081566D01*
X0079478Y0082067D01*
X0079678Y0082267D01*
X0079678Y0086272D01*
X0089518Y0086272D01*
X0089486Y0086153D01*
X0089486Y0085503D01*
X0091864Y0085503D01*
X0091864Y0085424D01*
X0090104Y0085424D01*
X0089987Y0085306D01*
X0089486Y0085306D01*
X0089486Y0084805D01*
X0089286Y0084605D01*
X0089286Y0080299D01*
X0089486Y0080099D01*
X0089486Y0079598D01*
X0089987Y0079598D01*
X0090085Y0079499D01*
X0089987Y0079401D01*
X0089486Y0079401D01*
X0089486Y0078900D01*
X0089286Y0078700D01*
X0089286Y0076664D01*
X0089286Y0077006D02*
X0079678Y0077006D01*
X0079678Y0077398D02*
X0089286Y0077398D01*
X0089286Y0077790D02*
X0079678Y0077790D01*
X0079678Y0078182D02*
X0089286Y0078182D01*
X0089286Y0078575D02*
X0087218Y0078575D01*
X0087185Y0078542D02*
X0087408Y0078764D01*
X0087566Y0079037D01*
X0087647Y0079342D01*
X0087647Y0081271D01*
X0084679Y0081271D01*
X0084679Y0081665D01*
X0084285Y0081665D01*
X0084285Y0084633D01*
X0082356Y0084633D01*
X0082051Y0084552D01*
X0081778Y0084394D01*
X0081556Y0084171D01*
X0081398Y0083898D01*
X0081317Y0083594D01*
X0081316Y0081665D01*
X0084285Y0081665D01*
X0084285Y0081271D01*
X0081317Y0081271D01*
X0081317Y0079342D01*
X0081398Y0079037D01*
X0081556Y0078764D01*
X0081778Y0078542D01*
X0082051Y0078384D01*
X0082356Y0078302D01*
X0084285Y0078302D01*
X0084285Y0081271D01*
X0084679Y0081271D01*
X0084679Y0078302D01*
X0086608Y0078302D01*
X0086912Y0078384D01*
X0087185Y0078542D01*
X0087525Y0078967D02*
X0089486Y0078967D01*
X0089486Y0079359D02*
X0087647Y0079359D01*
X0087647Y0079751D02*
X0089486Y0079751D01*
X0089441Y0080143D02*
X0087647Y0080143D01*
X0087647Y0080536D02*
X0089286Y0080536D01*
X0089286Y0080928D02*
X0087647Y0080928D01*
X0087647Y0081665D02*
X0087647Y0083594D01*
X0087566Y0083898D01*
X0087408Y0084171D01*
X0087185Y0084394D01*
X0086912Y0084552D01*
X0086608Y0084633D01*
X0084679Y0084633D01*
X0084679Y0081665D01*
X0087647Y0081665D01*
X0087647Y0081712D02*
X0089286Y0081712D01*
X0089286Y0081320D02*
X0084679Y0081320D01*
X0084679Y0081712D02*
X0084285Y0081712D01*
X0084285Y0081320D02*
X0079478Y0081320D01*
X0079478Y0081712D02*
X0081317Y0081712D01*
X0081317Y0082104D02*
X0079515Y0082104D01*
X0079678Y0082497D02*
X0081317Y0082497D01*
X0081317Y0082889D02*
X0079678Y0082889D01*
X0079678Y0083281D02*
X0081317Y0083281D01*
X0081338Y0083673D02*
X0079678Y0083673D01*
X0079678Y0084065D02*
X0081495Y0084065D01*
X0081889Y0084458D02*
X0079678Y0084458D01*
X0079678Y0084850D02*
X0089486Y0084850D01*
X0089486Y0085242D02*
X0079678Y0085242D01*
X0079678Y0085634D02*
X0089486Y0085634D01*
X0089486Y0086027D02*
X0079678Y0086027D01*
X0084285Y0084458D02*
X0084679Y0084458D01*
X0084679Y0084065D02*
X0084285Y0084065D01*
X0084285Y0083673D02*
X0084679Y0083673D01*
X0084679Y0083281D02*
X0084285Y0083281D01*
X0084285Y0082889D02*
X0084679Y0082889D01*
X0084679Y0082497D02*
X0084285Y0082497D01*
X0084285Y0082104D02*
X0084679Y0082104D01*
X0084679Y0080928D02*
X0084285Y0080928D01*
X0084285Y0080536D02*
X0084679Y0080536D01*
X0084679Y0080143D02*
X0084285Y0080143D01*
X0084285Y0079751D02*
X0084679Y0079751D01*
X0084679Y0079359D02*
X0084285Y0079359D01*
X0084285Y0078967D02*
X0084679Y0078967D01*
X0084679Y0078575D02*
X0084285Y0078575D01*
X0085701Y0076613D02*
X0087199Y0076613D01*
X0086549Y0076221D02*
X0086352Y0076221D01*
X0081746Y0078575D02*
X0079678Y0078575D01*
X0079678Y0078967D02*
X0081439Y0078967D01*
X0081317Y0079359D02*
X0079678Y0079359D01*
X0079678Y0079751D02*
X0081317Y0079751D01*
X0081317Y0080143D02*
X0079678Y0080143D01*
X0079678Y0080536D02*
X0081317Y0080536D01*
X0081317Y0080928D02*
X0079478Y0080928D01*
X0074517Y0081373D02*
X0065416Y0081373D01*
X0065416Y0084368D01*
X0064598Y0085187D01*
X0055961Y0085187D01*
X0055142Y0084368D01*
X0055142Y0079703D01*
X0050850Y0079703D01*
X0050850Y0084368D01*
X0050031Y0085187D01*
X0041394Y0085187D01*
X0040576Y0084368D01*
X0040576Y0079703D01*
X0037055Y0079703D01*
X0037055Y0079959D01*
X0036237Y0080777D01*
X0030355Y0080777D01*
X0029537Y0079959D01*
X0029537Y0079618D01*
X0027142Y0078840D01*
X0024883Y0077198D01*
X0023241Y0074940D01*
X0023241Y0074940D01*
X0022890Y0073859D01*
X0021334Y0073859D01*
X0020516Y0073041D01*
X0020516Y0068734D01*
X0021334Y0067916D01*
X0027216Y0067916D01*
X0028034Y0068734D01*
X0028034Y0073041D01*
X0027220Y0073856D01*
X0027643Y0074438D01*
X0028914Y0075362D01*
X0029604Y0075586D01*
X0030355Y0074834D01*
X0036237Y0074834D01*
X0037055Y0075652D01*
X0037055Y0075909D01*
X0041171Y0075909D01*
X0040576Y0075313D01*
X0040576Y0069825D01*
X0041394Y0069007D01*
X0043816Y0069007D01*
X0043816Y0067723D01*
X0043823Y0067716D01*
X0043823Y0058686D01*
X0037055Y0058686D01*
X0037055Y0059093D01*
X0036237Y0059911D01*
X0030355Y0059911D01*
X0029608Y0059164D01*
X0028379Y0059673D01*
X0027219Y0060833D01*
X0028034Y0061648D01*
X0028034Y0065955D01*
X0027216Y0066773D01*
X0021334Y0066773D01*
X0020516Y0065955D01*
X0020516Y0061648D01*
X0021334Y0060830D01*
X0022888Y0060830D01*
X0023712Y0058840D01*
X0026176Y0056376D01*
X0029395Y0055043D01*
X0029537Y0055043D01*
X0029537Y0054786D01*
X0030355Y0053968D01*
X0036237Y0053968D01*
X0037055Y0054786D01*
X0037055Y0054892D01*
X0046506Y0054892D01*
X0047617Y0056003D01*
X0047617Y0066612D01*
X0064188Y0066612D01*
X0064114Y0066335D01*
X0064114Y0064603D01*
X0066787Y0064603D01*
X0066787Y0067057D01*
X0075274Y0075543D01*
X0078557Y0075543D01*
X0078557Y0074683D01*
X0074833Y0070958D01*
X0073722Y0069847D01*
X0073722Y0067588D01*
X0073662Y0067588D01*
X0073648Y0067574D01*
X0069299Y0067574D01*
X0069039Y0067314D01*
X0068815Y0067374D01*
X0067181Y0067374D01*
X0067181Y0064603D01*
X0066787Y0064603D01*
X0066787Y0064209D01*
X0064114Y0064209D01*
X0064114Y0062477D01*
X0064196Y0062172D01*
X0064353Y0061899D01*
X0064395Y0061858D01*
X0064366Y0061830D01*
X0064209Y0061557D01*
X0064127Y0061252D01*
X0064127Y0059520D01*
X0066800Y0059520D01*
X0066800Y0059126D01*
X0067194Y0059126D01*
X0067194Y0056355D01*
X0068828Y0056355D01*
X0069052Y0056415D01*
X0069312Y0056155D01*
X0073816Y0056155D01*
X0074634Y0056973D01*
X0074634Y0061251D01*
X0077575Y0061251D01*
X0078178Y0061854D01*
X0078780Y0061251D01*
X0081702Y0061251D01*
X0081702Y0053822D01*
X0081734Y0053790D01*
X0081702Y0053758D01*
X0081702Y0049745D01*
X0021939Y0049720D01*
X0019837Y0052386D01*
X0014658Y0061146D01*
X0010695Y0070519D01*
X0008785Y0077523D01*
X0009472Y0076836D01*
X0011505Y0075994D01*
X0013705Y0075994D01*
X0015738Y0076836D01*
X0017294Y0078391D01*
X0018136Y0080424D01*
X0018136Y0082624D01*
X0017294Y0084657D01*
X0015738Y0086213D01*
X0013803Y0087014D01*
X0016883Y0087014D01*
X0017701Y0087833D01*
X0017701Y0094895D01*
X0017296Y0095301D01*
X0017701Y0095707D01*
X0017701Y0102769D01*
X0016883Y0103588D01*
X0013715Y0103588D01*
X0015692Y0104407D01*
X0017248Y0105963D01*
X0018090Y0107995D01*
X0018090Y0110196D01*
X0017248Y0112228D01*
X0015692Y0113784D01*
X0013659Y0114626D01*
X0011459Y0114626D01*
X0009426Y0113784D01*
X0008718Y0113076D01*
X0010763Y0120496D01*
X0014752Y0129858D01*
X0017106Y0134135D01*
X0017992Y0135020D01*
X0020644Y0132369D01*
X0021801Y0132369D01*
X0025403Y0135971D01*
X0025403Y0137128D01*
X0022751Y0139780D01*
X0041098Y0158127D01*
X0043750Y0155475D01*
X0044907Y0155475D01*
X0048509Y0159077D01*
X0048509Y0160234D01*
X0045857Y0162886D01*
X0046261Y0163290D01*
X0050489Y0165639D01*
X0059746Y0169616D01*
X0069455Y0172309D01*
X0079439Y0173668D01*
X0089515Y0173668D01*
X0099499Y0172309D01*
X0109208Y0169616D01*
X0118466Y0165639D01*
X0122242Y0163540D01*
X0122243Y0163538D01*
X0122900Y0163173D01*
X0123544Y0162786D01*
X0123547Y0162787D01*
X0127318Y0160530D01*
X0135523Y0154431D01*
X0142846Y0147297D01*
X0149158Y0139254D01*
X0151020Y0136093D01*
X0136385Y0150729D01*
X0129425Y0150729D01*
X0129425Y0155715D01*
X0128607Y0156533D01*
X0103202Y0156533D01*
X0102384Y0155715D01*
X0102384Y0149558D01*
X0103202Y0148739D01*
X0114075Y0148739D01*
X0114485Y0148329D01*
X0115479Y0147335D01*
X0128908Y0147335D01*
X0128908Y0138782D01*
X0129111Y0138579D01*
X0129108Y0138569D01*
X0129108Y0137508D01*
X0132608Y0137508D01*
X0132608Y0137114D01*
X0129108Y0137114D01*
X0129108Y0136329D01*
X0103955Y0136329D01*
X0102785Y0135159D01*
X0102785Y0135159D01*
X0102702Y0135075D01*
X0102702Y0135419D01*
X0102699Y0135430D01*
X0102902Y0135632D01*
X0102902Y0138990D01*
X0102699Y0139192D01*
X0102702Y0139203D01*
X0102702Y0140264D01*
X0099202Y0140264D01*
X0099202Y0140657D01*
X0102702Y0140657D01*
X0102702Y0141718D01*
X0102699Y0141729D01*
X0102902Y0141932D01*
X0102902Y0148438D01*
X0102083Y0149257D01*
X0095926Y0149257D01*
X0095108Y0148438D01*
X0095108Y0141932D01*
X0095311Y0141729D01*
X0095308Y0141718D01*
X0095308Y0140657D01*
X0098808Y0140657D01*
X0098808Y0140264D01*
X0095308Y0140264D01*
X0095308Y0139203D01*
X0095311Y0139192D01*
X0095108Y0138990D01*
X0095108Y0138898D01*
X0092508Y0136299D01*
X0091339Y0135129D01*
X0091339Y0133475D01*
X0093414Y0131400D01*
X0093485Y0131098D01*
X0093485Y0130659D01*
X0078455Y0115629D01*
X0077625Y0114799D01*
X0074775Y0114799D01*
X0074775Y0111830D01*
X0074382Y0111830D01*
X0074382Y0111437D01*
X0070132Y0111437D01*
X0070132Y0109507D01*
X0070213Y0109203D01*
X0070371Y0108930D01*
X0070594Y0108707D01*
X0070867Y0108550D01*
X0071171Y0108468D01*
X0074382Y0108468D01*
X0074382Y0111436D01*
X0074775Y0111436D01*
X0074775Y0108468D01*
X0075794Y0108468D01*
X0071555Y0104229D01*
X0069755Y0104229D01*
X0069155Y0103629D01*
X0067985Y0102459D01*
X0067985Y0100029D01*
X0062252Y0100029D01*
X0062252Y0102302D01*
X0065079Y0105129D01*
X0065079Y0110280D01*
X0065679Y0110280D01*
X0066843Y0111444D01*
X0066843Y0115769D01*
X0067509Y0116435D01*
X0068679Y0117605D01*
X0068679Y0149847D01*
X0068709Y0149858D01*
X0069198Y0150906D01*
X0067186Y0156433D01*
X0066137Y0156922D01*
X0064362Y0156276D01*
X0062170Y0158467D01*
X0062641Y0158662D01*
X0064075Y0160096D01*
X0064851Y0161969D01*
X0064851Y0163893D01*
X0065124Y0163357D01*
X0065577Y0162733D01*
X0066122Y0162188D01*
X0066745Y0161735D01*
X0067432Y0161385D01*
X0068165Y0161147D01*
X0068926Y0161027D01*
X0069697Y0161027D01*
X0070459Y0161147D01*
X0070565Y0161182D01*
X0069182Y0165677D01*
X0069558Y0165793D01*
X0069442Y0166169D01*
X0073932Y0167551D01*
X0073850Y0167803D01*
X0073500Y0168490D01*
X0073047Y0169113D01*
X0072502Y0169658D01*
X0071878Y0170112D01*
X0071192Y0170461D01*
X0070459Y0170700D01*
X0069697Y0170820D01*
X0068926Y0170820D01*
X0068165Y0170700D01*
X0068059Y0170665D01*
X0069442Y0166169D01*
X0069066Y0166054D01*
X0067685Y0170543D01*
X0067432Y0170461D01*
X0066745Y0170112D01*
X0066122Y0169658D01*
X0065577Y0169113D01*
X0065124Y0168490D01*
X0064774Y0167803D01*
X0064536Y0167070D01*
X0064415Y0166309D01*
X0064415Y0165538D01*
X0064536Y0164777D01*
X0064564Y0164689D01*
X0064075Y0165870D01*
X0062641Y0167304D01*
X0060768Y0168080D01*
X0058740Y0168080D01*
X0056867Y0167304D01*
X0055433Y0165870D01*
X0054657Y0163997D01*
X0054657Y0161969D01*
X0055433Y0160096D01*
X0056867Y0158662D01*
X0057785Y0158282D01*
X0057785Y0157205D01*
X0062181Y0152809D01*
X0063613Y0148874D01*
X0064662Y0148385D01*
X0064685Y0148393D01*
X0064685Y0138429D01*
X0042198Y0138429D01*
X0039757Y0140869D01*
X0038600Y0140869D01*
X0035833Y0138102D01*
X0035833Y0136945D01*
X0040827Y0131951D01*
X0041984Y0131951D01*
X0044468Y0134435D01*
X0045357Y0134435D01*
X0045357Y0129247D01*
X0046176Y0128429D01*
X0046385Y0128429D01*
X0046385Y0127537D01*
X0045656Y0126808D01*
X0045656Y0123357D01*
X0042867Y0126146D01*
X0041873Y0127140D01*
X0036038Y0127140D01*
X0033988Y0125090D01*
X0033325Y0125754D01*
X0033279Y0125754D01*
X0033279Y0126605D01*
X0035550Y0128876D01*
X0036651Y0127775D01*
X0037808Y0127775D01*
X0040575Y0130542D01*
X0040575Y0131699D01*
X0035581Y0136693D01*
X0034424Y0136693D01*
X0031657Y0133926D01*
X0031657Y0132769D01*
X0032726Y0131700D01*
X0031527Y0130501D01*
X0031527Y0131003D01*
X0028482Y0134049D01*
X0027325Y0134049D01*
X0023723Y0130447D01*
X0023723Y0129289D01*
X0026768Y0126244D01*
X0027925Y0126244D01*
X0029285Y0127604D01*
X0029285Y0125754D01*
X0029018Y0125754D01*
X0028200Y0124935D01*
X0028200Y0120235D01*
X0029018Y0119417D01*
X0032091Y0119417D01*
X0032091Y0118765D01*
X0026196Y0112869D01*
X0025202Y0111875D01*
X0025202Y0110469D01*
X0032091Y0103579D01*
X0032285Y0103386D01*
X0032285Y0101514D01*
X0031274Y0101514D01*
X0030455Y0100696D01*
X0030455Y0100329D01*
X0028085Y0100329D01*
X0027579Y0100835D01*
X0027248Y0101165D01*
X0027248Y0101785D01*
X0026548Y0102486D01*
X0026798Y0102736D01*
X0027445Y0104298D01*
X0027445Y0105989D01*
X0026798Y0107552D01*
X0025602Y0108748D01*
X0024040Y0109395D01*
X0022349Y0109395D01*
X0020786Y0108748D01*
X0019590Y0107552D01*
X0018943Y0105989D01*
X0018943Y0104298D01*
X0019590Y0102736D01*
X0019840Y0102486D01*
X0019140Y0101785D01*
X0019140Y0091376D01*
X0019350Y0091166D01*
X0019340Y0091128D01*
X0019340Y0090380D01*
X0022997Y0090380D01*
X0022997Y0089986D01*
X0019340Y0089986D01*
X0019340Y0089238D01*
X0019421Y0088934D01*
X0019579Y0088661D01*
X0019802Y0088438D01*
X0020030Y0088306D01*
X0019590Y0087867D01*
X0018943Y0086304D01*
X0018943Y0084613D01*
X0019590Y0083050D01*
X0020786Y0081855D01*
X0022349Y0081207D01*
X0024040Y0081207D01*
X0025602Y0081855D01*
X0026798Y0083050D01*
X0027445Y0084613D01*
X0027445Y0086304D01*
X0026798Y0087867D01*
X0026359Y0088306D01*
X0026587Y0088438D01*
X0026809Y0088661D01*
X0026967Y0088934D01*
X0027048Y0089238D01*
X0027048Y0089986D01*
X0023391Y0089986D01*
X0023391Y0090380D01*
X0027048Y0090380D01*
X0027048Y0091128D01*
X0027038Y0091166D01*
X0027248Y0091376D01*
X0027248Y0096935D01*
X0030455Y0096935D01*
X0030455Y0096389D01*
X0031274Y0095571D01*
X0037155Y0095571D01*
X0037974Y0096389D01*
X0037974Y0100696D01*
X0037155Y0101514D01*
X0035679Y0101514D01*
X0035679Y0105035D01*
X0034685Y0106029D01*
X0034441Y0106029D01*
X0036713Y0106029D01*
X0036713Y0105637D02*
X0035076Y0105637D01*
X0035468Y0105245D02*
X0036713Y0105245D01*
X0036713Y0104853D02*
X0035679Y0104853D01*
X0035679Y0104461D02*
X0036713Y0104461D01*
X0036713Y0104068D02*
X0035679Y0104068D01*
X0035679Y0103676D02*
X0036713Y0103676D01*
X0036713Y0103455D02*
X0040710Y0099458D01*
X0040710Y0096398D01*
X0041528Y0095580D01*
X0047410Y0095580D01*
X0048228Y0096398D01*
X0048228Y0096635D01*
X0048755Y0096635D01*
X0049355Y0096035D01*
X0067985Y0096035D01*
X0067985Y0095405D01*
X0074058Y0089332D01*
X0072485Y0087759D01*
X0072485Y0083405D01*
X0073655Y0082235D01*
X0074517Y0081373D01*
X0074177Y0081712D02*
X0065416Y0081712D01*
X0065416Y0082104D02*
X0073785Y0082104D01*
X0073393Y0082497D02*
X0065416Y0082497D01*
X0065416Y0082889D02*
X0073001Y0082889D01*
X0072609Y0083281D02*
X0065416Y0083281D01*
X0065416Y0083673D02*
X0072485Y0083673D01*
X0072485Y0084065D02*
X0065416Y0084065D01*
X0065327Y0084458D02*
X0072485Y0084458D01*
X0072485Y0084850D02*
X0064935Y0084850D01*
X0072485Y0085242D02*
X0027445Y0085242D01*
X0027445Y0084850D02*
X0041057Y0084850D01*
X0040665Y0084458D02*
X0027381Y0084458D01*
X0027219Y0084065D02*
X0040576Y0084065D01*
X0040576Y0083673D02*
X0027056Y0083673D01*
X0026894Y0083281D02*
X0040576Y0083281D01*
X0040576Y0082889D02*
X0026637Y0082889D01*
X0026244Y0082497D02*
X0040576Y0082497D01*
X0040576Y0082104D02*
X0025852Y0082104D01*
X0025258Y0081712D02*
X0040576Y0081712D01*
X0040576Y0081320D02*
X0024312Y0081320D01*
X0022077Y0081320D02*
X0018136Y0081320D01*
X0018136Y0081712D02*
X0021130Y0081712D01*
X0020536Y0082104D02*
X0018136Y0082104D01*
X0018136Y0082497D02*
X0020144Y0082497D01*
X0019752Y0082889D02*
X0018026Y0082889D01*
X0017864Y0083281D02*
X0019495Y0083281D01*
X0019332Y0083673D02*
X0017701Y0083673D01*
X0017539Y0084065D02*
X0019170Y0084065D01*
X0019007Y0084458D02*
X0017376Y0084458D01*
X0017101Y0084850D02*
X0018943Y0084850D01*
X0018943Y0085242D02*
X0016709Y0085242D01*
X0016317Y0085634D02*
X0018943Y0085634D01*
X0018943Y0086027D02*
X0015924Y0086027D01*
X0015241Y0086419D02*
X0018990Y0086419D01*
X0019153Y0086811D02*
X0014294Y0086811D01*
X0017072Y0087203D02*
X0019315Y0087203D01*
X0019478Y0087595D02*
X0017464Y0087595D01*
X0017701Y0087988D02*
X0019711Y0087988D01*
X0019902Y0088380D02*
X0017701Y0088380D01*
X0017701Y0088772D02*
X0019515Y0088772D01*
X0019360Y0089164D02*
X0017701Y0089164D01*
X0017701Y0089556D02*
X0019340Y0089556D01*
X0019340Y0089949D02*
X0017701Y0089949D01*
X0017701Y0090341D02*
X0022997Y0090341D01*
X0023391Y0090341D02*
X0030655Y0090341D01*
X0030655Y0090733D02*
X0027048Y0090733D01*
X0027048Y0091125D02*
X0030655Y0091125D01*
X0030655Y0091259D02*
X0030655Y0089723D01*
X0030737Y0089419D01*
X0030895Y0089146D01*
X0031117Y0088923D01*
X0031390Y0088765D01*
X0031695Y0088684D01*
X0034018Y0088684D01*
X0034018Y0091259D01*
X0034411Y0091259D01*
X0034411Y0088684D01*
X0036734Y0088684D01*
X0037039Y0088765D01*
X0037312Y0088923D01*
X0037534Y0089146D01*
X0037692Y0089419D01*
X0037774Y0089723D01*
X0037774Y0091259D01*
X0034411Y0091259D01*
X0034411Y0091652D01*
X0037774Y0091652D01*
X0037774Y0093188D01*
X0037692Y0093492D01*
X0037534Y0093765D01*
X0037312Y0093988D01*
X0037039Y0094146D01*
X0036734Y0094227D01*
X0034411Y0094227D01*
X0034411Y0091652D01*
X0034018Y0091652D01*
X0034018Y0091259D01*
X0030655Y0091259D01*
X0030655Y0091652D02*
X0030655Y0093188D01*
X0030737Y0093492D01*
X0030895Y0093765D01*
X0031117Y0093988D01*
X0031390Y0094146D01*
X0031695Y0094227D01*
X0034018Y0094227D01*
X0034018Y0091652D01*
X0030655Y0091652D01*
X0030655Y0091910D02*
X0027248Y0091910D01*
X0027248Y0092302D02*
X0030655Y0092302D01*
X0030655Y0092694D02*
X0027248Y0092694D01*
X0027248Y0093086D02*
X0030655Y0093086D01*
X0030733Y0093479D02*
X0027248Y0093479D01*
X0027248Y0093871D02*
X0031000Y0093871D01*
X0031012Y0095832D02*
X0027248Y0095832D01*
X0027248Y0096224D02*
X0030620Y0096224D01*
X0030455Y0096616D02*
X0027248Y0096616D01*
X0027248Y0095440D02*
X0067985Y0095440D01*
X0067985Y0095832D02*
X0047662Y0095832D01*
X0048054Y0096224D02*
X0049166Y0096224D01*
X0048773Y0096616D02*
X0048228Y0096616D01*
X0047293Y0094155D02*
X0046989Y0094237D01*
X0044666Y0094237D01*
X0044666Y0091662D01*
X0048028Y0091662D01*
X0048028Y0093198D01*
X0047947Y0093502D01*
X0047789Y0093775D01*
X0047566Y0093998D01*
X0047293Y0094155D01*
X0047693Y0093871D02*
X0069519Y0093871D01*
X0069127Y0094263D02*
X0027248Y0094263D01*
X0027248Y0094655D02*
X0068734Y0094655D01*
X0068342Y0095047D02*
X0027248Y0095047D01*
X0027248Y0091518D02*
X0034018Y0091518D01*
X0034018Y0091910D02*
X0034411Y0091910D01*
X0034411Y0092302D02*
X0034018Y0092302D01*
X0034018Y0092694D02*
X0034411Y0092694D01*
X0034411Y0093086D02*
X0034018Y0093086D01*
X0034018Y0093479D02*
X0034411Y0093479D01*
X0034411Y0093871D02*
X0034018Y0093871D01*
X0034411Y0091518D02*
X0044272Y0091518D01*
X0044272Y0091662D02*
X0044272Y0091268D01*
X0044666Y0091268D01*
X0044666Y0088693D01*
X0046989Y0088693D01*
X0047293Y0088775D01*
X0047566Y0088933D01*
X0047789Y0089155D01*
X0047947Y0089428D01*
X0048028Y0089733D01*
X0048028Y0091268D01*
X0044666Y0091268D01*
X0044666Y0091662D01*
X0044272Y0091662D01*
X0040910Y0091662D01*
X0040910Y0093198D01*
X0040992Y0093502D01*
X0041149Y0093775D01*
X0041372Y0093998D01*
X0041645Y0094155D01*
X0041949Y0094237D01*
X0044272Y0094237D01*
X0044272Y0091662D01*
X0044272Y0091910D02*
X0044666Y0091910D01*
X0044666Y0092302D02*
X0044272Y0092302D01*
X0044272Y0092694D02*
X0044666Y0092694D01*
X0044666Y0093086D02*
X0044272Y0093086D01*
X0044272Y0093479D02*
X0044666Y0093479D01*
X0044666Y0093871D02*
X0044272Y0093871D01*
X0044666Y0091518D02*
X0071872Y0091518D01*
X0071480Y0091910D02*
X0048028Y0091910D01*
X0048028Y0092302D02*
X0071088Y0092302D01*
X0070696Y0092694D02*
X0048028Y0092694D01*
X0048028Y0093086D02*
X0070303Y0093086D01*
X0069911Y0093479D02*
X0047953Y0093479D01*
X0048028Y0091125D02*
X0072264Y0091125D01*
X0072657Y0090733D02*
X0048028Y0090733D01*
X0048028Y0090341D02*
X0073049Y0090341D01*
X0073441Y0089949D02*
X0048028Y0089949D01*
X0047981Y0089556D02*
X0073833Y0089556D01*
X0073890Y0089164D02*
X0047794Y0089164D01*
X0047282Y0088772D02*
X0073498Y0088772D01*
X0073106Y0088380D02*
X0026486Y0088380D01*
X0026677Y0087988D02*
X0072714Y0087988D01*
X0072485Y0087595D02*
X0026911Y0087595D01*
X0027073Y0087203D02*
X0072485Y0087203D01*
X0072485Y0086811D02*
X0027235Y0086811D01*
X0027398Y0086419D02*
X0072485Y0086419D01*
X0072485Y0086027D02*
X0027445Y0086027D01*
X0027445Y0085634D02*
X0072485Y0085634D01*
X0075167Y0075437D02*
X0078557Y0075437D01*
X0078557Y0075045D02*
X0074775Y0075045D01*
X0074383Y0074652D02*
X0078527Y0074652D01*
X0078135Y0074260D02*
X0073990Y0074260D01*
X0073598Y0073868D02*
X0077743Y0073868D01*
X0077351Y0073476D02*
X0073206Y0073476D01*
X0072814Y0073084D02*
X0076958Y0073084D01*
X0076566Y0072691D02*
X0072422Y0072691D01*
X0072029Y0072299D02*
X0076174Y0072299D01*
X0075782Y0071907D02*
X0071637Y0071907D01*
X0071245Y0071515D02*
X0075389Y0071515D01*
X0074997Y0071122D02*
X0070853Y0071122D01*
X0070461Y0070730D02*
X0074605Y0070730D01*
X0074213Y0070338D02*
X0070068Y0070338D01*
X0069676Y0069946D02*
X0073821Y0069946D01*
X0073722Y0069554D02*
X0069284Y0069554D01*
X0068892Y0069161D02*
X0073722Y0069161D01*
X0073722Y0068769D02*
X0068499Y0068769D01*
X0068107Y0068377D02*
X0073722Y0068377D01*
X0073722Y0067985D02*
X0067715Y0067985D01*
X0067323Y0067593D02*
X0073722Y0067593D01*
X0078033Y0061709D02*
X0078323Y0061709D01*
X0078715Y0061317D02*
X0077641Y0061317D01*
X0074634Y0060925D02*
X0081702Y0060925D01*
X0081702Y0060533D02*
X0074634Y0060533D01*
X0074634Y0060141D02*
X0081702Y0060141D01*
X0081702Y0059748D02*
X0074634Y0059748D01*
X0074634Y0059356D02*
X0081702Y0059356D01*
X0081702Y0058964D02*
X0074634Y0058964D01*
X0074634Y0058572D02*
X0081702Y0058572D01*
X0081702Y0058179D02*
X0074634Y0058179D01*
X0074634Y0057787D02*
X0081702Y0057787D01*
X0081702Y0057395D02*
X0074634Y0057395D01*
X0074634Y0057003D02*
X0081702Y0057003D01*
X0081702Y0056611D02*
X0074272Y0056611D01*
X0073880Y0056218D02*
X0081702Y0056218D01*
X0081702Y0055826D02*
X0047440Y0055826D01*
X0047617Y0056218D02*
X0069248Y0056218D01*
X0067194Y0056611D02*
X0066800Y0056611D01*
X0066800Y0056355D02*
X0066800Y0059126D01*
X0064127Y0059126D01*
X0064127Y0057394D01*
X0064209Y0057089D01*
X0064366Y0056817D01*
X0064589Y0056594D01*
X0064862Y0056436D01*
X0065166Y0056355D01*
X0066800Y0056355D01*
X0066800Y0057003D02*
X0067194Y0057003D01*
X0067194Y0057395D02*
X0066800Y0057395D01*
X0066800Y0057787D02*
X0067194Y0057787D01*
X0067194Y0058179D02*
X0066800Y0058179D01*
X0066800Y0058572D02*
X0067194Y0058572D01*
X0067194Y0058964D02*
X0066800Y0058964D01*
X0066800Y0059356D02*
X0047617Y0059356D01*
X0047617Y0058964D02*
X0064127Y0058964D01*
X0064127Y0058572D02*
X0047617Y0058572D01*
X0047617Y0058179D02*
X0064127Y0058179D01*
X0064127Y0057787D02*
X0047617Y0057787D01*
X0047617Y0057395D02*
X0064127Y0057395D01*
X0064259Y0057003D02*
X0047617Y0057003D01*
X0047617Y0056611D02*
X0064572Y0056611D01*
X0064127Y0059748D02*
X0047617Y0059748D01*
X0047617Y0060141D02*
X0064127Y0060141D01*
X0064127Y0060533D02*
X0047617Y0060533D01*
X0047617Y0060925D02*
X0064127Y0060925D01*
X0064144Y0061317D02*
X0047617Y0061317D01*
X0047617Y0061709D02*
X0064297Y0061709D01*
X0064236Y0062102D02*
X0047617Y0062102D01*
X0047617Y0062494D02*
X0064114Y0062494D01*
X0064114Y0062886D02*
X0047617Y0062886D01*
X0047617Y0063278D02*
X0064114Y0063278D01*
X0064114Y0063670D02*
X0047617Y0063670D01*
X0047617Y0064063D02*
X0064114Y0064063D01*
X0064114Y0064847D02*
X0047617Y0064847D01*
X0047617Y0064455D02*
X0066787Y0064455D01*
X0066787Y0064209D02*
X0067181Y0064209D01*
X0067181Y0061437D01*
X0067194Y0061437D01*
X0067194Y0059520D01*
X0066800Y0059520D01*
X0066800Y0062292D01*
X0066787Y0062292D01*
X0066787Y0064209D01*
X0066787Y0064063D02*
X0067181Y0064063D01*
X0067181Y0063670D02*
X0066787Y0063670D01*
X0066787Y0063278D02*
X0067181Y0063278D01*
X0067181Y0062886D02*
X0066787Y0062886D01*
X0066787Y0062494D02*
X0067181Y0062494D01*
X0067181Y0062102D02*
X0066800Y0062102D01*
X0066800Y0061709D02*
X0067181Y0061709D01*
X0067194Y0061317D02*
X0066800Y0061317D01*
X0066800Y0060925D02*
X0067194Y0060925D01*
X0067194Y0060533D02*
X0066800Y0060533D01*
X0066800Y0060141D02*
X0067194Y0060141D01*
X0067194Y0059748D02*
X0066800Y0059748D01*
X0066787Y0064847D02*
X0067181Y0064847D01*
X0067181Y0065239D02*
X0066787Y0065239D01*
X0066787Y0065632D02*
X0067181Y0065632D01*
X0067181Y0066024D02*
X0066787Y0066024D01*
X0066787Y0066416D02*
X0067181Y0066416D01*
X0067181Y0066808D02*
X0066787Y0066808D01*
X0066931Y0067200D02*
X0067181Y0067200D01*
X0064136Y0066416D02*
X0047617Y0066416D01*
X0047617Y0066024D02*
X0064114Y0066024D01*
X0064114Y0065632D02*
X0047617Y0065632D01*
X0047617Y0065239D02*
X0064114Y0065239D01*
X0055142Y0079751D02*
X0050850Y0079751D01*
X0050850Y0080143D02*
X0055142Y0080143D01*
X0055142Y0080536D02*
X0050850Y0080536D01*
X0050850Y0080928D02*
X0055142Y0080928D01*
X0055142Y0081320D02*
X0050850Y0081320D01*
X0050850Y0081712D02*
X0055142Y0081712D01*
X0055142Y0082104D02*
X0050850Y0082104D01*
X0050850Y0082497D02*
X0055142Y0082497D01*
X0055142Y0082889D02*
X0050850Y0082889D01*
X0050850Y0083281D02*
X0055142Y0083281D01*
X0055142Y0083673D02*
X0050850Y0083673D01*
X0050850Y0084065D02*
X0055142Y0084065D01*
X0055232Y0084458D02*
X0050760Y0084458D01*
X0050368Y0084850D02*
X0055624Y0084850D01*
X0044666Y0088772D02*
X0044272Y0088772D01*
X0044272Y0088693D02*
X0044272Y0091268D01*
X0040910Y0091268D01*
X0040910Y0089733D01*
X0040992Y0089428D01*
X0041149Y0089155D01*
X0041372Y0088933D01*
X0041645Y0088775D01*
X0041949Y0088693D01*
X0044272Y0088693D01*
X0044272Y0089164D02*
X0044666Y0089164D01*
X0044666Y0089556D02*
X0044272Y0089556D01*
X0044272Y0089949D02*
X0044666Y0089949D01*
X0044666Y0090341D02*
X0044272Y0090341D01*
X0044272Y0090733D02*
X0044666Y0090733D01*
X0044666Y0091125D02*
X0044272Y0091125D01*
X0040910Y0091125D02*
X0037774Y0091125D01*
X0037774Y0090733D02*
X0040910Y0090733D01*
X0040910Y0090341D02*
X0037774Y0090341D01*
X0037774Y0089949D02*
X0040910Y0089949D01*
X0040957Y0089556D02*
X0037729Y0089556D01*
X0037545Y0089164D02*
X0041144Y0089164D01*
X0041656Y0088772D02*
X0037050Y0088772D01*
X0034411Y0088772D02*
X0034018Y0088772D01*
X0034018Y0089164D02*
X0034411Y0089164D01*
X0034411Y0089556D02*
X0034018Y0089556D01*
X0034018Y0089949D02*
X0034411Y0089949D01*
X0034411Y0090341D02*
X0034018Y0090341D01*
X0034018Y0090733D02*
X0034411Y0090733D01*
X0034411Y0091125D02*
X0034018Y0091125D01*
X0031379Y0088772D02*
X0026874Y0088772D01*
X0027029Y0089164D02*
X0030884Y0089164D01*
X0030700Y0089556D02*
X0027048Y0089556D01*
X0027048Y0089949D02*
X0030655Y0089949D01*
X0037774Y0091910D02*
X0040910Y0091910D01*
X0040910Y0092302D02*
X0037774Y0092302D01*
X0037774Y0092694D02*
X0040910Y0092694D01*
X0040910Y0093086D02*
X0037774Y0093086D01*
X0037696Y0093479D02*
X0040985Y0093479D01*
X0041245Y0093871D02*
X0037429Y0093871D01*
X0037417Y0095832D02*
X0041276Y0095832D01*
X0040884Y0096224D02*
X0037809Y0096224D01*
X0037974Y0096616D02*
X0040710Y0096616D01*
X0040710Y0097008D02*
X0037974Y0097008D01*
X0037974Y0097401D02*
X0040710Y0097401D01*
X0040710Y0097793D02*
X0037974Y0097793D01*
X0037974Y0098185D02*
X0040710Y0098185D01*
X0040710Y0098577D02*
X0037974Y0098577D01*
X0037974Y0098970D02*
X0040710Y0098970D01*
X0040710Y0099362D02*
X0037974Y0099362D01*
X0037974Y0099754D02*
X0040414Y0099754D01*
X0040021Y0100146D02*
X0037974Y0100146D01*
X0037974Y0100538D02*
X0039629Y0100538D01*
X0039237Y0100931D02*
X0037738Y0100931D01*
X0037346Y0101323D02*
X0038845Y0101323D01*
X0038453Y0101715D02*
X0035679Y0101715D01*
X0035679Y0102107D02*
X0038060Y0102107D01*
X0037668Y0102499D02*
X0035679Y0102499D01*
X0035679Y0102892D02*
X0037276Y0102892D01*
X0036884Y0103284D02*
X0035679Y0103284D01*
X0036713Y0103455D02*
X0036713Y0111367D01*
X0036644Y0111349D01*
X0035108Y0111349D01*
X0035108Y0114120D01*
X0034715Y0114120D01*
X0034715Y0111349D01*
X0033179Y0111349D01*
X0032875Y0111430D01*
X0032602Y0111588D01*
X0032379Y0111811D01*
X0032221Y0112084D01*
X0032140Y0112388D01*
X0032140Y0114014D01*
X0029298Y0111172D01*
X0034441Y0106029D01*
X0034048Y0106422D02*
X0036713Y0106422D01*
X0036713Y0106814D02*
X0033656Y0106814D01*
X0033264Y0107206D02*
X0036713Y0107206D01*
X0036713Y0107598D02*
X0032872Y0107598D01*
X0032480Y0107990D02*
X0036713Y0107990D01*
X0036713Y0108383D02*
X0032087Y0108383D01*
X0031695Y0108775D02*
X0036713Y0108775D01*
X0036713Y0109167D02*
X0031303Y0109167D01*
X0030911Y0109559D02*
X0036713Y0109559D01*
X0036713Y0109951D02*
X0030519Y0109951D01*
X0030126Y0110344D02*
X0036713Y0110344D01*
X0036713Y0110736D02*
X0029734Y0110736D01*
X0029342Y0111128D02*
X0036713Y0111128D01*
X0035108Y0111520D02*
X0034715Y0111520D01*
X0034715Y0111913D02*
X0035108Y0111913D01*
X0035108Y0112305D02*
X0034715Y0112305D01*
X0034715Y0112697D02*
X0035108Y0112697D01*
X0035108Y0113089D02*
X0034715Y0113089D01*
X0034715Y0113481D02*
X0035108Y0113481D01*
X0035108Y0113874D02*
X0034715Y0113874D01*
X0032140Y0113874D02*
X0032000Y0113874D01*
X0032140Y0113481D02*
X0031608Y0113481D01*
X0031215Y0113089D02*
X0032140Y0113089D01*
X0032140Y0112697D02*
X0030823Y0112697D01*
X0030431Y0112305D02*
X0032162Y0112305D01*
X0032320Y0111913D02*
X0030039Y0111913D01*
X0029647Y0111520D02*
X0032719Y0111520D01*
X0028769Y0115442D02*
X0009370Y0115442D01*
X0009262Y0115050D02*
X0028377Y0115050D01*
X0027985Y0114658D02*
X0009154Y0114658D01*
X0009046Y0114266D02*
X0010589Y0114266D01*
X0009642Y0113874D02*
X0008938Y0113874D01*
X0008830Y0113481D02*
X0009123Y0113481D01*
X0008731Y0113089D02*
X0008721Y0113089D01*
X0009478Y0115835D02*
X0029161Y0115835D01*
X0029554Y0116227D02*
X0009586Y0116227D01*
X0009694Y0116619D02*
X0029946Y0116619D01*
X0030338Y0117011D02*
X0009803Y0117011D01*
X0009911Y0117404D02*
X0030730Y0117404D01*
X0031123Y0117796D02*
X0010019Y0117796D01*
X0010127Y0118188D02*
X0031515Y0118188D01*
X0031907Y0118580D02*
X0010235Y0118580D01*
X0010343Y0118972D02*
X0032091Y0118972D01*
X0032091Y0119365D02*
X0010451Y0119365D01*
X0010559Y0119757D02*
X0028678Y0119757D01*
X0028286Y0120149D02*
X0010668Y0120149D01*
X0010783Y0120541D02*
X0028200Y0120541D01*
X0028200Y0120933D02*
X0010950Y0120933D01*
X0011117Y0121326D02*
X0028200Y0121326D01*
X0028200Y0121718D02*
X0011284Y0121718D01*
X0011451Y0122110D02*
X0028200Y0122110D01*
X0028200Y0122502D02*
X0011618Y0122502D01*
X0011785Y0122894D02*
X0028200Y0122894D01*
X0028200Y0123287D02*
X0011952Y0123287D01*
X0012119Y0123679D02*
X0028200Y0123679D01*
X0028200Y0124071D02*
X0012287Y0124071D01*
X0012454Y0124463D02*
X0028200Y0124463D01*
X0028200Y0124856D02*
X0012621Y0124856D01*
X0012788Y0125248D02*
X0028512Y0125248D01*
X0028904Y0125640D02*
X0012955Y0125640D01*
X0013122Y0126032D02*
X0029285Y0126032D01*
X0029285Y0126424D02*
X0028106Y0126424D01*
X0028498Y0126817D02*
X0029285Y0126817D01*
X0029285Y0127209D02*
X0028890Y0127209D01*
X0029282Y0127601D02*
X0029285Y0127601D01*
X0026588Y0126424D02*
X0013289Y0126424D01*
X0013456Y0126817D02*
X0026196Y0126817D01*
X0025803Y0127209D02*
X0013623Y0127209D01*
X0013791Y0127601D02*
X0025411Y0127601D01*
X0025019Y0127993D02*
X0013958Y0127993D01*
X0014125Y0128385D02*
X0024627Y0128385D01*
X0024235Y0128778D02*
X0014292Y0128778D01*
X0014459Y0129170D02*
X0023842Y0129170D01*
X0023723Y0129562D02*
X0014626Y0129562D01*
X0014805Y0129954D02*
X0023723Y0129954D01*
X0023723Y0130347D02*
X0015021Y0130347D01*
X0015237Y0130739D02*
X0024015Y0130739D01*
X0024407Y0131131D02*
X0015453Y0131131D01*
X0015669Y0131523D02*
X0024799Y0131523D01*
X0025192Y0131915D02*
X0015885Y0131915D01*
X0016101Y0132308D02*
X0025584Y0132308D01*
X0025976Y0132700D02*
X0022132Y0132700D01*
X0022524Y0133092D02*
X0026368Y0133092D01*
X0026760Y0133484D02*
X0022916Y0133484D01*
X0023309Y0133876D02*
X0027153Y0133876D01*
X0028654Y0133876D02*
X0031657Y0133876D01*
X0031657Y0133484D02*
X0029047Y0133484D01*
X0029439Y0133092D02*
X0031657Y0133092D01*
X0031726Y0132700D02*
X0029831Y0132700D01*
X0030223Y0132308D02*
X0032119Y0132308D01*
X0032511Y0131915D02*
X0030616Y0131915D01*
X0031008Y0131523D02*
X0032549Y0131523D01*
X0032157Y0131131D02*
X0031400Y0131131D01*
X0031527Y0130739D02*
X0031765Y0130739D01*
X0031999Y0134269D02*
X0023701Y0134269D01*
X0024093Y0134661D02*
X0032391Y0134661D01*
X0032783Y0135053D02*
X0024485Y0135053D01*
X0024877Y0135445D02*
X0033176Y0135445D01*
X0033568Y0135837D02*
X0025270Y0135837D01*
X0025403Y0136230D02*
X0033960Y0136230D01*
X0034352Y0136622D02*
X0025403Y0136622D01*
X0025403Y0137014D02*
X0035833Y0137014D01*
X0035833Y0137406D02*
X0033327Y0137406D01*
X0033905Y0137646D02*
X0032630Y0137117D01*
X0031250Y0137117D01*
X0029975Y0137646D01*
X0029000Y0138621D01*
X0028472Y0139896D01*
X0028472Y0141276D01*
X0029000Y0142551D01*
X0029975Y0143526D01*
X0031250Y0144054D01*
X0032630Y0144054D01*
X0033905Y0143526D01*
X0034881Y0142551D01*
X0035409Y0141276D01*
X0035409Y0139896D01*
X0034881Y0138621D01*
X0033905Y0137646D01*
X0034058Y0137799D02*
X0035833Y0137799D01*
X0035921Y0138191D02*
X0034450Y0138191D01*
X0034842Y0138583D02*
X0036313Y0138583D01*
X0036706Y0138975D02*
X0035027Y0138975D01*
X0035190Y0139367D02*
X0037098Y0139367D01*
X0037490Y0139760D02*
X0035352Y0139760D01*
X0035409Y0140152D02*
X0037882Y0140152D01*
X0038274Y0140544D02*
X0035409Y0140544D01*
X0035409Y0140936D02*
X0048545Y0140936D01*
X0048937Y0140544D02*
X0040082Y0140544D01*
X0040474Y0140152D02*
X0064685Y0140152D01*
X0064685Y0140544D02*
X0050577Y0140544D01*
X0050336Y0140303D02*
X0053103Y0143070D01*
X0053103Y0144227D01*
X0048109Y0149221D01*
X0046951Y0149221D01*
X0044184Y0146454D01*
X0044184Y0145297D01*
X0049178Y0140303D01*
X0050336Y0140303D01*
X0050969Y0140936D02*
X0064685Y0140936D01*
X0064685Y0141328D02*
X0051361Y0141328D01*
X0051754Y0141721D02*
X0064685Y0141721D01*
X0064685Y0142113D02*
X0052146Y0142113D01*
X0052538Y0142505D02*
X0064685Y0142505D01*
X0064685Y0142897D02*
X0052930Y0142897D01*
X0053103Y0143290D02*
X0064685Y0143290D01*
X0064685Y0143682D02*
X0053103Y0143682D01*
X0053103Y0144074D02*
X0064685Y0144074D01*
X0064685Y0144466D02*
X0052863Y0144466D01*
X0052471Y0144858D02*
X0064685Y0144858D01*
X0064685Y0145251D02*
X0052079Y0145251D01*
X0051687Y0145643D02*
X0064685Y0145643D01*
X0064685Y0146035D02*
X0051294Y0146035D01*
X0050902Y0146427D02*
X0064685Y0146427D01*
X0064685Y0146819D02*
X0050510Y0146819D01*
X0050118Y0147212D02*
X0064685Y0147212D01*
X0064685Y0147604D02*
X0049726Y0147604D01*
X0049333Y0147996D02*
X0064685Y0147996D01*
X0064671Y0148388D02*
X0064685Y0148388D01*
X0064654Y0148388D02*
X0048941Y0148388D01*
X0048549Y0148780D02*
X0063813Y0148780D01*
X0063504Y0149173D02*
X0048157Y0149173D01*
X0046903Y0149173D02*
X0043760Y0149173D01*
X0043760Y0149565D02*
X0049660Y0149565D01*
X0049874Y0149350D02*
X0051032Y0149350D01*
X0054634Y0152952D01*
X0054634Y0154110D01*
X0051588Y0157155D01*
X0050431Y0157155D01*
X0046829Y0153553D01*
X0046829Y0152396D01*
X0049874Y0149350D01*
X0049268Y0149957D02*
X0043624Y0149957D01*
X0043760Y0149628D02*
X0043232Y0150902D01*
X0042257Y0151878D01*
X0040982Y0152406D01*
X0039602Y0152406D01*
X0038327Y0151878D01*
X0037351Y0150902D01*
X0036823Y0149628D01*
X0036823Y0148248D01*
X0037351Y0146973D01*
X0038327Y0145997D01*
X0039602Y0145469D01*
X0040982Y0145469D01*
X0042257Y0145997D01*
X0043232Y0146973D01*
X0043760Y0148248D01*
X0043760Y0149628D01*
X0043461Y0150349D02*
X0048875Y0150349D01*
X0048483Y0150742D02*
X0043299Y0150742D01*
X0043001Y0151134D02*
X0048091Y0151134D01*
X0047699Y0151526D02*
X0042609Y0151526D01*
X0042160Y0151918D02*
X0047307Y0151918D01*
X0046914Y0152310D02*
X0041213Y0152310D01*
X0039371Y0152310D02*
X0035282Y0152310D01*
X0034890Y0151918D02*
X0038424Y0151918D01*
X0037975Y0151526D02*
X0034497Y0151526D01*
X0034105Y0151134D02*
X0037583Y0151134D01*
X0037285Y0150742D02*
X0033713Y0150742D01*
X0033321Y0150349D02*
X0037122Y0150349D01*
X0036960Y0149957D02*
X0032929Y0149957D01*
X0032536Y0149565D02*
X0036823Y0149565D01*
X0036823Y0149173D02*
X0032144Y0149173D01*
X0031752Y0148780D02*
X0036823Y0148780D01*
X0036823Y0148388D02*
X0031360Y0148388D01*
X0030968Y0147996D02*
X0036928Y0147996D01*
X0037090Y0147604D02*
X0030575Y0147604D01*
X0030183Y0147212D02*
X0037252Y0147212D01*
X0037505Y0146819D02*
X0029791Y0146819D01*
X0029399Y0146427D02*
X0037897Y0146427D01*
X0038289Y0146035D02*
X0029007Y0146035D01*
X0028614Y0145643D02*
X0039183Y0145643D01*
X0041401Y0145643D02*
X0044184Y0145643D01*
X0044184Y0146035D02*
X0042294Y0146035D01*
X0042687Y0146427D02*
X0044184Y0146427D01*
X0044550Y0146819D02*
X0043079Y0146819D01*
X0043331Y0147212D02*
X0044942Y0147212D01*
X0045334Y0147604D02*
X0043494Y0147604D01*
X0043656Y0147996D02*
X0045726Y0147996D01*
X0046119Y0148388D02*
X0043760Y0148388D01*
X0043760Y0148780D02*
X0046511Y0148780D01*
X0046829Y0152703D02*
X0035674Y0152703D01*
X0036066Y0153095D02*
X0046829Y0153095D01*
X0046829Y0153487D02*
X0036459Y0153487D01*
X0036851Y0153879D02*
X0047155Y0153879D01*
X0047548Y0154271D02*
X0037243Y0154271D01*
X0037635Y0154664D02*
X0047940Y0154664D01*
X0048332Y0155056D02*
X0038027Y0155056D01*
X0038420Y0155448D02*
X0048724Y0155448D01*
X0049116Y0155840D02*
X0045272Y0155840D01*
X0045665Y0156233D02*
X0049509Y0156233D01*
X0049901Y0156625D02*
X0046057Y0156625D01*
X0046449Y0157017D02*
X0050293Y0157017D01*
X0051726Y0157017D02*
X0057973Y0157017D01*
X0057785Y0157409D02*
X0046841Y0157409D01*
X0047234Y0157801D02*
X0057785Y0157801D01*
X0057785Y0158194D02*
X0047626Y0158194D01*
X0048018Y0158586D02*
X0057051Y0158586D01*
X0056551Y0158978D02*
X0048410Y0158978D01*
X0048509Y0159370D02*
X0056159Y0159370D01*
X0055766Y0159762D02*
X0048509Y0159762D01*
X0048509Y0160155D02*
X0055409Y0160155D01*
X0055246Y0160547D02*
X0048197Y0160547D01*
X0047804Y0160939D02*
X0055084Y0160939D01*
X0054921Y0161331D02*
X0047412Y0161331D01*
X0047020Y0161723D02*
X0054759Y0161723D01*
X0054657Y0162116D02*
X0046628Y0162116D01*
X0046235Y0162508D02*
X0054657Y0162508D01*
X0054657Y0162900D02*
X0045872Y0162900D01*
X0046266Y0163292D02*
X0054657Y0163292D01*
X0054657Y0163685D02*
X0046971Y0163685D01*
X0047677Y0164077D02*
X0054690Y0164077D01*
X0054853Y0164469D02*
X0048383Y0164469D01*
X0049089Y0164861D02*
X0055015Y0164861D01*
X0055178Y0165253D02*
X0049795Y0165253D01*
X0050504Y0165646D02*
X0055340Y0165646D01*
X0055601Y0166038D02*
X0051417Y0166038D01*
X0052330Y0166430D02*
X0055993Y0166430D01*
X0056385Y0166822D02*
X0053242Y0166822D01*
X0054155Y0167214D02*
X0056777Y0167214D01*
X0057598Y0167607D02*
X0055068Y0167607D01*
X0055981Y0167999D02*
X0058545Y0167999D01*
X0057807Y0168783D02*
X0065337Y0168783D01*
X0065073Y0168391D02*
X0056894Y0168391D01*
X0058720Y0169176D02*
X0065639Y0169176D01*
X0066031Y0169568D02*
X0059633Y0169568D01*
X0060985Y0169960D02*
X0066537Y0169960D01*
X0067218Y0170352D02*
X0062399Y0170352D01*
X0063813Y0170744D02*
X0068447Y0170744D01*
X0068155Y0170352D02*
X0067743Y0170352D01*
X0067864Y0169960D02*
X0068276Y0169960D01*
X0068397Y0169568D02*
X0067985Y0169568D01*
X0068105Y0169176D02*
X0068517Y0169176D01*
X0068638Y0168783D02*
X0068226Y0168783D01*
X0068347Y0168391D02*
X0068759Y0168391D01*
X0068879Y0167999D02*
X0068467Y0167999D01*
X0068588Y0167607D02*
X0069000Y0167607D01*
X0069121Y0167214D02*
X0068709Y0167214D01*
X0068829Y0166822D02*
X0069241Y0166822D01*
X0069362Y0166430D02*
X0068950Y0166430D01*
X0069483Y0166038D02*
X0070353Y0166038D01*
X0070289Y0166430D02*
X0071628Y0166430D01*
X0071564Y0166822D02*
X0072903Y0166822D01*
X0072839Y0167214D02*
X0078662Y0167214D01*
X0078499Y0166822D02*
X0074127Y0166822D01*
X0074088Y0167070D02*
X0074054Y0167176D01*
X0069558Y0165793D01*
X0070939Y0161303D01*
X0071192Y0161385D01*
X0071878Y0161735D01*
X0072502Y0162188D01*
X0073047Y0162733D01*
X0073500Y0163357D01*
X0073850Y0164044D01*
X0074088Y0164777D01*
X0074209Y0165538D01*
X0074209Y0166309D01*
X0074088Y0167070D01*
X0073914Y0167607D02*
X0078824Y0167607D01*
X0078987Y0167999D02*
X0073750Y0167999D01*
X0073550Y0168391D02*
X0079149Y0168391D01*
X0079312Y0168783D02*
X0073287Y0168783D01*
X0072985Y0169176D02*
X0079474Y0169176D01*
X0079637Y0169568D02*
X0072593Y0169568D01*
X0072087Y0169960D02*
X0079968Y0169960D01*
X0079680Y0169672D02*
X0078462Y0166733D01*
X0078462Y0163552D01*
X0079680Y0160613D01*
X0081929Y0158364D01*
X0084868Y0157146D01*
X0088049Y0157146D01*
X0090988Y0158364D01*
X0093237Y0160613D01*
X0094454Y0163552D01*
X0094454Y0166733D01*
X0093237Y0169672D01*
X0090988Y0171921D01*
X0100898Y0171921D01*
X0102312Y0171529D02*
X0091380Y0171529D01*
X0090988Y0171921D02*
X0088049Y0173139D01*
X0084868Y0173139D01*
X0081929Y0171921D01*
X0068056Y0171921D01*
X0066642Y0171529D02*
X0081537Y0171529D01*
X0081929Y0171921D02*
X0079680Y0169672D01*
X0080360Y0170352D02*
X0071406Y0170352D01*
X0070176Y0170744D02*
X0080752Y0170744D01*
X0081144Y0171137D02*
X0065228Y0171137D01*
X0064873Y0167999D02*
X0060963Y0167999D01*
X0061910Y0167607D02*
X0064710Y0167607D01*
X0064582Y0167214D02*
X0062730Y0167214D01*
X0063123Y0166822D02*
X0064496Y0166822D01*
X0064434Y0166430D02*
X0063515Y0166430D01*
X0063907Y0166038D02*
X0064415Y0166038D01*
X0064415Y0165646D02*
X0064168Y0165646D01*
X0064330Y0165253D02*
X0064460Y0165253D01*
X0064493Y0164861D02*
X0064522Y0164861D01*
X0064851Y0163685D02*
X0064957Y0163685D01*
X0064851Y0163292D02*
X0065171Y0163292D01*
X0065456Y0162900D02*
X0064851Y0162900D01*
X0064851Y0162508D02*
X0065802Y0162508D01*
X0066222Y0162116D02*
X0064851Y0162116D01*
X0064749Y0161723D02*
X0066768Y0161723D01*
X0067598Y0161331D02*
X0064587Y0161331D01*
X0064424Y0160939D02*
X0079545Y0160939D01*
X0079382Y0161331D02*
X0071025Y0161331D01*
X0070930Y0161331D02*
X0070519Y0161331D01*
X0070398Y0161723D02*
X0070810Y0161723D01*
X0070689Y0162116D02*
X0070277Y0162116D01*
X0070157Y0162508D02*
X0070568Y0162508D01*
X0070448Y0162900D02*
X0070036Y0162900D01*
X0069915Y0163292D02*
X0070327Y0163292D01*
X0070207Y0163685D02*
X0069795Y0163685D01*
X0069674Y0164077D02*
X0070086Y0164077D01*
X0069965Y0164469D02*
X0069553Y0164469D01*
X0069433Y0164861D02*
X0069845Y0164861D01*
X0069724Y0165253D02*
X0069312Y0165253D01*
X0069191Y0165646D02*
X0069603Y0165646D01*
X0072822Y0162508D02*
X0078895Y0162508D01*
X0078732Y0162900D02*
X0073168Y0162900D01*
X0073453Y0163292D02*
X0078570Y0163292D01*
X0078462Y0163685D02*
X0073667Y0163685D01*
X0073861Y0164077D02*
X0078462Y0164077D01*
X0078462Y0164469D02*
X0073988Y0164469D01*
X0074101Y0164861D02*
X0078462Y0164861D01*
X0078462Y0165253D02*
X0074164Y0165253D01*
X0074209Y0165646D02*
X0078462Y0165646D01*
X0078462Y0166038D02*
X0074209Y0166038D01*
X0074189Y0166430D02*
X0078462Y0166430D01*
X0079057Y0162116D02*
X0072402Y0162116D01*
X0071855Y0161723D02*
X0079220Y0161723D01*
X0079746Y0160547D02*
X0064262Y0160547D01*
X0064099Y0160155D02*
X0080138Y0160155D01*
X0080530Y0159762D02*
X0063741Y0159762D01*
X0063349Y0159370D02*
X0080923Y0159370D01*
X0081315Y0158978D02*
X0073113Y0158978D01*
X0073094Y0158987D02*
X0072783Y0159042D01*
X0072469Y0159014D01*
X0071026Y0158489D01*
X0072176Y0155330D01*
X0071806Y0155195D01*
X0071941Y0154825D01*
X0069522Y0153944D01*
X0070316Y0151762D01*
X0070497Y0151503D01*
X0070738Y0151301D01*
X0071024Y0151168D01*
X0071334Y0151113D01*
X0071648Y0151140D01*
X0073091Y0151666D01*
X0071941Y0154825D01*
X0072311Y0154960D01*
X0072176Y0155330D01*
X0074596Y0156210D01*
X0073801Y0158393D01*
X0073621Y0158651D01*
X0073379Y0158854D01*
X0073094Y0158987D01*
X0073666Y0158586D02*
X0081707Y0158586D01*
X0082340Y0158194D02*
X0073874Y0158194D01*
X0074017Y0157801D02*
X0083287Y0157801D01*
X0084234Y0157409D02*
X0074160Y0157409D01*
X0074302Y0157017D02*
X0132044Y0157017D01*
X0131516Y0157409D02*
X0088683Y0157409D01*
X0089630Y0157801D02*
X0130989Y0157801D01*
X0130461Y0158194D02*
X0090577Y0158194D01*
X0091210Y0158586D02*
X0129934Y0158586D01*
X0129406Y0158978D02*
X0091602Y0158978D01*
X0091994Y0159370D02*
X0128878Y0159370D01*
X0128351Y0159762D02*
X0092387Y0159762D01*
X0092779Y0160155D02*
X0127823Y0160155D01*
X0127290Y0160547D02*
X0093171Y0160547D01*
X0093372Y0160939D02*
X0126635Y0160939D01*
X0125980Y0161331D02*
X0093535Y0161331D01*
X0093697Y0161723D02*
X0125324Y0161723D01*
X0124669Y0162116D02*
X0093860Y0162116D01*
X0094022Y0162508D02*
X0124014Y0162508D01*
X0123355Y0162900D02*
X0094184Y0162900D01*
X0094347Y0163292D02*
X0122686Y0163292D01*
X0121983Y0163685D02*
X0094454Y0163685D01*
X0094454Y0164077D02*
X0121277Y0164077D01*
X0120571Y0164469D02*
X0094454Y0164469D01*
X0094454Y0164861D02*
X0119866Y0164861D01*
X0119160Y0165253D02*
X0094454Y0165253D01*
X0094454Y0165646D02*
X0118451Y0165646D01*
X0117538Y0166038D02*
X0094454Y0166038D01*
X0094454Y0166430D02*
X0116625Y0166430D01*
X0115712Y0166822D02*
X0094418Y0166822D01*
X0094255Y0167214D02*
X0114799Y0167214D01*
X0113886Y0167607D02*
X0094093Y0167607D01*
X0093930Y0167999D02*
X0112973Y0167999D01*
X0112060Y0168391D02*
X0093768Y0168391D01*
X0093605Y0168783D02*
X0111147Y0168783D01*
X0110234Y0169176D02*
X0093443Y0169176D01*
X0093280Y0169568D02*
X0109322Y0169568D01*
X0107970Y0169960D02*
X0092949Y0169960D01*
X0092557Y0170352D02*
X0106555Y0170352D01*
X0105141Y0170744D02*
X0092165Y0170744D01*
X0091772Y0171137D02*
X0103727Y0171137D01*
X0099468Y0172313D02*
X0090041Y0172313D01*
X0089095Y0172705D02*
X0096587Y0172705D01*
X0093705Y0173098D02*
X0088148Y0173098D01*
X0090823Y0173490D02*
X0078132Y0173490D01*
X0075250Y0173098D02*
X0084769Y0173098D01*
X0083822Y0172705D02*
X0072368Y0172705D01*
X0069486Y0172313D02*
X0082875Y0172313D01*
X0072370Y0158978D02*
X0062957Y0158978D01*
X0062457Y0158586D02*
X0071292Y0158586D01*
X0071134Y0158194D02*
X0070715Y0158194D01*
X0070657Y0158354D02*
X0069214Y0157829D01*
X0068955Y0157648D01*
X0068753Y0157407D01*
X0068620Y0157121D01*
X0068565Y0156811D01*
X0068592Y0156497D01*
X0069387Y0154314D01*
X0071806Y0155195D01*
X0070657Y0158354D01*
X0070215Y0158194D02*
X0062444Y0158194D01*
X0062836Y0157801D02*
X0069174Y0157801D01*
X0068755Y0157409D02*
X0063228Y0157409D01*
X0063621Y0157017D02*
X0068601Y0157017D01*
X0068581Y0156625D02*
X0066776Y0156625D01*
X0067259Y0156233D02*
X0068689Y0156233D01*
X0068831Y0155840D02*
X0067402Y0155840D01*
X0067545Y0155448D02*
X0068974Y0155448D01*
X0069117Y0155056D02*
X0067687Y0155056D01*
X0067830Y0154664D02*
X0069260Y0154664D01*
X0069545Y0153879D02*
X0068116Y0153879D01*
X0068259Y0153487D02*
X0069688Y0153487D01*
X0069831Y0153095D02*
X0068401Y0153095D01*
X0068544Y0152703D02*
X0069974Y0152703D01*
X0070116Y0152310D02*
X0068687Y0152310D01*
X0068830Y0151918D02*
X0070259Y0151918D01*
X0070481Y0151526D02*
X0068972Y0151526D01*
X0069115Y0151134D02*
X0071216Y0151134D01*
X0071572Y0151134D02*
X0102384Y0151134D01*
X0102384Y0151526D02*
X0072707Y0151526D01*
X0072999Y0151918D02*
X0073418Y0151918D01*
X0073461Y0151800D02*
X0074904Y0152325D01*
X0075162Y0152506D01*
X0075365Y0152748D01*
X0075498Y0153033D01*
X0075553Y0153344D01*
X0075525Y0153657D01*
X0074731Y0155840D01*
X0102510Y0155840D01*
X0102384Y0155448D02*
X0074873Y0155448D01*
X0074731Y0155840D02*
X0073580Y0155840D01*
X0073653Y0155448D02*
X0072502Y0155448D01*
X0072133Y0155448D02*
X0071714Y0155448D01*
X0071572Y0155840D02*
X0071990Y0155840D01*
X0071848Y0156233D02*
X0071429Y0156233D01*
X0071286Y0156625D02*
X0071705Y0156625D01*
X0071562Y0157017D02*
X0071143Y0157017D01*
X0071001Y0157409D02*
X0071419Y0157409D01*
X0071277Y0157801D02*
X0070858Y0157801D01*
X0071424Y0155056D02*
X0071857Y0155056D01*
X0072000Y0154664D02*
X0072419Y0154664D01*
X0072311Y0154960D02*
X0073461Y0151800D01*
X0073785Y0151918D02*
X0102384Y0151918D01*
X0102384Y0152310D02*
X0074863Y0152310D01*
X0075327Y0152703D02*
X0102384Y0152703D01*
X0102384Y0153095D02*
X0075509Y0153095D01*
X0075540Y0153487D02*
X0102384Y0153487D01*
X0102384Y0153879D02*
X0075444Y0153879D01*
X0075302Y0154271D02*
X0102384Y0154271D01*
X0102384Y0154664D02*
X0075159Y0154664D01*
X0075016Y0155056D02*
X0102384Y0155056D01*
X0102902Y0156233D02*
X0074588Y0156233D01*
X0074445Y0156625D02*
X0132572Y0156625D01*
X0133099Y0156233D02*
X0128907Y0156233D01*
X0129300Y0155840D02*
X0133627Y0155840D01*
X0134155Y0155448D02*
X0129425Y0155448D01*
X0129425Y0155056D02*
X0134682Y0155056D01*
X0135210Y0154664D02*
X0129425Y0154664D01*
X0129425Y0154271D02*
X0135687Y0154271D01*
X0136089Y0153879D02*
X0129425Y0153879D01*
X0129425Y0153487D02*
X0136492Y0153487D01*
X0136894Y0153095D02*
X0129425Y0153095D01*
X0129425Y0152703D02*
X0137297Y0152703D01*
X0137700Y0152310D02*
X0129425Y0152310D01*
X0129425Y0151918D02*
X0138102Y0151918D01*
X0138505Y0151526D02*
X0129425Y0151526D01*
X0129425Y0151134D02*
X0138908Y0151134D01*
X0139310Y0150742D02*
X0129425Y0150742D01*
X0128908Y0147212D02*
X0102902Y0147212D01*
X0102902Y0147604D02*
X0115210Y0147604D01*
X0114818Y0147996D02*
X0102902Y0147996D01*
X0102902Y0148388D02*
X0114426Y0148388D01*
X0103161Y0148780D02*
X0102559Y0148780D01*
X0102769Y0149173D02*
X0102167Y0149173D01*
X0102384Y0149565D02*
X0068679Y0149565D01*
X0068679Y0149173D02*
X0095842Y0149173D01*
X0095450Y0148780D02*
X0068679Y0148780D01*
X0068679Y0148388D02*
X0095108Y0148388D01*
X0095108Y0147996D02*
X0068679Y0147996D01*
X0068679Y0147604D02*
X0095108Y0147604D01*
X0095108Y0147212D02*
X0068679Y0147212D01*
X0068679Y0146819D02*
X0095108Y0146819D01*
X0095108Y0146427D02*
X0068679Y0146427D01*
X0068679Y0146035D02*
X0095108Y0146035D01*
X0095108Y0145643D02*
X0068679Y0145643D01*
X0068679Y0145251D02*
X0095108Y0145251D01*
X0095108Y0144858D02*
X0068679Y0144858D01*
X0068679Y0144466D02*
X0095108Y0144466D01*
X0095108Y0144074D02*
X0068679Y0144074D01*
X0068679Y0143682D02*
X0095108Y0143682D01*
X0095108Y0143290D02*
X0068679Y0143290D01*
X0068679Y0142897D02*
X0095108Y0142897D01*
X0095108Y0142505D02*
X0068679Y0142505D01*
X0068679Y0142113D02*
X0095108Y0142113D01*
X0095309Y0141721D02*
X0068679Y0141721D01*
X0068679Y0141328D02*
X0095308Y0141328D01*
X0095308Y0140936D02*
X0068679Y0140936D01*
X0068679Y0140544D02*
X0098808Y0140544D01*
X0099202Y0140544D02*
X0128908Y0140544D01*
X0128908Y0140152D02*
X0102702Y0140152D01*
X0102702Y0139760D02*
X0128908Y0139760D01*
X0128908Y0139367D02*
X0102702Y0139367D01*
X0102902Y0138975D02*
X0128908Y0138975D01*
X0129107Y0138583D02*
X0102902Y0138583D01*
X0102902Y0138191D02*
X0129108Y0138191D01*
X0129108Y0137799D02*
X0102902Y0137799D01*
X0102902Y0137406D02*
X0132608Y0137406D01*
X0133002Y0137406D02*
X0144908Y0137406D01*
X0145300Y0137014D02*
X0136502Y0137014D01*
X0136502Y0137114D02*
X0133002Y0137114D01*
X0133002Y0137508D01*
X0136502Y0137508D01*
X0136502Y0138569D01*
X0136499Y0138579D01*
X0136702Y0138782D01*
X0136702Y0145612D01*
X0151985Y0130329D01*
X0151985Y0110073D01*
X0151614Y0110073D01*
X0149627Y0108086D01*
X0149585Y0108129D01*
X0135498Y0122216D01*
X0135883Y0122216D01*
X0136702Y0123034D01*
X0136702Y0126527D01*
X0137409Y0127235D01*
X0138579Y0128405D01*
X0138579Y0133359D01*
X0137079Y0134859D01*
X0136702Y0135236D01*
X0136702Y0135840D01*
X0136499Y0136043D01*
X0136502Y0136053D01*
X0136502Y0137114D01*
X0136502Y0136622D02*
X0145692Y0136622D01*
X0146084Y0136230D02*
X0136502Y0136230D01*
X0136702Y0135837D02*
X0146476Y0135837D01*
X0146869Y0135445D02*
X0136702Y0135445D01*
X0136885Y0135053D02*
X0147261Y0135053D01*
X0147653Y0134661D02*
X0137277Y0134661D01*
X0137669Y0134269D02*
X0148045Y0134269D01*
X0148438Y0133876D02*
X0138061Y0133876D01*
X0138453Y0133484D02*
X0148830Y0133484D01*
X0149222Y0133092D02*
X0138579Y0133092D01*
X0138579Y0132700D02*
X0149614Y0132700D01*
X0150006Y0132308D02*
X0138579Y0132308D01*
X0138579Y0131915D02*
X0150399Y0131915D01*
X0150791Y0131523D02*
X0138579Y0131523D01*
X0138579Y0131131D02*
X0151183Y0131131D01*
X0151575Y0130739D02*
X0138579Y0130739D01*
X0138579Y0130347D02*
X0151967Y0130347D01*
X0151985Y0129954D02*
X0138579Y0129954D01*
X0138579Y0129562D02*
X0151985Y0129562D01*
X0151985Y0129170D02*
X0138579Y0129170D01*
X0138579Y0128778D02*
X0151985Y0128778D01*
X0151985Y0128385D02*
X0138560Y0128385D01*
X0138167Y0127993D02*
X0151985Y0127993D01*
X0151985Y0127601D02*
X0137775Y0127601D01*
X0137383Y0127209D02*
X0151985Y0127209D01*
X0151985Y0126817D02*
X0136991Y0126817D01*
X0136702Y0126424D02*
X0151985Y0126424D01*
X0151985Y0126032D02*
X0136702Y0126032D01*
X0136702Y0125640D02*
X0151985Y0125640D01*
X0151985Y0125248D02*
X0136702Y0125248D01*
X0136702Y0124856D02*
X0151985Y0124856D01*
X0151985Y0124463D02*
X0136702Y0124463D01*
X0136702Y0124071D02*
X0151985Y0124071D01*
X0151985Y0123679D02*
X0136702Y0123679D01*
X0136702Y0123287D02*
X0151985Y0123287D01*
X0151985Y0122894D02*
X0136562Y0122894D01*
X0136170Y0122502D02*
X0151985Y0122502D01*
X0151985Y0122110D02*
X0135603Y0122110D01*
X0135995Y0121718D02*
X0151985Y0121718D01*
X0151985Y0121326D02*
X0136388Y0121326D01*
X0136780Y0120933D02*
X0151985Y0120933D01*
X0151985Y0120541D02*
X0137172Y0120541D01*
X0137564Y0120149D02*
X0151985Y0120149D01*
X0151985Y0119757D02*
X0137957Y0119757D01*
X0138349Y0119365D02*
X0151985Y0119365D01*
X0151985Y0118972D02*
X0138741Y0118972D01*
X0139133Y0118580D02*
X0151985Y0118580D01*
X0151985Y0118188D02*
X0139525Y0118188D01*
X0139918Y0117796D02*
X0151985Y0117796D01*
X0151985Y0117404D02*
X0140310Y0117404D01*
X0140702Y0117011D02*
X0151985Y0117011D01*
X0151985Y0116619D02*
X0141094Y0116619D01*
X0141486Y0116227D02*
X0151985Y0116227D01*
X0151985Y0115835D02*
X0141879Y0115835D01*
X0142271Y0115442D02*
X0151985Y0115442D01*
X0151985Y0115050D02*
X0142663Y0115050D01*
X0143055Y0114658D02*
X0151985Y0114658D01*
X0151985Y0114266D02*
X0143448Y0114266D01*
X0143840Y0113874D02*
X0151985Y0113874D01*
X0151985Y0113481D02*
X0144232Y0113481D01*
X0144624Y0113089D02*
X0151985Y0113089D01*
X0151985Y0112697D02*
X0145016Y0112697D01*
X0145409Y0112305D02*
X0151985Y0112305D01*
X0151985Y0111913D02*
X0145801Y0111913D01*
X0146193Y0111520D02*
X0151985Y0111520D01*
X0151985Y0111128D02*
X0146585Y0111128D01*
X0146977Y0110736D02*
X0151985Y0110736D01*
X0151985Y0110344D02*
X0147370Y0110344D01*
X0147762Y0109951D02*
X0151493Y0109951D01*
X0151100Y0109559D02*
X0148154Y0109559D01*
X0148546Y0109167D02*
X0150708Y0109167D01*
X0150316Y0108775D02*
X0148938Y0108775D01*
X0149331Y0108383D02*
X0149924Y0108383D01*
X0155379Y0110344D02*
X0161120Y0110344D01*
X0161068Y0110736D02*
X0155379Y0110736D01*
X0155379Y0111128D02*
X0161015Y0111128D01*
X0160913Y0111520D02*
X0155379Y0111520D01*
X0155379Y0111913D02*
X0160806Y0111913D01*
X0160699Y0112305D02*
X0155379Y0112305D01*
X0155379Y0112697D02*
X0160592Y0112697D01*
X0160485Y0113089D02*
X0155379Y0113089D01*
X0155379Y0113481D02*
X0160378Y0113481D01*
X0160271Y0113874D02*
X0155379Y0113874D01*
X0155379Y0114266D02*
X0160164Y0114266D01*
X0160057Y0114658D02*
X0155379Y0114658D01*
X0155379Y0115050D02*
X0159950Y0115050D01*
X0159843Y0115442D02*
X0155379Y0115442D01*
X0155379Y0115835D02*
X0159737Y0115835D01*
X0159630Y0116227D02*
X0155379Y0116227D01*
X0155379Y0116619D02*
X0159523Y0116619D01*
X0159416Y0117011D02*
X0155379Y0117011D01*
X0155379Y0117404D02*
X0159309Y0117404D01*
X0159202Y0117796D02*
X0155379Y0117796D01*
X0155379Y0118188D02*
X0159095Y0118188D01*
X0158988Y0118580D02*
X0155379Y0118580D01*
X0155379Y0118972D02*
X0158881Y0118972D01*
X0158774Y0119365D02*
X0155379Y0119365D01*
X0155379Y0119757D02*
X0158667Y0119757D01*
X0158560Y0120149D02*
X0155379Y0120149D01*
X0155379Y0120541D02*
X0158453Y0120541D01*
X0158346Y0120933D02*
X0155379Y0120933D01*
X0155379Y0121326D02*
X0158195Y0121326D01*
X0158029Y0121718D02*
X0155379Y0121718D01*
X0155379Y0122110D02*
X0157864Y0122110D01*
X0157698Y0122502D02*
X0155379Y0122502D01*
X0155379Y0122894D02*
X0157533Y0122894D01*
X0157367Y0123287D02*
X0155379Y0123287D01*
X0155379Y0123679D02*
X0157202Y0123679D01*
X0157036Y0124071D02*
X0155379Y0124071D01*
X0155379Y0124463D02*
X0156871Y0124463D01*
X0156705Y0124856D02*
X0155379Y0124856D01*
X0155379Y0125248D02*
X0156540Y0125248D01*
X0156374Y0125640D02*
X0155379Y0125640D01*
X0155379Y0126032D02*
X0156209Y0126032D01*
X0156044Y0126424D02*
X0155379Y0126424D01*
X0155379Y0126817D02*
X0155878Y0126817D01*
X0155713Y0127209D02*
X0155379Y0127209D01*
X0155379Y0127601D02*
X0155547Y0127601D01*
X0155382Y0127993D02*
X0155379Y0127993D01*
X0150940Y0136230D02*
X0150884Y0136230D01*
X0150709Y0136622D02*
X0150491Y0136622D01*
X0150478Y0137014D02*
X0150099Y0137014D01*
X0150247Y0137406D02*
X0149707Y0137406D01*
X0150016Y0137799D02*
X0149315Y0137799D01*
X0148923Y0138191D02*
X0149785Y0138191D01*
X0149554Y0138583D02*
X0148530Y0138583D01*
X0148138Y0138975D02*
X0149323Y0138975D01*
X0149069Y0139367D02*
X0147746Y0139367D01*
X0147354Y0139760D02*
X0148762Y0139760D01*
X0148454Y0140152D02*
X0146962Y0140152D01*
X0146569Y0140544D02*
X0148146Y0140544D01*
X0147838Y0140936D02*
X0146177Y0140936D01*
X0145785Y0141328D02*
X0147530Y0141328D01*
X0147222Y0141721D02*
X0145393Y0141721D01*
X0145000Y0142113D02*
X0146915Y0142113D01*
X0146607Y0142505D02*
X0144608Y0142505D01*
X0144216Y0142897D02*
X0146299Y0142897D01*
X0145991Y0143290D02*
X0143824Y0143290D01*
X0143432Y0143682D02*
X0145683Y0143682D01*
X0145376Y0144074D02*
X0143039Y0144074D01*
X0142647Y0144466D02*
X0145068Y0144466D01*
X0144760Y0144858D02*
X0142255Y0144858D01*
X0141863Y0145251D02*
X0144452Y0145251D01*
X0144144Y0145643D02*
X0141471Y0145643D01*
X0141078Y0146035D02*
X0143837Y0146035D01*
X0143529Y0146427D02*
X0140686Y0146427D01*
X0140294Y0146819D02*
X0143221Y0146819D01*
X0142913Y0147212D02*
X0139902Y0147212D01*
X0139509Y0147604D02*
X0142531Y0147604D01*
X0142128Y0147996D02*
X0139117Y0147996D01*
X0138725Y0148388D02*
X0141726Y0148388D01*
X0141323Y0148780D02*
X0138333Y0148780D01*
X0137941Y0149173D02*
X0140921Y0149173D01*
X0140518Y0149565D02*
X0137548Y0149565D01*
X0137156Y0149957D02*
X0140115Y0149957D01*
X0139713Y0150349D02*
X0136764Y0150349D01*
X0136702Y0145251D02*
X0137063Y0145251D01*
X0136702Y0144858D02*
X0137456Y0144858D01*
X0137848Y0144466D02*
X0136702Y0144466D01*
X0136702Y0144074D02*
X0138240Y0144074D01*
X0138632Y0143682D02*
X0136702Y0143682D01*
X0136702Y0143290D02*
X0139024Y0143290D01*
X0139417Y0142897D02*
X0136702Y0142897D01*
X0136702Y0142505D02*
X0139809Y0142505D01*
X0140201Y0142113D02*
X0136702Y0142113D01*
X0136702Y0141721D02*
X0140593Y0141721D01*
X0140985Y0141328D02*
X0136702Y0141328D01*
X0136702Y0140936D02*
X0141378Y0140936D01*
X0141770Y0140544D02*
X0136702Y0140544D01*
X0136702Y0140152D02*
X0142162Y0140152D01*
X0142554Y0139760D02*
X0136702Y0139760D01*
X0136702Y0139367D02*
X0142947Y0139367D01*
X0143339Y0138975D02*
X0136702Y0138975D01*
X0136503Y0138583D02*
X0143731Y0138583D01*
X0144123Y0138191D02*
X0136502Y0138191D01*
X0136502Y0137799D02*
X0144515Y0137799D01*
X0129108Y0137014D02*
X0102902Y0137014D01*
X0102902Y0136622D02*
X0129108Y0136622D01*
X0128908Y0140936D02*
X0102702Y0140936D01*
X0102702Y0141328D02*
X0128908Y0141328D01*
X0128908Y0141721D02*
X0102701Y0141721D01*
X0102902Y0142113D02*
X0128908Y0142113D01*
X0128908Y0142505D02*
X0102902Y0142505D01*
X0102902Y0142897D02*
X0128908Y0142897D01*
X0128908Y0143290D02*
X0102902Y0143290D01*
X0102902Y0143682D02*
X0128908Y0143682D01*
X0128908Y0144074D02*
X0102902Y0144074D01*
X0102902Y0144466D02*
X0128908Y0144466D01*
X0128908Y0144858D02*
X0102902Y0144858D01*
X0102902Y0145251D02*
X0128908Y0145251D01*
X0128908Y0145643D02*
X0102902Y0145643D01*
X0102902Y0146035D02*
X0128908Y0146035D01*
X0128908Y0146427D02*
X0102902Y0146427D01*
X0102902Y0146819D02*
X0128908Y0146819D01*
X0103856Y0136230D02*
X0102902Y0136230D01*
X0102902Y0135837D02*
X0103464Y0135837D01*
X0103071Y0135445D02*
X0102714Y0135445D01*
X0095308Y0139367D02*
X0068679Y0139367D01*
X0068679Y0138975D02*
X0095108Y0138975D01*
X0094793Y0138583D02*
X0068679Y0138583D01*
X0068679Y0138191D02*
X0094400Y0138191D01*
X0094008Y0137799D02*
X0068679Y0137799D01*
X0068679Y0137406D02*
X0093616Y0137406D01*
X0093224Y0137014D02*
X0068679Y0137014D01*
X0068679Y0136622D02*
X0092832Y0136622D01*
X0092439Y0136230D02*
X0068679Y0136230D01*
X0068679Y0135837D02*
X0092047Y0135837D01*
X0091655Y0135445D02*
X0068679Y0135445D01*
X0068679Y0135053D02*
X0091339Y0135053D01*
X0091339Y0134661D02*
X0068679Y0134661D01*
X0068679Y0134269D02*
X0091339Y0134269D01*
X0091339Y0133876D02*
X0068679Y0133876D01*
X0068679Y0133484D02*
X0091339Y0133484D01*
X0091721Y0133092D02*
X0068679Y0133092D01*
X0068679Y0132700D02*
X0092114Y0132700D01*
X0092506Y0132308D02*
X0068679Y0132308D01*
X0068679Y0131915D02*
X0092898Y0131915D01*
X0093290Y0131523D02*
X0068679Y0131523D01*
X0068679Y0131131D02*
X0093477Y0131131D01*
X0093485Y0130739D02*
X0068679Y0130739D01*
X0068679Y0130347D02*
X0093173Y0130347D01*
X0092780Y0129954D02*
X0068679Y0129954D01*
X0068679Y0129562D02*
X0092388Y0129562D01*
X0091996Y0129170D02*
X0068679Y0129170D01*
X0068679Y0128778D02*
X0091604Y0128778D01*
X0091212Y0128385D02*
X0068679Y0128385D01*
X0068679Y0127993D02*
X0090819Y0127993D01*
X0090427Y0127601D02*
X0068679Y0127601D01*
X0068679Y0127209D02*
X0090035Y0127209D01*
X0089643Y0126817D02*
X0068679Y0126817D01*
X0068679Y0126424D02*
X0089251Y0126424D01*
X0088858Y0126032D02*
X0068679Y0126032D01*
X0068679Y0125640D02*
X0088466Y0125640D01*
X0088074Y0125248D02*
X0068679Y0125248D01*
X0068679Y0124856D02*
X0087682Y0124856D01*
X0087289Y0124463D02*
X0068679Y0124463D01*
X0068679Y0124071D02*
X0086897Y0124071D01*
X0086505Y0123679D02*
X0068679Y0123679D01*
X0068679Y0123287D02*
X0086113Y0123287D01*
X0085721Y0122894D02*
X0068679Y0122894D01*
X0068679Y0122502D02*
X0085328Y0122502D01*
X0084936Y0122110D02*
X0068679Y0122110D01*
X0068679Y0121718D02*
X0084544Y0121718D01*
X0084152Y0121326D02*
X0068679Y0121326D01*
X0068679Y0120933D02*
X0083760Y0120933D01*
X0083367Y0120541D02*
X0068679Y0120541D01*
X0068679Y0120149D02*
X0082975Y0120149D01*
X0082583Y0119757D02*
X0068679Y0119757D01*
X0068679Y0119365D02*
X0082191Y0119365D01*
X0081799Y0118972D02*
X0068679Y0118972D01*
X0068679Y0118580D02*
X0081406Y0118580D01*
X0081014Y0118188D02*
X0068679Y0118188D01*
X0068679Y0117796D02*
X0080622Y0117796D01*
X0080230Y0117404D02*
X0068478Y0117404D01*
X0068085Y0117011D02*
X0079837Y0117011D01*
X0079445Y0116619D02*
X0067693Y0116619D01*
X0067301Y0116227D02*
X0079053Y0116227D01*
X0078661Y0115835D02*
X0066909Y0115835D01*
X0066843Y0115442D02*
X0078269Y0115442D01*
X0077876Y0115050D02*
X0066843Y0115050D01*
X0066843Y0114658D02*
X0070764Y0114658D01*
X0070867Y0114717D02*
X0070594Y0114560D01*
X0070371Y0114337D01*
X0070213Y0114064D01*
X0070132Y0113759D01*
X0070132Y0111830D01*
X0074382Y0111830D01*
X0074382Y0114799D01*
X0071171Y0114799D01*
X0070867Y0114717D01*
X0070330Y0114266D02*
X0066843Y0114266D01*
X0066843Y0113874D02*
X0070162Y0113874D01*
X0070132Y0113481D02*
X0066843Y0113481D01*
X0066843Y0113089D02*
X0070132Y0113089D01*
X0070132Y0112697D02*
X0066843Y0112697D01*
X0066843Y0112305D02*
X0070132Y0112305D01*
X0070132Y0111913D02*
X0066843Y0111913D01*
X0066843Y0111520D02*
X0074382Y0111520D01*
X0074382Y0111128D02*
X0074775Y0111128D01*
X0074775Y0110736D02*
X0074382Y0110736D01*
X0074382Y0110344D02*
X0074775Y0110344D01*
X0074775Y0109951D02*
X0074382Y0109951D01*
X0074382Y0109559D02*
X0074775Y0109559D01*
X0074775Y0109167D02*
X0074382Y0109167D01*
X0074382Y0108775D02*
X0074775Y0108775D01*
X0075317Y0107990D02*
X0065079Y0107990D01*
X0065079Y0107598D02*
X0074924Y0107598D01*
X0074532Y0107206D02*
X0065079Y0107206D01*
X0065079Y0106814D02*
X0074140Y0106814D01*
X0073748Y0106422D02*
X0065079Y0106422D01*
X0065079Y0106029D02*
X0073356Y0106029D01*
X0072963Y0105637D02*
X0065079Y0105637D01*
X0065079Y0105245D02*
X0072571Y0105245D01*
X0072179Y0104853D02*
X0064803Y0104853D01*
X0064410Y0104461D02*
X0071787Y0104461D01*
X0069594Y0104068D02*
X0064018Y0104068D01*
X0063626Y0103676D02*
X0069202Y0103676D01*
X0068810Y0103284D02*
X0063234Y0103284D01*
X0062841Y0102892D02*
X0068418Y0102892D01*
X0068026Y0102499D02*
X0062449Y0102499D01*
X0062252Y0102107D02*
X0067985Y0102107D01*
X0067985Y0101715D02*
X0062252Y0101715D01*
X0062252Y0101323D02*
X0067985Y0101323D01*
X0067985Y0100931D02*
X0062252Y0100931D01*
X0062252Y0100538D02*
X0067985Y0100538D01*
X0067985Y0100146D02*
X0062252Y0100146D01*
X0060763Y0105612D02*
X0057127Y0105612D01*
X0056309Y0104794D01*
X0056309Y0100029D01*
X0055166Y0100029D01*
X0055166Y0104794D01*
X0054347Y0105612D01*
X0050701Y0105612D01*
X0050079Y0106235D01*
X0050079Y0110153D01*
X0050171Y0110245D01*
X0050331Y0110153D01*
X0050636Y0110071D01*
X0051679Y0110071D01*
X0051679Y0113433D01*
X0052073Y0113433D01*
X0052073Y0110071D01*
X0053116Y0110071D01*
X0053420Y0110153D01*
X0053581Y0110245D01*
X0053955Y0109871D01*
X0057277Y0109871D01*
X0058096Y0110689D01*
X0058096Y0111635D01*
X0058809Y0111635D01*
X0060112Y0112938D01*
X0060112Y0111444D01*
X0061276Y0110280D01*
X0061685Y0110280D01*
X0061685Y0106535D01*
X0060763Y0105612D01*
X0060788Y0105637D02*
X0050676Y0105637D01*
X0050284Y0106029D02*
X0061180Y0106029D01*
X0061572Y0106422D02*
X0050079Y0106422D01*
X0050079Y0106814D02*
X0061685Y0106814D01*
X0061685Y0107206D02*
X0050079Y0107206D01*
X0050079Y0107598D02*
X0061685Y0107598D01*
X0061685Y0107990D02*
X0050079Y0107990D01*
X0050079Y0108383D02*
X0061685Y0108383D01*
X0061685Y0108775D02*
X0050079Y0108775D01*
X0050079Y0109167D02*
X0061685Y0109167D01*
X0061685Y0109559D02*
X0050079Y0109559D01*
X0050079Y0109951D02*
X0053874Y0109951D01*
X0052073Y0110344D02*
X0051679Y0110344D01*
X0051679Y0110736D02*
X0052073Y0110736D01*
X0052073Y0111128D02*
X0051679Y0111128D01*
X0051679Y0111520D02*
X0052073Y0111520D01*
X0052073Y0111913D02*
X0051679Y0111913D01*
X0051679Y0112305D02*
X0052073Y0112305D01*
X0052073Y0112697D02*
X0051679Y0112697D01*
X0051679Y0113089D02*
X0052073Y0113089D01*
X0052073Y0113827D02*
X0051679Y0113827D01*
X0051679Y0117189D01*
X0050636Y0117189D01*
X0050331Y0117108D01*
X0050171Y0117015D01*
X0049797Y0117389D01*
X0049295Y0117389D01*
X0049757Y0117851D01*
X0053136Y0121231D01*
X0053136Y0120926D01*
X0053955Y0120108D01*
X0057206Y0120108D01*
X0058179Y0119135D01*
X0060112Y0119135D01*
X0060112Y0118586D01*
X0059585Y0118059D01*
X0058096Y0116569D01*
X0058096Y0116571D01*
X0057277Y0117389D01*
X0053955Y0117389D01*
X0053581Y0117015D01*
X0053420Y0117108D01*
X0053116Y0117189D01*
X0052073Y0117189D01*
X0052073Y0113827D01*
X0052073Y0113874D02*
X0051679Y0113874D01*
X0051679Y0114266D02*
X0052073Y0114266D01*
X0052073Y0114658D02*
X0051679Y0114658D01*
X0051679Y0115050D02*
X0052073Y0115050D01*
X0052073Y0115442D02*
X0051679Y0115442D01*
X0051679Y0115835D02*
X0052073Y0115835D01*
X0052073Y0116227D02*
X0051679Y0116227D01*
X0051679Y0116619D02*
X0052073Y0116619D01*
X0052073Y0117011D02*
X0051679Y0117011D01*
X0050486Y0118580D02*
X0060106Y0118580D01*
X0060112Y0118972D02*
X0050878Y0118972D01*
X0051270Y0119365D02*
X0057949Y0119365D01*
X0057557Y0119757D02*
X0051663Y0119757D01*
X0052055Y0120149D02*
X0053914Y0120149D01*
X0053522Y0120541D02*
X0052447Y0120541D01*
X0052839Y0120933D02*
X0053136Y0120933D01*
X0050785Y0123679D02*
X0050615Y0123679D01*
X0050615Y0123509D02*
X0050615Y0126808D01*
X0049797Y0127626D01*
X0049779Y0127626D01*
X0049779Y0128429D01*
X0050483Y0128429D01*
X0051301Y0129247D01*
X0051301Y0134435D01*
X0052644Y0134435D01*
X0052644Y0132385D01*
X0055219Y0132385D01*
X0055219Y0131991D01*
X0055613Y0131991D01*
X0055613Y0132385D01*
X0058187Y0132385D01*
X0058187Y0134435D01*
X0064685Y0134435D01*
X0064685Y0123916D01*
X0061276Y0123916D01*
X0060112Y0122752D01*
X0060112Y0122529D01*
X0059585Y0122529D01*
X0058096Y0124018D01*
X0058096Y0126808D01*
X0057277Y0127626D01*
X0053955Y0127626D01*
X0053136Y0126808D01*
X0053136Y0125664D01*
X0052770Y0125664D01*
X0052726Y0125620D01*
X0052663Y0125616D01*
X0052235Y0125129D01*
X0050615Y0123509D01*
X0050615Y0124071D02*
X0051177Y0124071D01*
X0051570Y0124463D02*
X0050615Y0124463D01*
X0050615Y0124856D02*
X0051962Y0124856D01*
X0052340Y0125248D02*
X0050615Y0125248D01*
X0050615Y0125640D02*
X0052746Y0125640D01*
X0053136Y0126032D02*
X0050615Y0126032D01*
X0050615Y0126424D02*
X0053136Y0126424D01*
X0053145Y0126817D02*
X0050607Y0126817D01*
X0050214Y0127209D02*
X0053537Y0127209D01*
X0053930Y0127601D02*
X0049822Y0127601D01*
X0049779Y0127993D02*
X0064685Y0127993D01*
X0064685Y0127601D02*
X0057302Y0127601D01*
X0057695Y0127209D02*
X0064685Y0127209D01*
X0064685Y0126817D02*
X0058087Y0126817D01*
X0058096Y0126424D02*
X0064685Y0126424D01*
X0064685Y0126032D02*
X0058096Y0126032D01*
X0058096Y0125640D02*
X0064685Y0125640D01*
X0064685Y0125248D02*
X0058096Y0125248D01*
X0058096Y0124856D02*
X0064685Y0124856D01*
X0064685Y0124463D02*
X0058096Y0124463D01*
X0058096Y0124071D02*
X0064685Y0124071D01*
X0061039Y0123679D02*
X0058434Y0123679D01*
X0058827Y0123287D02*
X0060647Y0123287D01*
X0060255Y0122894D02*
X0059219Y0122894D01*
X0059714Y0118188D02*
X0050094Y0118188D01*
X0049701Y0117796D02*
X0059322Y0117796D01*
X0058930Y0117404D02*
X0049309Y0117404D01*
X0046825Y0117389D02*
X0046474Y0117389D01*
X0045656Y0116571D01*
X0045656Y0110689D01*
X0046474Y0109871D01*
X0046685Y0109871D01*
X0046685Y0104829D01*
X0049222Y0102292D01*
X0049222Y0100629D01*
X0048228Y0100629D01*
X0048228Y0100705D01*
X0047410Y0101523D01*
X0044292Y0101523D01*
X0040706Y0105109D01*
X0040706Y0119417D01*
X0040805Y0119417D01*
X0041623Y0120235D01*
X0041623Y0122591D01*
X0046825Y0117389D01*
X0046810Y0117404D02*
X0040706Y0117404D01*
X0040706Y0117796D02*
X0046418Y0117796D01*
X0046026Y0118188D02*
X0040706Y0118188D01*
X0040706Y0118580D02*
X0045634Y0118580D01*
X0045242Y0118972D02*
X0040706Y0118972D01*
X0040706Y0119365D02*
X0044849Y0119365D01*
X0044457Y0119757D02*
X0041145Y0119757D01*
X0041538Y0120149D02*
X0044065Y0120149D01*
X0043673Y0120541D02*
X0041623Y0120541D01*
X0041623Y0120933D02*
X0043281Y0120933D01*
X0042888Y0121326D02*
X0041623Y0121326D01*
X0041623Y0121718D02*
X0042496Y0121718D01*
X0042104Y0122110D02*
X0041623Y0122110D01*
X0041623Y0122502D02*
X0041712Y0122502D01*
X0043766Y0125248D02*
X0045656Y0125248D01*
X0045656Y0125640D02*
X0043373Y0125640D01*
X0042981Y0126032D02*
X0045656Y0126032D01*
X0045656Y0126424D02*
X0042589Y0126424D01*
X0042197Y0126817D02*
X0045665Y0126817D01*
X0046057Y0127209D02*
X0033883Y0127209D01*
X0034275Y0127601D02*
X0046385Y0127601D01*
X0046385Y0127993D02*
X0038026Y0127993D01*
X0038418Y0128385D02*
X0046385Y0128385D01*
X0045827Y0128778D02*
X0038811Y0128778D01*
X0039203Y0129170D02*
X0045435Y0129170D01*
X0045357Y0129562D02*
X0039595Y0129562D01*
X0039987Y0129954D02*
X0045357Y0129954D01*
X0045357Y0130347D02*
X0040379Y0130347D01*
X0040575Y0130739D02*
X0045357Y0130739D01*
X0045357Y0131131D02*
X0040575Y0131131D01*
X0040575Y0131523D02*
X0045357Y0131523D01*
X0045357Y0131915D02*
X0040359Y0131915D01*
X0040470Y0132308D02*
X0039967Y0132308D01*
X0040078Y0132700D02*
X0039575Y0132700D01*
X0039686Y0133092D02*
X0039182Y0133092D01*
X0039294Y0133484D02*
X0038790Y0133484D01*
X0038901Y0133876D02*
X0038398Y0133876D01*
X0038509Y0134269D02*
X0038006Y0134269D01*
X0038117Y0134661D02*
X0037614Y0134661D01*
X0037725Y0135053D02*
X0037221Y0135053D01*
X0037333Y0135445D02*
X0036829Y0135445D01*
X0036940Y0135837D02*
X0036437Y0135837D01*
X0036548Y0136230D02*
X0036045Y0136230D01*
X0036156Y0136622D02*
X0035653Y0136622D01*
X0035387Y0141328D02*
X0048153Y0141328D01*
X0047760Y0141721D02*
X0035224Y0141721D01*
X0035062Y0142113D02*
X0047368Y0142113D01*
X0046976Y0142505D02*
X0034900Y0142505D01*
X0034534Y0142897D02*
X0046584Y0142897D01*
X0046192Y0143290D02*
X0034142Y0143290D01*
X0033530Y0143682D02*
X0045799Y0143682D01*
X0045407Y0144074D02*
X0027045Y0144074D01*
X0026653Y0143682D02*
X0030350Y0143682D01*
X0029738Y0143290D02*
X0026261Y0143290D01*
X0025869Y0142897D02*
X0029346Y0142897D01*
X0028981Y0142505D02*
X0025477Y0142505D01*
X0025084Y0142113D02*
X0028818Y0142113D01*
X0028656Y0141721D02*
X0024692Y0141721D01*
X0024300Y0141328D02*
X0028493Y0141328D01*
X0028472Y0140936D02*
X0023908Y0140936D01*
X0023516Y0140544D02*
X0028472Y0140544D01*
X0028472Y0140152D02*
X0023123Y0140152D01*
X0022771Y0139760D02*
X0028528Y0139760D01*
X0028691Y0139367D02*
X0023163Y0139367D01*
X0023556Y0138975D02*
X0028853Y0138975D01*
X0029038Y0138583D02*
X0023948Y0138583D01*
X0024340Y0138191D02*
X0029430Y0138191D01*
X0029822Y0137799D02*
X0024732Y0137799D01*
X0025125Y0137406D02*
X0030553Y0137406D01*
X0027438Y0144466D02*
X0045015Y0144466D01*
X0044623Y0144858D02*
X0027830Y0144858D01*
X0028222Y0145251D02*
X0044231Y0145251D01*
X0040867Y0139760D02*
X0064685Y0139760D01*
X0064685Y0139367D02*
X0041259Y0139367D01*
X0041651Y0138975D02*
X0064685Y0138975D01*
X0064685Y0138583D02*
X0042043Y0138583D01*
X0044302Y0134269D02*
X0045357Y0134269D01*
X0045357Y0133876D02*
X0043909Y0133876D01*
X0043517Y0133484D02*
X0045357Y0133484D01*
X0045357Y0133092D02*
X0043125Y0133092D01*
X0042733Y0132700D02*
X0045357Y0132700D01*
X0045357Y0132308D02*
X0042340Y0132308D01*
X0036433Y0127993D02*
X0034667Y0127993D01*
X0035060Y0128385D02*
X0036041Y0128385D01*
X0035648Y0128778D02*
X0035452Y0128778D01*
X0035714Y0126817D02*
X0033491Y0126817D01*
X0033279Y0126424D02*
X0035322Y0126424D01*
X0034930Y0126032D02*
X0033279Y0126032D01*
X0033438Y0125640D02*
X0034538Y0125640D01*
X0034145Y0125248D02*
X0033831Y0125248D01*
X0040706Y0117011D02*
X0046096Y0117011D01*
X0045704Y0116619D02*
X0040706Y0116619D01*
X0040706Y0116227D02*
X0045656Y0116227D01*
X0045656Y0115835D02*
X0040706Y0115835D01*
X0040706Y0115442D02*
X0045656Y0115442D01*
X0045656Y0115050D02*
X0040706Y0115050D01*
X0040706Y0114658D02*
X0045656Y0114658D01*
X0045656Y0114266D02*
X0040706Y0114266D01*
X0040706Y0113874D02*
X0045656Y0113874D01*
X0045656Y0113481D02*
X0040706Y0113481D01*
X0040706Y0113089D02*
X0045656Y0113089D01*
X0045656Y0112697D02*
X0040706Y0112697D01*
X0040706Y0112305D02*
X0045656Y0112305D01*
X0045656Y0111913D02*
X0040706Y0111913D01*
X0040706Y0111520D02*
X0045656Y0111520D01*
X0045656Y0111128D02*
X0040706Y0111128D01*
X0040706Y0110736D02*
X0045656Y0110736D01*
X0046002Y0110344D02*
X0040706Y0110344D01*
X0040706Y0109951D02*
X0046394Y0109951D01*
X0046685Y0109559D02*
X0040706Y0109559D01*
X0040706Y0109167D02*
X0046685Y0109167D01*
X0046685Y0108775D02*
X0040706Y0108775D01*
X0040706Y0108383D02*
X0046685Y0108383D01*
X0046685Y0107990D02*
X0040706Y0107990D01*
X0040706Y0107598D02*
X0046685Y0107598D01*
X0046685Y0107206D02*
X0040706Y0107206D01*
X0040706Y0106814D02*
X0046685Y0106814D01*
X0046685Y0106422D02*
X0040706Y0106422D01*
X0040706Y0106029D02*
X0046685Y0106029D01*
X0046685Y0105637D02*
X0040706Y0105637D01*
X0040706Y0105245D02*
X0046685Y0105245D01*
X0046685Y0104853D02*
X0040963Y0104853D01*
X0041355Y0104461D02*
X0047053Y0104461D01*
X0047446Y0104068D02*
X0041747Y0104068D01*
X0042139Y0103676D02*
X0047838Y0103676D01*
X0048230Y0103284D02*
X0042532Y0103284D01*
X0042924Y0102892D02*
X0048622Y0102892D01*
X0049014Y0102499D02*
X0043316Y0102499D01*
X0043708Y0102107D02*
X0049222Y0102107D01*
X0049222Y0101715D02*
X0044101Y0101715D01*
X0047610Y0101323D02*
X0049222Y0101323D01*
X0049222Y0100931D02*
X0048003Y0100931D01*
X0055166Y0100931D02*
X0056309Y0100931D01*
X0056309Y0101323D02*
X0055166Y0101323D01*
X0055166Y0101715D02*
X0056309Y0101715D01*
X0056309Y0102107D02*
X0055166Y0102107D01*
X0055166Y0102499D02*
X0056309Y0102499D01*
X0056309Y0102892D02*
X0055166Y0102892D01*
X0055166Y0103284D02*
X0056309Y0103284D01*
X0056309Y0103676D02*
X0055166Y0103676D01*
X0055166Y0104068D02*
X0056309Y0104068D01*
X0056309Y0104461D02*
X0055166Y0104461D01*
X0055107Y0104853D02*
X0056368Y0104853D01*
X0056760Y0105245D02*
X0054715Y0105245D01*
X0055166Y0100538D02*
X0056309Y0100538D01*
X0056309Y0100146D02*
X0055166Y0100146D01*
X0057358Y0109951D02*
X0061685Y0109951D01*
X0061212Y0110344D02*
X0057750Y0110344D01*
X0058096Y0110736D02*
X0060820Y0110736D01*
X0060428Y0111128D02*
X0058096Y0111128D01*
X0058096Y0111520D02*
X0060112Y0111520D01*
X0060112Y0111913D02*
X0059087Y0111913D01*
X0059479Y0112305D02*
X0060112Y0112305D01*
X0060112Y0112697D02*
X0059871Y0112697D01*
X0058145Y0116619D02*
X0058047Y0116619D01*
X0057655Y0117011D02*
X0058537Y0117011D01*
X0065079Y0109951D02*
X0070132Y0109951D01*
X0070132Y0109559D02*
X0065079Y0109559D01*
X0065079Y0109167D02*
X0070234Y0109167D01*
X0070526Y0108775D02*
X0065079Y0108775D01*
X0065079Y0108383D02*
X0075709Y0108383D01*
X0074775Y0111913D02*
X0074382Y0111913D01*
X0074382Y0112305D02*
X0074775Y0112305D01*
X0074775Y0112697D02*
X0074382Y0112697D01*
X0074382Y0113089D02*
X0074775Y0113089D01*
X0074775Y0113481D02*
X0074382Y0113481D01*
X0074382Y0113874D02*
X0074775Y0113874D01*
X0074775Y0114266D02*
X0074382Y0114266D01*
X0074382Y0114658D02*
X0074775Y0114658D01*
X0070132Y0111128D02*
X0066527Y0111128D01*
X0066135Y0110736D02*
X0070132Y0110736D01*
X0070132Y0110344D02*
X0065743Y0110344D01*
X0064685Y0128385D02*
X0049779Y0128385D01*
X0050831Y0128778D02*
X0053262Y0128778D01*
X0053379Y0128710D02*
X0053683Y0128629D01*
X0055219Y0128629D01*
X0055219Y0131991D01*
X0052644Y0131991D01*
X0052644Y0129668D01*
X0052726Y0129364D01*
X0052883Y0129091D01*
X0053106Y0128868D01*
X0053379Y0128710D01*
X0052838Y0129170D02*
X0051224Y0129170D01*
X0051301Y0129562D02*
X0052673Y0129562D01*
X0052644Y0129954D02*
X0051301Y0129954D01*
X0051301Y0130347D02*
X0052644Y0130347D01*
X0052644Y0130739D02*
X0051301Y0130739D01*
X0051301Y0131131D02*
X0052644Y0131131D01*
X0052644Y0131523D02*
X0051301Y0131523D01*
X0051301Y0131915D02*
X0052644Y0131915D01*
X0052644Y0132700D02*
X0051301Y0132700D01*
X0051301Y0133092D02*
X0052644Y0133092D01*
X0052644Y0133484D02*
X0051301Y0133484D01*
X0051301Y0133876D02*
X0052644Y0133876D01*
X0052644Y0134269D02*
X0051301Y0134269D01*
X0051301Y0132308D02*
X0055219Y0132308D01*
X0055219Y0131915D02*
X0055613Y0131915D01*
X0055613Y0131991D02*
X0055613Y0128629D01*
X0057148Y0128629D01*
X0057453Y0128710D01*
X0057725Y0128868D01*
X0057948Y0129091D01*
X0058106Y0129364D01*
X0058187Y0129668D01*
X0058187Y0131991D01*
X0055613Y0131991D01*
X0055613Y0132308D02*
X0064685Y0132308D01*
X0064685Y0132700D02*
X0058187Y0132700D01*
X0058187Y0133092D02*
X0064685Y0133092D01*
X0064685Y0133484D02*
X0058187Y0133484D01*
X0058187Y0133876D02*
X0064685Y0133876D01*
X0064685Y0134269D02*
X0058187Y0134269D01*
X0058187Y0131915D02*
X0064685Y0131915D01*
X0064685Y0131523D02*
X0058187Y0131523D01*
X0058187Y0131131D02*
X0064685Y0131131D01*
X0064685Y0130739D02*
X0058187Y0130739D01*
X0058187Y0130347D02*
X0064685Y0130347D01*
X0064685Y0129954D02*
X0058187Y0129954D01*
X0058159Y0129562D02*
X0064685Y0129562D01*
X0064685Y0129170D02*
X0057994Y0129170D01*
X0057569Y0128778D02*
X0064685Y0128778D01*
X0055613Y0128778D02*
X0055219Y0128778D01*
X0055219Y0129170D02*
X0055613Y0129170D01*
X0055613Y0129562D02*
X0055219Y0129562D01*
X0055219Y0129954D02*
X0055613Y0129954D01*
X0055613Y0130347D02*
X0055219Y0130347D01*
X0055219Y0130739D02*
X0055613Y0130739D01*
X0055613Y0131131D02*
X0055219Y0131131D01*
X0055219Y0131523D02*
X0055613Y0131523D01*
X0045656Y0124856D02*
X0044158Y0124856D01*
X0044550Y0124463D02*
X0045656Y0124463D01*
X0045656Y0124071D02*
X0044942Y0124071D01*
X0045334Y0123679D02*
X0045656Y0123679D01*
X0028857Y0106814D02*
X0027104Y0106814D01*
X0026941Y0107206D02*
X0028465Y0107206D01*
X0028072Y0107598D02*
X0026752Y0107598D01*
X0026359Y0107990D02*
X0027680Y0107990D01*
X0027288Y0108383D02*
X0025967Y0108383D01*
X0025536Y0108775D02*
X0026896Y0108775D01*
X0026504Y0109167D02*
X0024590Y0109167D01*
X0025719Y0109951D02*
X0018090Y0109951D01*
X0018090Y0109559D02*
X0026111Y0109559D01*
X0025327Y0110344D02*
X0018029Y0110344D01*
X0017866Y0110736D02*
X0025202Y0110736D01*
X0025202Y0111128D02*
X0017704Y0111128D01*
X0017541Y0111520D02*
X0025202Y0111520D01*
X0025239Y0111913D02*
X0017379Y0111913D01*
X0017171Y0112305D02*
X0025632Y0112305D01*
X0026024Y0112697D02*
X0016779Y0112697D01*
X0016387Y0113089D02*
X0026416Y0113089D01*
X0026808Y0113481D02*
X0015995Y0113481D01*
X0015476Y0113874D02*
X0027200Y0113874D01*
X0027593Y0114266D02*
X0014529Y0114266D01*
X0018090Y0109167D02*
X0021799Y0109167D01*
X0020852Y0108775D02*
X0018090Y0108775D01*
X0018090Y0108383D02*
X0020421Y0108383D01*
X0020029Y0107990D02*
X0018088Y0107990D01*
X0017925Y0107598D02*
X0019637Y0107598D01*
X0019447Y0107206D02*
X0017763Y0107206D01*
X0017600Y0106814D02*
X0019285Y0106814D01*
X0019122Y0106422D02*
X0017438Y0106422D01*
X0017275Y0106029D02*
X0018960Y0106029D01*
X0018943Y0105637D02*
X0016922Y0105637D01*
X0016530Y0105245D02*
X0018943Y0105245D01*
X0018943Y0104853D02*
X0016138Y0104853D01*
X0015746Y0104461D02*
X0018943Y0104461D01*
X0019038Y0104068D02*
X0014875Y0104068D01*
X0013928Y0103676D02*
X0019201Y0103676D01*
X0019363Y0103284D02*
X0017187Y0103284D01*
X0017579Y0102892D02*
X0019526Y0102892D01*
X0019826Y0102499D02*
X0017701Y0102499D01*
X0017701Y0102107D02*
X0019462Y0102107D01*
X0019140Y0101715D02*
X0017701Y0101715D01*
X0017701Y0101323D02*
X0019140Y0101323D01*
X0019140Y0100931D02*
X0017701Y0100931D01*
X0017701Y0100538D02*
X0019140Y0100538D01*
X0019140Y0100146D02*
X0017701Y0100146D01*
X0017701Y0099754D02*
X0019140Y0099754D01*
X0019140Y0099362D02*
X0017701Y0099362D01*
X0017701Y0098970D02*
X0019140Y0098970D01*
X0019140Y0098577D02*
X0017701Y0098577D01*
X0017701Y0098185D02*
X0019140Y0098185D01*
X0019140Y0097793D02*
X0017701Y0097793D01*
X0017701Y0097401D02*
X0019140Y0097401D01*
X0019140Y0097008D02*
X0017701Y0097008D01*
X0017701Y0096616D02*
X0019140Y0096616D01*
X0019140Y0096224D02*
X0017701Y0096224D01*
X0017701Y0095832D02*
X0019140Y0095832D01*
X0019140Y0095440D02*
X0017434Y0095440D01*
X0017549Y0095047D02*
X0019140Y0095047D01*
X0019140Y0094655D02*
X0017701Y0094655D01*
X0017701Y0094263D02*
X0019140Y0094263D01*
X0019140Y0093871D02*
X0017701Y0093871D01*
X0017701Y0093479D02*
X0019140Y0093479D01*
X0019140Y0093086D02*
X0017701Y0093086D01*
X0017701Y0092694D02*
X0019140Y0092694D01*
X0019140Y0092302D02*
X0017701Y0092302D01*
X0017701Y0091910D02*
X0019140Y0091910D01*
X0019140Y0091518D02*
X0017701Y0091518D01*
X0017701Y0091125D02*
X0019340Y0091125D01*
X0019340Y0090733D02*
X0017701Y0090733D01*
X0018136Y0080928D02*
X0040576Y0080928D01*
X0040576Y0080536D02*
X0036479Y0080536D01*
X0036871Y0080143D02*
X0040576Y0080143D01*
X0040576Y0079751D02*
X0037055Y0079751D01*
X0037055Y0075829D02*
X0041091Y0075829D01*
X0040699Y0075437D02*
X0036840Y0075437D01*
X0036447Y0075045D02*
X0040576Y0075045D01*
X0040576Y0074652D02*
X0027937Y0074652D01*
X0027513Y0074260D02*
X0040576Y0074260D01*
X0040576Y0073868D02*
X0027228Y0073868D01*
X0027600Y0073476D02*
X0030720Y0073476D01*
X0030776Y0073491D02*
X0030472Y0073409D01*
X0030199Y0073252D01*
X0029976Y0073029D01*
X0029819Y0072756D01*
X0029737Y0072452D01*
X0029737Y0070916D01*
X0033099Y0070916D01*
X0033099Y0070522D01*
X0033493Y0070522D01*
X0033493Y0067948D01*
X0035816Y0067948D01*
X0036120Y0068029D01*
X0036393Y0068187D01*
X0036616Y0068409D01*
X0036774Y0068682D01*
X0036855Y0068987D01*
X0036855Y0070522D01*
X0033493Y0070522D01*
X0033493Y0070916D01*
X0036855Y0070916D01*
X0036855Y0072452D01*
X0036774Y0072756D01*
X0036616Y0073029D01*
X0036393Y0073252D01*
X0036120Y0073409D01*
X0035816Y0073491D01*
X0033493Y0073491D01*
X0033493Y0070916D01*
X0033099Y0070916D01*
X0033099Y0073491D01*
X0030776Y0073491D01*
X0030031Y0073084D02*
X0027992Y0073084D01*
X0028034Y0072691D02*
X0029801Y0072691D01*
X0029737Y0072299D02*
X0028034Y0072299D01*
X0028034Y0071907D02*
X0029737Y0071907D01*
X0029737Y0071515D02*
X0028034Y0071515D01*
X0028034Y0071122D02*
X0029737Y0071122D01*
X0029737Y0070522D02*
X0029737Y0068987D01*
X0029819Y0068682D01*
X0029976Y0068409D01*
X0030199Y0068187D01*
X0030472Y0068029D01*
X0030776Y0067948D01*
X0033099Y0067947D01*
X0033099Y0070522D01*
X0029737Y0070522D01*
X0029737Y0070338D02*
X0028034Y0070338D01*
X0028034Y0069946D02*
X0029737Y0069946D01*
X0029737Y0069554D02*
X0028034Y0069554D01*
X0028034Y0069161D02*
X0029737Y0069161D01*
X0029795Y0068769D02*
X0028034Y0068769D01*
X0027677Y0068377D02*
X0030009Y0068377D01*
X0030637Y0067985D02*
X0027285Y0067985D01*
X0027573Y0066416D02*
X0030056Y0066416D01*
X0029976Y0066336D02*
X0029819Y0066063D01*
X0029737Y0065759D01*
X0029737Y0064223D01*
X0033099Y0064223D01*
X0033099Y0063829D01*
X0033493Y0063829D01*
X0033493Y0061255D01*
X0035816Y0061255D01*
X0036120Y0061336D01*
X0036393Y0061494D01*
X0036616Y0061717D01*
X0036774Y0061989D01*
X0036855Y0062294D01*
X0036855Y0063829D01*
X0033493Y0063829D01*
X0033493Y0064223D01*
X0036855Y0064223D01*
X0036855Y0065759D01*
X0036774Y0066063D01*
X0036616Y0066336D01*
X0036393Y0066559D01*
X0036120Y0066716D01*
X0035816Y0066798D01*
X0033493Y0066798D01*
X0033493Y0064223D01*
X0033099Y0064223D01*
X0033099Y0066798D01*
X0030776Y0066798D01*
X0030472Y0066716D01*
X0030199Y0066559D01*
X0029976Y0066336D01*
X0029808Y0066024D02*
X0027965Y0066024D01*
X0028034Y0065632D02*
X0029737Y0065632D01*
X0029737Y0065239D02*
X0028034Y0065239D01*
X0028034Y0064847D02*
X0029737Y0064847D01*
X0029737Y0064455D02*
X0028034Y0064455D01*
X0028034Y0064063D02*
X0033099Y0064063D01*
X0033099Y0063829D02*
X0029737Y0063829D01*
X0029737Y0062294D01*
X0029819Y0061989D01*
X0029976Y0061717D01*
X0030199Y0061494D01*
X0030472Y0061336D01*
X0030776Y0061255D01*
X0033099Y0061255D01*
X0033099Y0063829D01*
X0033099Y0063670D02*
X0033493Y0063670D01*
X0033493Y0063278D02*
X0033099Y0063278D01*
X0033099Y0062886D02*
X0033493Y0062886D01*
X0033493Y0062494D02*
X0033099Y0062494D01*
X0033099Y0062102D02*
X0033493Y0062102D01*
X0033493Y0061709D02*
X0033099Y0061709D01*
X0033099Y0061317D02*
X0033493Y0061317D01*
X0033493Y0064063D02*
X0043823Y0064063D01*
X0043823Y0064455D02*
X0036855Y0064455D01*
X0036855Y0064847D02*
X0043823Y0064847D01*
X0043823Y0065239D02*
X0036855Y0065239D01*
X0036855Y0065632D02*
X0043823Y0065632D01*
X0043823Y0066024D02*
X0036784Y0066024D01*
X0036536Y0066416D02*
X0043823Y0066416D01*
X0043823Y0066808D02*
X0012264Y0066808D01*
X0012430Y0066416D02*
X0020978Y0066416D01*
X0020585Y0066024D02*
X0012596Y0066024D01*
X0012762Y0065632D02*
X0020516Y0065632D01*
X0020516Y0065239D02*
X0012928Y0065239D01*
X0013094Y0064847D02*
X0020516Y0064847D01*
X0020516Y0064455D02*
X0013259Y0064455D01*
X0013425Y0064063D02*
X0020516Y0064063D01*
X0020516Y0063670D02*
X0013591Y0063670D01*
X0013757Y0063278D02*
X0020516Y0063278D01*
X0020516Y0062886D02*
X0013923Y0062886D01*
X0014089Y0062494D02*
X0020516Y0062494D01*
X0020516Y0062102D02*
X0014255Y0062102D01*
X0014420Y0061709D02*
X0020516Y0061709D01*
X0020847Y0061317D02*
X0014586Y0061317D01*
X0014789Y0060925D02*
X0021239Y0060925D01*
X0023011Y0060533D02*
X0015021Y0060533D01*
X0015253Y0060141D02*
X0023173Y0060141D01*
X0023336Y0059748D02*
X0015485Y0059748D01*
X0015717Y0059356D02*
X0023498Y0059356D01*
X0023660Y0058964D02*
X0015949Y0058964D01*
X0016180Y0058572D02*
X0023980Y0058572D01*
X0023712Y0058840D02*
X0023712Y0058840D01*
X0024372Y0058179D02*
X0016412Y0058179D01*
X0016644Y0057787D02*
X0024764Y0057787D01*
X0025157Y0057395D02*
X0016876Y0057395D01*
X0017108Y0057003D02*
X0025549Y0057003D01*
X0025941Y0056611D02*
X0017340Y0056611D01*
X0017572Y0056218D02*
X0026556Y0056218D01*
X0026176Y0056376D02*
X0026176Y0056376D01*
X0027503Y0055826D02*
X0017803Y0055826D01*
X0018035Y0055434D02*
X0028450Y0055434D01*
X0029537Y0055042D02*
X0018267Y0055042D01*
X0018499Y0054650D02*
X0029674Y0054650D01*
X0030066Y0054257D02*
X0018731Y0054257D01*
X0018963Y0053865D02*
X0081702Y0053865D01*
X0081702Y0053473D02*
X0019194Y0053473D01*
X0019426Y0053081D02*
X0081702Y0053081D01*
X0081702Y0052689D02*
X0019658Y0052689D01*
X0019908Y0052296D02*
X0081702Y0052296D01*
X0081702Y0051904D02*
X0020217Y0051904D01*
X0020526Y0051512D02*
X0081702Y0051512D01*
X0081702Y0051120D02*
X0020835Y0051120D01*
X0021145Y0050727D02*
X0081702Y0050727D01*
X0081702Y0050335D02*
X0021454Y0050335D01*
X0021763Y0049943D02*
X0081702Y0049943D01*
X0081702Y0054257D02*
X0036526Y0054257D01*
X0036918Y0054650D02*
X0081702Y0054650D01*
X0081702Y0055042D02*
X0046656Y0055042D01*
X0047048Y0055434D02*
X0081702Y0055434D01*
X0088039Y0055434D02*
X0150841Y0055434D01*
X0151072Y0055826D02*
X0088039Y0055826D01*
X0088039Y0056218D02*
X0151303Y0056218D01*
X0151534Y0056611D02*
X0088039Y0056611D01*
X0088039Y0057003D02*
X0151765Y0057003D01*
X0151996Y0057395D02*
X0088039Y0057395D01*
X0088039Y0057787D02*
X0152227Y0057787D01*
X0152458Y0058179D02*
X0088039Y0058179D01*
X0088039Y0058572D02*
X0152689Y0058572D01*
X0152920Y0058964D02*
X0114522Y0058964D01*
X0114914Y0059356D02*
X0153151Y0059356D01*
X0153382Y0059748D02*
X0115307Y0059748D01*
X0115699Y0060141D02*
X0153613Y0060141D01*
X0153844Y0060533D02*
X0116091Y0060533D01*
X0116483Y0060925D02*
X0154075Y0060925D01*
X0154306Y0061317D02*
X0116876Y0061317D01*
X0117268Y0061709D02*
X0154483Y0061709D01*
X0154649Y0062102D02*
X0117660Y0062102D01*
X0118052Y0062494D02*
X0154814Y0062494D01*
X0154980Y0062886D02*
X0118444Y0062886D01*
X0118837Y0063278D02*
X0155145Y0063278D01*
X0155311Y0063670D02*
X0119229Y0063670D01*
X0119621Y0064063D02*
X0155476Y0064063D01*
X0155642Y0064455D02*
X0120013Y0064455D01*
X0120405Y0064847D02*
X0155807Y0064847D01*
X0155972Y0065239D02*
X0120798Y0065239D01*
X0121190Y0065632D02*
X0156138Y0065632D01*
X0156303Y0066024D02*
X0121582Y0066024D01*
X0121974Y0066416D02*
X0156469Y0066416D01*
X0156634Y0066808D02*
X0122366Y0066808D01*
X0122759Y0067200D02*
X0156800Y0067200D01*
X0156965Y0067593D02*
X0123151Y0067593D01*
X0123543Y0067985D02*
X0157131Y0067985D01*
X0157296Y0068377D02*
X0123876Y0068377D01*
X0123876Y0068769D02*
X0157462Y0068769D01*
X0157627Y0069161D02*
X0123876Y0069161D01*
X0123876Y0069554D02*
X0157793Y0069554D01*
X0157958Y0069946D02*
X0123876Y0069946D01*
X0123876Y0070338D02*
X0158124Y0070338D01*
X0158289Y0070730D02*
X0123876Y0070730D01*
X0123876Y0071122D02*
X0158408Y0071122D01*
X0158514Y0071515D02*
X0123876Y0071515D01*
X0123876Y0071907D02*
X0158621Y0071907D01*
X0158728Y0072299D02*
X0123876Y0072299D01*
X0123876Y0072691D02*
X0158835Y0072691D01*
X0158942Y0073084D02*
X0123876Y0073084D01*
X0123876Y0073476D02*
X0159049Y0073476D01*
X0159156Y0073868D02*
X0123876Y0073868D01*
X0119882Y0073868D02*
X0111513Y0073868D01*
X0111879Y0074234D02*
X0119882Y0074234D01*
X0119882Y0069971D01*
X0112784Y0062873D01*
X0104989Y0062873D01*
X0103265Y0064598D01*
X0104741Y0064598D01*
X0105559Y0065416D01*
X0105559Y0070297D01*
X0106902Y0070297D01*
X0106902Y0068554D01*
X0109477Y0068554D01*
X0109477Y0071832D01*
X0111879Y0074234D01*
X0111121Y0073476D02*
X0119882Y0073476D01*
X0119882Y0073084D02*
X0110729Y0073084D01*
X0110336Y0072691D02*
X0119882Y0072691D01*
X0119882Y0072299D02*
X0109944Y0072299D01*
X0109871Y0071916D02*
X0109871Y0068554D01*
X0109477Y0068554D01*
X0109477Y0068160D01*
X0106902Y0068160D01*
X0106902Y0065837D01*
X0106984Y0065533D01*
X0107141Y0065260D01*
X0107364Y0065037D01*
X0107637Y0064879D01*
X0107942Y0064798D01*
X0109477Y0064798D01*
X0109477Y0068160D01*
X0109871Y0068160D01*
X0109871Y0068554D01*
X0112446Y0068554D01*
X0112446Y0070877D01*
X0112364Y0071181D01*
X0112207Y0071454D01*
X0111984Y0071677D01*
X0111711Y0071834D01*
X0111406Y0071916D01*
X0109871Y0071916D01*
X0109871Y0071907D02*
X0109552Y0071907D01*
X0109477Y0071515D02*
X0109871Y0071515D01*
X0109871Y0071122D02*
X0109477Y0071122D01*
X0109477Y0070730D02*
X0109871Y0070730D01*
X0109871Y0070338D02*
X0109477Y0070338D01*
X0109477Y0069946D02*
X0109871Y0069946D01*
X0109871Y0069554D02*
X0109477Y0069554D01*
X0109477Y0069161D02*
X0109871Y0069161D01*
X0109871Y0068769D02*
X0109477Y0068769D01*
X0109477Y0068377D02*
X0105559Y0068377D01*
X0105559Y0068769D02*
X0106902Y0068769D01*
X0106902Y0069161D02*
X0105559Y0069161D01*
X0105559Y0069554D02*
X0106902Y0069554D01*
X0106902Y0069946D02*
X0105559Y0069946D01*
X0105559Y0067985D02*
X0106902Y0067985D01*
X0106902Y0067593D02*
X0105559Y0067593D01*
X0105559Y0067200D02*
X0106902Y0067200D01*
X0106902Y0066808D02*
X0105559Y0066808D01*
X0105559Y0066416D02*
X0106902Y0066416D01*
X0106902Y0066024D02*
X0105559Y0066024D01*
X0105559Y0065632D02*
X0106957Y0065632D01*
X0107162Y0065239D02*
X0105382Y0065239D01*
X0104990Y0064847D02*
X0107758Y0064847D01*
X0109477Y0064847D02*
X0109871Y0064847D01*
X0109871Y0064798D02*
X0111406Y0064798D01*
X0111711Y0064879D01*
X0111984Y0065037D01*
X0112207Y0065260D01*
X0112364Y0065533D01*
X0112446Y0065837D01*
X0112446Y0068160D01*
X0109871Y0068160D01*
X0109871Y0064798D01*
X0109871Y0065239D02*
X0109477Y0065239D01*
X0109477Y0065632D02*
X0109871Y0065632D01*
X0109871Y0066024D02*
X0109477Y0066024D01*
X0109477Y0066416D02*
X0109871Y0066416D01*
X0109871Y0066808D02*
X0109477Y0066808D01*
X0109477Y0067200D02*
X0109871Y0067200D01*
X0109871Y0067593D02*
X0109477Y0067593D01*
X0109477Y0067985D02*
X0109871Y0067985D01*
X0109871Y0068377D02*
X0118287Y0068377D01*
X0117895Y0067985D02*
X0112446Y0067985D01*
X0112446Y0067593D02*
X0117503Y0067593D01*
X0117111Y0067200D02*
X0112446Y0067200D01*
X0112446Y0066808D02*
X0116719Y0066808D01*
X0116326Y0066416D02*
X0112446Y0066416D01*
X0112446Y0066024D02*
X0115934Y0066024D01*
X0115542Y0065632D02*
X0112391Y0065632D01*
X0112186Y0065239D02*
X0115150Y0065239D01*
X0114758Y0064847D02*
X0111590Y0064847D01*
X0113189Y0063278D02*
X0104585Y0063278D01*
X0104977Y0062886D02*
X0112796Y0062886D01*
X0113581Y0063670D02*
X0104192Y0063670D01*
X0103800Y0064063D02*
X0113973Y0064063D01*
X0114365Y0064455D02*
X0103408Y0064455D01*
X0100505Y0061709D02*
X0088039Y0061709D01*
X0088039Y0061317D02*
X0100898Y0061317D01*
X0101290Y0060925D02*
X0088039Y0060925D01*
X0088039Y0060533D02*
X0101682Y0060533D01*
X0102074Y0060141D02*
X0088039Y0060141D01*
X0088039Y0059748D02*
X0102467Y0059748D01*
X0102859Y0059356D02*
X0088039Y0059356D01*
X0088039Y0058964D02*
X0103251Y0058964D01*
X0100113Y0062102D02*
X0087787Y0062102D01*
X0088039Y0055042D02*
X0150610Y0055042D01*
X0150379Y0054650D02*
X0096465Y0054650D01*
X0096914Y0054257D02*
X0150148Y0054257D01*
X0149916Y0053865D02*
X0097085Y0053865D01*
X0097119Y0053473D02*
X0149685Y0053473D01*
X0149454Y0053081D02*
X0097119Y0053081D01*
X0097119Y0052689D02*
X0149223Y0052689D01*
X0148937Y0052296D02*
X0097119Y0052296D01*
X0097119Y0051512D02*
X0148322Y0051512D01*
X0148629Y0051904D02*
X0094446Y0051904D01*
X0094446Y0052296D02*
X0094052Y0052296D01*
X0094052Y0052689D02*
X0094446Y0052689D01*
X0094446Y0053081D02*
X0094052Y0053081D01*
X0094052Y0053473D02*
X0094446Y0053473D01*
X0094446Y0053865D02*
X0094052Y0053865D01*
X0094052Y0054257D02*
X0094446Y0054257D01*
X0094446Y0054650D02*
X0094052Y0054650D01*
X0097119Y0051120D02*
X0148014Y0051120D01*
X0147706Y0050727D02*
X0097119Y0050727D01*
X0097119Y0050335D02*
X0147398Y0050335D01*
X0147090Y0049943D02*
X0097119Y0049943D01*
X0112446Y0068769D02*
X0118680Y0068769D01*
X0119072Y0069161D02*
X0112446Y0069161D01*
X0112446Y0069554D02*
X0119464Y0069554D01*
X0119856Y0069946D02*
X0112446Y0069946D01*
X0112446Y0070338D02*
X0119882Y0070338D01*
X0119882Y0070730D02*
X0112446Y0070730D01*
X0112380Y0071122D02*
X0119882Y0071122D01*
X0119882Y0071515D02*
X0112146Y0071515D01*
X0111440Y0071907D02*
X0119882Y0071907D01*
X0112446Y0078228D02*
X0112446Y0079971D01*
X0109871Y0079971D01*
X0109871Y0080365D01*
X0109477Y0080365D01*
X0109477Y0083727D01*
X0107942Y0083727D01*
X0107637Y0083645D01*
X0107364Y0083488D01*
X0107141Y0083265D01*
X0106984Y0082992D01*
X0106902Y0082688D01*
X0106902Y0080365D01*
X0109477Y0080365D01*
X0109477Y0079971D01*
X0106902Y0079971D01*
X0106902Y0077648D01*
X0106984Y0077344D01*
X0107141Y0077071D01*
X0107364Y0076848D01*
X0107637Y0076690D01*
X0107942Y0076609D01*
X0108606Y0076609D01*
X0106288Y0074291D01*
X0104005Y0074291D01*
X0101887Y0076409D01*
X0104741Y0076409D01*
X0105559Y0077227D01*
X0105559Y0083109D01*
X0104741Y0083927D01*
X0100834Y0083927D01*
X0099452Y0085310D01*
X0093934Y0085310D01*
X0093820Y0085424D01*
X0092356Y0085424D01*
X0092290Y0085448D01*
X0092236Y0085424D01*
X0092061Y0085424D01*
X0092061Y0085503D01*
X0094439Y0085503D01*
X0094439Y0086153D01*
X0094357Y0086457D01*
X0094199Y0086730D01*
X0094092Y0086837D01*
X0114778Y0086837D01*
X0115762Y0085853D01*
X0120613Y0085853D01*
X0122763Y0088003D01*
X0123256Y0087509D01*
X0127563Y0087509D01*
X0128381Y0088327D01*
X0128381Y0089435D01*
X0140079Y0089435D01*
X0140528Y0088986D01*
X0138629Y0087087D01*
X0138629Y0082865D01*
X0138802Y0082691D01*
X0134339Y0078228D01*
X0112446Y0078228D01*
X0112446Y0078575D02*
X0134686Y0078575D01*
X0135078Y0078967D02*
X0112446Y0078967D01*
X0112446Y0079359D02*
X0135470Y0079359D01*
X0135862Y0079751D02*
X0112446Y0079751D01*
X0112446Y0080365D02*
X0112446Y0082688D01*
X0112364Y0082992D01*
X0112207Y0083265D01*
X0111984Y0083488D01*
X0111711Y0083645D01*
X0111406Y0083727D01*
X0109871Y0083727D01*
X0109871Y0080365D01*
X0112446Y0080365D01*
X0112446Y0080536D02*
X0136647Y0080536D01*
X0137039Y0080928D02*
X0112446Y0080928D01*
X0112446Y0081320D02*
X0137431Y0081320D01*
X0137823Y0081712D02*
X0112446Y0081712D01*
X0112446Y0082104D02*
X0138216Y0082104D01*
X0138608Y0082497D02*
X0112446Y0082497D01*
X0112392Y0082889D02*
X0138629Y0082889D01*
X0138629Y0083281D02*
X0112191Y0083281D01*
X0111607Y0083673D02*
X0138629Y0083673D01*
X0138629Y0084065D02*
X0100696Y0084065D01*
X0100304Y0084458D02*
X0138629Y0084458D01*
X0138629Y0084850D02*
X0099911Y0084850D01*
X0099519Y0085242D02*
X0138629Y0085242D01*
X0138629Y0085634D02*
X0094439Y0085634D01*
X0094439Y0086027D02*
X0115589Y0086027D01*
X0115197Y0086419D02*
X0094367Y0086419D01*
X0094119Y0086811D02*
X0114805Y0086811D01*
X0109871Y0083673D02*
X0109477Y0083673D01*
X0109477Y0083281D02*
X0109871Y0083281D01*
X0109871Y0082889D02*
X0109477Y0082889D01*
X0109477Y0082497D02*
X0109871Y0082497D01*
X0109871Y0082104D02*
X0109477Y0082104D01*
X0109477Y0081712D02*
X0109871Y0081712D01*
X0109871Y0081320D02*
X0109477Y0081320D01*
X0109477Y0080928D02*
X0109871Y0080928D01*
X0109871Y0080536D02*
X0109477Y0080536D01*
X0109477Y0080143D02*
X0105559Y0080143D01*
X0105559Y0079751D02*
X0106902Y0079751D01*
X0106902Y0079359D02*
X0105559Y0079359D01*
X0105559Y0078967D02*
X0106902Y0078967D01*
X0106902Y0078575D02*
X0105559Y0078575D01*
X0105559Y0078182D02*
X0106902Y0078182D01*
X0106902Y0077790D02*
X0105559Y0077790D01*
X0105559Y0077398D02*
X0106969Y0077398D01*
X0107207Y0077006D02*
X0105338Y0077006D01*
X0104945Y0076613D02*
X0107925Y0076613D01*
X0108218Y0076221D02*
X0102075Y0076221D01*
X0102467Y0075829D02*
X0107826Y0075829D01*
X0107434Y0075437D02*
X0102859Y0075437D01*
X0103251Y0075045D02*
X0107042Y0075045D01*
X0106649Y0074652D02*
X0103643Y0074652D01*
X0105559Y0080536D02*
X0106902Y0080536D01*
X0106902Y0080928D02*
X0105559Y0080928D01*
X0105559Y0081320D02*
X0106902Y0081320D01*
X0106902Y0081712D02*
X0105559Y0081712D01*
X0105559Y0082104D02*
X0106902Y0082104D01*
X0106902Y0082497D02*
X0105559Y0082497D01*
X0105559Y0082889D02*
X0106956Y0082889D01*
X0107157Y0083281D02*
X0105387Y0083281D01*
X0104995Y0083673D02*
X0107741Y0083673D01*
X0109871Y0080143D02*
X0136255Y0080143D01*
X0139157Y0077398D02*
X0160118Y0077398D01*
X0160225Y0077790D02*
X0139549Y0077790D01*
X0139941Y0078182D02*
X0160332Y0078182D01*
X0160439Y0078575D02*
X0140334Y0078575D01*
X0140726Y0078967D02*
X0150547Y0078967D01*
X0150155Y0079359D02*
X0141118Y0079359D01*
X0141510Y0079751D02*
X0149763Y0079751D01*
X0149371Y0080143D02*
X0146101Y0080143D01*
X0146493Y0080536D02*
X0148978Y0080536D01*
X0148586Y0080928D02*
X0146885Y0080928D01*
X0147277Y0081320D02*
X0148194Y0081320D01*
X0147802Y0081712D02*
X0147669Y0081712D01*
X0140313Y0088772D02*
X0128381Y0088772D01*
X0128381Y0088380D02*
X0139921Y0088380D01*
X0139529Y0087988D02*
X0128042Y0087988D01*
X0127650Y0087595D02*
X0139137Y0087595D01*
X0138744Y0087203D02*
X0121963Y0087203D01*
X0121571Y0086811D02*
X0138629Y0086811D01*
X0138629Y0086419D02*
X0121179Y0086419D01*
X0120787Y0086027D02*
X0138629Y0086027D01*
X0140350Y0089164D02*
X0128381Y0089164D01*
X0123170Y0087595D02*
X0122355Y0087595D01*
X0122748Y0087988D02*
X0122778Y0087988D01*
X0136412Y0074652D02*
X0159370Y0074652D01*
X0159263Y0074260D02*
X0136019Y0074260D01*
X0136804Y0075045D02*
X0159477Y0075045D01*
X0159584Y0075437D02*
X0137196Y0075437D01*
X0137588Y0075829D02*
X0159691Y0075829D01*
X0159798Y0076221D02*
X0137980Y0076221D01*
X0138373Y0076613D02*
X0159905Y0076613D01*
X0160011Y0077006D02*
X0138765Y0077006D01*
X0156817Y0078967D02*
X0160546Y0078967D01*
X0160653Y0079359D02*
X0157209Y0079359D01*
X0157601Y0079751D02*
X0160760Y0079751D01*
X0160867Y0080143D02*
X0157993Y0080143D01*
X0158385Y0080536D02*
X0160974Y0080536D01*
X0161045Y0080928D02*
X0158778Y0080928D01*
X0159170Y0081320D02*
X0161098Y0081320D01*
X0161150Y0081712D02*
X0159562Y0081712D01*
X0159954Y0082104D02*
X0161203Y0082104D01*
X0161255Y0082497D02*
X0160179Y0082497D01*
X0160179Y0082889D02*
X0161308Y0082889D01*
X0161360Y0083281D02*
X0160179Y0083281D01*
X0160179Y0083673D02*
X0161413Y0083673D01*
X0161465Y0084065D02*
X0160179Y0084065D01*
X0160179Y0084458D02*
X0161518Y0084458D01*
X0161570Y0084850D02*
X0160179Y0084850D01*
X0160179Y0085242D02*
X0161623Y0085242D01*
X0161675Y0085634D02*
X0160179Y0085634D01*
X0160179Y0086027D02*
X0161728Y0086027D01*
X0161780Y0086419D02*
X0160179Y0086419D01*
X0160179Y0086811D02*
X0161833Y0086811D01*
X0161885Y0087203D02*
X0160179Y0087203D01*
X0160179Y0087595D02*
X0161938Y0087595D01*
X0161990Y0087988D02*
X0160179Y0087988D01*
X0160179Y0088380D02*
X0162043Y0088380D01*
X0162095Y0088772D02*
X0160179Y0088772D01*
X0160179Y0089164D02*
X0162148Y0089164D01*
X0162200Y0089556D02*
X0160179Y0089556D01*
X0160179Y0089949D02*
X0162253Y0089949D01*
X0162305Y0090341D02*
X0160179Y0090341D01*
X0160179Y0090733D02*
X0162358Y0090733D01*
X0162367Y0091125D02*
X0159988Y0091125D01*
X0159596Y0091518D02*
X0162367Y0091518D01*
X0162367Y0091910D02*
X0159204Y0091910D01*
X0158811Y0092302D02*
X0162367Y0092302D01*
X0162367Y0092694D02*
X0158651Y0092694D01*
X0158822Y0093086D02*
X0162367Y0093086D01*
X0162367Y0093479D02*
X0158822Y0093479D01*
X0158822Y0093871D02*
X0162367Y0093871D01*
X0162367Y0094263D02*
X0158822Y0094263D01*
X0158822Y0094655D02*
X0162367Y0094655D01*
X0162367Y0095047D02*
X0158822Y0095047D01*
X0158822Y0095440D02*
X0162367Y0095440D01*
X0162367Y0095832D02*
X0158822Y0095832D01*
X0158822Y0096224D02*
X0162367Y0096224D01*
X0162367Y0096616D02*
X0158822Y0096616D01*
X0158822Y0097008D02*
X0162367Y0097008D01*
X0162367Y0097401D02*
X0158509Y0097401D01*
X0158117Y0097793D02*
X0162367Y0097793D01*
X0162367Y0098185D02*
X0157725Y0098185D01*
X0157332Y0098577D02*
X0162367Y0098577D01*
X0162367Y0098970D02*
X0156940Y0098970D01*
X0156548Y0099362D02*
X0162367Y0099362D01*
X0162367Y0099754D02*
X0156156Y0099754D01*
X0156103Y0100146D02*
X0162367Y0100146D01*
X0162367Y0100538D02*
X0156496Y0100538D01*
X0156888Y0100931D02*
X0162367Y0100931D01*
X0162328Y0101323D02*
X0157280Y0101323D01*
X0157672Y0101715D02*
X0162275Y0101715D01*
X0162223Y0102107D02*
X0158064Y0102107D01*
X0158457Y0102499D02*
X0162170Y0102499D01*
X0162118Y0102892D02*
X0158822Y0102892D01*
X0158822Y0103284D02*
X0162065Y0103284D01*
X0162013Y0103676D02*
X0158822Y0103676D01*
X0158822Y0104068D02*
X0161960Y0104068D01*
X0161908Y0104461D02*
X0158822Y0104461D01*
X0158822Y0104853D02*
X0161855Y0104853D01*
X0161803Y0105245D02*
X0158822Y0105245D01*
X0158822Y0105637D02*
X0161750Y0105637D01*
X0161698Y0106029D02*
X0158822Y0106029D01*
X0158822Y0106422D02*
X0161645Y0106422D01*
X0161593Y0106814D02*
X0158822Y0106814D01*
X0158704Y0107206D02*
X0161540Y0107206D01*
X0161488Y0107598D02*
X0158312Y0107598D01*
X0157919Y0107990D02*
X0161435Y0107990D01*
X0161383Y0108383D02*
X0157527Y0108383D01*
X0157135Y0108775D02*
X0161330Y0108775D01*
X0161278Y0109167D02*
X0156743Y0109167D01*
X0156351Y0109559D02*
X0161225Y0109559D01*
X0161173Y0109951D02*
X0155958Y0109951D01*
X0102384Y0149957D02*
X0068755Y0149957D01*
X0068938Y0150349D02*
X0102384Y0150349D01*
X0102384Y0150742D02*
X0069121Y0150742D01*
X0067973Y0154271D02*
X0070420Y0154271D01*
X0070347Y0154664D02*
X0071498Y0154664D01*
X0072143Y0154271D02*
X0072561Y0154271D01*
X0072704Y0153879D02*
X0072285Y0153879D01*
X0072428Y0153487D02*
X0072847Y0153487D01*
X0072990Y0153095D02*
X0072571Y0153095D01*
X0072714Y0152703D02*
X0073133Y0152703D01*
X0073275Y0152310D02*
X0072856Y0152310D01*
X0072311Y0154960D02*
X0074731Y0155840D01*
X0072575Y0155056D02*
X0072276Y0155056D01*
X0065320Y0156625D02*
X0064013Y0156625D01*
X0061110Y0153879D02*
X0054634Y0153879D01*
X0054634Y0153487D02*
X0061503Y0153487D01*
X0061895Y0153095D02*
X0054634Y0153095D01*
X0054384Y0152703D02*
X0062219Y0152703D01*
X0062362Y0152310D02*
X0053992Y0152310D01*
X0053599Y0151918D02*
X0062505Y0151918D01*
X0062648Y0151526D02*
X0053207Y0151526D01*
X0052815Y0151134D02*
X0062790Y0151134D01*
X0062933Y0150742D02*
X0052423Y0150742D01*
X0052031Y0150349D02*
X0063076Y0150349D01*
X0063219Y0149957D02*
X0051638Y0149957D01*
X0051246Y0149565D02*
X0063361Y0149565D01*
X0060718Y0154271D02*
X0054472Y0154271D01*
X0054080Y0154664D02*
X0060326Y0154664D01*
X0059934Y0155056D02*
X0053687Y0155056D01*
X0053295Y0155448D02*
X0059542Y0155448D01*
X0059149Y0155840D02*
X0052903Y0155840D01*
X0052511Y0156233D02*
X0058757Y0156233D01*
X0058365Y0156625D02*
X0052119Y0156625D01*
X0043384Y0155840D02*
X0038812Y0155840D01*
X0039204Y0156233D02*
X0042992Y0156233D01*
X0042600Y0156625D02*
X0039596Y0156625D01*
X0039988Y0157017D02*
X0042208Y0157017D01*
X0041816Y0157409D02*
X0040381Y0157409D01*
X0040773Y0157801D02*
X0041423Y0157801D01*
X0018744Y0134269D02*
X0017240Y0134269D01*
X0016964Y0133876D02*
X0019136Y0133876D01*
X0019528Y0133484D02*
X0016748Y0133484D01*
X0016532Y0133092D02*
X0019920Y0133092D01*
X0020312Y0132700D02*
X0016316Y0132700D01*
X0017632Y0134661D02*
X0018351Y0134661D01*
X0027266Y0106422D02*
X0029249Y0106422D01*
X0029641Y0106029D02*
X0027429Y0106029D01*
X0027445Y0105637D02*
X0030033Y0105637D01*
X0030426Y0105245D02*
X0027445Y0105245D01*
X0027445Y0104853D02*
X0030818Y0104853D01*
X0031210Y0104461D02*
X0027445Y0104461D01*
X0027350Y0104068D02*
X0031602Y0104068D01*
X0031995Y0103676D02*
X0027188Y0103676D01*
X0027025Y0103284D02*
X0032285Y0103284D01*
X0032285Y0102892D02*
X0026863Y0102892D01*
X0026562Y0102499D02*
X0032285Y0102499D01*
X0032285Y0102107D02*
X0026926Y0102107D01*
X0027248Y0101715D02*
X0032285Y0101715D01*
X0031083Y0101323D02*
X0027248Y0101323D01*
X0027483Y0100931D02*
X0030690Y0100931D01*
X0030455Y0100538D02*
X0027875Y0100538D01*
X0030113Y0080536D02*
X0018136Y0080536D01*
X0018020Y0080143D02*
X0029721Y0080143D01*
X0029537Y0079751D02*
X0017857Y0079751D01*
X0017695Y0079359D02*
X0028739Y0079359D01*
X0027532Y0078967D02*
X0017532Y0078967D01*
X0017370Y0078575D02*
X0026776Y0078575D01*
X0027142Y0078840D02*
X0027142Y0078840D01*
X0026237Y0078182D02*
X0017085Y0078182D01*
X0016693Y0077790D02*
X0025697Y0077790D01*
X0025157Y0077398D02*
X0016300Y0077398D01*
X0015908Y0077006D02*
X0024742Y0077006D01*
X0024883Y0077198D02*
X0024883Y0077198D01*
X0024883Y0077198D01*
X0024458Y0076613D02*
X0015202Y0076613D01*
X0014255Y0076221D02*
X0024173Y0076221D01*
X0023888Y0075829D02*
X0009247Y0075829D01*
X0009354Y0075437D02*
X0023603Y0075437D01*
X0023318Y0075045D02*
X0009461Y0075045D01*
X0009568Y0074652D02*
X0023148Y0074652D01*
X0023021Y0074260D02*
X0009675Y0074260D01*
X0009782Y0073868D02*
X0022893Y0073868D01*
X0020951Y0073476D02*
X0009889Y0073476D01*
X0009996Y0073084D02*
X0020559Y0073084D01*
X0020516Y0072691D02*
X0010103Y0072691D01*
X0010210Y0072299D02*
X0020516Y0072299D01*
X0020516Y0071907D02*
X0010317Y0071907D01*
X0010423Y0071515D02*
X0020516Y0071515D01*
X0020516Y0071122D02*
X0010530Y0071122D01*
X0010637Y0070730D02*
X0020516Y0070730D01*
X0020516Y0070338D02*
X0010772Y0070338D01*
X0010937Y0069946D02*
X0020516Y0069946D01*
X0020516Y0069554D02*
X0011103Y0069554D01*
X0011269Y0069161D02*
X0020516Y0069161D01*
X0020516Y0068769D02*
X0011435Y0068769D01*
X0011601Y0068377D02*
X0020874Y0068377D01*
X0021266Y0067985D02*
X0011767Y0067985D01*
X0011933Y0067593D02*
X0043823Y0067593D01*
X0043816Y0067985D02*
X0035955Y0067985D01*
X0036584Y0068377D02*
X0043816Y0068377D01*
X0043816Y0068769D02*
X0036797Y0068769D01*
X0036855Y0069161D02*
X0041240Y0069161D01*
X0040847Y0069554D02*
X0036855Y0069554D01*
X0036855Y0069946D02*
X0040576Y0069946D01*
X0040576Y0070338D02*
X0036855Y0070338D01*
X0036855Y0071122D02*
X0040576Y0071122D01*
X0040576Y0070730D02*
X0033493Y0070730D01*
X0033493Y0070338D02*
X0033099Y0070338D01*
X0033099Y0069946D02*
X0033493Y0069946D01*
X0033493Y0069554D02*
X0033099Y0069554D01*
X0033099Y0069161D02*
X0033493Y0069161D01*
X0033493Y0068769D02*
X0033099Y0068769D01*
X0033099Y0068377D02*
X0033493Y0068377D01*
X0033493Y0067985D02*
X0033099Y0067985D01*
X0033099Y0066416D02*
X0033493Y0066416D01*
X0033493Y0066024D02*
X0033099Y0066024D01*
X0033099Y0065632D02*
X0033493Y0065632D01*
X0033493Y0065239D02*
X0033099Y0065239D01*
X0033099Y0064847D02*
X0033493Y0064847D01*
X0033493Y0064455D02*
X0033099Y0064455D01*
X0030543Y0061317D02*
X0027704Y0061317D01*
X0028034Y0061709D02*
X0029983Y0061709D01*
X0029789Y0062102D02*
X0028034Y0062102D01*
X0028034Y0062494D02*
X0029737Y0062494D01*
X0029737Y0062886D02*
X0028034Y0062886D01*
X0028034Y0063278D02*
X0029737Y0063278D01*
X0029737Y0063670D02*
X0028034Y0063670D01*
X0027312Y0060925D02*
X0043823Y0060925D01*
X0043823Y0061317D02*
X0036049Y0061317D01*
X0036609Y0061709D02*
X0043823Y0061709D01*
X0043823Y0062102D02*
X0036804Y0062102D01*
X0036855Y0062494D02*
X0043823Y0062494D01*
X0043823Y0062886D02*
X0036855Y0062886D01*
X0036855Y0063278D02*
X0043823Y0063278D01*
X0043823Y0063670D02*
X0036855Y0063670D01*
X0036400Y0059748D02*
X0043823Y0059748D01*
X0043823Y0059356D02*
X0036792Y0059356D01*
X0037055Y0058964D02*
X0043823Y0058964D01*
X0043823Y0060141D02*
X0027911Y0060141D01*
X0027519Y0060533D02*
X0043823Y0060533D01*
X0043823Y0067200D02*
X0012098Y0067200D01*
X0010955Y0076221D02*
X0009140Y0076221D01*
X0009033Y0076613D02*
X0010008Y0076613D01*
X0009302Y0077006D02*
X0008926Y0077006D01*
X0008910Y0077398D02*
X0008819Y0077398D01*
X0028477Y0075045D02*
X0030145Y0075045D01*
X0029753Y0075437D02*
X0029145Y0075437D01*
X0033099Y0073476D02*
X0033493Y0073476D01*
X0033493Y0073084D02*
X0033099Y0073084D01*
X0033099Y0072691D02*
X0033493Y0072691D01*
X0033493Y0072299D02*
X0033099Y0072299D01*
X0033099Y0071907D02*
X0033493Y0071907D01*
X0033493Y0071515D02*
X0033099Y0071515D01*
X0033099Y0071122D02*
X0033493Y0071122D01*
X0033099Y0070730D02*
X0028034Y0070730D01*
X0035872Y0073476D02*
X0040576Y0073476D01*
X0040576Y0073084D02*
X0036561Y0073084D01*
X0036791Y0072691D02*
X0040576Y0072691D01*
X0040576Y0072299D02*
X0036855Y0072299D01*
X0036855Y0071907D02*
X0040576Y0071907D01*
X0040576Y0071515D02*
X0036855Y0071515D01*
X0030192Y0059748D02*
X0028303Y0059748D01*
X0029144Y0059356D02*
X0029800Y0059356D01*
X0087647Y0082104D02*
X0089286Y0082104D01*
X0089286Y0082497D02*
X0087647Y0082497D01*
X0087647Y0082889D02*
X0089286Y0082889D01*
X0089286Y0083281D02*
X0087647Y0083281D01*
X0087626Y0083673D02*
X0089286Y0083673D01*
X0089286Y0084065D02*
X0087469Y0084065D01*
X0087075Y0084458D02*
X0089286Y0084458D01*
X0095308Y0139760D02*
X0068679Y0139760D01*
X0068679Y0140152D02*
X0095308Y0140152D01*
D37*
X0099005Y0140461D02*
X0103173Y0140482D01*
X0103048Y0135442D01*
X0099005Y0134161D01*
X0109674Y0085286D02*
X0086839Y0085286D01*
X0086450Y0084897D01*
X0086450Y0073988D01*
X0084482Y0073988D02*
X0084482Y0070518D01*
X0086048Y0068951D01*
X0084871Y0067774D01*
X0084871Y0065010D01*
X0080737Y0064420D02*
X0080737Y0068759D01*
X0080930Y0068951D01*
X0082513Y0070535D01*
X0082513Y0073988D01*
X0080545Y0073988D02*
X0075619Y0069062D01*
X0075619Y0064420D01*
X0075605Y0064406D01*
X0071551Y0064406D01*
X0071564Y0064393D01*
X0071564Y0059323D01*
X0065557Y0068509D02*
X0074579Y0077531D01*
X0077002Y0077531D01*
X0077002Y0081468D02*
X0084482Y0081468D01*
X0086446Y0081468D01*
X0088414Y0080168D02*
X0089083Y0079499D01*
X0091962Y0079499D01*
X0109674Y0080168D02*
X0109674Y0085286D01*
X0065557Y0068509D02*
X0045720Y0068509D01*
X0045720Y0056789D01*
X0033296Y0056789D01*
X0033296Y0056546D01*
X0033296Y0056789D02*
X0033296Y0056940D01*
X0031137Y0056940D01*
X0031137Y0056939D02*
X0030971Y0056941D01*
X0030805Y0056947D01*
X0030640Y0056957D01*
X0030475Y0056971D01*
X0030310Y0056989D01*
X0030146Y0057011D01*
X0029982Y0057037D01*
X0029819Y0057067D01*
X0029656Y0057101D01*
X0029495Y0057138D01*
X0029334Y0057180D01*
X0029175Y0057226D01*
X0029017Y0057275D01*
X0028859Y0057328D01*
X0028704Y0057385D01*
X0028549Y0057446D01*
X0028397Y0057510D01*
X0028245Y0057578D01*
X0028096Y0057650D01*
X0027948Y0057725D01*
X0027802Y0057804D01*
X0027658Y0057886D01*
X0027516Y0057972D01*
X0027377Y0058061D01*
X0027239Y0058154D01*
X0027104Y0058250D01*
X0026971Y0058349D01*
X0026840Y0058451D01*
X0026712Y0058556D01*
X0026587Y0058665D01*
X0026464Y0058776D01*
X0026344Y0058891D01*
X0026227Y0059008D01*
X0026112Y0059128D01*
X0026001Y0059251D01*
X0025892Y0059376D01*
X0025787Y0059504D01*
X0025685Y0059635D01*
X0025586Y0059768D01*
X0025490Y0059903D01*
X0025397Y0060041D01*
X0025308Y0060180D01*
X0025222Y0060322D01*
X0025140Y0060466D01*
X0025061Y0060612D01*
X0024986Y0060760D01*
X0024914Y0060909D01*
X0024846Y0061061D01*
X0024782Y0061213D01*
X0024721Y0061368D01*
X0024664Y0061523D01*
X0024611Y0061681D01*
X0024562Y0061839D01*
X0024516Y0061998D01*
X0024474Y0062159D01*
X0024437Y0062320D01*
X0024403Y0062483D01*
X0024373Y0062646D01*
X0024347Y0062810D01*
X0024325Y0062974D01*
X0024307Y0063139D01*
X0024293Y0063304D01*
X0024283Y0063469D01*
X0024277Y0063635D01*
X0024275Y0063801D01*
X0024275Y0070888D02*
X0024277Y0071055D01*
X0024283Y0071222D01*
X0024293Y0071389D01*
X0024307Y0071556D01*
X0024325Y0071722D01*
X0024348Y0071888D01*
X0024374Y0072053D01*
X0024404Y0072217D01*
X0024438Y0072381D01*
X0024476Y0072544D01*
X0024518Y0072705D01*
X0024564Y0072866D01*
X0024614Y0073026D01*
X0024667Y0073184D01*
X0024725Y0073341D01*
X0024786Y0073497D01*
X0024851Y0073651D01*
X0024919Y0073803D01*
X0024992Y0073954D01*
X0025067Y0074103D01*
X0025147Y0074250D01*
X0025230Y0074395D01*
X0025316Y0074538D01*
X0025406Y0074679D01*
X0025500Y0074818D01*
X0025596Y0074954D01*
X0025696Y0075088D01*
X0025799Y0075220D01*
X0025905Y0075349D01*
X0026015Y0075475D01*
X0026127Y0075599D01*
X0026242Y0075720D01*
X0026361Y0075839D01*
X0026482Y0075954D01*
X0026606Y0076066D01*
X0026732Y0076176D01*
X0026861Y0076282D01*
X0026993Y0076385D01*
X0027127Y0076485D01*
X0027263Y0076581D01*
X0027402Y0076675D01*
X0027543Y0076765D01*
X0027686Y0076851D01*
X0027831Y0076934D01*
X0027978Y0077014D01*
X0028127Y0077089D01*
X0028278Y0077162D01*
X0028430Y0077230D01*
X0028584Y0077295D01*
X0028740Y0077356D01*
X0028897Y0077414D01*
X0029055Y0077467D01*
X0029215Y0077517D01*
X0029376Y0077563D01*
X0029537Y0077605D01*
X0029700Y0077643D01*
X0029864Y0077677D01*
X0030028Y0077707D01*
X0030193Y0077733D01*
X0030359Y0077756D01*
X0030525Y0077774D01*
X0030692Y0077788D01*
X0030859Y0077798D01*
X0031026Y0077804D01*
X0031193Y0077806D01*
X0033296Y0077806D01*
X0056461Y0077806D01*
X0060279Y0081624D01*
X0045713Y0072569D02*
X0045713Y0068509D01*
X0045720Y0068509D01*
X0045713Y0072569D02*
X0045107Y0072569D01*
X0033296Y0070719D02*
X0033296Y0064026D01*
D38*
X0044469Y0098552D02*
X0044123Y0098869D01*
X0038709Y0104282D01*
X0038709Y0122491D01*
X0038652Y0122585D01*
X0031282Y0122632D02*
X0031171Y0122585D01*
X0031282Y0122632D02*
X0031282Y0127432D01*
X0036082Y0132232D01*
X0036249Y0132333D01*
X0036116Y0132234D01*
X0036116Y0132234D01*
X0036082Y0132232D01*
X0040292Y0136410D02*
X0040582Y0136432D01*
X0066682Y0136432D01*
X0066682Y0118432D01*
X0065482Y0117232D01*
X0061582Y0117232D01*
X0057982Y0113632D01*
X0055882Y0113632D01*
X0055616Y0113630D01*
X0049582Y0098632D02*
X0045082Y0098632D01*
X0044469Y0098552D01*
X0049582Y0098632D02*
X0050182Y0098032D01*
X0069982Y0098032D01*
X0069982Y0101632D01*
X0070582Y0102232D01*
X0072382Y0102232D01*
X0079282Y0109132D01*
X0079282Y0113632D01*
X0095482Y0129832D01*
X0095482Y0131332D01*
X0095796Y0131841D01*
X0098257Y0131841D01*
X0098749Y0131349D01*
X0099005Y0131012D01*
X0099382Y0131332D01*
X0101782Y0131332D01*
X0104782Y0134332D01*
X0126308Y0134332D01*
X0126308Y0124951D01*
X0129261Y0121999D01*
X0129261Y0115109D01*
X0133690Y0110680D01*
X0132805Y0127862D02*
X0132982Y0128032D01*
X0135382Y0128032D01*
X0136582Y0129232D01*
X0136582Y0132532D01*
X0135082Y0134032D01*
X0132982Y0134032D01*
X0132805Y0134161D01*
X0132382Y0134332D01*
X0126308Y0134332D01*
X0099005Y0137311D02*
X0098749Y0137255D01*
X0096288Y0137255D01*
X0093335Y0134302D01*
X0095796Y0131841D01*
X0066682Y0136432D02*
X0066682Y0151432D01*
X0065482Y0152632D01*
X0065400Y0152654D01*
X0064882Y0152932D01*
X0059782Y0158032D01*
X0059782Y0162832D01*
X0059754Y0162983D01*
X0086482Y0098932D02*
X0094582Y0098932D01*
X0094870Y0099035D01*
X0086482Y0098932D02*
X0076882Y0089332D01*
X0069982Y0096232D01*
X0069982Y0098032D01*
X0076882Y0089332D02*
X0074482Y0086932D01*
X0074482Y0084232D01*
X0075382Y0083332D01*
X0076882Y0083332D01*
X0077002Y0083436D01*
X0088419Y0073988D02*
X0088906Y0073770D01*
X0091367Y0073770D01*
X0091367Y0073672D01*
X0104162Y0060877D01*
X0113611Y0060877D01*
X0121879Y0069144D01*
X0121879Y0075837D01*
X0122272Y0076231D01*
X0111052Y0076231D01*
X0107115Y0072294D01*
X0103178Y0072294D01*
X0093828Y0081644D01*
X0093382Y0081532D01*
X0092182Y0081532D01*
X0067253Y0061467D02*
X0067194Y0061437D01*
X0122272Y0076231D02*
X0135166Y0076231D01*
X0143532Y0084597D01*
X0143725Y0084976D01*
D39*
X0124241Y0082530D03*
X0115186Y0071113D03*
X0096682Y0059302D03*
X0101800Y0090798D03*
X0133690Y0110680D03*
X0118335Y0131743D03*
X0061249Y0128593D03*
X0043532Y0108514D03*
X0034083Y0109302D03*
X0055737Y0107727D03*
X0056131Y0055759D03*
D40*
X0084871Y0056073D02*
X0084871Y0059892D01*
X0085173Y0051809D02*
X0089682Y0051809D01*
X0085173Y0051809D02*
X0084871Y0051507D01*
X0084875Y0051502D01*
X0084875Y0046193D01*
M02*
